M48
; DRILL file {KiCad (5.1.8)-1} date 01/24/21 11:35:53
; FORMAT={-:-/ absolute / inch / decimal}
; #@! TF.CreationDate,2021-01-24T11:35:53-08:00
; #@! TF.GenerationSoftware,Kicad,Pcbnew,(5.1.8)-1
; #@! TF.FileFunction,Plated,1,2,PTH
FMAT,2
INCH
T1C0.0157
T2C0.0315
%
G90
G05
T1
X4.7205Y-3.3976
X4.7362Y-4.1496
X4.752Y-3.3661
X4.7697Y-4.1161
X4.7835Y-3.3346
X4.8012Y-4.0866
X4.815Y-3.3031
X4.8327Y-4.0551
X4.8465Y-3.2717
X4.8642Y-4.0236
X4.878Y-3.2402
X4.8957Y-3.9921
X4.9094Y-3.2087
X4.9252Y-3.9606
X4.9409Y-3.1772
X4.9567Y-3.9291
X5.0315Y-2.0236
X5.0315Y-2.0866
X5.0945Y-2.0236
X5.0945Y-2.0866
X5.1024Y-4.1496
X5.1024Y-4.2126
X5.1024Y-4.2756
X5.1102Y-3.126
X5.1417Y-3.6378
X5.1417Y-3.7008
X5.1417Y-3.7638
X5.1575Y-2.0236
X5.1575Y-2.0866
X5.1654Y-4.1496
X5.1654Y-4.2126
X5.1654Y-4.2756
X5.1732Y-3.063
X5.1732Y-3.126
X5.2283Y-4.1496
X5.2283Y-4.2126
X5.2283Y-4.2756
X5.2677Y-3.5118
X5.2677Y-3.5748
X5.2677Y-3.6378
X5.2677Y-3.7008
X5.2677Y-3.7638
X5.3898Y-2.1063
X5.4311Y-2.6004
X5.4843Y-2.7697
X5.5197Y-2.2992
X5.5197Y-2.3622
X5.5197Y-2.4252
X5.5354Y-3.5669
X5.5827Y-2.2992
X5.5827Y-2.3622
X5.5827Y-2.4252
X5.5984Y-3.5669
X5.5984Y-3.6299
X5.6457Y-2.2992
X5.6457Y-2.3622
X5.6457Y-2.4252
X5.6476Y-4.4291
X5.6614Y-2.6772
X5.6614Y-2.7402
X5.6614Y-2.8031
X5.6732Y-4.3937
X5.7008Y-4.3602
X5.7244Y-2.6772
X5.7244Y-2.7402
X5.7244Y-2.8031
X5.7303Y-4.3268
X5.7559Y-4.2913
X5.7854Y-4.2628
X5.7874Y-2.6772
X5.7874Y-2.7402
X5.7874Y-2.8031
X5.811Y-3.6378
X5.811Y-3.7008
X5.811Y-3.7638
X5.815Y-4.2264
X5.8425Y-3.3031
X5.8465Y-3.2402
X5.8465Y-4.1969
X5.874Y-3.3346
X5.874Y-3.7008
X5.874Y-3.7638
X5.878Y-3.2717
X5.9055Y-3.3976
X5.9094Y-3.2087
X5.937Y-3.3661
X5.937Y-3.7638
X5.9409Y-3.1772
X5.9685Y-3.4291
X6.0Y-3.063
X6.0Y-3.126
X6.0591Y-3.1142
X6.0906Y-3.1457
X6.1102Y-2.1417
X6.1102Y-2.2047
X6.1102Y-2.2677
X6.1732Y-2.1417
X6.2205Y-3.0787
X6.252Y-2.4724
X6.252Y-2.5354
X6.2835Y-3.0787
X6.2992Y-4.4291
X6.3091Y-3.4587
X6.315Y-2.5354
X6.315Y-2.7638
X6.3307Y-3.7087
X6.3307Y-3.7579
X6.3386Y-3.0787
X6.3504Y-4.3937
X6.3691Y-2.8088
X6.3701Y-2.8622
X6.378Y-2.5354
X6.3937Y-3.063
X6.3976Y-3.6811
X6.3996Y-4.3602
X6.4292Y-3.6526
X6.4409Y-2.5354
X6.4508Y-4.3268
X6.4577Y-3.622
X6.4646Y-2.1102
X6.4878Y-3.5901
X6.4961Y-2.2126
X6.4961Y-2.2756
X6.5Y-4.2913
X6.5039Y-2.9961
X6.5325Y-2.9449
X6.5492Y-4.2638
X6.5591Y-2.2126
X6.5591Y-2.2756
X6.5591Y-2.3386
X6.563Y-3.874
X6.5945Y-2.6772
X6.5945Y-2.8071
X6.5945Y-3.9055
X6.6004Y-4.2264
X6.622Y-2.2126
X6.622Y-2.2756
X6.622Y-2.3386
X6.626Y-2.9449
X6.626Y-3.8425
X6.6496Y-4.1969
X6.6575Y-2.9961
X6.6575Y-3.811
X6.685Y-2.2126
X6.685Y-2.2756
X6.685Y-2.3386
X6.689Y-4.0
X6.7165Y-4.1417
X6.7165Y-4.2047
X6.7165Y-4.2677
X6.7205Y-4.0315
X6.748Y-2.3386
X6.752Y-3.9685
X6.7638Y-3.0079
X6.7795Y-4.1417
X6.7795Y-4.2047
X6.7795Y-4.2677
X6.7835Y-3.937
X6.8031Y-3.4331
X6.8268Y-3.0079
X6.8425Y-4.1417
X6.8425Y-4.2047
X6.9182Y-3.0757
X7.0213Y-3.1042
X7.0276Y-2.7756
X7.0509Y-3.1458
X7.1496Y-3.063
X7.185Y-2.9094
X7.188Y-3.4331
X7.1969Y-3.9281
X7.2047Y-2.9882
X7.2047Y-3.6614
X7.2288Y-3.9052
X7.2362Y-2.9567
X7.2598Y-3.874
X7.2677Y-2.9252
X7.2756Y-2.4173
X7.2913Y-3.8425
X7.2992Y-2.8937
X7.3071Y-3.9291
X7.315Y-2.4488
X7.3228Y-3.811
X7.3307Y-2.7992
X7.3465Y-2.6063
X7.3465Y-2.6693
X7.3543Y-3.7795
X7.3622Y-2.7677
X7.3701Y-3.8661
X7.3701Y-3.9291
X7.3858Y-3.748
X7.3937Y-2.8307
X7.4094Y-2.6063
X7.4173Y-3.7165
X7.4252Y-2.8622
X7.4291Y-3.1772
X7.4331Y-3.8031
X7.4331Y-3.8661
X7.4331Y-3.9291
X7.4606Y-3.2087
X7.4724Y-2.7008
X7.4803Y-2.0945
X7.4921Y-3.2402
X7.4961Y-3.8031
X7.4961Y-3.8661
X7.4961Y-3.9291
X7.5118Y-2.2756
X7.5236Y-3.2717
X7.5354Y-2.6378
X7.5354Y-2.7008
X7.5433Y-2.3071
X7.5551Y-3.3031
X7.5591Y-3.8661
X7.5591Y-3.9291
X7.5748Y-2.3386
X7.5866Y-3.3346
X7.5984Y-2.7008
X7.6181Y-3.3661
X7.622Y-3.9291
X7.6496Y-3.3976
X7.6535Y-2.6299
X7.6614Y-3.1732
X7.6614Y-3.2362
X7.6767Y-2.3853
X7.6772Y-2.2205
X7.6772Y-2.2717
X7.685Y-3.3543
X7.7244Y-3.1732
X7.7244Y-3.2362
X7.7244Y-3.2992
X7.7323Y-3.937
X7.7418Y-4.4075
X7.7717Y-4.3819
X7.78Y-3.9375
X7.7874Y-3.1732
X7.7874Y-3.2362
X7.7874Y-3.2992
X7.828Y-3.9401
X7.8346Y-2.3228
X7.874Y-3.937
X7.9208Y-3.937
X7.9646Y-2.5512
X7.9685Y-3.937
X8.0Y-4.3937
X8.0148Y-3.9407
X8.0433Y-2.7677
X8.0433Y-2.8189
X8.0433Y-2.8701
X8.0433Y-2.9173
X8.0433Y-2.9685
X8.0433Y-3.0197
X8.0433Y-3.0669
X8.0433Y-3.1181
X8.0433Y-3.5157
X8.0433Y-3.5669
X8.0433Y-3.6181
X8.0433Y-3.6654
X8.0433Y-3.7165
X8.0433Y-3.7677
X8.0433Y-3.815
X8.0433Y-3.8661
X8.0472Y-2.4213
X8.063Y-3.937
X8.1102Y-3.1732
X8.1102Y-3.2992
X8.1102Y-3.937
X8.1732Y-3.1732
X8.1732Y-3.2362
X8.1732Y-3.2992
X8.2362Y-2.126
X8.2362Y-2.189
X8.2362Y-3.1732
X8.2362Y-3.2362
X8.2362Y-3.2992
X8.2992Y-2.126
X8.2992Y-2.189
X8.315Y-3.5433
X8.315Y-3.5827
X8.3622Y-2.126
X8.3622Y-2.189
X8.4252Y-2.126
X8.4252Y-2.189
X8.4882Y-2.126
X8.4882Y-2.189
T2
X4.748Y-3.4567
X4.8898Y-2.6673
X5.4508Y-2.124
X5.4882Y-3.4961
X6.3425Y-3.5512
X6.5433Y-2.1102
X7.0945Y-3.1024
X7.5118Y-4.3622
X7.5591Y-2.1024
X7.6063Y-4.3642
X8.0746Y-4.3642
X8.1969Y-2.5827
X8.2362Y-3.4882
X8.4094Y-4.3819
T0
M30
