M48
; DRILL file {KiCad (5.1.8)-1} date 01/11/22 15:51:49
; FORMAT={-:-/ absolute / metric / decimal}
; #@! TF.CreationDate,2022-01-11T15:51:49-08:00
; #@! TF.GenerationSoftware,Kicad,Pcbnew,(5.1.8)-1
; #@! TF.FileFunction,Plated,1,2,PTH
FMAT,2
METRIC
T1C0.400
T2C0.800
%
G90
G05
T1
X119.9Y-86.3
X120.3Y-105.4
X120.7Y-85.5
X121.15Y-104.55
X121.5Y-84.7
X121.95Y-103.8
X122.3Y-83.9
X122.75Y-103.0
X123.1Y-83.1
X123.55Y-102.2
X123.9Y-82.3
X124.35Y-101.4
X124.7Y-81.5
X125.1Y-100.6
X125.5Y-80.7
X125.9Y-99.8
X127.8Y-51.4
X127.8Y-53.0
X129.4Y-51.4
X129.4Y-53.0
X129.6Y-105.4
X129.6Y-107.0
X129.6Y-108.6
X129.8Y-79.4
X130.6Y-92.4
X130.6Y-94.0
X130.6Y-95.6
X131.0Y-51.4
X131.0Y-53.0
X131.2Y-105.4
X131.2Y-107.0
X131.2Y-108.6
X131.4Y-77.8
X131.4Y-79.4
X132.8Y-105.4
X132.8Y-107.0
X132.8Y-108.6
X133.8Y-89.2
X133.8Y-90.8
X133.8Y-92.4
X133.8Y-94.0
X133.8Y-95.6
X136.9Y-53.5
X137.95Y-66.05
X139.3Y-70.35
X140.2Y-58.4
X140.2Y-60.0
X140.2Y-61.6
X140.6Y-90.6
X141.8Y-58.4
X141.8Y-60.0
X141.8Y-61.6
X142.2Y-90.6
X142.2Y-92.2
X143.4Y-58.4
X143.4Y-60.0
X143.4Y-61.6
X143.45Y-112.5
X143.8Y-68.0
X143.8Y-69.6
X143.8Y-71.2
X144.1Y-111.6
X144.8Y-110.75
X145.4Y-68.0
X145.4Y-69.6
X145.4Y-71.2
X145.55Y-109.9
X146.2Y-109.0
X146.95Y-108.275
X147.0Y-68.0
X147.0Y-69.6
X147.0Y-71.2
X147.6Y-92.4
X147.6Y-94.0
X147.6Y-95.6
X147.7Y-107.35
X148.4Y-83.9
X148.5Y-82.3
X148.5Y-106.6
X149.2Y-84.7
X149.2Y-94.0
X149.2Y-95.6
X149.3Y-83.1
X150.0Y-86.3
X150.1Y-81.5
X150.8Y-85.5
X150.8Y-95.6
X150.9Y-80.7
X151.6Y-87.1
X152.4Y-77.8
X152.4Y-79.4
X153.9Y-79.1
X154.7Y-79.9
X155.2Y-54.4
X155.2Y-56.0
X155.2Y-57.6
X156.8Y-54.4
X158.0Y-78.2
X158.8Y-62.8
X158.8Y-64.4
X159.6Y-78.2
X160.0Y-112.5
X160.25Y-87.85
X160.4Y-64.4
X160.4Y-70.2
X160.8Y-94.2
X160.8Y-95.45
X161.0Y-78.2
X161.3Y-111.6
X161.775Y-71.343
X161.8Y-72.7
X162.0Y-64.4
X162.4Y-77.8
X162.5Y-93.5
X162.55Y-110.75
X163.303Y-92.775
X163.6Y-64.4
X163.85Y-109.9
X164.025Y-92.0
X164.2Y-53.6
X164.789Y-91.189
X165.0Y-56.2
X165.0Y-57.8
X165.1Y-109.0
X165.2Y-76.1
X165.925Y-74.8
X166.35Y-108.3
X166.6Y-56.2
X166.6Y-57.8
X166.6Y-59.4
X166.7Y-98.4
X167.5Y-68.0
X167.5Y-71.3
X167.5Y-99.2
X167.65Y-107.35
X168.2Y-56.2
X168.2Y-57.8
X168.2Y-59.4
X168.3Y-74.8
X168.3Y-97.6
X168.9Y-106.6
X169.1Y-76.1
X169.1Y-96.8
X169.8Y-56.2
X169.8Y-57.8
X169.8Y-59.4
X169.9Y-101.6
X170.6Y-105.2
X170.6Y-106.8
X170.6Y-108.4
X170.7Y-102.4
X171.4Y-59.4
X171.5Y-100.8
X171.8Y-76.4
X172.2Y-105.2
X172.2Y-106.8
X172.2Y-108.4
X172.3Y-100.0
X172.8Y-87.2
X173.4Y-76.4
X173.8Y-105.2
X173.8Y-106.8
X175.723Y-78.123
X178.342Y-78.845
X178.5Y-70.5
X179.093Y-79.903
X181.6Y-77.8
X182.5Y-73.9
X182.575Y-87.2
X182.8Y-99.775
X183.0Y-75.9
X183.0Y-93.0
X183.612Y-99.191
X183.8Y-75.1
X184.4Y-98.4
X184.6Y-74.3
X184.8Y-61.4
X185.2Y-97.6
X185.4Y-73.5
X185.6Y-99.8
X185.8Y-62.2
X186.0Y-96.8
X186.2Y-71.1
X186.6Y-66.2
X186.6Y-67.8
X186.8Y-96.0
X187.0Y-70.3
X187.2Y-98.2
X187.2Y-99.8
X187.6Y-95.2
X187.8Y-71.9
X188.2Y-66.2
X188.4Y-94.4
X188.6Y-72.7
X188.7Y-80.7
X188.8Y-96.6
X188.8Y-98.2
X188.8Y-99.8
X189.5Y-81.5
X189.8Y-68.6
X189.999Y-53.201
X190.3Y-82.3
X190.4Y-96.6
X190.4Y-98.2
X190.4Y-99.8
X190.8Y-57.8
X191.1Y-83.1
X191.4Y-67.0
X191.4Y-68.6
X191.6Y-58.6
X191.9Y-83.9
X192.0Y-98.2
X192.0Y-99.8
X192.4Y-59.4
X192.7Y-84.7
X193.0Y-68.6
X193.5Y-85.5
X193.6Y-99.8
X194.3Y-86.3
X194.4Y-66.8
X194.6Y-80.6
X194.6Y-82.2
X194.987Y-60.587
X195.0Y-56.4
X195.0Y-57.7
X195.2Y-85.2
X196.2Y-80.6
X196.2Y-82.2
X196.2Y-83.8
X196.4Y-100.0
X196.641Y-111.951
X197.4Y-111.3
X197.613Y-100.013
X197.8Y-80.6
X197.8Y-82.2
X197.8Y-83.8
X198.831Y-100.08
X199.0Y-59.0
X200.0Y-100.0
X201.187Y-100.0
X202.3Y-64.8
X202.4Y-100.0
X203.2Y-111.6
X203.576Y-100.094
X204.3Y-70.3
X204.3Y-71.6
X204.3Y-72.9
X204.3Y-74.1
X204.3Y-75.4
X204.3Y-76.7
X204.3Y-77.9
X204.3Y-79.2
X204.3Y-89.3
X204.3Y-90.6
X204.3Y-91.9
X204.3Y-93.1
X204.3Y-94.4
X204.3Y-95.7
X204.3Y-96.9
X204.3Y-98.2
X204.4Y-61.5
X204.8Y-100.0
X206.0Y-80.6
X206.0Y-83.8
X206.0Y-100.0
X207.6Y-80.6
X207.6Y-82.2
X207.6Y-83.8
X209.2Y-54.0
X209.2Y-55.6
X209.2Y-80.6
X209.2Y-82.2
X209.2Y-83.8
X210.8Y-54.0
X210.8Y-55.6
X211.2Y-90.0
X211.2Y-91.0
X212.4Y-54.0
X212.4Y-55.6
X214.0Y-54.0
X214.0Y-55.6
X215.6Y-54.0
X215.6Y-55.6
T2
X120.6Y-87.8
X124.2Y-67.75
X138.45Y-53.95
X139.4Y-88.8
X161.1Y-90.2
X166.2Y-53.6
X180.2Y-78.8
X190.8Y-110.8
X192.0Y-53.4
X193.2Y-110.85
X205.094Y-110.85
X208.2Y-65.6
X209.2Y-88.6
X213.6Y-111.3
T0
M30
