G04 #@! TF.GenerationSoftware,KiCad,Pcbnew,(5.1.8)-1*
G04 #@! TF.CreationDate,2021-01-24T11:35:45-08:00*
G04 #@! TF.ProjectId,AddressRegisterModule,41646472-6573-4735-9265-676973746572,1.0*
G04 #@! TF.SameCoordinates,Original*
G04 #@! TF.FileFunction,Paste,Top*
G04 #@! TF.FilePolarity,Positive*
%FSLAX46Y46*%
G04 Gerber Fmt 4.6, Leading zero omitted, Abs format (unit mm)*
G04 Created by KiCad (PCBNEW (5.1.8)-1) date 2021-01-24 11:35:45*
%MOMM*%
%LPD*%
G01*
G04 APERTURE LIST*
%ADD10R,0.300000X0.800000*%
G04 APERTURE END LIST*
G36*
G01*
X126325000Y-86935000D02*
X126325000Y-86635000D01*
G75*
G02*
X126475000Y-86485000I150000J0D01*
G01*
X128225000Y-86485000D01*
G75*
G02*
X128375000Y-86635000I0J-150000D01*
G01*
X128375000Y-86935000D01*
G75*
G02*
X128225000Y-87085000I-150000J0D01*
G01*
X126475000Y-87085000D01*
G75*
G02*
X126325000Y-86935000I0J150000D01*
G01*
G37*
G36*
G01*
X126325000Y-88205000D02*
X126325000Y-87905000D01*
G75*
G02*
X126475000Y-87755000I150000J0D01*
G01*
X128225000Y-87755000D01*
G75*
G02*
X128375000Y-87905000I0J-150000D01*
G01*
X128375000Y-88205000D01*
G75*
G02*
X128225000Y-88355000I-150000J0D01*
G01*
X126475000Y-88355000D01*
G75*
G02*
X126325000Y-88205000I0J150000D01*
G01*
G37*
G36*
G01*
X126325000Y-89475000D02*
X126325000Y-89175000D01*
G75*
G02*
X126475000Y-89025000I150000J0D01*
G01*
X128225000Y-89025000D01*
G75*
G02*
X128375000Y-89175000I0J-150000D01*
G01*
X128375000Y-89475000D01*
G75*
G02*
X128225000Y-89625000I-150000J0D01*
G01*
X126475000Y-89625000D01*
G75*
G02*
X126325000Y-89475000I0J150000D01*
G01*
G37*
G36*
G01*
X126325000Y-90745000D02*
X126325000Y-90445000D01*
G75*
G02*
X126475000Y-90295000I150000J0D01*
G01*
X128225000Y-90295000D01*
G75*
G02*
X128375000Y-90445000I0J-150000D01*
G01*
X128375000Y-90745000D01*
G75*
G02*
X128225000Y-90895000I-150000J0D01*
G01*
X126475000Y-90895000D01*
G75*
G02*
X126325000Y-90745000I0J150000D01*
G01*
G37*
G36*
G01*
X126325000Y-92015000D02*
X126325000Y-91715000D01*
G75*
G02*
X126475000Y-91565000I150000J0D01*
G01*
X128225000Y-91565000D01*
G75*
G02*
X128375000Y-91715000I0J-150000D01*
G01*
X128375000Y-92015000D01*
G75*
G02*
X128225000Y-92165000I-150000J0D01*
G01*
X126475000Y-92165000D01*
G75*
G02*
X126325000Y-92015000I0J150000D01*
G01*
G37*
G36*
G01*
X126325000Y-93285000D02*
X126325000Y-92985000D01*
G75*
G02*
X126475000Y-92835000I150000J0D01*
G01*
X128225000Y-92835000D01*
G75*
G02*
X128375000Y-92985000I0J-150000D01*
G01*
X128375000Y-93285000D01*
G75*
G02*
X128225000Y-93435000I-150000J0D01*
G01*
X126475000Y-93435000D01*
G75*
G02*
X126325000Y-93285000I0J150000D01*
G01*
G37*
G36*
G01*
X126325000Y-94555000D02*
X126325000Y-94255000D01*
G75*
G02*
X126475000Y-94105000I150000J0D01*
G01*
X128225000Y-94105000D01*
G75*
G02*
X128375000Y-94255000I0J-150000D01*
G01*
X128375000Y-94555000D01*
G75*
G02*
X128225000Y-94705000I-150000J0D01*
G01*
X126475000Y-94705000D01*
G75*
G02*
X126325000Y-94555000I0J150000D01*
G01*
G37*
G36*
G01*
X126325000Y-95825000D02*
X126325000Y-95525000D01*
G75*
G02*
X126475000Y-95375000I150000J0D01*
G01*
X128225000Y-95375000D01*
G75*
G02*
X128375000Y-95525000I0J-150000D01*
G01*
X128375000Y-95825000D01*
G75*
G02*
X128225000Y-95975000I-150000J0D01*
G01*
X126475000Y-95975000D01*
G75*
G02*
X126325000Y-95825000I0J150000D01*
G01*
G37*
G36*
G01*
X126325000Y-97095000D02*
X126325000Y-96795000D01*
G75*
G02*
X126475000Y-96645000I150000J0D01*
G01*
X128225000Y-96645000D01*
G75*
G02*
X128375000Y-96795000I0J-150000D01*
G01*
X128375000Y-97095000D01*
G75*
G02*
X128225000Y-97245000I-150000J0D01*
G01*
X126475000Y-97245000D01*
G75*
G02*
X126325000Y-97095000I0J150000D01*
G01*
G37*
G36*
G01*
X126325000Y-98365000D02*
X126325000Y-98065000D01*
G75*
G02*
X126475000Y-97915000I150000J0D01*
G01*
X128225000Y-97915000D01*
G75*
G02*
X128375000Y-98065000I0J-150000D01*
G01*
X128375000Y-98365000D01*
G75*
G02*
X128225000Y-98515000I-150000J0D01*
G01*
X126475000Y-98515000D01*
G75*
G02*
X126325000Y-98365000I0J150000D01*
G01*
G37*
G36*
G01*
X135625000Y-98365000D02*
X135625000Y-98065000D01*
G75*
G02*
X135775000Y-97915000I150000J0D01*
G01*
X137525000Y-97915000D01*
G75*
G02*
X137675000Y-98065000I0J-150000D01*
G01*
X137675000Y-98365000D01*
G75*
G02*
X137525000Y-98515000I-150000J0D01*
G01*
X135775000Y-98515000D01*
G75*
G02*
X135625000Y-98365000I0J150000D01*
G01*
G37*
G36*
G01*
X135625000Y-97095000D02*
X135625000Y-96795000D01*
G75*
G02*
X135775000Y-96645000I150000J0D01*
G01*
X137525000Y-96645000D01*
G75*
G02*
X137675000Y-96795000I0J-150000D01*
G01*
X137675000Y-97095000D01*
G75*
G02*
X137525000Y-97245000I-150000J0D01*
G01*
X135775000Y-97245000D01*
G75*
G02*
X135625000Y-97095000I0J150000D01*
G01*
G37*
G36*
G01*
X135625000Y-95825000D02*
X135625000Y-95525000D01*
G75*
G02*
X135775000Y-95375000I150000J0D01*
G01*
X137525000Y-95375000D01*
G75*
G02*
X137675000Y-95525000I0J-150000D01*
G01*
X137675000Y-95825000D01*
G75*
G02*
X137525000Y-95975000I-150000J0D01*
G01*
X135775000Y-95975000D01*
G75*
G02*
X135625000Y-95825000I0J150000D01*
G01*
G37*
G36*
G01*
X135625000Y-94555000D02*
X135625000Y-94255000D01*
G75*
G02*
X135775000Y-94105000I150000J0D01*
G01*
X137525000Y-94105000D01*
G75*
G02*
X137675000Y-94255000I0J-150000D01*
G01*
X137675000Y-94555000D01*
G75*
G02*
X137525000Y-94705000I-150000J0D01*
G01*
X135775000Y-94705000D01*
G75*
G02*
X135625000Y-94555000I0J150000D01*
G01*
G37*
G36*
G01*
X135625000Y-93285000D02*
X135625000Y-92985000D01*
G75*
G02*
X135775000Y-92835000I150000J0D01*
G01*
X137525000Y-92835000D01*
G75*
G02*
X137675000Y-92985000I0J-150000D01*
G01*
X137675000Y-93285000D01*
G75*
G02*
X137525000Y-93435000I-150000J0D01*
G01*
X135775000Y-93435000D01*
G75*
G02*
X135625000Y-93285000I0J150000D01*
G01*
G37*
G36*
G01*
X135625000Y-92015000D02*
X135625000Y-91715000D01*
G75*
G02*
X135775000Y-91565000I150000J0D01*
G01*
X137525000Y-91565000D01*
G75*
G02*
X137675000Y-91715000I0J-150000D01*
G01*
X137675000Y-92015000D01*
G75*
G02*
X137525000Y-92165000I-150000J0D01*
G01*
X135775000Y-92165000D01*
G75*
G02*
X135625000Y-92015000I0J150000D01*
G01*
G37*
G36*
G01*
X135625000Y-90745000D02*
X135625000Y-90445000D01*
G75*
G02*
X135775000Y-90295000I150000J0D01*
G01*
X137525000Y-90295000D01*
G75*
G02*
X137675000Y-90445000I0J-150000D01*
G01*
X137675000Y-90745000D01*
G75*
G02*
X137525000Y-90895000I-150000J0D01*
G01*
X135775000Y-90895000D01*
G75*
G02*
X135625000Y-90745000I0J150000D01*
G01*
G37*
G36*
G01*
X135625000Y-89475000D02*
X135625000Y-89175000D01*
G75*
G02*
X135775000Y-89025000I150000J0D01*
G01*
X137525000Y-89025000D01*
G75*
G02*
X137675000Y-89175000I0J-150000D01*
G01*
X137675000Y-89475000D01*
G75*
G02*
X137525000Y-89625000I-150000J0D01*
G01*
X135775000Y-89625000D01*
G75*
G02*
X135625000Y-89475000I0J150000D01*
G01*
G37*
G36*
G01*
X135625000Y-88205000D02*
X135625000Y-87905000D01*
G75*
G02*
X135775000Y-87755000I150000J0D01*
G01*
X137525000Y-87755000D01*
G75*
G02*
X137675000Y-87905000I0J-150000D01*
G01*
X137675000Y-88205000D01*
G75*
G02*
X137525000Y-88355000I-150000J0D01*
G01*
X135775000Y-88355000D01*
G75*
G02*
X135625000Y-88205000I0J150000D01*
G01*
G37*
G36*
G01*
X135625000Y-86935000D02*
X135625000Y-86635000D01*
G75*
G02*
X135775000Y-86485000I150000J0D01*
G01*
X137525000Y-86485000D01*
G75*
G02*
X137675000Y-86635000I0J-150000D01*
G01*
X137675000Y-86935000D01*
G75*
G02*
X137525000Y-87085000I-150000J0D01*
G01*
X135775000Y-87085000D01*
G75*
G02*
X135625000Y-86935000I0J150000D01*
G01*
G37*
G36*
G01*
X205625000Y-67935000D02*
X205625000Y-67635000D01*
G75*
G02*
X205775000Y-67485000I150000J0D01*
G01*
X207525000Y-67485000D01*
G75*
G02*
X207675000Y-67635000I0J-150000D01*
G01*
X207675000Y-67935000D01*
G75*
G02*
X207525000Y-68085000I-150000J0D01*
G01*
X205775000Y-68085000D01*
G75*
G02*
X205625000Y-67935000I0J150000D01*
G01*
G37*
G36*
G01*
X205625000Y-69205000D02*
X205625000Y-68905000D01*
G75*
G02*
X205775000Y-68755000I150000J0D01*
G01*
X207525000Y-68755000D01*
G75*
G02*
X207675000Y-68905000I0J-150000D01*
G01*
X207675000Y-69205000D01*
G75*
G02*
X207525000Y-69355000I-150000J0D01*
G01*
X205775000Y-69355000D01*
G75*
G02*
X205625000Y-69205000I0J150000D01*
G01*
G37*
G36*
G01*
X205625000Y-70475000D02*
X205625000Y-70175000D01*
G75*
G02*
X205775000Y-70025000I150000J0D01*
G01*
X207525000Y-70025000D01*
G75*
G02*
X207675000Y-70175000I0J-150000D01*
G01*
X207675000Y-70475000D01*
G75*
G02*
X207525000Y-70625000I-150000J0D01*
G01*
X205775000Y-70625000D01*
G75*
G02*
X205625000Y-70475000I0J150000D01*
G01*
G37*
G36*
G01*
X205625000Y-71745000D02*
X205625000Y-71445000D01*
G75*
G02*
X205775000Y-71295000I150000J0D01*
G01*
X207525000Y-71295000D01*
G75*
G02*
X207675000Y-71445000I0J-150000D01*
G01*
X207675000Y-71745000D01*
G75*
G02*
X207525000Y-71895000I-150000J0D01*
G01*
X205775000Y-71895000D01*
G75*
G02*
X205625000Y-71745000I0J150000D01*
G01*
G37*
G36*
G01*
X205625000Y-73015000D02*
X205625000Y-72715000D01*
G75*
G02*
X205775000Y-72565000I150000J0D01*
G01*
X207525000Y-72565000D01*
G75*
G02*
X207675000Y-72715000I0J-150000D01*
G01*
X207675000Y-73015000D01*
G75*
G02*
X207525000Y-73165000I-150000J0D01*
G01*
X205775000Y-73165000D01*
G75*
G02*
X205625000Y-73015000I0J150000D01*
G01*
G37*
G36*
G01*
X205625000Y-74285000D02*
X205625000Y-73985000D01*
G75*
G02*
X205775000Y-73835000I150000J0D01*
G01*
X207525000Y-73835000D01*
G75*
G02*
X207675000Y-73985000I0J-150000D01*
G01*
X207675000Y-74285000D01*
G75*
G02*
X207525000Y-74435000I-150000J0D01*
G01*
X205775000Y-74435000D01*
G75*
G02*
X205625000Y-74285000I0J150000D01*
G01*
G37*
G36*
G01*
X205625000Y-75555000D02*
X205625000Y-75255000D01*
G75*
G02*
X205775000Y-75105000I150000J0D01*
G01*
X207525000Y-75105000D01*
G75*
G02*
X207675000Y-75255000I0J-150000D01*
G01*
X207675000Y-75555000D01*
G75*
G02*
X207525000Y-75705000I-150000J0D01*
G01*
X205775000Y-75705000D01*
G75*
G02*
X205625000Y-75555000I0J150000D01*
G01*
G37*
G36*
G01*
X205625000Y-76825000D02*
X205625000Y-76525000D01*
G75*
G02*
X205775000Y-76375000I150000J0D01*
G01*
X207525000Y-76375000D01*
G75*
G02*
X207675000Y-76525000I0J-150000D01*
G01*
X207675000Y-76825000D01*
G75*
G02*
X207525000Y-76975000I-150000J0D01*
G01*
X205775000Y-76975000D01*
G75*
G02*
X205625000Y-76825000I0J150000D01*
G01*
G37*
G36*
G01*
X205625000Y-78095000D02*
X205625000Y-77795000D01*
G75*
G02*
X205775000Y-77645000I150000J0D01*
G01*
X207525000Y-77645000D01*
G75*
G02*
X207675000Y-77795000I0J-150000D01*
G01*
X207675000Y-78095000D01*
G75*
G02*
X207525000Y-78245000I-150000J0D01*
G01*
X205775000Y-78245000D01*
G75*
G02*
X205625000Y-78095000I0J150000D01*
G01*
G37*
G36*
G01*
X205625000Y-79365000D02*
X205625000Y-79065000D01*
G75*
G02*
X205775000Y-78915000I150000J0D01*
G01*
X207525000Y-78915000D01*
G75*
G02*
X207675000Y-79065000I0J-150000D01*
G01*
X207675000Y-79365000D01*
G75*
G02*
X207525000Y-79515000I-150000J0D01*
G01*
X205775000Y-79515000D01*
G75*
G02*
X205625000Y-79365000I0J150000D01*
G01*
G37*
G36*
G01*
X196325000Y-79365000D02*
X196325000Y-79065000D01*
G75*
G02*
X196475000Y-78915000I150000J0D01*
G01*
X198225000Y-78915000D01*
G75*
G02*
X198375000Y-79065000I0J-150000D01*
G01*
X198375000Y-79365000D01*
G75*
G02*
X198225000Y-79515000I-150000J0D01*
G01*
X196475000Y-79515000D01*
G75*
G02*
X196325000Y-79365000I0J150000D01*
G01*
G37*
G36*
G01*
X196325000Y-78095000D02*
X196325000Y-77795000D01*
G75*
G02*
X196475000Y-77645000I150000J0D01*
G01*
X198225000Y-77645000D01*
G75*
G02*
X198375000Y-77795000I0J-150000D01*
G01*
X198375000Y-78095000D01*
G75*
G02*
X198225000Y-78245000I-150000J0D01*
G01*
X196475000Y-78245000D01*
G75*
G02*
X196325000Y-78095000I0J150000D01*
G01*
G37*
G36*
G01*
X196325000Y-76825000D02*
X196325000Y-76525000D01*
G75*
G02*
X196475000Y-76375000I150000J0D01*
G01*
X198225000Y-76375000D01*
G75*
G02*
X198375000Y-76525000I0J-150000D01*
G01*
X198375000Y-76825000D01*
G75*
G02*
X198225000Y-76975000I-150000J0D01*
G01*
X196475000Y-76975000D01*
G75*
G02*
X196325000Y-76825000I0J150000D01*
G01*
G37*
G36*
G01*
X196325000Y-75555000D02*
X196325000Y-75255000D01*
G75*
G02*
X196475000Y-75105000I150000J0D01*
G01*
X198225000Y-75105000D01*
G75*
G02*
X198375000Y-75255000I0J-150000D01*
G01*
X198375000Y-75555000D01*
G75*
G02*
X198225000Y-75705000I-150000J0D01*
G01*
X196475000Y-75705000D01*
G75*
G02*
X196325000Y-75555000I0J150000D01*
G01*
G37*
G36*
G01*
X196325000Y-74285000D02*
X196325000Y-73985000D01*
G75*
G02*
X196475000Y-73835000I150000J0D01*
G01*
X198225000Y-73835000D01*
G75*
G02*
X198375000Y-73985000I0J-150000D01*
G01*
X198375000Y-74285000D01*
G75*
G02*
X198225000Y-74435000I-150000J0D01*
G01*
X196475000Y-74435000D01*
G75*
G02*
X196325000Y-74285000I0J150000D01*
G01*
G37*
G36*
G01*
X196325000Y-73015000D02*
X196325000Y-72715000D01*
G75*
G02*
X196475000Y-72565000I150000J0D01*
G01*
X198225000Y-72565000D01*
G75*
G02*
X198375000Y-72715000I0J-150000D01*
G01*
X198375000Y-73015000D01*
G75*
G02*
X198225000Y-73165000I-150000J0D01*
G01*
X196475000Y-73165000D01*
G75*
G02*
X196325000Y-73015000I0J150000D01*
G01*
G37*
G36*
G01*
X196325000Y-71745000D02*
X196325000Y-71445000D01*
G75*
G02*
X196475000Y-71295000I150000J0D01*
G01*
X198225000Y-71295000D01*
G75*
G02*
X198375000Y-71445000I0J-150000D01*
G01*
X198375000Y-71745000D01*
G75*
G02*
X198225000Y-71895000I-150000J0D01*
G01*
X196475000Y-71895000D01*
G75*
G02*
X196325000Y-71745000I0J150000D01*
G01*
G37*
G36*
G01*
X196325000Y-70475000D02*
X196325000Y-70175000D01*
G75*
G02*
X196475000Y-70025000I150000J0D01*
G01*
X198225000Y-70025000D01*
G75*
G02*
X198375000Y-70175000I0J-150000D01*
G01*
X198375000Y-70475000D01*
G75*
G02*
X198225000Y-70625000I-150000J0D01*
G01*
X196475000Y-70625000D01*
G75*
G02*
X196325000Y-70475000I0J150000D01*
G01*
G37*
G36*
G01*
X196325000Y-69205000D02*
X196325000Y-68905000D01*
G75*
G02*
X196475000Y-68755000I150000J0D01*
G01*
X198225000Y-68755000D01*
G75*
G02*
X198375000Y-68905000I0J-150000D01*
G01*
X198375000Y-69205000D01*
G75*
G02*
X198225000Y-69355000I-150000J0D01*
G01*
X196475000Y-69355000D01*
G75*
G02*
X196325000Y-69205000I0J150000D01*
G01*
G37*
G36*
G01*
X196325000Y-67935000D02*
X196325000Y-67635000D01*
G75*
G02*
X196475000Y-67485000I150000J0D01*
G01*
X198225000Y-67485000D01*
G75*
G02*
X198375000Y-67635000I0J-150000D01*
G01*
X198375000Y-67935000D01*
G75*
G02*
X198225000Y-68085000I-150000J0D01*
G01*
X196475000Y-68085000D01*
G75*
G02*
X196325000Y-67935000I0J150000D01*
G01*
G37*
G36*
G01*
X152550000Y-67705000D02*
X152550000Y-67405000D01*
G75*
G02*
X152700000Y-67255000I150000J0D01*
G01*
X154350000Y-67255000D01*
G75*
G02*
X154500000Y-67405000I0J-150000D01*
G01*
X154500000Y-67705000D01*
G75*
G02*
X154350000Y-67855000I-150000J0D01*
G01*
X152700000Y-67855000D01*
G75*
G02*
X152550000Y-67705000I0J150000D01*
G01*
G37*
G36*
G01*
X152550000Y-68975000D02*
X152550000Y-68675000D01*
G75*
G02*
X152700000Y-68525000I150000J0D01*
G01*
X154350000Y-68525000D01*
G75*
G02*
X154500000Y-68675000I0J-150000D01*
G01*
X154500000Y-68975000D01*
G75*
G02*
X154350000Y-69125000I-150000J0D01*
G01*
X152700000Y-69125000D01*
G75*
G02*
X152550000Y-68975000I0J150000D01*
G01*
G37*
G36*
G01*
X152550000Y-70245000D02*
X152550000Y-69945000D01*
G75*
G02*
X152700000Y-69795000I150000J0D01*
G01*
X154350000Y-69795000D01*
G75*
G02*
X154500000Y-69945000I0J-150000D01*
G01*
X154500000Y-70245000D01*
G75*
G02*
X154350000Y-70395000I-150000J0D01*
G01*
X152700000Y-70395000D01*
G75*
G02*
X152550000Y-70245000I0J150000D01*
G01*
G37*
G36*
G01*
X152550000Y-71515000D02*
X152550000Y-71215000D01*
G75*
G02*
X152700000Y-71065000I150000J0D01*
G01*
X154350000Y-71065000D01*
G75*
G02*
X154500000Y-71215000I0J-150000D01*
G01*
X154500000Y-71515000D01*
G75*
G02*
X154350000Y-71665000I-150000J0D01*
G01*
X152700000Y-71665000D01*
G75*
G02*
X152550000Y-71515000I0J150000D01*
G01*
G37*
G36*
G01*
X152550000Y-72785000D02*
X152550000Y-72485000D01*
G75*
G02*
X152700000Y-72335000I150000J0D01*
G01*
X154350000Y-72335000D01*
G75*
G02*
X154500000Y-72485000I0J-150000D01*
G01*
X154500000Y-72785000D01*
G75*
G02*
X154350000Y-72935000I-150000J0D01*
G01*
X152700000Y-72935000D01*
G75*
G02*
X152550000Y-72785000I0J150000D01*
G01*
G37*
G36*
G01*
X152550000Y-74055000D02*
X152550000Y-73755000D01*
G75*
G02*
X152700000Y-73605000I150000J0D01*
G01*
X154350000Y-73605000D01*
G75*
G02*
X154500000Y-73755000I0J-150000D01*
G01*
X154500000Y-74055000D01*
G75*
G02*
X154350000Y-74205000I-150000J0D01*
G01*
X152700000Y-74205000D01*
G75*
G02*
X152550000Y-74055000I0J150000D01*
G01*
G37*
G36*
G01*
X152550000Y-75325000D02*
X152550000Y-75025000D01*
G75*
G02*
X152700000Y-74875000I150000J0D01*
G01*
X154350000Y-74875000D01*
G75*
G02*
X154500000Y-75025000I0J-150000D01*
G01*
X154500000Y-75325000D01*
G75*
G02*
X154350000Y-75475000I-150000J0D01*
G01*
X152700000Y-75475000D01*
G75*
G02*
X152550000Y-75325000I0J150000D01*
G01*
G37*
G36*
G01*
X152550000Y-76595000D02*
X152550000Y-76295000D01*
G75*
G02*
X152700000Y-76145000I150000J0D01*
G01*
X154350000Y-76145000D01*
G75*
G02*
X154500000Y-76295000I0J-150000D01*
G01*
X154500000Y-76595000D01*
G75*
G02*
X154350000Y-76745000I-150000J0D01*
G01*
X152700000Y-76745000D01*
G75*
G02*
X152550000Y-76595000I0J150000D01*
G01*
G37*
G36*
G01*
X157500000Y-76595000D02*
X157500000Y-76295000D01*
G75*
G02*
X157650000Y-76145000I150000J0D01*
G01*
X159300000Y-76145000D01*
G75*
G02*
X159450000Y-76295000I0J-150000D01*
G01*
X159450000Y-76595000D01*
G75*
G02*
X159300000Y-76745000I-150000J0D01*
G01*
X157650000Y-76745000D01*
G75*
G02*
X157500000Y-76595000I0J150000D01*
G01*
G37*
G36*
G01*
X157500000Y-75325000D02*
X157500000Y-75025000D01*
G75*
G02*
X157650000Y-74875000I150000J0D01*
G01*
X159300000Y-74875000D01*
G75*
G02*
X159450000Y-75025000I0J-150000D01*
G01*
X159450000Y-75325000D01*
G75*
G02*
X159300000Y-75475000I-150000J0D01*
G01*
X157650000Y-75475000D01*
G75*
G02*
X157500000Y-75325000I0J150000D01*
G01*
G37*
G36*
G01*
X157500000Y-74055000D02*
X157500000Y-73755000D01*
G75*
G02*
X157650000Y-73605000I150000J0D01*
G01*
X159300000Y-73605000D01*
G75*
G02*
X159450000Y-73755000I0J-150000D01*
G01*
X159450000Y-74055000D01*
G75*
G02*
X159300000Y-74205000I-150000J0D01*
G01*
X157650000Y-74205000D01*
G75*
G02*
X157500000Y-74055000I0J150000D01*
G01*
G37*
G36*
G01*
X157500000Y-72785000D02*
X157500000Y-72485000D01*
G75*
G02*
X157650000Y-72335000I150000J0D01*
G01*
X159300000Y-72335000D01*
G75*
G02*
X159450000Y-72485000I0J-150000D01*
G01*
X159450000Y-72785000D01*
G75*
G02*
X159300000Y-72935000I-150000J0D01*
G01*
X157650000Y-72935000D01*
G75*
G02*
X157500000Y-72785000I0J150000D01*
G01*
G37*
G36*
G01*
X157500000Y-71515000D02*
X157500000Y-71215000D01*
G75*
G02*
X157650000Y-71065000I150000J0D01*
G01*
X159300000Y-71065000D01*
G75*
G02*
X159450000Y-71215000I0J-150000D01*
G01*
X159450000Y-71515000D01*
G75*
G02*
X159300000Y-71665000I-150000J0D01*
G01*
X157650000Y-71665000D01*
G75*
G02*
X157500000Y-71515000I0J150000D01*
G01*
G37*
G36*
G01*
X157500000Y-70245000D02*
X157500000Y-69945000D01*
G75*
G02*
X157650000Y-69795000I150000J0D01*
G01*
X159300000Y-69795000D01*
G75*
G02*
X159450000Y-69945000I0J-150000D01*
G01*
X159450000Y-70245000D01*
G75*
G02*
X159300000Y-70395000I-150000J0D01*
G01*
X157650000Y-70395000D01*
G75*
G02*
X157500000Y-70245000I0J150000D01*
G01*
G37*
G36*
G01*
X157500000Y-68975000D02*
X157500000Y-68675000D01*
G75*
G02*
X157650000Y-68525000I150000J0D01*
G01*
X159300000Y-68525000D01*
G75*
G02*
X159450000Y-68675000I0J-150000D01*
G01*
X159450000Y-68975000D01*
G75*
G02*
X159300000Y-69125000I-150000J0D01*
G01*
X157650000Y-69125000D01*
G75*
G02*
X157500000Y-68975000I0J150000D01*
G01*
G37*
G36*
G01*
X157500000Y-67705000D02*
X157500000Y-67405000D01*
G75*
G02*
X157650000Y-67255000I150000J0D01*
G01*
X159300000Y-67255000D01*
G75*
G02*
X159450000Y-67405000I0J-150000D01*
G01*
X159450000Y-67705000D01*
G75*
G02*
X159300000Y-67855000I-150000J0D01*
G01*
X157650000Y-67855000D01*
G75*
G02*
X157500000Y-67705000I0J150000D01*
G01*
G37*
G36*
G01*
X129175000Y-41800000D02*
X130425000Y-41800000D01*
G75*
G02*
X130675000Y-42050000I0J-250000D01*
G01*
X130675000Y-42975000D01*
G75*
G02*
X130425000Y-43225000I-250000J0D01*
G01*
X129175000Y-43225000D01*
G75*
G02*
X128925000Y-42975000I0J250000D01*
G01*
X128925000Y-42050000D01*
G75*
G02*
X129175000Y-41800000I250000J0D01*
G01*
G37*
G36*
G01*
X129175000Y-44775000D02*
X130425000Y-44775000D01*
G75*
G02*
X130675000Y-45025000I0J-250000D01*
G01*
X130675000Y-45950000D01*
G75*
G02*
X130425000Y-46200000I-250000J0D01*
G01*
X129175000Y-46200000D01*
G75*
G02*
X128925000Y-45950000I0J250000D01*
G01*
X128925000Y-45025000D01*
G75*
G02*
X129175000Y-44775000I250000J0D01*
G01*
G37*
G36*
G01*
X182000000Y-84362500D02*
X182000000Y-84837500D01*
G75*
G02*
X181762500Y-85075000I-237500J0D01*
G01*
X181187500Y-85075000D01*
G75*
G02*
X180950000Y-84837500I0J237500D01*
G01*
X180950000Y-84362500D01*
G75*
G02*
X181187500Y-84125000I237500J0D01*
G01*
X181762500Y-84125000D01*
G75*
G02*
X182000000Y-84362500I0J-237500D01*
G01*
G37*
G36*
G01*
X180250000Y-84362500D02*
X180250000Y-84837500D01*
G75*
G02*
X180012500Y-85075000I-237500J0D01*
G01*
X179437500Y-85075000D01*
G75*
G02*
X179200000Y-84837500I0J237500D01*
G01*
X179200000Y-84362500D01*
G75*
G02*
X179437500Y-84125000I237500J0D01*
G01*
X180012500Y-84125000D01*
G75*
G02*
X180250000Y-84362500I0J-237500D01*
G01*
G37*
G36*
G01*
X183250000Y-67362500D02*
X183250000Y-67837500D01*
G75*
G02*
X183012500Y-68075000I-237500J0D01*
G01*
X182437500Y-68075000D01*
G75*
G02*
X182200000Y-67837500I0J237500D01*
G01*
X182200000Y-67362500D01*
G75*
G02*
X182437500Y-67125000I237500J0D01*
G01*
X183012500Y-67125000D01*
G75*
G02*
X183250000Y-67362500I0J-237500D01*
G01*
G37*
G36*
G01*
X185000000Y-67362500D02*
X185000000Y-67837500D01*
G75*
G02*
X184762500Y-68075000I-237500J0D01*
G01*
X184187500Y-68075000D01*
G75*
G02*
X183950000Y-67837500I0J237500D01*
G01*
X183950000Y-67362500D01*
G75*
G02*
X184187500Y-67125000I237500J0D01*
G01*
X184762500Y-67125000D01*
G75*
G02*
X185000000Y-67362500I0J-237500D01*
G01*
G37*
G36*
G01*
X163100000Y-86362500D02*
X163100000Y-86837500D01*
G75*
G02*
X162862500Y-87075000I-237500J0D01*
G01*
X162287500Y-87075000D01*
G75*
G02*
X162050000Y-86837500I0J237500D01*
G01*
X162050000Y-86362500D01*
G75*
G02*
X162287500Y-86125000I237500J0D01*
G01*
X162862500Y-86125000D01*
G75*
G02*
X163100000Y-86362500I0J-237500D01*
G01*
G37*
G36*
G01*
X161350000Y-86362500D02*
X161350000Y-86837500D01*
G75*
G02*
X161112500Y-87075000I-237500J0D01*
G01*
X160537500Y-87075000D01*
G75*
G02*
X160300000Y-86837500I0J237500D01*
G01*
X160300000Y-86362500D01*
G75*
G02*
X160537500Y-86125000I237500J0D01*
G01*
X161112500Y-86125000D01*
G75*
G02*
X161350000Y-86362500I0J-237500D01*
G01*
G37*
G36*
G01*
X161450000Y-67362500D02*
X161450000Y-67837500D01*
G75*
G02*
X161212500Y-68075000I-237500J0D01*
G01*
X160637500Y-68075000D01*
G75*
G02*
X160400000Y-67837500I0J237500D01*
G01*
X160400000Y-67362500D01*
G75*
G02*
X160637500Y-67125000I237500J0D01*
G01*
X161212500Y-67125000D01*
G75*
G02*
X161450000Y-67362500I0J-237500D01*
G01*
G37*
G36*
G01*
X163200000Y-67362500D02*
X163200000Y-67837500D01*
G75*
G02*
X162962500Y-68075000I-237500J0D01*
G01*
X162387500Y-68075000D01*
G75*
G02*
X162150000Y-67837500I0J237500D01*
G01*
X162150000Y-67362500D01*
G75*
G02*
X162387500Y-67125000I237500J0D01*
G01*
X162962500Y-67125000D01*
G75*
G02*
X163200000Y-67362500I0J-237500D01*
G01*
G37*
G36*
G01*
X211400000Y-67562500D02*
X211400000Y-68037500D01*
G75*
G02*
X211162500Y-68275000I-237500J0D01*
G01*
X210587500Y-68275000D01*
G75*
G02*
X210350000Y-68037500I0J237500D01*
G01*
X210350000Y-67562500D01*
G75*
G02*
X210587500Y-67325000I237500J0D01*
G01*
X211162500Y-67325000D01*
G75*
G02*
X211400000Y-67562500I0J-237500D01*
G01*
G37*
G36*
G01*
X209650000Y-67562500D02*
X209650000Y-68037500D01*
G75*
G02*
X209412500Y-68275000I-237500J0D01*
G01*
X208837500Y-68275000D01*
G75*
G02*
X208600000Y-68037500I0J237500D01*
G01*
X208600000Y-67562500D01*
G75*
G02*
X208837500Y-67325000I237500J0D01*
G01*
X209412500Y-67325000D01*
G75*
G02*
X209650000Y-67562500I0J-237500D01*
G01*
G37*
G36*
G01*
X211400000Y-86562500D02*
X211400000Y-87037500D01*
G75*
G02*
X211162500Y-87275000I-237500J0D01*
G01*
X210587500Y-87275000D01*
G75*
G02*
X210350000Y-87037500I0J237500D01*
G01*
X210350000Y-86562500D01*
G75*
G02*
X210587500Y-86325000I237500J0D01*
G01*
X211162500Y-86325000D01*
G75*
G02*
X211400000Y-86562500I0J-237500D01*
G01*
G37*
G36*
G01*
X209650000Y-86562500D02*
X209650000Y-87037500D01*
G75*
G02*
X209412500Y-87275000I-237500J0D01*
G01*
X208837500Y-87275000D01*
G75*
G02*
X208600000Y-87037500I0J237500D01*
G01*
X208600000Y-86562500D01*
G75*
G02*
X208837500Y-86325000I237500J0D01*
G01*
X209412500Y-86325000D01*
G75*
G02*
X209650000Y-86562500I0J-237500D01*
G01*
G37*
G36*
G01*
X139650000Y-86562500D02*
X139650000Y-87037500D01*
G75*
G02*
X139412500Y-87275000I-237500J0D01*
G01*
X138837500Y-87275000D01*
G75*
G02*
X138600000Y-87037500I0J237500D01*
G01*
X138600000Y-86562500D01*
G75*
G02*
X138837500Y-86325000I237500J0D01*
G01*
X139412500Y-86325000D01*
G75*
G02*
X139650000Y-86562500I0J-237500D01*
G01*
G37*
G36*
G01*
X141400000Y-86562500D02*
X141400000Y-87037500D01*
G75*
G02*
X141162500Y-87275000I-237500J0D01*
G01*
X140587500Y-87275000D01*
G75*
G02*
X140350000Y-87037500I0J237500D01*
G01*
X140350000Y-86562500D01*
G75*
G02*
X140587500Y-86325000I237500J0D01*
G01*
X141162500Y-86325000D01*
G75*
G02*
X141400000Y-86562500I0J-237500D01*
G01*
G37*
G36*
G01*
X141200000Y-67562500D02*
X141200000Y-68037500D01*
G75*
G02*
X140962500Y-68275000I-237500J0D01*
G01*
X140387500Y-68275000D01*
G75*
G02*
X140150000Y-68037500I0J237500D01*
G01*
X140150000Y-67562500D01*
G75*
G02*
X140387500Y-67325000I237500J0D01*
G01*
X140962500Y-67325000D01*
G75*
G02*
X141200000Y-67562500I0J-237500D01*
G01*
G37*
G36*
G01*
X139450000Y-67562500D02*
X139450000Y-68037500D01*
G75*
G02*
X139212500Y-68275000I-237500J0D01*
G01*
X138637500Y-68275000D01*
G75*
G02*
X138400000Y-68037500I0J237500D01*
G01*
X138400000Y-67562500D01*
G75*
G02*
X138637500Y-67325000I237500J0D01*
G01*
X139212500Y-67325000D01*
G75*
G02*
X139450000Y-67562500I0J-237500D01*
G01*
G37*
G36*
G01*
X165050000Y-51187500D02*
X165050000Y-51662500D01*
G75*
G02*
X164812500Y-51900000I-237500J0D01*
G01*
X164237500Y-51900000D01*
G75*
G02*
X164000000Y-51662500I0J237500D01*
G01*
X164000000Y-51187500D01*
G75*
G02*
X164237500Y-50950000I237500J0D01*
G01*
X164812500Y-50950000D01*
G75*
G02*
X165050000Y-51187500I0J-237500D01*
G01*
G37*
G36*
G01*
X166800000Y-51187500D02*
X166800000Y-51662500D01*
G75*
G02*
X166562500Y-51900000I-237500J0D01*
G01*
X165987500Y-51900000D01*
G75*
G02*
X165750000Y-51662500I0J237500D01*
G01*
X165750000Y-51187500D01*
G75*
G02*
X165987500Y-50950000I237500J0D01*
G01*
X166562500Y-50950000D01*
G75*
G02*
X166800000Y-51187500I0J-237500D01*
G01*
G37*
G36*
G01*
X137650000Y-51162500D02*
X137650000Y-51637500D01*
G75*
G02*
X137412500Y-51875000I-237500J0D01*
G01*
X136837500Y-51875000D01*
G75*
G02*
X136600000Y-51637500I0J237500D01*
G01*
X136600000Y-51162500D01*
G75*
G02*
X136837500Y-50925000I237500J0D01*
G01*
X137412500Y-50925000D01*
G75*
G02*
X137650000Y-51162500I0J-237500D01*
G01*
G37*
G36*
G01*
X139400000Y-51162500D02*
X139400000Y-51637500D01*
G75*
G02*
X139162500Y-51875000I-237500J0D01*
G01*
X138587500Y-51875000D01*
G75*
G02*
X138350000Y-51637500I0J237500D01*
G01*
X138350000Y-51162500D01*
G75*
G02*
X138587500Y-50925000I237500J0D01*
G01*
X139162500Y-50925000D01*
G75*
G02*
X139400000Y-51162500I0J-237500D01*
G01*
G37*
G36*
G01*
X190850000Y-51162500D02*
X190850000Y-51637500D01*
G75*
G02*
X190612500Y-51875000I-237500J0D01*
G01*
X190037500Y-51875000D01*
G75*
G02*
X189800000Y-51637500I0J237500D01*
G01*
X189800000Y-51162500D01*
G75*
G02*
X190037500Y-50925000I237500J0D01*
G01*
X190612500Y-50925000D01*
G75*
G02*
X190850000Y-51162500I0J-237500D01*
G01*
G37*
G36*
G01*
X192600000Y-51162500D02*
X192600000Y-51637500D01*
G75*
G02*
X192362500Y-51875000I-237500J0D01*
G01*
X191787500Y-51875000D01*
G75*
G02*
X191550000Y-51637500I0J237500D01*
G01*
X191550000Y-51162500D01*
G75*
G02*
X191787500Y-50925000I237500J0D01*
G01*
X192362500Y-50925000D01*
G75*
G02*
X192600000Y-51162500I0J-237500D01*
G01*
G37*
G36*
G01*
X206800000Y-54962500D02*
X206800000Y-55437500D01*
G75*
G02*
X206562500Y-55675000I-237500J0D01*
G01*
X205987500Y-55675000D01*
G75*
G02*
X205750000Y-55437500I0J237500D01*
G01*
X205750000Y-54962500D01*
G75*
G02*
X205987500Y-54725000I237500J0D01*
G01*
X206562500Y-54725000D01*
G75*
G02*
X206800000Y-54962500I0J-237500D01*
G01*
G37*
G36*
G01*
X205050000Y-54962500D02*
X205050000Y-55437500D01*
G75*
G02*
X204812500Y-55675000I-237500J0D01*
G01*
X204237500Y-55675000D01*
G75*
G02*
X204000000Y-55437500I0J237500D01*
G01*
X204000000Y-54962500D01*
G75*
G02*
X204237500Y-54725000I237500J0D01*
G01*
X204812500Y-54725000D01*
G75*
G02*
X205050000Y-54962500I0J-237500D01*
G01*
G37*
G36*
G01*
X173575000Y-44775000D02*
X174825000Y-44775000D01*
G75*
G02*
X175075000Y-45025000I0J-250000D01*
G01*
X175075000Y-45950000D01*
G75*
G02*
X174825000Y-46200000I-250000J0D01*
G01*
X173575000Y-46200000D01*
G75*
G02*
X173325000Y-45950000I0J250000D01*
G01*
X173325000Y-45025000D01*
G75*
G02*
X173575000Y-44775000I250000J0D01*
G01*
G37*
G36*
G01*
X173575000Y-41800000D02*
X174825000Y-41800000D01*
G75*
G02*
X175075000Y-42050000I0J-250000D01*
G01*
X175075000Y-42975000D01*
G75*
G02*
X174825000Y-43225000I-250000J0D01*
G01*
X173575000Y-43225000D01*
G75*
G02*
X173325000Y-42975000I0J250000D01*
G01*
X173325000Y-42050000D01*
G75*
G02*
X173575000Y-41800000I250000J0D01*
G01*
G37*
G36*
G01*
X169975000Y-41800000D02*
X171225000Y-41800000D01*
G75*
G02*
X171475000Y-42050000I0J-250000D01*
G01*
X171475000Y-42975000D01*
G75*
G02*
X171225000Y-43225000I-250000J0D01*
G01*
X169975000Y-43225000D01*
G75*
G02*
X169725000Y-42975000I0J250000D01*
G01*
X169725000Y-42050000D01*
G75*
G02*
X169975000Y-41800000I250000J0D01*
G01*
G37*
G36*
G01*
X169975000Y-44775000D02*
X171225000Y-44775000D01*
G75*
G02*
X171475000Y-45025000I0J-250000D01*
G01*
X171475000Y-45950000D01*
G75*
G02*
X171225000Y-46200000I-250000J0D01*
G01*
X169975000Y-46200000D01*
G75*
G02*
X169725000Y-45950000I0J250000D01*
G01*
X169725000Y-45025000D01*
G75*
G02*
X169975000Y-44775000I250000J0D01*
G01*
G37*
G36*
G01*
X166375000Y-44775000D02*
X167625000Y-44775000D01*
G75*
G02*
X167875000Y-45025000I0J-250000D01*
G01*
X167875000Y-45950000D01*
G75*
G02*
X167625000Y-46200000I-250000J0D01*
G01*
X166375000Y-46200000D01*
G75*
G02*
X166125000Y-45950000I0J250000D01*
G01*
X166125000Y-45025000D01*
G75*
G02*
X166375000Y-44775000I250000J0D01*
G01*
G37*
G36*
G01*
X166375000Y-41800000D02*
X167625000Y-41800000D01*
G75*
G02*
X167875000Y-42050000I0J-250000D01*
G01*
X167875000Y-42975000D01*
G75*
G02*
X167625000Y-43225000I-250000J0D01*
G01*
X166375000Y-43225000D01*
G75*
G02*
X166125000Y-42975000I0J250000D01*
G01*
X166125000Y-42050000D01*
G75*
G02*
X166375000Y-41800000I250000J0D01*
G01*
G37*
G36*
G01*
X162775000Y-41800000D02*
X164025000Y-41800000D01*
G75*
G02*
X164275000Y-42050000I0J-250000D01*
G01*
X164275000Y-42975000D01*
G75*
G02*
X164025000Y-43225000I-250000J0D01*
G01*
X162775000Y-43225000D01*
G75*
G02*
X162525000Y-42975000I0J250000D01*
G01*
X162525000Y-42050000D01*
G75*
G02*
X162775000Y-41800000I250000J0D01*
G01*
G37*
G36*
G01*
X162775000Y-44775000D02*
X164025000Y-44775000D01*
G75*
G02*
X164275000Y-45025000I0J-250000D01*
G01*
X164275000Y-45950000D01*
G75*
G02*
X164025000Y-46200000I-250000J0D01*
G01*
X162775000Y-46200000D01*
G75*
G02*
X162525000Y-45950000I0J250000D01*
G01*
X162525000Y-45025000D01*
G75*
G02*
X162775000Y-44775000I250000J0D01*
G01*
G37*
G36*
G01*
X159175000Y-44775000D02*
X160425000Y-44775000D01*
G75*
G02*
X160675000Y-45025000I0J-250000D01*
G01*
X160675000Y-45950000D01*
G75*
G02*
X160425000Y-46200000I-250000J0D01*
G01*
X159175000Y-46200000D01*
G75*
G02*
X158925000Y-45950000I0J250000D01*
G01*
X158925000Y-45025000D01*
G75*
G02*
X159175000Y-44775000I250000J0D01*
G01*
G37*
G36*
G01*
X159175000Y-41800000D02*
X160425000Y-41800000D01*
G75*
G02*
X160675000Y-42050000I0J-250000D01*
G01*
X160675000Y-42975000D01*
G75*
G02*
X160425000Y-43225000I-250000J0D01*
G01*
X159175000Y-43225000D01*
G75*
G02*
X158925000Y-42975000I0J250000D01*
G01*
X158925000Y-42050000D01*
G75*
G02*
X159175000Y-41800000I250000J0D01*
G01*
G37*
G36*
G01*
X155575000Y-41800000D02*
X156825000Y-41800000D01*
G75*
G02*
X157075000Y-42050000I0J-250000D01*
G01*
X157075000Y-42975000D01*
G75*
G02*
X156825000Y-43225000I-250000J0D01*
G01*
X155575000Y-43225000D01*
G75*
G02*
X155325000Y-42975000I0J250000D01*
G01*
X155325000Y-42050000D01*
G75*
G02*
X155575000Y-41800000I250000J0D01*
G01*
G37*
G36*
G01*
X155575000Y-44775000D02*
X156825000Y-44775000D01*
G75*
G02*
X157075000Y-45025000I0J-250000D01*
G01*
X157075000Y-45950000D01*
G75*
G02*
X156825000Y-46200000I-250000J0D01*
G01*
X155575000Y-46200000D01*
G75*
G02*
X155325000Y-45950000I0J250000D01*
G01*
X155325000Y-45025000D01*
G75*
G02*
X155575000Y-44775000I250000J0D01*
G01*
G37*
G36*
G01*
X151975000Y-44775000D02*
X153225000Y-44775000D01*
G75*
G02*
X153475000Y-45025000I0J-250000D01*
G01*
X153475000Y-45950000D01*
G75*
G02*
X153225000Y-46200000I-250000J0D01*
G01*
X151975000Y-46200000D01*
G75*
G02*
X151725000Y-45950000I0J250000D01*
G01*
X151725000Y-45025000D01*
G75*
G02*
X151975000Y-44775000I250000J0D01*
G01*
G37*
G36*
G01*
X151975000Y-41800000D02*
X153225000Y-41800000D01*
G75*
G02*
X153475000Y-42050000I0J-250000D01*
G01*
X153475000Y-42975000D01*
G75*
G02*
X153225000Y-43225000I-250000J0D01*
G01*
X151975000Y-43225000D01*
G75*
G02*
X151725000Y-42975000I0J250000D01*
G01*
X151725000Y-42050000D01*
G75*
G02*
X151975000Y-41800000I250000J0D01*
G01*
G37*
G36*
G01*
X148375000Y-41800000D02*
X149625000Y-41800000D01*
G75*
G02*
X149875000Y-42050000I0J-250000D01*
G01*
X149875000Y-42975000D01*
G75*
G02*
X149625000Y-43225000I-250000J0D01*
G01*
X148375000Y-43225000D01*
G75*
G02*
X148125000Y-42975000I0J250000D01*
G01*
X148125000Y-42050000D01*
G75*
G02*
X148375000Y-41800000I250000J0D01*
G01*
G37*
G36*
G01*
X148375000Y-44775000D02*
X149625000Y-44775000D01*
G75*
G02*
X149875000Y-45025000I0J-250000D01*
G01*
X149875000Y-45950000D01*
G75*
G02*
X149625000Y-46200000I-250000J0D01*
G01*
X148375000Y-46200000D01*
G75*
G02*
X148125000Y-45950000I0J250000D01*
G01*
X148125000Y-45025000D01*
G75*
G02*
X148375000Y-44775000I250000J0D01*
G01*
G37*
G36*
G01*
X143575000Y-44775000D02*
X144825000Y-44775000D01*
G75*
G02*
X145075000Y-45025000I0J-250000D01*
G01*
X145075000Y-45950000D01*
G75*
G02*
X144825000Y-46200000I-250000J0D01*
G01*
X143575000Y-46200000D01*
G75*
G02*
X143325000Y-45950000I0J250000D01*
G01*
X143325000Y-45025000D01*
G75*
G02*
X143575000Y-44775000I250000J0D01*
G01*
G37*
G36*
G01*
X143575000Y-41800000D02*
X144825000Y-41800000D01*
G75*
G02*
X145075000Y-42050000I0J-250000D01*
G01*
X145075000Y-42975000D01*
G75*
G02*
X144825000Y-43225000I-250000J0D01*
G01*
X143575000Y-43225000D01*
G75*
G02*
X143325000Y-42975000I0J250000D01*
G01*
X143325000Y-42050000D01*
G75*
G02*
X143575000Y-41800000I250000J0D01*
G01*
G37*
G36*
G01*
X139975000Y-41800000D02*
X141225000Y-41800000D01*
G75*
G02*
X141475000Y-42050000I0J-250000D01*
G01*
X141475000Y-42975000D01*
G75*
G02*
X141225000Y-43225000I-250000J0D01*
G01*
X139975000Y-43225000D01*
G75*
G02*
X139725000Y-42975000I0J250000D01*
G01*
X139725000Y-42050000D01*
G75*
G02*
X139975000Y-41800000I250000J0D01*
G01*
G37*
G36*
G01*
X139975000Y-44775000D02*
X141225000Y-44775000D01*
G75*
G02*
X141475000Y-45025000I0J-250000D01*
G01*
X141475000Y-45950000D01*
G75*
G02*
X141225000Y-46200000I-250000J0D01*
G01*
X139975000Y-46200000D01*
G75*
G02*
X139725000Y-45950000I0J250000D01*
G01*
X139725000Y-45025000D01*
G75*
G02*
X139975000Y-44775000I250000J0D01*
G01*
G37*
G36*
G01*
X136375000Y-44775000D02*
X137625000Y-44775000D01*
G75*
G02*
X137875000Y-45025000I0J-250000D01*
G01*
X137875000Y-45950000D01*
G75*
G02*
X137625000Y-46200000I-250000J0D01*
G01*
X136375000Y-46200000D01*
G75*
G02*
X136125000Y-45950000I0J250000D01*
G01*
X136125000Y-45025000D01*
G75*
G02*
X136375000Y-44775000I250000J0D01*
G01*
G37*
G36*
G01*
X136375000Y-41800000D02*
X137625000Y-41800000D01*
G75*
G02*
X137875000Y-42050000I0J-250000D01*
G01*
X137875000Y-42975000D01*
G75*
G02*
X137625000Y-43225000I-250000J0D01*
G01*
X136375000Y-43225000D01*
G75*
G02*
X136125000Y-42975000I0J250000D01*
G01*
X136125000Y-42050000D01*
G75*
G02*
X136375000Y-41800000I250000J0D01*
G01*
G37*
G36*
G01*
X132775000Y-44775000D02*
X134025000Y-44775000D01*
G75*
G02*
X134275000Y-45025000I0J-250000D01*
G01*
X134275000Y-45950000D01*
G75*
G02*
X134025000Y-46200000I-250000J0D01*
G01*
X132775000Y-46200000D01*
G75*
G02*
X132525000Y-45950000I0J250000D01*
G01*
X132525000Y-45025000D01*
G75*
G02*
X132775000Y-44775000I250000J0D01*
G01*
G37*
G36*
G01*
X132775000Y-41800000D02*
X134025000Y-41800000D01*
G75*
G02*
X134275000Y-42050000I0J-250000D01*
G01*
X134275000Y-42975000D01*
G75*
G02*
X134025000Y-43225000I-250000J0D01*
G01*
X132775000Y-43225000D01*
G75*
G02*
X132525000Y-42975000I0J250000D01*
G01*
X132525000Y-42050000D01*
G75*
G02*
X132775000Y-41800000I250000J0D01*
G01*
G37*
G36*
G01*
X125575000Y-41800000D02*
X126825000Y-41800000D01*
G75*
G02*
X127075000Y-42050000I0J-250000D01*
G01*
X127075000Y-42975000D01*
G75*
G02*
X126825000Y-43225000I-250000J0D01*
G01*
X125575000Y-43225000D01*
G75*
G02*
X125325000Y-42975000I0J250000D01*
G01*
X125325000Y-42050000D01*
G75*
G02*
X125575000Y-41800000I250000J0D01*
G01*
G37*
G36*
G01*
X125575000Y-44775000D02*
X126825000Y-44775000D01*
G75*
G02*
X127075000Y-45025000I0J-250000D01*
G01*
X127075000Y-45950000D01*
G75*
G02*
X126825000Y-46200000I-250000J0D01*
G01*
X125575000Y-46200000D01*
G75*
G02*
X125325000Y-45950000I0J250000D01*
G01*
X125325000Y-45025000D01*
G75*
G02*
X125575000Y-44775000I250000J0D01*
G01*
G37*
G36*
G01*
X121975000Y-44775000D02*
X123225000Y-44775000D01*
G75*
G02*
X123475000Y-45025000I0J-250000D01*
G01*
X123475000Y-45950000D01*
G75*
G02*
X123225000Y-46200000I-250000J0D01*
G01*
X121975000Y-46200000D01*
G75*
G02*
X121725000Y-45950000I0J250000D01*
G01*
X121725000Y-45025000D01*
G75*
G02*
X121975000Y-44775000I250000J0D01*
G01*
G37*
G36*
G01*
X121975000Y-41800000D02*
X123225000Y-41800000D01*
G75*
G02*
X123475000Y-42050000I0J-250000D01*
G01*
X123475000Y-42975000D01*
G75*
G02*
X123225000Y-43225000I-250000J0D01*
G01*
X121975000Y-43225000D01*
G75*
G02*
X121725000Y-42975000I0J250000D01*
G01*
X121725000Y-42050000D01*
G75*
G02*
X121975000Y-41800000I250000J0D01*
G01*
G37*
G36*
G01*
X118375000Y-41800000D02*
X119625000Y-41800000D01*
G75*
G02*
X119875000Y-42050000I0J-250000D01*
G01*
X119875000Y-42975000D01*
G75*
G02*
X119625000Y-43225000I-250000J0D01*
G01*
X118375000Y-43225000D01*
G75*
G02*
X118125000Y-42975000I0J250000D01*
G01*
X118125000Y-42050000D01*
G75*
G02*
X118375000Y-41800000I250000J0D01*
G01*
G37*
G36*
G01*
X118375000Y-44775000D02*
X119625000Y-44775000D01*
G75*
G02*
X119875000Y-45025000I0J-250000D01*
G01*
X119875000Y-45950000D01*
G75*
G02*
X119625000Y-46200000I-250000J0D01*
G01*
X118375000Y-46200000D01*
G75*
G02*
X118125000Y-45950000I0J250000D01*
G01*
X118125000Y-45025000D01*
G75*
G02*
X118375000Y-44775000I250000J0D01*
G01*
G37*
G36*
G01*
X204775000Y-44775000D02*
X206025000Y-44775000D01*
G75*
G02*
X206275000Y-45025000I0J-250000D01*
G01*
X206275000Y-45950000D01*
G75*
G02*
X206025000Y-46200000I-250000J0D01*
G01*
X204775000Y-46200000D01*
G75*
G02*
X204525000Y-45950000I0J250000D01*
G01*
X204525000Y-45025000D01*
G75*
G02*
X204775000Y-44775000I250000J0D01*
G01*
G37*
G36*
G01*
X204775000Y-41800000D02*
X206025000Y-41800000D01*
G75*
G02*
X206275000Y-42050000I0J-250000D01*
G01*
X206275000Y-42975000D01*
G75*
G02*
X206025000Y-43225000I-250000J0D01*
G01*
X204775000Y-43225000D01*
G75*
G02*
X204525000Y-42975000I0J250000D01*
G01*
X204525000Y-42050000D01*
G75*
G02*
X204775000Y-41800000I250000J0D01*
G01*
G37*
G36*
G01*
X201175000Y-41800000D02*
X202425000Y-41800000D01*
G75*
G02*
X202675000Y-42050000I0J-250000D01*
G01*
X202675000Y-42975000D01*
G75*
G02*
X202425000Y-43225000I-250000J0D01*
G01*
X201175000Y-43225000D01*
G75*
G02*
X200925000Y-42975000I0J250000D01*
G01*
X200925000Y-42050000D01*
G75*
G02*
X201175000Y-41800000I250000J0D01*
G01*
G37*
G36*
G01*
X201175000Y-44775000D02*
X202425000Y-44775000D01*
G75*
G02*
X202675000Y-45025000I0J-250000D01*
G01*
X202675000Y-45950000D01*
G75*
G02*
X202425000Y-46200000I-250000J0D01*
G01*
X201175000Y-46200000D01*
G75*
G02*
X200925000Y-45950000I0J250000D01*
G01*
X200925000Y-45025000D01*
G75*
G02*
X201175000Y-44775000I250000J0D01*
G01*
G37*
G36*
G01*
X197575000Y-44775000D02*
X198825000Y-44775000D01*
G75*
G02*
X199075000Y-45025000I0J-250000D01*
G01*
X199075000Y-45950000D01*
G75*
G02*
X198825000Y-46200000I-250000J0D01*
G01*
X197575000Y-46200000D01*
G75*
G02*
X197325000Y-45950000I0J250000D01*
G01*
X197325000Y-45025000D01*
G75*
G02*
X197575000Y-44775000I250000J0D01*
G01*
G37*
G36*
G01*
X197575000Y-41800000D02*
X198825000Y-41800000D01*
G75*
G02*
X199075000Y-42050000I0J-250000D01*
G01*
X199075000Y-42975000D01*
G75*
G02*
X198825000Y-43225000I-250000J0D01*
G01*
X197575000Y-43225000D01*
G75*
G02*
X197325000Y-42975000I0J250000D01*
G01*
X197325000Y-42050000D01*
G75*
G02*
X197575000Y-41800000I250000J0D01*
G01*
G37*
G36*
G01*
X193975000Y-41800000D02*
X195225000Y-41800000D01*
G75*
G02*
X195475000Y-42050000I0J-250000D01*
G01*
X195475000Y-42975000D01*
G75*
G02*
X195225000Y-43225000I-250000J0D01*
G01*
X193975000Y-43225000D01*
G75*
G02*
X193725000Y-42975000I0J250000D01*
G01*
X193725000Y-42050000D01*
G75*
G02*
X193975000Y-41800000I250000J0D01*
G01*
G37*
G36*
G01*
X193975000Y-44775000D02*
X195225000Y-44775000D01*
G75*
G02*
X195475000Y-45025000I0J-250000D01*
G01*
X195475000Y-45950000D01*
G75*
G02*
X195225000Y-46200000I-250000J0D01*
G01*
X193975000Y-46200000D01*
G75*
G02*
X193725000Y-45950000I0J250000D01*
G01*
X193725000Y-45025000D01*
G75*
G02*
X193975000Y-44775000I250000J0D01*
G01*
G37*
G36*
G01*
X190375000Y-44775000D02*
X191625000Y-44775000D01*
G75*
G02*
X191875000Y-45025000I0J-250000D01*
G01*
X191875000Y-45950000D01*
G75*
G02*
X191625000Y-46200000I-250000J0D01*
G01*
X190375000Y-46200000D01*
G75*
G02*
X190125000Y-45950000I0J250000D01*
G01*
X190125000Y-45025000D01*
G75*
G02*
X190375000Y-44775000I250000J0D01*
G01*
G37*
G36*
G01*
X190375000Y-41800000D02*
X191625000Y-41800000D01*
G75*
G02*
X191875000Y-42050000I0J-250000D01*
G01*
X191875000Y-42975000D01*
G75*
G02*
X191625000Y-43225000I-250000J0D01*
G01*
X190375000Y-43225000D01*
G75*
G02*
X190125000Y-42975000I0J250000D01*
G01*
X190125000Y-42050000D01*
G75*
G02*
X190375000Y-41800000I250000J0D01*
G01*
G37*
G36*
G01*
X186775000Y-41800000D02*
X188025000Y-41800000D01*
G75*
G02*
X188275000Y-42050000I0J-250000D01*
G01*
X188275000Y-42975000D01*
G75*
G02*
X188025000Y-43225000I-250000J0D01*
G01*
X186775000Y-43225000D01*
G75*
G02*
X186525000Y-42975000I0J250000D01*
G01*
X186525000Y-42050000D01*
G75*
G02*
X186775000Y-41800000I250000J0D01*
G01*
G37*
G36*
G01*
X186775000Y-44775000D02*
X188025000Y-44775000D01*
G75*
G02*
X188275000Y-45025000I0J-250000D01*
G01*
X188275000Y-45950000D01*
G75*
G02*
X188025000Y-46200000I-250000J0D01*
G01*
X186775000Y-46200000D01*
G75*
G02*
X186525000Y-45950000I0J250000D01*
G01*
X186525000Y-45025000D01*
G75*
G02*
X186775000Y-44775000I250000J0D01*
G01*
G37*
G36*
G01*
X183175000Y-41800000D02*
X184425000Y-41800000D01*
G75*
G02*
X184675000Y-42050000I0J-250000D01*
G01*
X184675000Y-42975000D01*
G75*
G02*
X184425000Y-43225000I-250000J0D01*
G01*
X183175000Y-43225000D01*
G75*
G02*
X182925000Y-42975000I0J250000D01*
G01*
X182925000Y-42050000D01*
G75*
G02*
X183175000Y-41800000I250000J0D01*
G01*
G37*
G36*
G01*
X183175000Y-44775000D02*
X184425000Y-44775000D01*
G75*
G02*
X184675000Y-45025000I0J-250000D01*
G01*
X184675000Y-45950000D01*
G75*
G02*
X184425000Y-46200000I-250000J0D01*
G01*
X183175000Y-46200000D01*
G75*
G02*
X182925000Y-45950000I0J250000D01*
G01*
X182925000Y-45025000D01*
G75*
G02*
X183175000Y-44775000I250000J0D01*
G01*
G37*
D10*
X149550000Y-51300000D03*
X149550000Y-53100000D03*
X146050000Y-51300000D03*
X146050000Y-53100000D03*
X149050000Y-51300000D03*
X148550000Y-51300000D03*
X148050000Y-51300000D03*
X147550000Y-51300000D03*
X147050000Y-51300000D03*
X146550000Y-51300000D03*
X149050000Y-53100000D03*
X148550000Y-53100000D03*
X148050000Y-53100000D03*
X147050000Y-53100000D03*
X147550000Y-53100000D03*
X146550000Y-53100000D03*
X118950000Y-53100000D03*
X119950000Y-53100000D03*
X119450000Y-53100000D03*
X120450000Y-53100000D03*
X120950000Y-53100000D03*
X121450000Y-53100000D03*
X118950000Y-51300000D03*
X119450000Y-51300000D03*
X119950000Y-51300000D03*
X120450000Y-51300000D03*
X120950000Y-51300000D03*
X121450000Y-51300000D03*
X118450000Y-53100000D03*
X118450000Y-51300000D03*
X121950000Y-53100000D03*
X121950000Y-51300000D03*
X175200000Y-51300000D03*
X175200000Y-53100000D03*
X171700000Y-51300000D03*
X171700000Y-53100000D03*
X174700000Y-51300000D03*
X174200000Y-51300000D03*
X173700000Y-51300000D03*
X173200000Y-51300000D03*
X172700000Y-51300000D03*
X172200000Y-51300000D03*
X174700000Y-53100000D03*
X174200000Y-53100000D03*
X173700000Y-53100000D03*
X172700000Y-53100000D03*
X173200000Y-53100000D03*
X172200000Y-53100000D03*
G36*
G01*
X179500000Y-86705000D02*
X179500000Y-86405000D01*
G75*
G02*
X179650000Y-86255000I150000J0D01*
G01*
X181300000Y-86255000D01*
G75*
G02*
X181450000Y-86405000I0J-150000D01*
G01*
X181450000Y-86705000D01*
G75*
G02*
X181300000Y-86855000I-150000J0D01*
G01*
X179650000Y-86855000D01*
G75*
G02*
X179500000Y-86705000I0J150000D01*
G01*
G37*
G36*
G01*
X179500000Y-87975000D02*
X179500000Y-87675000D01*
G75*
G02*
X179650000Y-87525000I150000J0D01*
G01*
X181300000Y-87525000D01*
G75*
G02*
X181450000Y-87675000I0J-150000D01*
G01*
X181450000Y-87975000D01*
G75*
G02*
X181300000Y-88125000I-150000J0D01*
G01*
X179650000Y-88125000D01*
G75*
G02*
X179500000Y-87975000I0J150000D01*
G01*
G37*
G36*
G01*
X179500000Y-89245000D02*
X179500000Y-88945000D01*
G75*
G02*
X179650000Y-88795000I150000J0D01*
G01*
X181300000Y-88795000D01*
G75*
G02*
X181450000Y-88945000I0J-150000D01*
G01*
X181450000Y-89245000D01*
G75*
G02*
X181300000Y-89395000I-150000J0D01*
G01*
X179650000Y-89395000D01*
G75*
G02*
X179500000Y-89245000I0J150000D01*
G01*
G37*
G36*
G01*
X179500000Y-90515000D02*
X179500000Y-90215000D01*
G75*
G02*
X179650000Y-90065000I150000J0D01*
G01*
X181300000Y-90065000D01*
G75*
G02*
X181450000Y-90215000I0J-150000D01*
G01*
X181450000Y-90515000D01*
G75*
G02*
X181300000Y-90665000I-150000J0D01*
G01*
X179650000Y-90665000D01*
G75*
G02*
X179500000Y-90515000I0J150000D01*
G01*
G37*
G36*
G01*
X179500000Y-91785000D02*
X179500000Y-91485000D01*
G75*
G02*
X179650000Y-91335000I150000J0D01*
G01*
X181300000Y-91335000D01*
G75*
G02*
X181450000Y-91485000I0J-150000D01*
G01*
X181450000Y-91785000D01*
G75*
G02*
X181300000Y-91935000I-150000J0D01*
G01*
X179650000Y-91935000D01*
G75*
G02*
X179500000Y-91785000I0J150000D01*
G01*
G37*
G36*
G01*
X179500000Y-93055000D02*
X179500000Y-92755000D01*
G75*
G02*
X179650000Y-92605000I150000J0D01*
G01*
X181300000Y-92605000D01*
G75*
G02*
X181450000Y-92755000I0J-150000D01*
G01*
X181450000Y-93055000D01*
G75*
G02*
X181300000Y-93205000I-150000J0D01*
G01*
X179650000Y-93205000D01*
G75*
G02*
X179500000Y-93055000I0J150000D01*
G01*
G37*
G36*
G01*
X179500000Y-94325000D02*
X179500000Y-94025000D01*
G75*
G02*
X179650000Y-93875000I150000J0D01*
G01*
X181300000Y-93875000D01*
G75*
G02*
X181450000Y-94025000I0J-150000D01*
G01*
X181450000Y-94325000D01*
G75*
G02*
X181300000Y-94475000I-150000J0D01*
G01*
X179650000Y-94475000D01*
G75*
G02*
X179500000Y-94325000I0J150000D01*
G01*
G37*
G36*
G01*
X179500000Y-95595000D02*
X179500000Y-95295000D01*
G75*
G02*
X179650000Y-95145000I150000J0D01*
G01*
X181300000Y-95145000D01*
G75*
G02*
X181450000Y-95295000I0J-150000D01*
G01*
X181450000Y-95595000D01*
G75*
G02*
X181300000Y-95745000I-150000J0D01*
G01*
X179650000Y-95745000D01*
G75*
G02*
X179500000Y-95595000I0J150000D01*
G01*
G37*
G36*
G01*
X174550000Y-95595000D02*
X174550000Y-95295000D01*
G75*
G02*
X174700000Y-95145000I150000J0D01*
G01*
X176350000Y-95145000D01*
G75*
G02*
X176500000Y-95295000I0J-150000D01*
G01*
X176500000Y-95595000D01*
G75*
G02*
X176350000Y-95745000I-150000J0D01*
G01*
X174700000Y-95745000D01*
G75*
G02*
X174550000Y-95595000I0J150000D01*
G01*
G37*
G36*
G01*
X174550000Y-94325000D02*
X174550000Y-94025000D01*
G75*
G02*
X174700000Y-93875000I150000J0D01*
G01*
X176350000Y-93875000D01*
G75*
G02*
X176500000Y-94025000I0J-150000D01*
G01*
X176500000Y-94325000D01*
G75*
G02*
X176350000Y-94475000I-150000J0D01*
G01*
X174700000Y-94475000D01*
G75*
G02*
X174550000Y-94325000I0J150000D01*
G01*
G37*
G36*
G01*
X174550000Y-93055000D02*
X174550000Y-92755000D01*
G75*
G02*
X174700000Y-92605000I150000J0D01*
G01*
X176350000Y-92605000D01*
G75*
G02*
X176500000Y-92755000I0J-150000D01*
G01*
X176500000Y-93055000D01*
G75*
G02*
X176350000Y-93205000I-150000J0D01*
G01*
X174700000Y-93205000D01*
G75*
G02*
X174550000Y-93055000I0J150000D01*
G01*
G37*
G36*
G01*
X174550000Y-91785000D02*
X174550000Y-91485000D01*
G75*
G02*
X174700000Y-91335000I150000J0D01*
G01*
X176350000Y-91335000D01*
G75*
G02*
X176500000Y-91485000I0J-150000D01*
G01*
X176500000Y-91785000D01*
G75*
G02*
X176350000Y-91935000I-150000J0D01*
G01*
X174700000Y-91935000D01*
G75*
G02*
X174550000Y-91785000I0J150000D01*
G01*
G37*
G36*
G01*
X174550000Y-90515000D02*
X174550000Y-90215000D01*
G75*
G02*
X174700000Y-90065000I150000J0D01*
G01*
X176350000Y-90065000D01*
G75*
G02*
X176500000Y-90215000I0J-150000D01*
G01*
X176500000Y-90515000D01*
G75*
G02*
X176350000Y-90665000I-150000J0D01*
G01*
X174700000Y-90665000D01*
G75*
G02*
X174550000Y-90515000I0J150000D01*
G01*
G37*
G36*
G01*
X174550000Y-89245000D02*
X174550000Y-88945000D01*
G75*
G02*
X174700000Y-88795000I150000J0D01*
G01*
X176350000Y-88795000D01*
G75*
G02*
X176500000Y-88945000I0J-150000D01*
G01*
X176500000Y-89245000D01*
G75*
G02*
X176350000Y-89395000I-150000J0D01*
G01*
X174700000Y-89395000D01*
G75*
G02*
X174550000Y-89245000I0J150000D01*
G01*
G37*
G36*
G01*
X174550000Y-87975000D02*
X174550000Y-87675000D01*
G75*
G02*
X174700000Y-87525000I150000J0D01*
G01*
X176350000Y-87525000D01*
G75*
G02*
X176500000Y-87675000I0J-150000D01*
G01*
X176500000Y-87975000D01*
G75*
G02*
X176350000Y-88125000I-150000J0D01*
G01*
X174700000Y-88125000D01*
G75*
G02*
X174550000Y-87975000I0J150000D01*
G01*
G37*
G36*
G01*
X174550000Y-86705000D02*
X174550000Y-86405000D01*
G75*
G02*
X174700000Y-86255000I150000J0D01*
G01*
X176350000Y-86255000D01*
G75*
G02*
X176500000Y-86405000I0J-150000D01*
G01*
X176500000Y-86705000D01*
G75*
G02*
X176350000Y-86855000I-150000J0D01*
G01*
X174700000Y-86855000D01*
G75*
G02*
X174550000Y-86705000I0J150000D01*
G01*
G37*
G36*
G01*
X179500000Y-67705000D02*
X179500000Y-67405000D01*
G75*
G02*
X179650000Y-67255000I150000J0D01*
G01*
X181300000Y-67255000D01*
G75*
G02*
X181450000Y-67405000I0J-150000D01*
G01*
X181450000Y-67705000D01*
G75*
G02*
X181300000Y-67855000I-150000J0D01*
G01*
X179650000Y-67855000D01*
G75*
G02*
X179500000Y-67705000I0J150000D01*
G01*
G37*
G36*
G01*
X179500000Y-68975000D02*
X179500000Y-68675000D01*
G75*
G02*
X179650000Y-68525000I150000J0D01*
G01*
X181300000Y-68525000D01*
G75*
G02*
X181450000Y-68675000I0J-150000D01*
G01*
X181450000Y-68975000D01*
G75*
G02*
X181300000Y-69125000I-150000J0D01*
G01*
X179650000Y-69125000D01*
G75*
G02*
X179500000Y-68975000I0J150000D01*
G01*
G37*
G36*
G01*
X179500000Y-70245000D02*
X179500000Y-69945000D01*
G75*
G02*
X179650000Y-69795000I150000J0D01*
G01*
X181300000Y-69795000D01*
G75*
G02*
X181450000Y-69945000I0J-150000D01*
G01*
X181450000Y-70245000D01*
G75*
G02*
X181300000Y-70395000I-150000J0D01*
G01*
X179650000Y-70395000D01*
G75*
G02*
X179500000Y-70245000I0J150000D01*
G01*
G37*
G36*
G01*
X179500000Y-71515000D02*
X179500000Y-71215000D01*
G75*
G02*
X179650000Y-71065000I150000J0D01*
G01*
X181300000Y-71065000D01*
G75*
G02*
X181450000Y-71215000I0J-150000D01*
G01*
X181450000Y-71515000D01*
G75*
G02*
X181300000Y-71665000I-150000J0D01*
G01*
X179650000Y-71665000D01*
G75*
G02*
X179500000Y-71515000I0J150000D01*
G01*
G37*
G36*
G01*
X179500000Y-72785000D02*
X179500000Y-72485000D01*
G75*
G02*
X179650000Y-72335000I150000J0D01*
G01*
X181300000Y-72335000D01*
G75*
G02*
X181450000Y-72485000I0J-150000D01*
G01*
X181450000Y-72785000D01*
G75*
G02*
X181300000Y-72935000I-150000J0D01*
G01*
X179650000Y-72935000D01*
G75*
G02*
X179500000Y-72785000I0J150000D01*
G01*
G37*
G36*
G01*
X179500000Y-74055000D02*
X179500000Y-73755000D01*
G75*
G02*
X179650000Y-73605000I150000J0D01*
G01*
X181300000Y-73605000D01*
G75*
G02*
X181450000Y-73755000I0J-150000D01*
G01*
X181450000Y-74055000D01*
G75*
G02*
X181300000Y-74205000I-150000J0D01*
G01*
X179650000Y-74205000D01*
G75*
G02*
X179500000Y-74055000I0J150000D01*
G01*
G37*
G36*
G01*
X179500000Y-75325000D02*
X179500000Y-75025000D01*
G75*
G02*
X179650000Y-74875000I150000J0D01*
G01*
X181300000Y-74875000D01*
G75*
G02*
X181450000Y-75025000I0J-150000D01*
G01*
X181450000Y-75325000D01*
G75*
G02*
X181300000Y-75475000I-150000J0D01*
G01*
X179650000Y-75475000D01*
G75*
G02*
X179500000Y-75325000I0J150000D01*
G01*
G37*
G36*
G01*
X179500000Y-76595000D02*
X179500000Y-76295000D01*
G75*
G02*
X179650000Y-76145000I150000J0D01*
G01*
X181300000Y-76145000D01*
G75*
G02*
X181450000Y-76295000I0J-150000D01*
G01*
X181450000Y-76595000D01*
G75*
G02*
X181300000Y-76745000I-150000J0D01*
G01*
X179650000Y-76745000D01*
G75*
G02*
X179500000Y-76595000I0J150000D01*
G01*
G37*
G36*
G01*
X174550000Y-76595000D02*
X174550000Y-76295000D01*
G75*
G02*
X174700000Y-76145000I150000J0D01*
G01*
X176350000Y-76145000D01*
G75*
G02*
X176500000Y-76295000I0J-150000D01*
G01*
X176500000Y-76595000D01*
G75*
G02*
X176350000Y-76745000I-150000J0D01*
G01*
X174700000Y-76745000D01*
G75*
G02*
X174550000Y-76595000I0J150000D01*
G01*
G37*
G36*
G01*
X174550000Y-75325000D02*
X174550000Y-75025000D01*
G75*
G02*
X174700000Y-74875000I150000J0D01*
G01*
X176350000Y-74875000D01*
G75*
G02*
X176500000Y-75025000I0J-150000D01*
G01*
X176500000Y-75325000D01*
G75*
G02*
X176350000Y-75475000I-150000J0D01*
G01*
X174700000Y-75475000D01*
G75*
G02*
X174550000Y-75325000I0J150000D01*
G01*
G37*
G36*
G01*
X174550000Y-74055000D02*
X174550000Y-73755000D01*
G75*
G02*
X174700000Y-73605000I150000J0D01*
G01*
X176350000Y-73605000D01*
G75*
G02*
X176500000Y-73755000I0J-150000D01*
G01*
X176500000Y-74055000D01*
G75*
G02*
X176350000Y-74205000I-150000J0D01*
G01*
X174700000Y-74205000D01*
G75*
G02*
X174550000Y-74055000I0J150000D01*
G01*
G37*
G36*
G01*
X174550000Y-72785000D02*
X174550000Y-72485000D01*
G75*
G02*
X174700000Y-72335000I150000J0D01*
G01*
X176350000Y-72335000D01*
G75*
G02*
X176500000Y-72485000I0J-150000D01*
G01*
X176500000Y-72785000D01*
G75*
G02*
X176350000Y-72935000I-150000J0D01*
G01*
X174700000Y-72935000D01*
G75*
G02*
X174550000Y-72785000I0J150000D01*
G01*
G37*
G36*
G01*
X174550000Y-71515000D02*
X174550000Y-71215000D01*
G75*
G02*
X174700000Y-71065000I150000J0D01*
G01*
X176350000Y-71065000D01*
G75*
G02*
X176500000Y-71215000I0J-150000D01*
G01*
X176500000Y-71515000D01*
G75*
G02*
X176350000Y-71665000I-150000J0D01*
G01*
X174700000Y-71665000D01*
G75*
G02*
X174550000Y-71515000I0J150000D01*
G01*
G37*
G36*
G01*
X174550000Y-70245000D02*
X174550000Y-69945000D01*
G75*
G02*
X174700000Y-69795000I150000J0D01*
G01*
X176350000Y-69795000D01*
G75*
G02*
X176500000Y-69945000I0J-150000D01*
G01*
X176500000Y-70245000D01*
G75*
G02*
X176350000Y-70395000I-150000J0D01*
G01*
X174700000Y-70395000D01*
G75*
G02*
X174550000Y-70245000I0J150000D01*
G01*
G37*
G36*
G01*
X174550000Y-68975000D02*
X174550000Y-68675000D01*
G75*
G02*
X174700000Y-68525000I150000J0D01*
G01*
X176350000Y-68525000D01*
G75*
G02*
X176500000Y-68675000I0J-150000D01*
G01*
X176500000Y-68975000D01*
G75*
G02*
X176350000Y-69125000I-150000J0D01*
G01*
X174700000Y-69125000D01*
G75*
G02*
X174550000Y-68975000I0J150000D01*
G01*
G37*
G36*
G01*
X174550000Y-67705000D02*
X174550000Y-67405000D01*
G75*
G02*
X174700000Y-67255000I150000J0D01*
G01*
X176350000Y-67255000D01*
G75*
G02*
X176500000Y-67405000I0J-150000D01*
G01*
X176500000Y-67705000D01*
G75*
G02*
X176350000Y-67855000I-150000J0D01*
G01*
X174700000Y-67855000D01*
G75*
G02*
X174550000Y-67705000I0J150000D01*
G01*
G37*
G36*
G01*
X152550000Y-86705000D02*
X152550000Y-86405000D01*
G75*
G02*
X152700000Y-86255000I150000J0D01*
G01*
X154350000Y-86255000D01*
G75*
G02*
X154500000Y-86405000I0J-150000D01*
G01*
X154500000Y-86705000D01*
G75*
G02*
X154350000Y-86855000I-150000J0D01*
G01*
X152700000Y-86855000D01*
G75*
G02*
X152550000Y-86705000I0J150000D01*
G01*
G37*
G36*
G01*
X152550000Y-87975000D02*
X152550000Y-87675000D01*
G75*
G02*
X152700000Y-87525000I150000J0D01*
G01*
X154350000Y-87525000D01*
G75*
G02*
X154500000Y-87675000I0J-150000D01*
G01*
X154500000Y-87975000D01*
G75*
G02*
X154350000Y-88125000I-150000J0D01*
G01*
X152700000Y-88125000D01*
G75*
G02*
X152550000Y-87975000I0J150000D01*
G01*
G37*
G36*
G01*
X152550000Y-89245000D02*
X152550000Y-88945000D01*
G75*
G02*
X152700000Y-88795000I150000J0D01*
G01*
X154350000Y-88795000D01*
G75*
G02*
X154500000Y-88945000I0J-150000D01*
G01*
X154500000Y-89245000D01*
G75*
G02*
X154350000Y-89395000I-150000J0D01*
G01*
X152700000Y-89395000D01*
G75*
G02*
X152550000Y-89245000I0J150000D01*
G01*
G37*
G36*
G01*
X152550000Y-90515000D02*
X152550000Y-90215000D01*
G75*
G02*
X152700000Y-90065000I150000J0D01*
G01*
X154350000Y-90065000D01*
G75*
G02*
X154500000Y-90215000I0J-150000D01*
G01*
X154500000Y-90515000D01*
G75*
G02*
X154350000Y-90665000I-150000J0D01*
G01*
X152700000Y-90665000D01*
G75*
G02*
X152550000Y-90515000I0J150000D01*
G01*
G37*
G36*
G01*
X152550000Y-91785000D02*
X152550000Y-91485000D01*
G75*
G02*
X152700000Y-91335000I150000J0D01*
G01*
X154350000Y-91335000D01*
G75*
G02*
X154500000Y-91485000I0J-150000D01*
G01*
X154500000Y-91785000D01*
G75*
G02*
X154350000Y-91935000I-150000J0D01*
G01*
X152700000Y-91935000D01*
G75*
G02*
X152550000Y-91785000I0J150000D01*
G01*
G37*
G36*
G01*
X152550000Y-93055000D02*
X152550000Y-92755000D01*
G75*
G02*
X152700000Y-92605000I150000J0D01*
G01*
X154350000Y-92605000D01*
G75*
G02*
X154500000Y-92755000I0J-150000D01*
G01*
X154500000Y-93055000D01*
G75*
G02*
X154350000Y-93205000I-150000J0D01*
G01*
X152700000Y-93205000D01*
G75*
G02*
X152550000Y-93055000I0J150000D01*
G01*
G37*
G36*
G01*
X152550000Y-94325000D02*
X152550000Y-94025000D01*
G75*
G02*
X152700000Y-93875000I150000J0D01*
G01*
X154350000Y-93875000D01*
G75*
G02*
X154500000Y-94025000I0J-150000D01*
G01*
X154500000Y-94325000D01*
G75*
G02*
X154350000Y-94475000I-150000J0D01*
G01*
X152700000Y-94475000D01*
G75*
G02*
X152550000Y-94325000I0J150000D01*
G01*
G37*
G36*
G01*
X152550000Y-95595000D02*
X152550000Y-95295000D01*
G75*
G02*
X152700000Y-95145000I150000J0D01*
G01*
X154350000Y-95145000D01*
G75*
G02*
X154500000Y-95295000I0J-150000D01*
G01*
X154500000Y-95595000D01*
G75*
G02*
X154350000Y-95745000I-150000J0D01*
G01*
X152700000Y-95745000D01*
G75*
G02*
X152550000Y-95595000I0J150000D01*
G01*
G37*
G36*
G01*
X157500000Y-95595000D02*
X157500000Y-95295000D01*
G75*
G02*
X157650000Y-95145000I150000J0D01*
G01*
X159300000Y-95145000D01*
G75*
G02*
X159450000Y-95295000I0J-150000D01*
G01*
X159450000Y-95595000D01*
G75*
G02*
X159300000Y-95745000I-150000J0D01*
G01*
X157650000Y-95745000D01*
G75*
G02*
X157500000Y-95595000I0J150000D01*
G01*
G37*
G36*
G01*
X157500000Y-94325000D02*
X157500000Y-94025000D01*
G75*
G02*
X157650000Y-93875000I150000J0D01*
G01*
X159300000Y-93875000D01*
G75*
G02*
X159450000Y-94025000I0J-150000D01*
G01*
X159450000Y-94325000D01*
G75*
G02*
X159300000Y-94475000I-150000J0D01*
G01*
X157650000Y-94475000D01*
G75*
G02*
X157500000Y-94325000I0J150000D01*
G01*
G37*
G36*
G01*
X157500000Y-93055000D02*
X157500000Y-92755000D01*
G75*
G02*
X157650000Y-92605000I150000J0D01*
G01*
X159300000Y-92605000D01*
G75*
G02*
X159450000Y-92755000I0J-150000D01*
G01*
X159450000Y-93055000D01*
G75*
G02*
X159300000Y-93205000I-150000J0D01*
G01*
X157650000Y-93205000D01*
G75*
G02*
X157500000Y-93055000I0J150000D01*
G01*
G37*
G36*
G01*
X157500000Y-91785000D02*
X157500000Y-91485000D01*
G75*
G02*
X157650000Y-91335000I150000J0D01*
G01*
X159300000Y-91335000D01*
G75*
G02*
X159450000Y-91485000I0J-150000D01*
G01*
X159450000Y-91785000D01*
G75*
G02*
X159300000Y-91935000I-150000J0D01*
G01*
X157650000Y-91935000D01*
G75*
G02*
X157500000Y-91785000I0J150000D01*
G01*
G37*
G36*
G01*
X157500000Y-90515000D02*
X157500000Y-90215000D01*
G75*
G02*
X157650000Y-90065000I150000J0D01*
G01*
X159300000Y-90065000D01*
G75*
G02*
X159450000Y-90215000I0J-150000D01*
G01*
X159450000Y-90515000D01*
G75*
G02*
X159300000Y-90665000I-150000J0D01*
G01*
X157650000Y-90665000D01*
G75*
G02*
X157500000Y-90515000I0J150000D01*
G01*
G37*
G36*
G01*
X157500000Y-89245000D02*
X157500000Y-88945000D01*
G75*
G02*
X157650000Y-88795000I150000J0D01*
G01*
X159300000Y-88795000D01*
G75*
G02*
X159450000Y-88945000I0J-150000D01*
G01*
X159450000Y-89245000D01*
G75*
G02*
X159300000Y-89395000I-150000J0D01*
G01*
X157650000Y-89395000D01*
G75*
G02*
X157500000Y-89245000I0J150000D01*
G01*
G37*
G36*
G01*
X157500000Y-87975000D02*
X157500000Y-87675000D01*
G75*
G02*
X157650000Y-87525000I150000J0D01*
G01*
X159300000Y-87525000D01*
G75*
G02*
X159450000Y-87675000I0J-150000D01*
G01*
X159450000Y-87975000D01*
G75*
G02*
X159300000Y-88125000I-150000J0D01*
G01*
X157650000Y-88125000D01*
G75*
G02*
X157500000Y-87975000I0J150000D01*
G01*
G37*
G36*
G01*
X157500000Y-86705000D02*
X157500000Y-86405000D01*
G75*
G02*
X157650000Y-86255000I150000J0D01*
G01*
X159300000Y-86255000D01*
G75*
G02*
X159450000Y-86405000I0J-150000D01*
G01*
X159450000Y-86705000D01*
G75*
G02*
X159300000Y-86855000I-150000J0D01*
G01*
X157650000Y-86855000D01*
G75*
G02*
X157500000Y-86705000I0J150000D01*
G01*
G37*
G36*
G01*
X196325000Y-86935000D02*
X196325000Y-86635000D01*
G75*
G02*
X196475000Y-86485000I150000J0D01*
G01*
X198225000Y-86485000D01*
G75*
G02*
X198375000Y-86635000I0J-150000D01*
G01*
X198375000Y-86935000D01*
G75*
G02*
X198225000Y-87085000I-150000J0D01*
G01*
X196475000Y-87085000D01*
G75*
G02*
X196325000Y-86935000I0J150000D01*
G01*
G37*
G36*
G01*
X196325000Y-88205000D02*
X196325000Y-87905000D01*
G75*
G02*
X196475000Y-87755000I150000J0D01*
G01*
X198225000Y-87755000D01*
G75*
G02*
X198375000Y-87905000I0J-150000D01*
G01*
X198375000Y-88205000D01*
G75*
G02*
X198225000Y-88355000I-150000J0D01*
G01*
X196475000Y-88355000D01*
G75*
G02*
X196325000Y-88205000I0J150000D01*
G01*
G37*
G36*
G01*
X196325000Y-89475000D02*
X196325000Y-89175000D01*
G75*
G02*
X196475000Y-89025000I150000J0D01*
G01*
X198225000Y-89025000D01*
G75*
G02*
X198375000Y-89175000I0J-150000D01*
G01*
X198375000Y-89475000D01*
G75*
G02*
X198225000Y-89625000I-150000J0D01*
G01*
X196475000Y-89625000D01*
G75*
G02*
X196325000Y-89475000I0J150000D01*
G01*
G37*
G36*
G01*
X196325000Y-90745000D02*
X196325000Y-90445000D01*
G75*
G02*
X196475000Y-90295000I150000J0D01*
G01*
X198225000Y-90295000D01*
G75*
G02*
X198375000Y-90445000I0J-150000D01*
G01*
X198375000Y-90745000D01*
G75*
G02*
X198225000Y-90895000I-150000J0D01*
G01*
X196475000Y-90895000D01*
G75*
G02*
X196325000Y-90745000I0J150000D01*
G01*
G37*
G36*
G01*
X196325000Y-92015000D02*
X196325000Y-91715000D01*
G75*
G02*
X196475000Y-91565000I150000J0D01*
G01*
X198225000Y-91565000D01*
G75*
G02*
X198375000Y-91715000I0J-150000D01*
G01*
X198375000Y-92015000D01*
G75*
G02*
X198225000Y-92165000I-150000J0D01*
G01*
X196475000Y-92165000D01*
G75*
G02*
X196325000Y-92015000I0J150000D01*
G01*
G37*
G36*
G01*
X196325000Y-93285000D02*
X196325000Y-92985000D01*
G75*
G02*
X196475000Y-92835000I150000J0D01*
G01*
X198225000Y-92835000D01*
G75*
G02*
X198375000Y-92985000I0J-150000D01*
G01*
X198375000Y-93285000D01*
G75*
G02*
X198225000Y-93435000I-150000J0D01*
G01*
X196475000Y-93435000D01*
G75*
G02*
X196325000Y-93285000I0J150000D01*
G01*
G37*
G36*
G01*
X196325000Y-94555000D02*
X196325000Y-94255000D01*
G75*
G02*
X196475000Y-94105000I150000J0D01*
G01*
X198225000Y-94105000D01*
G75*
G02*
X198375000Y-94255000I0J-150000D01*
G01*
X198375000Y-94555000D01*
G75*
G02*
X198225000Y-94705000I-150000J0D01*
G01*
X196475000Y-94705000D01*
G75*
G02*
X196325000Y-94555000I0J150000D01*
G01*
G37*
G36*
G01*
X196325000Y-95825000D02*
X196325000Y-95525000D01*
G75*
G02*
X196475000Y-95375000I150000J0D01*
G01*
X198225000Y-95375000D01*
G75*
G02*
X198375000Y-95525000I0J-150000D01*
G01*
X198375000Y-95825000D01*
G75*
G02*
X198225000Y-95975000I-150000J0D01*
G01*
X196475000Y-95975000D01*
G75*
G02*
X196325000Y-95825000I0J150000D01*
G01*
G37*
G36*
G01*
X196325000Y-97095000D02*
X196325000Y-96795000D01*
G75*
G02*
X196475000Y-96645000I150000J0D01*
G01*
X198225000Y-96645000D01*
G75*
G02*
X198375000Y-96795000I0J-150000D01*
G01*
X198375000Y-97095000D01*
G75*
G02*
X198225000Y-97245000I-150000J0D01*
G01*
X196475000Y-97245000D01*
G75*
G02*
X196325000Y-97095000I0J150000D01*
G01*
G37*
G36*
G01*
X196325000Y-98365000D02*
X196325000Y-98065000D01*
G75*
G02*
X196475000Y-97915000I150000J0D01*
G01*
X198225000Y-97915000D01*
G75*
G02*
X198375000Y-98065000I0J-150000D01*
G01*
X198375000Y-98365000D01*
G75*
G02*
X198225000Y-98515000I-150000J0D01*
G01*
X196475000Y-98515000D01*
G75*
G02*
X196325000Y-98365000I0J150000D01*
G01*
G37*
G36*
G01*
X205625000Y-98365000D02*
X205625000Y-98065000D01*
G75*
G02*
X205775000Y-97915000I150000J0D01*
G01*
X207525000Y-97915000D01*
G75*
G02*
X207675000Y-98065000I0J-150000D01*
G01*
X207675000Y-98365000D01*
G75*
G02*
X207525000Y-98515000I-150000J0D01*
G01*
X205775000Y-98515000D01*
G75*
G02*
X205625000Y-98365000I0J150000D01*
G01*
G37*
G36*
G01*
X205625000Y-97095000D02*
X205625000Y-96795000D01*
G75*
G02*
X205775000Y-96645000I150000J0D01*
G01*
X207525000Y-96645000D01*
G75*
G02*
X207675000Y-96795000I0J-150000D01*
G01*
X207675000Y-97095000D01*
G75*
G02*
X207525000Y-97245000I-150000J0D01*
G01*
X205775000Y-97245000D01*
G75*
G02*
X205625000Y-97095000I0J150000D01*
G01*
G37*
G36*
G01*
X205625000Y-95825000D02*
X205625000Y-95525000D01*
G75*
G02*
X205775000Y-95375000I150000J0D01*
G01*
X207525000Y-95375000D01*
G75*
G02*
X207675000Y-95525000I0J-150000D01*
G01*
X207675000Y-95825000D01*
G75*
G02*
X207525000Y-95975000I-150000J0D01*
G01*
X205775000Y-95975000D01*
G75*
G02*
X205625000Y-95825000I0J150000D01*
G01*
G37*
G36*
G01*
X205625000Y-94555000D02*
X205625000Y-94255000D01*
G75*
G02*
X205775000Y-94105000I150000J0D01*
G01*
X207525000Y-94105000D01*
G75*
G02*
X207675000Y-94255000I0J-150000D01*
G01*
X207675000Y-94555000D01*
G75*
G02*
X207525000Y-94705000I-150000J0D01*
G01*
X205775000Y-94705000D01*
G75*
G02*
X205625000Y-94555000I0J150000D01*
G01*
G37*
G36*
G01*
X205625000Y-93285000D02*
X205625000Y-92985000D01*
G75*
G02*
X205775000Y-92835000I150000J0D01*
G01*
X207525000Y-92835000D01*
G75*
G02*
X207675000Y-92985000I0J-150000D01*
G01*
X207675000Y-93285000D01*
G75*
G02*
X207525000Y-93435000I-150000J0D01*
G01*
X205775000Y-93435000D01*
G75*
G02*
X205625000Y-93285000I0J150000D01*
G01*
G37*
G36*
G01*
X205625000Y-92015000D02*
X205625000Y-91715000D01*
G75*
G02*
X205775000Y-91565000I150000J0D01*
G01*
X207525000Y-91565000D01*
G75*
G02*
X207675000Y-91715000I0J-150000D01*
G01*
X207675000Y-92015000D01*
G75*
G02*
X207525000Y-92165000I-150000J0D01*
G01*
X205775000Y-92165000D01*
G75*
G02*
X205625000Y-92015000I0J150000D01*
G01*
G37*
G36*
G01*
X205625000Y-90745000D02*
X205625000Y-90445000D01*
G75*
G02*
X205775000Y-90295000I150000J0D01*
G01*
X207525000Y-90295000D01*
G75*
G02*
X207675000Y-90445000I0J-150000D01*
G01*
X207675000Y-90745000D01*
G75*
G02*
X207525000Y-90895000I-150000J0D01*
G01*
X205775000Y-90895000D01*
G75*
G02*
X205625000Y-90745000I0J150000D01*
G01*
G37*
G36*
G01*
X205625000Y-89475000D02*
X205625000Y-89175000D01*
G75*
G02*
X205775000Y-89025000I150000J0D01*
G01*
X207525000Y-89025000D01*
G75*
G02*
X207675000Y-89175000I0J-150000D01*
G01*
X207675000Y-89475000D01*
G75*
G02*
X207525000Y-89625000I-150000J0D01*
G01*
X205775000Y-89625000D01*
G75*
G02*
X205625000Y-89475000I0J150000D01*
G01*
G37*
G36*
G01*
X205625000Y-88205000D02*
X205625000Y-87905000D01*
G75*
G02*
X205775000Y-87755000I150000J0D01*
G01*
X207525000Y-87755000D01*
G75*
G02*
X207675000Y-87905000I0J-150000D01*
G01*
X207675000Y-88205000D01*
G75*
G02*
X207525000Y-88355000I-150000J0D01*
G01*
X205775000Y-88355000D01*
G75*
G02*
X205625000Y-88205000I0J150000D01*
G01*
G37*
G36*
G01*
X205625000Y-86935000D02*
X205625000Y-86635000D01*
G75*
G02*
X205775000Y-86485000I150000J0D01*
G01*
X207525000Y-86485000D01*
G75*
G02*
X207675000Y-86635000I0J-150000D01*
G01*
X207675000Y-86935000D01*
G75*
G02*
X207525000Y-87085000I-150000J0D01*
G01*
X205775000Y-87085000D01*
G75*
G02*
X205625000Y-86935000I0J150000D01*
G01*
G37*
G36*
G01*
X135625000Y-67935000D02*
X135625000Y-67635000D01*
G75*
G02*
X135775000Y-67485000I150000J0D01*
G01*
X137525000Y-67485000D01*
G75*
G02*
X137675000Y-67635000I0J-150000D01*
G01*
X137675000Y-67935000D01*
G75*
G02*
X137525000Y-68085000I-150000J0D01*
G01*
X135775000Y-68085000D01*
G75*
G02*
X135625000Y-67935000I0J150000D01*
G01*
G37*
G36*
G01*
X135625000Y-69205000D02*
X135625000Y-68905000D01*
G75*
G02*
X135775000Y-68755000I150000J0D01*
G01*
X137525000Y-68755000D01*
G75*
G02*
X137675000Y-68905000I0J-150000D01*
G01*
X137675000Y-69205000D01*
G75*
G02*
X137525000Y-69355000I-150000J0D01*
G01*
X135775000Y-69355000D01*
G75*
G02*
X135625000Y-69205000I0J150000D01*
G01*
G37*
G36*
G01*
X135625000Y-70475000D02*
X135625000Y-70175000D01*
G75*
G02*
X135775000Y-70025000I150000J0D01*
G01*
X137525000Y-70025000D01*
G75*
G02*
X137675000Y-70175000I0J-150000D01*
G01*
X137675000Y-70475000D01*
G75*
G02*
X137525000Y-70625000I-150000J0D01*
G01*
X135775000Y-70625000D01*
G75*
G02*
X135625000Y-70475000I0J150000D01*
G01*
G37*
G36*
G01*
X135625000Y-71745000D02*
X135625000Y-71445000D01*
G75*
G02*
X135775000Y-71295000I150000J0D01*
G01*
X137525000Y-71295000D01*
G75*
G02*
X137675000Y-71445000I0J-150000D01*
G01*
X137675000Y-71745000D01*
G75*
G02*
X137525000Y-71895000I-150000J0D01*
G01*
X135775000Y-71895000D01*
G75*
G02*
X135625000Y-71745000I0J150000D01*
G01*
G37*
G36*
G01*
X135625000Y-73015000D02*
X135625000Y-72715000D01*
G75*
G02*
X135775000Y-72565000I150000J0D01*
G01*
X137525000Y-72565000D01*
G75*
G02*
X137675000Y-72715000I0J-150000D01*
G01*
X137675000Y-73015000D01*
G75*
G02*
X137525000Y-73165000I-150000J0D01*
G01*
X135775000Y-73165000D01*
G75*
G02*
X135625000Y-73015000I0J150000D01*
G01*
G37*
G36*
G01*
X135625000Y-74285000D02*
X135625000Y-73985000D01*
G75*
G02*
X135775000Y-73835000I150000J0D01*
G01*
X137525000Y-73835000D01*
G75*
G02*
X137675000Y-73985000I0J-150000D01*
G01*
X137675000Y-74285000D01*
G75*
G02*
X137525000Y-74435000I-150000J0D01*
G01*
X135775000Y-74435000D01*
G75*
G02*
X135625000Y-74285000I0J150000D01*
G01*
G37*
G36*
G01*
X135625000Y-75555000D02*
X135625000Y-75255000D01*
G75*
G02*
X135775000Y-75105000I150000J0D01*
G01*
X137525000Y-75105000D01*
G75*
G02*
X137675000Y-75255000I0J-150000D01*
G01*
X137675000Y-75555000D01*
G75*
G02*
X137525000Y-75705000I-150000J0D01*
G01*
X135775000Y-75705000D01*
G75*
G02*
X135625000Y-75555000I0J150000D01*
G01*
G37*
G36*
G01*
X135625000Y-76825000D02*
X135625000Y-76525000D01*
G75*
G02*
X135775000Y-76375000I150000J0D01*
G01*
X137525000Y-76375000D01*
G75*
G02*
X137675000Y-76525000I0J-150000D01*
G01*
X137675000Y-76825000D01*
G75*
G02*
X137525000Y-76975000I-150000J0D01*
G01*
X135775000Y-76975000D01*
G75*
G02*
X135625000Y-76825000I0J150000D01*
G01*
G37*
G36*
G01*
X135625000Y-78095000D02*
X135625000Y-77795000D01*
G75*
G02*
X135775000Y-77645000I150000J0D01*
G01*
X137525000Y-77645000D01*
G75*
G02*
X137675000Y-77795000I0J-150000D01*
G01*
X137675000Y-78095000D01*
G75*
G02*
X137525000Y-78245000I-150000J0D01*
G01*
X135775000Y-78245000D01*
G75*
G02*
X135625000Y-78095000I0J150000D01*
G01*
G37*
G36*
G01*
X135625000Y-79365000D02*
X135625000Y-79065000D01*
G75*
G02*
X135775000Y-78915000I150000J0D01*
G01*
X137525000Y-78915000D01*
G75*
G02*
X137675000Y-79065000I0J-150000D01*
G01*
X137675000Y-79365000D01*
G75*
G02*
X137525000Y-79515000I-150000J0D01*
G01*
X135775000Y-79515000D01*
G75*
G02*
X135625000Y-79365000I0J150000D01*
G01*
G37*
G36*
G01*
X126325000Y-79365000D02*
X126325000Y-79065000D01*
G75*
G02*
X126475000Y-78915000I150000J0D01*
G01*
X128225000Y-78915000D01*
G75*
G02*
X128375000Y-79065000I0J-150000D01*
G01*
X128375000Y-79365000D01*
G75*
G02*
X128225000Y-79515000I-150000J0D01*
G01*
X126475000Y-79515000D01*
G75*
G02*
X126325000Y-79365000I0J150000D01*
G01*
G37*
G36*
G01*
X126325000Y-78095000D02*
X126325000Y-77795000D01*
G75*
G02*
X126475000Y-77645000I150000J0D01*
G01*
X128225000Y-77645000D01*
G75*
G02*
X128375000Y-77795000I0J-150000D01*
G01*
X128375000Y-78095000D01*
G75*
G02*
X128225000Y-78245000I-150000J0D01*
G01*
X126475000Y-78245000D01*
G75*
G02*
X126325000Y-78095000I0J150000D01*
G01*
G37*
G36*
G01*
X126325000Y-76825000D02*
X126325000Y-76525000D01*
G75*
G02*
X126475000Y-76375000I150000J0D01*
G01*
X128225000Y-76375000D01*
G75*
G02*
X128375000Y-76525000I0J-150000D01*
G01*
X128375000Y-76825000D01*
G75*
G02*
X128225000Y-76975000I-150000J0D01*
G01*
X126475000Y-76975000D01*
G75*
G02*
X126325000Y-76825000I0J150000D01*
G01*
G37*
G36*
G01*
X126325000Y-75555000D02*
X126325000Y-75255000D01*
G75*
G02*
X126475000Y-75105000I150000J0D01*
G01*
X128225000Y-75105000D01*
G75*
G02*
X128375000Y-75255000I0J-150000D01*
G01*
X128375000Y-75555000D01*
G75*
G02*
X128225000Y-75705000I-150000J0D01*
G01*
X126475000Y-75705000D01*
G75*
G02*
X126325000Y-75555000I0J150000D01*
G01*
G37*
G36*
G01*
X126325000Y-74285000D02*
X126325000Y-73985000D01*
G75*
G02*
X126475000Y-73835000I150000J0D01*
G01*
X128225000Y-73835000D01*
G75*
G02*
X128375000Y-73985000I0J-150000D01*
G01*
X128375000Y-74285000D01*
G75*
G02*
X128225000Y-74435000I-150000J0D01*
G01*
X126475000Y-74435000D01*
G75*
G02*
X126325000Y-74285000I0J150000D01*
G01*
G37*
G36*
G01*
X126325000Y-73015000D02*
X126325000Y-72715000D01*
G75*
G02*
X126475000Y-72565000I150000J0D01*
G01*
X128225000Y-72565000D01*
G75*
G02*
X128375000Y-72715000I0J-150000D01*
G01*
X128375000Y-73015000D01*
G75*
G02*
X128225000Y-73165000I-150000J0D01*
G01*
X126475000Y-73165000D01*
G75*
G02*
X126325000Y-73015000I0J150000D01*
G01*
G37*
G36*
G01*
X126325000Y-71745000D02*
X126325000Y-71445000D01*
G75*
G02*
X126475000Y-71295000I150000J0D01*
G01*
X128225000Y-71295000D01*
G75*
G02*
X128375000Y-71445000I0J-150000D01*
G01*
X128375000Y-71745000D01*
G75*
G02*
X128225000Y-71895000I-150000J0D01*
G01*
X126475000Y-71895000D01*
G75*
G02*
X126325000Y-71745000I0J150000D01*
G01*
G37*
G36*
G01*
X126325000Y-70475000D02*
X126325000Y-70175000D01*
G75*
G02*
X126475000Y-70025000I150000J0D01*
G01*
X128225000Y-70025000D01*
G75*
G02*
X128375000Y-70175000I0J-150000D01*
G01*
X128375000Y-70475000D01*
G75*
G02*
X128225000Y-70625000I-150000J0D01*
G01*
X126475000Y-70625000D01*
G75*
G02*
X126325000Y-70475000I0J150000D01*
G01*
G37*
G36*
G01*
X126325000Y-69205000D02*
X126325000Y-68905000D01*
G75*
G02*
X126475000Y-68755000I150000J0D01*
G01*
X128225000Y-68755000D01*
G75*
G02*
X128375000Y-68905000I0J-150000D01*
G01*
X128375000Y-69205000D01*
G75*
G02*
X128225000Y-69355000I-150000J0D01*
G01*
X126475000Y-69355000D01*
G75*
G02*
X126325000Y-69205000I0J150000D01*
G01*
G37*
G36*
G01*
X126325000Y-67935000D02*
X126325000Y-67635000D01*
G75*
G02*
X126475000Y-67485000I150000J0D01*
G01*
X128225000Y-67485000D01*
G75*
G02*
X128375000Y-67635000I0J-150000D01*
G01*
X128375000Y-67935000D01*
G75*
G02*
X128225000Y-68085000I-150000J0D01*
G01*
X126475000Y-68085000D01*
G75*
G02*
X126325000Y-67935000I0J150000D01*
G01*
G37*
G36*
G01*
X161125000Y-51635000D02*
X161125000Y-51335000D01*
G75*
G02*
X161275000Y-51185000I150000J0D01*
G01*
X163025000Y-51185000D01*
G75*
G02*
X163175000Y-51335000I0J-150000D01*
G01*
X163175000Y-51635000D01*
G75*
G02*
X163025000Y-51785000I-150000J0D01*
G01*
X161275000Y-51785000D01*
G75*
G02*
X161125000Y-51635000I0J150000D01*
G01*
G37*
G36*
G01*
X161125000Y-52905000D02*
X161125000Y-52605000D01*
G75*
G02*
X161275000Y-52455000I150000J0D01*
G01*
X163025000Y-52455000D01*
G75*
G02*
X163175000Y-52605000I0J-150000D01*
G01*
X163175000Y-52905000D01*
G75*
G02*
X163025000Y-53055000I-150000J0D01*
G01*
X161275000Y-53055000D01*
G75*
G02*
X161125000Y-52905000I0J150000D01*
G01*
G37*
G36*
G01*
X161125000Y-54175000D02*
X161125000Y-53875000D01*
G75*
G02*
X161275000Y-53725000I150000J0D01*
G01*
X163025000Y-53725000D01*
G75*
G02*
X163175000Y-53875000I0J-150000D01*
G01*
X163175000Y-54175000D01*
G75*
G02*
X163025000Y-54325000I-150000J0D01*
G01*
X161275000Y-54325000D01*
G75*
G02*
X161125000Y-54175000I0J150000D01*
G01*
G37*
G36*
G01*
X161125000Y-55445000D02*
X161125000Y-55145000D01*
G75*
G02*
X161275000Y-54995000I150000J0D01*
G01*
X163025000Y-54995000D01*
G75*
G02*
X163175000Y-55145000I0J-150000D01*
G01*
X163175000Y-55445000D01*
G75*
G02*
X163025000Y-55595000I-150000J0D01*
G01*
X161275000Y-55595000D01*
G75*
G02*
X161125000Y-55445000I0J150000D01*
G01*
G37*
G36*
G01*
X161125000Y-56715000D02*
X161125000Y-56415000D01*
G75*
G02*
X161275000Y-56265000I150000J0D01*
G01*
X163025000Y-56265000D01*
G75*
G02*
X163175000Y-56415000I0J-150000D01*
G01*
X163175000Y-56715000D01*
G75*
G02*
X163025000Y-56865000I-150000J0D01*
G01*
X161275000Y-56865000D01*
G75*
G02*
X161125000Y-56715000I0J150000D01*
G01*
G37*
G36*
G01*
X161125000Y-57985000D02*
X161125000Y-57685000D01*
G75*
G02*
X161275000Y-57535000I150000J0D01*
G01*
X163025000Y-57535000D01*
G75*
G02*
X163175000Y-57685000I0J-150000D01*
G01*
X163175000Y-57985000D01*
G75*
G02*
X163025000Y-58135000I-150000J0D01*
G01*
X161275000Y-58135000D01*
G75*
G02*
X161125000Y-57985000I0J150000D01*
G01*
G37*
G36*
G01*
X161125000Y-59255000D02*
X161125000Y-58955000D01*
G75*
G02*
X161275000Y-58805000I150000J0D01*
G01*
X163025000Y-58805000D01*
G75*
G02*
X163175000Y-58955000I0J-150000D01*
G01*
X163175000Y-59255000D01*
G75*
G02*
X163025000Y-59405000I-150000J0D01*
G01*
X161275000Y-59405000D01*
G75*
G02*
X161125000Y-59255000I0J150000D01*
G01*
G37*
G36*
G01*
X161125000Y-60525000D02*
X161125000Y-60225000D01*
G75*
G02*
X161275000Y-60075000I150000J0D01*
G01*
X163025000Y-60075000D01*
G75*
G02*
X163175000Y-60225000I0J-150000D01*
G01*
X163175000Y-60525000D01*
G75*
G02*
X163025000Y-60675000I-150000J0D01*
G01*
X161275000Y-60675000D01*
G75*
G02*
X161125000Y-60525000I0J150000D01*
G01*
G37*
G36*
G01*
X161125000Y-61795000D02*
X161125000Y-61495000D01*
G75*
G02*
X161275000Y-61345000I150000J0D01*
G01*
X163025000Y-61345000D01*
G75*
G02*
X163175000Y-61495000I0J-150000D01*
G01*
X163175000Y-61795000D01*
G75*
G02*
X163025000Y-61945000I-150000J0D01*
G01*
X161275000Y-61945000D01*
G75*
G02*
X161125000Y-61795000I0J150000D01*
G01*
G37*
G36*
G01*
X161125000Y-63065000D02*
X161125000Y-62765000D01*
G75*
G02*
X161275000Y-62615000I150000J0D01*
G01*
X163025000Y-62615000D01*
G75*
G02*
X163175000Y-62765000I0J-150000D01*
G01*
X163175000Y-63065000D01*
G75*
G02*
X163025000Y-63215000I-150000J0D01*
G01*
X161275000Y-63215000D01*
G75*
G02*
X161125000Y-63065000I0J150000D01*
G01*
G37*
G36*
G01*
X151825000Y-63065000D02*
X151825000Y-62765000D01*
G75*
G02*
X151975000Y-62615000I150000J0D01*
G01*
X153725000Y-62615000D01*
G75*
G02*
X153875000Y-62765000I0J-150000D01*
G01*
X153875000Y-63065000D01*
G75*
G02*
X153725000Y-63215000I-150000J0D01*
G01*
X151975000Y-63215000D01*
G75*
G02*
X151825000Y-63065000I0J150000D01*
G01*
G37*
G36*
G01*
X151825000Y-61795000D02*
X151825000Y-61495000D01*
G75*
G02*
X151975000Y-61345000I150000J0D01*
G01*
X153725000Y-61345000D01*
G75*
G02*
X153875000Y-61495000I0J-150000D01*
G01*
X153875000Y-61795000D01*
G75*
G02*
X153725000Y-61945000I-150000J0D01*
G01*
X151975000Y-61945000D01*
G75*
G02*
X151825000Y-61795000I0J150000D01*
G01*
G37*
G36*
G01*
X151825000Y-60525000D02*
X151825000Y-60225000D01*
G75*
G02*
X151975000Y-60075000I150000J0D01*
G01*
X153725000Y-60075000D01*
G75*
G02*
X153875000Y-60225000I0J-150000D01*
G01*
X153875000Y-60525000D01*
G75*
G02*
X153725000Y-60675000I-150000J0D01*
G01*
X151975000Y-60675000D01*
G75*
G02*
X151825000Y-60525000I0J150000D01*
G01*
G37*
G36*
G01*
X151825000Y-59255000D02*
X151825000Y-58955000D01*
G75*
G02*
X151975000Y-58805000I150000J0D01*
G01*
X153725000Y-58805000D01*
G75*
G02*
X153875000Y-58955000I0J-150000D01*
G01*
X153875000Y-59255000D01*
G75*
G02*
X153725000Y-59405000I-150000J0D01*
G01*
X151975000Y-59405000D01*
G75*
G02*
X151825000Y-59255000I0J150000D01*
G01*
G37*
G36*
G01*
X151825000Y-57985000D02*
X151825000Y-57685000D01*
G75*
G02*
X151975000Y-57535000I150000J0D01*
G01*
X153725000Y-57535000D01*
G75*
G02*
X153875000Y-57685000I0J-150000D01*
G01*
X153875000Y-57985000D01*
G75*
G02*
X153725000Y-58135000I-150000J0D01*
G01*
X151975000Y-58135000D01*
G75*
G02*
X151825000Y-57985000I0J150000D01*
G01*
G37*
G36*
G01*
X151825000Y-56715000D02*
X151825000Y-56415000D01*
G75*
G02*
X151975000Y-56265000I150000J0D01*
G01*
X153725000Y-56265000D01*
G75*
G02*
X153875000Y-56415000I0J-150000D01*
G01*
X153875000Y-56715000D01*
G75*
G02*
X153725000Y-56865000I-150000J0D01*
G01*
X151975000Y-56865000D01*
G75*
G02*
X151825000Y-56715000I0J150000D01*
G01*
G37*
G36*
G01*
X151825000Y-55445000D02*
X151825000Y-55145000D01*
G75*
G02*
X151975000Y-54995000I150000J0D01*
G01*
X153725000Y-54995000D01*
G75*
G02*
X153875000Y-55145000I0J-150000D01*
G01*
X153875000Y-55445000D01*
G75*
G02*
X153725000Y-55595000I-150000J0D01*
G01*
X151975000Y-55595000D01*
G75*
G02*
X151825000Y-55445000I0J150000D01*
G01*
G37*
G36*
G01*
X151825000Y-54175000D02*
X151825000Y-53875000D01*
G75*
G02*
X151975000Y-53725000I150000J0D01*
G01*
X153725000Y-53725000D01*
G75*
G02*
X153875000Y-53875000I0J-150000D01*
G01*
X153875000Y-54175000D01*
G75*
G02*
X153725000Y-54325000I-150000J0D01*
G01*
X151975000Y-54325000D01*
G75*
G02*
X151825000Y-54175000I0J150000D01*
G01*
G37*
G36*
G01*
X151825000Y-52905000D02*
X151825000Y-52605000D01*
G75*
G02*
X151975000Y-52455000I150000J0D01*
G01*
X153725000Y-52455000D01*
G75*
G02*
X153875000Y-52605000I0J-150000D01*
G01*
X153875000Y-52905000D01*
G75*
G02*
X153725000Y-53055000I-150000J0D01*
G01*
X151975000Y-53055000D01*
G75*
G02*
X151825000Y-52905000I0J150000D01*
G01*
G37*
G36*
G01*
X151825000Y-51635000D02*
X151825000Y-51335000D01*
G75*
G02*
X151975000Y-51185000I150000J0D01*
G01*
X153725000Y-51185000D01*
G75*
G02*
X153875000Y-51335000I0J-150000D01*
G01*
X153875000Y-51635000D01*
G75*
G02*
X153725000Y-51785000I-150000J0D01*
G01*
X151975000Y-51785000D01*
G75*
G02*
X151825000Y-51635000I0J150000D01*
G01*
G37*
G36*
G01*
X124325000Y-51635000D02*
X124325000Y-51335000D01*
G75*
G02*
X124475000Y-51185000I150000J0D01*
G01*
X126225000Y-51185000D01*
G75*
G02*
X126375000Y-51335000I0J-150000D01*
G01*
X126375000Y-51635000D01*
G75*
G02*
X126225000Y-51785000I-150000J0D01*
G01*
X124475000Y-51785000D01*
G75*
G02*
X124325000Y-51635000I0J150000D01*
G01*
G37*
G36*
G01*
X124325000Y-52905000D02*
X124325000Y-52605000D01*
G75*
G02*
X124475000Y-52455000I150000J0D01*
G01*
X126225000Y-52455000D01*
G75*
G02*
X126375000Y-52605000I0J-150000D01*
G01*
X126375000Y-52905000D01*
G75*
G02*
X126225000Y-53055000I-150000J0D01*
G01*
X124475000Y-53055000D01*
G75*
G02*
X124325000Y-52905000I0J150000D01*
G01*
G37*
G36*
G01*
X124325000Y-54175000D02*
X124325000Y-53875000D01*
G75*
G02*
X124475000Y-53725000I150000J0D01*
G01*
X126225000Y-53725000D01*
G75*
G02*
X126375000Y-53875000I0J-150000D01*
G01*
X126375000Y-54175000D01*
G75*
G02*
X126225000Y-54325000I-150000J0D01*
G01*
X124475000Y-54325000D01*
G75*
G02*
X124325000Y-54175000I0J150000D01*
G01*
G37*
G36*
G01*
X124325000Y-55445000D02*
X124325000Y-55145000D01*
G75*
G02*
X124475000Y-54995000I150000J0D01*
G01*
X126225000Y-54995000D01*
G75*
G02*
X126375000Y-55145000I0J-150000D01*
G01*
X126375000Y-55445000D01*
G75*
G02*
X126225000Y-55595000I-150000J0D01*
G01*
X124475000Y-55595000D01*
G75*
G02*
X124325000Y-55445000I0J150000D01*
G01*
G37*
G36*
G01*
X124325000Y-56715000D02*
X124325000Y-56415000D01*
G75*
G02*
X124475000Y-56265000I150000J0D01*
G01*
X126225000Y-56265000D01*
G75*
G02*
X126375000Y-56415000I0J-150000D01*
G01*
X126375000Y-56715000D01*
G75*
G02*
X126225000Y-56865000I-150000J0D01*
G01*
X124475000Y-56865000D01*
G75*
G02*
X124325000Y-56715000I0J150000D01*
G01*
G37*
G36*
G01*
X124325000Y-57985000D02*
X124325000Y-57685000D01*
G75*
G02*
X124475000Y-57535000I150000J0D01*
G01*
X126225000Y-57535000D01*
G75*
G02*
X126375000Y-57685000I0J-150000D01*
G01*
X126375000Y-57985000D01*
G75*
G02*
X126225000Y-58135000I-150000J0D01*
G01*
X124475000Y-58135000D01*
G75*
G02*
X124325000Y-57985000I0J150000D01*
G01*
G37*
G36*
G01*
X124325000Y-59255000D02*
X124325000Y-58955000D01*
G75*
G02*
X124475000Y-58805000I150000J0D01*
G01*
X126225000Y-58805000D01*
G75*
G02*
X126375000Y-58955000I0J-150000D01*
G01*
X126375000Y-59255000D01*
G75*
G02*
X126225000Y-59405000I-150000J0D01*
G01*
X124475000Y-59405000D01*
G75*
G02*
X124325000Y-59255000I0J150000D01*
G01*
G37*
G36*
G01*
X124325000Y-60525000D02*
X124325000Y-60225000D01*
G75*
G02*
X124475000Y-60075000I150000J0D01*
G01*
X126225000Y-60075000D01*
G75*
G02*
X126375000Y-60225000I0J-150000D01*
G01*
X126375000Y-60525000D01*
G75*
G02*
X126225000Y-60675000I-150000J0D01*
G01*
X124475000Y-60675000D01*
G75*
G02*
X124325000Y-60525000I0J150000D01*
G01*
G37*
G36*
G01*
X124325000Y-61795000D02*
X124325000Y-61495000D01*
G75*
G02*
X124475000Y-61345000I150000J0D01*
G01*
X126225000Y-61345000D01*
G75*
G02*
X126375000Y-61495000I0J-150000D01*
G01*
X126375000Y-61795000D01*
G75*
G02*
X126225000Y-61945000I-150000J0D01*
G01*
X124475000Y-61945000D01*
G75*
G02*
X124325000Y-61795000I0J150000D01*
G01*
G37*
G36*
G01*
X124325000Y-63065000D02*
X124325000Y-62765000D01*
G75*
G02*
X124475000Y-62615000I150000J0D01*
G01*
X126225000Y-62615000D01*
G75*
G02*
X126375000Y-62765000I0J-150000D01*
G01*
X126375000Y-63065000D01*
G75*
G02*
X126225000Y-63215000I-150000J0D01*
G01*
X124475000Y-63215000D01*
G75*
G02*
X124325000Y-63065000I0J150000D01*
G01*
G37*
G36*
G01*
X133625000Y-63065000D02*
X133625000Y-62765000D01*
G75*
G02*
X133775000Y-62615000I150000J0D01*
G01*
X135525000Y-62615000D01*
G75*
G02*
X135675000Y-62765000I0J-150000D01*
G01*
X135675000Y-63065000D01*
G75*
G02*
X135525000Y-63215000I-150000J0D01*
G01*
X133775000Y-63215000D01*
G75*
G02*
X133625000Y-63065000I0J150000D01*
G01*
G37*
G36*
G01*
X133625000Y-61795000D02*
X133625000Y-61495000D01*
G75*
G02*
X133775000Y-61345000I150000J0D01*
G01*
X135525000Y-61345000D01*
G75*
G02*
X135675000Y-61495000I0J-150000D01*
G01*
X135675000Y-61795000D01*
G75*
G02*
X135525000Y-61945000I-150000J0D01*
G01*
X133775000Y-61945000D01*
G75*
G02*
X133625000Y-61795000I0J150000D01*
G01*
G37*
G36*
G01*
X133625000Y-60525000D02*
X133625000Y-60225000D01*
G75*
G02*
X133775000Y-60075000I150000J0D01*
G01*
X135525000Y-60075000D01*
G75*
G02*
X135675000Y-60225000I0J-150000D01*
G01*
X135675000Y-60525000D01*
G75*
G02*
X135525000Y-60675000I-150000J0D01*
G01*
X133775000Y-60675000D01*
G75*
G02*
X133625000Y-60525000I0J150000D01*
G01*
G37*
G36*
G01*
X133625000Y-59255000D02*
X133625000Y-58955000D01*
G75*
G02*
X133775000Y-58805000I150000J0D01*
G01*
X135525000Y-58805000D01*
G75*
G02*
X135675000Y-58955000I0J-150000D01*
G01*
X135675000Y-59255000D01*
G75*
G02*
X135525000Y-59405000I-150000J0D01*
G01*
X133775000Y-59405000D01*
G75*
G02*
X133625000Y-59255000I0J150000D01*
G01*
G37*
G36*
G01*
X133625000Y-57985000D02*
X133625000Y-57685000D01*
G75*
G02*
X133775000Y-57535000I150000J0D01*
G01*
X135525000Y-57535000D01*
G75*
G02*
X135675000Y-57685000I0J-150000D01*
G01*
X135675000Y-57985000D01*
G75*
G02*
X135525000Y-58135000I-150000J0D01*
G01*
X133775000Y-58135000D01*
G75*
G02*
X133625000Y-57985000I0J150000D01*
G01*
G37*
G36*
G01*
X133625000Y-56715000D02*
X133625000Y-56415000D01*
G75*
G02*
X133775000Y-56265000I150000J0D01*
G01*
X135525000Y-56265000D01*
G75*
G02*
X135675000Y-56415000I0J-150000D01*
G01*
X135675000Y-56715000D01*
G75*
G02*
X135525000Y-56865000I-150000J0D01*
G01*
X133775000Y-56865000D01*
G75*
G02*
X133625000Y-56715000I0J150000D01*
G01*
G37*
G36*
G01*
X133625000Y-55445000D02*
X133625000Y-55145000D01*
G75*
G02*
X133775000Y-54995000I150000J0D01*
G01*
X135525000Y-54995000D01*
G75*
G02*
X135675000Y-55145000I0J-150000D01*
G01*
X135675000Y-55445000D01*
G75*
G02*
X135525000Y-55595000I-150000J0D01*
G01*
X133775000Y-55595000D01*
G75*
G02*
X133625000Y-55445000I0J150000D01*
G01*
G37*
G36*
G01*
X133625000Y-54175000D02*
X133625000Y-53875000D01*
G75*
G02*
X133775000Y-53725000I150000J0D01*
G01*
X135525000Y-53725000D01*
G75*
G02*
X135675000Y-53875000I0J-150000D01*
G01*
X135675000Y-54175000D01*
G75*
G02*
X135525000Y-54325000I-150000J0D01*
G01*
X133775000Y-54325000D01*
G75*
G02*
X133625000Y-54175000I0J150000D01*
G01*
G37*
G36*
G01*
X133625000Y-52905000D02*
X133625000Y-52605000D01*
G75*
G02*
X133775000Y-52455000I150000J0D01*
G01*
X135525000Y-52455000D01*
G75*
G02*
X135675000Y-52605000I0J-150000D01*
G01*
X135675000Y-52905000D01*
G75*
G02*
X135525000Y-53055000I-150000J0D01*
G01*
X133775000Y-53055000D01*
G75*
G02*
X133625000Y-52905000I0J150000D01*
G01*
G37*
G36*
G01*
X133625000Y-51635000D02*
X133625000Y-51335000D01*
G75*
G02*
X133775000Y-51185000I150000J0D01*
G01*
X135525000Y-51185000D01*
G75*
G02*
X135675000Y-51335000I0J-150000D01*
G01*
X135675000Y-51635000D01*
G75*
G02*
X135525000Y-51785000I-150000J0D01*
G01*
X133775000Y-51785000D01*
G75*
G02*
X133625000Y-51635000I0J150000D01*
G01*
G37*
G36*
G01*
X177575000Y-51635000D02*
X177575000Y-51335000D01*
G75*
G02*
X177725000Y-51185000I150000J0D01*
G01*
X179475000Y-51185000D01*
G75*
G02*
X179625000Y-51335000I0J-150000D01*
G01*
X179625000Y-51635000D01*
G75*
G02*
X179475000Y-51785000I-150000J0D01*
G01*
X177725000Y-51785000D01*
G75*
G02*
X177575000Y-51635000I0J150000D01*
G01*
G37*
G36*
G01*
X177575000Y-52905000D02*
X177575000Y-52605000D01*
G75*
G02*
X177725000Y-52455000I150000J0D01*
G01*
X179475000Y-52455000D01*
G75*
G02*
X179625000Y-52605000I0J-150000D01*
G01*
X179625000Y-52905000D01*
G75*
G02*
X179475000Y-53055000I-150000J0D01*
G01*
X177725000Y-53055000D01*
G75*
G02*
X177575000Y-52905000I0J150000D01*
G01*
G37*
G36*
G01*
X177575000Y-54175000D02*
X177575000Y-53875000D01*
G75*
G02*
X177725000Y-53725000I150000J0D01*
G01*
X179475000Y-53725000D01*
G75*
G02*
X179625000Y-53875000I0J-150000D01*
G01*
X179625000Y-54175000D01*
G75*
G02*
X179475000Y-54325000I-150000J0D01*
G01*
X177725000Y-54325000D01*
G75*
G02*
X177575000Y-54175000I0J150000D01*
G01*
G37*
G36*
G01*
X177575000Y-55445000D02*
X177575000Y-55145000D01*
G75*
G02*
X177725000Y-54995000I150000J0D01*
G01*
X179475000Y-54995000D01*
G75*
G02*
X179625000Y-55145000I0J-150000D01*
G01*
X179625000Y-55445000D01*
G75*
G02*
X179475000Y-55595000I-150000J0D01*
G01*
X177725000Y-55595000D01*
G75*
G02*
X177575000Y-55445000I0J150000D01*
G01*
G37*
G36*
G01*
X177575000Y-56715000D02*
X177575000Y-56415000D01*
G75*
G02*
X177725000Y-56265000I150000J0D01*
G01*
X179475000Y-56265000D01*
G75*
G02*
X179625000Y-56415000I0J-150000D01*
G01*
X179625000Y-56715000D01*
G75*
G02*
X179475000Y-56865000I-150000J0D01*
G01*
X177725000Y-56865000D01*
G75*
G02*
X177575000Y-56715000I0J150000D01*
G01*
G37*
G36*
G01*
X177575000Y-57985000D02*
X177575000Y-57685000D01*
G75*
G02*
X177725000Y-57535000I150000J0D01*
G01*
X179475000Y-57535000D01*
G75*
G02*
X179625000Y-57685000I0J-150000D01*
G01*
X179625000Y-57985000D01*
G75*
G02*
X179475000Y-58135000I-150000J0D01*
G01*
X177725000Y-58135000D01*
G75*
G02*
X177575000Y-57985000I0J150000D01*
G01*
G37*
G36*
G01*
X177575000Y-59255000D02*
X177575000Y-58955000D01*
G75*
G02*
X177725000Y-58805000I150000J0D01*
G01*
X179475000Y-58805000D01*
G75*
G02*
X179625000Y-58955000I0J-150000D01*
G01*
X179625000Y-59255000D01*
G75*
G02*
X179475000Y-59405000I-150000J0D01*
G01*
X177725000Y-59405000D01*
G75*
G02*
X177575000Y-59255000I0J150000D01*
G01*
G37*
G36*
G01*
X177575000Y-60525000D02*
X177575000Y-60225000D01*
G75*
G02*
X177725000Y-60075000I150000J0D01*
G01*
X179475000Y-60075000D01*
G75*
G02*
X179625000Y-60225000I0J-150000D01*
G01*
X179625000Y-60525000D01*
G75*
G02*
X179475000Y-60675000I-150000J0D01*
G01*
X177725000Y-60675000D01*
G75*
G02*
X177575000Y-60525000I0J150000D01*
G01*
G37*
G36*
G01*
X177575000Y-61795000D02*
X177575000Y-61495000D01*
G75*
G02*
X177725000Y-61345000I150000J0D01*
G01*
X179475000Y-61345000D01*
G75*
G02*
X179625000Y-61495000I0J-150000D01*
G01*
X179625000Y-61795000D01*
G75*
G02*
X179475000Y-61945000I-150000J0D01*
G01*
X177725000Y-61945000D01*
G75*
G02*
X177575000Y-61795000I0J150000D01*
G01*
G37*
G36*
G01*
X177575000Y-63065000D02*
X177575000Y-62765000D01*
G75*
G02*
X177725000Y-62615000I150000J0D01*
G01*
X179475000Y-62615000D01*
G75*
G02*
X179625000Y-62765000I0J-150000D01*
G01*
X179625000Y-63065000D01*
G75*
G02*
X179475000Y-63215000I-150000J0D01*
G01*
X177725000Y-63215000D01*
G75*
G02*
X177575000Y-63065000I0J150000D01*
G01*
G37*
G36*
G01*
X186875000Y-63065000D02*
X186875000Y-62765000D01*
G75*
G02*
X187025000Y-62615000I150000J0D01*
G01*
X188775000Y-62615000D01*
G75*
G02*
X188925000Y-62765000I0J-150000D01*
G01*
X188925000Y-63065000D01*
G75*
G02*
X188775000Y-63215000I-150000J0D01*
G01*
X187025000Y-63215000D01*
G75*
G02*
X186875000Y-63065000I0J150000D01*
G01*
G37*
G36*
G01*
X186875000Y-61795000D02*
X186875000Y-61495000D01*
G75*
G02*
X187025000Y-61345000I150000J0D01*
G01*
X188775000Y-61345000D01*
G75*
G02*
X188925000Y-61495000I0J-150000D01*
G01*
X188925000Y-61795000D01*
G75*
G02*
X188775000Y-61945000I-150000J0D01*
G01*
X187025000Y-61945000D01*
G75*
G02*
X186875000Y-61795000I0J150000D01*
G01*
G37*
G36*
G01*
X186875000Y-60525000D02*
X186875000Y-60225000D01*
G75*
G02*
X187025000Y-60075000I150000J0D01*
G01*
X188775000Y-60075000D01*
G75*
G02*
X188925000Y-60225000I0J-150000D01*
G01*
X188925000Y-60525000D01*
G75*
G02*
X188775000Y-60675000I-150000J0D01*
G01*
X187025000Y-60675000D01*
G75*
G02*
X186875000Y-60525000I0J150000D01*
G01*
G37*
G36*
G01*
X186875000Y-59255000D02*
X186875000Y-58955000D01*
G75*
G02*
X187025000Y-58805000I150000J0D01*
G01*
X188775000Y-58805000D01*
G75*
G02*
X188925000Y-58955000I0J-150000D01*
G01*
X188925000Y-59255000D01*
G75*
G02*
X188775000Y-59405000I-150000J0D01*
G01*
X187025000Y-59405000D01*
G75*
G02*
X186875000Y-59255000I0J150000D01*
G01*
G37*
G36*
G01*
X186875000Y-57985000D02*
X186875000Y-57685000D01*
G75*
G02*
X187025000Y-57535000I150000J0D01*
G01*
X188775000Y-57535000D01*
G75*
G02*
X188925000Y-57685000I0J-150000D01*
G01*
X188925000Y-57985000D01*
G75*
G02*
X188775000Y-58135000I-150000J0D01*
G01*
X187025000Y-58135000D01*
G75*
G02*
X186875000Y-57985000I0J150000D01*
G01*
G37*
G36*
G01*
X186875000Y-56715000D02*
X186875000Y-56415000D01*
G75*
G02*
X187025000Y-56265000I150000J0D01*
G01*
X188775000Y-56265000D01*
G75*
G02*
X188925000Y-56415000I0J-150000D01*
G01*
X188925000Y-56715000D01*
G75*
G02*
X188775000Y-56865000I-150000J0D01*
G01*
X187025000Y-56865000D01*
G75*
G02*
X186875000Y-56715000I0J150000D01*
G01*
G37*
G36*
G01*
X186875000Y-55445000D02*
X186875000Y-55145000D01*
G75*
G02*
X187025000Y-54995000I150000J0D01*
G01*
X188775000Y-54995000D01*
G75*
G02*
X188925000Y-55145000I0J-150000D01*
G01*
X188925000Y-55445000D01*
G75*
G02*
X188775000Y-55595000I-150000J0D01*
G01*
X187025000Y-55595000D01*
G75*
G02*
X186875000Y-55445000I0J150000D01*
G01*
G37*
G36*
G01*
X186875000Y-54175000D02*
X186875000Y-53875000D01*
G75*
G02*
X187025000Y-53725000I150000J0D01*
G01*
X188775000Y-53725000D01*
G75*
G02*
X188925000Y-53875000I0J-150000D01*
G01*
X188925000Y-54175000D01*
G75*
G02*
X188775000Y-54325000I-150000J0D01*
G01*
X187025000Y-54325000D01*
G75*
G02*
X186875000Y-54175000I0J150000D01*
G01*
G37*
G36*
G01*
X186875000Y-52905000D02*
X186875000Y-52605000D01*
G75*
G02*
X187025000Y-52455000I150000J0D01*
G01*
X188775000Y-52455000D01*
G75*
G02*
X188925000Y-52605000I0J-150000D01*
G01*
X188925000Y-52905000D01*
G75*
G02*
X188775000Y-53055000I-150000J0D01*
G01*
X187025000Y-53055000D01*
G75*
G02*
X186875000Y-52905000I0J150000D01*
G01*
G37*
G36*
G01*
X186875000Y-51635000D02*
X186875000Y-51335000D01*
G75*
G02*
X187025000Y-51185000I150000J0D01*
G01*
X188775000Y-51185000D01*
G75*
G02*
X188925000Y-51335000I0J-150000D01*
G01*
X188925000Y-51635000D01*
G75*
G02*
X188775000Y-51785000I-150000J0D01*
G01*
X187025000Y-51785000D01*
G75*
G02*
X186875000Y-51635000I0J150000D01*
G01*
G37*
G36*
G01*
X196275000Y-55340000D02*
X196275000Y-55040000D01*
G75*
G02*
X196425000Y-54890000I150000J0D01*
G01*
X198075000Y-54890000D01*
G75*
G02*
X198225000Y-55040000I0J-150000D01*
G01*
X198225000Y-55340000D01*
G75*
G02*
X198075000Y-55490000I-150000J0D01*
G01*
X196425000Y-55490000D01*
G75*
G02*
X196275000Y-55340000I0J150000D01*
G01*
G37*
G36*
G01*
X196275000Y-56610000D02*
X196275000Y-56310000D01*
G75*
G02*
X196425000Y-56160000I150000J0D01*
G01*
X198075000Y-56160000D01*
G75*
G02*
X198225000Y-56310000I0J-150000D01*
G01*
X198225000Y-56610000D01*
G75*
G02*
X198075000Y-56760000I-150000J0D01*
G01*
X196425000Y-56760000D01*
G75*
G02*
X196275000Y-56610000I0J150000D01*
G01*
G37*
G36*
G01*
X196275000Y-57880000D02*
X196275000Y-57580000D01*
G75*
G02*
X196425000Y-57430000I150000J0D01*
G01*
X198075000Y-57430000D01*
G75*
G02*
X198225000Y-57580000I0J-150000D01*
G01*
X198225000Y-57880000D01*
G75*
G02*
X198075000Y-58030000I-150000J0D01*
G01*
X196425000Y-58030000D01*
G75*
G02*
X196275000Y-57880000I0J150000D01*
G01*
G37*
G36*
G01*
X196275000Y-59150000D02*
X196275000Y-58850000D01*
G75*
G02*
X196425000Y-58700000I150000J0D01*
G01*
X198075000Y-58700000D01*
G75*
G02*
X198225000Y-58850000I0J-150000D01*
G01*
X198225000Y-59150000D01*
G75*
G02*
X198075000Y-59300000I-150000J0D01*
G01*
X196425000Y-59300000D01*
G75*
G02*
X196275000Y-59150000I0J150000D01*
G01*
G37*
G36*
G01*
X196275000Y-60420000D02*
X196275000Y-60120000D01*
G75*
G02*
X196425000Y-59970000I150000J0D01*
G01*
X198075000Y-59970000D01*
G75*
G02*
X198225000Y-60120000I0J-150000D01*
G01*
X198225000Y-60420000D01*
G75*
G02*
X198075000Y-60570000I-150000J0D01*
G01*
X196425000Y-60570000D01*
G75*
G02*
X196275000Y-60420000I0J150000D01*
G01*
G37*
G36*
G01*
X196275000Y-61690000D02*
X196275000Y-61390000D01*
G75*
G02*
X196425000Y-61240000I150000J0D01*
G01*
X198075000Y-61240000D01*
G75*
G02*
X198225000Y-61390000I0J-150000D01*
G01*
X198225000Y-61690000D01*
G75*
G02*
X198075000Y-61840000I-150000J0D01*
G01*
X196425000Y-61840000D01*
G75*
G02*
X196275000Y-61690000I0J150000D01*
G01*
G37*
G36*
G01*
X196275000Y-62960000D02*
X196275000Y-62660000D01*
G75*
G02*
X196425000Y-62510000I150000J0D01*
G01*
X198075000Y-62510000D01*
G75*
G02*
X198225000Y-62660000I0J-150000D01*
G01*
X198225000Y-62960000D01*
G75*
G02*
X198075000Y-63110000I-150000J0D01*
G01*
X196425000Y-63110000D01*
G75*
G02*
X196275000Y-62960000I0J150000D01*
G01*
G37*
G36*
G01*
X201225000Y-62960000D02*
X201225000Y-62660000D01*
G75*
G02*
X201375000Y-62510000I150000J0D01*
G01*
X203025000Y-62510000D01*
G75*
G02*
X203175000Y-62660000I0J-150000D01*
G01*
X203175000Y-62960000D01*
G75*
G02*
X203025000Y-63110000I-150000J0D01*
G01*
X201375000Y-63110000D01*
G75*
G02*
X201225000Y-62960000I0J150000D01*
G01*
G37*
G36*
G01*
X201225000Y-61690000D02*
X201225000Y-61390000D01*
G75*
G02*
X201375000Y-61240000I150000J0D01*
G01*
X203025000Y-61240000D01*
G75*
G02*
X203175000Y-61390000I0J-150000D01*
G01*
X203175000Y-61690000D01*
G75*
G02*
X203025000Y-61840000I-150000J0D01*
G01*
X201375000Y-61840000D01*
G75*
G02*
X201225000Y-61690000I0J150000D01*
G01*
G37*
G36*
G01*
X201225000Y-60420000D02*
X201225000Y-60120000D01*
G75*
G02*
X201375000Y-59970000I150000J0D01*
G01*
X203025000Y-59970000D01*
G75*
G02*
X203175000Y-60120000I0J-150000D01*
G01*
X203175000Y-60420000D01*
G75*
G02*
X203025000Y-60570000I-150000J0D01*
G01*
X201375000Y-60570000D01*
G75*
G02*
X201225000Y-60420000I0J150000D01*
G01*
G37*
G36*
G01*
X201225000Y-59150000D02*
X201225000Y-58850000D01*
G75*
G02*
X201375000Y-58700000I150000J0D01*
G01*
X203025000Y-58700000D01*
G75*
G02*
X203175000Y-58850000I0J-150000D01*
G01*
X203175000Y-59150000D01*
G75*
G02*
X203025000Y-59300000I-150000J0D01*
G01*
X201375000Y-59300000D01*
G75*
G02*
X201225000Y-59150000I0J150000D01*
G01*
G37*
G36*
G01*
X201225000Y-57880000D02*
X201225000Y-57580000D01*
G75*
G02*
X201375000Y-57430000I150000J0D01*
G01*
X203025000Y-57430000D01*
G75*
G02*
X203175000Y-57580000I0J-150000D01*
G01*
X203175000Y-57880000D01*
G75*
G02*
X203025000Y-58030000I-150000J0D01*
G01*
X201375000Y-58030000D01*
G75*
G02*
X201225000Y-57880000I0J150000D01*
G01*
G37*
G36*
G01*
X201225000Y-56610000D02*
X201225000Y-56310000D01*
G75*
G02*
X201375000Y-56160000I150000J0D01*
G01*
X203025000Y-56160000D01*
G75*
G02*
X203175000Y-56310000I0J-150000D01*
G01*
X203175000Y-56610000D01*
G75*
G02*
X203025000Y-56760000I-150000J0D01*
G01*
X201375000Y-56760000D01*
G75*
G02*
X201225000Y-56610000I0J150000D01*
G01*
G37*
G36*
G01*
X201225000Y-55340000D02*
X201225000Y-55040000D01*
G75*
G02*
X201375000Y-54890000I150000J0D01*
G01*
X203025000Y-54890000D01*
G75*
G02*
X203175000Y-55040000I0J-150000D01*
G01*
X203175000Y-55340000D01*
G75*
G02*
X203025000Y-55490000I-150000J0D01*
G01*
X201375000Y-55490000D01*
G75*
G02*
X201225000Y-55340000I0J150000D01*
G01*
G37*
G36*
G01*
X206300000Y-62750000D02*
X206300000Y-61650000D01*
G75*
G02*
X206550000Y-61400000I250000J0D01*
G01*
X208650000Y-61400000D01*
G75*
G02*
X208900000Y-61650000I0J-250000D01*
G01*
X208900000Y-62750000D01*
G75*
G02*
X208650000Y-63000000I-250000J0D01*
G01*
X206550000Y-63000000D01*
G75*
G02*
X206300000Y-62750000I0J250000D01*
G01*
G37*
G36*
G01*
X209900000Y-62750000D02*
X209900000Y-61650000D01*
G75*
G02*
X210150000Y-61400000I250000J0D01*
G01*
X212250000Y-61400000D01*
G75*
G02*
X212500000Y-61650000I0J-250000D01*
G01*
X212500000Y-62750000D01*
G75*
G02*
X212250000Y-63000000I-250000J0D01*
G01*
X210150000Y-63000000D01*
G75*
G02*
X209900000Y-62750000I0J250000D01*
G01*
G37*
G36*
G01*
X120500000Y-64650000D02*
X120500000Y-65750000D01*
G75*
G02*
X120250000Y-66000000I-250000J0D01*
G01*
X118150000Y-66000000D01*
G75*
G02*
X117900000Y-65750000I0J250000D01*
G01*
X117900000Y-64650000D01*
G75*
G02*
X118150000Y-64400000I250000J0D01*
G01*
X120250000Y-64400000D01*
G75*
G02*
X120500000Y-64650000I0J-250000D01*
G01*
G37*
G36*
G01*
X124100000Y-64650000D02*
X124100000Y-65750000D01*
G75*
G02*
X123850000Y-66000000I-250000J0D01*
G01*
X121750000Y-66000000D01*
G75*
G02*
X121500000Y-65750000I0J250000D01*
G01*
X121500000Y-64650000D01*
G75*
G02*
X121750000Y-64400000I250000J0D01*
G01*
X123850000Y-64400000D01*
G75*
G02*
X124100000Y-64650000I0J-250000D01*
G01*
G37*
M02*
