G04 #@! TF.GenerationSoftware,KiCad,Pcbnew,(5.1.8)-1*
G04 #@! TF.CreationDate,2021-01-24T11:35:45-08:00*
G04 #@! TF.ProjectId,AddressRegisterModule,41646472-6573-4735-9265-676973746572,1.0*
G04 #@! TF.SameCoordinates,Original*
G04 #@! TF.FileFunction,Other,Fab,Top*
%FSLAX46Y46*%
G04 Gerber Fmt 4.6, Leading zero omitted, Abs format (unit mm)*
G04 Created by KiCad (PCBNEW (5.1.8)-1) date 2021-01-24 11:35:45*
%MOMM*%
%LPD*%
G01*
G04 APERTURE LIST*
%ADD10C,0.150000*%
%ADD11C,0.100000*%
%ADD12C,0.120000*%
%ADD13C,0.060000*%
G04 APERTURE END LIST*
D10*
X262019047Y-146928571D02*
X262161904Y-146976190D01*
X262209523Y-147023809D01*
X262257142Y-147119047D01*
X262257142Y-147261904D01*
X262209523Y-147357142D01*
X262161904Y-147404761D01*
X262066666Y-147452380D01*
X261685714Y-147452380D01*
X261685714Y-146452380D01*
X262019047Y-146452380D01*
X262114285Y-146500000D01*
X262161904Y-146547619D01*
X262209523Y-146642857D01*
X262209523Y-146738095D01*
X262161904Y-146833333D01*
X262114285Y-146880952D01*
X262019047Y-146928571D01*
X261685714Y-146928571D01*
X263066666Y-147404761D02*
X262971428Y-147452380D01*
X262780952Y-147452380D01*
X262685714Y-147404761D01*
X262638095Y-147309523D01*
X262638095Y-146928571D01*
X262685714Y-146833333D01*
X262780952Y-146785714D01*
X262971428Y-146785714D01*
X263066666Y-146833333D01*
X263114285Y-146928571D01*
X263114285Y-147023809D01*
X262638095Y-147119047D01*
X263447619Y-146785714D02*
X263685714Y-147452380D01*
X263923809Y-146785714D01*
X264685714Y-147404761D02*
X264590476Y-147452380D01*
X264400000Y-147452380D01*
X264304761Y-147404761D01*
X264257142Y-147309523D01*
X264257142Y-146928571D01*
X264304761Y-146833333D01*
X264400000Y-146785714D01*
X264590476Y-146785714D01*
X264685714Y-146833333D01*
X264733333Y-146928571D01*
X264733333Y-147023809D01*
X264257142Y-147119047D01*
X265304761Y-147452380D02*
X265209523Y-147404761D01*
X265161904Y-147309523D01*
X265161904Y-146452380D01*
X266066666Y-147404761D02*
X265971428Y-147452380D01*
X265780952Y-147452380D01*
X265685714Y-147404761D01*
X265638095Y-147309523D01*
X265638095Y-146928571D01*
X265685714Y-146833333D01*
X265780952Y-146785714D01*
X265971428Y-146785714D01*
X266066666Y-146833333D01*
X266114285Y-146928571D01*
X266114285Y-147023809D01*
X265638095Y-147119047D01*
X266971428Y-147452380D02*
X266971428Y-146452380D01*
X266971428Y-147404761D02*
X266876190Y-147452380D01*
X266685714Y-147452380D01*
X266590476Y-147404761D01*
X266542857Y-147357142D01*
X266495238Y-147261904D01*
X266495238Y-146976190D01*
X266542857Y-146880952D01*
X266590476Y-146833333D01*
X266685714Y-146785714D01*
X266876190Y-146785714D01*
X266971428Y-146833333D01*
X268542857Y-146928571D02*
X268209523Y-146928571D01*
X268209523Y-147452380D02*
X268209523Y-146452380D01*
X268685714Y-146452380D01*
X269066666Y-147452380D02*
X269066666Y-146785714D01*
X269066666Y-146452380D02*
X269019047Y-146500000D01*
X269066666Y-146547619D01*
X269114285Y-146500000D01*
X269066666Y-146452380D01*
X269066666Y-146547619D01*
X269542857Y-146785714D02*
X269542857Y-147452380D01*
X269542857Y-146880952D02*
X269590476Y-146833333D01*
X269685714Y-146785714D01*
X269828571Y-146785714D01*
X269923809Y-146833333D01*
X269971428Y-146928571D01*
X269971428Y-147452380D01*
X270876190Y-146785714D02*
X270876190Y-147595238D01*
X270828571Y-147690476D01*
X270780952Y-147738095D01*
X270685714Y-147785714D01*
X270542857Y-147785714D01*
X270447619Y-147738095D01*
X270876190Y-147404761D02*
X270780952Y-147452380D01*
X270590476Y-147452380D01*
X270495238Y-147404761D01*
X270447619Y-147357142D01*
X270400000Y-147261904D01*
X270400000Y-146976190D01*
X270447619Y-146880952D01*
X270495238Y-146833333D01*
X270590476Y-146785714D01*
X270780952Y-146785714D01*
X270876190Y-146833333D01*
X271733333Y-147404761D02*
X271638095Y-147452380D01*
X271447619Y-147452380D01*
X271352380Y-147404761D01*
X271304761Y-147309523D01*
X271304761Y-146928571D01*
X271352380Y-146833333D01*
X271447619Y-146785714D01*
X271638095Y-146785714D01*
X271733333Y-146833333D01*
X271780952Y-146928571D01*
X271780952Y-147023809D01*
X271304761Y-147119047D01*
X272209523Y-147452380D02*
X272209523Y-146785714D01*
X272209523Y-146976190D02*
X272257142Y-146880952D01*
X272304761Y-146833333D01*
X272400000Y-146785714D01*
X272495238Y-146785714D01*
X272780952Y-147404761D02*
X272876190Y-147452380D01*
X273066666Y-147452380D01*
X273161904Y-147404761D01*
X273209523Y-147309523D01*
X273209523Y-147261904D01*
X273161904Y-147166666D01*
X273066666Y-147119047D01*
X272923809Y-147119047D01*
X272828571Y-147071428D01*
X272780952Y-146976190D01*
X272780952Y-146928571D01*
X272828571Y-146833333D01*
X272923809Y-146785714D01*
X273066666Y-146785714D01*
X273161904Y-146833333D01*
X274685714Y-147833333D02*
X274638095Y-147785714D01*
X274542857Y-147642857D01*
X274495238Y-147547619D01*
X274447619Y-147404761D01*
X274400000Y-147166666D01*
X274400000Y-146976190D01*
X274447619Y-146738095D01*
X274495238Y-146595238D01*
X274542857Y-146500000D01*
X274638095Y-146357142D01*
X274685714Y-146309523D01*
X275495238Y-147404761D02*
X275400000Y-147452380D01*
X275209523Y-147452380D01*
X275114285Y-147404761D01*
X275066666Y-147357142D01*
X275019047Y-147261904D01*
X275019047Y-146976190D01*
X275066666Y-146880952D01*
X275114285Y-146833333D01*
X275209523Y-146785714D01*
X275400000Y-146785714D01*
X275495238Y-146833333D01*
X275923809Y-147452380D02*
X275923809Y-146452380D01*
X276352380Y-147452380D02*
X276352380Y-146928571D01*
X276304761Y-146833333D01*
X276209523Y-146785714D01*
X276066666Y-146785714D01*
X275971428Y-146833333D01*
X275923809Y-146880952D01*
X277257142Y-147452380D02*
X277257142Y-146928571D01*
X277209523Y-146833333D01*
X277114285Y-146785714D01*
X276923809Y-146785714D01*
X276828571Y-146833333D01*
X277257142Y-147404761D02*
X277161904Y-147452380D01*
X276923809Y-147452380D01*
X276828571Y-147404761D01*
X276780952Y-147309523D01*
X276780952Y-147214285D01*
X276828571Y-147119047D01*
X276923809Y-147071428D01*
X277161904Y-147071428D01*
X277257142Y-147023809D01*
X277733333Y-147452380D02*
X277733333Y-146785714D01*
X277733333Y-146880952D02*
X277780952Y-146833333D01*
X277876190Y-146785714D01*
X278019047Y-146785714D01*
X278114285Y-146833333D01*
X278161904Y-146928571D01*
X278161904Y-147452380D01*
X278161904Y-146928571D02*
X278209523Y-146833333D01*
X278304761Y-146785714D01*
X278447619Y-146785714D01*
X278542857Y-146833333D01*
X278590476Y-146928571D01*
X278590476Y-147452380D01*
X278923809Y-146785714D02*
X279304761Y-146785714D01*
X279066666Y-147452380D02*
X279066666Y-146595238D01*
X279114285Y-146500000D01*
X279209523Y-146452380D01*
X279304761Y-146452380D01*
X280019047Y-147404761D02*
X279923809Y-147452380D01*
X279733333Y-147452380D01*
X279638095Y-147404761D01*
X279590476Y-147309523D01*
X279590476Y-146928571D01*
X279638095Y-146833333D01*
X279733333Y-146785714D01*
X279923809Y-146785714D01*
X280019047Y-146833333D01*
X280066666Y-146928571D01*
X280066666Y-147023809D01*
X279590476Y-147119047D01*
X280495238Y-147452380D02*
X280495238Y-146785714D01*
X280495238Y-146976190D02*
X280542857Y-146880952D01*
X280590476Y-146833333D01*
X280685714Y-146785714D01*
X280780952Y-146785714D01*
X281066666Y-147404761D02*
X281161904Y-147452380D01*
X281352380Y-147452380D01*
X281447619Y-147404761D01*
X281495238Y-147309523D01*
X281495238Y-147261904D01*
X281447619Y-147166666D01*
X281352380Y-147119047D01*
X281209523Y-147119047D01*
X281114285Y-147071428D01*
X281066666Y-146976190D01*
X281066666Y-146928571D01*
X281114285Y-146833333D01*
X281209523Y-146785714D01*
X281352380Y-146785714D01*
X281447619Y-146833333D01*
X281828571Y-147833333D02*
X281876190Y-147785714D01*
X281971428Y-147642857D01*
X282019047Y-147547619D01*
X282066666Y-147404761D01*
X282114285Y-147166666D01*
X282114285Y-146976190D01*
X282066666Y-146738095D01*
X282019047Y-146595238D01*
X281971428Y-146500000D01*
X281876190Y-146357142D01*
X281828571Y-146309523D01*
D11*
X128250000Y-87100000D02*
X129250000Y-86100000D01*
X128250000Y-98900000D02*
X128250000Y-87100000D01*
X135750000Y-98900000D02*
X128250000Y-98900000D01*
X135750000Y-86100000D02*
X135750000Y-98900000D01*
X129250000Y-86100000D02*
X135750000Y-86100000D01*
X199250000Y-67100000D02*
X205750000Y-67100000D01*
X205750000Y-67100000D02*
X205750000Y-79900000D01*
X205750000Y-79900000D02*
X198250000Y-79900000D01*
X198250000Y-79900000D02*
X198250000Y-68100000D01*
X198250000Y-68100000D02*
X199250000Y-67100000D01*
X154050000Y-68025000D02*
X155025000Y-67050000D01*
X154050000Y-76950000D02*
X154050000Y-68025000D01*
X157950000Y-76950000D02*
X154050000Y-76950000D01*
X157950000Y-67050000D02*
X157950000Y-76950000D01*
X155025000Y-67050000D02*
X157950000Y-67050000D01*
X129000000Y-45600000D02*
X130600000Y-45600000D01*
X129000000Y-42400000D02*
X129000000Y-45600000D01*
X130200000Y-42400000D02*
X129000000Y-42400000D01*
X130600000Y-42800000D02*
X130200000Y-42400000D01*
X130600000Y-45600000D02*
X130600000Y-42800000D01*
X179800000Y-84200000D02*
X181400000Y-84200000D01*
X179800000Y-85000000D02*
X179800000Y-84200000D01*
X181400000Y-85000000D02*
X179800000Y-85000000D01*
X181400000Y-84200000D02*
X181400000Y-85000000D01*
X184400000Y-67200000D02*
X184400000Y-68000000D01*
X184400000Y-68000000D02*
X182800000Y-68000000D01*
X182800000Y-68000000D02*
X182800000Y-67200000D01*
X182800000Y-67200000D02*
X184400000Y-67200000D01*
X160900000Y-86200000D02*
X162500000Y-86200000D01*
X160900000Y-87000000D02*
X160900000Y-86200000D01*
X162500000Y-87000000D02*
X160900000Y-87000000D01*
X162500000Y-86200000D02*
X162500000Y-87000000D01*
X162600000Y-67200000D02*
X162600000Y-68000000D01*
X162600000Y-68000000D02*
X161000000Y-68000000D01*
X161000000Y-68000000D02*
X161000000Y-67200000D01*
X161000000Y-67200000D02*
X162600000Y-67200000D01*
X209200000Y-67400000D02*
X210800000Y-67400000D01*
X209200000Y-68200000D02*
X209200000Y-67400000D01*
X210800000Y-68200000D02*
X209200000Y-68200000D01*
X210800000Y-67400000D02*
X210800000Y-68200000D01*
X209200000Y-86400000D02*
X210800000Y-86400000D01*
X209200000Y-87200000D02*
X209200000Y-86400000D01*
X210800000Y-87200000D02*
X209200000Y-87200000D01*
X210800000Y-86400000D02*
X210800000Y-87200000D01*
X140800000Y-86400000D02*
X140800000Y-87200000D01*
X140800000Y-87200000D02*
X139200000Y-87200000D01*
X139200000Y-87200000D02*
X139200000Y-86400000D01*
X139200000Y-86400000D02*
X140800000Y-86400000D01*
X139000000Y-67400000D02*
X140600000Y-67400000D01*
X139000000Y-68200000D02*
X139000000Y-67400000D01*
X140600000Y-68200000D02*
X139000000Y-68200000D01*
X140600000Y-67400000D02*
X140600000Y-68200000D01*
X166200000Y-51025000D02*
X166200000Y-51825000D01*
X166200000Y-51825000D02*
X164600000Y-51825000D01*
X164600000Y-51825000D02*
X164600000Y-51025000D01*
X164600000Y-51025000D02*
X166200000Y-51025000D01*
X138800000Y-51000000D02*
X138800000Y-51800000D01*
X138800000Y-51800000D02*
X137200000Y-51800000D01*
X137200000Y-51800000D02*
X137200000Y-51000000D01*
X137200000Y-51000000D02*
X138800000Y-51000000D01*
X192000000Y-51000000D02*
X192000000Y-51800000D01*
X192000000Y-51800000D02*
X190400000Y-51800000D01*
X190400000Y-51800000D02*
X190400000Y-51000000D01*
X190400000Y-51000000D02*
X192000000Y-51000000D01*
X204600000Y-54800000D02*
X206200000Y-54800000D01*
X204600000Y-55600000D02*
X204600000Y-54800000D01*
X206200000Y-55600000D02*
X204600000Y-55600000D01*
X206200000Y-54800000D02*
X206200000Y-55600000D01*
X175000000Y-45600000D02*
X175000000Y-42800000D01*
X175000000Y-42800000D02*
X174600000Y-42400000D01*
X174600000Y-42400000D02*
X173400000Y-42400000D01*
X173400000Y-42400000D02*
X173400000Y-45600000D01*
X173400000Y-45600000D02*
X175000000Y-45600000D01*
X169800000Y-45600000D02*
X171400000Y-45600000D01*
X169800000Y-42400000D02*
X169800000Y-45600000D01*
X171000000Y-42400000D02*
X169800000Y-42400000D01*
X171400000Y-42800000D02*
X171000000Y-42400000D01*
X171400000Y-45600000D02*
X171400000Y-42800000D01*
X167800000Y-45600000D02*
X167800000Y-42800000D01*
X167800000Y-42800000D02*
X167400000Y-42400000D01*
X167400000Y-42400000D02*
X166200000Y-42400000D01*
X166200000Y-42400000D02*
X166200000Y-45600000D01*
X166200000Y-45600000D02*
X167800000Y-45600000D01*
X162600000Y-45600000D02*
X164200000Y-45600000D01*
X162600000Y-42400000D02*
X162600000Y-45600000D01*
X163800000Y-42400000D02*
X162600000Y-42400000D01*
X164200000Y-42800000D02*
X163800000Y-42400000D01*
X164200000Y-45600000D02*
X164200000Y-42800000D01*
X160600000Y-45600000D02*
X160600000Y-42800000D01*
X160600000Y-42800000D02*
X160200000Y-42400000D01*
X160200000Y-42400000D02*
X159000000Y-42400000D01*
X159000000Y-42400000D02*
X159000000Y-45600000D01*
X159000000Y-45600000D02*
X160600000Y-45600000D01*
X155400000Y-45600000D02*
X157000000Y-45600000D01*
X155400000Y-42400000D02*
X155400000Y-45600000D01*
X156600000Y-42400000D02*
X155400000Y-42400000D01*
X157000000Y-42800000D02*
X156600000Y-42400000D01*
X157000000Y-45600000D02*
X157000000Y-42800000D01*
X153400000Y-45600000D02*
X153400000Y-42800000D01*
X153400000Y-42800000D02*
X153000000Y-42400000D01*
X153000000Y-42400000D02*
X151800000Y-42400000D01*
X151800000Y-42400000D02*
X151800000Y-45600000D01*
X151800000Y-45600000D02*
X153400000Y-45600000D01*
X148200000Y-45600000D02*
X149800000Y-45600000D01*
X148200000Y-42400000D02*
X148200000Y-45600000D01*
X149400000Y-42400000D02*
X148200000Y-42400000D01*
X149800000Y-42800000D02*
X149400000Y-42400000D01*
X149800000Y-45600000D02*
X149800000Y-42800000D01*
X145000000Y-45600000D02*
X145000000Y-42800000D01*
X145000000Y-42800000D02*
X144600000Y-42400000D01*
X144600000Y-42400000D02*
X143400000Y-42400000D01*
X143400000Y-42400000D02*
X143400000Y-45600000D01*
X143400000Y-45600000D02*
X145000000Y-45600000D01*
X139800000Y-45600000D02*
X141400000Y-45600000D01*
X139800000Y-42400000D02*
X139800000Y-45600000D01*
X141000000Y-42400000D02*
X139800000Y-42400000D01*
X141400000Y-42800000D02*
X141000000Y-42400000D01*
X141400000Y-45600000D02*
X141400000Y-42800000D01*
X137800000Y-45600000D02*
X137800000Y-42800000D01*
X137800000Y-42800000D02*
X137400000Y-42400000D01*
X137400000Y-42400000D02*
X136200000Y-42400000D01*
X136200000Y-42400000D02*
X136200000Y-45600000D01*
X136200000Y-45600000D02*
X137800000Y-45600000D01*
X134200000Y-45600000D02*
X134200000Y-42800000D01*
X134200000Y-42800000D02*
X133800000Y-42400000D01*
X133800000Y-42400000D02*
X132600000Y-42400000D01*
X132600000Y-42400000D02*
X132600000Y-45600000D01*
X132600000Y-45600000D02*
X134200000Y-45600000D01*
X125400000Y-45600000D02*
X127000000Y-45600000D01*
X125400000Y-42400000D02*
X125400000Y-45600000D01*
X126600000Y-42400000D02*
X125400000Y-42400000D01*
X127000000Y-42800000D02*
X126600000Y-42400000D01*
X127000000Y-45600000D02*
X127000000Y-42800000D01*
X123400000Y-45600000D02*
X123400000Y-42800000D01*
X123400000Y-42800000D02*
X123000000Y-42400000D01*
X123000000Y-42400000D02*
X121800000Y-42400000D01*
X121800000Y-42400000D02*
X121800000Y-45600000D01*
X121800000Y-45600000D02*
X123400000Y-45600000D01*
X118200000Y-45600000D02*
X119800000Y-45600000D01*
X118200000Y-42400000D02*
X118200000Y-45600000D01*
X119400000Y-42400000D02*
X118200000Y-42400000D01*
X119800000Y-42800000D02*
X119400000Y-42400000D01*
X119800000Y-45600000D02*
X119800000Y-42800000D01*
X206200000Y-45600000D02*
X206200000Y-42800000D01*
X206200000Y-42800000D02*
X205800000Y-42400000D01*
X205800000Y-42400000D02*
X204600000Y-42400000D01*
X204600000Y-42400000D02*
X204600000Y-45600000D01*
X204600000Y-45600000D02*
X206200000Y-45600000D01*
X201000000Y-45600000D02*
X202600000Y-45600000D01*
X201000000Y-42400000D02*
X201000000Y-45600000D01*
X202200000Y-42400000D02*
X201000000Y-42400000D01*
X202600000Y-42800000D02*
X202200000Y-42400000D01*
X202600000Y-45600000D02*
X202600000Y-42800000D01*
X199000000Y-45600000D02*
X199000000Y-42800000D01*
X199000000Y-42800000D02*
X198600000Y-42400000D01*
X198600000Y-42400000D02*
X197400000Y-42400000D01*
X197400000Y-42400000D02*
X197400000Y-45600000D01*
X197400000Y-45600000D02*
X199000000Y-45600000D01*
X193800000Y-45600000D02*
X195400000Y-45600000D01*
X193800000Y-42400000D02*
X193800000Y-45600000D01*
X195000000Y-42400000D02*
X193800000Y-42400000D01*
X195400000Y-42800000D02*
X195000000Y-42400000D01*
X195400000Y-45600000D02*
X195400000Y-42800000D01*
X191800000Y-45600000D02*
X191800000Y-42800000D01*
X191800000Y-42800000D02*
X191400000Y-42400000D01*
X191400000Y-42400000D02*
X190200000Y-42400000D01*
X190200000Y-42400000D02*
X190200000Y-45600000D01*
X190200000Y-45600000D02*
X191800000Y-45600000D01*
X186600000Y-45600000D02*
X188200000Y-45600000D01*
X186600000Y-42400000D02*
X186600000Y-45600000D01*
X187800000Y-42400000D02*
X186600000Y-42400000D01*
X188200000Y-42800000D02*
X187800000Y-42400000D01*
X188200000Y-45600000D02*
X188200000Y-42800000D01*
X183000000Y-45600000D02*
X184600000Y-45600000D01*
X183000000Y-42400000D02*
X183000000Y-45600000D01*
X184200000Y-42400000D02*
X183000000Y-42400000D01*
X184600000Y-42800000D02*
X184200000Y-42400000D01*
X184600000Y-45600000D02*
X184600000Y-42800000D01*
X206620000Y-121370000D02*
X206620000Y-113110000D01*
X192020000Y-121370000D02*
X206620000Y-121370000D01*
X192020000Y-113110000D02*
X192020000Y-121370000D01*
X190240000Y-113110000D02*
X192020000Y-113110000D01*
X190240000Y-121370000D02*
X190240000Y-113110000D01*
X127380000Y-121370000D02*
X190240000Y-121370000D01*
X127380000Y-113110000D02*
X127380000Y-121370000D01*
X149800000Y-53000000D02*
X149800000Y-51400000D01*
X145800000Y-53000000D02*
X149800000Y-53000000D01*
X145800000Y-51400000D02*
X145800000Y-53000000D01*
X149800000Y-51400000D02*
X145800000Y-51400000D01*
X122200000Y-51400000D02*
X118200000Y-51400000D01*
X118200000Y-51400000D02*
X118200000Y-53000000D01*
X118200000Y-53000000D02*
X122200000Y-53000000D01*
X122200000Y-53000000D02*
X122200000Y-51400000D01*
X175450000Y-53000000D02*
X175450000Y-51400000D01*
X171450000Y-53000000D02*
X175450000Y-53000000D01*
X171450000Y-51400000D02*
X171450000Y-53000000D01*
X175450000Y-51400000D02*
X171450000Y-51400000D01*
X177025000Y-86050000D02*
X179950000Y-86050000D01*
X179950000Y-86050000D02*
X179950000Y-95950000D01*
X179950000Y-95950000D02*
X176050000Y-95950000D01*
X176050000Y-95950000D02*
X176050000Y-87025000D01*
X176050000Y-87025000D02*
X177025000Y-86050000D01*
X177025000Y-67050000D02*
X179950000Y-67050000D01*
X179950000Y-67050000D02*
X179950000Y-76950000D01*
X179950000Y-76950000D02*
X176050000Y-76950000D01*
X176050000Y-76950000D02*
X176050000Y-68025000D01*
X176050000Y-68025000D02*
X177025000Y-67050000D01*
X154050000Y-87025000D02*
X155025000Y-86050000D01*
X154050000Y-95950000D02*
X154050000Y-87025000D01*
X157950000Y-95950000D02*
X154050000Y-95950000D01*
X157950000Y-86050000D02*
X157950000Y-95950000D01*
X155025000Y-86050000D02*
X157950000Y-86050000D01*
X198250000Y-87100000D02*
X199250000Y-86100000D01*
X198250000Y-98900000D02*
X198250000Y-87100000D01*
X205750000Y-98900000D02*
X198250000Y-98900000D01*
X205750000Y-86100000D02*
X205750000Y-98900000D01*
X199250000Y-86100000D02*
X205750000Y-86100000D01*
X129250000Y-67100000D02*
X135750000Y-67100000D01*
X135750000Y-67100000D02*
X135750000Y-79900000D01*
X135750000Y-79900000D02*
X128250000Y-79900000D01*
X128250000Y-79900000D02*
X128250000Y-68100000D01*
X128250000Y-68100000D02*
X129250000Y-67100000D01*
X154750000Y-50800000D02*
X161250000Y-50800000D01*
X161250000Y-50800000D02*
X161250000Y-63600000D01*
X161250000Y-63600000D02*
X153750000Y-63600000D01*
X153750000Y-63600000D02*
X153750000Y-51800000D01*
X153750000Y-51800000D02*
X154750000Y-50800000D01*
X126250000Y-51800000D02*
X127250000Y-50800000D01*
X126250000Y-63600000D02*
X126250000Y-51800000D01*
X133750000Y-63600000D02*
X126250000Y-63600000D01*
X133750000Y-50800000D02*
X133750000Y-63600000D01*
X127250000Y-50800000D02*
X133750000Y-50800000D01*
X179500000Y-51800000D02*
X180500000Y-50800000D01*
X179500000Y-63600000D02*
X179500000Y-51800000D01*
X187000000Y-63600000D02*
X179500000Y-63600000D01*
X187000000Y-50800000D02*
X187000000Y-63600000D01*
X180500000Y-50800000D02*
X187000000Y-50800000D01*
X197775000Y-55650000D02*
X198750000Y-54675000D01*
X197775000Y-63325000D02*
X197775000Y-55650000D01*
X201675000Y-63325000D02*
X197775000Y-63325000D01*
X201675000Y-54675000D02*
X201675000Y-63325000D01*
X198750000Y-54675000D02*
X201675000Y-54675000D01*
X208025227Y-61000000D02*
X208025227Y-61400000D01*
X207825227Y-61200000D02*
X208225227Y-61200000D01*
X207250000Y-63350000D02*
X208250000Y-64350000D01*
X207250000Y-61050000D02*
X208250000Y-60050000D01*
X207250000Y-61050000D02*
X207250000Y-63350000D01*
X208250000Y-64350000D02*
X211550000Y-64350000D01*
X208250000Y-60050000D02*
X211550000Y-60050000D01*
X211550000Y-60050000D02*
X211550000Y-64350000D01*
X211400000Y-62200000D02*
G75*
G03*
X211400000Y-62200000I-2000000J0D01*
G01*
X123000000Y-65200000D02*
G75*
G03*
X123000000Y-65200000I-2000000J0D01*
G01*
X118850000Y-67350000D02*
X118850000Y-63050000D01*
X122150000Y-67350000D02*
X118850000Y-67350000D01*
X122150000Y-63050000D02*
X118850000Y-63050000D01*
X123150000Y-66350000D02*
X123150000Y-64050000D01*
X123150000Y-66350000D02*
X122150000Y-67350000D01*
X123150000Y-64050000D02*
X122150000Y-63050000D01*
X122574773Y-66200000D02*
X122174773Y-66200000D01*
X122374773Y-66400000D02*
X122374773Y-66000000D01*
D10*
X131238095Y-97452380D02*
X131238095Y-98261904D01*
X131285714Y-98357142D01*
X131333333Y-98404761D01*
X131428571Y-98452380D01*
X131619047Y-98452380D01*
X131714285Y-98404761D01*
X131761904Y-98357142D01*
X131809523Y-98261904D01*
X131809523Y-97452380D01*
X132190476Y-97452380D02*
X132857142Y-97452380D01*
X132428571Y-98452380D01*
X201238095Y-78452380D02*
X201238095Y-79261904D01*
X201285714Y-79357142D01*
X201333333Y-79404761D01*
X201428571Y-79452380D01*
X201619047Y-79452380D01*
X201714285Y-79404761D01*
X201761904Y-79357142D01*
X201809523Y-79261904D01*
X201809523Y-78452380D01*
X202761904Y-78452380D02*
X202285714Y-78452380D01*
X202238095Y-78928571D01*
X202285714Y-78880952D01*
X202380952Y-78833333D01*
X202619047Y-78833333D01*
X202714285Y-78880952D01*
X202761904Y-78928571D01*
X202809523Y-79023809D01*
X202809523Y-79261904D01*
X202761904Y-79357142D01*
X202714285Y-79404761D01*
X202619047Y-79452380D01*
X202380952Y-79452380D01*
X202285714Y-79404761D01*
X202238095Y-79357142D01*
X155253333Y-75463333D02*
X155253333Y-76256666D01*
X155300000Y-76350000D01*
X155346666Y-76396666D01*
X155440000Y-76443333D01*
X155626666Y-76443333D01*
X155720000Y-76396666D01*
X155766666Y-76350000D01*
X155813333Y-76256666D01*
X155813333Y-75463333D01*
X156700000Y-75790000D02*
X156700000Y-76443333D01*
X156466666Y-75416666D02*
X156233333Y-76116666D01*
X156840000Y-76116666D01*
X128432380Y-46095238D02*
X127432380Y-46095238D01*
X127432380Y-45857142D01*
X127480000Y-45714285D01*
X127575238Y-45619047D01*
X127670476Y-45571428D01*
X127860952Y-45523809D01*
X128003809Y-45523809D01*
X128194285Y-45571428D01*
X128289523Y-45619047D01*
X128384761Y-45714285D01*
X128432380Y-45857142D01*
X128432380Y-46095238D01*
X128527619Y-45333333D02*
X128527619Y-44571428D01*
X128432380Y-43761904D02*
X127956190Y-44095238D01*
X128432380Y-44333333D02*
X127432380Y-44333333D01*
X127432380Y-43952380D01*
X127480000Y-43857142D01*
X127527619Y-43809523D01*
X127622857Y-43761904D01*
X127765714Y-43761904D01*
X127860952Y-43809523D01*
X127908571Y-43857142D01*
X127956190Y-43952380D01*
X127956190Y-44333333D01*
X127908571Y-43333333D02*
X127908571Y-43000000D01*
X128432380Y-42857142D02*
X128432380Y-43333333D01*
X127432380Y-43333333D01*
X127432380Y-42857142D01*
X128432380Y-42428571D02*
X127432380Y-42428571D01*
X127432380Y-42190476D01*
X127480000Y-42047619D01*
X127575238Y-41952380D01*
X127670476Y-41904761D01*
X127860952Y-41857142D01*
X128003809Y-41857142D01*
X128194285Y-41904761D01*
X128289523Y-41952380D01*
X128384761Y-42047619D01*
X128432380Y-42190476D01*
X128432380Y-42428571D01*
D12*
X130161904Y-44971428D02*
X129361904Y-44971428D01*
X129361904Y-44780952D01*
X129400000Y-44666666D01*
X129476190Y-44590476D01*
X129552380Y-44552380D01*
X129704761Y-44514285D01*
X129819047Y-44514285D01*
X129971428Y-44552380D01*
X130047619Y-44590476D01*
X130123809Y-44666666D01*
X130161904Y-44780952D01*
X130161904Y-44971428D01*
X130161904Y-43752380D02*
X130161904Y-44209523D01*
X130161904Y-43980952D02*
X129361904Y-43980952D01*
X129476190Y-44057142D01*
X129552380Y-44133333D01*
X129590476Y-44209523D01*
X129361904Y-43485714D02*
X129361904Y-42990476D01*
X129666666Y-43257142D01*
X129666666Y-43142857D01*
X129704761Y-43066666D01*
X129742857Y-43028571D01*
X129819047Y-42990476D01*
X130009523Y-42990476D01*
X130085714Y-43028571D01*
X130123809Y-43066666D01*
X130161904Y-43142857D01*
X130161904Y-43371428D01*
X130123809Y-43447619D01*
X130085714Y-43485714D01*
D10*
X180790476Y-83574761D02*
X180695238Y-83622380D01*
X180504761Y-83622380D01*
X180409523Y-83574761D01*
X180361904Y-83479523D01*
X180361904Y-83098571D01*
X180409523Y-83003333D01*
X180504761Y-82955714D01*
X180695238Y-82955714D01*
X180790476Y-83003333D01*
X180838095Y-83098571D01*
X180838095Y-83193809D01*
X180361904Y-83289047D01*
D13*
X180533333Y-84742857D02*
X180514285Y-84761904D01*
X180457142Y-84780952D01*
X180419047Y-84780952D01*
X180361904Y-84761904D01*
X180323809Y-84723809D01*
X180304761Y-84685714D01*
X180285714Y-84609523D01*
X180285714Y-84552380D01*
X180304761Y-84476190D01*
X180323809Y-84438095D01*
X180361904Y-84400000D01*
X180419047Y-84380952D01*
X180457142Y-84380952D01*
X180514285Y-84400000D01*
X180533333Y-84419047D01*
X180914285Y-84780952D02*
X180685714Y-84780952D01*
X180800000Y-84780952D02*
X180800000Y-84380952D01*
X180761904Y-84438095D01*
X180723809Y-84476190D01*
X180685714Y-84495238D01*
D10*
X183790476Y-66574761D02*
X183695238Y-66622380D01*
X183504761Y-66622380D01*
X183409523Y-66574761D01*
X183361904Y-66479523D01*
X183361904Y-66098571D01*
X183409523Y-66003333D01*
X183504761Y-65955714D01*
X183695238Y-65955714D01*
X183790476Y-66003333D01*
X183838095Y-66098571D01*
X183838095Y-66193809D01*
X183361904Y-66289047D01*
D13*
X183533333Y-67742857D02*
X183514285Y-67761904D01*
X183457142Y-67780952D01*
X183419047Y-67780952D01*
X183361904Y-67761904D01*
X183323809Y-67723809D01*
X183304761Y-67685714D01*
X183285714Y-67609523D01*
X183285714Y-67552380D01*
X183304761Y-67476190D01*
X183323809Y-67438095D01*
X183361904Y-67400000D01*
X183419047Y-67380952D01*
X183457142Y-67380952D01*
X183514285Y-67400000D01*
X183533333Y-67419047D01*
X183685714Y-67419047D02*
X183704761Y-67400000D01*
X183742857Y-67380952D01*
X183838095Y-67380952D01*
X183876190Y-67400000D01*
X183895238Y-67419047D01*
X183914285Y-67457142D01*
X183914285Y-67495238D01*
X183895238Y-67552380D01*
X183666666Y-67780952D01*
X183914285Y-67780952D01*
D10*
X161890476Y-85574761D02*
X161795238Y-85622380D01*
X161604761Y-85622380D01*
X161509523Y-85574761D01*
X161461904Y-85479523D01*
X161461904Y-85098571D01*
X161509523Y-85003333D01*
X161604761Y-84955714D01*
X161795238Y-84955714D01*
X161890476Y-85003333D01*
X161938095Y-85098571D01*
X161938095Y-85193809D01*
X161461904Y-85289047D01*
D13*
X161633333Y-86742857D02*
X161614285Y-86761904D01*
X161557142Y-86780952D01*
X161519047Y-86780952D01*
X161461904Y-86761904D01*
X161423809Y-86723809D01*
X161404761Y-86685714D01*
X161385714Y-86609523D01*
X161385714Y-86552380D01*
X161404761Y-86476190D01*
X161423809Y-86438095D01*
X161461904Y-86400000D01*
X161519047Y-86380952D01*
X161557142Y-86380952D01*
X161614285Y-86400000D01*
X161633333Y-86419047D01*
X161766666Y-86380952D02*
X162014285Y-86380952D01*
X161880952Y-86533333D01*
X161938095Y-86533333D01*
X161976190Y-86552380D01*
X161995238Y-86571428D01*
X162014285Y-86609523D01*
X162014285Y-86704761D01*
X161995238Y-86742857D01*
X161976190Y-86761904D01*
X161938095Y-86780952D01*
X161823809Y-86780952D01*
X161785714Y-86761904D01*
X161766666Y-86742857D01*
D10*
X161990476Y-66574761D02*
X161895238Y-66622380D01*
X161704761Y-66622380D01*
X161609523Y-66574761D01*
X161561904Y-66479523D01*
X161561904Y-66098571D01*
X161609523Y-66003333D01*
X161704761Y-65955714D01*
X161895238Y-65955714D01*
X161990476Y-66003333D01*
X162038095Y-66098571D01*
X162038095Y-66193809D01*
X161561904Y-66289047D01*
D13*
X161733333Y-67742857D02*
X161714285Y-67761904D01*
X161657142Y-67780952D01*
X161619047Y-67780952D01*
X161561904Y-67761904D01*
X161523809Y-67723809D01*
X161504761Y-67685714D01*
X161485714Y-67609523D01*
X161485714Y-67552380D01*
X161504761Y-67476190D01*
X161523809Y-67438095D01*
X161561904Y-67400000D01*
X161619047Y-67380952D01*
X161657142Y-67380952D01*
X161714285Y-67400000D01*
X161733333Y-67419047D01*
X162076190Y-67514285D02*
X162076190Y-67780952D01*
X161980952Y-67361904D02*
X161885714Y-67647619D01*
X162133333Y-67647619D01*
D10*
X210190476Y-66774761D02*
X210095238Y-66822380D01*
X209904761Y-66822380D01*
X209809523Y-66774761D01*
X209761904Y-66679523D01*
X209761904Y-66298571D01*
X209809523Y-66203333D01*
X209904761Y-66155714D01*
X210095238Y-66155714D01*
X210190476Y-66203333D01*
X210238095Y-66298571D01*
X210238095Y-66393809D01*
X209761904Y-66489047D01*
D13*
X209933333Y-67942857D02*
X209914285Y-67961904D01*
X209857142Y-67980952D01*
X209819047Y-67980952D01*
X209761904Y-67961904D01*
X209723809Y-67923809D01*
X209704761Y-67885714D01*
X209685714Y-67809523D01*
X209685714Y-67752380D01*
X209704761Y-67676190D01*
X209723809Y-67638095D01*
X209761904Y-67600000D01*
X209819047Y-67580952D01*
X209857142Y-67580952D01*
X209914285Y-67600000D01*
X209933333Y-67619047D01*
X210295238Y-67580952D02*
X210104761Y-67580952D01*
X210085714Y-67771428D01*
X210104761Y-67752380D01*
X210142857Y-67733333D01*
X210238095Y-67733333D01*
X210276190Y-67752380D01*
X210295238Y-67771428D01*
X210314285Y-67809523D01*
X210314285Y-67904761D01*
X210295238Y-67942857D01*
X210276190Y-67961904D01*
X210238095Y-67980952D01*
X210142857Y-67980952D01*
X210104761Y-67961904D01*
X210085714Y-67942857D01*
D10*
X210190476Y-85774761D02*
X210095238Y-85822380D01*
X209904761Y-85822380D01*
X209809523Y-85774761D01*
X209761904Y-85679523D01*
X209761904Y-85298571D01*
X209809523Y-85203333D01*
X209904761Y-85155714D01*
X210095238Y-85155714D01*
X210190476Y-85203333D01*
X210238095Y-85298571D01*
X210238095Y-85393809D01*
X209761904Y-85489047D01*
D13*
X209933333Y-86942857D02*
X209914285Y-86961904D01*
X209857142Y-86980952D01*
X209819047Y-86980952D01*
X209761904Y-86961904D01*
X209723809Y-86923809D01*
X209704761Y-86885714D01*
X209685714Y-86809523D01*
X209685714Y-86752380D01*
X209704761Y-86676190D01*
X209723809Y-86638095D01*
X209761904Y-86600000D01*
X209819047Y-86580952D01*
X209857142Y-86580952D01*
X209914285Y-86600000D01*
X209933333Y-86619047D01*
X210276190Y-86580952D02*
X210200000Y-86580952D01*
X210161904Y-86600000D01*
X210142857Y-86619047D01*
X210104761Y-86676190D01*
X210085714Y-86752380D01*
X210085714Y-86904761D01*
X210104761Y-86942857D01*
X210123809Y-86961904D01*
X210161904Y-86980952D01*
X210238095Y-86980952D01*
X210276190Y-86961904D01*
X210295238Y-86942857D01*
X210314285Y-86904761D01*
X210314285Y-86809523D01*
X210295238Y-86771428D01*
X210276190Y-86752380D01*
X210238095Y-86733333D01*
X210161904Y-86733333D01*
X210123809Y-86752380D01*
X210104761Y-86771428D01*
X210085714Y-86809523D01*
D10*
X140190476Y-85774761D02*
X140095238Y-85822380D01*
X139904761Y-85822380D01*
X139809523Y-85774761D01*
X139761904Y-85679523D01*
X139761904Y-85298571D01*
X139809523Y-85203333D01*
X139904761Y-85155714D01*
X140095238Y-85155714D01*
X140190476Y-85203333D01*
X140238095Y-85298571D01*
X140238095Y-85393809D01*
X139761904Y-85489047D01*
D13*
X139933333Y-86942857D02*
X139914285Y-86961904D01*
X139857142Y-86980952D01*
X139819047Y-86980952D01*
X139761904Y-86961904D01*
X139723809Y-86923809D01*
X139704761Y-86885714D01*
X139685714Y-86809523D01*
X139685714Y-86752380D01*
X139704761Y-86676190D01*
X139723809Y-86638095D01*
X139761904Y-86600000D01*
X139819047Y-86580952D01*
X139857142Y-86580952D01*
X139914285Y-86600000D01*
X139933333Y-86619047D01*
X140066666Y-86580952D02*
X140333333Y-86580952D01*
X140161904Y-86980952D01*
D10*
X139990476Y-66774761D02*
X139895238Y-66822380D01*
X139704761Y-66822380D01*
X139609523Y-66774761D01*
X139561904Y-66679523D01*
X139561904Y-66298571D01*
X139609523Y-66203333D01*
X139704761Y-66155714D01*
X139895238Y-66155714D01*
X139990476Y-66203333D01*
X140038095Y-66298571D01*
X140038095Y-66393809D01*
X139561904Y-66489047D01*
D13*
X139733333Y-67942857D02*
X139714285Y-67961904D01*
X139657142Y-67980952D01*
X139619047Y-67980952D01*
X139561904Y-67961904D01*
X139523809Y-67923809D01*
X139504761Y-67885714D01*
X139485714Y-67809523D01*
X139485714Y-67752380D01*
X139504761Y-67676190D01*
X139523809Y-67638095D01*
X139561904Y-67600000D01*
X139619047Y-67580952D01*
X139657142Y-67580952D01*
X139714285Y-67600000D01*
X139733333Y-67619047D01*
X139961904Y-67752380D02*
X139923809Y-67733333D01*
X139904761Y-67714285D01*
X139885714Y-67676190D01*
X139885714Y-67657142D01*
X139904761Y-67619047D01*
X139923809Y-67600000D01*
X139961904Y-67580952D01*
X140038095Y-67580952D01*
X140076190Y-67600000D01*
X140095238Y-67619047D01*
X140114285Y-67657142D01*
X140114285Y-67676190D01*
X140095238Y-67714285D01*
X140076190Y-67733333D01*
X140038095Y-67752380D01*
X139961904Y-67752380D01*
X139923809Y-67771428D01*
X139904761Y-67790476D01*
X139885714Y-67828571D01*
X139885714Y-67904761D01*
X139904761Y-67942857D01*
X139923809Y-67961904D01*
X139961904Y-67980952D01*
X140038095Y-67980952D01*
X140076190Y-67961904D01*
X140095238Y-67942857D01*
X140114285Y-67904761D01*
X140114285Y-67828571D01*
X140095238Y-67790476D01*
X140076190Y-67771428D01*
X140038095Y-67752380D01*
D10*
X165590476Y-50399761D02*
X165495238Y-50447380D01*
X165304761Y-50447380D01*
X165209523Y-50399761D01*
X165161904Y-50304523D01*
X165161904Y-49923571D01*
X165209523Y-49828333D01*
X165304761Y-49780714D01*
X165495238Y-49780714D01*
X165590476Y-49828333D01*
X165638095Y-49923571D01*
X165638095Y-50018809D01*
X165161904Y-50114047D01*
D13*
X165333333Y-51567857D02*
X165314285Y-51586904D01*
X165257142Y-51605952D01*
X165219047Y-51605952D01*
X165161904Y-51586904D01*
X165123809Y-51548809D01*
X165104761Y-51510714D01*
X165085714Y-51434523D01*
X165085714Y-51377380D01*
X165104761Y-51301190D01*
X165123809Y-51263095D01*
X165161904Y-51225000D01*
X165219047Y-51205952D01*
X165257142Y-51205952D01*
X165314285Y-51225000D01*
X165333333Y-51244047D01*
X165523809Y-51605952D02*
X165600000Y-51605952D01*
X165638095Y-51586904D01*
X165657142Y-51567857D01*
X165695238Y-51510714D01*
X165714285Y-51434523D01*
X165714285Y-51282142D01*
X165695238Y-51244047D01*
X165676190Y-51225000D01*
X165638095Y-51205952D01*
X165561904Y-51205952D01*
X165523809Y-51225000D01*
X165504761Y-51244047D01*
X165485714Y-51282142D01*
X165485714Y-51377380D01*
X165504761Y-51415476D01*
X165523809Y-51434523D01*
X165561904Y-51453571D01*
X165638095Y-51453571D01*
X165676190Y-51434523D01*
X165695238Y-51415476D01*
X165714285Y-51377380D01*
D10*
X138190476Y-50374761D02*
X138095238Y-50422380D01*
X137904761Y-50422380D01*
X137809523Y-50374761D01*
X137761904Y-50279523D01*
X137761904Y-49898571D01*
X137809523Y-49803333D01*
X137904761Y-49755714D01*
X138095238Y-49755714D01*
X138190476Y-49803333D01*
X138238095Y-49898571D01*
X138238095Y-49993809D01*
X137761904Y-50089047D01*
D13*
X137742857Y-51542857D02*
X137723809Y-51561904D01*
X137666666Y-51580952D01*
X137628571Y-51580952D01*
X137571428Y-51561904D01*
X137533333Y-51523809D01*
X137514285Y-51485714D01*
X137495238Y-51409523D01*
X137495238Y-51352380D01*
X137514285Y-51276190D01*
X137533333Y-51238095D01*
X137571428Y-51200000D01*
X137628571Y-51180952D01*
X137666666Y-51180952D01*
X137723809Y-51200000D01*
X137742857Y-51219047D01*
X138123809Y-51580952D02*
X137895238Y-51580952D01*
X138009523Y-51580952D02*
X138009523Y-51180952D01*
X137971428Y-51238095D01*
X137933333Y-51276190D01*
X137895238Y-51295238D01*
X138371428Y-51180952D02*
X138409523Y-51180952D01*
X138447619Y-51200000D01*
X138466666Y-51219047D01*
X138485714Y-51257142D01*
X138504761Y-51333333D01*
X138504761Y-51428571D01*
X138485714Y-51504761D01*
X138466666Y-51542857D01*
X138447619Y-51561904D01*
X138409523Y-51580952D01*
X138371428Y-51580952D01*
X138333333Y-51561904D01*
X138314285Y-51542857D01*
X138295238Y-51504761D01*
X138276190Y-51428571D01*
X138276190Y-51333333D01*
X138295238Y-51257142D01*
X138314285Y-51219047D01*
X138333333Y-51200000D01*
X138371428Y-51180952D01*
D10*
X191390476Y-50374761D02*
X191295238Y-50422380D01*
X191104761Y-50422380D01*
X191009523Y-50374761D01*
X190961904Y-50279523D01*
X190961904Y-49898571D01*
X191009523Y-49803333D01*
X191104761Y-49755714D01*
X191295238Y-49755714D01*
X191390476Y-49803333D01*
X191438095Y-49898571D01*
X191438095Y-49993809D01*
X190961904Y-50089047D01*
D13*
X190942857Y-51542857D02*
X190923809Y-51561904D01*
X190866666Y-51580952D01*
X190828571Y-51580952D01*
X190771428Y-51561904D01*
X190733333Y-51523809D01*
X190714285Y-51485714D01*
X190695238Y-51409523D01*
X190695238Y-51352380D01*
X190714285Y-51276190D01*
X190733333Y-51238095D01*
X190771428Y-51200000D01*
X190828571Y-51180952D01*
X190866666Y-51180952D01*
X190923809Y-51200000D01*
X190942857Y-51219047D01*
X191323809Y-51580952D02*
X191095238Y-51580952D01*
X191209523Y-51580952D02*
X191209523Y-51180952D01*
X191171428Y-51238095D01*
X191133333Y-51276190D01*
X191095238Y-51295238D01*
X191704761Y-51580952D02*
X191476190Y-51580952D01*
X191590476Y-51580952D02*
X191590476Y-51180952D01*
X191552380Y-51238095D01*
X191514285Y-51276190D01*
X191476190Y-51295238D01*
D10*
X205590476Y-54174761D02*
X205495238Y-54222380D01*
X205304761Y-54222380D01*
X205209523Y-54174761D01*
X205161904Y-54079523D01*
X205161904Y-53698571D01*
X205209523Y-53603333D01*
X205304761Y-53555714D01*
X205495238Y-53555714D01*
X205590476Y-53603333D01*
X205638095Y-53698571D01*
X205638095Y-53793809D01*
X205161904Y-53889047D01*
D13*
X205142857Y-55342857D02*
X205123809Y-55361904D01*
X205066666Y-55380952D01*
X205028571Y-55380952D01*
X204971428Y-55361904D01*
X204933333Y-55323809D01*
X204914285Y-55285714D01*
X204895238Y-55209523D01*
X204895238Y-55152380D01*
X204914285Y-55076190D01*
X204933333Y-55038095D01*
X204971428Y-55000000D01*
X205028571Y-54980952D01*
X205066666Y-54980952D01*
X205123809Y-55000000D01*
X205142857Y-55019047D01*
X205523809Y-55380952D02*
X205295238Y-55380952D01*
X205409523Y-55380952D02*
X205409523Y-54980952D01*
X205371428Y-55038095D01*
X205333333Y-55076190D01*
X205295238Y-55095238D01*
X205676190Y-55019047D02*
X205695238Y-55000000D01*
X205733333Y-54980952D01*
X205828571Y-54980952D01*
X205866666Y-55000000D01*
X205885714Y-55019047D01*
X205904761Y-55057142D01*
X205904761Y-55095238D01*
X205885714Y-55152380D01*
X205657142Y-55380952D01*
X205904761Y-55380952D01*
D10*
X172832380Y-46095238D02*
X171832380Y-46095238D01*
X171832380Y-45857142D01*
X171880000Y-45714285D01*
X171975238Y-45619047D01*
X172070476Y-45571428D01*
X172260952Y-45523809D01*
X172403809Y-45523809D01*
X172594285Y-45571428D01*
X172689523Y-45619047D01*
X172784761Y-45714285D01*
X172832380Y-45857142D01*
X172832380Y-46095238D01*
X172927619Y-45333333D02*
X172927619Y-44571428D01*
X172832380Y-43761904D02*
X172356190Y-44095238D01*
X172832380Y-44333333D02*
X171832380Y-44333333D01*
X171832380Y-43952380D01*
X171880000Y-43857142D01*
X171927619Y-43809523D01*
X172022857Y-43761904D01*
X172165714Y-43761904D01*
X172260952Y-43809523D01*
X172308571Y-43857142D01*
X172356190Y-43952380D01*
X172356190Y-44333333D01*
X172308571Y-43333333D02*
X172308571Y-43000000D01*
X172832380Y-42857142D02*
X172832380Y-43333333D01*
X171832380Y-43333333D01*
X171832380Y-42857142D01*
X172832380Y-42428571D02*
X171832380Y-42428571D01*
X171832380Y-42190476D01*
X171880000Y-42047619D01*
X171975238Y-41952380D01*
X172070476Y-41904761D01*
X172260952Y-41857142D01*
X172403809Y-41857142D01*
X172594285Y-41904761D01*
X172689523Y-41952380D01*
X172784761Y-42047619D01*
X172832380Y-42190476D01*
X172832380Y-42428571D01*
D12*
X174561904Y-44590476D02*
X173761904Y-44590476D01*
X173761904Y-44400000D01*
X173800000Y-44285714D01*
X173876190Y-44209523D01*
X173952380Y-44171428D01*
X174104761Y-44133333D01*
X174219047Y-44133333D01*
X174371428Y-44171428D01*
X174447619Y-44209523D01*
X174523809Y-44285714D01*
X174561904Y-44400000D01*
X174561904Y-44590476D01*
X174561904Y-43371428D02*
X174561904Y-43828571D01*
X174561904Y-43600000D02*
X173761904Y-43600000D01*
X173876190Y-43676190D01*
X173952380Y-43752380D01*
X173990476Y-43828571D01*
D10*
X169232380Y-46095238D02*
X168232380Y-46095238D01*
X168232380Y-45857142D01*
X168280000Y-45714285D01*
X168375238Y-45619047D01*
X168470476Y-45571428D01*
X168660952Y-45523809D01*
X168803809Y-45523809D01*
X168994285Y-45571428D01*
X169089523Y-45619047D01*
X169184761Y-45714285D01*
X169232380Y-45857142D01*
X169232380Y-46095238D01*
X169327619Y-45333333D02*
X169327619Y-44571428D01*
X169232380Y-43761904D02*
X168756190Y-44095238D01*
X169232380Y-44333333D02*
X168232380Y-44333333D01*
X168232380Y-43952380D01*
X168280000Y-43857142D01*
X168327619Y-43809523D01*
X168422857Y-43761904D01*
X168565714Y-43761904D01*
X168660952Y-43809523D01*
X168708571Y-43857142D01*
X168756190Y-43952380D01*
X168756190Y-44333333D01*
X168708571Y-43333333D02*
X168708571Y-43000000D01*
X169232380Y-42857142D02*
X169232380Y-43333333D01*
X168232380Y-43333333D01*
X168232380Y-42857142D01*
X169232380Y-42428571D02*
X168232380Y-42428571D01*
X168232380Y-42190476D01*
X168280000Y-42047619D01*
X168375238Y-41952380D01*
X168470476Y-41904761D01*
X168660952Y-41857142D01*
X168803809Y-41857142D01*
X168994285Y-41904761D01*
X169089523Y-41952380D01*
X169184761Y-42047619D01*
X169232380Y-42190476D01*
X169232380Y-42428571D01*
D12*
X170961904Y-44590476D02*
X170161904Y-44590476D01*
X170161904Y-44400000D01*
X170200000Y-44285714D01*
X170276190Y-44209523D01*
X170352380Y-44171428D01*
X170504761Y-44133333D01*
X170619047Y-44133333D01*
X170771428Y-44171428D01*
X170847619Y-44209523D01*
X170923809Y-44285714D01*
X170961904Y-44400000D01*
X170961904Y-44590476D01*
X170238095Y-43828571D02*
X170200000Y-43790476D01*
X170161904Y-43714285D01*
X170161904Y-43523809D01*
X170200000Y-43447619D01*
X170238095Y-43409523D01*
X170314285Y-43371428D01*
X170390476Y-43371428D01*
X170504761Y-43409523D01*
X170961904Y-43866666D01*
X170961904Y-43371428D01*
D10*
X165632380Y-46095238D02*
X164632380Y-46095238D01*
X164632380Y-45857142D01*
X164680000Y-45714285D01*
X164775238Y-45619047D01*
X164870476Y-45571428D01*
X165060952Y-45523809D01*
X165203809Y-45523809D01*
X165394285Y-45571428D01*
X165489523Y-45619047D01*
X165584761Y-45714285D01*
X165632380Y-45857142D01*
X165632380Y-46095238D01*
X165727619Y-45333333D02*
X165727619Y-44571428D01*
X165632380Y-43761904D02*
X165156190Y-44095238D01*
X165632380Y-44333333D02*
X164632380Y-44333333D01*
X164632380Y-43952380D01*
X164680000Y-43857142D01*
X164727619Y-43809523D01*
X164822857Y-43761904D01*
X164965714Y-43761904D01*
X165060952Y-43809523D01*
X165108571Y-43857142D01*
X165156190Y-43952380D01*
X165156190Y-44333333D01*
X165108571Y-43333333D02*
X165108571Y-43000000D01*
X165632380Y-42857142D02*
X165632380Y-43333333D01*
X164632380Y-43333333D01*
X164632380Y-42857142D01*
X165632380Y-42428571D02*
X164632380Y-42428571D01*
X164632380Y-42190476D01*
X164680000Y-42047619D01*
X164775238Y-41952380D01*
X164870476Y-41904761D01*
X165060952Y-41857142D01*
X165203809Y-41857142D01*
X165394285Y-41904761D01*
X165489523Y-41952380D01*
X165584761Y-42047619D01*
X165632380Y-42190476D01*
X165632380Y-42428571D01*
D12*
X167361904Y-44590476D02*
X166561904Y-44590476D01*
X166561904Y-44400000D01*
X166600000Y-44285714D01*
X166676190Y-44209523D01*
X166752380Y-44171428D01*
X166904761Y-44133333D01*
X167019047Y-44133333D01*
X167171428Y-44171428D01*
X167247619Y-44209523D01*
X167323809Y-44285714D01*
X167361904Y-44400000D01*
X167361904Y-44590476D01*
X166561904Y-43866666D02*
X166561904Y-43371428D01*
X166866666Y-43638095D01*
X166866666Y-43523809D01*
X166904761Y-43447619D01*
X166942857Y-43409523D01*
X167019047Y-43371428D01*
X167209523Y-43371428D01*
X167285714Y-43409523D01*
X167323809Y-43447619D01*
X167361904Y-43523809D01*
X167361904Y-43752380D01*
X167323809Y-43828571D01*
X167285714Y-43866666D01*
D10*
X162032380Y-46095238D02*
X161032380Y-46095238D01*
X161032380Y-45857142D01*
X161080000Y-45714285D01*
X161175238Y-45619047D01*
X161270476Y-45571428D01*
X161460952Y-45523809D01*
X161603809Y-45523809D01*
X161794285Y-45571428D01*
X161889523Y-45619047D01*
X161984761Y-45714285D01*
X162032380Y-45857142D01*
X162032380Y-46095238D01*
X162127619Y-45333333D02*
X162127619Y-44571428D01*
X162032380Y-43761904D02*
X161556190Y-44095238D01*
X162032380Y-44333333D02*
X161032380Y-44333333D01*
X161032380Y-43952380D01*
X161080000Y-43857142D01*
X161127619Y-43809523D01*
X161222857Y-43761904D01*
X161365714Y-43761904D01*
X161460952Y-43809523D01*
X161508571Y-43857142D01*
X161556190Y-43952380D01*
X161556190Y-44333333D01*
X161508571Y-43333333D02*
X161508571Y-43000000D01*
X162032380Y-42857142D02*
X162032380Y-43333333D01*
X161032380Y-43333333D01*
X161032380Y-42857142D01*
X162032380Y-42428571D02*
X161032380Y-42428571D01*
X161032380Y-42190476D01*
X161080000Y-42047619D01*
X161175238Y-41952380D01*
X161270476Y-41904761D01*
X161460952Y-41857142D01*
X161603809Y-41857142D01*
X161794285Y-41904761D01*
X161889523Y-41952380D01*
X161984761Y-42047619D01*
X162032380Y-42190476D01*
X162032380Y-42428571D01*
D12*
X163761904Y-44590476D02*
X162961904Y-44590476D01*
X162961904Y-44400000D01*
X163000000Y-44285714D01*
X163076190Y-44209523D01*
X163152380Y-44171428D01*
X163304761Y-44133333D01*
X163419047Y-44133333D01*
X163571428Y-44171428D01*
X163647619Y-44209523D01*
X163723809Y-44285714D01*
X163761904Y-44400000D01*
X163761904Y-44590476D01*
X163228571Y-43447619D02*
X163761904Y-43447619D01*
X162923809Y-43638095D02*
X163495238Y-43828571D01*
X163495238Y-43333333D01*
D10*
X158432380Y-46095238D02*
X157432380Y-46095238D01*
X157432380Y-45857142D01*
X157480000Y-45714285D01*
X157575238Y-45619047D01*
X157670476Y-45571428D01*
X157860952Y-45523809D01*
X158003809Y-45523809D01*
X158194285Y-45571428D01*
X158289523Y-45619047D01*
X158384761Y-45714285D01*
X158432380Y-45857142D01*
X158432380Y-46095238D01*
X158527619Y-45333333D02*
X158527619Y-44571428D01*
X158432380Y-43761904D02*
X157956190Y-44095238D01*
X158432380Y-44333333D02*
X157432380Y-44333333D01*
X157432380Y-43952380D01*
X157480000Y-43857142D01*
X157527619Y-43809523D01*
X157622857Y-43761904D01*
X157765714Y-43761904D01*
X157860952Y-43809523D01*
X157908571Y-43857142D01*
X157956190Y-43952380D01*
X157956190Y-44333333D01*
X157908571Y-43333333D02*
X157908571Y-43000000D01*
X158432380Y-42857142D02*
X158432380Y-43333333D01*
X157432380Y-43333333D01*
X157432380Y-42857142D01*
X158432380Y-42428571D02*
X157432380Y-42428571D01*
X157432380Y-42190476D01*
X157480000Y-42047619D01*
X157575238Y-41952380D01*
X157670476Y-41904761D01*
X157860952Y-41857142D01*
X158003809Y-41857142D01*
X158194285Y-41904761D01*
X158289523Y-41952380D01*
X158384761Y-42047619D01*
X158432380Y-42190476D01*
X158432380Y-42428571D01*
D12*
X160161904Y-44590476D02*
X159361904Y-44590476D01*
X159361904Y-44400000D01*
X159400000Y-44285714D01*
X159476190Y-44209523D01*
X159552380Y-44171428D01*
X159704761Y-44133333D01*
X159819047Y-44133333D01*
X159971428Y-44171428D01*
X160047619Y-44209523D01*
X160123809Y-44285714D01*
X160161904Y-44400000D01*
X160161904Y-44590476D01*
X159361904Y-43409523D02*
X159361904Y-43790476D01*
X159742857Y-43828571D01*
X159704761Y-43790476D01*
X159666666Y-43714285D01*
X159666666Y-43523809D01*
X159704761Y-43447619D01*
X159742857Y-43409523D01*
X159819047Y-43371428D01*
X160009523Y-43371428D01*
X160085714Y-43409523D01*
X160123809Y-43447619D01*
X160161904Y-43523809D01*
X160161904Y-43714285D01*
X160123809Y-43790476D01*
X160085714Y-43828571D01*
D10*
X154832380Y-46095238D02*
X153832380Y-46095238D01*
X153832380Y-45857142D01*
X153880000Y-45714285D01*
X153975238Y-45619047D01*
X154070476Y-45571428D01*
X154260952Y-45523809D01*
X154403809Y-45523809D01*
X154594285Y-45571428D01*
X154689523Y-45619047D01*
X154784761Y-45714285D01*
X154832380Y-45857142D01*
X154832380Y-46095238D01*
X154927619Y-45333333D02*
X154927619Y-44571428D01*
X154832380Y-43761904D02*
X154356190Y-44095238D01*
X154832380Y-44333333D02*
X153832380Y-44333333D01*
X153832380Y-43952380D01*
X153880000Y-43857142D01*
X153927619Y-43809523D01*
X154022857Y-43761904D01*
X154165714Y-43761904D01*
X154260952Y-43809523D01*
X154308571Y-43857142D01*
X154356190Y-43952380D01*
X154356190Y-44333333D01*
X154308571Y-43333333D02*
X154308571Y-43000000D01*
X154832380Y-42857142D02*
X154832380Y-43333333D01*
X153832380Y-43333333D01*
X153832380Y-42857142D01*
X154832380Y-42428571D02*
X153832380Y-42428571D01*
X153832380Y-42190476D01*
X153880000Y-42047619D01*
X153975238Y-41952380D01*
X154070476Y-41904761D01*
X154260952Y-41857142D01*
X154403809Y-41857142D01*
X154594285Y-41904761D01*
X154689523Y-41952380D01*
X154784761Y-42047619D01*
X154832380Y-42190476D01*
X154832380Y-42428571D01*
D12*
X156561904Y-44590476D02*
X155761904Y-44590476D01*
X155761904Y-44400000D01*
X155800000Y-44285714D01*
X155876190Y-44209523D01*
X155952380Y-44171428D01*
X156104761Y-44133333D01*
X156219047Y-44133333D01*
X156371428Y-44171428D01*
X156447619Y-44209523D01*
X156523809Y-44285714D01*
X156561904Y-44400000D01*
X156561904Y-44590476D01*
X155761904Y-43447619D02*
X155761904Y-43600000D01*
X155800000Y-43676190D01*
X155838095Y-43714285D01*
X155952380Y-43790476D01*
X156104761Y-43828571D01*
X156409523Y-43828571D01*
X156485714Y-43790476D01*
X156523809Y-43752380D01*
X156561904Y-43676190D01*
X156561904Y-43523809D01*
X156523809Y-43447619D01*
X156485714Y-43409523D01*
X156409523Y-43371428D01*
X156219047Y-43371428D01*
X156142857Y-43409523D01*
X156104761Y-43447619D01*
X156066666Y-43523809D01*
X156066666Y-43676190D01*
X156104761Y-43752380D01*
X156142857Y-43790476D01*
X156219047Y-43828571D01*
D10*
X151232380Y-46095238D02*
X150232380Y-46095238D01*
X150232380Y-45857142D01*
X150280000Y-45714285D01*
X150375238Y-45619047D01*
X150470476Y-45571428D01*
X150660952Y-45523809D01*
X150803809Y-45523809D01*
X150994285Y-45571428D01*
X151089523Y-45619047D01*
X151184761Y-45714285D01*
X151232380Y-45857142D01*
X151232380Y-46095238D01*
X151327619Y-45333333D02*
X151327619Y-44571428D01*
X151232380Y-43761904D02*
X150756190Y-44095238D01*
X151232380Y-44333333D02*
X150232380Y-44333333D01*
X150232380Y-43952380D01*
X150280000Y-43857142D01*
X150327619Y-43809523D01*
X150422857Y-43761904D01*
X150565714Y-43761904D01*
X150660952Y-43809523D01*
X150708571Y-43857142D01*
X150756190Y-43952380D01*
X150756190Y-44333333D01*
X150708571Y-43333333D02*
X150708571Y-43000000D01*
X151232380Y-42857142D02*
X151232380Y-43333333D01*
X150232380Y-43333333D01*
X150232380Y-42857142D01*
X151232380Y-42428571D02*
X150232380Y-42428571D01*
X150232380Y-42190476D01*
X150280000Y-42047619D01*
X150375238Y-41952380D01*
X150470476Y-41904761D01*
X150660952Y-41857142D01*
X150803809Y-41857142D01*
X150994285Y-41904761D01*
X151089523Y-41952380D01*
X151184761Y-42047619D01*
X151232380Y-42190476D01*
X151232380Y-42428571D01*
D12*
X152961904Y-44590476D02*
X152161904Y-44590476D01*
X152161904Y-44400000D01*
X152200000Y-44285714D01*
X152276190Y-44209523D01*
X152352380Y-44171428D01*
X152504761Y-44133333D01*
X152619047Y-44133333D01*
X152771428Y-44171428D01*
X152847619Y-44209523D01*
X152923809Y-44285714D01*
X152961904Y-44400000D01*
X152961904Y-44590476D01*
X152161904Y-43866666D02*
X152161904Y-43333333D01*
X152961904Y-43676190D01*
D10*
X147632380Y-46095238D02*
X146632380Y-46095238D01*
X146632380Y-45857142D01*
X146680000Y-45714285D01*
X146775238Y-45619047D01*
X146870476Y-45571428D01*
X147060952Y-45523809D01*
X147203809Y-45523809D01*
X147394285Y-45571428D01*
X147489523Y-45619047D01*
X147584761Y-45714285D01*
X147632380Y-45857142D01*
X147632380Y-46095238D01*
X147727619Y-45333333D02*
X147727619Y-44571428D01*
X147632380Y-43761904D02*
X147156190Y-44095238D01*
X147632380Y-44333333D02*
X146632380Y-44333333D01*
X146632380Y-43952380D01*
X146680000Y-43857142D01*
X146727619Y-43809523D01*
X146822857Y-43761904D01*
X146965714Y-43761904D01*
X147060952Y-43809523D01*
X147108571Y-43857142D01*
X147156190Y-43952380D01*
X147156190Y-44333333D01*
X147108571Y-43333333D02*
X147108571Y-43000000D01*
X147632380Y-42857142D02*
X147632380Y-43333333D01*
X146632380Y-43333333D01*
X146632380Y-42857142D01*
X147632380Y-42428571D02*
X146632380Y-42428571D01*
X146632380Y-42190476D01*
X146680000Y-42047619D01*
X146775238Y-41952380D01*
X146870476Y-41904761D01*
X147060952Y-41857142D01*
X147203809Y-41857142D01*
X147394285Y-41904761D01*
X147489523Y-41952380D01*
X147584761Y-42047619D01*
X147632380Y-42190476D01*
X147632380Y-42428571D01*
D12*
X149361904Y-44590476D02*
X148561904Y-44590476D01*
X148561904Y-44400000D01*
X148600000Y-44285714D01*
X148676190Y-44209523D01*
X148752380Y-44171428D01*
X148904761Y-44133333D01*
X149019047Y-44133333D01*
X149171428Y-44171428D01*
X149247619Y-44209523D01*
X149323809Y-44285714D01*
X149361904Y-44400000D01*
X149361904Y-44590476D01*
X148904761Y-43676190D02*
X148866666Y-43752380D01*
X148828571Y-43790476D01*
X148752380Y-43828571D01*
X148714285Y-43828571D01*
X148638095Y-43790476D01*
X148600000Y-43752380D01*
X148561904Y-43676190D01*
X148561904Y-43523809D01*
X148600000Y-43447619D01*
X148638095Y-43409523D01*
X148714285Y-43371428D01*
X148752380Y-43371428D01*
X148828571Y-43409523D01*
X148866666Y-43447619D01*
X148904761Y-43523809D01*
X148904761Y-43676190D01*
X148942857Y-43752380D01*
X148980952Y-43790476D01*
X149057142Y-43828571D01*
X149209523Y-43828571D01*
X149285714Y-43790476D01*
X149323809Y-43752380D01*
X149361904Y-43676190D01*
X149361904Y-43523809D01*
X149323809Y-43447619D01*
X149285714Y-43409523D01*
X149209523Y-43371428D01*
X149057142Y-43371428D01*
X148980952Y-43409523D01*
X148942857Y-43447619D01*
X148904761Y-43523809D01*
D10*
X142832380Y-46095238D02*
X141832380Y-46095238D01*
X141832380Y-45857142D01*
X141880000Y-45714285D01*
X141975238Y-45619047D01*
X142070476Y-45571428D01*
X142260952Y-45523809D01*
X142403809Y-45523809D01*
X142594285Y-45571428D01*
X142689523Y-45619047D01*
X142784761Y-45714285D01*
X142832380Y-45857142D01*
X142832380Y-46095238D01*
X142927619Y-45333333D02*
X142927619Y-44571428D01*
X142832380Y-43761904D02*
X142356190Y-44095238D01*
X142832380Y-44333333D02*
X141832380Y-44333333D01*
X141832380Y-43952380D01*
X141880000Y-43857142D01*
X141927619Y-43809523D01*
X142022857Y-43761904D01*
X142165714Y-43761904D01*
X142260952Y-43809523D01*
X142308571Y-43857142D01*
X142356190Y-43952380D01*
X142356190Y-44333333D01*
X142308571Y-43333333D02*
X142308571Y-43000000D01*
X142832380Y-42857142D02*
X142832380Y-43333333D01*
X141832380Y-43333333D01*
X141832380Y-42857142D01*
X142832380Y-42428571D02*
X141832380Y-42428571D01*
X141832380Y-42190476D01*
X141880000Y-42047619D01*
X141975238Y-41952380D01*
X142070476Y-41904761D01*
X142260952Y-41857142D01*
X142403809Y-41857142D01*
X142594285Y-41904761D01*
X142689523Y-41952380D01*
X142784761Y-42047619D01*
X142832380Y-42190476D01*
X142832380Y-42428571D01*
D12*
X144561904Y-44590476D02*
X143761904Y-44590476D01*
X143761904Y-44400000D01*
X143800000Y-44285714D01*
X143876190Y-44209523D01*
X143952380Y-44171428D01*
X144104761Y-44133333D01*
X144219047Y-44133333D01*
X144371428Y-44171428D01*
X144447619Y-44209523D01*
X144523809Y-44285714D01*
X144561904Y-44400000D01*
X144561904Y-44590476D01*
X144561904Y-43752380D02*
X144561904Y-43600000D01*
X144523809Y-43523809D01*
X144485714Y-43485714D01*
X144371428Y-43409523D01*
X144219047Y-43371428D01*
X143914285Y-43371428D01*
X143838095Y-43409523D01*
X143800000Y-43447619D01*
X143761904Y-43523809D01*
X143761904Y-43676190D01*
X143800000Y-43752380D01*
X143838095Y-43790476D01*
X143914285Y-43828571D01*
X144104761Y-43828571D01*
X144180952Y-43790476D01*
X144219047Y-43752380D01*
X144257142Y-43676190D01*
X144257142Y-43523809D01*
X144219047Y-43447619D01*
X144180952Y-43409523D01*
X144104761Y-43371428D01*
D10*
X139232380Y-46095238D02*
X138232380Y-46095238D01*
X138232380Y-45857142D01*
X138280000Y-45714285D01*
X138375238Y-45619047D01*
X138470476Y-45571428D01*
X138660952Y-45523809D01*
X138803809Y-45523809D01*
X138994285Y-45571428D01*
X139089523Y-45619047D01*
X139184761Y-45714285D01*
X139232380Y-45857142D01*
X139232380Y-46095238D01*
X139327619Y-45333333D02*
X139327619Y-44571428D01*
X139232380Y-43761904D02*
X138756190Y-44095238D01*
X139232380Y-44333333D02*
X138232380Y-44333333D01*
X138232380Y-43952380D01*
X138280000Y-43857142D01*
X138327619Y-43809523D01*
X138422857Y-43761904D01*
X138565714Y-43761904D01*
X138660952Y-43809523D01*
X138708571Y-43857142D01*
X138756190Y-43952380D01*
X138756190Y-44333333D01*
X138708571Y-43333333D02*
X138708571Y-43000000D01*
X139232380Y-42857142D02*
X139232380Y-43333333D01*
X138232380Y-43333333D01*
X138232380Y-42857142D01*
X139232380Y-42428571D02*
X138232380Y-42428571D01*
X138232380Y-42190476D01*
X138280000Y-42047619D01*
X138375238Y-41952380D01*
X138470476Y-41904761D01*
X138660952Y-41857142D01*
X138803809Y-41857142D01*
X138994285Y-41904761D01*
X139089523Y-41952380D01*
X139184761Y-42047619D01*
X139232380Y-42190476D01*
X139232380Y-42428571D01*
D12*
X140961904Y-44971428D02*
X140161904Y-44971428D01*
X140161904Y-44780952D01*
X140200000Y-44666666D01*
X140276190Y-44590476D01*
X140352380Y-44552380D01*
X140504761Y-44514285D01*
X140619047Y-44514285D01*
X140771428Y-44552380D01*
X140847619Y-44590476D01*
X140923809Y-44666666D01*
X140961904Y-44780952D01*
X140961904Y-44971428D01*
X140961904Y-43752380D02*
X140961904Y-44209523D01*
X140961904Y-43980952D02*
X140161904Y-43980952D01*
X140276190Y-44057142D01*
X140352380Y-44133333D01*
X140390476Y-44209523D01*
X140161904Y-43257142D02*
X140161904Y-43180952D01*
X140200000Y-43104761D01*
X140238095Y-43066666D01*
X140314285Y-43028571D01*
X140466666Y-42990476D01*
X140657142Y-42990476D01*
X140809523Y-43028571D01*
X140885714Y-43066666D01*
X140923809Y-43104761D01*
X140961904Y-43180952D01*
X140961904Y-43257142D01*
X140923809Y-43333333D01*
X140885714Y-43371428D01*
X140809523Y-43409523D01*
X140657142Y-43447619D01*
X140466666Y-43447619D01*
X140314285Y-43409523D01*
X140238095Y-43371428D01*
X140200000Y-43333333D01*
X140161904Y-43257142D01*
D10*
X135632380Y-46095238D02*
X134632380Y-46095238D01*
X134632380Y-45857142D01*
X134680000Y-45714285D01*
X134775238Y-45619047D01*
X134870476Y-45571428D01*
X135060952Y-45523809D01*
X135203809Y-45523809D01*
X135394285Y-45571428D01*
X135489523Y-45619047D01*
X135584761Y-45714285D01*
X135632380Y-45857142D01*
X135632380Y-46095238D01*
X135727619Y-45333333D02*
X135727619Y-44571428D01*
X135632380Y-43761904D02*
X135156190Y-44095238D01*
X135632380Y-44333333D02*
X134632380Y-44333333D01*
X134632380Y-43952380D01*
X134680000Y-43857142D01*
X134727619Y-43809523D01*
X134822857Y-43761904D01*
X134965714Y-43761904D01*
X135060952Y-43809523D01*
X135108571Y-43857142D01*
X135156190Y-43952380D01*
X135156190Y-44333333D01*
X135108571Y-43333333D02*
X135108571Y-43000000D01*
X135632380Y-42857142D02*
X135632380Y-43333333D01*
X134632380Y-43333333D01*
X134632380Y-42857142D01*
X135632380Y-42428571D02*
X134632380Y-42428571D01*
X134632380Y-42190476D01*
X134680000Y-42047619D01*
X134775238Y-41952380D01*
X134870476Y-41904761D01*
X135060952Y-41857142D01*
X135203809Y-41857142D01*
X135394285Y-41904761D01*
X135489523Y-41952380D01*
X135584761Y-42047619D01*
X135632380Y-42190476D01*
X135632380Y-42428571D01*
D12*
X137361904Y-44971428D02*
X136561904Y-44971428D01*
X136561904Y-44780952D01*
X136600000Y-44666666D01*
X136676190Y-44590476D01*
X136752380Y-44552380D01*
X136904761Y-44514285D01*
X137019047Y-44514285D01*
X137171428Y-44552380D01*
X137247619Y-44590476D01*
X137323809Y-44666666D01*
X137361904Y-44780952D01*
X137361904Y-44971428D01*
X137361904Y-43752380D02*
X137361904Y-44209523D01*
X137361904Y-43980952D02*
X136561904Y-43980952D01*
X136676190Y-44057142D01*
X136752380Y-44133333D01*
X136790476Y-44209523D01*
X137361904Y-42990476D02*
X137361904Y-43447619D01*
X137361904Y-43219047D02*
X136561904Y-43219047D01*
X136676190Y-43295238D01*
X136752380Y-43371428D01*
X136790476Y-43447619D01*
D10*
X132032380Y-46095238D02*
X131032380Y-46095238D01*
X131032380Y-45857142D01*
X131080000Y-45714285D01*
X131175238Y-45619047D01*
X131270476Y-45571428D01*
X131460952Y-45523809D01*
X131603809Y-45523809D01*
X131794285Y-45571428D01*
X131889523Y-45619047D01*
X131984761Y-45714285D01*
X132032380Y-45857142D01*
X132032380Y-46095238D01*
X132127619Y-45333333D02*
X132127619Y-44571428D01*
X132032380Y-43761904D02*
X131556190Y-44095238D01*
X132032380Y-44333333D02*
X131032380Y-44333333D01*
X131032380Y-43952380D01*
X131080000Y-43857142D01*
X131127619Y-43809523D01*
X131222857Y-43761904D01*
X131365714Y-43761904D01*
X131460952Y-43809523D01*
X131508571Y-43857142D01*
X131556190Y-43952380D01*
X131556190Y-44333333D01*
X131508571Y-43333333D02*
X131508571Y-43000000D01*
X132032380Y-42857142D02*
X132032380Y-43333333D01*
X131032380Y-43333333D01*
X131032380Y-42857142D01*
X132032380Y-42428571D02*
X131032380Y-42428571D01*
X131032380Y-42190476D01*
X131080000Y-42047619D01*
X131175238Y-41952380D01*
X131270476Y-41904761D01*
X131460952Y-41857142D01*
X131603809Y-41857142D01*
X131794285Y-41904761D01*
X131889523Y-41952380D01*
X131984761Y-42047619D01*
X132032380Y-42190476D01*
X132032380Y-42428571D01*
D12*
X133761904Y-44971428D02*
X132961904Y-44971428D01*
X132961904Y-44780952D01*
X133000000Y-44666666D01*
X133076190Y-44590476D01*
X133152380Y-44552380D01*
X133304761Y-44514285D01*
X133419047Y-44514285D01*
X133571428Y-44552380D01*
X133647619Y-44590476D01*
X133723809Y-44666666D01*
X133761904Y-44780952D01*
X133761904Y-44971428D01*
X133761904Y-43752380D02*
X133761904Y-44209523D01*
X133761904Y-43980952D02*
X132961904Y-43980952D01*
X133076190Y-44057142D01*
X133152380Y-44133333D01*
X133190476Y-44209523D01*
X133038095Y-43447619D02*
X133000000Y-43409523D01*
X132961904Y-43333333D01*
X132961904Y-43142857D01*
X133000000Y-43066666D01*
X133038095Y-43028571D01*
X133114285Y-42990476D01*
X133190476Y-42990476D01*
X133304761Y-43028571D01*
X133761904Y-43485714D01*
X133761904Y-42990476D01*
D10*
X124832380Y-46095238D02*
X123832380Y-46095238D01*
X123832380Y-45857142D01*
X123880000Y-45714285D01*
X123975238Y-45619047D01*
X124070476Y-45571428D01*
X124260952Y-45523809D01*
X124403809Y-45523809D01*
X124594285Y-45571428D01*
X124689523Y-45619047D01*
X124784761Y-45714285D01*
X124832380Y-45857142D01*
X124832380Y-46095238D01*
X124927619Y-45333333D02*
X124927619Y-44571428D01*
X124832380Y-43761904D02*
X124356190Y-44095238D01*
X124832380Y-44333333D02*
X123832380Y-44333333D01*
X123832380Y-43952380D01*
X123880000Y-43857142D01*
X123927619Y-43809523D01*
X124022857Y-43761904D01*
X124165714Y-43761904D01*
X124260952Y-43809523D01*
X124308571Y-43857142D01*
X124356190Y-43952380D01*
X124356190Y-44333333D01*
X124308571Y-43333333D02*
X124308571Y-43000000D01*
X124832380Y-42857142D02*
X124832380Y-43333333D01*
X123832380Y-43333333D01*
X123832380Y-42857142D01*
X124832380Y-42428571D02*
X123832380Y-42428571D01*
X123832380Y-42190476D01*
X123880000Y-42047619D01*
X123975238Y-41952380D01*
X124070476Y-41904761D01*
X124260952Y-41857142D01*
X124403809Y-41857142D01*
X124594285Y-41904761D01*
X124689523Y-41952380D01*
X124784761Y-42047619D01*
X124832380Y-42190476D01*
X124832380Y-42428571D01*
D12*
X126561904Y-44971428D02*
X125761904Y-44971428D01*
X125761904Y-44780952D01*
X125800000Y-44666666D01*
X125876190Y-44590476D01*
X125952380Y-44552380D01*
X126104761Y-44514285D01*
X126219047Y-44514285D01*
X126371428Y-44552380D01*
X126447619Y-44590476D01*
X126523809Y-44666666D01*
X126561904Y-44780952D01*
X126561904Y-44971428D01*
X126561904Y-43752380D02*
X126561904Y-44209523D01*
X126561904Y-43980952D02*
X125761904Y-43980952D01*
X125876190Y-44057142D01*
X125952380Y-44133333D01*
X125990476Y-44209523D01*
X126028571Y-43066666D02*
X126561904Y-43066666D01*
X125723809Y-43257142D02*
X126295238Y-43447619D01*
X126295238Y-42952380D01*
D10*
X121232380Y-46095238D02*
X120232380Y-46095238D01*
X120232380Y-45857142D01*
X120280000Y-45714285D01*
X120375238Y-45619047D01*
X120470476Y-45571428D01*
X120660952Y-45523809D01*
X120803809Y-45523809D01*
X120994285Y-45571428D01*
X121089523Y-45619047D01*
X121184761Y-45714285D01*
X121232380Y-45857142D01*
X121232380Y-46095238D01*
X121327619Y-45333333D02*
X121327619Y-44571428D01*
X121232380Y-43761904D02*
X120756190Y-44095238D01*
X121232380Y-44333333D02*
X120232380Y-44333333D01*
X120232380Y-43952380D01*
X120280000Y-43857142D01*
X120327619Y-43809523D01*
X120422857Y-43761904D01*
X120565714Y-43761904D01*
X120660952Y-43809523D01*
X120708571Y-43857142D01*
X120756190Y-43952380D01*
X120756190Y-44333333D01*
X120708571Y-43333333D02*
X120708571Y-43000000D01*
X121232380Y-42857142D02*
X121232380Y-43333333D01*
X120232380Y-43333333D01*
X120232380Y-42857142D01*
X121232380Y-42428571D02*
X120232380Y-42428571D01*
X120232380Y-42190476D01*
X120280000Y-42047619D01*
X120375238Y-41952380D01*
X120470476Y-41904761D01*
X120660952Y-41857142D01*
X120803809Y-41857142D01*
X120994285Y-41904761D01*
X121089523Y-41952380D01*
X121184761Y-42047619D01*
X121232380Y-42190476D01*
X121232380Y-42428571D01*
D12*
X122961904Y-44971428D02*
X122161904Y-44971428D01*
X122161904Y-44780952D01*
X122200000Y-44666666D01*
X122276190Y-44590476D01*
X122352380Y-44552380D01*
X122504761Y-44514285D01*
X122619047Y-44514285D01*
X122771428Y-44552380D01*
X122847619Y-44590476D01*
X122923809Y-44666666D01*
X122961904Y-44780952D01*
X122961904Y-44971428D01*
X122961904Y-43752380D02*
X122961904Y-44209523D01*
X122961904Y-43980952D02*
X122161904Y-43980952D01*
X122276190Y-44057142D01*
X122352380Y-44133333D01*
X122390476Y-44209523D01*
X122161904Y-43028571D02*
X122161904Y-43409523D01*
X122542857Y-43447619D01*
X122504761Y-43409523D01*
X122466666Y-43333333D01*
X122466666Y-43142857D01*
X122504761Y-43066666D01*
X122542857Y-43028571D01*
X122619047Y-42990476D01*
X122809523Y-42990476D01*
X122885714Y-43028571D01*
X122923809Y-43066666D01*
X122961904Y-43142857D01*
X122961904Y-43333333D01*
X122923809Y-43409523D01*
X122885714Y-43447619D01*
D10*
X117632380Y-46095238D02*
X116632380Y-46095238D01*
X116632380Y-45857142D01*
X116680000Y-45714285D01*
X116775238Y-45619047D01*
X116870476Y-45571428D01*
X117060952Y-45523809D01*
X117203809Y-45523809D01*
X117394285Y-45571428D01*
X117489523Y-45619047D01*
X117584761Y-45714285D01*
X117632380Y-45857142D01*
X117632380Y-46095238D01*
X117727619Y-45333333D02*
X117727619Y-44571428D01*
X117632380Y-43761904D02*
X117156190Y-44095238D01*
X117632380Y-44333333D02*
X116632380Y-44333333D01*
X116632380Y-43952380D01*
X116680000Y-43857142D01*
X116727619Y-43809523D01*
X116822857Y-43761904D01*
X116965714Y-43761904D01*
X117060952Y-43809523D01*
X117108571Y-43857142D01*
X117156190Y-43952380D01*
X117156190Y-44333333D01*
X117108571Y-43333333D02*
X117108571Y-43000000D01*
X117632380Y-42857142D02*
X117632380Y-43333333D01*
X116632380Y-43333333D01*
X116632380Y-42857142D01*
X117632380Y-42428571D02*
X116632380Y-42428571D01*
X116632380Y-42190476D01*
X116680000Y-42047619D01*
X116775238Y-41952380D01*
X116870476Y-41904761D01*
X117060952Y-41857142D01*
X117203809Y-41857142D01*
X117394285Y-41904761D01*
X117489523Y-41952380D01*
X117584761Y-42047619D01*
X117632380Y-42190476D01*
X117632380Y-42428571D01*
D12*
X119361904Y-44971428D02*
X118561904Y-44971428D01*
X118561904Y-44780952D01*
X118600000Y-44666666D01*
X118676190Y-44590476D01*
X118752380Y-44552380D01*
X118904761Y-44514285D01*
X119019047Y-44514285D01*
X119171428Y-44552380D01*
X119247619Y-44590476D01*
X119323809Y-44666666D01*
X119361904Y-44780952D01*
X119361904Y-44971428D01*
X119361904Y-43752380D02*
X119361904Y-44209523D01*
X119361904Y-43980952D02*
X118561904Y-43980952D01*
X118676190Y-44057142D01*
X118752380Y-44133333D01*
X118790476Y-44209523D01*
X118561904Y-43066666D02*
X118561904Y-43219047D01*
X118600000Y-43295238D01*
X118638095Y-43333333D01*
X118752380Y-43409523D01*
X118904761Y-43447619D01*
X119209523Y-43447619D01*
X119285714Y-43409523D01*
X119323809Y-43371428D01*
X119361904Y-43295238D01*
X119361904Y-43142857D01*
X119323809Y-43066666D01*
X119285714Y-43028571D01*
X119209523Y-42990476D01*
X119019047Y-42990476D01*
X118942857Y-43028571D01*
X118904761Y-43066666D01*
X118866666Y-43142857D01*
X118866666Y-43295238D01*
X118904761Y-43371428D01*
X118942857Y-43409523D01*
X119019047Y-43447619D01*
D10*
X204032380Y-47095238D02*
X203032380Y-47095238D01*
X203032380Y-46857142D01*
X203080000Y-46714285D01*
X203175238Y-46619047D01*
X203270476Y-46571428D01*
X203460952Y-46523809D01*
X203603809Y-46523809D01*
X203794285Y-46571428D01*
X203889523Y-46619047D01*
X203984761Y-46714285D01*
X204032380Y-46857142D01*
X204032380Y-47095238D01*
X204127619Y-46333333D02*
X204127619Y-45571428D01*
X203746666Y-45380952D02*
X203746666Y-44904761D01*
X204032380Y-45476190D02*
X203032380Y-45142857D01*
X204032380Y-44809523D01*
X204032380Y-44476190D02*
X203032380Y-44476190D01*
X203746666Y-44142857D01*
X203032380Y-43809523D01*
X204032380Y-43809523D01*
X203508571Y-43000000D02*
X203556190Y-42857142D01*
X203603809Y-42809523D01*
X203699047Y-42761904D01*
X203841904Y-42761904D01*
X203937142Y-42809523D01*
X203984761Y-42857142D01*
X204032380Y-42952380D01*
X204032380Y-43333333D01*
X203032380Y-43333333D01*
X203032380Y-43000000D01*
X203080000Y-42904761D01*
X203127619Y-42857142D01*
X203222857Y-42809523D01*
X203318095Y-42809523D01*
X203413333Y-42857142D01*
X203460952Y-42904761D01*
X203508571Y-43000000D01*
X203508571Y-43333333D01*
X203508571Y-42333333D02*
X203508571Y-42000000D01*
X204032380Y-41857142D02*
X204032380Y-42333333D01*
X203032380Y-42333333D01*
X203032380Y-41857142D01*
X204032380Y-40857142D02*
X203556190Y-41190476D01*
X204032380Y-41428571D02*
X203032380Y-41428571D01*
X203032380Y-41047619D01*
X203080000Y-40952380D01*
X203127619Y-40904761D01*
X203222857Y-40857142D01*
X203365714Y-40857142D01*
X203460952Y-40904761D01*
X203508571Y-40952380D01*
X203556190Y-41047619D01*
X203556190Y-41428571D01*
D12*
X205761904Y-44971428D02*
X204961904Y-44971428D01*
X204961904Y-44780952D01*
X205000000Y-44666666D01*
X205076190Y-44590476D01*
X205152380Y-44552380D01*
X205304761Y-44514285D01*
X205419047Y-44514285D01*
X205571428Y-44552380D01*
X205647619Y-44590476D01*
X205723809Y-44666666D01*
X205761904Y-44780952D01*
X205761904Y-44971428D01*
X205761904Y-43752380D02*
X205761904Y-44209523D01*
X205761904Y-43980952D02*
X204961904Y-43980952D01*
X205076190Y-44057142D01*
X205152380Y-44133333D01*
X205190476Y-44209523D01*
X204961904Y-43485714D02*
X204961904Y-42952380D01*
X205761904Y-43295238D01*
D10*
X200432380Y-47095238D02*
X199432380Y-47095238D01*
X199432380Y-46857142D01*
X199480000Y-46714285D01*
X199575238Y-46619047D01*
X199670476Y-46571428D01*
X199860952Y-46523809D01*
X200003809Y-46523809D01*
X200194285Y-46571428D01*
X200289523Y-46619047D01*
X200384761Y-46714285D01*
X200432380Y-46857142D01*
X200432380Y-47095238D01*
X200527619Y-46333333D02*
X200527619Y-45571428D01*
X200146666Y-45380952D02*
X200146666Y-44904761D01*
X200432380Y-45476190D02*
X199432380Y-45142857D01*
X200432380Y-44809523D01*
X200432380Y-44476190D02*
X199432380Y-44476190D01*
X200146666Y-44142857D01*
X199432380Y-43809523D01*
X200432380Y-43809523D01*
X199908571Y-43000000D02*
X199956190Y-42857142D01*
X200003809Y-42809523D01*
X200099047Y-42761904D01*
X200241904Y-42761904D01*
X200337142Y-42809523D01*
X200384761Y-42857142D01*
X200432380Y-42952380D01*
X200432380Y-43333333D01*
X199432380Y-43333333D01*
X199432380Y-43000000D01*
X199480000Y-42904761D01*
X199527619Y-42857142D01*
X199622857Y-42809523D01*
X199718095Y-42809523D01*
X199813333Y-42857142D01*
X199860952Y-42904761D01*
X199908571Y-43000000D01*
X199908571Y-43333333D01*
X199908571Y-42333333D02*
X199908571Y-42000000D01*
X200432380Y-41857142D02*
X200432380Y-42333333D01*
X199432380Y-42333333D01*
X199432380Y-41857142D01*
X200432380Y-40857142D02*
X199956190Y-41190476D01*
X200432380Y-41428571D02*
X199432380Y-41428571D01*
X199432380Y-41047619D01*
X199480000Y-40952380D01*
X199527619Y-40904761D01*
X199622857Y-40857142D01*
X199765714Y-40857142D01*
X199860952Y-40904761D01*
X199908571Y-40952380D01*
X199956190Y-41047619D01*
X199956190Y-41428571D01*
D12*
X202161904Y-44971428D02*
X201361904Y-44971428D01*
X201361904Y-44780952D01*
X201400000Y-44666666D01*
X201476190Y-44590476D01*
X201552380Y-44552380D01*
X201704761Y-44514285D01*
X201819047Y-44514285D01*
X201971428Y-44552380D01*
X202047619Y-44590476D01*
X202123809Y-44666666D01*
X202161904Y-44780952D01*
X202161904Y-44971428D01*
X202161904Y-43752380D02*
X202161904Y-44209523D01*
X202161904Y-43980952D02*
X201361904Y-43980952D01*
X201476190Y-44057142D01*
X201552380Y-44133333D01*
X201590476Y-44209523D01*
X201704761Y-43295238D02*
X201666666Y-43371428D01*
X201628571Y-43409523D01*
X201552380Y-43447619D01*
X201514285Y-43447619D01*
X201438095Y-43409523D01*
X201400000Y-43371428D01*
X201361904Y-43295238D01*
X201361904Y-43142857D01*
X201400000Y-43066666D01*
X201438095Y-43028571D01*
X201514285Y-42990476D01*
X201552380Y-42990476D01*
X201628571Y-43028571D01*
X201666666Y-43066666D01*
X201704761Y-43142857D01*
X201704761Y-43295238D01*
X201742857Y-43371428D01*
X201780952Y-43409523D01*
X201857142Y-43447619D01*
X202009523Y-43447619D01*
X202085714Y-43409523D01*
X202123809Y-43371428D01*
X202161904Y-43295238D01*
X202161904Y-43142857D01*
X202123809Y-43066666D01*
X202085714Y-43028571D01*
X202009523Y-42990476D01*
X201857142Y-42990476D01*
X201780952Y-43028571D01*
X201742857Y-43066666D01*
X201704761Y-43142857D01*
D10*
X196832380Y-47095238D02*
X195832380Y-47095238D01*
X195832380Y-46857142D01*
X195880000Y-46714285D01*
X195975238Y-46619047D01*
X196070476Y-46571428D01*
X196260952Y-46523809D01*
X196403809Y-46523809D01*
X196594285Y-46571428D01*
X196689523Y-46619047D01*
X196784761Y-46714285D01*
X196832380Y-46857142D01*
X196832380Y-47095238D01*
X196927619Y-46333333D02*
X196927619Y-45571428D01*
X196546666Y-45380952D02*
X196546666Y-44904761D01*
X196832380Y-45476190D02*
X195832380Y-45142857D01*
X196832380Y-44809523D01*
X196832380Y-44476190D02*
X195832380Y-44476190D01*
X196546666Y-44142857D01*
X195832380Y-43809523D01*
X196832380Y-43809523D01*
X196308571Y-43000000D02*
X196356190Y-42857142D01*
X196403809Y-42809523D01*
X196499047Y-42761904D01*
X196641904Y-42761904D01*
X196737142Y-42809523D01*
X196784761Y-42857142D01*
X196832380Y-42952380D01*
X196832380Y-43333333D01*
X195832380Y-43333333D01*
X195832380Y-43000000D01*
X195880000Y-42904761D01*
X195927619Y-42857142D01*
X196022857Y-42809523D01*
X196118095Y-42809523D01*
X196213333Y-42857142D01*
X196260952Y-42904761D01*
X196308571Y-43000000D01*
X196308571Y-43333333D01*
X196308571Y-42333333D02*
X196308571Y-42000000D01*
X196832380Y-41857142D02*
X196832380Y-42333333D01*
X195832380Y-42333333D01*
X195832380Y-41857142D01*
X196832380Y-40857142D02*
X196356190Y-41190476D01*
X196832380Y-41428571D02*
X195832380Y-41428571D01*
X195832380Y-41047619D01*
X195880000Y-40952380D01*
X195927619Y-40904761D01*
X196022857Y-40857142D01*
X196165714Y-40857142D01*
X196260952Y-40904761D01*
X196308571Y-40952380D01*
X196356190Y-41047619D01*
X196356190Y-41428571D01*
D12*
X198561904Y-44971428D02*
X197761904Y-44971428D01*
X197761904Y-44780952D01*
X197800000Y-44666666D01*
X197876190Y-44590476D01*
X197952380Y-44552380D01*
X198104761Y-44514285D01*
X198219047Y-44514285D01*
X198371428Y-44552380D01*
X198447619Y-44590476D01*
X198523809Y-44666666D01*
X198561904Y-44780952D01*
X198561904Y-44971428D01*
X198561904Y-43752380D02*
X198561904Y-44209523D01*
X198561904Y-43980952D02*
X197761904Y-43980952D01*
X197876190Y-44057142D01*
X197952380Y-44133333D01*
X197990476Y-44209523D01*
X198561904Y-43371428D02*
X198561904Y-43219047D01*
X198523809Y-43142857D01*
X198485714Y-43104761D01*
X198371428Y-43028571D01*
X198219047Y-42990476D01*
X197914285Y-42990476D01*
X197838095Y-43028571D01*
X197800000Y-43066666D01*
X197761904Y-43142857D01*
X197761904Y-43295238D01*
X197800000Y-43371428D01*
X197838095Y-43409523D01*
X197914285Y-43447619D01*
X198104761Y-43447619D01*
X198180952Y-43409523D01*
X198219047Y-43371428D01*
X198257142Y-43295238D01*
X198257142Y-43142857D01*
X198219047Y-43066666D01*
X198180952Y-43028571D01*
X198104761Y-42990476D01*
D10*
X193232380Y-47095238D02*
X192232380Y-47095238D01*
X192232380Y-46857142D01*
X192280000Y-46714285D01*
X192375238Y-46619047D01*
X192470476Y-46571428D01*
X192660952Y-46523809D01*
X192803809Y-46523809D01*
X192994285Y-46571428D01*
X193089523Y-46619047D01*
X193184761Y-46714285D01*
X193232380Y-46857142D01*
X193232380Y-47095238D01*
X193327619Y-46333333D02*
X193327619Y-45571428D01*
X192946666Y-45380952D02*
X192946666Y-44904761D01*
X193232380Y-45476190D02*
X192232380Y-45142857D01*
X193232380Y-44809523D01*
X193232380Y-44476190D02*
X192232380Y-44476190D01*
X192946666Y-44142857D01*
X192232380Y-43809523D01*
X193232380Y-43809523D01*
X192708571Y-43000000D02*
X192756190Y-42857142D01*
X192803809Y-42809523D01*
X192899047Y-42761904D01*
X193041904Y-42761904D01*
X193137142Y-42809523D01*
X193184761Y-42857142D01*
X193232380Y-42952380D01*
X193232380Y-43333333D01*
X192232380Y-43333333D01*
X192232380Y-43000000D01*
X192280000Y-42904761D01*
X192327619Y-42857142D01*
X192422857Y-42809523D01*
X192518095Y-42809523D01*
X192613333Y-42857142D01*
X192660952Y-42904761D01*
X192708571Y-43000000D01*
X192708571Y-43333333D01*
X192708571Y-42333333D02*
X192708571Y-42000000D01*
X193232380Y-41857142D02*
X193232380Y-42333333D01*
X192232380Y-42333333D01*
X192232380Y-41857142D01*
X193232380Y-40857142D02*
X192756190Y-41190476D01*
X193232380Y-41428571D02*
X192232380Y-41428571D01*
X192232380Y-41047619D01*
X192280000Y-40952380D01*
X192327619Y-40904761D01*
X192422857Y-40857142D01*
X192565714Y-40857142D01*
X192660952Y-40904761D01*
X192708571Y-40952380D01*
X192756190Y-41047619D01*
X192756190Y-41428571D01*
D12*
X194961904Y-44971428D02*
X194161904Y-44971428D01*
X194161904Y-44780952D01*
X194200000Y-44666666D01*
X194276190Y-44590476D01*
X194352380Y-44552380D01*
X194504761Y-44514285D01*
X194619047Y-44514285D01*
X194771428Y-44552380D01*
X194847619Y-44590476D01*
X194923809Y-44666666D01*
X194961904Y-44780952D01*
X194961904Y-44971428D01*
X194238095Y-44209523D02*
X194200000Y-44171428D01*
X194161904Y-44095238D01*
X194161904Y-43904761D01*
X194200000Y-43828571D01*
X194238095Y-43790476D01*
X194314285Y-43752380D01*
X194390476Y-43752380D01*
X194504761Y-43790476D01*
X194961904Y-44247619D01*
X194961904Y-43752380D01*
X194161904Y-43257142D02*
X194161904Y-43180952D01*
X194200000Y-43104761D01*
X194238095Y-43066666D01*
X194314285Y-43028571D01*
X194466666Y-42990476D01*
X194657142Y-42990476D01*
X194809523Y-43028571D01*
X194885714Y-43066666D01*
X194923809Y-43104761D01*
X194961904Y-43180952D01*
X194961904Y-43257142D01*
X194923809Y-43333333D01*
X194885714Y-43371428D01*
X194809523Y-43409523D01*
X194657142Y-43447619D01*
X194466666Y-43447619D01*
X194314285Y-43409523D01*
X194238095Y-43371428D01*
X194200000Y-43333333D01*
X194161904Y-43257142D01*
D10*
X189632380Y-47095238D02*
X188632380Y-47095238D01*
X188632380Y-46857142D01*
X188680000Y-46714285D01*
X188775238Y-46619047D01*
X188870476Y-46571428D01*
X189060952Y-46523809D01*
X189203809Y-46523809D01*
X189394285Y-46571428D01*
X189489523Y-46619047D01*
X189584761Y-46714285D01*
X189632380Y-46857142D01*
X189632380Y-47095238D01*
X189727619Y-46333333D02*
X189727619Y-45571428D01*
X189346666Y-45380952D02*
X189346666Y-44904761D01*
X189632380Y-45476190D02*
X188632380Y-45142857D01*
X189632380Y-44809523D01*
X189632380Y-44476190D02*
X188632380Y-44476190D01*
X189346666Y-44142857D01*
X188632380Y-43809523D01*
X189632380Y-43809523D01*
X189108571Y-43000000D02*
X189156190Y-42857142D01*
X189203809Y-42809523D01*
X189299047Y-42761904D01*
X189441904Y-42761904D01*
X189537142Y-42809523D01*
X189584761Y-42857142D01*
X189632380Y-42952380D01*
X189632380Y-43333333D01*
X188632380Y-43333333D01*
X188632380Y-43000000D01*
X188680000Y-42904761D01*
X188727619Y-42857142D01*
X188822857Y-42809523D01*
X188918095Y-42809523D01*
X189013333Y-42857142D01*
X189060952Y-42904761D01*
X189108571Y-43000000D01*
X189108571Y-43333333D01*
X189108571Y-42333333D02*
X189108571Y-42000000D01*
X189632380Y-41857142D02*
X189632380Y-42333333D01*
X188632380Y-42333333D01*
X188632380Y-41857142D01*
X189632380Y-40857142D02*
X189156190Y-41190476D01*
X189632380Y-41428571D02*
X188632380Y-41428571D01*
X188632380Y-41047619D01*
X188680000Y-40952380D01*
X188727619Y-40904761D01*
X188822857Y-40857142D01*
X188965714Y-40857142D01*
X189060952Y-40904761D01*
X189108571Y-40952380D01*
X189156190Y-41047619D01*
X189156190Y-41428571D01*
D12*
X191361904Y-44971428D02*
X190561904Y-44971428D01*
X190561904Y-44780952D01*
X190600000Y-44666666D01*
X190676190Y-44590476D01*
X190752380Y-44552380D01*
X190904761Y-44514285D01*
X191019047Y-44514285D01*
X191171428Y-44552380D01*
X191247619Y-44590476D01*
X191323809Y-44666666D01*
X191361904Y-44780952D01*
X191361904Y-44971428D01*
X190638095Y-44209523D02*
X190600000Y-44171428D01*
X190561904Y-44095238D01*
X190561904Y-43904761D01*
X190600000Y-43828571D01*
X190638095Y-43790476D01*
X190714285Y-43752380D01*
X190790476Y-43752380D01*
X190904761Y-43790476D01*
X191361904Y-44247619D01*
X191361904Y-43752380D01*
X191361904Y-42990476D02*
X191361904Y-43447619D01*
X191361904Y-43219047D02*
X190561904Y-43219047D01*
X190676190Y-43295238D01*
X190752380Y-43371428D01*
X190790476Y-43447619D01*
D10*
X186032380Y-47095238D02*
X185032380Y-47095238D01*
X185032380Y-46857142D01*
X185080000Y-46714285D01*
X185175238Y-46619047D01*
X185270476Y-46571428D01*
X185460952Y-46523809D01*
X185603809Y-46523809D01*
X185794285Y-46571428D01*
X185889523Y-46619047D01*
X185984761Y-46714285D01*
X186032380Y-46857142D01*
X186032380Y-47095238D01*
X186127619Y-46333333D02*
X186127619Y-45571428D01*
X185746666Y-45380952D02*
X185746666Y-44904761D01*
X186032380Y-45476190D02*
X185032380Y-45142857D01*
X186032380Y-44809523D01*
X186032380Y-44476190D02*
X185032380Y-44476190D01*
X185746666Y-44142857D01*
X185032380Y-43809523D01*
X186032380Y-43809523D01*
X185508571Y-43000000D02*
X185556190Y-42857142D01*
X185603809Y-42809523D01*
X185699047Y-42761904D01*
X185841904Y-42761904D01*
X185937142Y-42809523D01*
X185984761Y-42857142D01*
X186032380Y-42952380D01*
X186032380Y-43333333D01*
X185032380Y-43333333D01*
X185032380Y-43000000D01*
X185080000Y-42904761D01*
X185127619Y-42857142D01*
X185222857Y-42809523D01*
X185318095Y-42809523D01*
X185413333Y-42857142D01*
X185460952Y-42904761D01*
X185508571Y-43000000D01*
X185508571Y-43333333D01*
X185508571Y-42333333D02*
X185508571Y-42000000D01*
X186032380Y-41857142D02*
X186032380Y-42333333D01*
X185032380Y-42333333D01*
X185032380Y-41857142D01*
X186032380Y-40857142D02*
X185556190Y-41190476D01*
X186032380Y-41428571D02*
X185032380Y-41428571D01*
X185032380Y-41047619D01*
X185080000Y-40952380D01*
X185127619Y-40904761D01*
X185222857Y-40857142D01*
X185365714Y-40857142D01*
X185460952Y-40904761D01*
X185508571Y-40952380D01*
X185556190Y-41047619D01*
X185556190Y-41428571D01*
D12*
X187761904Y-44971428D02*
X186961904Y-44971428D01*
X186961904Y-44780952D01*
X187000000Y-44666666D01*
X187076190Y-44590476D01*
X187152380Y-44552380D01*
X187304761Y-44514285D01*
X187419047Y-44514285D01*
X187571428Y-44552380D01*
X187647619Y-44590476D01*
X187723809Y-44666666D01*
X187761904Y-44780952D01*
X187761904Y-44971428D01*
X187038095Y-44209523D02*
X187000000Y-44171428D01*
X186961904Y-44095238D01*
X186961904Y-43904761D01*
X187000000Y-43828571D01*
X187038095Y-43790476D01*
X187114285Y-43752380D01*
X187190476Y-43752380D01*
X187304761Y-43790476D01*
X187761904Y-44247619D01*
X187761904Y-43752380D01*
X187038095Y-43447619D02*
X187000000Y-43409523D01*
X186961904Y-43333333D01*
X186961904Y-43142857D01*
X187000000Y-43066666D01*
X187038095Y-43028571D01*
X187114285Y-42990476D01*
X187190476Y-42990476D01*
X187304761Y-43028571D01*
X187761904Y-43485714D01*
X187761904Y-42990476D01*
D10*
X182432380Y-47095238D02*
X181432380Y-47095238D01*
X181432380Y-46857142D01*
X181480000Y-46714285D01*
X181575238Y-46619047D01*
X181670476Y-46571428D01*
X181860952Y-46523809D01*
X182003809Y-46523809D01*
X182194285Y-46571428D01*
X182289523Y-46619047D01*
X182384761Y-46714285D01*
X182432380Y-46857142D01*
X182432380Y-47095238D01*
X182527619Y-46333333D02*
X182527619Y-45571428D01*
X182146666Y-45380952D02*
X182146666Y-44904761D01*
X182432380Y-45476190D02*
X181432380Y-45142857D01*
X182432380Y-44809523D01*
X182432380Y-44476190D02*
X181432380Y-44476190D01*
X182146666Y-44142857D01*
X181432380Y-43809523D01*
X182432380Y-43809523D01*
X181908571Y-43000000D02*
X181956190Y-42857142D01*
X182003809Y-42809523D01*
X182099047Y-42761904D01*
X182241904Y-42761904D01*
X182337142Y-42809523D01*
X182384761Y-42857142D01*
X182432380Y-42952380D01*
X182432380Y-43333333D01*
X181432380Y-43333333D01*
X181432380Y-43000000D01*
X181480000Y-42904761D01*
X181527619Y-42857142D01*
X181622857Y-42809523D01*
X181718095Y-42809523D01*
X181813333Y-42857142D01*
X181860952Y-42904761D01*
X181908571Y-43000000D01*
X181908571Y-43333333D01*
X181908571Y-42333333D02*
X181908571Y-42000000D01*
X182432380Y-41857142D02*
X182432380Y-42333333D01*
X181432380Y-42333333D01*
X181432380Y-41857142D01*
X182432380Y-40857142D02*
X181956190Y-41190476D01*
X182432380Y-41428571D02*
X181432380Y-41428571D01*
X181432380Y-41047619D01*
X181480000Y-40952380D01*
X181527619Y-40904761D01*
X181622857Y-40857142D01*
X181765714Y-40857142D01*
X181860952Y-40904761D01*
X181908571Y-40952380D01*
X181956190Y-41047619D01*
X181956190Y-41428571D01*
D12*
X184161904Y-44971428D02*
X183361904Y-44971428D01*
X183361904Y-44780952D01*
X183400000Y-44666666D01*
X183476190Y-44590476D01*
X183552380Y-44552380D01*
X183704761Y-44514285D01*
X183819047Y-44514285D01*
X183971428Y-44552380D01*
X184047619Y-44590476D01*
X184123809Y-44666666D01*
X184161904Y-44780952D01*
X184161904Y-44971428D01*
X183438095Y-44209523D02*
X183400000Y-44171428D01*
X183361904Y-44095238D01*
X183361904Y-43904761D01*
X183400000Y-43828571D01*
X183438095Y-43790476D01*
X183514285Y-43752380D01*
X183590476Y-43752380D01*
X183704761Y-43790476D01*
X184161904Y-44247619D01*
X184161904Y-43752380D01*
X183361904Y-43485714D02*
X183361904Y-42990476D01*
X183666666Y-43257142D01*
X183666666Y-43142857D01*
X183704761Y-43066666D01*
X183742857Y-43028571D01*
X183819047Y-42990476D01*
X184009523Y-42990476D01*
X184085714Y-43028571D01*
X184123809Y-43066666D01*
X184161904Y-43142857D01*
X184161904Y-43371428D01*
X184123809Y-43447619D01*
X184085714Y-43485714D01*
D10*
X154856666Y-111672380D02*
X154856666Y-112386666D01*
X154809047Y-112529523D01*
X154713809Y-112624761D01*
X154570952Y-112672380D01*
X154475714Y-112672380D01*
X155856666Y-112672380D02*
X155285238Y-112672380D01*
X155570952Y-112672380D02*
X155570952Y-111672380D01*
X155475714Y-111815238D01*
X155380476Y-111910476D01*
X155285238Y-111958095D01*
X179290000Y-112148571D02*
X179432857Y-112196190D01*
X179480476Y-112243809D01*
X179528095Y-112339047D01*
X179528095Y-112481904D01*
X179480476Y-112577142D01*
X179432857Y-112624761D01*
X179337619Y-112672380D01*
X178956666Y-112672380D01*
X178956666Y-111672380D01*
X179290000Y-111672380D01*
X179385238Y-111720000D01*
X179432857Y-111767619D01*
X179480476Y-111862857D01*
X179480476Y-111958095D01*
X179432857Y-112053333D01*
X179385238Y-112100952D01*
X179290000Y-112148571D01*
X178956666Y-112148571D01*
X180385238Y-112005714D02*
X180385238Y-112672380D01*
X179956666Y-112005714D02*
X179956666Y-112529523D01*
X180004285Y-112624761D01*
X180099523Y-112672380D01*
X180242380Y-112672380D01*
X180337619Y-112624761D01*
X180385238Y-112577142D01*
X180813809Y-112624761D02*
X180909047Y-112672380D01*
X181099523Y-112672380D01*
X181194761Y-112624761D01*
X181242380Y-112529523D01*
X181242380Y-112481904D01*
X181194761Y-112386666D01*
X181099523Y-112339047D01*
X180956666Y-112339047D01*
X180861428Y-112291428D01*
X180813809Y-112196190D01*
X180813809Y-112148571D01*
X180861428Y-112053333D01*
X180956666Y-112005714D01*
X181099523Y-112005714D01*
X181194761Y-112053333D01*
X181432857Y-112767619D02*
X182194761Y-112767619D01*
X182432857Y-112672380D02*
X182432857Y-111672380D01*
X182813809Y-111672380D01*
X182909047Y-111720000D01*
X182956666Y-111767619D01*
X183004285Y-111862857D01*
X183004285Y-112005714D01*
X182956666Y-112100952D01*
X182909047Y-112148571D01*
X182813809Y-112196190D01*
X182432857Y-112196190D01*
X184004285Y-112577142D02*
X183956666Y-112624761D01*
X183813809Y-112672380D01*
X183718571Y-112672380D01*
X183575714Y-112624761D01*
X183480476Y-112529523D01*
X183432857Y-112434285D01*
X183385238Y-112243809D01*
X183385238Y-112100952D01*
X183432857Y-111910476D01*
X183480476Y-111815238D01*
X183575714Y-111720000D01*
X183718571Y-111672380D01*
X183813809Y-111672380D01*
X183956666Y-111720000D01*
X184004285Y-111767619D01*
X184432857Y-112672380D02*
X184432857Y-111672380D01*
X184670952Y-112767619D02*
X185432857Y-112767619D01*
X185575714Y-111672380D02*
X186194761Y-111672380D01*
X185861428Y-112053333D01*
X186004285Y-112053333D01*
X186099523Y-112100952D01*
X186147142Y-112148571D01*
X186194761Y-112243809D01*
X186194761Y-112481904D01*
X186147142Y-112577142D01*
X186099523Y-112624761D01*
X186004285Y-112672380D01*
X185718571Y-112672380D01*
X185623333Y-112624761D01*
X185575714Y-112577142D01*
X186575714Y-111767619D02*
X186623333Y-111720000D01*
X186718571Y-111672380D01*
X186956666Y-111672380D01*
X187051904Y-111720000D01*
X187099523Y-111767619D01*
X187147142Y-111862857D01*
X187147142Y-111958095D01*
X187099523Y-112100952D01*
X186528095Y-112672380D01*
X187147142Y-112672380D01*
X187575714Y-112672380D02*
X187575714Y-111672380D01*
X187575714Y-112053333D02*
X187670952Y-112005714D01*
X187861428Y-112005714D01*
X187956666Y-112053333D01*
X188004285Y-112100952D01*
X188051904Y-112196190D01*
X188051904Y-112481904D01*
X188004285Y-112577142D01*
X187956666Y-112624761D01*
X187861428Y-112672380D01*
X187670952Y-112672380D01*
X187575714Y-112624761D01*
X188480476Y-112672380D02*
X188480476Y-112005714D01*
X188480476Y-111672380D02*
X188432857Y-111720000D01*
X188480476Y-111767619D01*
X188528095Y-111720000D01*
X188480476Y-111672380D01*
X188480476Y-111767619D01*
X188813809Y-112005714D02*
X189194761Y-112005714D01*
X188956666Y-111672380D02*
X188956666Y-112529523D01*
X189004285Y-112624761D01*
X189099523Y-112672380D01*
X189194761Y-112672380D01*
X189290000Y-112767619D02*
X190051904Y-112767619D01*
X190766190Y-111672380D02*
X190290000Y-111672380D01*
X190242380Y-112148571D01*
X190290000Y-112100952D01*
X190385238Y-112053333D01*
X190623333Y-112053333D01*
X190718571Y-112100952D01*
X190766190Y-112148571D01*
X190813809Y-112243809D01*
X190813809Y-112481904D01*
X190766190Y-112577142D01*
X190718571Y-112624761D01*
X190623333Y-112672380D01*
X190385238Y-112672380D01*
X190290000Y-112624761D01*
X190242380Y-112577142D01*
X191099523Y-111672380D02*
X191432857Y-112672380D01*
X191766190Y-111672380D01*
X166666666Y-116692380D02*
X166666666Y-117406666D01*
X166619047Y-117549523D01*
X166523809Y-117644761D01*
X166380952Y-117692380D01*
X166285714Y-117692380D01*
X167666666Y-117692380D02*
X167095238Y-117692380D01*
X167380952Y-117692380D02*
X167380952Y-116692380D01*
X167285714Y-116835238D01*
X167190476Y-116930476D01*
X167095238Y-116978095D01*
X144347619Y-53938095D02*
X144300000Y-53890476D01*
X144252380Y-53795238D01*
X144252380Y-53557142D01*
X144300000Y-53461904D01*
X144347619Y-53414285D01*
X144442857Y-53366666D01*
X144538095Y-53366666D01*
X144680952Y-53414285D01*
X145252380Y-53985714D01*
X145252380Y-53366666D01*
X144347619Y-52985714D02*
X144300000Y-52938095D01*
X144252380Y-52842857D01*
X144252380Y-52604761D01*
X144300000Y-52509523D01*
X144347619Y-52461904D01*
X144442857Y-52414285D01*
X144538095Y-52414285D01*
X144680952Y-52461904D01*
X145252380Y-53033333D01*
X145252380Y-52414285D01*
X144252380Y-51795238D02*
X144252380Y-51700000D01*
X144300000Y-51604761D01*
X144347619Y-51557142D01*
X144442857Y-51509523D01*
X144633333Y-51461904D01*
X144871428Y-51461904D01*
X145061904Y-51509523D01*
X145157142Y-51557142D01*
X145204761Y-51604761D01*
X145252380Y-51700000D01*
X145252380Y-51795238D01*
X145204761Y-51890476D01*
X145157142Y-51938095D01*
X145061904Y-51985714D01*
X144871428Y-52033333D01*
X144633333Y-52033333D01*
X144442857Y-51985714D01*
X144347619Y-51938095D01*
X144300000Y-51890476D01*
X144252380Y-51795238D01*
X145252380Y-50461904D02*
X144776190Y-50795238D01*
X145252380Y-51033333D02*
X144252380Y-51033333D01*
X144252380Y-50652380D01*
X144300000Y-50557142D01*
X144347619Y-50509523D01*
X144442857Y-50461904D01*
X144585714Y-50461904D01*
X144680952Y-50509523D01*
X144728571Y-50557142D01*
X144776190Y-50652380D01*
X144776190Y-51033333D01*
X147109523Y-52652380D02*
X146776190Y-52176190D01*
X146538095Y-52652380D02*
X146538095Y-51652380D01*
X146919047Y-51652380D01*
X147014285Y-51700000D01*
X147061904Y-51747619D01*
X147109523Y-51842857D01*
X147109523Y-51985714D01*
X147061904Y-52080952D01*
X147014285Y-52128571D01*
X146919047Y-52176190D01*
X146538095Y-52176190D01*
X147538095Y-52652380D02*
X147538095Y-51652380D01*
X148109523Y-52652380D01*
X148109523Y-51652380D01*
X149109523Y-52652380D02*
X148538095Y-52652380D01*
X148823809Y-52652380D02*
X148823809Y-51652380D01*
X148728571Y-51795238D01*
X148633333Y-51890476D01*
X148538095Y-51938095D01*
X116747619Y-53938095D02*
X116700000Y-53890476D01*
X116652380Y-53795238D01*
X116652380Y-53557142D01*
X116700000Y-53461904D01*
X116747619Y-53414285D01*
X116842857Y-53366666D01*
X116938095Y-53366666D01*
X117080952Y-53414285D01*
X117652380Y-53985714D01*
X117652380Y-53366666D01*
X116747619Y-52985714D02*
X116700000Y-52938095D01*
X116652380Y-52842857D01*
X116652380Y-52604761D01*
X116700000Y-52509523D01*
X116747619Y-52461904D01*
X116842857Y-52414285D01*
X116938095Y-52414285D01*
X117080952Y-52461904D01*
X117652380Y-53033333D01*
X117652380Y-52414285D01*
X116652380Y-51795238D02*
X116652380Y-51700000D01*
X116700000Y-51604761D01*
X116747619Y-51557142D01*
X116842857Y-51509523D01*
X117033333Y-51461904D01*
X117271428Y-51461904D01*
X117461904Y-51509523D01*
X117557142Y-51557142D01*
X117604761Y-51604761D01*
X117652380Y-51700000D01*
X117652380Y-51795238D01*
X117604761Y-51890476D01*
X117557142Y-51938095D01*
X117461904Y-51985714D01*
X117271428Y-52033333D01*
X117033333Y-52033333D01*
X116842857Y-51985714D01*
X116747619Y-51938095D01*
X116700000Y-51890476D01*
X116652380Y-51795238D01*
X117652380Y-50461904D02*
X117176190Y-50795238D01*
X117652380Y-51033333D02*
X116652380Y-51033333D01*
X116652380Y-50652380D01*
X116700000Y-50557142D01*
X116747619Y-50509523D01*
X116842857Y-50461904D01*
X116985714Y-50461904D01*
X117080952Y-50509523D01*
X117128571Y-50557142D01*
X117176190Y-50652380D01*
X117176190Y-51033333D01*
X119509523Y-52652380D02*
X119176190Y-52176190D01*
X118938095Y-52652380D02*
X118938095Y-51652380D01*
X119319047Y-51652380D01*
X119414285Y-51700000D01*
X119461904Y-51747619D01*
X119509523Y-51842857D01*
X119509523Y-51985714D01*
X119461904Y-52080952D01*
X119414285Y-52128571D01*
X119319047Y-52176190D01*
X118938095Y-52176190D01*
X119938095Y-52652380D02*
X119938095Y-51652380D01*
X120509523Y-52652380D01*
X120509523Y-51652380D01*
X120938095Y-51747619D02*
X120985714Y-51700000D01*
X121080952Y-51652380D01*
X121319047Y-51652380D01*
X121414285Y-51700000D01*
X121461904Y-51747619D01*
X121509523Y-51842857D01*
X121509523Y-51938095D01*
X121461904Y-52080952D01*
X120890476Y-52652380D01*
X121509523Y-52652380D01*
X169997619Y-53938095D02*
X169950000Y-53890476D01*
X169902380Y-53795238D01*
X169902380Y-53557142D01*
X169950000Y-53461904D01*
X169997619Y-53414285D01*
X170092857Y-53366666D01*
X170188095Y-53366666D01*
X170330952Y-53414285D01*
X170902380Y-53985714D01*
X170902380Y-53366666D01*
X169997619Y-52985714D02*
X169950000Y-52938095D01*
X169902380Y-52842857D01*
X169902380Y-52604761D01*
X169950000Y-52509523D01*
X169997619Y-52461904D01*
X170092857Y-52414285D01*
X170188095Y-52414285D01*
X170330952Y-52461904D01*
X170902380Y-53033333D01*
X170902380Y-52414285D01*
X169902380Y-51795238D02*
X169902380Y-51700000D01*
X169950000Y-51604761D01*
X169997619Y-51557142D01*
X170092857Y-51509523D01*
X170283333Y-51461904D01*
X170521428Y-51461904D01*
X170711904Y-51509523D01*
X170807142Y-51557142D01*
X170854761Y-51604761D01*
X170902380Y-51700000D01*
X170902380Y-51795238D01*
X170854761Y-51890476D01*
X170807142Y-51938095D01*
X170711904Y-51985714D01*
X170521428Y-52033333D01*
X170283333Y-52033333D01*
X170092857Y-51985714D01*
X169997619Y-51938095D01*
X169950000Y-51890476D01*
X169902380Y-51795238D01*
X170902380Y-50461904D02*
X170426190Y-50795238D01*
X170902380Y-51033333D02*
X169902380Y-51033333D01*
X169902380Y-50652380D01*
X169950000Y-50557142D01*
X169997619Y-50509523D01*
X170092857Y-50461904D01*
X170235714Y-50461904D01*
X170330952Y-50509523D01*
X170378571Y-50557142D01*
X170426190Y-50652380D01*
X170426190Y-51033333D01*
X172759523Y-52652380D02*
X172426190Y-52176190D01*
X172188095Y-52652380D02*
X172188095Y-51652380D01*
X172569047Y-51652380D01*
X172664285Y-51700000D01*
X172711904Y-51747619D01*
X172759523Y-51842857D01*
X172759523Y-51985714D01*
X172711904Y-52080952D01*
X172664285Y-52128571D01*
X172569047Y-52176190D01*
X172188095Y-52176190D01*
X173188095Y-52652380D02*
X173188095Y-51652380D01*
X173759523Y-52652380D01*
X173759523Y-51652380D01*
X174140476Y-51652380D02*
X174759523Y-51652380D01*
X174426190Y-52033333D01*
X174569047Y-52033333D01*
X174664285Y-52080952D01*
X174711904Y-52128571D01*
X174759523Y-52223809D01*
X174759523Y-52461904D01*
X174711904Y-52557142D01*
X174664285Y-52604761D01*
X174569047Y-52652380D01*
X174283333Y-52652380D01*
X174188095Y-52604761D01*
X174140476Y-52557142D01*
X177253333Y-94463333D02*
X177253333Y-95256666D01*
X177300000Y-95350000D01*
X177346666Y-95396666D01*
X177440000Y-95443333D01*
X177626666Y-95443333D01*
X177720000Y-95396666D01*
X177766666Y-95350000D01*
X177813333Y-95256666D01*
X177813333Y-94463333D01*
X178793333Y-95443333D02*
X178233333Y-95443333D01*
X178513333Y-95443333D02*
X178513333Y-94463333D01*
X178420000Y-94603333D01*
X178326666Y-94696666D01*
X178233333Y-94743333D01*
X177253333Y-75463333D02*
X177253333Y-76256666D01*
X177300000Y-76350000D01*
X177346666Y-76396666D01*
X177440000Y-76443333D01*
X177626666Y-76443333D01*
X177720000Y-76396666D01*
X177766666Y-76350000D01*
X177813333Y-76256666D01*
X177813333Y-75463333D01*
X178233333Y-75556666D02*
X178280000Y-75510000D01*
X178373333Y-75463333D01*
X178606666Y-75463333D01*
X178700000Y-75510000D01*
X178746666Y-75556666D01*
X178793333Y-75650000D01*
X178793333Y-75743333D01*
X178746666Y-75883333D01*
X178186666Y-76443333D01*
X178793333Y-76443333D01*
X155253333Y-94463333D02*
X155253333Y-95256666D01*
X155300000Y-95350000D01*
X155346666Y-95396666D01*
X155440000Y-95443333D01*
X155626666Y-95443333D01*
X155720000Y-95396666D01*
X155766666Y-95350000D01*
X155813333Y-95256666D01*
X155813333Y-94463333D01*
X156186666Y-94463333D02*
X156793333Y-94463333D01*
X156466666Y-94836666D01*
X156606666Y-94836666D01*
X156700000Y-94883333D01*
X156746666Y-94930000D01*
X156793333Y-95023333D01*
X156793333Y-95256666D01*
X156746666Y-95350000D01*
X156700000Y-95396666D01*
X156606666Y-95443333D01*
X156326666Y-95443333D01*
X156233333Y-95396666D01*
X156186666Y-95350000D01*
X201238095Y-97452380D02*
X201238095Y-98261904D01*
X201285714Y-98357142D01*
X201333333Y-98404761D01*
X201428571Y-98452380D01*
X201619047Y-98452380D01*
X201714285Y-98404761D01*
X201761904Y-98357142D01*
X201809523Y-98261904D01*
X201809523Y-97452380D01*
X202714285Y-97452380D02*
X202523809Y-97452380D01*
X202428571Y-97500000D01*
X202380952Y-97547619D01*
X202285714Y-97690476D01*
X202238095Y-97880952D01*
X202238095Y-98261904D01*
X202285714Y-98357142D01*
X202333333Y-98404761D01*
X202428571Y-98452380D01*
X202619047Y-98452380D01*
X202714285Y-98404761D01*
X202761904Y-98357142D01*
X202809523Y-98261904D01*
X202809523Y-98023809D01*
X202761904Y-97928571D01*
X202714285Y-97880952D01*
X202619047Y-97833333D01*
X202428571Y-97833333D01*
X202333333Y-97880952D01*
X202285714Y-97928571D01*
X202238095Y-98023809D01*
X131238095Y-78952380D02*
X131238095Y-79761904D01*
X131285714Y-79857142D01*
X131333333Y-79904761D01*
X131428571Y-79952380D01*
X131619047Y-79952380D01*
X131714285Y-79904761D01*
X131761904Y-79857142D01*
X131809523Y-79761904D01*
X131809523Y-78952380D01*
X132428571Y-79380952D02*
X132333333Y-79333333D01*
X132285714Y-79285714D01*
X132238095Y-79190476D01*
X132238095Y-79142857D01*
X132285714Y-79047619D01*
X132333333Y-79000000D01*
X132428571Y-78952380D01*
X132619047Y-78952380D01*
X132714285Y-79000000D01*
X132761904Y-79047619D01*
X132809523Y-79142857D01*
X132809523Y-79190476D01*
X132761904Y-79285714D01*
X132714285Y-79333333D01*
X132619047Y-79380952D01*
X132428571Y-79380952D01*
X132333333Y-79428571D01*
X132285714Y-79476190D01*
X132238095Y-79571428D01*
X132238095Y-79761904D01*
X132285714Y-79857142D01*
X132333333Y-79904761D01*
X132428571Y-79952380D01*
X132619047Y-79952380D01*
X132714285Y-79904761D01*
X132761904Y-79857142D01*
X132809523Y-79761904D01*
X132809523Y-79571428D01*
X132761904Y-79476190D01*
X132714285Y-79428571D01*
X132619047Y-79380952D01*
X156738095Y-61952380D02*
X156738095Y-62761904D01*
X156785714Y-62857142D01*
X156833333Y-62904761D01*
X156928571Y-62952380D01*
X157119047Y-62952380D01*
X157214285Y-62904761D01*
X157261904Y-62857142D01*
X157309523Y-62761904D01*
X157309523Y-61952380D01*
X157833333Y-62952380D02*
X158023809Y-62952380D01*
X158119047Y-62904761D01*
X158166666Y-62857142D01*
X158261904Y-62714285D01*
X158309523Y-62523809D01*
X158309523Y-62142857D01*
X158261904Y-62047619D01*
X158214285Y-62000000D01*
X158119047Y-61952380D01*
X157928571Y-61952380D01*
X157833333Y-62000000D01*
X157785714Y-62047619D01*
X157738095Y-62142857D01*
X157738095Y-62380952D01*
X157785714Y-62476190D01*
X157833333Y-62523809D01*
X157928571Y-62571428D01*
X158119047Y-62571428D01*
X158214285Y-62523809D01*
X158261904Y-62476190D01*
X158309523Y-62380952D01*
X128761904Y-62452380D02*
X128761904Y-63261904D01*
X128809523Y-63357142D01*
X128857142Y-63404761D01*
X128952380Y-63452380D01*
X129142857Y-63452380D01*
X129238095Y-63404761D01*
X129285714Y-63357142D01*
X129333333Y-63261904D01*
X129333333Y-62452380D01*
X130333333Y-63452380D02*
X129761904Y-63452380D01*
X130047619Y-63452380D02*
X130047619Y-62452380D01*
X129952380Y-62595238D01*
X129857142Y-62690476D01*
X129761904Y-62738095D01*
X130952380Y-62452380D02*
X131047619Y-62452380D01*
X131142857Y-62500000D01*
X131190476Y-62547619D01*
X131238095Y-62642857D01*
X131285714Y-62833333D01*
X131285714Y-63071428D01*
X131238095Y-63261904D01*
X131190476Y-63357142D01*
X131142857Y-63404761D01*
X131047619Y-63452380D01*
X130952380Y-63452380D01*
X130857142Y-63404761D01*
X130809523Y-63357142D01*
X130761904Y-63261904D01*
X130714285Y-63071428D01*
X130714285Y-62833333D01*
X130761904Y-62642857D01*
X130809523Y-62547619D01*
X130857142Y-62500000D01*
X130952380Y-62452380D01*
X182011904Y-61952380D02*
X182011904Y-62761904D01*
X182059523Y-62857142D01*
X182107142Y-62904761D01*
X182202380Y-62952380D01*
X182392857Y-62952380D01*
X182488095Y-62904761D01*
X182535714Y-62857142D01*
X182583333Y-62761904D01*
X182583333Y-61952380D01*
X183583333Y-62952380D02*
X183011904Y-62952380D01*
X183297619Y-62952380D02*
X183297619Y-61952380D01*
X183202380Y-62095238D01*
X183107142Y-62190476D01*
X183011904Y-62238095D01*
X184535714Y-62952380D02*
X183964285Y-62952380D01*
X184250000Y-62952380D02*
X184250000Y-61952380D01*
X184154761Y-62095238D01*
X184059523Y-62190476D01*
X183964285Y-62238095D01*
X198511666Y-61963333D02*
X198511666Y-62756666D01*
X198558333Y-62850000D01*
X198605000Y-62896666D01*
X198698333Y-62943333D01*
X198885000Y-62943333D01*
X198978333Y-62896666D01*
X199025000Y-62850000D01*
X199071666Y-62756666D01*
X199071666Y-61963333D01*
X200051666Y-62943333D02*
X199491666Y-62943333D01*
X199771666Y-62943333D02*
X199771666Y-61963333D01*
X199678333Y-62103333D01*
X199585000Y-62196666D01*
X199491666Y-62243333D01*
X200425000Y-62056666D02*
X200471666Y-62010000D01*
X200565000Y-61963333D01*
X200798333Y-61963333D01*
X200891666Y-62010000D01*
X200938333Y-62056666D01*
X200985000Y-62150000D01*
X200985000Y-62243333D01*
X200938333Y-62383333D01*
X200378333Y-62943333D01*
X200985000Y-62943333D01*
X208328571Y-65852380D02*
X207757142Y-65852380D01*
X208042857Y-65852380D02*
X208042857Y-64852380D01*
X207947619Y-64995238D01*
X207852380Y-65090476D01*
X207757142Y-65138095D01*
X208947619Y-64852380D02*
X209042857Y-64852380D01*
X209138095Y-64900000D01*
X209185714Y-64947619D01*
X209233333Y-65042857D01*
X209280952Y-65233333D01*
X209280952Y-65471428D01*
X209233333Y-65661904D01*
X209185714Y-65757142D01*
X209138095Y-65804761D01*
X209042857Y-65852380D01*
X208947619Y-65852380D01*
X208852380Y-65804761D01*
X208804761Y-65757142D01*
X208757142Y-65661904D01*
X208709523Y-65471428D01*
X208709523Y-65233333D01*
X208757142Y-65042857D01*
X208804761Y-64947619D01*
X208852380Y-64900000D01*
X208947619Y-64852380D01*
X210138095Y-65185714D02*
X210138095Y-65852380D01*
X209709523Y-65185714D02*
X209709523Y-65709523D01*
X209757142Y-65804761D01*
X209852380Y-65852380D01*
X209995238Y-65852380D01*
X210090476Y-65804761D01*
X210138095Y-65757142D01*
X210947619Y-65328571D02*
X210614285Y-65328571D01*
X210614285Y-65852380D02*
X210614285Y-64852380D01*
X211090476Y-64852380D01*
D12*
X208885714Y-62485714D02*
X208847619Y-62523809D01*
X208733333Y-62561904D01*
X208657142Y-62561904D01*
X208542857Y-62523809D01*
X208466666Y-62447619D01*
X208428571Y-62371428D01*
X208390476Y-62219047D01*
X208390476Y-62104761D01*
X208428571Y-61952380D01*
X208466666Y-61876190D01*
X208542857Y-61800000D01*
X208657142Y-61761904D01*
X208733333Y-61761904D01*
X208847619Y-61800000D01*
X208885714Y-61838095D01*
X209647619Y-62561904D02*
X209190476Y-62561904D01*
X209419047Y-62561904D02*
X209419047Y-61761904D01*
X209342857Y-61876190D01*
X209266666Y-61952380D01*
X209190476Y-61990476D01*
X209914285Y-61761904D02*
X210409523Y-61761904D01*
X210142857Y-62066666D01*
X210257142Y-62066666D01*
X210333333Y-62104761D01*
X210371428Y-62142857D01*
X210409523Y-62219047D01*
X210409523Y-62409523D01*
X210371428Y-62485714D01*
X210333333Y-62523809D01*
X210257142Y-62561904D01*
X210028571Y-62561904D01*
X209952380Y-62523809D01*
X209914285Y-62485714D01*
D10*
X119928571Y-68852380D02*
X119357142Y-68852380D01*
X119642857Y-68852380D02*
X119642857Y-67852380D01*
X119547619Y-67995238D01*
X119452380Y-68090476D01*
X119357142Y-68138095D01*
X120547619Y-67852380D02*
X120642857Y-67852380D01*
X120738095Y-67900000D01*
X120785714Y-67947619D01*
X120833333Y-68042857D01*
X120880952Y-68233333D01*
X120880952Y-68471428D01*
X120833333Y-68661904D01*
X120785714Y-68757142D01*
X120738095Y-68804761D01*
X120642857Y-68852380D01*
X120547619Y-68852380D01*
X120452380Y-68804761D01*
X120404761Y-68757142D01*
X120357142Y-68661904D01*
X120309523Y-68471428D01*
X120309523Y-68233333D01*
X120357142Y-68042857D01*
X120404761Y-67947619D01*
X120452380Y-67900000D01*
X120547619Y-67852380D01*
X121738095Y-68185714D02*
X121738095Y-68852380D01*
X121309523Y-68185714D02*
X121309523Y-68709523D01*
X121357142Y-68804761D01*
X121452380Y-68852380D01*
X121595238Y-68852380D01*
X121690476Y-68804761D01*
X121738095Y-68757142D01*
X122547619Y-68328571D02*
X122214285Y-68328571D01*
X122214285Y-68852380D02*
X122214285Y-67852380D01*
X122690476Y-67852380D01*
D12*
X120485714Y-65485714D02*
X120447619Y-65523809D01*
X120333333Y-65561904D01*
X120257142Y-65561904D01*
X120142857Y-65523809D01*
X120066666Y-65447619D01*
X120028571Y-65371428D01*
X119990476Y-65219047D01*
X119990476Y-65104761D01*
X120028571Y-64952380D01*
X120066666Y-64876190D01*
X120142857Y-64800000D01*
X120257142Y-64761904D01*
X120333333Y-64761904D01*
X120447619Y-64800000D01*
X120485714Y-64838095D01*
X121247619Y-65561904D02*
X120790476Y-65561904D01*
X121019047Y-65561904D02*
X121019047Y-64761904D01*
X120942857Y-64876190D01*
X120866666Y-64952380D01*
X120790476Y-64990476D01*
X121933333Y-65028571D02*
X121933333Y-65561904D01*
X121742857Y-64723809D02*
X121552380Y-65295238D01*
X122047619Y-65295238D01*
M02*
