%FSLAX45Y45*%
G04 Gerber Fmt 4.5, Leading zero omitted, Abs format (unit mm)*
G04 Created by KiCad (PCBNEW (5.1.8)-1) date 2022-01-11 15:51:55*
%MOMM*%
%LPD*%
G01*
G04 APERTURE LIST*
%TA.AperFunction,Profile*%
%ADD10C,0.100000*%
%TD*%
%ADD11C,0.200000*%
%ADD12C,0.300000*%
G04 APERTURE END LIST*
D10*
X19015000Y-11360000D02*
G75*
G02*
X19210000Y-11360000I97500J0D01*
G01*
X19210000Y-12080000D02*
X19210000Y-11360000D01*
X19015000Y-12080000D02*
X19015000Y-11360000D01*
X20651000Y-12080000D02*
X20651000Y-11263000D01*
X12726000Y-12080000D02*
X12726000Y-11263000D01*
X20651000Y-12080000D02*
X19210000Y-12080000D01*
X19015000Y-12080000D02*
X12726000Y-12080000D01*
X12726000Y-11263000D02*
X11689000Y-11263000D01*
X11690000Y-4080000D02*
X21690000Y-4080000D01*
X11689000Y-11263000D02*
X11690000Y-4080000D01*
X21688000Y-11263000D02*
X20651000Y-11263000D01*
X21690000Y-4080000D02*
X21688000Y-11263000D01*
D11*
X11970000Y-8610000D02*
X12010000Y-8650000D01*
X12010000Y-8610000D02*
X11970000Y-8650000D01*
X12010001Y-10520000D02*
X12050001Y-10560000D01*
X12050001Y-10520000D02*
X12010001Y-10560000D01*
X12050000Y-8530000D02*
X12090000Y-8570000D01*
X12090000Y-8530000D02*
X12050000Y-8570000D01*
X12095000Y-10435000D02*
X12135000Y-10475000D01*
X12135000Y-10435000D02*
X12095000Y-10475000D01*
X12130000Y-8450000D02*
X12170000Y-8490000D01*
X12170000Y-8450000D02*
X12130000Y-8490000D01*
X12175000Y-10360000D02*
X12215000Y-10400000D01*
X12215000Y-10360000D02*
X12175000Y-10400000D01*
X12210000Y-8370000D02*
X12250000Y-8410000D01*
X12250000Y-8370000D02*
X12210000Y-8410000D01*
X12255000Y-10280000D02*
X12295000Y-10320000D01*
X12295000Y-10280000D02*
X12255000Y-10320000D01*
X12290000Y-8290000D02*
X12330000Y-8330000D01*
X12330000Y-8290000D02*
X12290000Y-8330000D01*
X12335000Y-10200000D02*
X12375000Y-10240000D01*
X12375000Y-10200000D02*
X12335000Y-10240000D01*
X12370000Y-8210000D02*
X12410000Y-8250000D01*
X12410000Y-8210000D02*
X12370000Y-8250000D01*
X12415000Y-10120000D02*
X12455000Y-10160000D01*
X12455000Y-10120000D02*
X12415000Y-10160000D01*
X12450000Y-8130000D02*
X12490000Y-8170000D01*
X12490000Y-8130000D02*
X12450000Y-8170000D01*
X12490000Y-10040000D02*
X12530000Y-10080000D01*
X12530000Y-10040000D02*
X12490000Y-10080000D01*
X12530000Y-8049994D02*
X12570000Y-8089994D01*
X12570000Y-8049994D02*
X12530000Y-8089994D01*
X12570000Y-9960000D02*
X12610000Y-10000000D01*
X12610000Y-9960000D02*
X12570000Y-10000000D01*
X12760000Y-5120000D02*
X12800000Y-5160000D01*
X12800000Y-5120000D02*
X12760000Y-5160000D01*
X12760000Y-5280000D02*
X12800000Y-5320000D01*
X12800000Y-5280000D02*
X12760000Y-5320000D01*
X12920000Y-5120000D02*
X12960000Y-5160000D01*
X12960000Y-5120000D02*
X12920000Y-5160000D01*
X12920000Y-5280000D02*
X12960000Y-5320000D01*
X12960000Y-5280000D02*
X12920000Y-5320000D01*
X12940000Y-10520000D02*
X12980000Y-10560000D01*
X12980000Y-10520000D02*
X12940000Y-10560000D01*
X12940000Y-10680000D02*
X12980000Y-10720000D01*
X12980000Y-10680000D02*
X12940000Y-10720000D01*
X12940000Y-10840000D02*
X12980000Y-10880000D01*
X12980000Y-10840000D02*
X12940000Y-10880000D01*
X12960000Y-7920000D02*
X13000000Y-7960000D01*
X13000000Y-7920000D02*
X12960000Y-7960000D01*
X13040000Y-9220000D02*
X13080000Y-9260000D01*
X13080000Y-9220000D02*
X13040000Y-9260000D01*
X13040000Y-9380000D02*
X13080000Y-9420000D01*
X13080000Y-9380000D02*
X13040000Y-9420000D01*
X13040000Y-9540000D02*
X13080000Y-9580000D01*
X13080000Y-9540000D02*
X13040000Y-9580000D01*
X13080000Y-5120000D02*
X13120000Y-5160000D01*
X13120000Y-5120000D02*
X13080000Y-5160000D01*
X13080000Y-5280000D02*
X13120000Y-5320000D01*
X13120000Y-5280000D02*
X13080000Y-5320000D01*
X13100000Y-10520000D02*
X13140000Y-10560000D01*
X13140000Y-10520000D02*
X13100000Y-10560000D01*
X13100000Y-10680000D02*
X13140000Y-10720000D01*
X13140000Y-10680000D02*
X13100000Y-10720000D01*
X13100000Y-10840000D02*
X13140000Y-10880000D01*
X13140000Y-10840000D02*
X13100000Y-10880000D01*
X13120000Y-7760000D02*
X13160000Y-7800000D01*
X13160000Y-7760000D02*
X13120000Y-7800000D01*
X13120000Y-7920000D02*
X13160000Y-7960000D01*
X13160000Y-7920000D02*
X13120000Y-7960000D01*
X13260000Y-10520000D02*
X13300000Y-10560000D01*
X13300000Y-10520000D02*
X13260000Y-10560000D01*
X13260000Y-10680000D02*
X13300000Y-10720000D01*
X13300000Y-10680000D02*
X13260000Y-10720000D01*
X13260000Y-10840000D02*
X13300000Y-10880000D01*
X13300000Y-10840000D02*
X13260000Y-10880000D01*
X13360000Y-8900000D02*
X13400000Y-8940000D01*
X13400000Y-8900000D02*
X13360000Y-8940000D01*
X13360000Y-9060000D02*
X13400000Y-9100000D01*
X13400000Y-9060000D02*
X13360000Y-9100000D01*
X13360000Y-9220000D02*
X13400000Y-9260000D01*
X13400000Y-9220000D02*
X13360000Y-9260000D01*
X13360000Y-9380000D02*
X13400000Y-9420000D01*
X13400000Y-9380000D02*
X13360000Y-9420000D01*
X13360000Y-9540000D02*
X13400000Y-9580000D01*
X13400000Y-9540000D02*
X13360000Y-9580000D01*
X13670000Y-5330000D02*
X13710000Y-5370000D01*
X13710000Y-5330000D02*
X13670000Y-5370000D01*
X13775000Y-6585000D02*
X13815000Y-6625000D01*
X13815000Y-6585000D02*
X13775000Y-6625000D01*
X13910000Y-7015000D02*
X13950000Y-7055000D01*
X13950000Y-7015000D02*
X13910000Y-7055000D01*
X14000000Y-5820000D02*
X14040000Y-5860000D01*
X14040000Y-5820000D02*
X14000000Y-5860000D01*
X14000000Y-5980000D02*
X14040000Y-6020000D01*
X14040000Y-5980000D02*
X14000000Y-6020000D01*
X14000000Y-6140000D02*
X14040000Y-6180000D01*
X14040000Y-6140000D02*
X14000000Y-6180000D01*
X14040000Y-9040000D02*
X14080000Y-9080000D01*
X14080000Y-9040000D02*
X14040000Y-9080000D01*
X14160000Y-5820000D02*
X14200000Y-5860000D01*
X14200000Y-5820000D02*
X14160000Y-5860000D01*
X14160000Y-5980000D02*
X14200000Y-6020000D01*
X14200000Y-5980000D02*
X14160000Y-6020000D01*
X14160000Y-6140000D02*
X14200000Y-6180000D01*
X14200000Y-6140000D02*
X14160000Y-6180000D01*
X14200000Y-9040000D02*
X14240000Y-9080000D01*
X14240000Y-9040000D02*
X14200000Y-9080000D01*
X14200000Y-9200000D02*
X14240000Y-9240000D01*
X14240000Y-9200000D02*
X14200000Y-9240000D01*
X14320000Y-5820000D02*
X14360000Y-5860000D01*
X14360000Y-5820000D02*
X14320000Y-5860000D01*
X14320000Y-5980000D02*
X14360000Y-6020000D01*
X14360000Y-5980000D02*
X14320000Y-6020000D01*
X14320000Y-6140000D02*
X14360000Y-6180000D01*
X14360000Y-6140000D02*
X14320000Y-6180000D01*
X14325000Y-11230000D02*
X14365000Y-11270000D01*
X14365000Y-11230000D02*
X14325000Y-11270000D01*
X14360000Y-6780000D02*
X14400000Y-6820000D01*
X14400000Y-6780000D02*
X14360000Y-6820000D01*
X14360000Y-6940000D02*
X14400000Y-6980000D01*
X14400000Y-6940000D02*
X14360000Y-6980000D01*
X14360000Y-7100000D02*
X14400000Y-7140000D01*
X14400000Y-7100000D02*
X14360000Y-7140000D01*
X14390000Y-11140000D02*
X14430000Y-11180000D01*
X14430000Y-11140000D02*
X14390000Y-11180000D01*
X14460000Y-11055000D02*
X14500000Y-11095000D01*
X14500000Y-11055000D02*
X14460000Y-11095000D01*
X14520000Y-6780000D02*
X14560000Y-6820000D01*
X14560000Y-6780000D02*
X14520000Y-6820000D01*
X14520000Y-6940000D02*
X14560000Y-6980000D01*
X14560000Y-6940000D02*
X14520000Y-6980000D01*
X14520000Y-7100000D02*
X14560000Y-7140000D01*
X14560000Y-7100000D02*
X14520000Y-7140000D01*
X14535000Y-10970000D02*
X14575000Y-11010000D01*
X14575000Y-10970000D02*
X14535000Y-11010000D01*
X14600000Y-10880000D02*
X14640000Y-10920000D01*
X14640000Y-10880000D02*
X14600000Y-10920000D01*
X14675000Y-10807499D02*
X14715000Y-10847499D01*
X14715000Y-10807499D02*
X14675000Y-10847499D01*
X14680000Y-6780000D02*
X14720000Y-6820000D01*
X14720000Y-6780000D02*
X14680000Y-6820000D01*
X14680000Y-6940000D02*
X14720000Y-6980000D01*
X14720000Y-6940000D02*
X14680000Y-6980000D01*
X14680000Y-7100000D02*
X14720000Y-7140000D01*
X14720000Y-7100000D02*
X14680000Y-7140000D01*
X14740000Y-9220000D02*
X14780000Y-9260000D01*
X14780000Y-9220000D02*
X14740000Y-9260000D01*
X14740000Y-9380000D02*
X14780000Y-9420000D01*
X14780000Y-9380000D02*
X14740000Y-9420000D01*
X14740000Y-9540000D02*
X14780000Y-9580000D01*
X14780000Y-9540000D02*
X14740000Y-9580000D01*
X14750000Y-10715000D02*
X14790000Y-10755000D01*
X14790000Y-10715000D02*
X14750000Y-10755000D01*
X14820000Y-8370000D02*
X14860000Y-8410000D01*
X14860000Y-8370000D02*
X14820000Y-8410000D01*
X14830000Y-8210000D02*
X14870000Y-8250000D01*
X14870000Y-8210000D02*
X14830000Y-8250000D01*
X14830000Y-10640000D02*
X14870000Y-10680000D01*
X14870000Y-10640000D02*
X14830000Y-10680000D01*
X14900000Y-8450000D02*
X14940000Y-8490000D01*
X14940000Y-8450000D02*
X14900000Y-8490000D01*
X14900000Y-9380000D02*
X14940000Y-9420000D01*
X14940000Y-9380000D02*
X14900000Y-9420000D01*
X14900000Y-9540000D02*
X14940000Y-9580000D01*
X14940000Y-9540000D02*
X14900000Y-9580000D01*
X14910000Y-8290000D02*
X14950000Y-8330000D01*
X14950000Y-8290000D02*
X14910000Y-8330000D01*
X14980000Y-8610000D02*
X15020000Y-8650000D01*
X15020000Y-8610000D02*
X14980000Y-8650000D01*
X14990000Y-8130000D02*
X15030000Y-8170000D01*
X15030000Y-8130000D02*
X14990000Y-8170000D01*
X15060000Y-8530000D02*
X15100000Y-8570000D01*
X15100000Y-8530000D02*
X15060000Y-8570000D01*
X15060000Y-9540000D02*
X15100000Y-9580000D01*
X15100000Y-9540000D02*
X15060000Y-9580000D01*
X15070000Y-8049994D02*
X15110000Y-8089994D01*
X15110000Y-8049994D02*
X15070000Y-8089994D01*
X15140001Y-8690000D02*
X15180001Y-8730000D01*
X15180001Y-8690000D02*
X15140001Y-8730000D01*
X15220000Y-7760000D02*
X15260000Y-7800000D01*
X15260000Y-7760000D02*
X15220000Y-7800000D01*
X15220000Y-7920000D02*
X15260000Y-7960000D01*
X15260000Y-7920000D02*
X15220000Y-7960000D01*
X15370002Y-7890000D02*
X15410002Y-7930000D01*
X15410002Y-7890000D02*
X15370002Y-7930000D01*
X15450000Y-7970000D02*
X15490000Y-8010000D01*
X15490000Y-7970000D02*
X15450000Y-8010000D01*
X15500000Y-5420000D02*
X15540000Y-5460000D01*
X15540000Y-5420000D02*
X15500000Y-5460000D01*
X15500000Y-5580000D02*
X15540000Y-5620000D01*
X15540000Y-5580000D02*
X15500000Y-5620000D01*
X15500000Y-5740000D02*
X15540000Y-5780000D01*
X15540000Y-5740000D02*
X15500000Y-5780000D01*
X15660000Y-5420000D02*
X15700000Y-5460000D01*
X15700000Y-5420000D02*
X15660000Y-5460000D01*
X15780000Y-7800000D02*
X15820000Y-7840000D01*
X15820000Y-7800000D02*
X15780000Y-7840000D01*
X15860000Y-6260000D02*
X15900000Y-6300000D01*
X15900000Y-6260000D02*
X15860000Y-6300000D01*
X15860000Y-6420000D02*
X15900000Y-6460000D01*
X15900000Y-6420000D02*
X15860000Y-6460000D01*
X15940000Y-7800000D02*
X15980000Y-7840000D01*
X15980000Y-7800000D02*
X15940000Y-7840000D01*
X15980000Y-11230000D02*
X16020000Y-11270000D01*
X16020000Y-11230000D02*
X15980000Y-11270000D01*
X16005000Y-8765000D02*
X16045000Y-8805000D01*
X16045000Y-8765000D02*
X16005000Y-8805000D01*
X16020000Y-6420000D02*
X16060000Y-6460000D01*
X16060000Y-6420000D02*
X16020000Y-6460000D01*
X16020000Y-7000000D02*
X16060000Y-7040000D01*
X16060000Y-7000000D02*
X16020000Y-7040000D01*
X16060000Y-9400000D02*
X16100000Y-9440000D01*
X16100000Y-9400000D02*
X16060000Y-9440000D01*
X16060000Y-9525000D02*
X16100000Y-9565000D01*
X16100000Y-9525000D02*
X16060000Y-9565000D01*
X16080000Y-7800000D02*
X16120000Y-7840000D01*
X16120000Y-7800000D02*
X16080000Y-7840000D01*
X16110000Y-11140000D02*
X16150000Y-11180000D01*
X16150000Y-11140000D02*
X16110000Y-11180000D01*
X16157502Y-7114340D02*
X16197502Y-7154340D01*
X16197502Y-7114340D02*
X16157502Y-7154340D01*
X16160001Y-7250000D02*
X16200001Y-7290000D01*
X16200001Y-7250000D02*
X16160001Y-7290000D01*
X16180000Y-6420000D02*
X16220000Y-6460000D01*
X16220000Y-6420000D02*
X16180000Y-6460000D01*
X16220000Y-7760000D02*
X16260000Y-7800000D01*
X16260000Y-7760000D02*
X16220000Y-7800000D01*
X16230000Y-9330000D02*
X16270000Y-9370000D01*
X16270000Y-9330000D02*
X16230000Y-9370000D01*
X16235000Y-11055000D02*
X16275000Y-11095000D01*
X16275000Y-11055000D02*
X16235000Y-11095000D01*
X16310254Y-9257499D02*
X16350254Y-9297499D01*
X16350254Y-9257499D02*
X16310254Y-9297499D01*
X16340000Y-6420000D02*
X16380000Y-6460000D01*
X16380000Y-6420000D02*
X16340000Y-6460000D01*
X16365000Y-10970000D02*
X16405000Y-11010000D01*
X16405000Y-10970000D02*
X16365000Y-11010000D01*
X16382501Y-9180000D02*
X16422501Y-9220000D01*
X16422501Y-9180000D02*
X16382501Y-9220000D01*
X16400000Y-5340000D02*
X16440000Y-5380000D01*
X16440000Y-5340000D02*
X16400000Y-5380000D01*
X16458926Y-9098925D02*
X16498926Y-9138925D01*
X16498926Y-9098925D02*
X16458926Y-9138925D01*
X16480000Y-5600000D02*
X16520000Y-5640000D01*
X16520000Y-5600000D02*
X16480000Y-5640000D01*
X16480000Y-5760000D02*
X16520000Y-5800000D01*
X16520000Y-5760000D02*
X16480000Y-5800000D01*
X16490000Y-10880000D02*
X16530000Y-10920000D01*
X16530000Y-10880000D02*
X16490000Y-10920000D01*
X16499999Y-7590000D02*
X16539999Y-7630000D01*
X16539999Y-7590000D02*
X16499999Y-7630000D01*
X16572501Y-7460000D02*
X16612501Y-7500000D01*
X16612501Y-7460000D02*
X16572501Y-7500000D01*
X16615000Y-10810000D02*
X16655000Y-10850000D01*
X16655000Y-10810000D02*
X16615000Y-10850000D01*
X16640000Y-5600000D02*
X16680000Y-5640000D01*
X16680000Y-5600000D02*
X16640000Y-5640000D01*
X16640000Y-5760000D02*
X16680000Y-5800000D01*
X16680000Y-5760000D02*
X16640000Y-5800000D01*
X16640000Y-5920000D02*
X16680000Y-5960000D01*
X16680000Y-5920000D02*
X16640000Y-5960000D01*
X16650000Y-9820000D02*
X16690000Y-9860000D01*
X16690000Y-9820000D02*
X16650000Y-9860000D01*
X16730000Y-6780000D02*
X16770000Y-6820000D01*
X16770000Y-6780000D02*
X16730000Y-6820000D01*
X16730000Y-7110000D02*
X16770000Y-7150000D01*
X16770000Y-7110000D02*
X16730000Y-7150000D01*
X16730000Y-9900000D02*
X16770000Y-9940000D01*
X16770000Y-9900000D02*
X16730000Y-9940000D01*
X16745000Y-10715000D02*
X16785000Y-10755000D01*
X16785000Y-10715000D02*
X16745000Y-10755000D01*
X16800000Y-5600000D02*
X16840000Y-5640000D01*
X16840000Y-5600000D02*
X16800000Y-5640000D01*
X16800000Y-5760000D02*
X16840000Y-5800000D01*
X16840000Y-5760000D02*
X16800000Y-5800000D01*
X16800000Y-5920000D02*
X16840000Y-5960000D01*
X16840000Y-5920000D02*
X16800000Y-5960000D01*
X16810000Y-7460000D02*
X16850000Y-7500000D01*
X16850000Y-7460000D02*
X16810000Y-7500000D01*
X16810000Y-9740000D02*
X16850000Y-9780000D01*
X16850000Y-9740000D02*
X16810000Y-9780000D01*
X16870000Y-10640000D02*
X16910000Y-10680000D01*
X16910000Y-10640000D02*
X16870000Y-10680000D01*
X16890000Y-7590000D02*
X16930000Y-7630000D01*
X16930000Y-7590000D02*
X16890000Y-7630000D01*
X16890000Y-9660000D02*
X16930000Y-9700000D01*
X16930000Y-9660000D02*
X16890000Y-9700000D01*
X16960000Y-5600000D02*
X17000000Y-5640000D01*
X17000000Y-5600000D02*
X16960000Y-5640000D01*
X16960000Y-5760000D02*
X17000000Y-5800000D01*
X17000000Y-5760000D02*
X16960000Y-5800000D01*
X16960000Y-5920000D02*
X17000000Y-5960000D01*
X17000000Y-5920000D02*
X16960000Y-5960000D01*
X16970000Y-10140000D02*
X17010000Y-10180000D01*
X17010000Y-10140000D02*
X16970000Y-10180000D01*
X17040000Y-10500000D02*
X17080000Y-10540000D01*
X17080000Y-10500000D02*
X17040000Y-10540000D01*
X17040000Y-10660000D02*
X17080000Y-10700000D01*
X17080000Y-10660000D02*
X17040000Y-10700000D01*
X17040000Y-10820000D02*
X17080000Y-10860000D01*
X17080000Y-10820000D02*
X17040000Y-10860000D01*
X17050000Y-10220000D02*
X17090000Y-10260000D01*
X17090000Y-10220000D02*
X17050000Y-10260000D01*
X17120000Y-5920000D02*
X17160000Y-5960000D01*
X17160000Y-5920000D02*
X17120000Y-5960000D01*
X17130000Y-10060000D02*
X17170000Y-10100000D01*
X17170000Y-10060000D02*
X17130000Y-10100000D01*
X17160000Y-7620000D02*
X17200000Y-7660000D01*
X17200000Y-7620000D02*
X17160000Y-7660000D01*
X17200000Y-10500000D02*
X17240000Y-10540000D01*
X17240000Y-10500000D02*
X17200000Y-10540000D01*
X17200000Y-10660000D02*
X17240000Y-10700000D01*
X17240000Y-10660000D02*
X17200000Y-10700000D01*
X17200000Y-10820000D02*
X17240000Y-10860000D01*
X17240000Y-10820000D02*
X17200000Y-10860000D01*
X17210000Y-9980000D02*
X17250000Y-10020000D01*
X17250000Y-9980000D02*
X17210000Y-10020000D01*
X17260000Y-8700000D02*
X17300000Y-8740000D01*
X17300000Y-8700000D02*
X17260000Y-8740000D01*
X17320000Y-7620000D02*
X17360000Y-7660000D01*
X17360000Y-7620000D02*
X17320000Y-7660000D01*
X17360000Y-10500000D02*
X17400000Y-10540000D01*
X17400000Y-10500000D02*
X17360000Y-10540000D01*
X17360000Y-10660000D02*
X17400000Y-10700000D01*
X17400000Y-10660000D02*
X17360000Y-10700000D01*
X17552344Y-7792344D02*
X17592344Y-7832344D01*
X17592344Y-7792344D02*
X17552344Y-7832344D01*
X17814213Y-7864548D02*
X17854213Y-7904548D01*
X17854213Y-7864548D02*
X17814213Y-7904548D01*
X17830000Y-7030000D02*
X17870000Y-7070000D01*
X17870000Y-7030000D02*
X17830000Y-7070000D01*
X17889330Y-7970257D02*
X17929330Y-8010257D01*
X17929330Y-7970257D02*
X17889330Y-8010257D01*
X18140000Y-7760000D02*
X18180000Y-7800000D01*
X18180000Y-7760000D02*
X18140000Y-7800000D01*
X18230000Y-7370000D02*
X18270000Y-7410000D01*
X18270000Y-7370000D02*
X18230000Y-7410000D01*
X18237497Y-8700000D02*
X18277497Y-8740000D01*
X18277497Y-8700000D02*
X18237497Y-8740000D01*
X18260000Y-9957488D02*
X18300000Y-9997488D01*
X18300000Y-9957488D02*
X18260000Y-9997488D01*
X18280000Y-7570000D02*
X18320000Y-7610000D01*
X18320000Y-7570000D02*
X18280000Y-7610000D01*
X18280000Y-9280000D02*
X18320000Y-9320000D01*
X18320000Y-9280000D02*
X18280000Y-9320000D01*
X18341208Y-9899132D02*
X18381208Y-9939132D01*
X18381208Y-9899132D02*
X18341208Y-9939132D01*
X18360000Y-7490000D02*
X18400000Y-7530000D01*
X18400000Y-7490000D02*
X18360000Y-7530000D01*
X18420000Y-9820000D02*
X18460000Y-9860000D01*
X18460000Y-9820000D02*
X18420000Y-9860000D01*
X18440000Y-7410000D02*
X18480000Y-7450000D01*
X18480000Y-7410000D02*
X18440000Y-7450000D01*
X18460000Y-6120000D02*
X18500000Y-6160000D01*
X18500000Y-6120000D02*
X18460000Y-6160000D01*
X18500000Y-9740000D02*
X18540000Y-9780000D01*
X18540000Y-9740000D02*
X18500000Y-9780000D01*
X18520000Y-7330000D02*
X18560000Y-7370000D01*
X18560000Y-7330000D02*
X18520000Y-7370000D01*
X18540000Y-9960000D02*
X18580000Y-10000000D01*
X18580000Y-9960000D02*
X18540000Y-10000000D01*
X18560000Y-6200000D02*
X18600000Y-6240000D01*
X18600000Y-6200000D02*
X18560000Y-6240000D01*
X18580000Y-9660000D02*
X18620000Y-9700000D01*
X18620000Y-9660000D02*
X18580000Y-9700000D01*
X18600000Y-7090000D02*
X18640000Y-7130000D01*
X18640000Y-7090000D02*
X18600000Y-7130000D01*
X18640000Y-6600000D02*
X18680000Y-6640000D01*
X18680000Y-6600000D02*
X18640000Y-6640000D01*
X18640000Y-6760000D02*
X18680000Y-6800000D01*
X18680000Y-6760000D02*
X18640000Y-6800000D01*
X18660000Y-9580000D02*
X18700000Y-9620000D01*
X18700000Y-9580000D02*
X18660000Y-9620000D01*
X18680000Y-7009994D02*
X18720000Y-7049994D01*
X18720000Y-7009994D02*
X18680000Y-7049994D01*
X18700000Y-9800000D02*
X18740000Y-9840000D01*
X18740000Y-9800000D02*
X18700000Y-9840000D01*
X18700000Y-9960000D02*
X18740000Y-10000000D01*
X18740000Y-9960000D02*
X18700000Y-10000000D01*
X18740000Y-9500000D02*
X18780000Y-9540000D01*
X18780000Y-9500000D02*
X18740000Y-9540000D01*
X18760000Y-7170000D02*
X18800000Y-7210000D01*
X18800000Y-7170000D02*
X18760000Y-7210000D01*
X18800000Y-6600000D02*
X18840000Y-6640000D01*
X18840000Y-6600000D02*
X18800000Y-6640000D01*
X18820000Y-9420000D02*
X18860000Y-9460000D01*
X18860000Y-9420000D02*
X18820000Y-9460000D01*
X18840000Y-7250000D02*
X18880000Y-7290000D01*
X18880000Y-7250000D02*
X18840000Y-7290000D01*
X18850000Y-8050000D02*
X18890000Y-8090000D01*
X18890000Y-8050000D02*
X18850000Y-8090000D01*
X18860000Y-9640000D02*
X18900000Y-9680000D01*
X18900000Y-9640000D02*
X18860000Y-9680000D01*
X18860000Y-9800000D02*
X18900000Y-9840000D01*
X18900000Y-9800000D02*
X18860000Y-9840000D01*
X18860000Y-9960000D02*
X18900000Y-10000000D01*
X18900000Y-9960000D02*
X18860000Y-10000000D01*
X18930000Y-8130000D02*
X18970000Y-8170000D01*
X18970000Y-8130000D02*
X18930000Y-8170000D01*
X18960000Y-6840000D02*
X19000000Y-6880000D01*
X19000000Y-6840000D02*
X18960000Y-6880000D01*
X18979896Y-5300105D02*
X19019896Y-5340105D01*
X19019896Y-5300105D02*
X18979896Y-5340105D01*
X19010000Y-8210000D02*
X19050000Y-8250000D01*
X19050000Y-8210000D02*
X19010000Y-8250000D01*
X19020000Y-9640000D02*
X19060000Y-9680000D01*
X19060000Y-9640000D02*
X19020000Y-9680000D01*
X19020000Y-9800000D02*
X19060000Y-9840000D01*
X19060000Y-9800000D02*
X19020000Y-9840000D01*
X19020000Y-9960000D02*
X19060000Y-10000000D01*
X19060000Y-9960000D02*
X19020000Y-10000000D01*
X19060000Y-5760000D02*
X19100000Y-5800000D01*
X19100000Y-5760000D02*
X19060000Y-5800000D01*
X19090000Y-8290000D02*
X19130000Y-8330000D01*
X19130000Y-8290000D02*
X19090000Y-8330000D01*
X19120000Y-6680000D02*
X19160000Y-6720000D01*
X19160000Y-6680000D02*
X19120000Y-6720000D01*
X19120000Y-6840000D02*
X19160000Y-6880000D01*
X19160000Y-6840000D02*
X19120000Y-6880000D01*
X19140000Y-5840000D02*
X19180000Y-5880000D01*
X19180000Y-5840000D02*
X19140000Y-5880000D01*
X19170000Y-8370000D02*
X19210000Y-8410000D01*
X19210000Y-8370000D02*
X19170000Y-8410000D01*
X19180000Y-9800000D02*
X19220000Y-9840000D01*
X19220000Y-9800000D02*
X19180000Y-9840000D01*
X19180000Y-9960000D02*
X19220000Y-10000000D01*
X19220000Y-9960000D02*
X19180000Y-10000000D01*
X19220000Y-5920000D02*
X19260000Y-5960000D01*
X19260000Y-5920000D02*
X19220000Y-5960000D01*
X19250000Y-8450000D02*
X19290000Y-8490000D01*
X19290000Y-8450000D02*
X19250000Y-8490000D01*
X19280000Y-6840000D02*
X19320000Y-6880000D01*
X19320000Y-6840000D02*
X19280000Y-6880000D01*
X19330000Y-8530000D02*
X19370000Y-8570000D01*
X19370000Y-8530000D02*
X19330000Y-8570000D01*
X19340000Y-9960000D02*
X19380000Y-10000000D01*
X19380000Y-9960000D02*
X19340000Y-10000000D01*
X19410000Y-8610000D02*
X19450000Y-8650000D01*
X19450000Y-8610000D02*
X19410000Y-8650000D01*
X19420000Y-6660000D02*
X19460000Y-6700000D01*
X19460000Y-6660000D02*
X19420000Y-6700000D01*
X19440000Y-8040000D02*
X19480000Y-8080000D01*
X19480000Y-8040000D02*
X19440000Y-8080000D01*
X19440000Y-8200000D02*
X19480000Y-8240000D01*
X19480000Y-8200000D02*
X19440000Y-8240000D01*
X19478734Y-6038734D02*
X19518734Y-6078734D01*
X19518734Y-6038734D02*
X19478734Y-6078734D01*
X19480000Y-5620000D02*
X19520000Y-5660000D01*
X19520000Y-5620000D02*
X19480000Y-5660000D01*
X19480000Y-5750000D02*
X19520000Y-5790000D01*
X19520000Y-5750000D02*
X19480000Y-5790000D01*
X19500000Y-8500000D02*
X19540000Y-8540000D01*
X19540000Y-8500000D02*
X19500000Y-8540000D01*
X19600000Y-8040000D02*
X19640000Y-8080000D01*
X19640000Y-8040000D02*
X19600000Y-8080000D01*
X19600000Y-8200000D02*
X19640000Y-8240000D01*
X19640000Y-8200000D02*
X19600000Y-8240000D01*
X19600000Y-8360000D02*
X19640000Y-8400000D01*
X19640000Y-8360000D02*
X19600000Y-8400000D01*
X19620000Y-9980000D02*
X19660000Y-10020000D01*
X19660000Y-9980000D02*
X19620000Y-10020000D01*
X19644127Y-11175143D02*
X19684127Y-11215143D01*
X19684127Y-11175143D02*
X19644127Y-11215143D01*
X19720000Y-11110000D02*
X19760000Y-11150000D01*
X19760000Y-11110000D02*
X19720000Y-11150000D01*
X19741266Y-9981266D02*
X19781266Y-10021266D01*
X19781266Y-9981266D02*
X19741266Y-10021266D01*
X19760000Y-8040000D02*
X19800000Y-8080000D01*
X19800000Y-8040000D02*
X19760000Y-8080000D01*
X19760000Y-8200000D02*
X19800000Y-8240000D01*
X19800000Y-8200000D02*
X19760000Y-8240000D01*
X19760000Y-8360000D02*
X19800000Y-8400000D01*
X19800000Y-8360000D02*
X19760000Y-8400000D01*
X19863054Y-9987970D02*
X19903054Y-10027970D01*
X19903054Y-9987970D02*
X19863054Y-10027970D01*
X19880000Y-5880000D02*
X19920000Y-5920000D01*
X19920000Y-5880000D02*
X19880000Y-5920000D01*
X19980000Y-9980000D02*
X20020000Y-10020000D01*
X20020000Y-9980000D02*
X19980000Y-10020000D01*
X20098733Y-9980000D02*
X20138733Y-10020000D01*
X20138733Y-9980000D02*
X20098733Y-10020000D01*
X20210000Y-6460000D02*
X20250000Y-6500000D01*
X20250000Y-6460000D02*
X20210000Y-6500000D01*
X20220000Y-9980000D02*
X20260000Y-10020000D01*
X20260000Y-9980000D02*
X20220000Y-10020000D01*
X20300000Y-11140000D02*
X20340000Y-11180000D01*
X20340000Y-11140000D02*
X20300000Y-11180000D01*
X20337551Y-9989440D02*
X20377551Y-10029440D01*
X20377551Y-9989440D02*
X20337551Y-10029440D01*
X20410000Y-7010000D02*
X20450000Y-7050000D01*
X20450000Y-7010000D02*
X20410000Y-7050000D01*
X20410000Y-7140000D02*
X20450000Y-7180000D01*
X20450000Y-7140000D02*
X20410000Y-7180000D01*
X20410000Y-7270000D02*
X20450000Y-7310000D01*
X20450000Y-7270000D02*
X20410000Y-7310000D01*
X20410000Y-7390000D02*
X20450000Y-7430000D01*
X20450000Y-7390000D02*
X20410000Y-7430000D01*
X20410000Y-7520000D02*
X20450000Y-7560000D01*
X20450000Y-7520000D02*
X20410000Y-7560000D01*
X20410000Y-7650000D02*
X20450000Y-7690000D01*
X20450000Y-7650000D02*
X20410000Y-7690000D01*
X20410000Y-7770000D02*
X20450000Y-7810000D01*
X20450000Y-7770000D02*
X20410000Y-7810000D01*
X20410000Y-7900000D02*
X20450000Y-7940000D01*
X20450000Y-7900000D02*
X20410000Y-7940000D01*
X20410000Y-8910000D02*
X20450000Y-8950000D01*
X20450000Y-8910000D02*
X20410000Y-8950000D01*
X20410000Y-9040000D02*
X20450000Y-9080000D01*
X20450000Y-9040000D02*
X20410000Y-9080000D01*
X20410000Y-9170000D02*
X20450000Y-9210000D01*
X20450000Y-9170000D02*
X20410000Y-9210000D01*
X20410000Y-9290000D02*
X20450000Y-9330000D01*
X20450000Y-9290000D02*
X20410000Y-9330000D01*
X20410000Y-9420000D02*
X20450000Y-9460000D01*
X20450000Y-9420000D02*
X20410000Y-9460000D01*
X20410000Y-9550000D02*
X20450000Y-9590000D01*
X20450000Y-9550000D02*
X20410000Y-9590000D01*
X20410000Y-9670000D02*
X20450000Y-9710000D01*
X20450000Y-9670000D02*
X20410000Y-9710000D01*
X20410000Y-9800000D02*
X20450000Y-9840000D01*
X20450000Y-9800000D02*
X20410000Y-9840000D01*
X20420000Y-6130000D02*
X20460000Y-6170000D01*
X20460000Y-6130000D02*
X20420000Y-6170000D01*
X20460002Y-9980000D02*
X20500002Y-10020000D01*
X20500002Y-9980000D02*
X20460002Y-10020000D01*
X20580000Y-8040000D02*
X20620000Y-8080000D01*
X20620000Y-8040000D02*
X20580000Y-8080000D01*
X20580000Y-8360000D02*
X20620000Y-8400000D01*
X20620000Y-8360000D02*
X20580000Y-8400000D01*
X20580003Y-9980000D02*
X20620003Y-10020000D01*
X20620003Y-9980000D02*
X20580003Y-10020000D01*
X20740000Y-8040000D02*
X20780000Y-8080000D01*
X20780000Y-8040000D02*
X20740000Y-8080000D01*
X20740000Y-8200000D02*
X20780000Y-8240000D01*
X20780000Y-8200000D02*
X20740000Y-8240000D01*
X20740000Y-8360000D02*
X20780000Y-8400000D01*
X20780000Y-8360000D02*
X20740000Y-8400000D01*
X20900000Y-5380000D02*
X20940000Y-5420000D01*
X20940000Y-5380000D02*
X20900000Y-5420000D01*
X20900000Y-5540000D02*
X20940000Y-5580000D01*
X20940000Y-5540000D02*
X20900000Y-5580000D01*
X20900000Y-8040000D02*
X20940000Y-8080000D01*
X20940000Y-8040000D02*
X20900000Y-8080000D01*
X20900000Y-8200000D02*
X20940000Y-8240000D01*
X20940000Y-8200000D02*
X20900000Y-8240000D01*
X20900000Y-8360000D02*
X20940000Y-8400000D01*
X20940000Y-8360000D02*
X20900000Y-8400000D01*
X21060000Y-5380000D02*
X21100000Y-5420000D01*
X21100000Y-5380000D02*
X21060000Y-5420000D01*
X21060000Y-5540000D02*
X21100000Y-5580000D01*
X21100000Y-5540000D02*
X21060000Y-5580000D01*
X21100000Y-8980000D02*
X21140000Y-9020000D01*
X21140000Y-8980000D02*
X21100000Y-9020000D01*
X21100000Y-9080000D02*
X21140000Y-9120000D01*
X21140000Y-9080000D02*
X21100000Y-9120000D01*
X21220000Y-5380000D02*
X21260000Y-5420000D01*
X21260000Y-5380000D02*
X21220000Y-5420000D01*
X21220000Y-5540000D02*
X21260000Y-5580000D01*
X21260000Y-5540000D02*
X21220000Y-5580000D01*
X21380000Y-5380000D02*
X21420000Y-5420000D01*
X21420000Y-5380000D02*
X21380000Y-5420000D01*
X21380000Y-5540000D02*
X21420000Y-5580000D01*
X21420000Y-5540000D02*
X21380000Y-5580000D01*
X21540000Y-5380000D02*
X21580000Y-5420000D01*
X21580000Y-5380000D02*
X21540000Y-5420000D01*
X21540000Y-5540000D02*
X21580000Y-5580000D01*
X21580000Y-5540000D02*
X21540000Y-5580000D01*
X12100000Y-8780000D02*
G75*
G03*
X12100000Y-8780000I-40000J0D01*
G01*
X12460000Y-6775000D02*
G75*
G03*
X12460000Y-6775000I-40000J0D01*
G01*
X13885000Y-5395000D02*
G75*
G03*
X13885000Y-5395000I-40000J0D01*
G01*
X13980000Y-8880000D02*
G75*
G03*
X13980000Y-8880000I-40000J0D01*
G01*
X16150000Y-9020000D02*
G75*
G03*
X16150000Y-9020000I-40000J0D01*
G01*
X16660000Y-5360000D02*
G75*
G03*
X16660000Y-5360000I-40000J0D01*
G01*
X18060000Y-7880000D02*
G75*
G03*
X18060000Y-7880000I-40000J0D01*
G01*
X19120000Y-11080000D02*
G75*
G03*
X19120000Y-11080000I-40000J0D01*
G01*
X19240000Y-5340000D02*
G75*
G03*
X19240000Y-5340000I-40000J0D01*
G01*
X19360000Y-11085001D02*
G75*
G03*
X19360000Y-11085001I-40000J0D01*
G01*
X20549404Y-11085001D02*
G75*
G03*
X20549404Y-11085001I-40000J0D01*
G01*
X20860000Y-6560000D02*
G75*
G03*
X20860000Y-6560000I-40000J0D01*
G01*
X20960000Y-8860000D02*
G75*
G03*
X20960000Y-8860000I-40000J0D01*
G01*
X21400000Y-11130000D02*
G75*
G03*
X21400000Y-11130000I-40000J0D01*
G01*
D12*
X11970428Y-12550714D02*
X11970428Y-12250714D01*
X12041857Y-12250714D01*
X12084714Y-12265000D01*
X12113286Y-12293571D01*
X12127571Y-12322143D01*
X12141857Y-12379286D01*
X12141857Y-12422143D01*
X12127571Y-12479286D01*
X12113286Y-12507857D01*
X12084714Y-12536429D01*
X12041857Y-12550714D01*
X11970428Y-12550714D01*
X12270428Y-12550714D02*
X12270428Y-12350714D01*
X12270428Y-12407857D02*
X12284714Y-12379286D01*
X12299000Y-12365000D01*
X12327571Y-12350714D01*
X12356143Y-12350714D01*
X12456143Y-12550714D02*
X12456143Y-12350714D01*
X12456143Y-12250714D02*
X12441857Y-12265000D01*
X12456143Y-12279286D01*
X12470428Y-12265000D01*
X12456143Y-12250714D01*
X12456143Y-12279286D01*
X12641857Y-12550714D02*
X12613286Y-12536429D01*
X12599000Y-12507857D01*
X12599000Y-12250714D01*
X12799000Y-12550714D02*
X12770428Y-12536429D01*
X12756143Y-12507857D01*
X12756143Y-12250714D01*
X13141857Y-12550714D02*
X13141857Y-12250714D01*
X13241857Y-12465000D01*
X13341857Y-12250714D01*
X13341857Y-12550714D01*
X13613286Y-12550714D02*
X13613286Y-12393571D01*
X13599000Y-12365000D01*
X13570428Y-12350714D01*
X13513286Y-12350714D01*
X13484714Y-12365000D01*
X13613286Y-12536429D02*
X13584714Y-12550714D01*
X13513286Y-12550714D01*
X13484714Y-12536429D01*
X13470428Y-12507857D01*
X13470428Y-12479286D01*
X13484714Y-12450714D01*
X13513286Y-12436429D01*
X13584714Y-12436429D01*
X13613286Y-12422143D01*
X13756143Y-12350714D02*
X13756143Y-12650714D01*
X13756143Y-12365000D02*
X13784714Y-12350714D01*
X13841857Y-12350714D01*
X13870428Y-12365000D01*
X13884714Y-12379286D01*
X13899000Y-12407857D01*
X13899000Y-12493571D01*
X13884714Y-12522143D01*
X13870428Y-12536429D01*
X13841857Y-12550714D01*
X13784714Y-12550714D01*
X13756143Y-12536429D01*
X14027571Y-12522143D02*
X14041857Y-12536429D01*
X14027571Y-12550714D01*
X14013286Y-12536429D01*
X14027571Y-12522143D01*
X14027571Y-12550714D01*
X14027571Y-12365000D02*
X14041857Y-12379286D01*
X14027571Y-12393571D01*
X14013286Y-12379286D01*
X14027571Y-12365000D01*
X14027571Y-12393571D01*
X11644000Y-13025000D02*
X11684000Y-13065000D01*
X11684000Y-13025000D02*
X11644000Y-13065000D01*
X12027571Y-12880714D02*
X12056143Y-12880714D01*
X12084714Y-12895000D01*
X12099000Y-12909286D01*
X12113286Y-12937857D01*
X12127571Y-12995000D01*
X12127571Y-13066429D01*
X12113286Y-13123571D01*
X12099000Y-13152143D01*
X12084714Y-13166429D01*
X12056143Y-13180714D01*
X12027571Y-13180714D01*
X11999000Y-13166429D01*
X11984714Y-13152143D01*
X11970428Y-13123571D01*
X11956143Y-13066429D01*
X11956143Y-12995000D01*
X11970428Y-12937857D01*
X11984714Y-12909286D01*
X11999000Y-12895000D01*
X12027571Y-12880714D01*
X12256143Y-13152143D02*
X12270428Y-13166429D01*
X12256143Y-13180714D01*
X12241857Y-13166429D01*
X12256143Y-13152143D01*
X12256143Y-13180714D01*
X12527571Y-12980714D02*
X12527571Y-13180714D01*
X12456143Y-12866429D02*
X12384714Y-13080714D01*
X12570428Y-13080714D01*
X12741857Y-12880714D02*
X12770428Y-12880714D01*
X12799000Y-12895000D01*
X12813286Y-12909286D01*
X12827571Y-12937857D01*
X12841857Y-12995000D01*
X12841857Y-13066429D01*
X12827571Y-13123571D01*
X12813286Y-13152143D01*
X12799000Y-13166429D01*
X12770428Y-13180714D01*
X12741857Y-13180714D01*
X12713286Y-13166429D01*
X12699000Y-13152143D01*
X12684714Y-13123571D01*
X12670428Y-13066429D01*
X12670428Y-12995000D01*
X12684714Y-12937857D01*
X12699000Y-12909286D01*
X12713286Y-12895000D01*
X12741857Y-12880714D01*
X12970428Y-13180714D02*
X12970428Y-12980714D01*
X12970428Y-13009286D02*
X12984714Y-12995000D01*
X13013286Y-12980714D01*
X13056143Y-12980714D01*
X13084714Y-12995000D01*
X13099000Y-13023571D01*
X13099000Y-13180714D01*
X13099000Y-13023571D02*
X13113286Y-12995000D01*
X13141857Y-12980714D01*
X13184714Y-12980714D01*
X13213286Y-12995000D01*
X13227571Y-13023571D01*
X13227571Y-13180714D01*
X13370428Y-13180714D02*
X13370428Y-12980714D01*
X13370428Y-13009286D02*
X13384714Y-12995000D01*
X13413286Y-12980714D01*
X13456143Y-12980714D01*
X13484714Y-12995000D01*
X13499000Y-13023571D01*
X13499000Y-13180714D01*
X13499000Y-13023571D02*
X13513286Y-12995000D01*
X13541857Y-12980714D01*
X13584714Y-12980714D01*
X13613286Y-12995000D01*
X13627571Y-13023571D01*
X13627571Y-13180714D01*
X14213286Y-12866429D02*
X13956143Y-13252143D01*
X14599000Y-12880714D02*
X14627571Y-12880714D01*
X14656143Y-12895000D01*
X14670428Y-12909286D01*
X14684714Y-12937857D01*
X14699000Y-12995000D01*
X14699000Y-13066429D01*
X14684714Y-13123571D01*
X14670428Y-13152143D01*
X14656143Y-13166429D01*
X14627571Y-13180714D01*
X14599000Y-13180714D01*
X14570428Y-13166429D01*
X14556143Y-13152143D01*
X14541857Y-13123571D01*
X14527571Y-13066429D01*
X14527571Y-12995000D01*
X14541857Y-12937857D01*
X14556143Y-12909286D01*
X14570428Y-12895000D01*
X14599000Y-12880714D01*
X14827571Y-13152143D02*
X14841857Y-13166429D01*
X14827571Y-13180714D01*
X14813286Y-13166429D01*
X14827571Y-13152143D01*
X14827571Y-13180714D01*
X15027571Y-12880714D02*
X15056143Y-12880714D01*
X15084714Y-12895000D01*
X15099000Y-12909286D01*
X15113286Y-12937857D01*
X15127571Y-12995000D01*
X15127571Y-13066429D01*
X15113286Y-13123571D01*
X15099000Y-13152143D01*
X15084714Y-13166429D01*
X15056143Y-13180714D01*
X15027571Y-13180714D01*
X14999000Y-13166429D01*
X14984714Y-13152143D01*
X14970428Y-13123571D01*
X14956143Y-13066429D01*
X14956143Y-12995000D01*
X14970428Y-12937857D01*
X14984714Y-12909286D01*
X14999000Y-12895000D01*
X15027571Y-12880714D01*
X15413286Y-13180714D02*
X15241857Y-13180714D01*
X15327571Y-13180714D02*
X15327571Y-12880714D01*
X15299000Y-12923571D01*
X15270428Y-12952143D01*
X15241857Y-12966429D01*
X15670428Y-12880714D02*
X15613286Y-12880714D01*
X15584714Y-12895000D01*
X15570428Y-12909286D01*
X15541857Y-12952143D01*
X15527571Y-13009286D01*
X15527571Y-13123571D01*
X15541857Y-13152143D01*
X15556143Y-13166429D01*
X15584714Y-13180714D01*
X15641857Y-13180714D01*
X15670428Y-13166429D01*
X15684714Y-13152143D01*
X15699000Y-13123571D01*
X15699000Y-13052143D01*
X15684714Y-13023571D01*
X15670428Y-13009286D01*
X15641857Y-12995000D01*
X15584714Y-12995000D01*
X15556143Y-13009286D01*
X15541857Y-13023571D01*
X15527571Y-13052143D01*
X15813286Y-12880714D02*
X15813286Y-12937857D01*
X15927571Y-12880714D02*
X15927571Y-12937857D01*
X16370428Y-13295000D02*
X16356143Y-13280714D01*
X16327571Y-13237857D01*
X16313286Y-13209286D01*
X16299000Y-13166429D01*
X16284714Y-13095000D01*
X16284714Y-13037857D01*
X16299000Y-12966429D01*
X16313286Y-12923571D01*
X16327571Y-12895000D01*
X16356143Y-12852143D01*
X16370428Y-12837857D01*
X16470428Y-12909286D02*
X16484714Y-12895000D01*
X16513286Y-12880714D01*
X16584714Y-12880714D01*
X16613286Y-12895000D01*
X16627571Y-12909286D01*
X16641857Y-12937857D01*
X16641857Y-12966429D01*
X16627571Y-13009286D01*
X16456143Y-13180714D01*
X16641857Y-13180714D01*
X16813286Y-13009286D02*
X16784714Y-12995000D01*
X16770428Y-12980714D01*
X16756143Y-12952143D01*
X16756143Y-12937857D01*
X16770428Y-12909286D01*
X16784714Y-12895000D01*
X16813286Y-12880714D01*
X16870428Y-12880714D01*
X16899000Y-12895000D01*
X16913286Y-12909286D01*
X16927571Y-12937857D01*
X16927571Y-12952143D01*
X16913286Y-12980714D01*
X16899000Y-12995000D01*
X16870428Y-13009286D01*
X16813286Y-13009286D01*
X16784714Y-13023571D01*
X16770428Y-13037857D01*
X16756143Y-13066429D01*
X16756143Y-13123571D01*
X16770428Y-13152143D01*
X16784714Y-13166429D01*
X16813286Y-13180714D01*
X16870428Y-13180714D01*
X16899000Y-13166429D01*
X16913286Y-13152143D01*
X16927571Y-13123571D01*
X16927571Y-13066429D01*
X16913286Y-13037857D01*
X16899000Y-13023571D01*
X16870428Y-13009286D01*
X17027571Y-12880714D02*
X17213286Y-12880714D01*
X17113286Y-12995000D01*
X17156143Y-12995000D01*
X17184714Y-13009286D01*
X17199000Y-13023571D01*
X17213286Y-13052143D01*
X17213286Y-13123571D01*
X17199000Y-13152143D01*
X17184714Y-13166429D01*
X17156143Y-13180714D01*
X17070428Y-13180714D01*
X17041857Y-13166429D01*
X17027571Y-13152143D01*
X17570428Y-13180714D02*
X17570428Y-12880714D01*
X17699000Y-13180714D02*
X17699000Y-13023571D01*
X17684714Y-12995000D01*
X17656143Y-12980714D01*
X17613286Y-12980714D01*
X17584714Y-12995000D01*
X17570428Y-13009286D01*
X17884714Y-13180714D02*
X17856143Y-13166429D01*
X17841857Y-13152143D01*
X17827571Y-13123571D01*
X17827571Y-13037857D01*
X17841857Y-13009286D01*
X17856143Y-12995000D01*
X17884714Y-12980714D01*
X17927571Y-12980714D01*
X17956143Y-12995000D01*
X17970428Y-13009286D01*
X17984714Y-13037857D01*
X17984714Y-13123571D01*
X17970428Y-13152143D01*
X17956143Y-13166429D01*
X17927571Y-13180714D01*
X17884714Y-13180714D01*
X18156143Y-13180714D02*
X18127571Y-13166429D01*
X18113286Y-13137857D01*
X18113286Y-12880714D01*
X18384714Y-13166429D02*
X18356143Y-13180714D01*
X18299000Y-13180714D01*
X18270428Y-13166429D01*
X18256143Y-13137857D01*
X18256143Y-13023571D01*
X18270428Y-12995000D01*
X18299000Y-12980714D01*
X18356143Y-12980714D01*
X18384714Y-12995000D01*
X18399000Y-13023571D01*
X18399000Y-13052143D01*
X18256143Y-13080714D01*
X18513286Y-13166429D02*
X18541857Y-13180714D01*
X18599000Y-13180714D01*
X18627571Y-13166429D01*
X18641857Y-13137857D01*
X18641857Y-13123571D01*
X18627571Y-13095000D01*
X18599000Y-13080714D01*
X18556143Y-13080714D01*
X18527571Y-13066429D01*
X18513286Y-13037857D01*
X18513286Y-13023571D01*
X18527571Y-12995000D01*
X18556143Y-12980714D01*
X18599000Y-12980714D01*
X18627571Y-12995000D01*
X18741857Y-13295000D02*
X18756143Y-13280714D01*
X18784714Y-13237857D01*
X18799000Y-13209286D01*
X18813286Y-13166429D01*
X18827571Y-13095000D01*
X18827571Y-13037857D01*
X18813286Y-12966429D01*
X18799000Y-12923571D01*
X18784714Y-12895000D01*
X18756143Y-12852143D01*
X18741857Y-12837857D01*
X11684000Y-13441000D02*
G75*
G03*
X11684000Y-13441000I-40000J0D01*
G01*
X12027571Y-13276714D02*
X12056143Y-13276714D01*
X12084714Y-13291000D01*
X12099000Y-13305286D01*
X12113286Y-13333857D01*
X12127571Y-13391000D01*
X12127571Y-13462429D01*
X12113286Y-13519571D01*
X12099000Y-13548143D01*
X12084714Y-13562429D01*
X12056143Y-13576714D01*
X12027571Y-13576714D01*
X11999000Y-13562429D01*
X11984714Y-13548143D01*
X11970428Y-13519571D01*
X11956143Y-13462429D01*
X11956143Y-13391000D01*
X11970428Y-13333857D01*
X11984714Y-13305286D01*
X11999000Y-13291000D01*
X12027571Y-13276714D01*
X12256143Y-13548143D02*
X12270428Y-13562429D01*
X12256143Y-13576714D01*
X12241857Y-13562429D01*
X12256143Y-13548143D01*
X12256143Y-13576714D01*
X12441857Y-13405286D02*
X12413286Y-13391000D01*
X12399000Y-13376714D01*
X12384714Y-13348143D01*
X12384714Y-13333857D01*
X12399000Y-13305286D01*
X12413286Y-13291000D01*
X12441857Y-13276714D01*
X12499000Y-13276714D01*
X12527571Y-13291000D01*
X12541857Y-13305286D01*
X12556143Y-13333857D01*
X12556143Y-13348143D01*
X12541857Y-13376714D01*
X12527571Y-13391000D01*
X12499000Y-13405286D01*
X12441857Y-13405286D01*
X12413286Y-13419571D01*
X12399000Y-13433857D01*
X12384714Y-13462429D01*
X12384714Y-13519571D01*
X12399000Y-13548143D01*
X12413286Y-13562429D01*
X12441857Y-13576714D01*
X12499000Y-13576714D01*
X12527571Y-13562429D01*
X12541857Y-13548143D01*
X12556143Y-13519571D01*
X12556143Y-13462429D01*
X12541857Y-13433857D01*
X12527571Y-13419571D01*
X12499000Y-13405286D01*
X12741857Y-13276714D02*
X12770428Y-13276714D01*
X12799000Y-13291000D01*
X12813286Y-13305286D01*
X12827571Y-13333857D01*
X12841857Y-13391000D01*
X12841857Y-13462429D01*
X12827571Y-13519571D01*
X12813286Y-13548143D01*
X12799000Y-13562429D01*
X12770428Y-13576714D01*
X12741857Y-13576714D01*
X12713286Y-13562429D01*
X12699000Y-13548143D01*
X12684714Y-13519571D01*
X12670428Y-13462429D01*
X12670428Y-13391000D01*
X12684714Y-13333857D01*
X12699000Y-13305286D01*
X12713286Y-13291000D01*
X12741857Y-13276714D01*
X12970428Y-13576714D02*
X12970428Y-13376714D01*
X12970428Y-13405286D02*
X12984714Y-13391000D01*
X13013286Y-13376714D01*
X13056143Y-13376714D01*
X13084714Y-13391000D01*
X13099000Y-13419571D01*
X13099000Y-13576714D01*
X13099000Y-13419571D02*
X13113286Y-13391000D01*
X13141857Y-13376714D01*
X13184714Y-13376714D01*
X13213286Y-13391000D01*
X13227571Y-13419571D01*
X13227571Y-13576714D01*
X13370428Y-13576714D02*
X13370428Y-13376714D01*
X13370428Y-13405286D02*
X13384714Y-13391000D01*
X13413286Y-13376714D01*
X13456143Y-13376714D01*
X13484714Y-13391000D01*
X13499000Y-13419571D01*
X13499000Y-13576714D01*
X13499000Y-13419571D02*
X13513286Y-13391000D01*
X13541857Y-13376714D01*
X13584714Y-13376714D01*
X13613286Y-13391000D01*
X13627571Y-13419571D01*
X13627571Y-13576714D01*
X14213286Y-13262429D02*
X13956143Y-13648143D01*
X14599000Y-13276714D02*
X14627571Y-13276714D01*
X14656143Y-13291000D01*
X14670428Y-13305286D01*
X14684714Y-13333857D01*
X14699000Y-13391000D01*
X14699000Y-13462429D01*
X14684714Y-13519571D01*
X14670428Y-13548143D01*
X14656143Y-13562429D01*
X14627571Y-13576714D01*
X14599000Y-13576714D01*
X14570428Y-13562429D01*
X14556143Y-13548143D01*
X14541857Y-13519571D01*
X14527571Y-13462429D01*
X14527571Y-13391000D01*
X14541857Y-13333857D01*
X14556143Y-13305286D01*
X14570428Y-13291000D01*
X14599000Y-13276714D01*
X14827571Y-13548143D02*
X14841857Y-13562429D01*
X14827571Y-13576714D01*
X14813286Y-13562429D01*
X14827571Y-13548143D01*
X14827571Y-13576714D01*
X15027571Y-13276714D02*
X15056143Y-13276714D01*
X15084714Y-13291000D01*
X15099000Y-13305286D01*
X15113286Y-13333857D01*
X15127571Y-13391000D01*
X15127571Y-13462429D01*
X15113286Y-13519571D01*
X15099000Y-13548143D01*
X15084714Y-13562429D01*
X15056143Y-13576714D01*
X15027571Y-13576714D01*
X14999000Y-13562429D01*
X14984714Y-13548143D01*
X14970428Y-13519571D01*
X14956143Y-13462429D01*
X14956143Y-13391000D01*
X14970428Y-13333857D01*
X14984714Y-13305286D01*
X14999000Y-13291000D01*
X15027571Y-13276714D01*
X15227571Y-13276714D02*
X15413286Y-13276714D01*
X15313286Y-13391000D01*
X15356143Y-13391000D01*
X15384714Y-13405286D01*
X15399000Y-13419571D01*
X15413286Y-13448143D01*
X15413286Y-13519571D01*
X15399000Y-13548143D01*
X15384714Y-13562429D01*
X15356143Y-13576714D01*
X15270428Y-13576714D01*
X15241857Y-13562429D01*
X15227571Y-13548143D01*
X15699000Y-13576714D02*
X15527571Y-13576714D01*
X15613286Y-13576714D02*
X15613286Y-13276714D01*
X15584714Y-13319571D01*
X15556143Y-13348143D01*
X15527571Y-13362429D01*
X15813286Y-13276714D02*
X15813286Y-13333857D01*
X15927571Y-13276714D02*
X15927571Y-13333857D01*
X16370428Y-13691000D02*
X16356143Y-13676714D01*
X16327571Y-13633857D01*
X16313286Y-13605286D01*
X16299000Y-13562429D01*
X16284714Y-13491000D01*
X16284714Y-13433857D01*
X16299000Y-13362429D01*
X16313286Y-13319571D01*
X16327571Y-13291000D01*
X16356143Y-13248143D01*
X16370428Y-13233857D01*
X16641857Y-13576714D02*
X16470428Y-13576714D01*
X16556143Y-13576714D02*
X16556143Y-13276714D01*
X16527571Y-13319571D01*
X16499000Y-13348143D01*
X16470428Y-13362429D01*
X16899000Y-13376714D02*
X16899000Y-13576714D01*
X16827571Y-13262429D02*
X16756143Y-13476714D01*
X16941857Y-13476714D01*
X17284714Y-13576714D02*
X17284714Y-13276714D01*
X17413286Y-13576714D02*
X17413286Y-13419571D01*
X17399000Y-13391000D01*
X17370428Y-13376714D01*
X17327571Y-13376714D01*
X17299000Y-13391000D01*
X17284714Y-13405286D01*
X17599000Y-13576714D02*
X17570428Y-13562429D01*
X17556143Y-13548143D01*
X17541857Y-13519571D01*
X17541857Y-13433857D01*
X17556143Y-13405286D01*
X17570428Y-13391000D01*
X17599000Y-13376714D01*
X17641857Y-13376714D01*
X17670428Y-13391000D01*
X17684714Y-13405286D01*
X17699000Y-13433857D01*
X17699000Y-13519571D01*
X17684714Y-13548143D01*
X17670428Y-13562429D01*
X17641857Y-13576714D01*
X17599000Y-13576714D01*
X17870428Y-13576714D02*
X17841857Y-13562429D01*
X17827571Y-13533857D01*
X17827571Y-13276714D01*
X18099000Y-13562429D02*
X18070428Y-13576714D01*
X18013286Y-13576714D01*
X17984714Y-13562429D01*
X17970428Y-13533857D01*
X17970428Y-13419571D01*
X17984714Y-13391000D01*
X18013286Y-13376714D01*
X18070428Y-13376714D01*
X18099000Y-13391000D01*
X18113286Y-13419571D01*
X18113286Y-13448143D01*
X17970428Y-13476714D01*
X18227571Y-13562429D02*
X18256143Y-13576714D01*
X18313286Y-13576714D01*
X18341857Y-13562429D01*
X18356143Y-13533857D01*
X18356143Y-13519571D01*
X18341857Y-13491000D01*
X18313286Y-13476714D01*
X18270428Y-13476714D01*
X18241857Y-13462429D01*
X18227571Y-13433857D01*
X18227571Y-13419571D01*
X18241857Y-13391000D01*
X18270428Y-13376714D01*
X18313286Y-13376714D01*
X18341857Y-13391000D01*
X18456143Y-13691000D02*
X18470428Y-13676714D01*
X18499000Y-13633857D01*
X18513286Y-13605286D01*
X18527571Y-13562429D01*
X18541857Y-13491000D01*
X18541857Y-13433857D01*
X18527571Y-13362429D01*
X18513286Y-13319571D01*
X18499000Y-13291000D01*
X18470428Y-13248143D01*
X18456143Y-13233857D01*
M02*
