G04 #@! TF.GenerationSoftware,KiCad,Pcbnew,(5.1.8)-1*
G04 #@! TF.CreationDate,2022-01-11T15:51:24-08:00*
G04 #@! TF.ProjectId,AddressRegisterModule,41646472-6573-4735-9265-676973746572,1.0*
G04 #@! TF.SameCoordinates,Original*
G04 #@! TF.FileFunction,Legend,Bot*
G04 #@! TF.FilePolarity,Positive*
%FSLAX46Y46*%
G04 Gerber Fmt 4.6, Leading zero omitted, Abs format (unit mm)*
G04 Created by KiCad (PCBNEW (5.1.8)-1) date 2022-01-11 15:51:24*
%MOMM*%
%LPD*%
G01*
G04 APERTURE LIST*
%ADD10R,1.020000X4.570000*%
%ADD11R,0.510000X0.760000*%
G04 APERTURE END LIST*
%LPC*%
D10*
X128270000Y-116670000D03*
X129540000Y-116670000D03*
X130800000Y-116670000D03*
X132080000Y-116670000D03*
X133350000Y-116670000D03*
X134620000Y-116670000D03*
X135890000Y-116670000D03*
X137160000Y-116670000D03*
X138430000Y-116670000D03*
X139700000Y-116670000D03*
X140970000Y-116670000D03*
X142230000Y-116670000D03*
X143510000Y-116670000D03*
X144780000Y-116670000D03*
X146050000Y-116670000D03*
X147320000Y-116670000D03*
X148590000Y-116670000D03*
X149860000Y-116670000D03*
X151120000Y-116670000D03*
X152400000Y-116670000D03*
X153660000Y-116670000D03*
X154940000Y-116670000D03*
X156210000Y-116670000D03*
X157480000Y-116670000D03*
X158750000Y-116670000D03*
X160020000Y-116670000D03*
X161290000Y-116670000D03*
X162560000Y-116670000D03*
X163830000Y-116670000D03*
X165100000Y-116670000D03*
X166370000Y-116670000D03*
X167640000Y-116670000D03*
X168910000Y-116670000D03*
X170180000Y-116670000D03*
X171450000Y-116670000D03*
X172720000Y-116670000D03*
X173990000Y-116670000D03*
X175260000Y-116670000D03*
X176530000Y-116670000D03*
X177800000Y-116670000D03*
X179070000Y-116670000D03*
X180340000Y-116670000D03*
X181610000Y-116670000D03*
X182880000Y-116670000D03*
X184150000Y-116670000D03*
X185420000Y-116670000D03*
X186690000Y-116670000D03*
X187960000Y-116670000D03*
X189230000Y-116670000D03*
X193040000Y-116670000D03*
X194310000Y-116670000D03*
X195580000Y-116670000D03*
X196850000Y-116670000D03*
X198120000Y-116670000D03*
X199390000Y-116670000D03*
X200660000Y-116670000D03*
X201930000Y-116670000D03*
X203200000Y-116670000D03*
X204470000Y-116670000D03*
X205730000Y-116670000D03*
D11*
X128270000Y-119330000D03*
X129540000Y-119330000D03*
X130800000Y-119330000D03*
X132080000Y-119330000D03*
X133350000Y-119330000D03*
X134620000Y-119330000D03*
X135890000Y-119330000D03*
X137160000Y-119330000D03*
X138430000Y-119330000D03*
X139700000Y-119330000D03*
X140970000Y-119330000D03*
X142230000Y-119330000D03*
X143510000Y-119330000D03*
X144780000Y-119330000D03*
X146050000Y-119330000D03*
X147320000Y-119330000D03*
X148590000Y-119330000D03*
X149860000Y-119330000D03*
X151120000Y-119330000D03*
X152400000Y-119330000D03*
X153660000Y-119330000D03*
X154940000Y-119330000D03*
X156210000Y-119330000D03*
X157480000Y-119330000D03*
X158750000Y-119330000D03*
X160020000Y-119330000D03*
X161290000Y-119330000D03*
X162560000Y-119330000D03*
X163830000Y-119330000D03*
X165100000Y-119330000D03*
X166370000Y-119330000D03*
X167640000Y-119330000D03*
X168910000Y-119330000D03*
X170180000Y-119330000D03*
X171450000Y-119330000D03*
X172720000Y-119330000D03*
X173990000Y-119330000D03*
X175260000Y-119330000D03*
X176530000Y-119330000D03*
X177800000Y-119330000D03*
X179070000Y-119330000D03*
X180340000Y-119330000D03*
X181610000Y-119330000D03*
X182880000Y-119330000D03*
X184150000Y-119330000D03*
X185420000Y-119330000D03*
X186690000Y-119330000D03*
X187960000Y-119330000D03*
X189230000Y-119330000D03*
X193040000Y-119330000D03*
X194310000Y-119330000D03*
X195580000Y-119330000D03*
X196850000Y-119330000D03*
X198120000Y-119330000D03*
X199390000Y-119330000D03*
X200660000Y-119330000D03*
X201930000Y-119330000D03*
X203200000Y-119330000D03*
X204470000Y-119330000D03*
X205730000Y-119330000D03*
M02*
