G04 #@! TF.GenerationSoftware,KiCad,Pcbnew,(5.1.8)-1*
G04 #@! TF.CreationDate,2021-01-24T11:35:45-08:00*
G04 #@! TF.ProjectId,AddressRegisterModule,41646472-6573-4735-9265-676973746572,1.0*
G04 #@! TF.SameCoordinates,Original*
G04 #@! TF.FileFunction,Legend,Top*
G04 #@! TF.FilePolarity,Positive*
%FSLAX46Y46*%
G04 Gerber Fmt 4.6, Leading zero omitted, Abs format (unit mm)*
G04 Created by KiCad (PCBNEW (5.1.8)-1) date 2021-01-24 11:35:45*
%MOMM*%
%LPD*%
G01*
G04 APERTURE LIST*
%ADD10C,0.153000*%
%ADD11C,0.125000*%
%ADD12C,0.150000*%
%ADD13C,0.120000*%
G04 APERTURE END LIST*
D10*
X199976190Y-82861904D02*
X199976190Y-82061904D01*
X200166666Y-82061904D01*
X200280952Y-82100000D01*
X200357142Y-82176190D01*
X200395238Y-82252380D01*
X200433333Y-82404761D01*
X200433333Y-82519047D01*
X200395238Y-82671428D01*
X200357142Y-82747619D01*
X200280952Y-82823809D01*
X200166666Y-82861904D01*
X199976190Y-82861904D01*
X201042857Y-82442857D02*
X201157142Y-82480952D01*
X201195238Y-82519047D01*
X201233333Y-82595238D01*
X201233333Y-82709523D01*
X201195238Y-82785714D01*
X201157142Y-82823809D01*
X201080952Y-82861904D01*
X200776190Y-82861904D01*
X200776190Y-82061904D01*
X201042857Y-82061904D01*
X201119047Y-82100000D01*
X201157142Y-82138095D01*
X201195238Y-82214285D01*
X201195238Y-82290476D01*
X201157142Y-82366666D01*
X201119047Y-82404761D01*
X201042857Y-82442857D01*
X200776190Y-82442857D01*
X201576190Y-82061904D02*
X201576190Y-82709523D01*
X201614285Y-82785714D01*
X201652380Y-82823809D01*
X201728571Y-82861904D01*
X201880952Y-82861904D01*
X201957142Y-82823809D01*
X201995238Y-82785714D01*
X202033333Y-82709523D01*
X202033333Y-82061904D01*
X202376190Y-82823809D02*
X202490476Y-82861904D01*
X202680952Y-82861904D01*
X202757142Y-82823809D01*
X202795238Y-82785714D01*
X202833333Y-82709523D01*
X202833333Y-82633333D01*
X202795238Y-82557142D01*
X202757142Y-82519047D01*
X202680952Y-82480952D01*
X202528571Y-82442857D01*
X202452380Y-82404761D01*
X202414285Y-82366666D01*
X202376190Y-82290476D01*
X202376190Y-82214285D01*
X202414285Y-82138095D01*
X202452380Y-82100000D01*
X202528571Y-82061904D01*
X202719047Y-82061904D01*
X202833333Y-82100000D01*
X204052380Y-82442857D02*
X204166666Y-82480952D01*
X204204761Y-82519047D01*
X204242857Y-82595238D01*
X204242857Y-82709523D01*
X204204761Y-82785714D01*
X204166666Y-82823809D01*
X204090476Y-82861904D01*
X203785714Y-82861904D01*
X203785714Y-82061904D01*
X204052380Y-82061904D01*
X204128571Y-82100000D01*
X204166666Y-82138095D01*
X204204761Y-82214285D01*
X204204761Y-82290476D01*
X204166666Y-82366666D01*
X204128571Y-82404761D01*
X204052380Y-82442857D01*
X203785714Y-82442857D01*
X204928571Y-82328571D02*
X204928571Y-82861904D01*
X204585714Y-82328571D02*
X204585714Y-82747619D01*
X204623809Y-82823809D01*
X204700000Y-82861904D01*
X204814285Y-82861904D01*
X204890476Y-82823809D01*
X204928571Y-82785714D01*
X205195238Y-82328571D02*
X205500000Y-82328571D01*
X205309523Y-82861904D02*
X205309523Y-82176190D01*
X205347619Y-82100000D01*
X205423809Y-82061904D01*
X205500000Y-82061904D01*
X205652380Y-82328571D02*
X205957142Y-82328571D01*
X205766666Y-82861904D02*
X205766666Y-82176190D01*
X205804761Y-82100000D01*
X205880952Y-82061904D01*
X205957142Y-82061904D01*
X206528571Y-82823809D02*
X206452380Y-82861904D01*
X206300000Y-82861904D01*
X206223809Y-82823809D01*
X206185714Y-82747619D01*
X206185714Y-82442857D01*
X206223809Y-82366666D01*
X206300000Y-82328571D01*
X206452380Y-82328571D01*
X206528571Y-82366666D01*
X206566666Y-82442857D01*
X206566666Y-82519047D01*
X206185714Y-82595238D01*
X206909523Y-82861904D02*
X206909523Y-82328571D01*
X206909523Y-82480952D02*
X206947619Y-82404761D01*
X206985714Y-82366666D01*
X207061904Y-82328571D01*
X207138095Y-82328571D01*
X129995238Y-82633333D02*
X130376190Y-82633333D01*
X129919047Y-82861904D02*
X130185714Y-82061904D01*
X130452380Y-82861904D01*
X130985714Y-82442857D02*
X131100000Y-82480952D01*
X131138095Y-82519047D01*
X131176190Y-82595238D01*
X131176190Y-82709523D01*
X131138095Y-82785714D01*
X131100000Y-82823809D01*
X131023809Y-82861904D01*
X130719047Y-82861904D01*
X130719047Y-82061904D01*
X130985714Y-82061904D01*
X131061904Y-82100000D01*
X131100000Y-82138095D01*
X131138095Y-82214285D01*
X131138095Y-82290476D01*
X131100000Y-82366666D01*
X131061904Y-82404761D01*
X130985714Y-82442857D01*
X130719047Y-82442857D01*
X131519047Y-82061904D02*
X131519047Y-82709523D01*
X131557142Y-82785714D01*
X131595238Y-82823809D01*
X131671428Y-82861904D01*
X131823809Y-82861904D01*
X131900000Y-82823809D01*
X131938095Y-82785714D01*
X131976190Y-82709523D01*
X131976190Y-82061904D01*
X132319047Y-82823809D02*
X132433333Y-82861904D01*
X132623809Y-82861904D01*
X132700000Y-82823809D01*
X132738095Y-82785714D01*
X132776190Y-82709523D01*
X132776190Y-82633333D01*
X132738095Y-82557142D01*
X132700000Y-82519047D01*
X132623809Y-82480952D01*
X132471428Y-82442857D01*
X132395238Y-82404761D01*
X132357142Y-82366666D01*
X132319047Y-82290476D01*
X132319047Y-82214285D01*
X132357142Y-82138095D01*
X132395238Y-82100000D01*
X132471428Y-82061904D01*
X132661904Y-82061904D01*
X132776190Y-82100000D01*
X133995238Y-82442857D02*
X134109523Y-82480952D01*
X134147619Y-82519047D01*
X134185714Y-82595238D01*
X134185714Y-82709523D01*
X134147619Y-82785714D01*
X134109523Y-82823809D01*
X134033333Y-82861904D01*
X133728571Y-82861904D01*
X133728571Y-82061904D01*
X133995238Y-82061904D01*
X134071428Y-82100000D01*
X134109523Y-82138095D01*
X134147619Y-82214285D01*
X134147619Y-82290476D01*
X134109523Y-82366666D01*
X134071428Y-82404761D01*
X133995238Y-82442857D01*
X133728571Y-82442857D01*
X134871428Y-82328571D02*
X134871428Y-82861904D01*
X134528571Y-82328571D02*
X134528571Y-82747619D01*
X134566666Y-82823809D01*
X134642857Y-82861904D01*
X134757142Y-82861904D01*
X134833333Y-82823809D01*
X134871428Y-82785714D01*
X135138095Y-82328571D02*
X135442857Y-82328571D01*
X135252380Y-82861904D02*
X135252380Y-82176190D01*
X135290476Y-82100000D01*
X135366666Y-82061904D01*
X135442857Y-82061904D01*
X135595238Y-82328571D02*
X135900000Y-82328571D01*
X135709523Y-82861904D02*
X135709523Y-82176190D01*
X135747619Y-82100000D01*
X135823809Y-82061904D01*
X135900000Y-82061904D01*
X136471428Y-82823809D02*
X136395238Y-82861904D01*
X136242857Y-82861904D01*
X136166666Y-82823809D01*
X136128571Y-82747619D01*
X136128571Y-82442857D01*
X136166666Y-82366666D01*
X136242857Y-82328571D01*
X136395238Y-82328571D01*
X136471428Y-82366666D01*
X136509523Y-82442857D01*
X136509523Y-82519047D01*
X136128571Y-82595238D01*
X136852380Y-82861904D02*
X136852380Y-82328571D01*
X136852380Y-82480952D02*
X136890476Y-82404761D01*
X136928571Y-82366666D01*
X137004761Y-82328571D01*
X137080952Y-82328571D01*
X167709523Y-82361904D02*
X167442857Y-81980952D01*
X167252380Y-82361904D02*
X167252380Y-81561904D01*
X167557142Y-81561904D01*
X167633333Y-81600000D01*
X167671428Y-81638095D01*
X167709523Y-81714285D01*
X167709523Y-81828571D01*
X167671428Y-81904761D01*
X167633333Y-81942857D01*
X167557142Y-81980952D01*
X167252380Y-81980952D01*
X168357142Y-82323809D02*
X168280952Y-82361904D01*
X168128571Y-82361904D01*
X168052380Y-82323809D01*
X168014285Y-82247619D01*
X168014285Y-81942857D01*
X168052380Y-81866666D01*
X168128571Y-81828571D01*
X168280952Y-81828571D01*
X168357142Y-81866666D01*
X168395238Y-81942857D01*
X168395238Y-82019047D01*
X168014285Y-82095238D01*
X169080952Y-81828571D02*
X169080952Y-82476190D01*
X169042857Y-82552380D01*
X169004761Y-82590476D01*
X168928571Y-82628571D01*
X168814285Y-82628571D01*
X168738095Y-82590476D01*
X169080952Y-82323809D02*
X169004761Y-82361904D01*
X168852380Y-82361904D01*
X168776190Y-82323809D01*
X168738095Y-82285714D01*
X168700000Y-82209523D01*
X168700000Y-81980952D01*
X168738095Y-81904761D01*
X168776190Y-81866666D01*
X168852380Y-81828571D01*
X169004761Y-81828571D01*
X169080952Y-81866666D01*
X169461904Y-82361904D02*
X169461904Y-81828571D01*
X169461904Y-81561904D02*
X169423809Y-81600000D01*
X169461904Y-81638095D01*
X169500000Y-81600000D01*
X169461904Y-81561904D01*
X169461904Y-81638095D01*
X169804761Y-82323809D02*
X169880952Y-82361904D01*
X170033333Y-82361904D01*
X170109523Y-82323809D01*
X170147619Y-82247619D01*
X170147619Y-82209523D01*
X170109523Y-82133333D01*
X170033333Y-82095238D01*
X169919047Y-82095238D01*
X169842857Y-82057142D01*
X169804761Y-81980952D01*
X169804761Y-81942857D01*
X169842857Y-81866666D01*
X169919047Y-81828571D01*
X170033333Y-81828571D01*
X170109523Y-81866666D01*
X170376190Y-81828571D02*
X170680952Y-81828571D01*
X170490476Y-81561904D02*
X170490476Y-82247619D01*
X170528571Y-82323809D01*
X170604761Y-82361904D01*
X170680952Y-82361904D01*
X171252380Y-82323809D02*
X171176190Y-82361904D01*
X171023809Y-82361904D01*
X170947619Y-82323809D01*
X170909523Y-82247619D01*
X170909523Y-81942857D01*
X170947619Y-81866666D01*
X171023809Y-81828571D01*
X171176190Y-81828571D01*
X171252380Y-81866666D01*
X171290476Y-81942857D01*
X171290476Y-82019047D01*
X170909523Y-82095238D01*
X171633333Y-82361904D02*
X171633333Y-81828571D01*
X171633333Y-81980952D02*
X171671428Y-81904761D01*
X171709523Y-81866666D01*
X171785714Y-81828571D01*
X171861904Y-81828571D01*
X212500000Y-65000000D02*
X195000000Y-65000000D01*
X212500000Y-101000000D02*
X212500000Y-65000000D01*
X195000000Y-101000000D02*
X212500000Y-101000000D01*
X195000000Y-65000000D02*
X195000000Y-101000000D01*
X125000000Y-101000000D02*
X125000000Y-65000000D01*
X142000000Y-101000000D02*
X125000000Y-101000000D01*
X142000000Y-65000000D02*
X142000000Y-101000000D01*
X125000000Y-65000000D02*
X142000000Y-65000000D01*
X151500000Y-101000000D02*
X151500000Y-65000000D01*
X187500000Y-101000000D02*
X151500000Y-101000000D01*
X187500000Y-65000000D02*
X187500000Y-101000000D01*
X151500000Y-65000000D02*
X187500000Y-65000000D01*
X148564285Y-46900238D02*
X148633809Y-46900238D01*
X148703333Y-46935000D01*
X148738095Y-46969761D01*
X148772857Y-47039285D01*
X148807619Y-47178333D01*
X148807619Y-47352142D01*
X148772857Y-47491190D01*
X148738095Y-47560714D01*
X148703333Y-47595476D01*
X148633809Y-47630238D01*
X148564285Y-47630238D01*
X148494761Y-47595476D01*
X148460000Y-47560714D01*
X148425238Y-47491190D01*
X148390476Y-47352142D01*
X148390476Y-47178333D01*
X148425238Y-47039285D01*
X148460000Y-46969761D01*
X148494761Y-46935000D01*
X148564285Y-46900238D01*
X149050952Y-46900238D02*
X149537619Y-46900238D01*
X149224761Y-47630238D01*
X152179523Y-46900238D02*
X152249047Y-46900238D01*
X152318571Y-46935000D01*
X152353333Y-46969761D01*
X152388095Y-47039285D01*
X152422857Y-47178333D01*
X152422857Y-47352142D01*
X152388095Y-47491190D01*
X152353333Y-47560714D01*
X152318571Y-47595476D01*
X152249047Y-47630238D01*
X152179523Y-47630238D01*
X152110000Y-47595476D01*
X152075238Y-47560714D01*
X152040476Y-47491190D01*
X152005714Y-47352142D01*
X152005714Y-47178333D01*
X152040476Y-47039285D01*
X152075238Y-46969761D01*
X152110000Y-46935000D01*
X152179523Y-46900238D01*
X153048571Y-46900238D02*
X152909523Y-46900238D01*
X152840000Y-46935000D01*
X152805238Y-46969761D01*
X152735714Y-47074047D01*
X152700952Y-47213095D01*
X152700952Y-47491190D01*
X152735714Y-47560714D01*
X152770476Y-47595476D01*
X152840000Y-47630238D01*
X152979047Y-47630238D01*
X153048571Y-47595476D01*
X153083333Y-47560714D01*
X153118095Y-47491190D01*
X153118095Y-47317380D01*
X153083333Y-47247857D01*
X153048571Y-47213095D01*
X152979047Y-47178333D01*
X152840000Y-47178333D01*
X152770476Y-47213095D01*
X152735714Y-47247857D01*
X152700952Y-47317380D01*
X155794761Y-46900238D02*
X155864285Y-46900238D01*
X155933809Y-46935000D01*
X155968571Y-46969761D01*
X156003333Y-47039285D01*
X156038095Y-47178333D01*
X156038095Y-47352142D01*
X156003333Y-47491190D01*
X155968571Y-47560714D01*
X155933809Y-47595476D01*
X155864285Y-47630238D01*
X155794761Y-47630238D01*
X155725238Y-47595476D01*
X155690476Y-47560714D01*
X155655714Y-47491190D01*
X155620952Y-47352142D01*
X155620952Y-47178333D01*
X155655714Y-47039285D01*
X155690476Y-46969761D01*
X155725238Y-46935000D01*
X155794761Y-46900238D01*
X156698571Y-46900238D02*
X156350952Y-46900238D01*
X156316190Y-47247857D01*
X156350952Y-47213095D01*
X156420476Y-47178333D01*
X156594285Y-47178333D01*
X156663809Y-47213095D01*
X156698571Y-47247857D01*
X156733333Y-47317380D01*
X156733333Y-47491190D01*
X156698571Y-47560714D01*
X156663809Y-47595476D01*
X156594285Y-47630238D01*
X156420476Y-47630238D01*
X156350952Y-47595476D01*
X156316190Y-47560714D01*
X159410000Y-46900238D02*
X159479523Y-46900238D01*
X159549047Y-46935000D01*
X159583809Y-46969761D01*
X159618571Y-47039285D01*
X159653333Y-47178333D01*
X159653333Y-47352142D01*
X159618571Y-47491190D01*
X159583809Y-47560714D01*
X159549047Y-47595476D01*
X159479523Y-47630238D01*
X159410000Y-47630238D01*
X159340476Y-47595476D01*
X159305714Y-47560714D01*
X159270952Y-47491190D01*
X159236190Y-47352142D01*
X159236190Y-47178333D01*
X159270952Y-47039285D01*
X159305714Y-46969761D01*
X159340476Y-46935000D01*
X159410000Y-46900238D01*
X160279047Y-47143571D02*
X160279047Y-47630238D01*
X160105238Y-46865476D02*
X159931428Y-47386904D01*
X160383333Y-47386904D01*
X163025238Y-46900238D02*
X163094761Y-46900238D01*
X163164285Y-46935000D01*
X163199047Y-46969761D01*
X163233809Y-47039285D01*
X163268571Y-47178333D01*
X163268571Y-47352142D01*
X163233809Y-47491190D01*
X163199047Y-47560714D01*
X163164285Y-47595476D01*
X163094761Y-47630238D01*
X163025238Y-47630238D01*
X162955714Y-47595476D01*
X162920952Y-47560714D01*
X162886190Y-47491190D01*
X162851428Y-47352142D01*
X162851428Y-47178333D01*
X162886190Y-47039285D01*
X162920952Y-46969761D01*
X162955714Y-46935000D01*
X163025238Y-46900238D01*
X163511904Y-46900238D02*
X163963809Y-46900238D01*
X163720476Y-47178333D01*
X163824761Y-47178333D01*
X163894285Y-47213095D01*
X163929047Y-47247857D01*
X163963809Y-47317380D01*
X163963809Y-47491190D01*
X163929047Y-47560714D01*
X163894285Y-47595476D01*
X163824761Y-47630238D01*
X163616190Y-47630238D01*
X163546666Y-47595476D01*
X163511904Y-47560714D01*
X166640476Y-46900238D02*
X166710000Y-46900238D01*
X166779523Y-46935000D01*
X166814285Y-46969761D01*
X166849047Y-47039285D01*
X166883809Y-47178333D01*
X166883809Y-47352142D01*
X166849047Y-47491190D01*
X166814285Y-47560714D01*
X166779523Y-47595476D01*
X166710000Y-47630238D01*
X166640476Y-47630238D01*
X166570952Y-47595476D01*
X166536190Y-47560714D01*
X166501428Y-47491190D01*
X166466666Y-47352142D01*
X166466666Y-47178333D01*
X166501428Y-47039285D01*
X166536190Y-46969761D01*
X166570952Y-46935000D01*
X166640476Y-46900238D01*
X167161904Y-46969761D02*
X167196666Y-46935000D01*
X167266190Y-46900238D01*
X167440000Y-46900238D01*
X167509523Y-46935000D01*
X167544285Y-46969761D01*
X167579047Y-47039285D01*
X167579047Y-47108809D01*
X167544285Y-47213095D01*
X167127142Y-47630238D01*
X167579047Y-47630238D01*
X170255714Y-46900238D02*
X170325238Y-46900238D01*
X170394761Y-46935000D01*
X170429523Y-46969761D01*
X170464285Y-47039285D01*
X170499047Y-47178333D01*
X170499047Y-47352142D01*
X170464285Y-47491190D01*
X170429523Y-47560714D01*
X170394761Y-47595476D01*
X170325238Y-47630238D01*
X170255714Y-47630238D01*
X170186190Y-47595476D01*
X170151428Y-47560714D01*
X170116666Y-47491190D01*
X170081904Y-47352142D01*
X170081904Y-47178333D01*
X170116666Y-47039285D01*
X170151428Y-46969761D01*
X170186190Y-46935000D01*
X170255714Y-46900238D01*
X171194285Y-47630238D02*
X170777142Y-47630238D01*
X170985714Y-47630238D02*
X170985714Y-46900238D01*
X170916190Y-47004523D01*
X170846666Y-47074047D01*
X170777142Y-47108809D01*
X173870952Y-46900238D02*
X173940476Y-46900238D01*
X174010000Y-46935000D01*
X174044761Y-46969761D01*
X174079523Y-47039285D01*
X174114285Y-47178333D01*
X174114285Y-47352142D01*
X174079523Y-47491190D01*
X174044761Y-47560714D01*
X174010000Y-47595476D01*
X173940476Y-47630238D01*
X173870952Y-47630238D01*
X173801428Y-47595476D01*
X173766666Y-47560714D01*
X173731904Y-47491190D01*
X173697142Y-47352142D01*
X173697142Y-47178333D01*
X173731904Y-47039285D01*
X173766666Y-46969761D01*
X173801428Y-46935000D01*
X173870952Y-46900238D01*
X174566190Y-46900238D02*
X174635714Y-46900238D01*
X174705238Y-46935000D01*
X174740000Y-46969761D01*
X174774761Y-47039285D01*
X174809523Y-47178333D01*
X174809523Y-47352142D01*
X174774761Y-47491190D01*
X174740000Y-47560714D01*
X174705238Y-47595476D01*
X174635714Y-47630238D01*
X174566190Y-47630238D01*
X174496666Y-47595476D01*
X174461904Y-47560714D01*
X174427142Y-47491190D01*
X174392380Y-47352142D01*
X174392380Y-47178333D01*
X174427142Y-47039285D01*
X174461904Y-46969761D01*
X174496666Y-46935000D01*
X174566190Y-46900238D01*
X117500000Y-41250000D02*
X209200000Y-41250000D01*
X117500000Y-48500000D02*
X117500000Y-41250000D01*
X209200000Y-48500000D02*
X117500000Y-48500000D01*
X209200000Y-41250000D02*
X209200000Y-48500000D01*
D11*
X182887619Y-48239761D02*
X182887619Y-47886428D01*
X182887619Y-47987380D02*
X182912857Y-47936904D01*
X182938095Y-47911666D01*
X182988571Y-47886428D01*
X183039047Y-47886428D01*
X183417619Y-48214523D02*
X183367142Y-48239761D01*
X183266190Y-48239761D01*
X183215714Y-48214523D01*
X183190476Y-48164047D01*
X183190476Y-47962142D01*
X183215714Y-47911666D01*
X183266190Y-47886428D01*
X183367142Y-47886428D01*
X183417619Y-47911666D01*
X183442857Y-47962142D01*
X183442857Y-48012619D01*
X183190476Y-48063095D01*
X183897142Y-48239761D02*
X183897142Y-47962142D01*
X183871904Y-47911666D01*
X183821428Y-47886428D01*
X183720476Y-47886428D01*
X183670000Y-47911666D01*
X183897142Y-48214523D02*
X183846666Y-48239761D01*
X183720476Y-48239761D01*
X183670000Y-48214523D01*
X183644761Y-48164047D01*
X183644761Y-48113571D01*
X183670000Y-48063095D01*
X183720476Y-48037857D01*
X183846666Y-48037857D01*
X183897142Y-48012619D01*
X184376666Y-48239761D02*
X184376666Y-47709761D01*
X184376666Y-48214523D02*
X184326190Y-48239761D01*
X184225238Y-48239761D01*
X184174761Y-48214523D01*
X184149523Y-48189285D01*
X184124285Y-48138809D01*
X184124285Y-47987380D01*
X184149523Y-47936904D01*
X184174761Y-47911666D01*
X184225238Y-47886428D01*
X184326190Y-47886428D01*
X184376666Y-47911666D01*
X186597619Y-47886428D02*
X186698571Y-48239761D01*
X186799523Y-47987380D01*
X186900476Y-48239761D01*
X187001428Y-47886428D01*
X187203333Y-48239761D02*
X187203333Y-47886428D01*
X187203333Y-47987380D02*
X187228571Y-47936904D01*
X187253809Y-47911666D01*
X187304285Y-47886428D01*
X187354761Y-47886428D01*
X187531428Y-48239761D02*
X187531428Y-47886428D01*
X187531428Y-47709761D02*
X187506190Y-47735000D01*
X187531428Y-47760238D01*
X187556666Y-47735000D01*
X187531428Y-47709761D01*
X187531428Y-47760238D01*
X187708095Y-47886428D02*
X187910000Y-47886428D01*
X187783809Y-47709761D02*
X187783809Y-48164047D01*
X187809047Y-48214523D01*
X187859523Y-48239761D01*
X187910000Y-48239761D01*
X188288571Y-48214523D02*
X188238095Y-48239761D01*
X188137142Y-48239761D01*
X188086666Y-48214523D01*
X188061428Y-48164047D01*
X188061428Y-47962142D01*
X188086666Y-47911666D01*
X188137142Y-47886428D01*
X188238095Y-47886428D01*
X188288571Y-47911666D01*
X188313809Y-47962142D01*
X188313809Y-48012619D01*
X188061428Y-48063095D01*
X190509523Y-47886428D02*
X190610476Y-48239761D01*
X190711428Y-47987380D01*
X190812380Y-48239761D01*
X190913333Y-47886428D01*
X191115238Y-48239761D02*
X191115238Y-47886428D01*
X191115238Y-47987380D02*
X191140476Y-47936904D01*
X191165714Y-47911666D01*
X191216190Y-47886428D01*
X191266666Y-47886428D01*
X191443333Y-48239761D02*
X191443333Y-47886428D01*
X191443333Y-47709761D02*
X191418095Y-47735000D01*
X191443333Y-47760238D01*
X191468571Y-47735000D01*
X191443333Y-47709761D01*
X191443333Y-47760238D01*
X191620000Y-47886428D02*
X191821904Y-47886428D01*
X191695714Y-47709761D02*
X191695714Y-48164047D01*
X191720952Y-48214523D01*
X191771428Y-48239761D01*
X191821904Y-48239761D01*
X192200476Y-48214523D02*
X192150000Y-48239761D01*
X192049047Y-48239761D01*
X191998571Y-48214523D01*
X191973333Y-48164047D01*
X191973333Y-47962142D01*
X191998571Y-47911666D01*
X192049047Y-47886428D01*
X192150000Y-47886428D01*
X192200476Y-47911666D01*
X192225714Y-47962142D01*
X192225714Y-48012619D01*
X191973333Y-48063095D01*
X194421428Y-47886428D02*
X194522380Y-48239761D01*
X194623333Y-47987380D01*
X194724285Y-48239761D01*
X194825238Y-47886428D01*
X195027142Y-48239761D02*
X195027142Y-47886428D01*
X195027142Y-47987380D02*
X195052380Y-47936904D01*
X195077619Y-47911666D01*
X195128095Y-47886428D01*
X195178571Y-47886428D01*
X195355238Y-48239761D02*
X195355238Y-47886428D01*
X195355238Y-47709761D02*
X195330000Y-47735000D01*
X195355238Y-47760238D01*
X195380476Y-47735000D01*
X195355238Y-47709761D01*
X195355238Y-47760238D01*
X195531904Y-47886428D02*
X195733809Y-47886428D01*
X195607619Y-47709761D02*
X195607619Y-48164047D01*
X195632857Y-48214523D01*
X195683333Y-48239761D01*
X195733809Y-48239761D01*
X196112380Y-48214523D02*
X196061904Y-48239761D01*
X195960952Y-48239761D01*
X195910476Y-48214523D01*
X195885238Y-48164047D01*
X195885238Y-47962142D01*
X195910476Y-47911666D01*
X195960952Y-47886428D01*
X196061904Y-47886428D01*
X196112380Y-47911666D01*
X196137619Y-47962142D01*
X196137619Y-48012619D01*
X195885238Y-48063095D01*
X182950714Y-47489761D02*
X182950714Y-46959761D01*
X182950714Y-47464523D02*
X182900238Y-47489761D01*
X182799285Y-47489761D01*
X182748809Y-47464523D01*
X182723571Y-47439285D01*
X182698333Y-47388809D01*
X182698333Y-47237380D01*
X182723571Y-47186904D01*
X182748809Y-47161666D01*
X182799285Y-47136428D01*
X182900238Y-47136428D01*
X182950714Y-47161666D01*
X183076904Y-47540238D02*
X183480714Y-47540238D01*
X183606904Y-47489761D02*
X183606904Y-46959761D01*
X183606904Y-47161666D02*
X183657380Y-47136428D01*
X183758333Y-47136428D01*
X183808809Y-47161666D01*
X183834047Y-47186904D01*
X183859285Y-47237380D01*
X183859285Y-47388809D01*
X183834047Y-47439285D01*
X183808809Y-47464523D01*
X183758333Y-47489761D01*
X183657380Y-47489761D01*
X183606904Y-47464523D01*
X184313571Y-47136428D02*
X184313571Y-47489761D01*
X184086428Y-47136428D02*
X184086428Y-47414047D01*
X184111666Y-47464523D01*
X184162142Y-47489761D01*
X184237857Y-47489761D01*
X184288333Y-47464523D01*
X184313571Y-47439285D01*
X184540714Y-47464523D02*
X184591190Y-47489761D01*
X184692142Y-47489761D01*
X184742619Y-47464523D01*
X184767857Y-47414047D01*
X184767857Y-47388809D01*
X184742619Y-47338333D01*
X184692142Y-47313095D01*
X184616428Y-47313095D01*
X184565952Y-47287857D01*
X184540714Y-47237380D01*
X184540714Y-47212142D01*
X184565952Y-47161666D01*
X184616428Y-47136428D01*
X184692142Y-47136428D01*
X184742619Y-47161666D01*
X186837380Y-47489761D02*
X186837380Y-46959761D01*
X186837380Y-47464523D02*
X186786904Y-47489761D01*
X186685952Y-47489761D01*
X186635476Y-47464523D01*
X186610238Y-47439285D01*
X186585000Y-47388809D01*
X186585000Y-47237380D01*
X186610238Y-47186904D01*
X186635476Y-47161666D01*
X186685952Y-47136428D01*
X186786904Y-47136428D01*
X186837380Y-47161666D01*
X186963571Y-47540238D02*
X187367380Y-47540238D01*
X187493571Y-47489761D02*
X187493571Y-46959761D01*
X187493571Y-47161666D02*
X187544047Y-47136428D01*
X187645000Y-47136428D01*
X187695476Y-47161666D01*
X187720714Y-47186904D01*
X187745952Y-47237380D01*
X187745952Y-47388809D01*
X187720714Y-47439285D01*
X187695476Y-47464523D01*
X187645000Y-47489761D01*
X187544047Y-47489761D01*
X187493571Y-47464523D01*
X188200238Y-47136428D02*
X188200238Y-47489761D01*
X187973095Y-47136428D02*
X187973095Y-47414047D01*
X187998333Y-47464523D01*
X188048809Y-47489761D01*
X188124523Y-47489761D01*
X188175000Y-47464523D01*
X188200238Y-47439285D01*
X188427380Y-47464523D02*
X188477857Y-47489761D01*
X188578809Y-47489761D01*
X188629285Y-47464523D01*
X188654523Y-47414047D01*
X188654523Y-47388809D01*
X188629285Y-47338333D01*
X188578809Y-47313095D01*
X188503095Y-47313095D01*
X188452619Y-47287857D01*
X188427380Y-47237380D01*
X188427380Y-47212142D01*
X188452619Y-47161666D01*
X188503095Y-47136428D01*
X188578809Y-47136428D01*
X188629285Y-47161666D01*
X190446428Y-47136428D02*
X190572619Y-47489761D01*
X190698809Y-47136428D02*
X190572619Y-47489761D01*
X190522142Y-47615952D01*
X190496904Y-47641190D01*
X190446428Y-47666428D01*
X190774523Y-47540238D02*
X191178333Y-47540238D01*
X191304523Y-47489761D02*
X191304523Y-46959761D01*
X191304523Y-47161666D02*
X191355000Y-47136428D01*
X191455952Y-47136428D01*
X191506428Y-47161666D01*
X191531666Y-47186904D01*
X191556904Y-47237380D01*
X191556904Y-47388809D01*
X191531666Y-47439285D01*
X191506428Y-47464523D01*
X191455952Y-47489761D01*
X191355000Y-47489761D01*
X191304523Y-47464523D01*
X192011190Y-47136428D02*
X192011190Y-47489761D01*
X191784047Y-47136428D02*
X191784047Y-47414047D01*
X191809285Y-47464523D01*
X191859761Y-47489761D01*
X191935476Y-47489761D01*
X191985952Y-47464523D01*
X192011190Y-47439285D01*
X192238333Y-47464523D02*
X192288809Y-47489761D01*
X192389761Y-47489761D01*
X192440238Y-47464523D01*
X192465476Y-47414047D01*
X192465476Y-47388809D01*
X192440238Y-47338333D01*
X192389761Y-47313095D01*
X192314047Y-47313095D01*
X192263571Y-47287857D01*
X192238333Y-47237380D01*
X192238333Y-47212142D01*
X192263571Y-47161666D01*
X192314047Y-47136428D01*
X192389761Y-47136428D01*
X192440238Y-47161666D01*
X194257380Y-47489761D02*
X194535000Y-47136428D01*
X194257380Y-47136428D02*
X194535000Y-47489761D01*
X194610714Y-47540238D02*
X195014523Y-47540238D01*
X195140714Y-47489761D02*
X195140714Y-46959761D01*
X195140714Y-47161666D02*
X195191190Y-47136428D01*
X195292142Y-47136428D01*
X195342619Y-47161666D01*
X195367857Y-47186904D01*
X195393095Y-47237380D01*
X195393095Y-47388809D01*
X195367857Y-47439285D01*
X195342619Y-47464523D01*
X195292142Y-47489761D01*
X195191190Y-47489761D01*
X195140714Y-47464523D01*
X195847380Y-47136428D02*
X195847380Y-47489761D01*
X195620238Y-47136428D02*
X195620238Y-47414047D01*
X195645476Y-47464523D01*
X195695952Y-47489761D01*
X195771666Y-47489761D01*
X195822142Y-47464523D01*
X195847380Y-47439285D01*
X196074523Y-47464523D02*
X196125000Y-47489761D01*
X196225952Y-47489761D01*
X196276428Y-47464523D01*
X196301666Y-47414047D01*
X196301666Y-47388809D01*
X196276428Y-47338333D01*
X196225952Y-47313095D01*
X196150238Y-47313095D01*
X196099761Y-47287857D01*
X196074523Y-47237380D01*
X196074523Y-47212142D01*
X196099761Y-47161666D01*
X196150238Y-47136428D01*
X196225952Y-47136428D01*
X196276428Y-47161666D01*
D10*
X118807619Y-47670238D02*
X118390476Y-47670238D01*
X118599047Y-47670238D02*
X118599047Y-46940238D01*
X118529523Y-47044523D01*
X118460000Y-47114047D01*
X118390476Y-47148809D01*
X119468095Y-46940238D02*
X119120476Y-46940238D01*
X119085714Y-47287857D01*
X119120476Y-47253095D01*
X119190000Y-47218333D01*
X119363809Y-47218333D01*
X119433333Y-47253095D01*
X119468095Y-47287857D01*
X119502857Y-47357380D01*
X119502857Y-47531190D01*
X119468095Y-47600714D01*
X119433333Y-47635476D01*
X119363809Y-47670238D01*
X119190000Y-47670238D01*
X119120476Y-47635476D01*
X119085714Y-47600714D01*
X122422857Y-47670238D02*
X122005714Y-47670238D01*
X122214285Y-47670238D02*
X122214285Y-46940238D01*
X122144761Y-47044523D01*
X122075238Y-47114047D01*
X122005714Y-47148809D01*
X123048571Y-47183571D02*
X123048571Y-47670238D01*
X122874761Y-46905476D02*
X122700952Y-47426904D01*
X123152857Y-47426904D01*
X126038095Y-47670238D02*
X125620952Y-47670238D01*
X125829523Y-47670238D02*
X125829523Y-46940238D01*
X125760000Y-47044523D01*
X125690476Y-47114047D01*
X125620952Y-47148809D01*
X126281428Y-46940238D02*
X126733333Y-46940238D01*
X126490000Y-47218333D01*
X126594285Y-47218333D01*
X126663809Y-47253095D01*
X126698571Y-47287857D01*
X126733333Y-47357380D01*
X126733333Y-47531190D01*
X126698571Y-47600714D01*
X126663809Y-47635476D01*
X126594285Y-47670238D01*
X126385714Y-47670238D01*
X126316190Y-47635476D01*
X126281428Y-47600714D01*
X129653333Y-47670238D02*
X129236190Y-47670238D01*
X129444761Y-47670238D02*
X129444761Y-46940238D01*
X129375238Y-47044523D01*
X129305714Y-47114047D01*
X129236190Y-47148809D01*
X129931428Y-47009761D02*
X129966190Y-46975000D01*
X130035714Y-46940238D01*
X130209523Y-46940238D01*
X130279047Y-46975000D01*
X130313809Y-47009761D01*
X130348571Y-47079285D01*
X130348571Y-47148809D01*
X130313809Y-47253095D01*
X129896666Y-47670238D01*
X130348571Y-47670238D01*
X133268571Y-47670238D02*
X132851428Y-47670238D01*
X133059999Y-47670238D02*
X133059999Y-46940238D01*
X132990476Y-47044523D01*
X132920952Y-47114047D01*
X132851428Y-47148809D01*
X133963809Y-47670238D02*
X133546666Y-47670238D01*
X133755238Y-47670238D02*
X133755238Y-46940238D01*
X133685714Y-47044523D01*
X133616190Y-47114047D01*
X133546666Y-47148809D01*
X136883809Y-47670238D02*
X136466666Y-47670238D01*
X136675238Y-47670238D02*
X136675238Y-46940238D01*
X136605714Y-47044523D01*
X136536190Y-47114047D01*
X136466666Y-47148809D01*
X137335714Y-46940238D02*
X137405238Y-46940238D01*
X137474761Y-46975000D01*
X137509523Y-47009761D01*
X137544285Y-47079285D01*
X137579047Y-47218333D01*
X137579047Y-47392142D01*
X137544285Y-47531190D01*
X137509523Y-47600714D01*
X137474761Y-47635476D01*
X137405238Y-47670238D01*
X137335714Y-47670238D01*
X137266190Y-47635476D01*
X137231428Y-47600714D01*
X137196666Y-47531190D01*
X137161904Y-47392142D01*
X137161904Y-47218333D01*
X137196666Y-47079285D01*
X137231428Y-47009761D01*
X137266190Y-46975000D01*
X137335714Y-46940238D01*
X140255714Y-46940238D02*
X140325238Y-46940238D01*
X140394761Y-46975000D01*
X140429523Y-47009761D01*
X140464285Y-47079285D01*
X140499047Y-47218333D01*
X140499047Y-47392142D01*
X140464285Y-47531190D01*
X140429523Y-47600714D01*
X140394761Y-47635476D01*
X140325238Y-47670238D01*
X140255714Y-47670238D01*
X140186190Y-47635476D01*
X140151428Y-47600714D01*
X140116666Y-47531190D01*
X140081904Y-47392142D01*
X140081904Y-47218333D01*
X140116666Y-47079285D01*
X140151428Y-47009761D01*
X140186190Y-46975000D01*
X140255714Y-46940238D01*
X140846666Y-47670238D02*
X140985714Y-47670238D01*
X141055238Y-47635476D01*
X141090000Y-47600714D01*
X141159523Y-47496428D01*
X141194285Y-47357380D01*
X141194285Y-47079285D01*
X141159523Y-47009761D01*
X141124761Y-46975000D01*
X141055238Y-46940238D01*
X140916190Y-46940238D01*
X140846666Y-46975000D01*
X140811904Y-47009761D01*
X140777142Y-47079285D01*
X140777142Y-47253095D01*
X140811904Y-47322619D01*
X140846666Y-47357380D01*
X140916190Y-47392142D01*
X141055238Y-47392142D01*
X141124761Y-47357380D01*
X141159523Y-47322619D01*
X141194285Y-47253095D01*
X143870952Y-46940238D02*
X143940476Y-46940238D01*
X144010000Y-46975000D01*
X144044761Y-47009761D01*
X144079523Y-47079285D01*
X144114285Y-47218333D01*
X144114285Y-47392142D01*
X144079523Y-47531190D01*
X144044761Y-47600714D01*
X144010000Y-47635476D01*
X143940476Y-47670238D01*
X143870952Y-47670238D01*
X143801428Y-47635476D01*
X143766666Y-47600714D01*
X143731904Y-47531190D01*
X143697142Y-47392142D01*
X143697142Y-47218333D01*
X143731904Y-47079285D01*
X143766666Y-47009761D01*
X143801428Y-46975000D01*
X143870952Y-46940238D01*
X144531428Y-47253095D02*
X144461904Y-47218333D01*
X144427142Y-47183571D01*
X144392380Y-47114047D01*
X144392380Y-47079285D01*
X144427142Y-47009761D01*
X144461904Y-46975000D01*
X144531428Y-46940238D01*
X144670476Y-46940238D01*
X144740000Y-46975000D01*
X144774761Y-47009761D01*
X144809523Y-47079285D01*
X144809523Y-47114047D01*
X144774761Y-47183571D01*
X144740000Y-47218333D01*
X144670476Y-47253095D01*
X144531428Y-47253095D01*
X144461904Y-47287857D01*
X144427142Y-47322619D01*
X144392380Y-47392142D01*
X144392380Y-47531190D01*
X144427142Y-47600714D01*
X144461904Y-47635476D01*
X144531428Y-47670238D01*
X144670476Y-47670238D01*
X144740000Y-47635476D01*
X144774761Y-47600714D01*
X144809523Y-47531190D01*
X144809523Y-47392142D01*
X144774761Y-47322619D01*
X144740000Y-47287857D01*
X144670476Y-47253095D01*
D12*
X211050000Y-47500000D02*
X211050000Y-42491000D01*
X216050000Y-47500000D02*
X211050000Y-47500000D01*
X216050000Y-42491000D02*
X216050000Y-47500000D01*
X211050000Y-42491000D02*
X216050000Y-42491000D01*
X207364285Y-50250000D02*
X208078571Y-50250000D01*
X207221428Y-50678571D02*
X207721428Y-49178571D01*
X208221428Y-50678571D01*
X209364285Y-50678571D02*
X209364285Y-49178571D01*
X209364285Y-50607142D02*
X209221428Y-50678571D01*
X208935714Y-50678571D01*
X208792857Y-50607142D01*
X208721428Y-50535714D01*
X208650000Y-50392857D01*
X208650000Y-49964285D01*
X208721428Y-49821428D01*
X208792857Y-49750000D01*
X208935714Y-49678571D01*
X209221428Y-49678571D01*
X209364285Y-49750000D01*
X210721428Y-50678571D02*
X210721428Y-49178571D01*
X210721428Y-50607142D02*
X210578571Y-50678571D01*
X210292857Y-50678571D01*
X210150000Y-50607142D01*
X210078571Y-50535714D01*
X210007142Y-50392857D01*
X210007142Y-49964285D01*
X210078571Y-49821428D01*
X210150000Y-49750000D01*
X210292857Y-49678571D01*
X210578571Y-49678571D01*
X210721428Y-49750000D01*
X211435714Y-50678571D02*
X211435714Y-49678571D01*
X211435714Y-49964285D02*
X211507142Y-49821428D01*
X211578571Y-49750000D01*
X211721428Y-49678571D01*
X211864285Y-49678571D01*
X212935714Y-50607142D02*
X212792857Y-50678571D01*
X212507142Y-50678571D01*
X212364285Y-50607142D01*
X212292857Y-50464285D01*
X212292857Y-49892857D01*
X212364285Y-49750000D01*
X212507142Y-49678571D01*
X212792857Y-49678571D01*
X212935714Y-49750000D01*
X213007142Y-49892857D01*
X213007142Y-50035714D01*
X212292857Y-50178571D01*
X213578571Y-50607142D02*
X213721428Y-50678571D01*
X214007142Y-50678571D01*
X214150000Y-50607142D01*
X214221428Y-50464285D01*
X214221428Y-50392857D01*
X214150000Y-50250000D01*
X214007142Y-50178571D01*
X213792857Y-50178571D01*
X213650000Y-50107142D01*
X213578571Y-49964285D01*
X213578571Y-49892857D01*
X213650000Y-49750000D01*
X213792857Y-49678571D01*
X214007142Y-49678571D01*
X214150000Y-49750000D01*
X214792857Y-50607142D02*
X214935714Y-50678571D01*
X215221428Y-50678571D01*
X215364285Y-50607142D01*
X215435714Y-50464285D01*
X215435714Y-50392857D01*
X215364285Y-50250000D01*
X215221428Y-50178571D01*
X215007142Y-50178571D01*
X214864285Y-50107142D01*
X214792857Y-49964285D01*
X214792857Y-49892857D01*
X214864285Y-49750000D01*
X215007142Y-49678571D01*
X215221428Y-49678571D01*
X215364285Y-49750000D01*
X208042857Y-53078571D02*
X207542857Y-52364285D01*
X207185714Y-53078571D02*
X207185714Y-51578571D01*
X207757142Y-51578571D01*
X207900000Y-51650000D01*
X207971428Y-51721428D01*
X208042857Y-51864285D01*
X208042857Y-52078571D01*
X207971428Y-52221428D01*
X207900000Y-52292857D01*
X207757142Y-52364285D01*
X207185714Y-52364285D01*
X209257142Y-53007142D02*
X209114285Y-53078571D01*
X208828571Y-53078571D01*
X208685714Y-53007142D01*
X208614285Y-52864285D01*
X208614285Y-52292857D01*
X208685714Y-52150000D01*
X208828571Y-52078571D01*
X209114285Y-52078571D01*
X209257142Y-52150000D01*
X209328571Y-52292857D01*
X209328571Y-52435714D01*
X208614285Y-52578571D01*
X210614285Y-52078571D02*
X210614285Y-53292857D01*
X210542857Y-53435714D01*
X210471428Y-53507142D01*
X210328571Y-53578571D01*
X210114285Y-53578571D01*
X209971428Y-53507142D01*
X210614285Y-53007142D02*
X210471428Y-53078571D01*
X210185714Y-53078571D01*
X210042857Y-53007142D01*
X209971428Y-52935714D01*
X209900000Y-52792857D01*
X209900000Y-52364285D01*
X209971428Y-52221428D01*
X210042857Y-52150000D01*
X210185714Y-52078571D01*
X210471428Y-52078571D01*
X210614285Y-52150000D01*
X211328571Y-53078571D02*
X211328571Y-52078571D01*
X211328571Y-51578571D02*
X211257142Y-51650000D01*
X211328571Y-51721428D01*
X211400000Y-51650000D01*
X211328571Y-51578571D01*
X211328571Y-51721428D01*
X211971428Y-53007142D02*
X212114285Y-53078571D01*
X212400000Y-53078571D01*
X212542857Y-53007142D01*
X212614285Y-52864285D01*
X212614285Y-52792857D01*
X212542857Y-52650000D01*
X212400000Y-52578571D01*
X212185714Y-52578571D01*
X212042857Y-52507142D01*
X211971428Y-52364285D01*
X211971428Y-52292857D01*
X212042857Y-52150000D01*
X212185714Y-52078571D01*
X212400000Y-52078571D01*
X212542857Y-52150000D01*
X213042857Y-52078571D02*
X213614285Y-52078571D01*
X213257142Y-51578571D02*
X213257142Y-52864285D01*
X213328571Y-53007142D01*
X213471428Y-53078571D01*
X213614285Y-53078571D01*
X214685714Y-53007142D02*
X214542857Y-53078571D01*
X214257142Y-53078571D01*
X214114285Y-53007142D01*
X214042857Y-52864285D01*
X214042857Y-52292857D01*
X214114285Y-52150000D01*
X214257142Y-52078571D01*
X214542857Y-52078571D01*
X214685714Y-52150000D01*
X214757142Y-52292857D01*
X214757142Y-52435714D01*
X214042857Y-52578571D01*
X215400000Y-53078571D02*
X215400000Y-52078571D01*
X215400000Y-52364285D02*
X215471428Y-52221428D01*
X215542857Y-52150000D01*
X215685714Y-52078571D01*
X215828571Y-52078571D01*
D11*
X208136857Y-58845238D02*
X208089238Y-58821428D01*
X207994000Y-58821428D01*
X207946380Y-58845238D01*
X207898761Y-58892857D01*
X207874952Y-58940476D01*
X207874952Y-59035714D01*
X207898761Y-59083333D01*
X207946380Y-59130952D01*
X207994000Y-59154761D01*
X208089238Y-59154761D01*
X208136857Y-59130952D01*
X208041619Y-58654761D02*
X207922571Y-58678571D01*
X207803523Y-58750000D01*
X207732095Y-58869047D01*
X207708285Y-58988095D01*
X207732095Y-59107142D01*
X207803523Y-59226190D01*
X207922571Y-59297619D01*
X208041619Y-59321428D01*
X208160666Y-59297619D01*
X208279714Y-59226190D01*
X208351142Y-59107142D01*
X208374952Y-58988095D01*
X208351142Y-58869047D01*
X208279714Y-58750000D01*
X208160666Y-58678571D01*
X208041619Y-58654761D01*
X208946380Y-58773809D02*
X208970190Y-58750000D01*
X209017809Y-58726190D01*
X209136857Y-58726190D01*
X209184476Y-58750000D01*
X209208285Y-58773809D01*
X209232095Y-58821428D01*
X209232095Y-58869047D01*
X209208285Y-58940476D01*
X208922571Y-59226190D01*
X209232095Y-59226190D01*
X209541619Y-58726190D02*
X209589238Y-58726190D01*
X209636857Y-58750000D01*
X209660666Y-58773809D01*
X209684476Y-58821428D01*
X209708285Y-58916666D01*
X209708285Y-59035714D01*
X209684476Y-59130952D01*
X209660666Y-59178571D01*
X209636857Y-59202380D01*
X209589238Y-59226190D01*
X209541619Y-59226190D01*
X209494000Y-59202380D01*
X209470190Y-59178571D01*
X209446380Y-59130952D01*
X209422571Y-59035714D01*
X209422571Y-58916666D01*
X209446380Y-58821428D01*
X209470190Y-58773809D01*
X209494000Y-58750000D01*
X209541619Y-58726190D01*
X209898761Y-58773809D02*
X209922571Y-58750000D01*
X209970190Y-58726190D01*
X210089238Y-58726190D01*
X210136857Y-58750000D01*
X210160666Y-58773809D01*
X210184476Y-58821428D01*
X210184476Y-58869047D01*
X210160666Y-58940476D01*
X209874952Y-59226190D01*
X210184476Y-59226190D01*
X210494000Y-58726190D02*
X210541619Y-58726190D01*
X210589238Y-58750000D01*
X210613047Y-58773809D01*
X210636857Y-58821428D01*
X210660666Y-58916666D01*
X210660666Y-59035714D01*
X210636857Y-59130952D01*
X210613047Y-59178571D01*
X210589238Y-59202380D01*
X210541619Y-59226190D01*
X210494000Y-59226190D01*
X210446380Y-59202380D01*
X210422571Y-59178571D01*
X210398761Y-59130952D01*
X210374952Y-59035714D01*
X210374952Y-58916666D01*
X210398761Y-58821428D01*
X210422571Y-58773809D01*
X210446380Y-58750000D01*
X210494000Y-58726190D01*
X211541619Y-59178571D02*
X211517809Y-59202380D01*
X211446380Y-59226190D01*
X211398761Y-59226190D01*
X211327333Y-59202380D01*
X211279714Y-59154761D01*
X211255904Y-59107142D01*
X211232095Y-59011904D01*
X211232095Y-58940476D01*
X211255904Y-58845238D01*
X211279714Y-58797619D01*
X211327333Y-58750000D01*
X211398761Y-58726190D01*
X211446380Y-58726190D01*
X211517809Y-58750000D01*
X211541619Y-58773809D01*
X211755904Y-59226190D02*
X211755904Y-58726190D01*
X211970190Y-59226190D02*
X211970190Y-58964285D01*
X211946380Y-58916666D01*
X211898761Y-58892857D01*
X211827333Y-58892857D01*
X211779714Y-58916666D01*
X211755904Y-58940476D01*
X212422571Y-59226190D02*
X212422571Y-58964285D01*
X212398761Y-58916666D01*
X212351142Y-58892857D01*
X212255904Y-58892857D01*
X212208285Y-58916666D01*
X212422571Y-59202380D02*
X212374952Y-59226190D01*
X212255904Y-59226190D01*
X212208285Y-59202380D01*
X212184476Y-59154761D01*
X212184476Y-59107142D01*
X212208285Y-59059523D01*
X212255904Y-59035714D01*
X212374952Y-59035714D01*
X212422571Y-59011904D01*
X212874952Y-59226190D02*
X212874952Y-58726190D01*
X212874952Y-59202380D02*
X212827333Y-59226190D01*
X212732095Y-59226190D01*
X212684476Y-59202380D01*
X212660666Y-59178571D01*
X212636857Y-59130952D01*
X212636857Y-58988095D01*
X212660666Y-58940476D01*
X212684476Y-58916666D01*
X212732095Y-58892857D01*
X212827333Y-58892857D01*
X212874952Y-58916666D01*
X213779714Y-59226190D02*
X213613047Y-58988095D01*
X213494000Y-59226190D02*
X213494000Y-58726190D01*
X213684476Y-58726190D01*
X213732095Y-58750000D01*
X213755904Y-58773809D01*
X213779714Y-58821428D01*
X213779714Y-58892857D01*
X213755904Y-58940476D01*
X213732095Y-58964285D01*
X213684476Y-58988095D01*
X213494000Y-58988095D01*
X214184476Y-59202380D02*
X214136857Y-59226190D01*
X214041619Y-59226190D01*
X213994000Y-59202380D01*
X213970190Y-59154761D01*
X213970190Y-58964285D01*
X213994000Y-58916666D01*
X214041619Y-58892857D01*
X214136857Y-58892857D01*
X214184476Y-58916666D01*
X214208285Y-58964285D01*
X214208285Y-59011904D01*
X213970190Y-59059523D01*
X214422571Y-59226190D02*
X214422571Y-58892857D01*
X214422571Y-58940476D02*
X214446380Y-58916666D01*
X214494000Y-58892857D01*
X214565428Y-58892857D01*
X214613047Y-58916666D01*
X214636857Y-58964285D01*
X214636857Y-59226190D01*
X214636857Y-58964285D02*
X214660666Y-58916666D01*
X214708285Y-58892857D01*
X214779714Y-58892857D01*
X214827333Y-58916666D01*
X214851142Y-58964285D01*
X214851142Y-59226190D01*
X215089238Y-58892857D02*
X215089238Y-59392857D01*
X215089238Y-58916666D02*
X215136857Y-58892857D01*
X215232095Y-58892857D01*
X215279714Y-58916666D01*
X215303523Y-58940476D01*
X215327333Y-58988095D01*
X215327333Y-59130952D01*
X215303523Y-59178571D01*
X215279714Y-59202380D01*
X215232095Y-59226190D01*
X215136857Y-59226190D01*
X215089238Y-59202380D01*
X215541619Y-58892857D02*
X215541619Y-59392857D01*
X215541619Y-58916666D02*
X215589238Y-58892857D01*
X215684476Y-58892857D01*
X215732095Y-58916666D01*
X215755904Y-58940476D01*
X215779714Y-58988095D01*
X215779714Y-59130952D01*
X215755904Y-59178571D01*
X215732095Y-59202380D01*
X215684476Y-59226190D01*
X215589238Y-59226190D01*
X215541619Y-59202380D01*
D12*
X207486000Y-57896714D02*
X207414571Y-57968142D01*
X207200285Y-58039571D01*
X207057428Y-58039571D01*
X206843142Y-57968142D01*
X206700285Y-57825285D01*
X206628857Y-57682428D01*
X206557428Y-57396714D01*
X206557428Y-57182428D01*
X206628857Y-56896714D01*
X206700285Y-56753857D01*
X206843142Y-56611000D01*
X207057428Y-56539571D01*
X207200285Y-56539571D01*
X207414571Y-56611000D01*
X207486000Y-56682428D01*
X208128857Y-58039571D02*
X208128857Y-56539571D01*
X208700285Y-56539571D01*
X208843142Y-56611000D01*
X208914571Y-56682428D01*
X208986000Y-56825285D01*
X208986000Y-57039571D01*
X208914571Y-57182428D01*
X208843142Y-57253857D01*
X208700285Y-57325285D01*
X208128857Y-57325285D01*
X209628857Y-56539571D02*
X209628857Y-57753857D01*
X209700285Y-57896714D01*
X209771714Y-57968142D01*
X209914571Y-58039571D01*
X210200285Y-58039571D01*
X210343142Y-57968142D01*
X210414571Y-57896714D01*
X210486000Y-57753857D01*
X210486000Y-56539571D01*
X212986000Y-57039571D02*
X212986000Y-58039571D01*
X212343142Y-57039571D02*
X212343142Y-57825285D01*
X212414571Y-57968142D01*
X212557428Y-58039571D01*
X212771714Y-58039571D01*
X212914571Y-57968142D01*
X212986000Y-57896714D01*
X214486000Y-58039571D02*
X213628857Y-58039571D01*
X214057428Y-58039571D02*
X214057428Y-56539571D01*
X213914571Y-56753857D01*
X213771714Y-56896714D01*
X213628857Y-56968142D01*
X215771714Y-56539571D02*
X215486000Y-56539571D01*
X215343142Y-56611000D01*
X215271714Y-56682428D01*
X215128857Y-56896714D01*
X215057428Y-57182428D01*
X215057428Y-57753857D01*
X215128857Y-57896714D01*
X215200285Y-57968142D01*
X215343142Y-58039571D01*
X215628857Y-58039571D01*
X215771714Y-57968142D01*
X215843142Y-57896714D01*
X215914571Y-57753857D01*
X215914571Y-57396714D01*
X215843142Y-57253857D01*
X215771714Y-57182428D01*
X215628857Y-57111000D01*
X215343142Y-57111000D01*
X215200285Y-57182428D01*
X215128857Y-57253857D01*
X215057428Y-57396714D01*
D13*
X128140000Y-86225000D02*
X126325000Y-86225000D01*
X128140000Y-85990000D02*
X128140000Y-86225000D01*
X132000000Y-85990000D02*
X128140000Y-85990000D01*
X135860000Y-85990000D02*
X135860000Y-86225000D01*
X132000000Y-85990000D02*
X135860000Y-85990000D01*
X128140000Y-99010000D02*
X128140000Y-98775000D01*
X132000000Y-99010000D02*
X128140000Y-99010000D01*
X135860000Y-99010000D02*
X135860000Y-98775000D01*
X132000000Y-99010000D02*
X135860000Y-99010000D01*
X202000000Y-80010000D02*
X205860000Y-80010000D01*
X205860000Y-80010000D02*
X205860000Y-79775000D01*
X202000000Y-80010000D02*
X198140000Y-80010000D01*
X198140000Y-80010000D02*
X198140000Y-79775000D01*
X202000000Y-66990000D02*
X205860000Y-66990000D01*
X205860000Y-66990000D02*
X205860000Y-67225000D01*
X202000000Y-66990000D02*
X198140000Y-66990000D01*
X198140000Y-66990000D02*
X198140000Y-67225000D01*
X198140000Y-67225000D02*
X196325000Y-67225000D01*
X156000000Y-66940000D02*
X152550000Y-66940000D01*
X156000000Y-66940000D02*
X157950000Y-66940000D01*
X156000000Y-77060000D02*
X154050000Y-77060000D01*
X156000000Y-77060000D02*
X157950000Y-77060000D01*
X128665000Y-41540000D02*
X128665000Y-45600000D01*
X130935000Y-41540000D02*
X128665000Y-41540000D01*
X130935000Y-45600000D02*
X130935000Y-41540000D01*
X180771267Y-84090000D02*
X180428733Y-84090000D01*
X180771267Y-85110000D02*
X180428733Y-85110000D01*
X183771267Y-68110000D02*
X183428733Y-68110000D01*
X183771267Y-67090000D02*
X183428733Y-67090000D01*
X161871267Y-86090000D02*
X161528733Y-86090000D01*
X161871267Y-87110000D02*
X161528733Y-87110000D01*
X161971267Y-68110000D02*
X161628733Y-68110000D01*
X161971267Y-67090000D02*
X161628733Y-67090000D01*
X210171267Y-67290000D02*
X209828733Y-67290000D01*
X210171267Y-68310000D02*
X209828733Y-68310000D01*
X210171267Y-86290000D02*
X209828733Y-86290000D01*
X210171267Y-87310000D02*
X209828733Y-87310000D01*
X140171267Y-87310000D02*
X139828733Y-87310000D01*
X140171267Y-86290000D02*
X139828733Y-86290000D01*
X139971267Y-67290000D02*
X139628733Y-67290000D01*
X139971267Y-68310000D02*
X139628733Y-68310000D01*
X165571267Y-51935000D02*
X165228733Y-51935000D01*
X165571267Y-50915000D02*
X165228733Y-50915000D01*
X138171267Y-51910000D02*
X137828733Y-51910000D01*
X138171267Y-50890000D02*
X137828733Y-50890000D01*
X191371267Y-51910000D02*
X191028733Y-51910000D01*
X191371267Y-50890000D02*
X191028733Y-50890000D01*
X205571267Y-54690000D02*
X205228733Y-54690000D01*
X205571267Y-55710000D02*
X205228733Y-55710000D01*
X175335000Y-45600000D02*
X175335000Y-41540000D01*
X175335000Y-41540000D02*
X173065000Y-41540000D01*
X173065000Y-41540000D02*
X173065000Y-45600000D01*
X169465000Y-41540000D02*
X169465000Y-45600000D01*
X171735000Y-41540000D02*
X169465000Y-41540000D01*
X171735000Y-45600000D02*
X171735000Y-41540000D01*
X168135000Y-45600000D02*
X168135000Y-41540000D01*
X168135000Y-41540000D02*
X165865000Y-41540000D01*
X165865000Y-41540000D02*
X165865000Y-45600000D01*
X162265000Y-41540000D02*
X162265000Y-45600000D01*
X164535000Y-41540000D02*
X162265000Y-41540000D01*
X164535000Y-45600000D02*
X164535000Y-41540000D01*
X160935000Y-45600000D02*
X160935000Y-41540000D01*
X160935000Y-41540000D02*
X158665000Y-41540000D01*
X158665000Y-41540000D02*
X158665000Y-45600000D01*
X155065000Y-41540000D02*
X155065000Y-45600000D01*
X157335000Y-41540000D02*
X155065000Y-41540000D01*
X157335000Y-45600000D02*
X157335000Y-41540000D01*
X153735000Y-45600000D02*
X153735000Y-41540000D01*
X153735000Y-41540000D02*
X151465000Y-41540000D01*
X151465000Y-41540000D02*
X151465000Y-45600000D01*
X147865000Y-41540000D02*
X147865000Y-45600000D01*
X150135000Y-41540000D02*
X147865000Y-41540000D01*
X150135000Y-45600000D02*
X150135000Y-41540000D01*
X145335000Y-45600000D02*
X145335000Y-41540000D01*
X145335000Y-41540000D02*
X143065000Y-41540000D01*
X143065000Y-41540000D02*
X143065000Y-45600000D01*
X139465000Y-41540000D02*
X139465000Y-45600000D01*
X141735000Y-41540000D02*
X139465000Y-41540000D01*
X141735000Y-45600000D02*
X141735000Y-41540000D01*
X138135000Y-45600000D02*
X138135000Y-41540000D01*
X138135000Y-41540000D02*
X135865000Y-41540000D01*
X135865000Y-41540000D02*
X135865000Y-45600000D01*
X134535000Y-45600000D02*
X134535000Y-41540000D01*
X134535000Y-41540000D02*
X132265000Y-41540000D01*
X132265000Y-41540000D02*
X132265000Y-45600000D01*
X125065000Y-41540000D02*
X125065000Y-45600000D01*
X127335000Y-41540000D02*
X125065000Y-41540000D01*
X127335000Y-45600000D02*
X127335000Y-41540000D01*
X123735000Y-45600000D02*
X123735000Y-41540000D01*
X123735000Y-41540000D02*
X121465000Y-41540000D01*
X121465000Y-41540000D02*
X121465000Y-45600000D01*
X117865000Y-41540000D02*
X117865000Y-45600000D01*
X120135000Y-41540000D02*
X117865000Y-41540000D01*
X120135000Y-45600000D02*
X120135000Y-41540000D01*
X206535000Y-45600000D02*
X206535000Y-41540000D01*
X206535000Y-41540000D02*
X204265000Y-41540000D01*
X204265000Y-41540000D02*
X204265000Y-45600000D01*
X200665000Y-41540000D02*
X200665000Y-45600000D01*
X202935000Y-41540000D02*
X200665000Y-41540000D01*
X202935000Y-45600000D02*
X202935000Y-41540000D01*
X199335000Y-45600000D02*
X199335000Y-41540000D01*
X199335000Y-41540000D02*
X197065000Y-41540000D01*
X197065000Y-41540000D02*
X197065000Y-45600000D01*
X193465000Y-41540000D02*
X193465000Y-45600000D01*
X195735000Y-41540000D02*
X193465000Y-41540000D01*
X195735000Y-45600000D02*
X195735000Y-41540000D01*
X192135000Y-45600000D02*
X192135000Y-41540000D01*
X192135000Y-41540000D02*
X189865000Y-41540000D01*
X189865000Y-41540000D02*
X189865000Y-45600000D01*
X186265000Y-41540000D02*
X186265000Y-45600000D01*
X188535000Y-41540000D02*
X186265000Y-41540000D01*
X188535000Y-45600000D02*
X188535000Y-41540000D01*
X182665000Y-41540000D02*
X182665000Y-45600000D01*
X184935000Y-41540000D02*
X182665000Y-41540000D01*
X184935000Y-45600000D02*
X184935000Y-41540000D01*
X127330000Y-113120000D02*
X127280000Y-121370000D01*
X126730000Y-113120000D02*
X127330000Y-113120000D01*
X191930000Y-113170000D02*
X191980000Y-121370000D01*
X190280000Y-113170000D02*
X191930000Y-113170000D01*
X190280000Y-121370000D02*
X190280000Y-113170000D01*
X206680000Y-113120000D02*
X206980000Y-113120000D01*
X206680000Y-121370000D02*
X206680000Y-113120000D01*
X149920000Y-52700000D02*
X149920000Y-51700000D01*
X145680000Y-52700000D02*
X145680000Y-51700000D01*
X118080000Y-52700000D02*
X118080000Y-51700000D01*
X122320000Y-52700000D02*
X122320000Y-51700000D01*
X175570000Y-52700000D02*
X175570000Y-51700000D01*
X171330000Y-52700000D02*
X171330000Y-51700000D01*
X178000000Y-96060000D02*
X179950000Y-96060000D01*
X178000000Y-96060000D02*
X176050000Y-96060000D01*
X178000000Y-85940000D02*
X179950000Y-85940000D01*
X178000000Y-85940000D02*
X174550000Y-85940000D01*
X178000000Y-77060000D02*
X179950000Y-77060000D01*
X178000000Y-77060000D02*
X176050000Y-77060000D01*
X178000000Y-66940000D02*
X179950000Y-66940000D01*
X178000000Y-66940000D02*
X174550000Y-66940000D01*
X156000000Y-85940000D02*
X152550000Y-85940000D01*
X156000000Y-85940000D02*
X157950000Y-85940000D01*
X156000000Y-96060000D02*
X154050000Y-96060000D01*
X156000000Y-96060000D02*
X157950000Y-96060000D01*
X198140000Y-86225000D02*
X196325000Y-86225000D01*
X198140000Y-85990000D02*
X198140000Y-86225000D01*
X202000000Y-85990000D02*
X198140000Y-85990000D01*
X205860000Y-85990000D02*
X205860000Y-86225000D01*
X202000000Y-85990000D02*
X205860000Y-85990000D01*
X198140000Y-99010000D02*
X198140000Y-98775000D01*
X202000000Y-99010000D02*
X198140000Y-99010000D01*
X205860000Y-99010000D02*
X205860000Y-98775000D01*
X202000000Y-99010000D02*
X205860000Y-99010000D01*
X132000000Y-80010000D02*
X135860000Y-80010000D01*
X135860000Y-80010000D02*
X135860000Y-79775000D01*
X132000000Y-80010000D02*
X128140000Y-80010000D01*
X128140000Y-80010000D02*
X128140000Y-79775000D01*
X132000000Y-66990000D02*
X135860000Y-66990000D01*
X135860000Y-66990000D02*
X135860000Y-67225000D01*
X132000000Y-66990000D02*
X128140000Y-66990000D01*
X128140000Y-66990000D02*
X128140000Y-67225000D01*
X128140000Y-67225000D02*
X126325000Y-67225000D01*
X157500000Y-63710000D02*
X161360000Y-63710000D01*
X161360000Y-63710000D02*
X161360000Y-63475000D01*
X157500000Y-63710000D02*
X153640000Y-63710000D01*
X153640000Y-63710000D02*
X153640000Y-63475000D01*
X157500000Y-50690000D02*
X161360000Y-50690000D01*
X161360000Y-50690000D02*
X161360000Y-50925000D01*
X157500000Y-50690000D02*
X153640000Y-50690000D01*
X153640000Y-50690000D02*
X153640000Y-50925000D01*
X153640000Y-50925000D02*
X151825000Y-50925000D01*
X126140000Y-50925000D02*
X124325000Y-50925000D01*
X126140000Y-50690000D02*
X126140000Y-50925000D01*
X130000000Y-50690000D02*
X126140000Y-50690000D01*
X133860000Y-50690000D02*
X133860000Y-50925000D01*
X130000000Y-50690000D02*
X133860000Y-50690000D01*
X126140000Y-63710000D02*
X126140000Y-63475000D01*
X130000000Y-63710000D02*
X126140000Y-63710000D01*
X133860000Y-63710000D02*
X133860000Y-63475000D01*
X130000000Y-63710000D02*
X133860000Y-63710000D01*
X179390000Y-50925000D02*
X177575000Y-50925000D01*
X179390000Y-50690000D02*
X179390000Y-50925000D01*
X183250000Y-50690000D02*
X179390000Y-50690000D01*
X187110000Y-50690000D02*
X187110000Y-50925000D01*
X183250000Y-50690000D02*
X187110000Y-50690000D01*
X179390000Y-63710000D02*
X179390000Y-63475000D01*
X183250000Y-63710000D02*
X179390000Y-63710000D01*
X187110000Y-63710000D02*
X187110000Y-63475000D01*
X183250000Y-63710000D02*
X187110000Y-63710000D01*
X199725000Y-54565000D02*
X196275000Y-54565000D01*
X199725000Y-54565000D02*
X201675000Y-54565000D01*
X199725000Y-63435000D02*
X197775000Y-63435000D01*
X199725000Y-63435000D02*
X201675000Y-63435000D01*
X206650000Y-60390000D02*
X206650000Y-60890000D01*
X206400000Y-60640000D02*
X206900000Y-60640000D01*
X207140000Y-63395563D02*
X208204437Y-64460000D01*
X207140000Y-61004437D02*
X208204437Y-59940000D01*
X207140000Y-61004437D02*
X207140000Y-61140000D01*
X207140000Y-63395563D02*
X207140000Y-63260000D01*
X208204437Y-64460000D02*
X211660000Y-64460000D01*
X208204437Y-59940000D02*
X211660000Y-59940000D01*
X211660000Y-59940000D02*
X211660000Y-61140000D01*
X211660000Y-64460000D02*
X211660000Y-63260000D01*
X118740000Y-62940000D02*
X118740000Y-64140000D01*
X118740000Y-67460000D02*
X118740000Y-66260000D01*
X122195563Y-67460000D02*
X118740000Y-67460000D01*
X122195563Y-62940000D02*
X118740000Y-62940000D01*
X123260000Y-64004437D02*
X123260000Y-64140000D01*
X123260000Y-66395563D02*
X123260000Y-66260000D01*
X123260000Y-66395563D02*
X122195563Y-67460000D01*
X123260000Y-64004437D02*
X122195563Y-62940000D01*
X124000000Y-66760000D02*
X123500000Y-66760000D01*
X123750000Y-67010000D02*
X123750000Y-66510000D01*
D12*
X131238095Y-84602380D02*
X131238095Y-85411904D01*
X131285714Y-85507142D01*
X131333333Y-85554761D01*
X131428571Y-85602380D01*
X131619047Y-85602380D01*
X131714285Y-85554761D01*
X131761904Y-85507142D01*
X131809523Y-85411904D01*
X131809523Y-84602380D01*
X132190476Y-84602380D02*
X132857142Y-84602380D01*
X132428571Y-85602380D01*
X131452380Y-95619047D02*
X131452380Y-94952380D01*
X132452380Y-95380952D01*
X131785714Y-94142857D02*
X132452380Y-94142857D01*
X131404761Y-94380952D02*
X132119047Y-94619047D01*
X132119047Y-94000000D01*
X132452380Y-93142857D02*
X132452380Y-93619047D01*
X131452380Y-93619047D01*
X132404761Y-92857142D02*
X132452380Y-92714285D01*
X132452380Y-92476190D01*
X132404761Y-92380952D01*
X132357142Y-92333333D01*
X132261904Y-92285714D01*
X132166666Y-92285714D01*
X132071428Y-92333333D01*
X132023809Y-92380952D01*
X131976190Y-92476190D01*
X131928571Y-92666666D01*
X131880952Y-92761904D01*
X131833333Y-92809523D01*
X131738095Y-92857142D01*
X131642857Y-92857142D01*
X131547619Y-92809523D01*
X131500000Y-92761904D01*
X131452380Y-92666666D01*
X131452380Y-92428571D01*
X131500000Y-92285714D01*
X131547619Y-91904761D02*
X131500000Y-91857142D01*
X131452380Y-91761904D01*
X131452380Y-91523809D01*
X131500000Y-91428571D01*
X131547619Y-91380952D01*
X131642857Y-91333333D01*
X131738095Y-91333333D01*
X131880952Y-91380952D01*
X132452380Y-91952380D01*
X132452380Y-91333333D01*
X131785714Y-90476190D02*
X132452380Y-90476190D01*
X131404761Y-90714285D02*
X132119047Y-90952380D01*
X132119047Y-90333333D01*
X131452380Y-89476190D02*
X131452380Y-89952380D01*
X131928571Y-90000000D01*
X131880952Y-89952380D01*
X131833333Y-89857142D01*
X131833333Y-89619047D01*
X131880952Y-89523809D01*
X131928571Y-89476190D01*
X132023809Y-89428571D01*
X132261904Y-89428571D01*
X132357142Y-89476190D01*
X132404761Y-89523809D01*
X132452380Y-89619047D01*
X132452380Y-89857142D01*
X132404761Y-89952380D01*
X132357142Y-90000000D01*
X201238095Y-65602380D02*
X201238095Y-66411904D01*
X201285714Y-66507142D01*
X201333333Y-66554761D01*
X201428571Y-66602380D01*
X201619047Y-66602380D01*
X201714285Y-66554761D01*
X201761904Y-66507142D01*
X201809523Y-66411904D01*
X201809523Y-65602380D01*
X202761904Y-65602380D02*
X202285714Y-65602380D01*
X202238095Y-66078571D01*
X202285714Y-66030952D01*
X202380952Y-65983333D01*
X202619047Y-65983333D01*
X202714285Y-66030952D01*
X202761904Y-66078571D01*
X202809523Y-66173809D01*
X202809523Y-66411904D01*
X202761904Y-66507142D01*
X202714285Y-66554761D01*
X202619047Y-66602380D01*
X202380952Y-66602380D01*
X202285714Y-66554761D01*
X202238095Y-66507142D01*
X201452380Y-76619047D02*
X201452380Y-75952380D01*
X202452380Y-76380952D01*
X201785714Y-75142857D02*
X202452380Y-75142857D01*
X201404761Y-75380952D02*
X202119047Y-75619047D01*
X202119047Y-75000000D01*
X202452380Y-74142857D02*
X202452380Y-74619047D01*
X201452380Y-74619047D01*
X202404761Y-73857142D02*
X202452380Y-73714285D01*
X202452380Y-73476190D01*
X202404761Y-73380952D01*
X202357142Y-73333333D01*
X202261904Y-73285714D01*
X202166666Y-73285714D01*
X202071428Y-73333333D01*
X202023809Y-73380952D01*
X201976190Y-73476190D01*
X201928571Y-73666666D01*
X201880952Y-73761904D01*
X201833333Y-73809523D01*
X201738095Y-73857142D01*
X201642857Y-73857142D01*
X201547619Y-73809523D01*
X201500000Y-73761904D01*
X201452380Y-73666666D01*
X201452380Y-73428571D01*
X201500000Y-73285714D01*
X201547619Y-72904761D02*
X201500000Y-72857142D01*
X201452380Y-72761904D01*
X201452380Y-72523809D01*
X201500000Y-72428571D01*
X201547619Y-72380952D01*
X201642857Y-72333333D01*
X201738095Y-72333333D01*
X201880952Y-72380952D01*
X202452380Y-72952380D01*
X202452380Y-72333333D01*
X201785714Y-71476190D02*
X202452380Y-71476190D01*
X201404761Y-71714285D02*
X202119047Y-71952380D01*
X202119047Y-71333333D01*
X201452380Y-70476190D02*
X201452380Y-70952380D01*
X201928571Y-71000000D01*
X201880952Y-70952380D01*
X201833333Y-70857142D01*
X201833333Y-70619047D01*
X201880952Y-70523809D01*
X201928571Y-70476190D01*
X202023809Y-70428571D01*
X202261904Y-70428571D01*
X202357142Y-70476190D01*
X202404761Y-70523809D01*
X202452380Y-70619047D01*
X202452380Y-70857142D01*
X202404761Y-70952380D01*
X202357142Y-71000000D01*
X155238095Y-65552380D02*
X155238095Y-66361904D01*
X155285714Y-66457142D01*
X155333333Y-66504761D01*
X155428571Y-66552380D01*
X155619047Y-66552380D01*
X155714285Y-66504761D01*
X155761904Y-66457142D01*
X155809523Y-66361904D01*
X155809523Y-65552380D01*
X156714285Y-65885714D02*
X156714285Y-66552380D01*
X156476190Y-65504761D02*
X156238095Y-66219047D01*
X156857142Y-66219047D01*
X155452380Y-75119047D02*
X155452380Y-74452380D01*
X156452380Y-74880952D01*
X155785714Y-73642857D02*
X156452380Y-73642857D01*
X155404761Y-73880952D02*
X156119047Y-74119047D01*
X156119047Y-73500000D01*
X156452380Y-72642857D02*
X156452380Y-73119047D01*
X155452380Y-73119047D01*
X156404761Y-72357142D02*
X156452380Y-72214285D01*
X156452380Y-71976190D01*
X156404761Y-71880952D01*
X156357142Y-71833333D01*
X156261904Y-71785714D01*
X156166666Y-71785714D01*
X156071428Y-71833333D01*
X156023809Y-71880952D01*
X155976190Y-71976190D01*
X155928571Y-72166666D01*
X155880952Y-72261904D01*
X155833333Y-72309523D01*
X155738095Y-72357142D01*
X155642857Y-72357142D01*
X155547619Y-72309523D01*
X155500000Y-72261904D01*
X155452380Y-72166666D01*
X155452380Y-71928571D01*
X155500000Y-71785714D01*
X156452380Y-70833333D02*
X156452380Y-71404761D01*
X156452380Y-71119047D02*
X155452380Y-71119047D01*
X155595238Y-71214285D01*
X155690476Y-71309523D01*
X155738095Y-71404761D01*
X156452380Y-70357142D02*
X156452380Y-70166666D01*
X156404761Y-70071428D01*
X156357142Y-70023809D01*
X156214285Y-69928571D01*
X156023809Y-69880952D01*
X155642857Y-69880952D01*
X155547619Y-69928571D01*
X155500000Y-69976190D01*
X155452380Y-70071428D01*
X155452380Y-70261904D01*
X155500000Y-70357142D01*
X155547619Y-70404761D01*
X155642857Y-70452380D01*
X155880952Y-70452380D01*
X155976190Y-70404761D01*
X156023809Y-70357142D01*
X156071428Y-70261904D01*
X156071428Y-70071428D01*
X156023809Y-69976190D01*
X155976190Y-69928571D01*
X155880952Y-69880952D01*
X155452380Y-69547619D02*
X155452380Y-68928571D01*
X155833333Y-69261904D01*
X155833333Y-69119047D01*
X155880952Y-69023809D01*
X155928571Y-68976190D01*
X156023809Y-68928571D01*
X156261904Y-68928571D01*
X156357142Y-68976190D01*
X156404761Y-69023809D01*
X156452380Y-69119047D01*
X156452380Y-69404761D01*
X156404761Y-69500000D01*
X156357142Y-69547619D01*
X132072380Y-45214285D02*
X131072380Y-45214285D01*
X131072380Y-44976190D01*
X131120000Y-44833333D01*
X131215238Y-44738095D01*
X131310476Y-44690476D01*
X131500952Y-44642857D01*
X131643809Y-44642857D01*
X131834285Y-44690476D01*
X131929523Y-44738095D01*
X132024761Y-44833333D01*
X132072380Y-44976190D01*
X132072380Y-45214285D01*
X132072380Y-43690476D02*
X132072380Y-44261904D01*
X132072380Y-43976190D02*
X131072380Y-43976190D01*
X131215238Y-44071428D01*
X131310476Y-44166666D01*
X131358095Y-44261904D01*
X131072380Y-43357142D02*
X131072380Y-42738095D01*
X131453333Y-43071428D01*
X131453333Y-42928571D01*
X131500952Y-42833333D01*
X131548571Y-42785714D01*
X131643809Y-42738095D01*
X131881904Y-42738095D01*
X131977142Y-42785714D01*
X132024761Y-42833333D01*
X132072380Y-42928571D01*
X132072380Y-43214285D01*
X132024761Y-43309523D01*
X131977142Y-43357142D01*
X180433333Y-83557142D02*
X180385714Y-83604761D01*
X180242857Y-83652380D01*
X180147619Y-83652380D01*
X180004761Y-83604761D01*
X179909523Y-83509523D01*
X179861904Y-83414285D01*
X179814285Y-83223809D01*
X179814285Y-83080952D01*
X179861904Y-82890476D01*
X179909523Y-82795238D01*
X180004761Y-82700000D01*
X180147619Y-82652380D01*
X180242857Y-82652380D01*
X180385714Y-82700000D01*
X180433333Y-82747619D01*
X181385714Y-83652380D02*
X180814285Y-83652380D01*
X181100000Y-83652380D02*
X181100000Y-82652380D01*
X181004761Y-82795238D01*
X180909523Y-82890476D01*
X180814285Y-82938095D01*
X183433333Y-66572141D02*
X183385714Y-66619760D01*
X183242857Y-66667379D01*
X183147619Y-66667379D01*
X183004761Y-66619760D01*
X182909523Y-66524522D01*
X182861904Y-66429284D01*
X182814285Y-66238808D01*
X182814285Y-66095951D01*
X182861904Y-65905475D01*
X182909523Y-65810237D01*
X183004761Y-65714999D01*
X183147619Y-65667379D01*
X183242857Y-65667379D01*
X183385714Y-65714999D01*
X183433333Y-65762618D01*
X183814285Y-65762618D02*
X183861904Y-65714999D01*
X183957142Y-65667379D01*
X184195238Y-65667379D01*
X184290476Y-65714999D01*
X184338095Y-65762618D01*
X184385714Y-65857856D01*
X184385714Y-65953094D01*
X184338095Y-66095951D01*
X183766666Y-66667379D01*
X184385714Y-66667379D01*
X161533333Y-85592141D02*
X161485714Y-85639760D01*
X161342857Y-85687379D01*
X161247619Y-85687379D01*
X161104761Y-85639760D01*
X161009523Y-85544522D01*
X160961904Y-85449284D01*
X160914285Y-85258808D01*
X160914285Y-85115951D01*
X160961904Y-84925475D01*
X161009523Y-84830237D01*
X161104761Y-84734999D01*
X161247619Y-84687379D01*
X161342857Y-84687379D01*
X161485714Y-84734999D01*
X161533333Y-84782618D01*
X161866666Y-84687379D02*
X162485714Y-84687379D01*
X162152380Y-85068332D01*
X162295238Y-85068332D01*
X162390476Y-85115951D01*
X162438095Y-85163570D01*
X162485714Y-85258808D01*
X162485714Y-85496903D01*
X162438095Y-85592141D01*
X162390476Y-85639760D01*
X162295238Y-85687379D01*
X162009523Y-85687379D01*
X161914285Y-85639760D01*
X161866666Y-85592141D01*
X161633333Y-66557142D02*
X161585714Y-66604761D01*
X161442857Y-66652380D01*
X161347619Y-66652380D01*
X161204761Y-66604761D01*
X161109523Y-66509523D01*
X161061904Y-66414285D01*
X161014285Y-66223809D01*
X161014285Y-66080952D01*
X161061904Y-65890476D01*
X161109523Y-65795238D01*
X161204761Y-65700000D01*
X161347619Y-65652380D01*
X161442857Y-65652380D01*
X161585714Y-65700000D01*
X161633333Y-65747619D01*
X162490476Y-65985714D02*
X162490476Y-66652380D01*
X162252380Y-65604761D02*
X162014285Y-66319047D01*
X162633333Y-66319047D01*
X209833333Y-66757142D02*
X209785714Y-66804761D01*
X209642857Y-66852380D01*
X209547619Y-66852380D01*
X209404761Y-66804761D01*
X209309523Y-66709523D01*
X209261904Y-66614285D01*
X209214285Y-66423809D01*
X209214285Y-66280952D01*
X209261904Y-66090476D01*
X209309523Y-65995238D01*
X209404761Y-65900000D01*
X209547619Y-65852380D01*
X209642857Y-65852380D01*
X209785714Y-65900000D01*
X209833333Y-65947619D01*
X210738095Y-65852380D02*
X210261904Y-65852380D01*
X210214285Y-66328571D01*
X210261904Y-66280952D01*
X210357142Y-66233333D01*
X210595238Y-66233333D01*
X210690476Y-66280952D01*
X210738095Y-66328571D01*
X210785714Y-66423809D01*
X210785714Y-66661904D01*
X210738095Y-66757142D01*
X210690476Y-66804761D01*
X210595238Y-66852380D01*
X210357142Y-66852380D01*
X210261904Y-66804761D01*
X210214285Y-66757142D01*
X209833333Y-85757142D02*
X209785714Y-85804761D01*
X209642857Y-85852380D01*
X209547619Y-85852380D01*
X209404761Y-85804761D01*
X209309523Y-85709523D01*
X209261904Y-85614285D01*
X209214285Y-85423809D01*
X209214285Y-85280952D01*
X209261904Y-85090476D01*
X209309523Y-84995238D01*
X209404761Y-84900000D01*
X209547619Y-84852380D01*
X209642857Y-84852380D01*
X209785714Y-84900000D01*
X209833333Y-84947619D01*
X210690476Y-84852380D02*
X210500000Y-84852380D01*
X210404761Y-84900000D01*
X210357142Y-84947619D01*
X210261904Y-85090476D01*
X210214285Y-85280952D01*
X210214285Y-85661904D01*
X210261904Y-85757142D01*
X210309523Y-85804761D01*
X210404761Y-85852380D01*
X210595238Y-85852380D01*
X210690476Y-85804761D01*
X210738095Y-85757142D01*
X210785714Y-85661904D01*
X210785714Y-85423809D01*
X210738095Y-85328571D01*
X210690476Y-85280952D01*
X210595238Y-85233333D01*
X210404761Y-85233333D01*
X210309523Y-85280952D01*
X210261904Y-85328571D01*
X210214285Y-85423809D01*
X139833333Y-85757142D02*
X139785714Y-85804761D01*
X139642857Y-85852380D01*
X139547619Y-85852380D01*
X139404761Y-85804761D01*
X139309523Y-85709523D01*
X139261904Y-85614285D01*
X139214285Y-85423809D01*
X139214285Y-85280952D01*
X139261904Y-85090476D01*
X139309523Y-84995238D01*
X139404761Y-84900000D01*
X139547619Y-84852380D01*
X139642857Y-84852380D01*
X139785714Y-84900000D01*
X139833333Y-84947619D01*
X140166666Y-84852380D02*
X140833333Y-84852380D01*
X140404761Y-85852380D01*
X139633333Y-66757142D02*
X139585714Y-66804761D01*
X139442857Y-66852380D01*
X139347619Y-66852380D01*
X139204761Y-66804761D01*
X139109523Y-66709523D01*
X139061904Y-66614285D01*
X139014285Y-66423809D01*
X139014285Y-66280952D01*
X139061904Y-66090476D01*
X139109523Y-65995238D01*
X139204761Y-65900000D01*
X139347619Y-65852380D01*
X139442857Y-65852380D01*
X139585714Y-65900000D01*
X139633333Y-65947619D01*
X140204761Y-66280952D02*
X140109523Y-66233333D01*
X140061904Y-66185714D01*
X140014285Y-66090476D01*
X140014285Y-66042857D01*
X140061904Y-65947619D01*
X140109523Y-65900000D01*
X140204761Y-65852380D01*
X140395238Y-65852380D01*
X140490476Y-65900000D01*
X140538095Y-65947619D01*
X140585714Y-66042857D01*
X140585714Y-66090476D01*
X140538095Y-66185714D01*
X140490476Y-66233333D01*
X140395238Y-66280952D01*
X140204761Y-66280952D01*
X140109523Y-66328571D01*
X140061904Y-66376190D01*
X140014285Y-66471428D01*
X140014285Y-66661904D01*
X140061904Y-66757142D01*
X140109523Y-66804761D01*
X140204761Y-66852380D01*
X140395238Y-66852380D01*
X140490476Y-66804761D01*
X140538095Y-66757142D01*
X140585714Y-66661904D01*
X140585714Y-66471428D01*
X140538095Y-66376190D01*
X140490476Y-66328571D01*
X140395238Y-66280952D01*
X165233333Y-50357142D02*
X165185714Y-50404761D01*
X165042857Y-50452380D01*
X164947619Y-50452380D01*
X164804761Y-50404761D01*
X164709523Y-50309523D01*
X164661904Y-50214285D01*
X164614285Y-50023809D01*
X164614285Y-49880952D01*
X164661904Y-49690476D01*
X164709523Y-49595238D01*
X164804761Y-49500000D01*
X164947619Y-49452380D01*
X165042857Y-49452380D01*
X165185714Y-49500000D01*
X165233333Y-49547619D01*
X165709523Y-50452380D02*
X165900000Y-50452380D01*
X165995238Y-50404761D01*
X166042857Y-50357142D01*
X166138095Y-50214285D01*
X166185714Y-50023809D01*
X166185714Y-49642857D01*
X166138095Y-49547619D01*
X166090476Y-49500000D01*
X165995238Y-49452380D01*
X165804761Y-49452380D01*
X165709523Y-49500000D01*
X165661904Y-49547619D01*
X165614285Y-49642857D01*
X165614285Y-49880952D01*
X165661904Y-49976190D01*
X165709523Y-50023809D01*
X165804761Y-50071428D01*
X165995238Y-50071428D01*
X166090476Y-50023809D01*
X166138095Y-49976190D01*
X166185714Y-49880952D01*
X137357142Y-50357142D02*
X137309523Y-50404761D01*
X137166666Y-50452380D01*
X137071428Y-50452380D01*
X136928571Y-50404761D01*
X136833333Y-50309523D01*
X136785714Y-50214285D01*
X136738095Y-50023809D01*
X136738095Y-49880952D01*
X136785714Y-49690476D01*
X136833333Y-49595238D01*
X136928571Y-49500000D01*
X137071428Y-49452380D01*
X137166666Y-49452380D01*
X137309523Y-49500000D01*
X137357142Y-49547619D01*
X138309523Y-50452380D02*
X137738095Y-50452380D01*
X138023809Y-50452380D02*
X138023809Y-49452380D01*
X137928571Y-49595238D01*
X137833333Y-49690476D01*
X137738095Y-49738095D01*
X138928571Y-49452380D02*
X139023809Y-49452380D01*
X139119047Y-49500000D01*
X139166666Y-49547619D01*
X139214285Y-49642857D01*
X139261904Y-49833333D01*
X139261904Y-50071428D01*
X139214285Y-50261904D01*
X139166666Y-50357142D01*
X139119047Y-50404761D01*
X139023809Y-50452380D01*
X138928571Y-50452380D01*
X138833333Y-50404761D01*
X138785714Y-50357142D01*
X138738095Y-50261904D01*
X138690476Y-50071428D01*
X138690476Y-49833333D01*
X138738095Y-49642857D01*
X138785714Y-49547619D01*
X138833333Y-49500000D01*
X138928571Y-49452380D01*
X190557142Y-50357142D02*
X190509523Y-50404761D01*
X190366666Y-50452380D01*
X190271428Y-50452380D01*
X190128571Y-50404761D01*
X190033333Y-50309523D01*
X189985714Y-50214285D01*
X189938095Y-50023809D01*
X189938095Y-49880952D01*
X189985714Y-49690476D01*
X190033333Y-49595238D01*
X190128571Y-49500000D01*
X190271428Y-49452380D01*
X190366666Y-49452380D01*
X190509523Y-49500000D01*
X190557142Y-49547619D01*
X191509523Y-50452380D02*
X190938095Y-50452380D01*
X191223809Y-50452380D02*
X191223809Y-49452380D01*
X191128571Y-49595238D01*
X191033333Y-49690476D01*
X190938095Y-49738095D01*
X192461904Y-50452380D02*
X191890476Y-50452380D01*
X192176190Y-50452380D02*
X192176190Y-49452380D01*
X192080952Y-49595238D01*
X191985714Y-49690476D01*
X191890476Y-49738095D01*
X204757142Y-54157142D02*
X204709523Y-54204761D01*
X204566666Y-54252380D01*
X204471428Y-54252380D01*
X204328571Y-54204761D01*
X204233333Y-54109523D01*
X204185714Y-54014285D01*
X204138095Y-53823809D01*
X204138095Y-53680952D01*
X204185714Y-53490476D01*
X204233333Y-53395238D01*
X204328571Y-53300000D01*
X204471428Y-53252380D01*
X204566666Y-53252380D01*
X204709523Y-53300000D01*
X204757142Y-53347619D01*
X205709523Y-54252380D02*
X205138095Y-54252380D01*
X205423809Y-54252380D02*
X205423809Y-53252380D01*
X205328571Y-53395238D01*
X205233333Y-53490476D01*
X205138095Y-53538095D01*
X206090476Y-53347619D02*
X206138095Y-53300000D01*
X206233333Y-53252380D01*
X206471428Y-53252380D01*
X206566666Y-53300000D01*
X206614285Y-53347619D01*
X206661904Y-53442857D01*
X206661904Y-53538095D01*
X206614285Y-53680952D01*
X206042857Y-54252380D01*
X206661904Y-54252380D01*
X176472380Y-44738095D02*
X175472380Y-44738095D01*
X175472380Y-44500000D01*
X175520000Y-44357142D01*
X175615238Y-44261904D01*
X175710476Y-44214285D01*
X175900952Y-44166666D01*
X176043809Y-44166666D01*
X176234285Y-44214285D01*
X176329523Y-44261904D01*
X176424761Y-44357142D01*
X176472380Y-44500000D01*
X176472380Y-44738095D01*
X176472380Y-43214285D02*
X176472380Y-43785714D01*
X176472380Y-43500000D02*
X175472380Y-43500000D01*
X175615238Y-43595238D01*
X175710476Y-43690476D01*
X175758095Y-43785714D01*
X172872380Y-44738095D02*
X171872380Y-44738095D01*
X171872380Y-44500000D01*
X171920000Y-44357142D01*
X172015238Y-44261904D01*
X172110476Y-44214285D01*
X172300952Y-44166666D01*
X172443809Y-44166666D01*
X172634285Y-44214285D01*
X172729523Y-44261904D01*
X172824761Y-44357142D01*
X172872380Y-44500000D01*
X172872380Y-44738095D01*
X171967619Y-43785714D02*
X171920000Y-43738095D01*
X171872380Y-43642857D01*
X171872380Y-43404761D01*
X171920000Y-43309523D01*
X171967619Y-43261904D01*
X172062857Y-43214285D01*
X172158095Y-43214285D01*
X172300952Y-43261904D01*
X172872380Y-43833333D01*
X172872380Y-43214285D01*
X169272380Y-44738095D02*
X168272380Y-44738095D01*
X168272380Y-44500000D01*
X168320000Y-44357142D01*
X168415238Y-44261904D01*
X168510476Y-44214285D01*
X168700952Y-44166666D01*
X168843809Y-44166666D01*
X169034285Y-44214285D01*
X169129523Y-44261904D01*
X169224761Y-44357142D01*
X169272380Y-44500000D01*
X169272380Y-44738095D01*
X168272380Y-43833333D02*
X168272380Y-43214285D01*
X168653333Y-43547619D01*
X168653333Y-43404761D01*
X168700952Y-43309523D01*
X168748571Y-43261904D01*
X168843809Y-43214285D01*
X169081904Y-43214285D01*
X169177142Y-43261904D01*
X169224761Y-43309523D01*
X169272380Y-43404761D01*
X169272380Y-43690476D01*
X169224761Y-43785714D01*
X169177142Y-43833333D01*
X165672380Y-44738095D02*
X164672380Y-44738095D01*
X164672380Y-44500000D01*
X164720000Y-44357142D01*
X164815238Y-44261904D01*
X164910476Y-44214285D01*
X165100952Y-44166666D01*
X165243809Y-44166666D01*
X165434285Y-44214285D01*
X165529523Y-44261904D01*
X165624761Y-44357142D01*
X165672380Y-44500000D01*
X165672380Y-44738095D01*
X165005714Y-43309523D02*
X165672380Y-43309523D01*
X164624761Y-43547619D02*
X165339047Y-43785714D01*
X165339047Y-43166666D01*
X162072380Y-44738095D02*
X161072380Y-44738095D01*
X161072380Y-44500000D01*
X161120000Y-44357142D01*
X161215238Y-44261904D01*
X161310476Y-44214285D01*
X161500952Y-44166666D01*
X161643809Y-44166666D01*
X161834285Y-44214285D01*
X161929523Y-44261904D01*
X162024761Y-44357142D01*
X162072380Y-44500000D01*
X162072380Y-44738095D01*
X161072380Y-43261904D02*
X161072380Y-43738095D01*
X161548571Y-43785714D01*
X161500952Y-43738095D01*
X161453333Y-43642857D01*
X161453333Y-43404761D01*
X161500952Y-43309523D01*
X161548571Y-43261904D01*
X161643809Y-43214285D01*
X161881904Y-43214285D01*
X161977142Y-43261904D01*
X162024761Y-43309523D01*
X162072380Y-43404761D01*
X162072380Y-43642857D01*
X162024761Y-43738095D01*
X161977142Y-43785714D01*
X158472380Y-44738095D02*
X157472380Y-44738095D01*
X157472380Y-44500000D01*
X157520000Y-44357142D01*
X157615238Y-44261904D01*
X157710476Y-44214285D01*
X157900952Y-44166666D01*
X158043809Y-44166666D01*
X158234285Y-44214285D01*
X158329523Y-44261904D01*
X158424761Y-44357142D01*
X158472380Y-44500000D01*
X158472380Y-44738095D01*
X157472380Y-43309523D02*
X157472380Y-43500000D01*
X157520000Y-43595238D01*
X157567619Y-43642857D01*
X157710476Y-43738095D01*
X157900952Y-43785714D01*
X158281904Y-43785714D01*
X158377142Y-43738095D01*
X158424761Y-43690476D01*
X158472380Y-43595238D01*
X158472380Y-43404761D01*
X158424761Y-43309523D01*
X158377142Y-43261904D01*
X158281904Y-43214285D01*
X158043809Y-43214285D01*
X157948571Y-43261904D01*
X157900952Y-43309523D01*
X157853333Y-43404761D01*
X157853333Y-43595238D01*
X157900952Y-43690476D01*
X157948571Y-43738095D01*
X158043809Y-43785714D01*
X154872380Y-44738095D02*
X153872380Y-44738095D01*
X153872380Y-44500000D01*
X153920000Y-44357142D01*
X154015238Y-44261904D01*
X154110476Y-44214285D01*
X154300952Y-44166666D01*
X154443809Y-44166666D01*
X154634285Y-44214285D01*
X154729523Y-44261904D01*
X154824761Y-44357142D01*
X154872380Y-44500000D01*
X154872380Y-44738095D01*
X153872380Y-43833333D02*
X153872380Y-43166666D01*
X154872380Y-43595238D01*
X151272380Y-44738095D02*
X150272380Y-44738095D01*
X150272380Y-44500000D01*
X150320000Y-44357142D01*
X150415238Y-44261904D01*
X150510476Y-44214285D01*
X150700952Y-44166666D01*
X150843809Y-44166666D01*
X151034285Y-44214285D01*
X151129523Y-44261904D01*
X151224761Y-44357142D01*
X151272380Y-44500000D01*
X151272380Y-44738095D01*
X150700952Y-43595238D02*
X150653333Y-43690476D01*
X150605714Y-43738095D01*
X150510476Y-43785714D01*
X150462857Y-43785714D01*
X150367619Y-43738095D01*
X150320000Y-43690476D01*
X150272380Y-43595238D01*
X150272380Y-43404761D01*
X150320000Y-43309523D01*
X150367619Y-43261904D01*
X150462857Y-43214285D01*
X150510476Y-43214285D01*
X150605714Y-43261904D01*
X150653333Y-43309523D01*
X150700952Y-43404761D01*
X150700952Y-43595238D01*
X150748571Y-43690476D01*
X150796190Y-43738095D01*
X150891428Y-43785714D01*
X151081904Y-43785714D01*
X151177142Y-43738095D01*
X151224761Y-43690476D01*
X151272380Y-43595238D01*
X151272380Y-43404761D01*
X151224761Y-43309523D01*
X151177142Y-43261904D01*
X151081904Y-43214285D01*
X150891428Y-43214285D01*
X150796190Y-43261904D01*
X150748571Y-43309523D01*
X150700952Y-43404761D01*
X146472380Y-44738095D02*
X145472380Y-44738095D01*
X145472380Y-44500000D01*
X145520000Y-44357142D01*
X145615238Y-44261904D01*
X145710476Y-44214285D01*
X145900952Y-44166666D01*
X146043809Y-44166666D01*
X146234285Y-44214285D01*
X146329523Y-44261904D01*
X146424761Y-44357142D01*
X146472380Y-44500000D01*
X146472380Y-44738095D01*
X146472380Y-43690476D02*
X146472380Y-43500000D01*
X146424761Y-43404761D01*
X146377142Y-43357142D01*
X146234285Y-43261904D01*
X146043809Y-43214285D01*
X145662857Y-43214285D01*
X145567619Y-43261904D01*
X145520000Y-43309523D01*
X145472380Y-43404761D01*
X145472380Y-43595238D01*
X145520000Y-43690476D01*
X145567619Y-43738095D01*
X145662857Y-43785714D01*
X145900952Y-43785714D01*
X145996190Y-43738095D01*
X146043809Y-43690476D01*
X146091428Y-43595238D01*
X146091428Y-43404761D01*
X146043809Y-43309523D01*
X145996190Y-43261904D01*
X145900952Y-43214285D01*
X142872380Y-45214285D02*
X141872380Y-45214285D01*
X141872380Y-44976190D01*
X141920000Y-44833333D01*
X142015238Y-44738095D01*
X142110476Y-44690476D01*
X142300952Y-44642857D01*
X142443809Y-44642857D01*
X142634285Y-44690476D01*
X142729523Y-44738095D01*
X142824761Y-44833333D01*
X142872380Y-44976190D01*
X142872380Y-45214285D01*
X142872380Y-43690476D02*
X142872380Y-44261904D01*
X142872380Y-43976190D02*
X141872380Y-43976190D01*
X142015238Y-44071428D01*
X142110476Y-44166666D01*
X142158095Y-44261904D01*
X141872380Y-43071428D02*
X141872380Y-42976190D01*
X141920000Y-42880952D01*
X141967619Y-42833333D01*
X142062857Y-42785714D01*
X142253333Y-42738095D01*
X142491428Y-42738095D01*
X142681904Y-42785714D01*
X142777142Y-42833333D01*
X142824761Y-42880952D01*
X142872380Y-42976190D01*
X142872380Y-43071428D01*
X142824761Y-43166666D01*
X142777142Y-43214285D01*
X142681904Y-43261904D01*
X142491428Y-43309523D01*
X142253333Y-43309523D01*
X142062857Y-43261904D01*
X141967619Y-43214285D01*
X141920000Y-43166666D01*
X141872380Y-43071428D01*
X139272380Y-45214285D02*
X138272380Y-45214285D01*
X138272380Y-44976190D01*
X138320000Y-44833333D01*
X138415238Y-44738095D01*
X138510476Y-44690476D01*
X138700952Y-44642857D01*
X138843809Y-44642857D01*
X139034285Y-44690476D01*
X139129523Y-44738095D01*
X139224761Y-44833333D01*
X139272380Y-44976190D01*
X139272380Y-45214285D01*
X139272380Y-43690476D02*
X139272380Y-44261904D01*
X139272380Y-43976190D02*
X138272380Y-43976190D01*
X138415238Y-44071428D01*
X138510476Y-44166666D01*
X138558095Y-44261904D01*
X139272380Y-42738095D02*
X139272380Y-43309523D01*
X139272380Y-43023809D02*
X138272380Y-43023809D01*
X138415238Y-43119047D01*
X138510476Y-43214285D01*
X138558095Y-43309523D01*
X135672380Y-45214285D02*
X134672380Y-45214285D01*
X134672380Y-44976190D01*
X134720000Y-44833333D01*
X134815238Y-44738095D01*
X134910476Y-44690476D01*
X135100952Y-44642857D01*
X135243809Y-44642857D01*
X135434285Y-44690476D01*
X135529523Y-44738095D01*
X135624761Y-44833333D01*
X135672380Y-44976190D01*
X135672380Y-45214285D01*
X135672380Y-43690476D02*
X135672380Y-44261904D01*
X135672380Y-43976190D02*
X134672380Y-43976190D01*
X134815238Y-44071428D01*
X134910476Y-44166666D01*
X134958095Y-44261904D01*
X134767619Y-43309523D02*
X134720000Y-43261904D01*
X134672380Y-43166666D01*
X134672380Y-42928571D01*
X134720000Y-42833333D01*
X134767619Y-42785714D01*
X134862857Y-42738095D01*
X134958095Y-42738095D01*
X135100952Y-42785714D01*
X135672380Y-43357142D01*
X135672380Y-42738095D01*
X128472380Y-45214285D02*
X127472380Y-45214285D01*
X127472380Y-44976190D01*
X127520000Y-44833333D01*
X127615238Y-44738095D01*
X127710476Y-44690476D01*
X127900952Y-44642857D01*
X128043809Y-44642857D01*
X128234285Y-44690476D01*
X128329523Y-44738095D01*
X128424761Y-44833333D01*
X128472380Y-44976190D01*
X128472380Y-45214285D01*
X128472380Y-43690476D02*
X128472380Y-44261904D01*
X128472380Y-43976190D02*
X127472380Y-43976190D01*
X127615238Y-44071428D01*
X127710476Y-44166666D01*
X127758095Y-44261904D01*
X127805714Y-42833333D02*
X128472380Y-42833333D01*
X127424761Y-43071428D02*
X128139047Y-43309523D01*
X128139047Y-42690476D01*
X124872380Y-45214285D02*
X123872380Y-45214285D01*
X123872380Y-44976190D01*
X123920000Y-44833333D01*
X124015238Y-44738095D01*
X124110476Y-44690476D01*
X124300952Y-44642857D01*
X124443809Y-44642857D01*
X124634285Y-44690476D01*
X124729523Y-44738095D01*
X124824761Y-44833333D01*
X124872380Y-44976190D01*
X124872380Y-45214285D01*
X124872380Y-43690476D02*
X124872380Y-44261904D01*
X124872380Y-43976190D02*
X123872380Y-43976190D01*
X124015238Y-44071428D01*
X124110476Y-44166666D01*
X124158095Y-44261904D01*
X123872380Y-42785714D02*
X123872380Y-43261904D01*
X124348571Y-43309523D01*
X124300952Y-43261904D01*
X124253333Y-43166666D01*
X124253333Y-42928571D01*
X124300952Y-42833333D01*
X124348571Y-42785714D01*
X124443809Y-42738095D01*
X124681904Y-42738095D01*
X124777142Y-42785714D01*
X124824761Y-42833333D01*
X124872380Y-42928571D01*
X124872380Y-43166666D01*
X124824761Y-43261904D01*
X124777142Y-43309523D01*
X121272380Y-45214285D02*
X120272380Y-45214285D01*
X120272380Y-44976190D01*
X120320000Y-44833333D01*
X120415238Y-44738095D01*
X120510476Y-44690476D01*
X120700952Y-44642857D01*
X120843809Y-44642857D01*
X121034285Y-44690476D01*
X121129523Y-44738095D01*
X121224761Y-44833333D01*
X121272380Y-44976190D01*
X121272380Y-45214285D01*
X121272380Y-43690476D02*
X121272380Y-44261904D01*
X121272380Y-43976190D02*
X120272380Y-43976190D01*
X120415238Y-44071428D01*
X120510476Y-44166666D01*
X120558095Y-44261904D01*
X120272380Y-42833333D02*
X120272380Y-43023809D01*
X120320000Y-43119047D01*
X120367619Y-43166666D01*
X120510476Y-43261904D01*
X120700952Y-43309523D01*
X121081904Y-43309523D01*
X121177142Y-43261904D01*
X121224761Y-43214285D01*
X121272380Y-43119047D01*
X121272380Y-42928571D01*
X121224761Y-42833333D01*
X121177142Y-42785714D01*
X121081904Y-42738095D01*
X120843809Y-42738095D01*
X120748571Y-42785714D01*
X120700952Y-42833333D01*
X120653333Y-42928571D01*
X120653333Y-43119047D01*
X120700952Y-43214285D01*
X120748571Y-43261904D01*
X120843809Y-43309523D01*
X207672380Y-45214285D02*
X206672380Y-45214285D01*
X206672380Y-44976190D01*
X206720000Y-44833333D01*
X206815238Y-44738095D01*
X206910476Y-44690476D01*
X207100952Y-44642857D01*
X207243809Y-44642857D01*
X207434285Y-44690476D01*
X207529523Y-44738095D01*
X207624761Y-44833333D01*
X207672380Y-44976190D01*
X207672380Y-45214285D01*
X207672380Y-43690476D02*
X207672380Y-44261904D01*
X207672380Y-43976190D02*
X206672380Y-43976190D01*
X206815238Y-44071428D01*
X206910476Y-44166666D01*
X206958095Y-44261904D01*
X206672380Y-43357142D02*
X206672380Y-42690476D01*
X207672380Y-43119047D01*
X204072380Y-45214285D02*
X203072380Y-45214285D01*
X203072380Y-44976190D01*
X203120000Y-44833333D01*
X203215238Y-44738095D01*
X203310476Y-44690476D01*
X203500952Y-44642857D01*
X203643809Y-44642857D01*
X203834285Y-44690476D01*
X203929523Y-44738095D01*
X204024761Y-44833333D01*
X204072380Y-44976190D01*
X204072380Y-45214285D01*
X204072380Y-43690476D02*
X204072380Y-44261904D01*
X204072380Y-43976190D02*
X203072380Y-43976190D01*
X203215238Y-44071428D01*
X203310476Y-44166666D01*
X203358095Y-44261904D01*
X203500952Y-43119047D02*
X203453333Y-43214285D01*
X203405714Y-43261904D01*
X203310476Y-43309523D01*
X203262857Y-43309523D01*
X203167619Y-43261904D01*
X203120000Y-43214285D01*
X203072380Y-43119047D01*
X203072380Y-42928571D01*
X203120000Y-42833333D01*
X203167619Y-42785714D01*
X203262857Y-42738095D01*
X203310476Y-42738095D01*
X203405714Y-42785714D01*
X203453333Y-42833333D01*
X203500952Y-42928571D01*
X203500952Y-43119047D01*
X203548571Y-43214285D01*
X203596190Y-43261904D01*
X203691428Y-43309523D01*
X203881904Y-43309523D01*
X203977142Y-43261904D01*
X204024761Y-43214285D01*
X204072380Y-43119047D01*
X204072380Y-42928571D01*
X204024761Y-42833333D01*
X203977142Y-42785714D01*
X203881904Y-42738095D01*
X203691428Y-42738095D01*
X203596190Y-42785714D01*
X203548571Y-42833333D01*
X203500952Y-42928571D01*
X200472380Y-45214285D02*
X199472380Y-45214285D01*
X199472380Y-44976190D01*
X199520000Y-44833333D01*
X199615238Y-44738095D01*
X199710476Y-44690476D01*
X199900952Y-44642857D01*
X200043809Y-44642857D01*
X200234285Y-44690476D01*
X200329523Y-44738095D01*
X200424761Y-44833333D01*
X200472380Y-44976190D01*
X200472380Y-45214285D01*
X200472380Y-43690476D02*
X200472380Y-44261904D01*
X200472380Y-43976190D02*
X199472380Y-43976190D01*
X199615238Y-44071428D01*
X199710476Y-44166666D01*
X199758095Y-44261904D01*
X200472380Y-43214285D02*
X200472380Y-43023809D01*
X200424761Y-42928571D01*
X200377142Y-42880952D01*
X200234285Y-42785714D01*
X200043809Y-42738095D01*
X199662857Y-42738095D01*
X199567619Y-42785714D01*
X199520000Y-42833333D01*
X199472380Y-42928571D01*
X199472380Y-43119047D01*
X199520000Y-43214285D01*
X199567619Y-43261904D01*
X199662857Y-43309523D01*
X199900952Y-43309523D01*
X199996190Y-43261904D01*
X200043809Y-43214285D01*
X200091428Y-43119047D01*
X200091428Y-42928571D01*
X200043809Y-42833333D01*
X199996190Y-42785714D01*
X199900952Y-42738095D01*
X196872380Y-45214285D02*
X195872380Y-45214285D01*
X195872380Y-44976190D01*
X195920000Y-44833333D01*
X196015238Y-44738095D01*
X196110476Y-44690476D01*
X196300952Y-44642857D01*
X196443809Y-44642857D01*
X196634285Y-44690476D01*
X196729523Y-44738095D01*
X196824761Y-44833333D01*
X196872380Y-44976190D01*
X196872380Y-45214285D01*
X195967619Y-44261904D02*
X195920000Y-44214285D01*
X195872380Y-44119047D01*
X195872380Y-43880952D01*
X195920000Y-43785714D01*
X195967619Y-43738095D01*
X196062857Y-43690476D01*
X196158095Y-43690476D01*
X196300952Y-43738095D01*
X196872380Y-44309523D01*
X196872380Y-43690476D01*
X195872380Y-43071428D02*
X195872380Y-42976190D01*
X195920000Y-42880952D01*
X195967619Y-42833333D01*
X196062857Y-42785714D01*
X196253333Y-42738095D01*
X196491428Y-42738095D01*
X196681904Y-42785714D01*
X196777142Y-42833333D01*
X196824761Y-42880952D01*
X196872380Y-42976190D01*
X196872380Y-43071428D01*
X196824761Y-43166666D01*
X196777142Y-43214285D01*
X196681904Y-43261904D01*
X196491428Y-43309523D01*
X196253333Y-43309523D01*
X196062857Y-43261904D01*
X195967619Y-43214285D01*
X195920000Y-43166666D01*
X195872380Y-43071428D01*
X193272380Y-45214285D02*
X192272380Y-45214285D01*
X192272380Y-44976190D01*
X192320000Y-44833333D01*
X192415238Y-44738095D01*
X192510476Y-44690476D01*
X192700952Y-44642857D01*
X192843809Y-44642857D01*
X193034285Y-44690476D01*
X193129523Y-44738095D01*
X193224761Y-44833333D01*
X193272380Y-44976190D01*
X193272380Y-45214285D01*
X192367619Y-44261904D02*
X192320000Y-44214285D01*
X192272380Y-44119047D01*
X192272380Y-43880952D01*
X192320000Y-43785714D01*
X192367619Y-43738095D01*
X192462857Y-43690476D01*
X192558095Y-43690476D01*
X192700952Y-43738095D01*
X193272380Y-44309523D01*
X193272380Y-43690476D01*
X193272380Y-42738095D02*
X193272380Y-43309523D01*
X193272380Y-43023809D02*
X192272380Y-43023809D01*
X192415238Y-43119047D01*
X192510476Y-43214285D01*
X192558095Y-43309523D01*
X189672380Y-45214285D02*
X188672380Y-45214285D01*
X188672380Y-44976190D01*
X188720000Y-44833333D01*
X188815238Y-44738095D01*
X188910476Y-44690476D01*
X189100952Y-44642857D01*
X189243809Y-44642857D01*
X189434285Y-44690476D01*
X189529523Y-44738095D01*
X189624761Y-44833333D01*
X189672380Y-44976190D01*
X189672380Y-45214285D01*
X188767619Y-44261904D02*
X188720000Y-44214285D01*
X188672380Y-44119047D01*
X188672380Y-43880952D01*
X188720000Y-43785714D01*
X188767619Y-43738095D01*
X188862857Y-43690476D01*
X188958095Y-43690476D01*
X189100952Y-43738095D01*
X189672380Y-44309523D01*
X189672380Y-43690476D01*
X188767619Y-43309523D02*
X188720000Y-43261904D01*
X188672380Y-43166666D01*
X188672380Y-42928571D01*
X188720000Y-42833333D01*
X188767619Y-42785714D01*
X188862857Y-42738095D01*
X188958095Y-42738095D01*
X189100952Y-42785714D01*
X189672380Y-43357142D01*
X189672380Y-42738095D01*
X186072380Y-45214285D02*
X185072380Y-45214285D01*
X185072380Y-44976190D01*
X185120000Y-44833333D01*
X185215238Y-44738095D01*
X185310476Y-44690476D01*
X185500952Y-44642857D01*
X185643809Y-44642857D01*
X185834285Y-44690476D01*
X185929523Y-44738095D01*
X186024761Y-44833333D01*
X186072380Y-44976190D01*
X186072380Y-45214285D01*
X185167619Y-44261904D02*
X185120000Y-44214285D01*
X185072380Y-44119047D01*
X185072380Y-43880952D01*
X185120000Y-43785714D01*
X185167619Y-43738095D01*
X185262857Y-43690476D01*
X185358095Y-43690476D01*
X185500952Y-43738095D01*
X186072380Y-44309523D01*
X186072380Y-43690476D01*
X185072380Y-43357142D02*
X185072380Y-42738095D01*
X185453333Y-43071428D01*
X185453333Y-42928571D01*
X185500952Y-42833333D01*
X185548571Y-42785714D01*
X185643809Y-42738095D01*
X185881904Y-42738095D01*
X185977142Y-42785714D01*
X186024761Y-42833333D01*
X186072380Y-42928571D01*
X186072380Y-43214285D01*
X186024761Y-43309523D01*
X185977142Y-43357142D01*
X151252380Y-52890476D02*
X150776190Y-53223809D01*
X151252380Y-53461904D02*
X150252380Y-53461904D01*
X150252380Y-53080952D01*
X150300000Y-52985714D01*
X150347619Y-52938095D01*
X150442857Y-52890476D01*
X150585714Y-52890476D01*
X150680952Y-52938095D01*
X150728571Y-52985714D01*
X150776190Y-53080952D01*
X150776190Y-53461904D01*
X151252380Y-52461904D02*
X150252380Y-52461904D01*
X151252380Y-51890476D01*
X150252380Y-51890476D01*
X151252380Y-50890476D02*
X151252380Y-51461904D01*
X151252380Y-51176190D02*
X150252380Y-51176190D01*
X150395238Y-51271428D01*
X150490476Y-51366666D01*
X150538095Y-51461904D01*
X123652380Y-52890476D02*
X123176190Y-53223809D01*
X123652380Y-53461904D02*
X122652380Y-53461904D01*
X122652380Y-53080952D01*
X122700000Y-52985714D01*
X122747619Y-52938095D01*
X122842857Y-52890476D01*
X122985714Y-52890476D01*
X123080952Y-52938095D01*
X123128571Y-52985714D01*
X123176190Y-53080952D01*
X123176190Y-53461904D01*
X123652380Y-52461904D02*
X122652380Y-52461904D01*
X123652380Y-51890476D01*
X122652380Y-51890476D01*
X122747619Y-51461904D02*
X122700000Y-51414285D01*
X122652380Y-51319047D01*
X122652380Y-51080952D01*
X122700000Y-50985714D01*
X122747619Y-50938095D01*
X122842857Y-50890476D01*
X122938095Y-50890476D01*
X123080952Y-50938095D01*
X123652380Y-51509523D01*
X123652380Y-50890476D01*
X176902380Y-52890476D02*
X176426190Y-53223809D01*
X176902380Y-53461904D02*
X175902380Y-53461904D01*
X175902380Y-53080952D01*
X175950000Y-52985714D01*
X175997619Y-52938095D01*
X176092857Y-52890476D01*
X176235714Y-52890476D01*
X176330952Y-52938095D01*
X176378571Y-52985714D01*
X176426190Y-53080952D01*
X176426190Y-53461904D01*
X176902380Y-52461904D02*
X175902380Y-52461904D01*
X176902380Y-51890476D01*
X175902380Y-51890476D01*
X175902380Y-51509523D02*
X175902380Y-50890476D01*
X176283333Y-51223809D01*
X176283333Y-51080952D01*
X176330952Y-50985714D01*
X176378571Y-50938095D01*
X176473809Y-50890476D01*
X176711904Y-50890476D01*
X176807142Y-50938095D01*
X176854761Y-50985714D01*
X176902380Y-51080952D01*
X176902380Y-51366666D01*
X176854761Y-51461904D01*
X176807142Y-51509523D01*
X177238095Y-84552380D02*
X177238095Y-85361904D01*
X177285714Y-85457142D01*
X177333333Y-85504761D01*
X177428571Y-85552380D01*
X177619047Y-85552380D01*
X177714285Y-85504761D01*
X177761904Y-85457142D01*
X177809523Y-85361904D01*
X177809523Y-84552380D01*
X178809523Y-85552380D02*
X178238095Y-85552380D01*
X178523809Y-85552380D02*
X178523809Y-84552380D01*
X178428571Y-84695238D01*
X178333333Y-84790476D01*
X178238095Y-84838095D01*
X177452380Y-94119047D02*
X177452380Y-93452380D01*
X178452380Y-93880952D01*
X177785714Y-92642857D02*
X178452380Y-92642857D01*
X177404761Y-92880952D02*
X178119047Y-93119047D01*
X178119047Y-92500000D01*
X178452380Y-91642857D02*
X178452380Y-92119047D01*
X177452380Y-92119047D01*
X178404761Y-91357142D02*
X178452380Y-91214285D01*
X178452380Y-90976190D01*
X178404761Y-90880952D01*
X178357142Y-90833333D01*
X178261904Y-90785714D01*
X178166666Y-90785714D01*
X178071428Y-90833333D01*
X178023809Y-90880952D01*
X177976190Y-90976190D01*
X177928571Y-91166666D01*
X177880952Y-91261904D01*
X177833333Y-91309523D01*
X177738095Y-91357142D01*
X177642857Y-91357142D01*
X177547619Y-91309523D01*
X177500000Y-91261904D01*
X177452380Y-91166666D01*
X177452380Y-90928571D01*
X177500000Y-90785714D01*
X178452380Y-89833333D02*
X178452380Y-90404761D01*
X178452380Y-90119047D02*
X177452380Y-90119047D01*
X177595238Y-90214285D01*
X177690476Y-90309523D01*
X177738095Y-90404761D01*
X178452380Y-89357142D02*
X178452380Y-89166666D01*
X178404761Y-89071428D01*
X178357142Y-89023809D01*
X178214285Y-88928571D01*
X178023809Y-88880952D01*
X177642857Y-88880952D01*
X177547619Y-88928571D01*
X177500000Y-88976190D01*
X177452380Y-89071428D01*
X177452380Y-89261904D01*
X177500000Y-89357142D01*
X177547619Y-89404761D01*
X177642857Y-89452380D01*
X177880952Y-89452380D01*
X177976190Y-89404761D01*
X178023809Y-89357142D01*
X178071428Y-89261904D01*
X178071428Y-89071428D01*
X178023809Y-88976190D01*
X177976190Y-88928571D01*
X177880952Y-88880952D01*
X177452380Y-88547619D02*
X177452380Y-87928571D01*
X177833333Y-88261904D01*
X177833333Y-88119047D01*
X177880952Y-88023809D01*
X177928571Y-87976190D01*
X178023809Y-87928571D01*
X178261904Y-87928571D01*
X178357142Y-87976190D01*
X178404761Y-88023809D01*
X178452380Y-88119047D01*
X178452380Y-88404761D01*
X178404761Y-88500000D01*
X178357142Y-88547619D01*
X177238095Y-65552380D02*
X177238095Y-66361904D01*
X177285714Y-66457142D01*
X177333333Y-66504761D01*
X177428571Y-66552380D01*
X177619047Y-66552380D01*
X177714285Y-66504761D01*
X177761904Y-66457142D01*
X177809523Y-66361904D01*
X177809523Y-65552380D01*
X178238095Y-65647619D02*
X178285714Y-65600000D01*
X178380952Y-65552380D01*
X178619047Y-65552380D01*
X178714285Y-65600000D01*
X178761904Y-65647619D01*
X178809523Y-65742857D01*
X178809523Y-65838095D01*
X178761904Y-65980952D01*
X178190476Y-66552380D01*
X178809523Y-66552380D01*
X177452380Y-75119047D02*
X177452380Y-74452380D01*
X178452380Y-74880952D01*
X177785714Y-73642857D02*
X178452380Y-73642857D01*
X177404761Y-73880952D02*
X178119047Y-74119047D01*
X178119047Y-73500000D01*
X178452380Y-72642857D02*
X178452380Y-73119047D01*
X177452380Y-73119047D01*
X178404761Y-72357142D02*
X178452380Y-72214285D01*
X178452380Y-71976190D01*
X178404761Y-71880952D01*
X178357142Y-71833333D01*
X178261904Y-71785714D01*
X178166666Y-71785714D01*
X178071428Y-71833333D01*
X178023809Y-71880952D01*
X177976190Y-71976190D01*
X177928571Y-72166666D01*
X177880952Y-72261904D01*
X177833333Y-72309523D01*
X177738095Y-72357142D01*
X177642857Y-72357142D01*
X177547619Y-72309523D01*
X177500000Y-72261904D01*
X177452380Y-72166666D01*
X177452380Y-71928571D01*
X177500000Y-71785714D01*
X178452380Y-70833333D02*
X178452380Y-71404761D01*
X178452380Y-71119047D02*
X177452380Y-71119047D01*
X177595238Y-71214285D01*
X177690476Y-71309523D01*
X177738095Y-71404761D01*
X178452380Y-70357142D02*
X178452380Y-70166666D01*
X178404761Y-70071428D01*
X178357142Y-70023809D01*
X178214285Y-69928571D01*
X178023809Y-69880952D01*
X177642857Y-69880952D01*
X177547619Y-69928571D01*
X177500000Y-69976190D01*
X177452380Y-70071428D01*
X177452380Y-70261904D01*
X177500000Y-70357142D01*
X177547619Y-70404761D01*
X177642857Y-70452380D01*
X177880952Y-70452380D01*
X177976190Y-70404761D01*
X178023809Y-70357142D01*
X178071428Y-70261904D01*
X178071428Y-70071428D01*
X178023809Y-69976190D01*
X177976190Y-69928571D01*
X177880952Y-69880952D01*
X177452380Y-69547619D02*
X177452380Y-68928571D01*
X177833333Y-69261904D01*
X177833333Y-69119047D01*
X177880952Y-69023809D01*
X177928571Y-68976190D01*
X178023809Y-68928571D01*
X178261904Y-68928571D01*
X178357142Y-68976190D01*
X178404761Y-69023809D01*
X178452380Y-69119047D01*
X178452380Y-69404761D01*
X178404761Y-69500000D01*
X178357142Y-69547619D01*
X155238095Y-84552380D02*
X155238095Y-85361904D01*
X155285714Y-85457142D01*
X155333333Y-85504761D01*
X155428571Y-85552380D01*
X155619047Y-85552380D01*
X155714285Y-85504761D01*
X155761904Y-85457142D01*
X155809523Y-85361904D01*
X155809523Y-84552380D01*
X156190476Y-84552380D02*
X156809523Y-84552380D01*
X156476190Y-84933333D01*
X156619047Y-84933333D01*
X156714285Y-84980952D01*
X156761904Y-85028571D01*
X156809523Y-85123809D01*
X156809523Y-85361904D01*
X156761904Y-85457142D01*
X156714285Y-85504761D01*
X156619047Y-85552380D01*
X156333333Y-85552380D01*
X156238095Y-85504761D01*
X156190476Y-85457142D01*
X155452380Y-94119047D02*
X155452380Y-93452380D01*
X156452380Y-93880952D01*
X155785714Y-92642857D02*
X156452380Y-92642857D01*
X155404761Y-92880952D02*
X156119047Y-93119047D01*
X156119047Y-92500000D01*
X156452380Y-91642857D02*
X156452380Y-92119047D01*
X155452380Y-92119047D01*
X156404761Y-91357142D02*
X156452380Y-91214285D01*
X156452380Y-90976190D01*
X156404761Y-90880952D01*
X156357142Y-90833333D01*
X156261904Y-90785714D01*
X156166666Y-90785714D01*
X156071428Y-90833333D01*
X156023809Y-90880952D01*
X155976190Y-90976190D01*
X155928571Y-91166666D01*
X155880952Y-91261904D01*
X155833333Y-91309523D01*
X155738095Y-91357142D01*
X155642857Y-91357142D01*
X155547619Y-91309523D01*
X155500000Y-91261904D01*
X155452380Y-91166666D01*
X155452380Y-90928571D01*
X155500000Y-90785714D01*
X156452380Y-89833333D02*
X156452380Y-90404761D01*
X156452380Y-90119047D02*
X155452380Y-90119047D01*
X155595238Y-90214285D01*
X155690476Y-90309523D01*
X155738095Y-90404761D01*
X156452380Y-89357142D02*
X156452380Y-89166666D01*
X156404761Y-89071428D01*
X156357142Y-89023809D01*
X156214285Y-88928571D01*
X156023809Y-88880952D01*
X155642857Y-88880952D01*
X155547619Y-88928571D01*
X155500000Y-88976190D01*
X155452380Y-89071428D01*
X155452380Y-89261904D01*
X155500000Y-89357142D01*
X155547619Y-89404761D01*
X155642857Y-89452380D01*
X155880952Y-89452380D01*
X155976190Y-89404761D01*
X156023809Y-89357142D01*
X156071428Y-89261904D01*
X156071428Y-89071428D01*
X156023809Y-88976190D01*
X155976190Y-88928571D01*
X155880952Y-88880952D01*
X155452380Y-88547619D02*
X155452380Y-87928571D01*
X155833333Y-88261904D01*
X155833333Y-88119047D01*
X155880952Y-88023809D01*
X155928571Y-87976190D01*
X156023809Y-87928571D01*
X156261904Y-87928571D01*
X156357142Y-87976190D01*
X156404761Y-88023809D01*
X156452380Y-88119047D01*
X156452380Y-88404761D01*
X156404761Y-88500000D01*
X156357142Y-88547619D01*
X201238095Y-84602380D02*
X201238095Y-85411904D01*
X201285714Y-85507142D01*
X201333333Y-85554761D01*
X201428571Y-85602380D01*
X201619047Y-85602380D01*
X201714285Y-85554761D01*
X201761904Y-85507142D01*
X201809523Y-85411904D01*
X201809523Y-84602380D01*
X202714285Y-84602380D02*
X202523809Y-84602380D01*
X202428571Y-84650000D01*
X202380952Y-84697619D01*
X202285714Y-84840476D01*
X202238095Y-85030952D01*
X202238095Y-85411904D01*
X202285714Y-85507142D01*
X202333333Y-85554761D01*
X202428571Y-85602380D01*
X202619047Y-85602380D01*
X202714285Y-85554761D01*
X202761904Y-85507142D01*
X202809523Y-85411904D01*
X202809523Y-85173809D01*
X202761904Y-85078571D01*
X202714285Y-85030952D01*
X202619047Y-84983333D01*
X202428571Y-84983333D01*
X202333333Y-85030952D01*
X202285714Y-85078571D01*
X202238095Y-85173809D01*
X201452380Y-95619047D02*
X201452380Y-94952380D01*
X202452380Y-95380952D01*
X201785714Y-94142857D02*
X202452380Y-94142857D01*
X201404761Y-94380952D02*
X202119047Y-94619047D01*
X202119047Y-94000000D01*
X202452380Y-93142857D02*
X202452380Y-93619047D01*
X201452380Y-93619047D01*
X202404761Y-92857142D02*
X202452380Y-92714285D01*
X202452380Y-92476190D01*
X202404761Y-92380952D01*
X202357142Y-92333333D01*
X202261904Y-92285714D01*
X202166666Y-92285714D01*
X202071428Y-92333333D01*
X202023809Y-92380952D01*
X201976190Y-92476190D01*
X201928571Y-92666666D01*
X201880952Y-92761904D01*
X201833333Y-92809523D01*
X201738095Y-92857142D01*
X201642857Y-92857142D01*
X201547619Y-92809523D01*
X201500000Y-92761904D01*
X201452380Y-92666666D01*
X201452380Y-92428571D01*
X201500000Y-92285714D01*
X201547619Y-91904761D02*
X201500000Y-91857142D01*
X201452380Y-91761904D01*
X201452380Y-91523809D01*
X201500000Y-91428571D01*
X201547619Y-91380952D01*
X201642857Y-91333333D01*
X201738095Y-91333333D01*
X201880952Y-91380952D01*
X202452380Y-91952380D01*
X202452380Y-91333333D01*
X201785714Y-90476190D02*
X202452380Y-90476190D01*
X201404761Y-90714285D02*
X202119047Y-90952380D01*
X202119047Y-90333333D01*
X201452380Y-89476190D02*
X201452380Y-89952380D01*
X201928571Y-90000000D01*
X201880952Y-89952380D01*
X201833333Y-89857142D01*
X201833333Y-89619047D01*
X201880952Y-89523809D01*
X201928571Y-89476190D01*
X202023809Y-89428571D01*
X202261904Y-89428571D01*
X202357142Y-89476190D01*
X202404761Y-89523809D01*
X202452380Y-89619047D01*
X202452380Y-89857142D01*
X202404761Y-89952380D01*
X202357142Y-90000000D01*
X131238095Y-65602380D02*
X131238095Y-66411904D01*
X131285714Y-66507142D01*
X131333333Y-66554761D01*
X131428571Y-66602380D01*
X131619047Y-66602380D01*
X131714285Y-66554761D01*
X131761904Y-66507142D01*
X131809523Y-66411904D01*
X131809523Y-65602380D01*
X132428571Y-66030952D02*
X132333333Y-65983333D01*
X132285714Y-65935714D01*
X132238095Y-65840476D01*
X132238095Y-65792857D01*
X132285714Y-65697619D01*
X132333333Y-65650000D01*
X132428571Y-65602380D01*
X132619047Y-65602380D01*
X132714285Y-65650000D01*
X132761904Y-65697619D01*
X132809523Y-65792857D01*
X132809523Y-65840476D01*
X132761904Y-65935714D01*
X132714285Y-65983333D01*
X132619047Y-66030952D01*
X132428571Y-66030952D01*
X132333333Y-66078571D01*
X132285714Y-66126190D01*
X132238095Y-66221428D01*
X132238095Y-66411904D01*
X132285714Y-66507142D01*
X132333333Y-66554761D01*
X132428571Y-66602380D01*
X132619047Y-66602380D01*
X132714285Y-66554761D01*
X132761904Y-66507142D01*
X132809523Y-66411904D01*
X132809523Y-66221428D01*
X132761904Y-66126190D01*
X132714285Y-66078571D01*
X132619047Y-66030952D01*
X131452380Y-77119047D02*
X131452380Y-76452380D01*
X132452380Y-76880952D01*
X131785714Y-75642857D02*
X132452380Y-75642857D01*
X131404761Y-75880952D02*
X132119047Y-76119047D01*
X132119047Y-75500000D01*
X132452380Y-74642857D02*
X132452380Y-75119047D01*
X131452380Y-75119047D01*
X132404761Y-74357142D02*
X132452380Y-74214285D01*
X132452380Y-73976190D01*
X132404761Y-73880952D01*
X132357142Y-73833333D01*
X132261904Y-73785714D01*
X132166666Y-73785714D01*
X132071428Y-73833333D01*
X132023809Y-73880952D01*
X131976190Y-73976190D01*
X131928571Y-74166666D01*
X131880952Y-74261904D01*
X131833333Y-74309523D01*
X131738095Y-74357142D01*
X131642857Y-74357142D01*
X131547619Y-74309523D01*
X131500000Y-74261904D01*
X131452380Y-74166666D01*
X131452380Y-73928571D01*
X131500000Y-73785714D01*
X131547619Y-73404761D02*
X131500000Y-73357142D01*
X131452380Y-73261904D01*
X131452380Y-73023809D01*
X131500000Y-72928571D01*
X131547619Y-72880952D01*
X131642857Y-72833333D01*
X131738095Y-72833333D01*
X131880952Y-72880952D01*
X132452380Y-73452380D01*
X132452380Y-72833333D01*
X131785714Y-71976190D02*
X132452380Y-71976190D01*
X131404761Y-72214285D02*
X132119047Y-72452380D01*
X132119047Y-71833333D01*
X131452380Y-70976190D02*
X131452380Y-71452380D01*
X131928571Y-71500000D01*
X131880952Y-71452380D01*
X131833333Y-71357142D01*
X131833333Y-71119047D01*
X131880952Y-71023809D01*
X131928571Y-70976190D01*
X132023809Y-70928571D01*
X132261904Y-70928571D01*
X132357142Y-70976190D01*
X132404761Y-71023809D01*
X132452380Y-71119047D01*
X132452380Y-71357142D01*
X132404761Y-71452380D01*
X132357142Y-71500000D01*
X156738095Y-49302380D02*
X156738095Y-50111904D01*
X156785714Y-50207142D01*
X156833333Y-50254761D01*
X156928571Y-50302380D01*
X157119047Y-50302380D01*
X157214285Y-50254761D01*
X157261904Y-50207142D01*
X157309523Y-50111904D01*
X157309523Y-49302380D01*
X157833333Y-50302380D02*
X158023809Y-50302380D01*
X158119047Y-50254761D01*
X158166666Y-50207142D01*
X158261904Y-50064285D01*
X158309523Y-49873809D01*
X158309523Y-49492857D01*
X158261904Y-49397619D01*
X158214285Y-49350000D01*
X158119047Y-49302380D01*
X157928571Y-49302380D01*
X157833333Y-49350000D01*
X157785714Y-49397619D01*
X157738095Y-49492857D01*
X157738095Y-49730952D01*
X157785714Y-49826190D01*
X157833333Y-49873809D01*
X157928571Y-49921428D01*
X158119047Y-49921428D01*
X158214285Y-49873809D01*
X158261904Y-49826190D01*
X158309523Y-49730952D01*
X156952380Y-60619047D02*
X156952380Y-59952380D01*
X157952380Y-60380952D01*
X157285714Y-59142857D02*
X157952380Y-59142857D01*
X156904761Y-59380952D02*
X157619047Y-59619047D01*
X157619047Y-59000000D01*
X157952380Y-58142857D02*
X157952380Y-58619047D01*
X156952380Y-58619047D01*
X157904761Y-57857142D02*
X157952380Y-57714285D01*
X157952380Y-57476190D01*
X157904761Y-57380952D01*
X157857142Y-57333333D01*
X157761904Y-57285714D01*
X157666666Y-57285714D01*
X157571428Y-57333333D01*
X157523809Y-57380952D01*
X157476190Y-57476190D01*
X157428571Y-57666666D01*
X157380952Y-57761904D01*
X157333333Y-57809523D01*
X157238095Y-57857142D01*
X157142857Y-57857142D01*
X157047619Y-57809523D01*
X157000000Y-57761904D01*
X156952380Y-57666666D01*
X156952380Y-57428571D01*
X157000000Y-57285714D01*
X157047619Y-56904761D02*
X157000000Y-56857142D01*
X156952380Y-56761904D01*
X156952380Y-56523809D01*
X157000000Y-56428571D01*
X157047619Y-56380952D01*
X157142857Y-56333333D01*
X157238095Y-56333333D01*
X157380952Y-56380952D01*
X157952380Y-56952380D01*
X157952380Y-56333333D01*
X157285714Y-55476190D02*
X157952380Y-55476190D01*
X156904761Y-55714285D02*
X157619047Y-55952380D01*
X157619047Y-55333333D01*
X156952380Y-54476190D02*
X156952380Y-54952380D01*
X157428571Y-55000000D01*
X157380952Y-54952380D01*
X157333333Y-54857142D01*
X157333333Y-54619047D01*
X157380952Y-54523809D01*
X157428571Y-54476190D01*
X157523809Y-54428571D01*
X157761904Y-54428571D01*
X157857142Y-54476190D01*
X157904761Y-54523809D01*
X157952380Y-54619047D01*
X157952380Y-54857142D01*
X157904761Y-54952380D01*
X157857142Y-55000000D01*
X128761904Y-49302380D02*
X128761904Y-50111904D01*
X128809523Y-50207142D01*
X128857142Y-50254761D01*
X128952380Y-50302380D01*
X129142857Y-50302380D01*
X129238095Y-50254761D01*
X129285714Y-50207142D01*
X129333333Y-50111904D01*
X129333333Y-49302380D01*
X130333333Y-50302380D02*
X129761904Y-50302380D01*
X130047619Y-50302380D02*
X130047619Y-49302380D01*
X129952380Y-49445238D01*
X129857142Y-49540476D01*
X129761904Y-49588095D01*
X130952380Y-49302380D02*
X131047619Y-49302380D01*
X131142857Y-49350000D01*
X131190476Y-49397619D01*
X131238095Y-49492857D01*
X131285714Y-49683333D01*
X131285714Y-49921428D01*
X131238095Y-50111904D01*
X131190476Y-50207142D01*
X131142857Y-50254761D01*
X131047619Y-50302380D01*
X130952380Y-50302380D01*
X130857142Y-50254761D01*
X130809523Y-50207142D01*
X130761904Y-50111904D01*
X130714285Y-49921428D01*
X130714285Y-49683333D01*
X130761904Y-49492857D01*
X130809523Y-49397619D01*
X130857142Y-49350000D01*
X130952380Y-49302380D01*
X129452380Y-60619047D02*
X129452380Y-59952380D01*
X130452380Y-60380952D01*
X129785714Y-59142857D02*
X130452380Y-59142857D01*
X129404761Y-59380952D02*
X130119047Y-59619047D01*
X130119047Y-59000000D01*
X130452380Y-58142857D02*
X130452380Y-58619047D01*
X129452380Y-58619047D01*
X130404761Y-57857142D02*
X130452380Y-57714285D01*
X130452380Y-57476190D01*
X130404761Y-57380952D01*
X130357142Y-57333333D01*
X130261904Y-57285714D01*
X130166666Y-57285714D01*
X130071428Y-57333333D01*
X130023809Y-57380952D01*
X129976190Y-57476190D01*
X129928571Y-57666666D01*
X129880952Y-57761904D01*
X129833333Y-57809523D01*
X129738095Y-57857142D01*
X129642857Y-57857142D01*
X129547619Y-57809523D01*
X129500000Y-57761904D01*
X129452380Y-57666666D01*
X129452380Y-57428571D01*
X129500000Y-57285714D01*
X129547619Y-56904761D02*
X129500000Y-56857142D01*
X129452380Y-56761904D01*
X129452380Y-56523809D01*
X129500000Y-56428571D01*
X129547619Y-56380952D01*
X129642857Y-56333333D01*
X129738095Y-56333333D01*
X129880952Y-56380952D01*
X130452380Y-56952380D01*
X130452380Y-56333333D01*
X129785714Y-55476190D02*
X130452380Y-55476190D01*
X129404761Y-55714285D02*
X130119047Y-55952380D01*
X130119047Y-55333333D01*
X129452380Y-54476190D02*
X129452380Y-54952380D01*
X129928571Y-55000000D01*
X129880952Y-54952380D01*
X129833333Y-54857142D01*
X129833333Y-54619047D01*
X129880952Y-54523809D01*
X129928571Y-54476190D01*
X130023809Y-54428571D01*
X130261904Y-54428571D01*
X130357142Y-54476190D01*
X130404761Y-54523809D01*
X130452380Y-54619047D01*
X130452380Y-54857142D01*
X130404761Y-54952380D01*
X130357142Y-55000000D01*
X182011904Y-49302380D02*
X182011904Y-50111904D01*
X182059523Y-50207142D01*
X182107142Y-50254761D01*
X182202380Y-50302380D01*
X182392857Y-50302380D01*
X182488095Y-50254761D01*
X182535714Y-50207142D01*
X182583333Y-50111904D01*
X182583333Y-49302380D01*
X183583333Y-50302380D02*
X183011904Y-50302380D01*
X183297619Y-50302380D02*
X183297619Y-49302380D01*
X183202380Y-49445238D01*
X183107142Y-49540476D01*
X183011904Y-49588095D01*
X184535714Y-50302380D02*
X183964285Y-50302380D01*
X184250000Y-50302380D02*
X184250000Y-49302380D01*
X184154761Y-49445238D01*
X184059523Y-49540476D01*
X183964285Y-49588095D01*
X182702380Y-60119047D02*
X182702380Y-59452380D01*
X183702380Y-59880952D01*
X183035714Y-58642857D02*
X183702380Y-58642857D01*
X182654761Y-58880952D02*
X183369047Y-59119047D01*
X183369047Y-58500000D01*
X183702380Y-57642857D02*
X183702380Y-58119047D01*
X182702380Y-58119047D01*
X183654761Y-57357142D02*
X183702380Y-57214285D01*
X183702380Y-56976190D01*
X183654761Y-56880952D01*
X183607142Y-56833333D01*
X183511904Y-56785714D01*
X183416666Y-56785714D01*
X183321428Y-56833333D01*
X183273809Y-56880952D01*
X183226190Y-56976190D01*
X183178571Y-57166666D01*
X183130952Y-57261904D01*
X183083333Y-57309523D01*
X182988095Y-57357142D01*
X182892857Y-57357142D01*
X182797619Y-57309523D01*
X182750000Y-57261904D01*
X182702380Y-57166666D01*
X182702380Y-56928571D01*
X182750000Y-56785714D01*
X182797619Y-56404761D02*
X182750000Y-56357142D01*
X182702380Y-56261904D01*
X182702380Y-56023809D01*
X182750000Y-55928571D01*
X182797619Y-55880952D01*
X182892857Y-55833333D01*
X182988095Y-55833333D01*
X183130952Y-55880952D01*
X183702380Y-56452380D01*
X183702380Y-55833333D01*
X183035714Y-54976190D02*
X183702380Y-54976190D01*
X182654761Y-55214285D02*
X183369047Y-55452380D01*
X183369047Y-54833333D01*
X182702380Y-53976190D02*
X182702380Y-54452380D01*
X183178571Y-54500000D01*
X183130952Y-54452380D01*
X183083333Y-54357142D01*
X183083333Y-54119047D01*
X183130952Y-54023809D01*
X183178571Y-53976190D01*
X183273809Y-53928571D01*
X183511904Y-53928571D01*
X183607142Y-53976190D01*
X183654761Y-54023809D01*
X183702380Y-54119047D01*
X183702380Y-54357142D01*
X183654761Y-54452380D01*
X183607142Y-54500000D01*
X198486904Y-53172380D02*
X198486904Y-53981904D01*
X198534523Y-54077142D01*
X198582142Y-54124761D01*
X198677380Y-54172380D01*
X198867857Y-54172380D01*
X198963095Y-54124761D01*
X199010714Y-54077142D01*
X199058333Y-53981904D01*
X199058333Y-53172380D01*
X200058333Y-54172380D02*
X199486904Y-54172380D01*
X199772619Y-54172380D02*
X199772619Y-53172380D01*
X199677380Y-53315238D01*
X199582142Y-53410476D01*
X199486904Y-53458095D01*
X200439285Y-53267619D02*
X200486904Y-53220000D01*
X200582142Y-53172380D01*
X200820238Y-53172380D01*
X200915476Y-53220000D01*
X200963095Y-53267619D01*
X201010714Y-53362857D01*
X201010714Y-53458095D01*
X200963095Y-53600952D01*
X200391666Y-54172380D01*
X201010714Y-54172380D01*
X199177380Y-61642857D02*
X199177380Y-60976190D01*
X200177380Y-61404761D01*
X199510714Y-60166666D02*
X200177380Y-60166666D01*
X199129761Y-60404761D02*
X199844047Y-60642857D01*
X199844047Y-60023809D01*
X200177380Y-59166666D02*
X200177380Y-59642857D01*
X199177380Y-59642857D01*
X200129761Y-58880952D02*
X200177380Y-58738095D01*
X200177380Y-58500000D01*
X200129761Y-58404761D01*
X200082142Y-58357142D01*
X199986904Y-58309523D01*
X199891666Y-58309523D01*
X199796428Y-58357142D01*
X199748809Y-58404761D01*
X199701190Y-58500000D01*
X199653571Y-58690476D01*
X199605952Y-58785714D01*
X199558333Y-58833333D01*
X199463095Y-58880952D01*
X199367857Y-58880952D01*
X199272619Y-58833333D01*
X199225000Y-58785714D01*
X199177380Y-58690476D01*
X199177380Y-58452380D01*
X199225000Y-58309523D01*
X199177380Y-57690476D02*
X199177380Y-57595238D01*
X199225000Y-57500000D01*
X199272619Y-57452380D01*
X199367857Y-57404761D01*
X199558333Y-57357142D01*
X199796428Y-57357142D01*
X199986904Y-57404761D01*
X200082142Y-57452380D01*
X200129761Y-57500000D01*
X200177380Y-57595238D01*
X200177380Y-57690476D01*
X200129761Y-57785714D01*
X200082142Y-57833333D01*
X199986904Y-57880952D01*
X199796428Y-57928571D01*
X199558333Y-57928571D01*
X199367857Y-57880952D01*
X199272619Y-57833333D01*
X199225000Y-57785714D01*
X199177380Y-57690476D01*
X199177380Y-56738095D02*
X199177380Y-56642857D01*
X199225000Y-56547619D01*
X199272619Y-56500000D01*
X199367857Y-56452380D01*
X199558333Y-56404761D01*
X199796428Y-56404761D01*
X199986904Y-56452380D01*
X200082142Y-56500000D01*
X200129761Y-56547619D01*
X200177380Y-56642857D01*
X200177380Y-56738095D01*
X200129761Y-56833333D01*
X200082142Y-56880952D01*
X199986904Y-56928571D01*
X199796428Y-56976190D01*
X199558333Y-56976190D01*
X199367857Y-56928571D01*
X199272619Y-56880952D01*
X199225000Y-56833333D01*
X199177380Y-56738095D01*
X213757142Y-62557142D02*
X213709523Y-62604761D01*
X213566666Y-62652380D01*
X213471428Y-62652380D01*
X213328571Y-62604761D01*
X213233333Y-62509523D01*
X213185714Y-62414285D01*
X213138095Y-62223809D01*
X213138095Y-62080952D01*
X213185714Y-61890476D01*
X213233333Y-61795238D01*
X213328571Y-61700000D01*
X213471428Y-61652380D01*
X213566666Y-61652380D01*
X213709523Y-61700000D01*
X213757142Y-61747619D01*
X214709523Y-62652380D02*
X214138095Y-62652380D01*
X214423809Y-62652380D02*
X214423809Y-61652380D01*
X214328571Y-61795238D01*
X214233333Y-61890476D01*
X214138095Y-61938095D01*
X215042857Y-61652380D02*
X215661904Y-61652380D01*
X215328571Y-62033333D01*
X215471428Y-62033333D01*
X215566666Y-62080952D01*
X215614285Y-62128571D01*
X215661904Y-62223809D01*
X215661904Y-62461904D01*
X215614285Y-62557142D01*
X215566666Y-62604761D01*
X215471428Y-62652380D01*
X215185714Y-62652380D01*
X215090476Y-62604761D01*
X215042857Y-62557142D01*
X120357142Y-62357142D02*
X120309523Y-62404761D01*
X120166666Y-62452380D01*
X120071428Y-62452380D01*
X119928571Y-62404761D01*
X119833333Y-62309523D01*
X119785714Y-62214285D01*
X119738095Y-62023809D01*
X119738095Y-61880952D01*
X119785714Y-61690476D01*
X119833333Y-61595238D01*
X119928571Y-61500000D01*
X120071428Y-61452380D01*
X120166666Y-61452380D01*
X120309523Y-61500000D01*
X120357142Y-61547619D01*
X121309523Y-62452380D02*
X120738095Y-62452380D01*
X121023809Y-62452380D02*
X121023809Y-61452380D01*
X120928571Y-61595238D01*
X120833333Y-61690476D01*
X120738095Y-61738095D01*
X122166666Y-61785714D02*
X122166666Y-62452380D01*
X121928571Y-61404761D02*
X121690476Y-62119047D01*
X122309523Y-62119047D01*
M02*
