G04 #@! TF.GenerationSoftware,KiCad,Pcbnew,(5.1.8)-1*
G04 #@! TF.CreationDate,2020-11-28T11:56:59-08:00*
G04 #@! TF.ProjectId,GPRModule,4750524d-6f64-4756-9c65-2e6b69636164,1.0*
G04 #@! TF.SameCoordinates,Original*
G04 #@! TF.FileFunction,Soldermask,Top*
G04 #@! TF.FilePolarity,Negative*
%FSLAX46Y46*%
G04 Gerber Fmt 4.6, Leading zero omitted, Abs format (unit mm)*
G04 Created by KiCad (PCBNEW (5.1.8)-1) date 2020-11-28 11:56:59*
%MOMM*%
%LPD*%
G01*
G04 APERTURE LIST*
%ADD10R,0.800000X0.300000*%
%ADD11R,1.020000X4.570000*%
%ADD12R,0.510000X0.760000*%
G04 APERTURE END LIST*
D10*
X101150000Y-71270000D03*
X101150000Y-70270000D03*
X101150000Y-70770000D03*
X101150000Y-69770000D03*
X101150000Y-69270000D03*
X101150000Y-68770000D03*
X99350000Y-71270000D03*
X99350000Y-70770000D03*
X99350000Y-70270000D03*
X99350000Y-69770000D03*
X99350000Y-69270000D03*
X99350000Y-68770000D03*
X101150000Y-71770000D03*
X99350000Y-71770000D03*
X101150000Y-68270000D03*
X99350000Y-68270000D03*
G36*
G01*
X102425000Y-104035000D02*
X102425000Y-103735000D01*
G75*
G02*
X102575000Y-103585000I150000J0D01*
G01*
X104325000Y-103585000D01*
G75*
G02*
X104475000Y-103735000I0J-150000D01*
G01*
X104475000Y-104035000D01*
G75*
G02*
X104325000Y-104185000I-150000J0D01*
G01*
X102575000Y-104185000D01*
G75*
G02*
X102425000Y-104035000I0J150000D01*
G01*
G37*
G36*
G01*
X102425000Y-105305000D02*
X102425000Y-105005000D01*
G75*
G02*
X102575000Y-104855000I150000J0D01*
G01*
X104325000Y-104855000D01*
G75*
G02*
X104475000Y-105005000I0J-150000D01*
G01*
X104475000Y-105305000D01*
G75*
G02*
X104325000Y-105455000I-150000J0D01*
G01*
X102575000Y-105455000D01*
G75*
G02*
X102425000Y-105305000I0J150000D01*
G01*
G37*
G36*
G01*
X102425000Y-106575000D02*
X102425000Y-106275000D01*
G75*
G02*
X102575000Y-106125000I150000J0D01*
G01*
X104325000Y-106125000D01*
G75*
G02*
X104475000Y-106275000I0J-150000D01*
G01*
X104475000Y-106575000D01*
G75*
G02*
X104325000Y-106725000I-150000J0D01*
G01*
X102575000Y-106725000D01*
G75*
G02*
X102425000Y-106575000I0J150000D01*
G01*
G37*
G36*
G01*
X102425000Y-107845000D02*
X102425000Y-107545000D01*
G75*
G02*
X102575000Y-107395000I150000J0D01*
G01*
X104325000Y-107395000D01*
G75*
G02*
X104475000Y-107545000I0J-150000D01*
G01*
X104475000Y-107845000D01*
G75*
G02*
X104325000Y-107995000I-150000J0D01*
G01*
X102575000Y-107995000D01*
G75*
G02*
X102425000Y-107845000I0J150000D01*
G01*
G37*
G36*
G01*
X102425000Y-109115000D02*
X102425000Y-108815000D01*
G75*
G02*
X102575000Y-108665000I150000J0D01*
G01*
X104325000Y-108665000D01*
G75*
G02*
X104475000Y-108815000I0J-150000D01*
G01*
X104475000Y-109115000D01*
G75*
G02*
X104325000Y-109265000I-150000J0D01*
G01*
X102575000Y-109265000D01*
G75*
G02*
X102425000Y-109115000I0J150000D01*
G01*
G37*
G36*
G01*
X102425000Y-110385000D02*
X102425000Y-110085000D01*
G75*
G02*
X102575000Y-109935000I150000J0D01*
G01*
X104325000Y-109935000D01*
G75*
G02*
X104475000Y-110085000I0J-150000D01*
G01*
X104475000Y-110385000D01*
G75*
G02*
X104325000Y-110535000I-150000J0D01*
G01*
X102575000Y-110535000D01*
G75*
G02*
X102425000Y-110385000I0J150000D01*
G01*
G37*
G36*
G01*
X102425000Y-111655000D02*
X102425000Y-111355000D01*
G75*
G02*
X102575000Y-111205000I150000J0D01*
G01*
X104325000Y-111205000D01*
G75*
G02*
X104475000Y-111355000I0J-150000D01*
G01*
X104475000Y-111655000D01*
G75*
G02*
X104325000Y-111805000I-150000J0D01*
G01*
X102575000Y-111805000D01*
G75*
G02*
X102425000Y-111655000I0J150000D01*
G01*
G37*
G36*
G01*
X102425000Y-112925000D02*
X102425000Y-112625000D01*
G75*
G02*
X102575000Y-112475000I150000J0D01*
G01*
X104325000Y-112475000D01*
G75*
G02*
X104475000Y-112625000I0J-150000D01*
G01*
X104475000Y-112925000D01*
G75*
G02*
X104325000Y-113075000I-150000J0D01*
G01*
X102575000Y-113075000D01*
G75*
G02*
X102425000Y-112925000I0J150000D01*
G01*
G37*
G36*
G01*
X102425000Y-114195000D02*
X102425000Y-113895000D01*
G75*
G02*
X102575000Y-113745000I150000J0D01*
G01*
X104325000Y-113745000D01*
G75*
G02*
X104475000Y-113895000I0J-150000D01*
G01*
X104475000Y-114195000D01*
G75*
G02*
X104325000Y-114345000I-150000J0D01*
G01*
X102575000Y-114345000D01*
G75*
G02*
X102425000Y-114195000I0J150000D01*
G01*
G37*
G36*
G01*
X102425000Y-115465000D02*
X102425000Y-115165000D01*
G75*
G02*
X102575000Y-115015000I150000J0D01*
G01*
X104325000Y-115015000D01*
G75*
G02*
X104475000Y-115165000I0J-150000D01*
G01*
X104475000Y-115465000D01*
G75*
G02*
X104325000Y-115615000I-150000J0D01*
G01*
X102575000Y-115615000D01*
G75*
G02*
X102425000Y-115465000I0J150000D01*
G01*
G37*
G36*
G01*
X93125000Y-115465000D02*
X93125000Y-115165000D01*
G75*
G02*
X93275000Y-115015000I150000J0D01*
G01*
X95025000Y-115015000D01*
G75*
G02*
X95175000Y-115165000I0J-150000D01*
G01*
X95175000Y-115465000D01*
G75*
G02*
X95025000Y-115615000I-150000J0D01*
G01*
X93275000Y-115615000D01*
G75*
G02*
X93125000Y-115465000I0J150000D01*
G01*
G37*
G36*
G01*
X93125000Y-114195000D02*
X93125000Y-113895000D01*
G75*
G02*
X93275000Y-113745000I150000J0D01*
G01*
X95025000Y-113745000D01*
G75*
G02*
X95175000Y-113895000I0J-150000D01*
G01*
X95175000Y-114195000D01*
G75*
G02*
X95025000Y-114345000I-150000J0D01*
G01*
X93275000Y-114345000D01*
G75*
G02*
X93125000Y-114195000I0J150000D01*
G01*
G37*
G36*
G01*
X93125000Y-112925000D02*
X93125000Y-112625000D01*
G75*
G02*
X93275000Y-112475000I150000J0D01*
G01*
X95025000Y-112475000D01*
G75*
G02*
X95175000Y-112625000I0J-150000D01*
G01*
X95175000Y-112925000D01*
G75*
G02*
X95025000Y-113075000I-150000J0D01*
G01*
X93275000Y-113075000D01*
G75*
G02*
X93125000Y-112925000I0J150000D01*
G01*
G37*
G36*
G01*
X93125000Y-111655000D02*
X93125000Y-111355000D01*
G75*
G02*
X93275000Y-111205000I150000J0D01*
G01*
X95025000Y-111205000D01*
G75*
G02*
X95175000Y-111355000I0J-150000D01*
G01*
X95175000Y-111655000D01*
G75*
G02*
X95025000Y-111805000I-150000J0D01*
G01*
X93275000Y-111805000D01*
G75*
G02*
X93125000Y-111655000I0J150000D01*
G01*
G37*
G36*
G01*
X93125000Y-110385000D02*
X93125000Y-110085000D01*
G75*
G02*
X93275000Y-109935000I150000J0D01*
G01*
X95025000Y-109935000D01*
G75*
G02*
X95175000Y-110085000I0J-150000D01*
G01*
X95175000Y-110385000D01*
G75*
G02*
X95025000Y-110535000I-150000J0D01*
G01*
X93275000Y-110535000D01*
G75*
G02*
X93125000Y-110385000I0J150000D01*
G01*
G37*
G36*
G01*
X93125000Y-109115000D02*
X93125000Y-108815000D01*
G75*
G02*
X93275000Y-108665000I150000J0D01*
G01*
X95025000Y-108665000D01*
G75*
G02*
X95175000Y-108815000I0J-150000D01*
G01*
X95175000Y-109115000D01*
G75*
G02*
X95025000Y-109265000I-150000J0D01*
G01*
X93275000Y-109265000D01*
G75*
G02*
X93125000Y-109115000I0J150000D01*
G01*
G37*
G36*
G01*
X93125000Y-107845000D02*
X93125000Y-107545000D01*
G75*
G02*
X93275000Y-107395000I150000J0D01*
G01*
X95025000Y-107395000D01*
G75*
G02*
X95175000Y-107545000I0J-150000D01*
G01*
X95175000Y-107845000D01*
G75*
G02*
X95025000Y-107995000I-150000J0D01*
G01*
X93275000Y-107995000D01*
G75*
G02*
X93125000Y-107845000I0J150000D01*
G01*
G37*
G36*
G01*
X93125000Y-106575000D02*
X93125000Y-106275000D01*
G75*
G02*
X93275000Y-106125000I150000J0D01*
G01*
X95025000Y-106125000D01*
G75*
G02*
X95175000Y-106275000I0J-150000D01*
G01*
X95175000Y-106575000D01*
G75*
G02*
X95025000Y-106725000I-150000J0D01*
G01*
X93275000Y-106725000D01*
G75*
G02*
X93125000Y-106575000I0J150000D01*
G01*
G37*
G36*
G01*
X93125000Y-105305000D02*
X93125000Y-105005000D01*
G75*
G02*
X93275000Y-104855000I150000J0D01*
G01*
X95025000Y-104855000D01*
G75*
G02*
X95175000Y-105005000I0J-150000D01*
G01*
X95175000Y-105305000D01*
G75*
G02*
X95025000Y-105455000I-150000J0D01*
G01*
X93275000Y-105455000D01*
G75*
G02*
X93125000Y-105305000I0J150000D01*
G01*
G37*
G36*
G01*
X93125000Y-104035000D02*
X93125000Y-103735000D01*
G75*
G02*
X93275000Y-103585000I150000J0D01*
G01*
X95025000Y-103585000D01*
G75*
G02*
X95175000Y-103735000I0J-150000D01*
G01*
X95175000Y-104035000D01*
G75*
G02*
X95025000Y-104185000I-150000J0D01*
G01*
X93275000Y-104185000D01*
G75*
G02*
X93125000Y-104035000I0J150000D01*
G01*
G37*
G36*
G01*
X100675000Y-61625000D02*
X101925000Y-61625000D01*
G75*
G02*
X102175000Y-61875000I0J-250000D01*
G01*
X102175000Y-62800000D01*
G75*
G02*
X101925000Y-63050000I-250000J0D01*
G01*
X100675000Y-63050000D01*
G75*
G02*
X100425000Y-62800000I0J250000D01*
G01*
X100425000Y-61875000D01*
G75*
G02*
X100675000Y-61625000I250000J0D01*
G01*
G37*
G36*
G01*
X100675000Y-58650000D02*
X101925000Y-58650000D01*
G75*
G02*
X102175000Y-58900000I0J-250000D01*
G01*
X102175000Y-59825000D01*
G75*
G02*
X101925000Y-60075000I-250000J0D01*
G01*
X100675000Y-60075000D01*
G75*
G02*
X100425000Y-59825000I0J250000D01*
G01*
X100425000Y-58900000D01*
G75*
G02*
X100675000Y-58650000I250000J0D01*
G01*
G37*
G36*
G01*
X188875000Y-85037500D02*
X188875000Y-84562500D01*
G75*
G02*
X189112500Y-84325000I237500J0D01*
G01*
X189687500Y-84325000D01*
G75*
G02*
X189925000Y-84562500I0J-237500D01*
G01*
X189925000Y-85037500D01*
G75*
G02*
X189687500Y-85275000I-237500J0D01*
G01*
X189112500Y-85275000D01*
G75*
G02*
X188875000Y-85037500I0J237500D01*
G01*
G37*
G36*
G01*
X187125000Y-85037500D02*
X187125000Y-84562500D01*
G75*
G02*
X187362500Y-84325000I237500J0D01*
G01*
X187937500Y-84325000D01*
G75*
G02*
X188175000Y-84562500I0J-237500D01*
G01*
X188175000Y-85037500D01*
G75*
G02*
X187937500Y-85275000I-237500J0D01*
G01*
X187362500Y-85275000D01*
G75*
G02*
X187125000Y-85037500I0J237500D01*
G01*
G37*
G36*
G01*
X186925000Y-102037500D02*
X186925000Y-101562500D01*
G75*
G02*
X187162500Y-101325000I237500J0D01*
G01*
X187737500Y-101325000D01*
G75*
G02*
X187975000Y-101562500I0J-237500D01*
G01*
X187975000Y-102037500D01*
G75*
G02*
X187737500Y-102275000I-237500J0D01*
G01*
X187162500Y-102275000D01*
G75*
G02*
X186925000Y-102037500I0J237500D01*
G01*
G37*
G36*
G01*
X188675000Y-102037500D02*
X188675000Y-101562500D01*
G75*
G02*
X188912500Y-101325000I237500J0D01*
G01*
X189487500Y-101325000D01*
G75*
G02*
X189725000Y-101562500I0J-237500D01*
G01*
X189725000Y-102037500D01*
G75*
G02*
X189487500Y-102275000I-237500J0D01*
G01*
X188912500Y-102275000D01*
G75*
G02*
X188675000Y-102037500I0J237500D01*
G01*
G37*
G36*
G01*
X158575000Y-102037500D02*
X158575000Y-101562500D01*
G75*
G02*
X158812500Y-101325000I237500J0D01*
G01*
X159387500Y-101325000D01*
G75*
G02*
X159625000Y-101562500I0J-237500D01*
G01*
X159625000Y-102037500D01*
G75*
G02*
X159387500Y-102275000I-237500J0D01*
G01*
X158812500Y-102275000D01*
G75*
G02*
X158575000Y-102037500I0J237500D01*
G01*
G37*
G36*
G01*
X160325000Y-102037500D02*
X160325000Y-101562500D01*
G75*
G02*
X160562500Y-101325000I237500J0D01*
G01*
X161137500Y-101325000D01*
G75*
G02*
X161375000Y-101562500I0J-237500D01*
G01*
X161375000Y-102037500D01*
G75*
G02*
X161137500Y-102275000I-237500J0D01*
G01*
X160562500Y-102275000D01*
G75*
G02*
X160325000Y-102037500I0J237500D01*
G01*
G37*
G36*
G01*
X160330000Y-85037500D02*
X160330000Y-84562500D01*
G75*
G02*
X160567500Y-84325000I237500J0D01*
G01*
X161142500Y-84325000D01*
G75*
G02*
X161380000Y-84562500I0J-237500D01*
G01*
X161380000Y-85037500D01*
G75*
G02*
X161142500Y-85275000I-237500J0D01*
G01*
X160567500Y-85275000D01*
G75*
G02*
X160330000Y-85037500I0J237500D01*
G01*
G37*
G36*
G01*
X158580000Y-85037500D02*
X158580000Y-84562500D01*
G75*
G02*
X158817500Y-84325000I237500J0D01*
G01*
X159392500Y-84325000D01*
G75*
G02*
X159630000Y-84562500I0J-237500D01*
G01*
X159630000Y-85037500D01*
G75*
G02*
X159392500Y-85275000I-237500J0D01*
G01*
X158817500Y-85275000D01*
G75*
G02*
X158580000Y-85037500I0J237500D01*
G01*
G37*
G36*
G01*
X129725000Y-102037500D02*
X129725000Y-101562500D01*
G75*
G02*
X129962500Y-101325000I237500J0D01*
G01*
X130537500Y-101325000D01*
G75*
G02*
X130775000Y-101562500I0J-237500D01*
G01*
X130775000Y-102037500D01*
G75*
G02*
X130537500Y-102275000I-237500J0D01*
G01*
X129962500Y-102275000D01*
G75*
G02*
X129725000Y-102037500I0J237500D01*
G01*
G37*
G36*
G01*
X131475000Y-102037500D02*
X131475000Y-101562500D01*
G75*
G02*
X131712500Y-101325000I237500J0D01*
G01*
X132287500Y-101325000D01*
G75*
G02*
X132525000Y-101562500I0J-237500D01*
G01*
X132525000Y-102037500D01*
G75*
G02*
X132287500Y-102275000I-237500J0D01*
G01*
X131712500Y-102275000D01*
G75*
G02*
X131475000Y-102037500I0J237500D01*
G01*
G37*
G36*
G01*
X131475000Y-85037500D02*
X131475000Y-84562500D01*
G75*
G02*
X131712500Y-84325000I237500J0D01*
G01*
X132287500Y-84325000D01*
G75*
G02*
X132525000Y-84562500I0J-237500D01*
G01*
X132525000Y-85037500D01*
G75*
G02*
X132287500Y-85275000I-237500J0D01*
G01*
X131712500Y-85275000D01*
G75*
G02*
X131475000Y-85037500I0J237500D01*
G01*
G37*
G36*
G01*
X129725000Y-85037500D02*
X129725000Y-84562500D01*
G75*
G02*
X129962500Y-84325000I237500J0D01*
G01*
X130537500Y-84325000D01*
G75*
G02*
X130775000Y-84562500I0J-237500D01*
G01*
X130775000Y-85037500D01*
G75*
G02*
X130537500Y-85275000I-237500J0D01*
G01*
X129962500Y-85275000D01*
G75*
G02*
X129725000Y-85037500I0J237500D01*
G01*
G37*
G36*
G01*
X101200000Y-102037500D02*
X101200000Y-101562500D01*
G75*
G02*
X101437500Y-101325000I237500J0D01*
G01*
X102012500Y-101325000D01*
G75*
G02*
X102250000Y-101562500I0J-237500D01*
G01*
X102250000Y-102037500D01*
G75*
G02*
X102012500Y-102275000I-237500J0D01*
G01*
X101437500Y-102275000D01*
G75*
G02*
X101200000Y-102037500I0J237500D01*
G01*
G37*
G36*
G01*
X102950000Y-102037500D02*
X102950000Y-101562500D01*
G75*
G02*
X103187500Y-101325000I237500J0D01*
G01*
X103762500Y-101325000D01*
G75*
G02*
X104000000Y-101562500I0J-237500D01*
G01*
X104000000Y-102037500D01*
G75*
G02*
X103762500Y-102275000I-237500J0D01*
G01*
X103187500Y-102275000D01*
G75*
G02*
X102950000Y-102037500I0J237500D01*
G01*
G37*
G36*
G01*
X101200000Y-85037500D02*
X101200000Y-84562500D01*
G75*
G02*
X101437500Y-84325000I237500J0D01*
G01*
X102012500Y-84325000D01*
G75*
G02*
X102250000Y-84562500I0J-237500D01*
G01*
X102250000Y-85037500D01*
G75*
G02*
X102012500Y-85275000I-237500J0D01*
G01*
X101437500Y-85275000D01*
G75*
G02*
X101200000Y-85037500I0J237500D01*
G01*
G37*
G36*
G01*
X102950000Y-85037500D02*
X102950000Y-84562500D01*
G75*
G02*
X103187500Y-84325000I237500J0D01*
G01*
X103762500Y-84325000D01*
G75*
G02*
X104000000Y-84562500I0J-237500D01*
G01*
X104000000Y-85037500D01*
G75*
G02*
X103762500Y-85275000I-237500J0D01*
G01*
X103187500Y-85275000D01*
G75*
G02*
X102950000Y-85037500I0J237500D01*
G01*
G37*
G36*
G01*
X118750000Y-68312500D02*
X118750000Y-68787500D01*
G75*
G02*
X118512500Y-69025000I-237500J0D01*
G01*
X117937500Y-69025000D01*
G75*
G02*
X117700000Y-68787500I0J237500D01*
G01*
X117700000Y-68312500D01*
G75*
G02*
X117937500Y-68075000I237500J0D01*
G01*
X118512500Y-68075000D01*
G75*
G02*
X118750000Y-68312500I0J-237500D01*
G01*
G37*
G36*
G01*
X120500000Y-68312500D02*
X120500000Y-68787500D01*
G75*
G02*
X120262500Y-69025000I-237500J0D01*
G01*
X119687500Y-69025000D01*
G75*
G02*
X119450000Y-68787500I0J237500D01*
G01*
X119450000Y-68312500D01*
G75*
G02*
X119687500Y-68075000I237500J0D01*
G01*
X120262500Y-68075000D01*
G75*
G02*
X120500000Y-68312500I0J-237500D01*
G01*
G37*
G36*
G01*
X148900000Y-68262500D02*
X148900000Y-68737500D01*
G75*
G02*
X148662500Y-68975000I-237500J0D01*
G01*
X148087500Y-68975000D01*
G75*
G02*
X147850000Y-68737500I0J237500D01*
G01*
X147850000Y-68262500D01*
G75*
G02*
X148087500Y-68025000I237500J0D01*
G01*
X148662500Y-68025000D01*
G75*
G02*
X148900000Y-68262500I0J-237500D01*
G01*
G37*
G36*
G01*
X147150000Y-68262500D02*
X147150000Y-68737500D01*
G75*
G02*
X146912500Y-68975000I-237500J0D01*
G01*
X146337500Y-68975000D01*
G75*
G02*
X146100000Y-68737500I0J237500D01*
G01*
X146100000Y-68262500D01*
G75*
G02*
X146337500Y-68025000I237500J0D01*
G01*
X146912500Y-68025000D01*
G75*
G02*
X147150000Y-68262500I0J-237500D01*
G01*
G37*
G36*
G01*
X161950000Y-72312500D02*
X161950000Y-72787500D01*
G75*
G02*
X161712500Y-73025000I-237500J0D01*
G01*
X161137500Y-73025000D01*
G75*
G02*
X160900000Y-72787500I0J237500D01*
G01*
X160900000Y-72312500D01*
G75*
G02*
X161137500Y-72075000I237500J0D01*
G01*
X161712500Y-72075000D01*
G75*
G02*
X161950000Y-72312500I0J-237500D01*
G01*
G37*
G36*
G01*
X163700000Y-72312500D02*
X163700000Y-72787500D01*
G75*
G02*
X163462500Y-73025000I-237500J0D01*
G01*
X162887500Y-73025000D01*
G75*
G02*
X162650000Y-72787500I0J237500D01*
G01*
X162650000Y-72312500D01*
G75*
G02*
X162887500Y-72075000I237500J0D01*
G01*
X163462500Y-72075000D01*
G75*
G02*
X163700000Y-72312500I0J-237500D01*
G01*
G37*
G36*
G01*
X151625000Y-58650000D02*
X152875000Y-58650000D01*
G75*
G02*
X153125000Y-58900000I0J-250000D01*
G01*
X153125000Y-59825000D01*
G75*
G02*
X152875000Y-60075000I-250000J0D01*
G01*
X151625000Y-60075000D01*
G75*
G02*
X151375000Y-59825000I0J250000D01*
G01*
X151375000Y-58900000D01*
G75*
G02*
X151625000Y-58650000I250000J0D01*
G01*
G37*
G36*
G01*
X151625000Y-61625000D02*
X152875000Y-61625000D01*
G75*
G02*
X153125000Y-61875000I0J-250000D01*
G01*
X153125000Y-62800000D01*
G75*
G02*
X152875000Y-63050000I-250000J0D01*
G01*
X151625000Y-63050000D01*
G75*
G02*
X151375000Y-62800000I0J250000D01*
G01*
X151375000Y-61875000D01*
G75*
G02*
X151625000Y-61625000I250000J0D01*
G01*
G37*
G36*
G01*
X147875000Y-58662500D02*
X149125000Y-58662500D01*
G75*
G02*
X149375000Y-58912500I0J-250000D01*
G01*
X149375000Y-59837500D01*
G75*
G02*
X149125000Y-60087500I-250000J0D01*
G01*
X147875000Y-60087500D01*
G75*
G02*
X147625000Y-59837500I0J250000D01*
G01*
X147625000Y-58912500D01*
G75*
G02*
X147875000Y-58662500I250000J0D01*
G01*
G37*
G36*
G01*
X147875000Y-61637500D02*
X149125000Y-61637500D01*
G75*
G02*
X149375000Y-61887500I0J-250000D01*
G01*
X149375000Y-62812500D01*
G75*
G02*
X149125000Y-63062500I-250000J0D01*
G01*
X147875000Y-63062500D01*
G75*
G02*
X147625000Y-62812500I0J250000D01*
G01*
X147625000Y-61887500D01*
G75*
G02*
X147875000Y-61637500I250000J0D01*
G01*
G37*
G36*
G01*
X144125000Y-61637500D02*
X145375000Y-61637500D01*
G75*
G02*
X145625000Y-61887500I0J-250000D01*
G01*
X145625000Y-62812500D01*
G75*
G02*
X145375000Y-63062500I-250000J0D01*
G01*
X144125000Y-63062500D01*
G75*
G02*
X143875000Y-62812500I0J250000D01*
G01*
X143875000Y-61887500D01*
G75*
G02*
X144125000Y-61637500I250000J0D01*
G01*
G37*
G36*
G01*
X144125000Y-58662500D02*
X145375000Y-58662500D01*
G75*
G02*
X145625000Y-58912500I0J-250000D01*
G01*
X145625000Y-59837500D01*
G75*
G02*
X145375000Y-60087500I-250000J0D01*
G01*
X144125000Y-60087500D01*
G75*
G02*
X143875000Y-59837500I0J250000D01*
G01*
X143875000Y-58912500D01*
G75*
G02*
X144125000Y-58662500I250000J0D01*
G01*
G37*
G36*
G01*
X140375000Y-61637500D02*
X141625000Y-61637500D01*
G75*
G02*
X141875000Y-61887500I0J-250000D01*
G01*
X141875000Y-62812500D01*
G75*
G02*
X141625000Y-63062500I-250000J0D01*
G01*
X140375000Y-63062500D01*
G75*
G02*
X140125000Y-62812500I0J250000D01*
G01*
X140125000Y-61887500D01*
G75*
G02*
X140375000Y-61637500I250000J0D01*
G01*
G37*
G36*
G01*
X140375000Y-58662500D02*
X141625000Y-58662500D01*
G75*
G02*
X141875000Y-58912500I0J-250000D01*
G01*
X141875000Y-59837500D01*
G75*
G02*
X141625000Y-60087500I-250000J0D01*
G01*
X140375000Y-60087500D01*
G75*
G02*
X140125000Y-59837500I0J250000D01*
G01*
X140125000Y-58912500D01*
G75*
G02*
X140375000Y-58662500I250000J0D01*
G01*
G37*
G36*
G01*
X136625000Y-58662500D02*
X137875000Y-58662500D01*
G75*
G02*
X138125000Y-58912500I0J-250000D01*
G01*
X138125000Y-59837500D01*
G75*
G02*
X137875000Y-60087500I-250000J0D01*
G01*
X136625000Y-60087500D01*
G75*
G02*
X136375000Y-59837500I0J250000D01*
G01*
X136375000Y-58912500D01*
G75*
G02*
X136625000Y-58662500I250000J0D01*
G01*
G37*
G36*
G01*
X136625000Y-61637500D02*
X137875000Y-61637500D01*
G75*
G02*
X138125000Y-61887500I0J-250000D01*
G01*
X138125000Y-62812500D01*
G75*
G02*
X137875000Y-63062500I-250000J0D01*
G01*
X136625000Y-63062500D01*
G75*
G02*
X136375000Y-62812500I0J250000D01*
G01*
X136375000Y-61887500D01*
G75*
G02*
X136625000Y-61637500I250000J0D01*
G01*
G37*
G36*
G01*
X132875000Y-58662500D02*
X134125000Y-58662500D01*
G75*
G02*
X134375000Y-58912500I0J-250000D01*
G01*
X134375000Y-59837500D01*
G75*
G02*
X134125000Y-60087500I-250000J0D01*
G01*
X132875000Y-60087500D01*
G75*
G02*
X132625000Y-59837500I0J250000D01*
G01*
X132625000Y-58912500D01*
G75*
G02*
X132875000Y-58662500I250000J0D01*
G01*
G37*
G36*
G01*
X132875000Y-61637500D02*
X134125000Y-61637500D01*
G75*
G02*
X134375000Y-61887500I0J-250000D01*
G01*
X134375000Y-62812500D01*
G75*
G02*
X134125000Y-63062500I-250000J0D01*
G01*
X132875000Y-63062500D01*
G75*
G02*
X132625000Y-62812500I0J250000D01*
G01*
X132625000Y-61887500D01*
G75*
G02*
X132875000Y-61637500I250000J0D01*
G01*
G37*
G36*
G01*
X129125000Y-61637500D02*
X130375000Y-61637500D01*
G75*
G02*
X130625000Y-61887500I0J-250000D01*
G01*
X130625000Y-62812500D01*
G75*
G02*
X130375000Y-63062500I-250000J0D01*
G01*
X129125000Y-63062500D01*
G75*
G02*
X128875000Y-62812500I0J250000D01*
G01*
X128875000Y-61887500D01*
G75*
G02*
X129125000Y-61637500I250000J0D01*
G01*
G37*
G36*
G01*
X129125000Y-58662500D02*
X130375000Y-58662500D01*
G75*
G02*
X130625000Y-58912500I0J-250000D01*
G01*
X130625000Y-59837500D01*
G75*
G02*
X130375000Y-60087500I-250000J0D01*
G01*
X129125000Y-60087500D01*
G75*
G02*
X128875000Y-59837500I0J250000D01*
G01*
X128875000Y-58912500D01*
G75*
G02*
X129125000Y-58662500I250000J0D01*
G01*
G37*
G36*
G01*
X125375000Y-58662500D02*
X126625000Y-58662500D01*
G75*
G02*
X126875000Y-58912500I0J-250000D01*
G01*
X126875000Y-59837500D01*
G75*
G02*
X126625000Y-60087500I-250000J0D01*
G01*
X125375000Y-60087500D01*
G75*
G02*
X125125000Y-59837500I0J250000D01*
G01*
X125125000Y-58912500D01*
G75*
G02*
X125375000Y-58662500I250000J0D01*
G01*
G37*
G36*
G01*
X125375000Y-61637500D02*
X126625000Y-61637500D01*
G75*
G02*
X126875000Y-61887500I0J-250000D01*
G01*
X126875000Y-62812500D01*
G75*
G02*
X126625000Y-63062500I-250000J0D01*
G01*
X125375000Y-63062500D01*
G75*
G02*
X125125000Y-62812500I0J250000D01*
G01*
X125125000Y-61887500D01*
G75*
G02*
X125375000Y-61637500I250000J0D01*
G01*
G37*
G36*
G01*
X119375000Y-61625000D02*
X120625000Y-61625000D01*
G75*
G02*
X120875000Y-61875000I0J-250000D01*
G01*
X120875000Y-62800000D01*
G75*
G02*
X120625000Y-63050000I-250000J0D01*
G01*
X119375000Y-63050000D01*
G75*
G02*
X119125000Y-62800000I0J250000D01*
G01*
X119125000Y-61875000D01*
G75*
G02*
X119375000Y-61625000I250000J0D01*
G01*
G37*
G36*
G01*
X119375000Y-58650000D02*
X120625000Y-58650000D01*
G75*
G02*
X120875000Y-58900000I0J-250000D01*
G01*
X120875000Y-59825000D01*
G75*
G02*
X120625000Y-60075000I-250000J0D01*
G01*
X119375000Y-60075000D01*
G75*
G02*
X119125000Y-59825000I0J250000D01*
G01*
X119125000Y-58900000D01*
G75*
G02*
X119375000Y-58650000I250000J0D01*
G01*
G37*
G36*
G01*
X115625000Y-61625000D02*
X116875000Y-61625000D01*
G75*
G02*
X117125000Y-61875000I0J-250000D01*
G01*
X117125000Y-62800000D01*
G75*
G02*
X116875000Y-63050000I-250000J0D01*
G01*
X115625000Y-63050000D01*
G75*
G02*
X115375000Y-62800000I0J250000D01*
G01*
X115375000Y-61875000D01*
G75*
G02*
X115625000Y-61625000I250000J0D01*
G01*
G37*
G36*
G01*
X115625000Y-58650000D02*
X116875000Y-58650000D01*
G75*
G02*
X117125000Y-58900000I0J-250000D01*
G01*
X117125000Y-59825000D01*
G75*
G02*
X116875000Y-60075000I-250000J0D01*
G01*
X115625000Y-60075000D01*
G75*
G02*
X115375000Y-59825000I0J250000D01*
G01*
X115375000Y-58900000D01*
G75*
G02*
X115625000Y-58650000I250000J0D01*
G01*
G37*
G36*
G01*
X111875000Y-58650000D02*
X113125000Y-58650000D01*
G75*
G02*
X113375000Y-58900000I0J-250000D01*
G01*
X113375000Y-59825000D01*
G75*
G02*
X113125000Y-60075000I-250000J0D01*
G01*
X111875000Y-60075000D01*
G75*
G02*
X111625000Y-59825000I0J250000D01*
G01*
X111625000Y-58900000D01*
G75*
G02*
X111875000Y-58650000I250000J0D01*
G01*
G37*
G36*
G01*
X111875000Y-61625000D02*
X113125000Y-61625000D01*
G75*
G02*
X113375000Y-61875000I0J-250000D01*
G01*
X113375000Y-62800000D01*
G75*
G02*
X113125000Y-63050000I-250000J0D01*
G01*
X111875000Y-63050000D01*
G75*
G02*
X111625000Y-62800000I0J250000D01*
G01*
X111625000Y-61875000D01*
G75*
G02*
X111875000Y-61625000I250000J0D01*
G01*
G37*
G36*
G01*
X108125000Y-61625000D02*
X109375000Y-61625000D01*
G75*
G02*
X109625000Y-61875000I0J-250000D01*
G01*
X109625000Y-62800000D01*
G75*
G02*
X109375000Y-63050000I-250000J0D01*
G01*
X108125000Y-63050000D01*
G75*
G02*
X107875000Y-62800000I0J250000D01*
G01*
X107875000Y-61875000D01*
G75*
G02*
X108125000Y-61625000I250000J0D01*
G01*
G37*
G36*
G01*
X108125000Y-58650000D02*
X109375000Y-58650000D01*
G75*
G02*
X109625000Y-58900000I0J-250000D01*
G01*
X109625000Y-59825000D01*
G75*
G02*
X109375000Y-60075000I-250000J0D01*
G01*
X108125000Y-60075000D01*
G75*
G02*
X107875000Y-59825000I0J250000D01*
G01*
X107875000Y-58900000D01*
G75*
G02*
X108125000Y-58650000I250000J0D01*
G01*
G37*
G36*
G01*
X104375000Y-58650000D02*
X105625000Y-58650000D01*
G75*
G02*
X105875000Y-58900000I0J-250000D01*
G01*
X105875000Y-59825000D01*
G75*
G02*
X105625000Y-60075000I-250000J0D01*
G01*
X104375000Y-60075000D01*
G75*
G02*
X104125000Y-59825000I0J250000D01*
G01*
X104125000Y-58900000D01*
G75*
G02*
X104375000Y-58650000I250000J0D01*
G01*
G37*
G36*
G01*
X104375000Y-61625000D02*
X105625000Y-61625000D01*
G75*
G02*
X105875000Y-61875000I0J-250000D01*
G01*
X105875000Y-62800000D01*
G75*
G02*
X105625000Y-63050000I-250000J0D01*
G01*
X104375000Y-63050000D01*
G75*
G02*
X104125000Y-62800000I0J250000D01*
G01*
X104125000Y-61875000D01*
G75*
G02*
X104375000Y-61625000I250000J0D01*
G01*
G37*
G36*
G01*
X97025000Y-58650000D02*
X98275000Y-58650000D01*
G75*
G02*
X98525000Y-58900000I0J-250000D01*
G01*
X98525000Y-59825000D01*
G75*
G02*
X98275000Y-60075000I-250000J0D01*
G01*
X97025000Y-60075000D01*
G75*
G02*
X96775000Y-59825000I0J250000D01*
G01*
X96775000Y-58900000D01*
G75*
G02*
X97025000Y-58650000I250000J0D01*
G01*
G37*
G36*
G01*
X97025000Y-61625000D02*
X98275000Y-61625000D01*
G75*
G02*
X98525000Y-61875000I0J-250000D01*
G01*
X98525000Y-62800000D01*
G75*
G02*
X98275000Y-63050000I-250000J0D01*
G01*
X97025000Y-63050000D01*
G75*
G02*
X96775000Y-62800000I0J250000D01*
G01*
X96775000Y-61875000D01*
G75*
G02*
X97025000Y-61625000I250000J0D01*
G01*
G37*
G36*
G01*
X93275000Y-61625000D02*
X94525000Y-61625000D01*
G75*
G02*
X94775000Y-61875000I0J-250000D01*
G01*
X94775000Y-62800000D01*
G75*
G02*
X94525000Y-63050000I-250000J0D01*
G01*
X93275000Y-63050000D01*
G75*
G02*
X93025000Y-62800000I0J250000D01*
G01*
X93025000Y-61875000D01*
G75*
G02*
X93275000Y-61625000I250000J0D01*
G01*
G37*
G36*
G01*
X93275000Y-58650000D02*
X94525000Y-58650000D01*
G75*
G02*
X94775000Y-58900000I0J-250000D01*
G01*
X94775000Y-59825000D01*
G75*
G02*
X94525000Y-60075000I-250000J0D01*
G01*
X93275000Y-60075000D01*
G75*
G02*
X93025000Y-59825000I0J250000D01*
G01*
X93025000Y-58900000D01*
G75*
G02*
X93275000Y-58650000I250000J0D01*
G01*
G37*
G36*
G01*
X170725000Y-60097500D02*
X169475000Y-60097500D01*
G75*
G02*
X169225000Y-59847500I0J250000D01*
G01*
X169225000Y-58922500D01*
G75*
G02*
X169475000Y-58672500I250000J0D01*
G01*
X170725000Y-58672500D01*
G75*
G02*
X170975000Y-58922500I0J-250000D01*
G01*
X170975000Y-59847500D01*
G75*
G02*
X170725000Y-60097500I-250000J0D01*
G01*
G37*
G36*
G01*
X170725000Y-63072500D02*
X169475000Y-63072500D01*
G75*
G02*
X169225000Y-62822500I0J250000D01*
G01*
X169225000Y-61897500D01*
G75*
G02*
X169475000Y-61647500I250000J0D01*
G01*
X170725000Y-61647500D01*
G75*
G02*
X170975000Y-61897500I0J-250000D01*
G01*
X170975000Y-62822500D01*
G75*
G02*
X170725000Y-63072500I-250000J0D01*
G01*
G37*
G36*
G01*
X166925000Y-63072500D02*
X165675000Y-63072500D01*
G75*
G02*
X165425000Y-62822500I0J250000D01*
G01*
X165425000Y-61897500D01*
G75*
G02*
X165675000Y-61647500I250000J0D01*
G01*
X166925000Y-61647500D01*
G75*
G02*
X167175000Y-61897500I0J-250000D01*
G01*
X167175000Y-62822500D01*
G75*
G02*
X166925000Y-63072500I-250000J0D01*
G01*
G37*
G36*
G01*
X166925000Y-60097500D02*
X165675000Y-60097500D01*
G75*
G02*
X165425000Y-59847500I0J250000D01*
G01*
X165425000Y-58922500D01*
G75*
G02*
X165675000Y-58672500I250000J0D01*
G01*
X166925000Y-58672500D01*
G75*
G02*
X167175000Y-58922500I0J-250000D01*
G01*
X167175000Y-59847500D01*
G75*
G02*
X166925000Y-60097500I-250000J0D01*
G01*
G37*
G36*
G01*
X163125000Y-60097500D02*
X161875000Y-60097500D01*
G75*
G02*
X161625000Y-59847500I0J250000D01*
G01*
X161625000Y-58922500D01*
G75*
G02*
X161875000Y-58672500I250000J0D01*
G01*
X163125000Y-58672500D01*
G75*
G02*
X163375000Y-58922500I0J-250000D01*
G01*
X163375000Y-59847500D01*
G75*
G02*
X163125000Y-60097500I-250000J0D01*
G01*
G37*
G36*
G01*
X163125000Y-63072500D02*
X161875000Y-63072500D01*
G75*
G02*
X161625000Y-62822500I0J250000D01*
G01*
X161625000Y-61897500D01*
G75*
G02*
X161875000Y-61647500I250000J0D01*
G01*
X163125000Y-61647500D01*
G75*
G02*
X163375000Y-61897500I0J-250000D01*
G01*
X163375000Y-62822500D01*
G75*
G02*
X163125000Y-63072500I-250000J0D01*
G01*
G37*
G36*
G01*
X158075000Y-58647500D02*
X159325000Y-58647500D01*
G75*
G02*
X159575000Y-58897500I0J-250000D01*
G01*
X159575000Y-59822500D01*
G75*
G02*
X159325000Y-60072500I-250000J0D01*
G01*
X158075000Y-60072500D01*
G75*
G02*
X157825000Y-59822500I0J250000D01*
G01*
X157825000Y-58897500D01*
G75*
G02*
X158075000Y-58647500I250000J0D01*
G01*
G37*
G36*
G01*
X158075000Y-61622500D02*
X159325000Y-61622500D01*
G75*
G02*
X159575000Y-61872500I0J-250000D01*
G01*
X159575000Y-62797500D01*
G75*
G02*
X159325000Y-63047500I-250000J0D01*
G01*
X158075000Y-63047500D01*
G75*
G02*
X157825000Y-62797500I0J250000D01*
G01*
X157825000Y-61872500D01*
G75*
G02*
X158075000Y-61622500I250000J0D01*
G01*
G37*
D11*
X103070000Y-133270000D03*
X104340000Y-133270000D03*
X105600000Y-133270000D03*
X106880000Y-133270000D03*
X108150000Y-133270000D03*
X109420000Y-133270000D03*
X110690000Y-133270000D03*
X111960000Y-133270000D03*
X113230000Y-133270000D03*
X114500000Y-133270000D03*
X115770000Y-133270000D03*
X117030000Y-133270000D03*
X118310000Y-133270000D03*
X119580000Y-133270000D03*
X120850000Y-133270000D03*
X122120000Y-133270000D03*
X123390000Y-133270000D03*
X124660000Y-133270000D03*
X125920000Y-133270000D03*
X127200000Y-133270000D03*
X128460000Y-133270000D03*
X129740000Y-133270000D03*
X131010000Y-133270000D03*
X132280000Y-133270000D03*
X133550000Y-133270000D03*
X134820000Y-133270000D03*
X136090000Y-133270000D03*
X137360000Y-133270000D03*
X138630000Y-133270000D03*
X139900000Y-133270000D03*
X141170000Y-133270000D03*
X142440000Y-133270000D03*
X143710000Y-133270000D03*
X144980000Y-133270000D03*
X146250000Y-133270000D03*
X147520000Y-133270000D03*
X148790000Y-133270000D03*
X150060000Y-133270000D03*
X151330000Y-133270000D03*
X152600000Y-133270000D03*
X153870000Y-133270000D03*
X155140000Y-133270000D03*
X156410000Y-133270000D03*
X157680000Y-133270000D03*
X158950000Y-133270000D03*
X160220000Y-133270000D03*
X161490000Y-133270000D03*
X162760000Y-133270000D03*
X164030000Y-133270000D03*
X167840000Y-133270000D03*
X169110000Y-133270000D03*
X170380000Y-133270000D03*
X171650000Y-133270000D03*
X172920000Y-133270000D03*
X174190000Y-133270000D03*
X175460000Y-133270000D03*
X176730000Y-133270000D03*
X178000000Y-133270000D03*
X179270000Y-133270000D03*
X180530000Y-133270000D03*
D12*
X104340000Y-135930000D03*
X105600000Y-135930000D03*
X106880000Y-135930000D03*
X108150000Y-135930000D03*
X109420000Y-135930000D03*
X110690000Y-135930000D03*
X111960000Y-135930000D03*
X113230000Y-135930000D03*
X114500000Y-135930000D03*
X115770000Y-135930000D03*
X117030000Y-135930000D03*
X118310000Y-135930000D03*
X119580000Y-135930000D03*
X120850000Y-135930000D03*
X122120000Y-135930000D03*
X123390000Y-135930000D03*
X124660000Y-135930000D03*
X125920000Y-135930000D03*
X127200000Y-135930000D03*
X128460000Y-135930000D03*
X129740000Y-135930000D03*
X131010000Y-135930000D03*
X132280000Y-135930000D03*
X133550000Y-135930000D03*
X134820000Y-135930000D03*
X136090000Y-135930000D03*
X137360000Y-135930000D03*
X138630000Y-135930000D03*
X139900000Y-135930000D03*
X141170000Y-135930000D03*
X142440000Y-135930000D03*
X143710000Y-135930000D03*
X144980000Y-135930000D03*
X146250000Y-135930000D03*
X147520000Y-135930000D03*
X148790000Y-135930000D03*
X150060000Y-135930000D03*
X151330000Y-135930000D03*
X152600000Y-135930000D03*
X153870000Y-135930000D03*
X155140000Y-135930000D03*
X156410000Y-135930000D03*
X157680000Y-135930000D03*
X158950000Y-135930000D03*
X160220000Y-135930000D03*
X161490000Y-135930000D03*
X162760000Y-135930000D03*
X164030000Y-135930000D03*
X167840000Y-135930000D03*
X169110000Y-135930000D03*
X170380000Y-135930000D03*
X171650000Y-135930000D03*
X172920000Y-135930000D03*
X174190000Y-135930000D03*
X175460000Y-135930000D03*
X176730000Y-135930000D03*
X178000000Y-135930000D03*
X179270000Y-135930000D03*
X180530000Y-135930000D03*
X103070000Y-135930000D03*
G36*
G01*
X170327500Y-69060000D02*
X169852500Y-69060000D01*
G75*
G02*
X169615000Y-68822500I0J237500D01*
G01*
X169615000Y-68247500D01*
G75*
G02*
X169852500Y-68010000I237500J0D01*
G01*
X170327500Y-68010000D01*
G75*
G02*
X170565000Y-68247500I0J-237500D01*
G01*
X170565000Y-68822500D01*
G75*
G02*
X170327500Y-69060000I-237500J0D01*
G01*
G37*
G36*
G01*
X170327500Y-67310000D02*
X169852500Y-67310000D01*
G75*
G02*
X169615000Y-67072500I0J237500D01*
G01*
X169615000Y-66497500D01*
G75*
G02*
X169852500Y-66260000I237500J0D01*
G01*
X170327500Y-66260000D01*
G75*
G02*
X170565000Y-66497500I0J-237500D01*
G01*
X170565000Y-67072500D01*
G75*
G02*
X170327500Y-67310000I-237500J0D01*
G01*
G37*
G36*
G01*
X166527500Y-67310000D02*
X166052500Y-67310000D01*
G75*
G02*
X165815000Y-67072500I0J237500D01*
G01*
X165815000Y-66497500D01*
G75*
G02*
X166052500Y-66260000I237500J0D01*
G01*
X166527500Y-66260000D01*
G75*
G02*
X166765000Y-66497500I0J-237500D01*
G01*
X166765000Y-67072500D01*
G75*
G02*
X166527500Y-67310000I-237500J0D01*
G01*
G37*
G36*
G01*
X166527500Y-69060000D02*
X166052500Y-69060000D01*
G75*
G02*
X165815000Y-68822500I0J237500D01*
G01*
X165815000Y-68247500D01*
G75*
G02*
X166052500Y-68010000I237500J0D01*
G01*
X166527500Y-68010000D01*
G75*
G02*
X166765000Y-68247500I0J-237500D01*
G01*
X166765000Y-68822500D01*
G75*
G02*
X166527500Y-69060000I-237500J0D01*
G01*
G37*
G36*
G01*
X162727500Y-69060000D02*
X162252500Y-69060000D01*
G75*
G02*
X162015000Y-68822500I0J237500D01*
G01*
X162015000Y-68247500D01*
G75*
G02*
X162252500Y-68010000I237500J0D01*
G01*
X162727500Y-68010000D01*
G75*
G02*
X162965000Y-68247500I0J-237500D01*
G01*
X162965000Y-68822500D01*
G75*
G02*
X162727500Y-69060000I-237500J0D01*
G01*
G37*
G36*
G01*
X162727500Y-67310000D02*
X162252500Y-67310000D01*
G75*
G02*
X162015000Y-67072500I0J237500D01*
G01*
X162015000Y-66497500D01*
G75*
G02*
X162252500Y-66260000I237500J0D01*
G01*
X162727500Y-66260000D01*
G75*
G02*
X162965000Y-66497500I0J-237500D01*
G01*
X162965000Y-67072500D01*
G75*
G02*
X162727500Y-67310000I-237500J0D01*
G01*
G37*
G36*
G01*
X158927500Y-67310000D02*
X158452500Y-67310000D01*
G75*
G02*
X158215000Y-67072500I0J237500D01*
G01*
X158215000Y-66497500D01*
G75*
G02*
X158452500Y-66260000I237500J0D01*
G01*
X158927500Y-66260000D01*
G75*
G02*
X159165000Y-66497500I0J-237500D01*
G01*
X159165000Y-67072500D01*
G75*
G02*
X158927500Y-67310000I-237500J0D01*
G01*
G37*
G36*
G01*
X158927500Y-69060000D02*
X158452500Y-69060000D01*
G75*
G02*
X158215000Y-68822500I0J237500D01*
G01*
X158215000Y-68247500D01*
G75*
G02*
X158452500Y-68010000I237500J0D01*
G01*
X158927500Y-68010000D01*
G75*
G02*
X159165000Y-68247500I0J-237500D01*
G01*
X159165000Y-68822500D01*
G75*
G02*
X158927500Y-69060000I-237500J0D01*
G01*
G37*
D10*
X127900000Y-68250000D03*
X129700000Y-68250000D03*
X127900000Y-71750000D03*
X129700000Y-71750000D03*
X127900000Y-68750000D03*
X127900000Y-69250000D03*
X127900000Y-69750000D03*
X127900000Y-70250000D03*
X127900000Y-70750000D03*
X127900000Y-71250000D03*
X129700000Y-68750000D03*
X129700000Y-69250000D03*
X129700000Y-69750000D03*
X129700000Y-70750000D03*
X129700000Y-70250000D03*
X129700000Y-71250000D03*
G36*
G01*
X179125000Y-87035000D02*
X179125000Y-86735000D01*
G75*
G02*
X179275000Y-86585000I150000J0D01*
G01*
X181025000Y-86585000D01*
G75*
G02*
X181175000Y-86735000I0J-150000D01*
G01*
X181175000Y-87035000D01*
G75*
G02*
X181025000Y-87185000I-150000J0D01*
G01*
X179275000Y-87185000D01*
G75*
G02*
X179125000Y-87035000I0J150000D01*
G01*
G37*
G36*
G01*
X179125000Y-88305000D02*
X179125000Y-88005000D01*
G75*
G02*
X179275000Y-87855000I150000J0D01*
G01*
X181025000Y-87855000D01*
G75*
G02*
X181175000Y-88005000I0J-150000D01*
G01*
X181175000Y-88305000D01*
G75*
G02*
X181025000Y-88455000I-150000J0D01*
G01*
X179275000Y-88455000D01*
G75*
G02*
X179125000Y-88305000I0J150000D01*
G01*
G37*
G36*
G01*
X179125000Y-89575000D02*
X179125000Y-89275000D01*
G75*
G02*
X179275000Y-89125000I150000J0D01*
G01*
X181025000Y-89125000D01*
G75*
G02*
X181175000Y-89275000I0J-150000D01*
G01*
X181175000Y-89575000D01*
G75*
G02*
X181025000Y-89725000I-150000J0D01*
G01*
X179275000Y-89725000D01*
G75*
G02*
X179125000Y-89575000I0J150000D01*
G01*
G37*
G36*
G01*
X179125000Y-90845000D02*
X179125000Y-90545000D01*
G75*
G02*
X179275000Y-90395000I150000J0D01*
G01*
X181025000Y-90395000D01*
G75*
G02*
X181175000Y-90545000I0J-150000D01*
G01*
X181175000Y-90845000D01*
G75*
G02*
X181025000Y-90995000I-150000J0D01*
G01*
X179275000Y-90995000D01*
G75*
G02*
X179125000Y-90845000I0J150000D01*
G01*
G37*
G36*
G01*
X179125000Y-92115000D02*
X179125000Y-91815000D01*
G75*
G02*
X179275000Y-91665000I150000J0D01*
G01*
X181025000Y-91665000D01*
G75*
G02*
X181175000Y-91815000I0J-150000D01*
G01*
X181175000Y-92115000D01*
G75*
G02*
X181025000Y-92265000I-150000J0D01*
G01*
X179275000Y-92265000D01*
G75*
G02*
X179125000Y-92115000I0J150000D01*
G01*
G37*
G36*
G01*
X179125000Y-93385000D02*
X179125000Y-93085000D01*
G75*
G02*
X179275000Y-92935000I150000J0D01*
G01*
X181025000Y-92935000D01*
G75*
G02*
X181175000Y-93085000I0J-150000D01*
G01*
X181175000Y-93385000D01*
G75*
G02*
X181025000Y-93535000I-150000J0D01*
G01*
X179275000Y-93535000D01*
G75*
G02*
X179125000Y-93385000I0J150000D01*
G01*
G37*
G36*
G01*
X179125000Y-94655000D02*
X179125000Y-94355000D01*
G75*
G02*
X179275000Y-94205000I150000J0D01*
G01*
X181025000Y-94205000D01*
G75*
G02*
X181175000Y-94355000I0J-150000D01*
G01*
X181175000Y-94655000D01*
G75*
G02*
X181025000Y-94805000I-150000J0D01*
G01*
X179275000Y-94805000D01*
G75*
G02*
X179125000Y-94655000I0J150000D01*
G01*
G37*
G36*
G01*
X179125000Y-95925000D02*
X179125000Y-95625000D01*
G75*
G02*
X179275000Y-95475000I150000J0D01*
G01*
X181025000Y-95475000D01*
G75*
G02*
X181175000Y-95625000I0J-150000D01*
G01*
X181175000Y-95925000D01*
G75*
G02*
X181025000Y-96075000I-150000J0D01*
G01*
X179275000Y-96075000D01*
G75*
G02*
X179125000Y-95925000I0J150000D01*
G01*
G37*
G36*
G01*
X179125000Y-97195000D02*
X179125000Y-96895000D01*
G75*
G02*
X179275000Y-96745000I150000J0D01*
G01*
X181025000Y-96745000D01*
G75*
G02*
X181175000Y-96895000I0J-150000D01*
G01*
X181175000Y-97195000D01*
G75*
G02*
X181025000Y-97345000I-150000J0D01*
G01*
X179275000Y-97345000D01*
G75*
G02*
X179125000Y-97195000I0J150000D01*
G01*
G37*
G36*
G01*
X179125000Y-98465000D02*
X179125000Y-98165000D01*
G75*
G02*
X179275000Y-98015000I150000J0D01*
G01*
X181025000Y-98015000D01*
G75*
G02*
X181175000Y-98165000I0J-150000D01*
G01*
X181175000Y-98465000D01*
G75*
G02*
X181025000Y-98615000I-150000J0D01*
G01*
X179275000Y-98615000D01*
G75*
G02*
X179125000Y-98465000I0J150000D01*
G01*
G37*
G36*
G01*
X188425000Y-98465000D02*
X188425000Y-98165000D01*
G75*
G02*
X188575000Y-98015000I150000J0D01*
G01*
X190325000Y-98015000D01*
G75*
G02*
X190475000Y-98165000I0J-150000D01*
G01*
X190475000Y-98465000D01*
G75*
G02*
X190325000Y-98615000I-150000J0D01*
G01*
X188575000Y-98615000D01*
G75*
G02*
X188425000Y-98465000I0J150000D01*
G01*
G37*
G36*
G01*
X188425000Y-97195000D02*
X188425000Y-96895000D01*
G75*
G02*
X188575000Y-96745000I150000J0D01*
G01*
X190325000Y-96745000D01*
G75*
G02*
X190475000Y-96895000I0J-150000D01*
G01*
X190475000Y-97195000D01*
G75*
G02*
X190325000Y-97345000I-150000J0D01*
G01*
X188575000Y-97345000D01*
G75*
G02*
X188425000Y-97195000I0J150000D01*
G01*
G37*
G36*
G01*
X188425000Y-95925000D02*
X188425000Y-95625000D01*
G75*
G02*
X188575000Y-95475000I150000J0D01*
G01*
X190325000Y-95475000D01*
G75*
G02*
X190475000Y-95625000I0J-150000D01*
G01*
X190475000Y-95925000D01*
G75*
G02*
X190325000Y-96075000I-150000J0D01*
G01*
X188575000Y-96075000D01*
G75*
G02*
X188425000Y-95925000I0J150000D01*
G01*
G37*
G36*
G01*
X188425000Y-94655000D02*
X188425000Y-94355000D01*
G75*
G02*
X188575000Y-94205000I150000J0D01*
G01*
X190325000Y-94205000D01*
G75*
G02*
X190475000Y-94355000I0J-150000D01*
G01*
X190475000Y-94655000D01*
G75*
G02*
X190325000Y-94805000I-150000J0D01*
G01*
X188575000Y-94805000D01*
G75*
G02*
X188425000Y-94655000I0J150000D01*
G01*
G37*
G36*
G01*
X188425000Y-93385000D02*
X188425000Y-93085000D01*
G75*
G02*
X188575000Y-92935000I150000J0D01*
G01*
X190325000Y-92935000D01*
G75*
G02*
X190475000Y-93085000I0J-150000D01*
G01*
X190475000Y-93385000D01*
G75*
G02*
X190325000Y-93535000I-150000J0D01*
G01*
X188575000Y-93535000D01*
G75*
G02*
X188425000Y-93385000I0J150000D01*
G01*
G37*
G36*
G01*
X188425000Y-92115000D02*
X188425000Y-91815000D01*
G75*
G02*
X188575000Y-91665000I150000J0D01*
G01*
X190325000Y-91665000D01*
G75*
G02*
X190475000Y-91815000I0J-150000D01*
G01*
X190475000Y-92115000D01*
G75*
G02*
X190325000Y-92265000I-150000J0D01*
G01*
X188575000Y-92265000D01*
G75*
G02*
X188425000Y-92115000I0J150000D01*
G01*
G37*
G36*
G01*
X188425000Y-90845000D02*
X188425000Y-90545000D01*
G75*
G02*
X188575000Y-90395000I150000J0D01*
G01*
X190325000Y-90395000D01*
G75*
G02*
X190475000Y-90545000I0J-150000D01*
G01*
X190475000Y-90845000D01*
G75*
G02*
X190325000Y-90995000I-150000J0D01*
G01*
X188575000Y-90995000D01*
G75*
G02*
X188425000Y-90845000I0J150000D01*
G01*
G37*
G36*
G01*
X188425000Y-89575000D02*
X188425000Y-89275000D01*
G75*
G02*
X188575000Y-89125000I150000J0D01*
G01*
X190325000Y-89125000D01*
G75*
G02*
X190475000Y-89275000I0J-150000D01*
G01*
X190475000Y-89575000D01*
G75*
G02*
X190325000Y-89725000I-150000J0D01*
G01*
X188575000Y-89725000D01*
G75*
G02*
X188425000Y-89575000I0J150000D01*
G01*
G37*
G36*
G01*
X188425000Y-88305000D02*
X188425000Y-88005000D01*
G75*
G02*
X188575000Y-87855000I150000J0D01*
G01*
X190325000Y-87855000D01*
G75*
G02*
X190475000Y-88005000I0J-150000D01*
G01*
X190475000Y-88305000D01*
G75*
G02*
X190325000Y-88455000I-150000J0D01*
G01*
X188575000Y-88455000D01*
G75*
G02*
X188425000Y-88305000I0J150000D01*
G01*
G37*
G36*
G01*
X188425000Y-87035000D02*
X188425000Y-86735000D01*
G75*
G02*
X188575000Y-86585000I150000J0D01*
G01*
X190325000Y-86585000D01*
G75*
G02*
X190475000Y-86735000I0J-150000D01*
G01*
X190475000Y-87035000D01*
G75*
G02*
X190325000Y-87185000I-150000J0D01*
G01*
X188575000Y-87185000D01*
G75*
G02*
X188425000Y-87035000I0J150000D01*
G01*
G37*
G36*
G01*
X188225000Y-104035000D02*
X188225000Y-103735000D01*
G75*
G02*
X188375000Y-103585000I150000J0D01*
G01*
X190125000Y-103585000D01*
G75*
G02*
X190275000Y-103735000I0J-150000D01*
G01*
X190275000Y-104035000D01*
G75*
G02*
X190125000Y-104185000I-150000J0D01*
G01*
X188375000Y-104185000D01*
G75*
G02*
X188225000Y-104035000I0J150000D01*
G01*
G37*
G36*
G01*
X188225000Y-105305000D02*
X188225000Y-105005000D01*
G75*
G02*
X188375000Y-104855000I150000J0D01*
G01*
X190125000Y-104855000D01*
G75*
G02*
X190275000Y-105005000I0J-150000D01*
G01*
X190275000Y-105305000D01*
G75*
G02*
X190125000Y-105455000I-150000J0D01*
G01*
X188375000Y-105455000D01*
G75*
G02*
X188225000Y-105305000I0J150000D01*
G01*
G37*
G36*
G01*
X188225000Y-106575000D02*
X188225000Y-106275000D01*
G75*
G02*
X188375000Y-106125000I150000J0D01*
G01*
X190125000Y-106125000D01*
G75*
G02*
X190275000Y-106275000I0J-150000D01*
G01*
X190275000Y-106575000D01*
G75*
G02*
X190125000Y-106725000I-150000J0D01*
G01*
X188375000Y-106725000D01*
G75*
G02*
X188225000Y-106575000I0J150000D01*
G01*
G37*
G36*
G01*
X188225000Y-107845000D02*
X188225000Y-107545000D01*
G75*
G02*
X188375000Y-107395000I150000J0D01*
G01*
X190125000Y-107395000D01*
G75*
G02*
X190275000Y-107545000I0J-150000D01*
G01*
X190275000Y-107845000D01*
G75*
G02*
X190125000Y-107995000I-150000J0D01*
G01*
X188375000Y-107995000D01*
G75*
G02*
X188225000Y-107845000I0J150000D01*
G01*
G37*
G36*
G01*
X188225000Y-109115000D02*
X188225000Y-108815000D01*
G75*
G02*
X188375000Y-108665000I150000J0D01*
G01*
X190125000Y-108665000D01*
G75*
G02*
X190275000Y-108815000I0J-150000D01*
G01*
X190275000Y-109115000D01*
G75*
G02*
X190125000Y-109265000I-150000J0D01*
G01*
X188375000Y-109265000D01*
G75*
G02*
X188225000Y-109115000I0J150000D01*
G01*
G37*
G36*
G01*
X188225000Y-110385000D02*
X188225000Y-110085000D01*
G75*
G02*
X188375000Y-109935000I150000J0D01*
G01*
X190125000Y-109935000D01*
G75*
G02*
X190275000Y-110085000I0J-150000D01*
G01*
X190275000Y-110385000D01*
G75*
G02*
X190125000Y-110535000I-150000J0D01*
G01*
X188375000Y-110535000D01*
G75*
G02*
X188225000Y-110385000I0J150000D01*
G01*
G37*
G36*
G01*
X188225000Y-111655000D02*
X188225000Y-111355000D01*
G75*
G02*
X188375000Y-111205000I150000J0D01*
G01*
X190125000Y-111205000D01*
G75*
G02*
X190275000Y-111355000I0J-150000D01*
G01*
X190275000Y-111655000D01*
G75*
G02*
X190125000Y-111805000I-150000J0D01*
G01*
X188375000Y-111805000D01*
G75*
G02*
X188225000Y-111655000I0J150000D01*
G01*
G37*
G36*
G01*
X188225000Y-112925000D02*
X188225000Y-112625000D01*
G75*
G02*
X188375000Y-112475000I150000J0D01*
G01*
X190125000Y-112475000D01*
G75*
G02*
X190275000Y-112625000I0J-150000D01*
G01*
X190275000Y-112925000D01*
G75*
G02*
X190125000Y-113075000I-150000J0D01*
G01*
X188375000Y-113075000D01*
G75*
G02*
X188225000Y-112925000I0J150000D01*
G01*
G37*
G36*
G01*
X188225000Y-114195000D02*
X188225000Y-113895000D01*
G75*
G02*
X188375000Y-113745000I150000J0D01*
G01*
X190125000Y-113745000D01*
G75*
G02*
X190275000Y-113895000I0J-150000D01*
G01*
X190275000Y-114195000D01*
G75*
G02*
X190125000Y-114345000I-150000J0D01*
G01*
X188375000Y-114345000D01*
G75*
G02*
X188225000Y-114195000I0J150000D01*
G01*
G37*
G36*
G01*
X188225000Y-115465000D02*
X188225000Y-115165000D01*
G75*
G02*
X188375000Y-115015000I150000J0D01*
G01*
X190125000Y-115015000D01*
G75*
G02*
X190275000Y-115165000I0J-150000D01*
G01*
X190275000Y-115465000D01*
G75*
G02*
X190125000Y-115615000I-150000J0D01*
G01*
X188375000Y-115615000D01*
G75*
G02*
X188225000Y-115465000I0J150000D01*
G01*
G37*
G36*
G01*
X178925000Y-115465000D02*
X178925000Y-115165000D01*
G75*
G02*
X179075000Y-115015000I150000J0D01*
G01*
X180825000Y-115015000D01*
G75*
G02*
X180975000Y-115165000I0J-150000D01*
G01*
X180975000Y-115465000D01*
G75*
G02*
X180825000Y-115615000I-150000J0D01*
G01*
X179075000Y-115615000D01*
G75*
G02*
X178925000Y-115465000I0J150000D01*
G01*
G37*
G36*
G01*
X178925000Y-114195000D02*
X178925000Y-113895000D01*
G75*
G02*
X179075000Y-113745000I150000J0D01*
G01*
X180825000Y-113745000D01*
G75*
G02*
X180975000Y-113895000I0J-150000D01*
G01*
X180975000Y-114195000D01*
G75*
G02*
X180825000Y-114345000I-150000J0D01*
G01*
X179075000Y-114345000D01*
G75*
G02*
X178925000Y-114195000I0J150000D01*
G01*
G37*
G36*
G01*
X178925000Y-112925000D02*
X178925000Y-112625000D01*
G75*
G02*
X179075000Y-112475000I150000J0D01*
G01*
X180825000Y-112475000D01*
G75*
G02*
X180975000Y-112625000I0J-150000D01*
G01*
X180975000Y-112925000D01*
G75*
G02*
X180825000Y-113075000I-150000J0D01*
G01*
X179075000Y-113075000D01*
G75*
G02*
X178925000Y-112925000I0J150000D01*
G01*
G37*
G36*
G01*
X178925000Y-111655000D02*
X178925000Y-111355000D01*
G75*
G02*
X179075000Y-111205000I150000J0D01*
G01*
X180825000Y-111205000D01*
G75*
G02*
X180975000Y-111355000I0J-150000D01*
G01*
X180975000Y-111655000D01*
G75*
G02*
X180825000Y-111805000I-150000J0D01*
G01*
X179075000Y-111805000D01*
G75*
G02*
X178925000Y-111655000I0J150000D01*
G01*
G37*
G36*
G01*
X178925000Y-110385000D02*
X178925000Y-110085000D01*
G75*
G02*
X179075000Y-109935000I150000J0D01*
G01*
X180825000Y-109935000D01*
G75*
G02*
X180975000Y-110085000I0J-150000D01*
G01*
X180975000Y-110385000D01*
G75*
G02*
X180825000Y-110535000I-150000J0D01*
G01*
X179075000Y-110535000D01*
G75*
G02*
X178925000Y-110385000I0J150000D01*
G01*
G37*
G36*
G01*
X178925000Y-109115000D02*
X178925000Y-108815000D01*
G75*
G02*
X179075000Y-108665000I150000J0D01*
G01*
X180825000Y-108665000D01*
G75*
G02*
X180975000Y-108815000I0J-150000D01*
G01*
X180975000Y-109115000D01*
G75*
G02*
X180825000Y-109265000I-150000J0D01*
G01*
X179075000Y-109265000D01*
G75*
G02*
X178925000Y-109115000I0J150000D01*
G01*
G37*
G36*
G01*
X178925000Y-107845000D02*
X178925000Y-107545000D01*
G75*
G02*
X179075000Y-107395000I150000J0D01*
G01*
X180825000Y-107395000D01*
G75*
G02*
X180975000Y-107545000I0J-150000D01*
G01*
X180975000Y-107845000D01*
G75*
G02*
X180825000Y-107995000I-150000J0D01*
G01*
X179075000Y-107995000D01*
G75*
G02*
X178925000Y-107845000I0J150000D01*
G01*
G37*
G36*
G01*
X178925000Y-106575000D02*
X178925000Y-106275000D01*
G75*
G02*
X179075000Y-106125000I150000J0D01*
G01*
X180825000Y-106125000D01*
G75*
G02*
X180975000Y-106275000I0J-150000D01*
G01*
X180975000Y-106575000D01*
G75*
G02*
X180825000Y-106725000I-150000J0D01*
G01*
X179075000Y-106725000D01*
G75*
G02*
X178925000Y-106575000I0J150000D01*
G01*
G37*
G36*
G01*
X178925000Y-105305000D02*
X178925000Y-105005000D01*
G75*
G02*
X179075000Y-104855000I150000J0D01*
G01*
X180825000Y-104855000D01*
G75*
G02*
X180975000Y-105005000I0J-150000D01*
G01*
X180975000Y-105305000D01*
G75*
G02*
X180825000Y-105455000I-150000J0D01*
G01*
X179075000Y-105455000D01*
G75*
G02*
X178925000Y-105305000I0J150000D01*
G01*
G37*
G36*
G01*
X178925000Y-104035000D02*
X178925000Y-103735000D01*
G75*
G02*
X179075000Y-103585000I150000J0D01*
G01*
X180825000Y-103585000D01*
G75*
G02*
X180975000Y-103735000I0J-150000D01*
G01*
X180975000Y-104035000D01*
G75*
G02*
X180825000Y-104185000I-150000J0D01*
G01*
X179075000Y-104185000D01*
G75*
G02*
X178925000Y-104035000I0J150000D01*
G01*
G37*
G36*
G01*
X159825000Y-104035000D02*
X159825000Y-103735000D01*
G75*
G02*
X159975000Y-103585000I150000J0D01*
G01*
X161725000Y-103585000D01*
G75*
G02*
X161875000Y-103735000I0J-150000D01*
G01*
X161875000Y-104035000D01*
G75*
G02*
X161725000Y-104185000I-150000J0D01*
G01*
X159975000Y-104185000D01*
G75*
G02*
X159825000Y-104035000I0J150000D01*
G01*
G37*
G36*
G01*
X159825000Y-105305000D02*
X159825000Y-105005000D01*
G75*
G02*
X159975000Y-104855000I150000J0D01*
G01*
X161725000Y-104855000D01*
G75*
G02*
X161875000Y-105005000I0J-150000D01*
G01*
X161875000Y-105305000D01*
G75*
G02*
X161725000Y-105455000I-150000J0D01*
G01*
X159975000Y-105455000D01*
G75*
G02*
X159825000Y-105305000I0J150000D01*
G01*
G37*
G36*
G01*
X159825000Y-106575000D02*
X159825000Y-106275000D01*
G75*
G02*
X159975000Y-106125000I150000J0D01*
G01*
X161725000Y-106125000D01*
G75*
G02*
X161875000Y-106275000I0J-150000D01*
G01*
X161875000Y-106575000D01*
G75*
G02*
X161725000Y-106725000I-150000J0D01*
G01*
X159975000Y-106725000D01*
G75*
G02*
X159825000Y-106575000I0J150000D01*
G01*
G37*
G36*
G01*
X159825000Y-107845000D02*
X159825000Y-107545000D01*
G75*
G02*
X159975000Y-107395000I150000J0D01*
G01*
X161725000Y-107395000D01*
G75*
G02*
X161875000Y-107545000I0J-150000D01*
G01*
X161875000Y-107845000D01*
G75*
G02*
X161725000Y-107995000I-150000J0D01*
G01*
X159975000Y-107995000D01*
G75*
G02*
X159825000Y-107845000I0J150000D01*
G01*
G37*
G36*
G01*
X159825000Y-109115000D02*
X159825000Y-108815000D01*
G75*
G02*
X159975000Y-108665000I150000J0D01*
G01*
X161725000Y-108665000D01*
G75*
G02*
X161875000Y-108815000I0J-150000D01*
G01*
X161875000Y-109115000D01*
G75*
G02*
X161725000Y-109265000I-150000J0D01*
G01*
X159975000Y-109265000D01*
G75*
G02*
X159825000Y-109115000I0J150000D01*
G01*
G37*
G36*
G01*
X159825000Y-110385000D02*
X159825000Y-110085000D01*
G75*
G02*
X159975000Y-109935000I150000J0D01*
G01*
X161725000Y-109935000D01*
G75*
G02*
X161875000Y-110085000I0J-150000D01*
G01*
X161875000Y-110385000D01*
G75*
G02*
X161725000Y-110535000I-150000J0D01*
G01*
X159975000Y-110535000D01*
G75*
G02*
X159825000Y-110385000I0J150000D01*
G01*
G37*
G36*
G01*
X159825000Y-111655000D02*
X159825000Y-111355000D01*
G75*
G02*
X159975000Y-111205000I150000J0D01*
G01*
X161725000Y-111205000D01*
G75*
G02*
X161875000Y-111355000I0J-150000D01*
G01*
X161875000Y-111655000D01*
G75*
G02*
X161725000Y-111805000I-150000J0D01*
G01*
X159975000Y-111805000D01*
G75*
G02*
X159825000Y-111655000I0J150000D01*
G01*
G37*
G36*
G01*
X159825000Y-112925000D02*
X159825000Y-112625000D01*
G75*
G02*
X159975000Y-112475000I150000J0D01*
G01*
X161725000Y-112475000D01*
G75*
G02*
X161875000Y-112625000I0J-150000D01*
G01*
X161875000Y-112925000D01*
G75*
G02*
X161725000Y-113075000I-150000J0D01*
G01*
X159975000Y-113075000D01*
G75*
G02*
X159825000Y-112925000I0J150000D01*
G01*
G37*
G36*
G01*
X159825000Y-114195000D02*
X159825000Y-113895000D01*
G75*
G02*
X159975000Y-113745000I150000J0D01*
G01*
X161725000Y-113745000D01*
G75*
G02*
X161875000Y-113895000I0J-150000D01*
G01*
X161875000Y-114195000D01*
G75*
G02*
X161725000Y-114345000I-150000J0D01*
G01*
X159975000Y-114345000D01*
G75*
G02*
X159825000Y-114195000I0J150000D01*
G01*
G37*
G36*
G01*
X159825000Y-115465000D02*
X159825000Y-115165000D01*
G75*
G02*
X159975000Y-115015000I150000J0D01*
G01*
X161725000Y-115015000D01*
G75*
G02*
X161875000Y-115165000I0J-150000D01*
G01*
X161875000Y-115465000D01*
G75*
G02*
X161725000Y-115615000I-150000J0D01*
G01*
X159975000Y-115615000D01*
G75*
G02*
X159825000Y-115465000I0J150000D01*
G01*
G37*
G36*
G01*
X150525000Y-115465000D02*
X150525000Y-115165000D01*
G75*
G02*
X150675000Y-115015000I150000J0D01*
G01*
X152425000Y-115015000D01*
G75*
G02*
X152575000Y-115165000I0J-150000D01*
G01*
X152575000Y-115465000D01*
G75*
G02*
X152425000Y-115615000I-150000J0D01*
G01*
X150675000Y-115615000D01*
G75*
G02*
X150525000Y-115465000I0J150000D01*
G01*
G37*
G36*
G01*
X150525000Y-114195000D02*
X150525000Y-113895000D01*
G75*
G02*
X150675000Y-113745000I150000J0D01*
G01*
X152425000Y-113745000D01*
G75*
G02*
X152575000Y-113895000I0J-150000D01*
G01*
X152575000Y-114195000D01*
G75*
G02*
X152425000Y-114345000I-150000J0D01*
G01*
X150675000Y-114345000D01*
G75*
G02*
X150525000Y-114195000I0J150000D01*
G01*
G37*
G36*
G01*
X150525000Y-112925000D02*
X150525000Y-112625000D01*
G75*
G02*
X150675000Y-112475000I150000J0D01*
G01*
X152425000Y-112475000D01*
G75*
G02*
X152575000Y-112625000I0J-150000D01*
G01*
X152575000Y-112925000D01*
G75*
G02*
X152425000Y-113075000I-150000J0D01*
G01*
X150675000Y-113075000D01*
G75*
G02*
X150525000Y-112925000I0J150000D01*
G01*
G37*
G36*
G01*
X150525000Y-111655000D02*
X150525000Y-111355000D01*
G75*
G02*
X150675000Y-111205000I150000J0D01*
G01*
X152425000Y-111205000D01*
G75*
G02*
X152575000Y-111355000I0J-150000D01*
G01*
X152575000Y-111655000D01*
G75*
G02*
X152425000Y-111805000I-150000J0D01*
G01*
X150675000Y-111805000D01*
G75*
G02*
X150525000Y-111655000I0J150000D01*
G01*
G37*
G36*
G01*
X150525000Y-110385000D02*
X150525000Y-110085000D01*
G75*
G02*
X150675000Y-109935000I150000J0D01*
G01*
X152425000Y-109935000D01*
G75*
G02*
X152575000Y-110085000I0J-150000D01*
G01*
X152575000Y-110385000D01*
G75*
G02*
X152425000Y-110535000I-150000J0D01*
G01*
X150675000Y-110535000D01*
G75*
G02*
X150525000Y-110385000I0J150000D01*
G01*
G37*
G36*
G01*
X150525000Y-109115000D02*
X150525000Y-108815000D01*
G75*
G02*
X150675000Y-108665000I150000J0D01*
G01*
X152425000Y-108665000D01*
G75*
G02*
X152575000Y-108815000I0J-150000D01*
G01*
X152575000Y-109115000D01*
G75*
G02*
X152425000Y-109265000I-150000J0D01*
G01*
X150675000Y-109265000D01*
G75*
G02*
X150525000Y-109115000I0J150000D01*
G01*
G37*
G36*
G01*
X150525000Y-107845000D02*
X150525000Y-107545000D01*
G75*
G02*
X150675000Y-107395000I150000J0D01*
G01*
X152425000Y-107395000D01*
G75*
G02*
X152575000Y-107545000I0J-150000D01*
G01*
X152575000Y-107845000D01*
G75*
G02*
X152425000Y-107995000I-150000J0D01*
G01*
X150675000Y-107995000D01*
G75*
G02*
X150525000Y-107845000I0J150000D01*
G01*
G37*
G36*
G01*
X150525000Y-106575000D02*
X150525000Y-106275000D01*
G75*
G02*
X150675000Y-106125000I150000J0D01*
G01*
X152425000Y-106125000D01*
G75*
G02*
X152575000Y-106275000I0J-150000D01*
G01*
X152575000Y-106575000D01*
G75*
G02*
X152425000Y-106725000I-150000J0D01*
G01*
X150675000Y-106725000D01*
G75*
G02*
X150525000Y-106575000I0J150000D01*
G01*
G37*
G36*
G01*
X150525000Y-105305000D02*
X150525000Y-105005000D01*
G75*
G02*
X150675000Y-104855000I150000J0D01*
G01*
X152425000Y-104855000D01*
G75*
G02*
X152575000Y-105005000I0J-150000D01*
G01*
X152575000Y-105305000D01*
G75*
G02*
X152425000Y-105455000I-150000J0D01*
G01*
X150675000Y-105455000D01*
G75*
G02*
X150525000Y-105305000I0J150000D01*
G01*
G37*
G36*
G01*
X150525000Y-104035000D02*
X150525000Y-103735000D01*
G75*
G02*
X150675000Y-103585000I150000J0D01*
G01*
X152425000Y-103585000D01*
G75*
G02*
X152575000Y-103735000I0J-150000D01*
G01*
X152575000Y-104035000D01*
G75*
G02*
X152425000Y-104185000I-150000J0D01*
G01*
X150675000Y-104185000D01*
G75*
G02*
X150525000Y-104035000I0J150000D01*
G01*
G37*
G36*
G01*
X150525000Y-87035000D02*
X150525000Y-86735000D01*
G75*
G02*
X150675000Y-86585000I150000J0D01*
G01*
X152425000Y-86585000D01*
G75*
G02*
X152575000Y-86735000I0J-150000D01*
G01*
X152575000Y-87035000D01*
G75*
G02*
X152425000Y-87185000I-150000J0D01*
G01*
X150675000Y-87185000D01*
G75*
G02*
X150525000Y-87035000I0J150000D01*
G01*
G37*
G36*
G01*
X150525000Y-88305000D02*
X150525000Y-88005000D01*
G75*
G02*
X150675000Y-87855000I150000J0D01*
G01*
X152425000Y-87855000D01*
G75*
G02*
X152575000Y-88005000I0J-150000D01*
G01*
X152575000Y-88305000D01*
G75*
G02*
X152425000Y-88455000I-150000J0D01*
G01*
X150675000Y-88455000D01*
G75*
G02*
X150525000Y-88305000I0J150000D01*
G01*
G37*
G36*
G01*
X150525000Y-89575000D02*
X150525000Y-89275000D01*
G75*
G02*
X150675000Y-89125000I150000J0D01*
G01*
X152425000Y-89125000D01*
G75*
G02*
X152575000Y-89275000I0J-150000D01*
G01*
X152575000Y-89575000D01*
G75*
G02*
X152425000Y-89725000I-150000J0D01*
G01*
X150675000Y-89725000D01*
G75*
G02*
X150525000Y-89575000I0J150000D01*
G01*
G37*
G36*
G01*
X150525000Y-90845000D02*
X150525000Y-90545000D01*
G75*
G02*
X150675000Y-90395000I150000J0D01*
G01*
X152425000Y-90395000D01*
G75*
G02*
X152575000Y-90545000I0J-150000D01*
G01*
X152575000Y-90845000D01*
G75*
G02*
X152425000Y-90995000I-150000J0D01*
G01*
X150675000Y-90995000D01*
G75*
G02*
X150525000Y-90845000I0J150000D01*
G01*
G37*
G36*
G01*
X150525000Y-92115000D02*
X150525000Y-91815000D01*
G75*
G02*
X150675000Y-91665000I150000J0D01*
G01*
X152425000Y-91665000D01*
G75*
G02*
X152575000Y-91815000I0J-150000D01*
G01*
X152575000Y-92115000D01*
G75*
G02*
X152425000Y-92265000I-150000J0D01*
G01*
X150675000Y-92265000D01*
G75*
G02*
X150525000Y-92115000I0J150000D01*
G01*
G37*
G36*
G01*
X150525000Y-93385000D02*
X150525000Y-93085000D01*
G75*
G02*
X150675000Y-92935000I150000J0D01*
G01*
X152425000Y-92935000D01*
G75*
G02*
X152575000Y-93085000I0J-150000D01*
G01*
X152575000Y-93385000D01*
G75*
G02*
X152425000Y-93535000I-150000J0D01*
G01*
X150675000Y-93535000D01*
G75*
G02*
X150525000Y-93385000I0J150000D01*
G01*
G37*
G36*
G01*
X150525000Y-94655000D02*
X150525000Y-94355000D01*
G75*
G02*
X150675000Y-94205000I150000J0D01*
G01*
X152425000Y-94205000D01*
G75*
G02*
X152575000Y-94355000I0J-150000D01*
G01*
X152575000Y-94655000D01*
G75*
G02*
X152425000Y-94805000I-150000J0D01*
G01*
X150675000Y-94805000D01*
G75*
G02*
X150525000Y-94655000I0J150000D01*
G01*
G37*
G36*
G01*
X150525000Y-95925000D02*
X150525000Y-95625000D01*
G75*
G02*
X150675000Y-95475000I150000J0D01*
G01*
X152425000Y-95475000D01*
G75*
G02*
X152575000Y-95625000I0J-150000D01*
G01*
X152575000Y-95925000D01*
G75*
G02*
X152425000Y-96075000I-150000J0D01*
G01*
X150675000Y-96075000D01*
G75*
G02*
X150525000Y-95925000I0J150000D01*
G01*
G37*
G36*
G01*
X150525000Y-97195000D02*
X150525000Y-96895000D01*
G75*
G02*
X150675000Y-96745000I150000J0D01*
G01*
X152425000Y-96745000D01*
G75*
G02*
X152575000Y-96895000I0J-150000D01*
G01*
X152575000Y-97195000D01*
G75*
G02*
X152425000Y-97345000I-150000J0D01*
G01*
X150675000Y-97345000D01*
G75*
G02*
X150525000Y-97195000I0J150000D01*
G01*
G37*
G36*
G01*
X150525000Y-98465000D02*
X150525000Y-98165000D01*
G75*
G02*
X150675000Y-98015000I150000J0D01*
G01*
X152425000Y-98015000D01*
G75*
G02*
X152575000Y-98165000I0J-150000D01*
G01*
X152575000Y-98465000D01*
G75*
G02*
X152425000Y-98615000I-150000J0D01*
G01*
X150675000Y-98615000D01*
G75*
G02*
X150525000Y-98465000I0J150000D01*
G01*
G37*
G36*
G01*
X159825000Y-98465000D02*
X159825000Y-98165000D01*
G75*
G02*
X159975000Y-98015000I150000J0D01*
G01*
X161725000Y-98015000D01*
G75*
G02*
X161875000Y-98165000I0J-150000D01*
G01*
X161875000Y-98465000D01*
G75*
G02*
X161725000Y-98615000I-150000J0D01*
G01*
X159975000Y-98615000D01*
G75*
G02*
X159825000Y-98465000I0J150000D01*
G01*
G37*
G36*
G01*
X159825000Y-97195000D02*
X159825000Y-96895000D01*
G75*
G02*
X159975000Y-96745000I150000J0D01*
G01*
X161725000Y-96745000D01*
G75*
G02*
X161875000Y-96895000I0J-150000D01*
G01*
X161875000Y-97195000D01*
G75*
G02*
X161725000Y-97345000I-150000J0D01*
G01*
X159975000Y-97345000D01*
G75*
G02*
X159825000Y-97195000I0J150000D01*
G01*
G37*
G36*
G01*
X159825000Y-95925000D02*
X159825000Y-95625000D01*
G75*
G02*
X159975000Y-95475000I150000J0D01*
G01*
X161725000Y-95475000D01*
G75*
G02*
X161875000Y-95625000I0J-150000D01*
G01*
X161875000Y-95925000D01*
G75*
G02*
X161725000Y-96075000I-150000J0D01*
G01*
X159975000Y-96075000D01*
G75*
G02*
X159825000Y-95925000I0J150000D01*
G01*
G37*
G36*
G01*
X159825000Y-94655000D02*
X159825000Y-94355000D01*
G75*
G02*
X159975000Y-94205000I150000J0D01*
G01*
X161725000Y-94205000D01*
G75*
G02*
X161875000Y-94355000I0J-150000D01*
G01*
X161875000Y-94655000D01*
G75*
G02*
X161725000Y-94805000I-150000J0D01*
G01*
X159975000Y-94805000D01*
G75*
G02*
X159825000Y-94655000I0J150000D01*
G01*
G37*
G36*
G01*
X159825000Y-93385000D02*
X159825000Y-93085000D01*
G75*
G02*
X159975000Y-92935000I150000J0D01*
G01*
X161725000Y-92935000D01*
G75*
G02*
X161875000Y-93085000I0J-150000D01*
G01*
X161875000Y-93385000D01*
G75*
G02*
X161725000Y-93535000I-150000J0D01*
G01*
X159975000Y-93535000D01*
G75*
G02*
X159825000Y-93385000I0J150000D01*
G01*
G37*
G36*
G01*
X159825000Y-92115000D02*
X159825000Y-91815000D01*
G75*
G02*
X159975000Y-91665000I150000J0D01*
G01*
X161725000Y-91665000D01*
G75*
G02*
X161875000Y-91815000I0J-150000D01*
G01*
X161875000Y-92115000D01*
G75*
G02*
X161725000Y-92265000I-150000J0D01*
G01*
X159975000Y-92265000D01*
G75*
G02*
X159825000Y-92115000I0J150000D01*
G01*
G37*
G36*
G01*
X159825000Y-90845000D02*
X159825000Y-90545000D01*
G75*
G02*
X159975000Y-90395000I150000J0D01*
G01*
X161725000Y-90395000D01*
G75*
G02*
X161875000Y-90545000I0J-150000D01*
G01*
X161875000Y-90845000D01*
G75*
G02*
X161725000Y-90995000I-150000J0D01*
G01*
X159975000Y-90995000D01*
G75*
G02*
X159825000Y-90845000I0J150000D01*
G01*
G37*
G36*
G01*
X159825000Y-89575000D02*
X159825000Y-89275000D01*
G75*
G02*
X159975000Y-89125000I150000J0D01*
G01*
X161725000Y-89125000D01*
G75*
G02*
X161875000Y-89275000I0J-150000D01*
G01*
X161875000Y-89575000D01*
G75*
G02*
X161725000Y-89725000I-150000J0D01*
G01*
X159975000Y-89725000D01*
G75*
G02*
X159825000Y-89575000I0J150000D01*
G01*
G37*
G36*
G01*
X159825000Y-88305000D02*
X159825000Y-88005000D01*
G75*
G02*
X159975000Y-87855000I150000J0D01*
G01*
X161725000Y-87855000D01*
G75*
G02*
X161875000Y-88005000I0J-150000D01*
G01*
X161875000Y-88305000D01*
G75*
G02*
X161725000Y-88455000I-150000J0D01*
G01*
X159975000Y-88455000D01*
G75*
G02*
X159825000Y-88305000I0J150000D01*
G01*
G37*
G36*
G01*
X159825000Y-87035000D02*
X159825000Y-86735000D01*
G75*
G02*
X159975000Y-86585000I150000J0D01*
G01*
X161725000Y-86585000D01*
G75*
G02*
X161875000Y-86735000I0J-150000D01*
G01*
X161875000Y-87035000D01*
G75*
G02*
X161725000Y-87185000I-150000J0D01*
G01*
X159975000Y-87185000D01*
G75*
G02*
X159825000Y-87035000I0J150000D01*
G01*
G37*
G36*
G01*
X131025000Y-104035000D02*
X131025000Y-103735000D01*
G75*
G02*
X131175000Y-103585000I150000J0D01*
G01*
X132925000Y-103585000D01*
G75*
G02*
X133075000Y-103735000I0J-150000D01*
G01*
X133075000Y-104035000D01*
G75*
G02*
X132925000Y-104185000I-150000J0D01*
G01*
X131175000Y-104185000D01*
G75*
G02*
X131025000Y-104035000I0J150000D01*
G01*
G37*
G36*
G01*
X131025000Y-105305000D02*
X131025000Y-105005000D01*
G75*
G02*
X131175000Y-104855000I150000J0D01*
G01*
X132925000Y-104855000D01*
G75*
G02*
X133075000Y-105005000I0J-150000D01*
G01*
X133075000Y-105305000D01*
G75*
G02*
X132925000Y-105455000I-150000J0D01*
G01*
X131175000Y-105455000D01*
G75*
G02*
X131025000Y-105305000I0J150000D01*
G01*
G37*
G36*
G01*
X131025000Y-106575000D02*
X131025000Y-106275000D01*
G75*
G02*
X131175000Y-106125000I150000J0D01*
G01*
X132925000Y-106125000D01*
G75*
G02*
X133075000Y-106275000I0J-150000D01*
G01*
X133075000Y-106575000D01*
G75*
G02*
X132925000Y-106725000I-150000J0D01*
G01*
X131175000Y-106725000D01*
G75*
G02*
X131025000Y-106575000I0J150000D01*
G01*
G37*
G36*
G01*
X131025000Y-107845000D02*
X131025000Y-107545000D01*
G75*
G02*
X131175000Y-107395000I150000J0D01*
G01*
X132925000Y-107395000D01*
G75*
G02*
X133075000Y-107545000I0J-150000D01*
G01*
X133075000Y-107845000D01*
G75*
G02*
X132925000Y-107995000I-150000J0D01*
G01*
X131175000Y-107995000D01*
G75*
G02*
X131025000Y-107845000I0J150000D01*
G01*
G37*
G36*
G01*
X131025000Y-109115000D02*
X131025000Y-108815000D01*
G75*
G02*
X131175000Y-108665000I150000J0D01*
G01*
X132925000Y-108665000D01*
G75*
G02*
X133075000Y-108815000I0J-150000D01*
G01*
X133075000Y-109115000D01*
G75*
G02*
X132925000Y-109265000I-150000J0D01*
G01*
X131175000Y-109265000D01*
G75*
G02*
X131025000Y-109115000I0J150000D01*
G01*
G37*
G36*
G01*
X131025000Y-110385000D02*
X131025000Y-110085000D01*
G75*
G02*
X131175000Y-109935000I150000J0D01*
G01*
X132925000Y-109935000D01*
G75*
G02*
X133075000Y-110085000I0J-150000D01*
G01*
X133075000Y-110385000D01*
G75*
G02*
X132925000Y-110535000I-150000J0D01*
G01*
X131175000Y-110535000D01*
G75*
G02*
X131025000Y-110385000I0J150000D01*
G01*
G37*
G36*
G01*
X131025000Y-111655000D02*
X131025000Y-111355000D01*
G75*
G02*
X131175000Y-111205000I150000J0D01*
G01*
X132925000Y-111205000D01*
G75*
G02*
X133075000Y-111355000I0J-150000D01*
G01*
X133075000Y-111655000D01*
G75*
G02*
X132925000Y-111805000I-150000J0D01*
G01*
X131175000Y-111805000D01*
G75*
G02*
X131025000Y-111655000I0J150000D01*
G01*
G37*
G36*
G01*
X131025000Y-112925000D02*
X131025000Y-112625000D01*
G75*
G02*
X131175000Y-112475000I150000J0D01*
G01*
X132925000Y-112475000D01*
G75*
G02*
X133075000Y-112625000I0J-150000D01*
G01*
X133075000Y-112925000D01*
G75*
G02*
X132925000Y-113075000I-150000J0D01*
G01*
X131175000Y-113075000D01*
G75*
G02*
X131025000Y-112925000I0J150000D01*
G01*
G37*
G36*
G01*
X131025000Y-114195000D02*
X131025000Y-113895000D01*
G75*
G02*
X131175000Y-113745000I150000J0D01*
G01*
X132925000Y-113745000D01*
G75*
G02*
X133075000Y-113895000I0J-150000D01*
G01*
X133075000Y-114195000D01*
G75*
G02*
X132925000Y-114345000I-150000J0D01*
G01*
X131175000Y-114345000D01*
G75*
G02*
X131025000Y-114195000I0J150000D01*
G01*
G37*
G36*
G01*
X131025000Y-115465000D02*
X131025000Y-115165000D01*
G75*
G02*
X131175000Y-115015000I150000J0D01*
G01*
X132925000Y-115015000D01*
G75*
G02*
X133075000Y-115165000I0J-150000D01*
G01*
X133075000Y-115465000D01*
G75*
G02*
X132925000Y-115615000I-150000J0D01*
G01*
X131175000Y-115615000D01*
G75*
G02*
X131025000Y-115465000I0J150000D01*
G01*
G37*
G36*
G01*
X121725000Y-115465000D02*
X121725000Y-115165000D01*
G75*
G02*
X121875000Y-115015000I150000J0D01*
G01*
X123625000Y-115015000D01*
G75*
G02*
X123775000Y-115165000I0J-150000D01*
G01*
X123775000Y-115465000D01*
G75*
G02*
X123625000Y-115615000I-150000J0D01*
G01*
X121875000Y-115615000D01*
G75*
G02*
X121725000Y-115465000I0J150000D01*
G01*
G37*
G36*
G01*
X121725000Y-114195000D02*
X121725000Y-113895000D01*
G75*
G02*
X121875000Y-113745000I150000J0D01*
G01*
X123625000Y-113745000D01*
G75*
G02*
X123775000Y-113895000I0J-150000D01*
G01*
X123775000Y-114195000D01*
G75*
G02*
X123625000Y-114345000I-150000J0D01*
G01*
X121875000Y-114345000D01*
G75*
G02*
X121725000Y-114195000I0J150000D01*
G01*
G37*
G36*
G01*
X121725000Y-112925000D02*
X121725000Y-112625000D01*
G75*
G02*
X121875000Y-112475000I150000J0D01*
G01*
X123625000Y-112475000D01*
G75*
G02*
X123775000Y-112625000I0J-150000D01*
G01*
X123775000Y-112925000D01*
G75*
G02*
X123625000Y-113075000I-150000J0D01*
G01*
X121875000Y-113075000D01*
G75*
G02*
X121725000Y-112925000I0J150000D01*
G01*
G37*
G36*
G01*
X121725000Y-111655000D02*
X121725000Y-111355000D01*
G75*
G02*
X121875000Y-111205000I150000J0D01*
G01*
X123625000Y-111205000D01*
G75*
G02*
X123775000Y-111355000I0J-150000D01*
G01*
X123775000Y-111655000D01*
G75*
G02*
X123625000Y-111805000I-150000J0D01*
G01*
X121875000Y-111805000D01*
G75*
G02*
X121725000Y-111655000I0J150000D01*
G01*
G37*
G36*
G01*
X121725000Y-110385000D02*
X121725000Y-110085000D01*
G75*
G02*
X121875000Y-109935000I150000J0D01*
G01*
X123625000Y-109935000D01*
G75*
G02*
X123775000Y-110085000I0J-150000D01*
G01*
X123775000Y-110385000D01*
G75*
G02*
X123625000Y-110535000I-150000J0D01*
G01*
X121875000Y-110535000D01*
G75*
G02*
X121725000Y-110385000I0J150000D01*
G01*
G37*
G36*
G01*
X121725000Y-109115000D02*
X121725000Y-108815000D01*
G75*
G02*
X121875000Y-108665000I150000J0D01*
G01*
X123625000Y-108665000D01*
G75*
G02*
X123775000Y-108815000I0J-150000D01*
G01*
X123775000Y-109115000D01*
G75*
G02*
X123625000Y-109265000I-150000J0D01*
G01*
X121875000Y-109265000D01*
G75*
G02*
X121725000Y-109115000I0J150000D01*
G01*
G37*
G36*
G01*
X121725000Y-107845000D02*
X121725000Y-107545000D01*
G75*
G02*
X121875000Y-107395000I150000J0D01*
G01*
X123625000Y-107395000D01*
G75*
G02*
X123775000Y-107545000I0J-150000D01*
G01*
X123775000Y-107845000D01*
G75*
G02*
X123625000Y-107995000I-150000J0D01*
G01*
X121875000Y-107995000D01*
G75*
G02*
X121725000Y-107845000I0J150000D01*
G01*
G37*
G36*
G01*
X121725000Y-106575000D02*
X121725000Y-106275000D01*
G75*
G02*
X121875000Y-106125000I150000J0D01*
G01*
X123625000Y-106125000D01*
G75*
G02*
X123775000Y-106275000I0J-150000D01*
G01*
X123775000Y-106575000D01*
G75*
G02*
X123625000Y-106725000I-150000J0D01*
G01*
X121875000Y-106725000D01*
G75*
G02*
X121725000Y-106575000I0J150000D01*
G01*
G37*
G36*
G01*
X121725000Y-105305000D02*
X121725000Y-105005000D01*
G75*
G02*
X121875000Y-104855000I150000J0D01*
G01*
X123625000Y-104855000D01*
G75*
G02*
X123775000Y-105005000I0J-150000D01*
G01*
X123775000Y-105305000D01*
G75*
G02*
X123625000Y-105455000I-150000J0D01*
G01*
X121875000Y-105455000D01*
G75*
G02*
X121725000Y-105305000I0J150000D01*
G01*
G37*
G36*
G01*
X121725000Y-104035000D02*
X121725000Y-103735000D01*
G75*
G02*
X121875000Y-103585000I150000J0D01*
G01*
X123625000Y-103585000D01*
G75*
G02*
X123775000Y-103735000I0J-150000D01*
G01*
X123775000Y-104035000D01*
G75*
G02*
X123625000Y-104185000I-150000J0D01*
G01*
X121875000Y-104185000D01*
G75*
G02*
X121725000Y-104035000I0J150000D01*
G01*
G37*
G36*
G01*
X121725000Y-87035000D02*
X121725000Y-86735000D01*
G75*
G02*
X121875000Y-86585000I150000J0D01*
G01*
X123625000Y-86585000D01*
G75*
G02*
X123775000Y-86735000I0J-150000D01*
G01*
X123775000Y-87035000D01*
G75*
G02*
X123625000Y-87185000I-150000J0D01*
G01*
X121875000Y-87185000D01*
G75*
G02*
X121725000Y-87035000I0J150000D01*
G01*
G37*
G36*
G01*
X121725000Y-88305000D02*
X121725000Y-88005000D01*
G75*
G02*
X121875000Y-87855000I150000J0D01*
G01*
X123625000Y-87855000D01*
G75*
G02*
X123775000Y-88005000I0J-150000D01*
G01*
X123775000Y-88305000D01*
G75*
G02*
X123625000Y-88455000I-150000J0D01*
G01*
X121875000Y-88455000D01*
G75*
G02*
X121725000Y-88305000I0J150000D01*
G01*
G37*
G36*
G01*
X121725000Y-89575000D02*
X121725000Y-89275000D01*
G75*
G02*
X121875000Y-89125000I150000J0D01*
G01*
X123625000Y-89125000D01*
G75*
G02*
X123775000Y-89275000I0J-150000D01*
G01*
X123775000Y-89575000D01*
G75*
G02*
X123625000Y-89725000I-150000J0D01*
G01*
X121875000Y-89725000D01*
G75*
G02*
X121725000Y-89575000I0J150000D01*
G01*
G37*
G36*
G01*
X121725000Y-90845000D02*
X121725000Y-90545000D01*
G75*
G02*
X121875000Y-90395000I150000J0D01*
G01*
X123625000Y-90395000D01*
G75*
G02*
X123775000Y-90545000I0J-150000D01*
G01*
X123775000Y-90845000D01*
G75*
G02*
X123625000Y-90995000I-150000J0D01*
G01*
X121875000Y-90995000D01*
G75*
G02*
X121725000Y-90845000I0J150000D01*
G01*
G37*
G36*
G01*
X121725000Y-92115000D02*
X121725000Y-91815000D01*
G75*
G02*
X121875000Y-91665000I150000J0D01*
G01*
X123625000Y-91665000D01*
G75*
G02*
X123775000Y-91815000I0J-150000D01*
G01*
X123775000Y-92115000D01*
G75*
G02*
X123625000Y-92265000I-150000J0D01*
G01*
X121875000Y-92265000D01*
G75*
G02*
X121725000Y-92115000I0J150000D01*
G01*
G37*
G36*
G01*
X121725000Y-93385000D02*
X121725000Y-93085000D01*
G75*
G02*
X121875000Y-92935000I150000J0D01*
G01*
X123625000Y-92935000D01*
G75*
G02*
X123775000Y-93085000I0J-150000D01*
G01*
X123775000Y-93385000D01*
G75*
G02*
X123625000Y-93535000I-150000J0D01*
G01*
X121875000Y-93535000D01*
G75*
G02*
X121725000Y-93385000I0J150000D01*
G01*
G37*
G36*
G01*
X121725000Y-94655000D02*
X121725000Y-94355000D01*
G75*
G02*
X121875000Y-94205000I150000J0D01*
G01*
X123625000Y-94205000D01*
G75*
G02*
X123775000Y-94355000I0J-150000D01*
G01*
X123775000Y-94655000D01*
G75*
G02*
X123625000Y-94805000I-150000J0D01*
G01*
X121875000Y-94805000D01*
G75*
G02*
X121725000Y-94655000I0J150000D01*
G01*
G37*
G36*
G01*
X121725000Y-95925000D02*
X121725000Y-95625000D01*
G75*
G02*
X121875000Y-95475000I150000J0D01*
G01*
X123625000Y-95475000D01*
G75*
G02*
X123775000Y-95625000I0J-150000D01*
G01*
X123775000Y-95925000D01*
G75*
G02*
X123625000Y-96075000I-150000J0D01*
G01*
X121875000Y-96075000D01*
G75*
G02*
X121725000Y-95925000I0J150000D01*
G01*
G37*
G36*
G01*
X121725000Y-97195000D02*
X121725000Y-96895000D01*
G75*
G02*
X121875000Y-96745000I150000J0D01*
G01*
X123625000Y-96745000D01*
G75*
G02*
X123775000Y-96895000I0J-150000D01*
G01*
X123775000Y-97195000D01*
G75*
G02*
X123625000Y-97345000I-150000J0D01*
G01*
X121875000Y-97345000D01*
G75*
G02*
X121725000Y-97195000I0J150000D01*
G01*
G37*
G36*
G01*
X121725000Y-98465000D02*
X121725000Y-98165000D01*
G75*
G02*
X121875000Y-98015000I150000J0D01*
G01*
X123625000Y-98015000D01*
G75*
G02*
X123775000Y-98165000I0J-150000D01*
G01*
X123775000Y-98465000D01*
G75*
G02*
X123625000Y-98615000I-150000J0D01*
G01*
X121875000Y-98615000D01*
G75*
G02*
X121725000Y-98465000I0J150000D01*
G01*
G37*
G36*
G01*
X131025000Y-98465000D02*
X131025000Y-98165000D01*
G75*
G02*
X131175000Y-98015000I150000J0D01*
G01*
X132925000Y-98015000D01*
G75*
G02*
X133075000Y-98165000I0J-150000D01*
G01*
X133075000Y-98465000D01*
G75*
G02*
X132925000Y-98615000I-150000J0D01*
G01*
X131175000Y-98615000D01*
G75*
G02*
X131025000Y-98465000I0J150000D01*
G01*
G37*
G36*
G01*
X131025000Y-97195000D02*
X131025000Y-96895000D01*
G75*
G02*
X131175000Y-96745000I150000J0D01*
G01*
X132925000Y-96745000D01*
G75*
G02*
X133075000Y-96895000I0J-150000D01*
G01*
X133075000Y-97195000D01*
G75*
G02*
X132925000Y-97345000I-150000J0D01*
G01*
X131175000Y-97345000D01*
G75*
G02*
X131025000Y-97195000I0J150000D01*
G01*
G37*
G36*
G01*
X131025000Y-95925000D02*
X131025000Y-95625000D01*
G75*
G02*
X131175000Y-95475000I150000J0D01*
G01*
X132925000Y-95475000D01*
G75*
G02*
X133075000Y-95625000I0J-150000D01*
G01*
X133075000Y-95925000D01*
G75*
G02*
X132925000Y-96075000I-150000J0D01*
G01*
X131175000Y-96075000D01*
G75*
G02*
X131025000Y-95925000I0J150000D01*
G01*
G37*
G36*
G01*
X131025000Y-94655000D02*
X131025000Y-94355000D01*
G75*
G02*
X131175000Y-94205000I150000J0D01*
G01*
X132925000Y-94205000D01*
G75*
G02*
X133075000Y-94355000I0J-150000D01*
G01*
X133075000Y-94655000D01*
G75*
G02*
X132925000Y-94805000I-150000J0D01*
G01*
X131175000Y-94805000D01*
G75*
G02*
X131025000Y-94655000I0J150000D01*
G01*
G37*
G36*
G01*
X131025000Y-93385000D02*
X131025000Y-93085000D01*
G75*
G02*
X131175000Y-92935000I150000J0D01*
G01*
X132925000Y-92935000D01*
G75*
G02*
X133075000Y-93085000I0J-150000D01*
G01*
X133075000Y-93385000D01*
G75*
G02*
X132925000Y-93535000I-150000J0D01*
G01*
X131175000Y-93535000D01*
G75*
G02*
X131025000Y-93385000I0J150000D01*
G01*
G37*
G36*
G01*
X131025000Y-92115000D02*
X131025000Y-91815000D01*
G75*
G02*
X131175000Y-91665000I150000J0D01*
G01*
X132925000Y-91665000D01*
G75*
G02*
X133075000Y-91815000I0J-150000D01*
G01*
X133075000Y-92115000D01*
G75*
G02*
X132925000Y-92265000I-150000J0D01*
G01*
X131175000Y-92265000D01*
G75*
G02*
X131025000Y-92115000I0J150000D01*
G01*
G37*
G36*
G01*
X131025000Y-90845000D02*
X131025000Y-90545000D01*
G75*
G02*
X131175000Y-90395000I150000J0D01*
G01*
X132925000Y-90395000D01*
G75*
G02*
X133075000Y-90545000I0J-150000D01*
G01*
X133075000Y-90845000D01*
G75*
G02*
X132925000Y-90995000I-150000J0D01*
G01*
X131175000Y-90995000D01*
G75*
G02*
X131025000Y-90845000I0J150000D01*
G01*
G37*
G36*
G01*
X131025000Y-89575000D02*
X131025000Y-89275000D01*
G75*
G02*
X131175000Y-89125000I150000J0D01*
G01*
X132925000Y-89125000D01*
G75*
G02*
X133075000Y-89275000I0J-150000D01*
G01*
X133075000Y-89575000D01*
G75*
G02*
X132925000Y-89725000I-150000J0D01*
G01*
X131175000Y-89725000D01*
G75*
G02*
X131025000Y-89575000I0J150000D01*
G01*
G37*
G36*
G01*
X131025000Y-88305000D02*
X131025000Y-88005000D01*
G75*
G02*
X131175000Y-87855000I150000J0D01*
G01*
X132925000Y-87855000D01*
G75*
G02*
X133075000Y-88005000I0J-150000D01*
G01*
X133075000Y-88305000D01*
G75*
G02*
X132925000Y-88455000I-150000J0D01*
G01*
X131175000Y-88455000D01*
G75*
G02*
X131025000Y-88305000I0J150000D01*
G01*
G37*
G36*
G01*
X131025000Y-87035000D02*
X131025000Y-86735000D01*
G75*
G02*
X131175000Y-86585000I150000J0D01*
G01*
X132925000Y-86585000D01*
G75*
G02*
X133075000Y-86735000I0J-150000D01*
G01*
X133075000Y-87035000D01*
G75*
G02*
X132925000Y-87185000I-150000J0D01*
G01*
X131175000Y-87185000D01*
G75*
G02*
X131025000Y-87035000I0J150000D01*
G01*
G37*
G36*
G01*
X93125000Y-87035000D02*
X93125000Y-86735000D01*
G75*
G02*
X93275000Y-86585000I150000J0D01*
G01*
X95025000Y-86585000D01*
G75*
G02*
X95175000Y-86735000I0J-150000D01*
G01*
X95175000Y-87035000D01*
G75*
G02*
X95025000Y-87185000I-150000J0D01*
G01*
X93275000Y-87185000D01*
G75*
G02*
X93125000Y-87035000I0J150000D01*
G01*
G37*
G36*
G01*
X93125000Y-88305000D02*
X93125000Y-88005000D01*
G75*
G02*
X93275000Y-87855000I150000J0D01*
G01*
X95025000Y-87855000D01*
G75*
G02*
X95175000Y-88005000I0J-150000D01*
G01*
X95175000Y-88305000D01*
G75*
G02*
X95025000Y-88455000I-150000J0D01*
G01*
X93275000Y-88455000D01*
G75*
G02*
X93125000Y-88305000I0J150000D01*
G01*
G37*
G36*
G01*
X93125000Y-89575000D02*
X93125000Y-89275000D01*
G75*
G02*
X93275000Y-89125000I150000J0D01*
G01*
X95025000Y-89125000D01*
G75*
G02*
X95175000Y-89275000I0J-150000D01*
G01*
X95175000Y-89575000D01*
G75*
G02*
X95025000Y-89725000I-150000J0D01*
G01*
X93275000Y-89725000D01*
G75*
G02*
X93125000Y-89575000I0J150000D01*
G01*
G37*
G36*
G01*
X93125000Y-90845000D02*
X93125000Y-90545000D01*
G75*
G02*
X93275000Y-90395000I150000J0D01*
G01*
X95025000Y-90395000D01*
G75*
G02*
X95175000Y-90545000I0J-150000D01*
G01*
X95175000Y-90845000D01*
G75*
G02*
X95025000Y-90995000I-150000J0D01*
G01*
X93275000Y-90995000D01*
G75*
G02*
X93125000Y-90845000I0J150000D01*
G01*
G37*
G36*
G01*
X93125000Y-92115000D02*
X93125000Y-91815000D01*
G75*
G02*
X93275000Y-91665000I150000J0D01*
G01*
X95025000Y-91665000D01*
G75*
G02*
X95175000Y-91815000I0J-150000D01*
G01*
X95175000Y-92115000D01*
G75*
G02*
X95025000Y-92265000I-150000J0D01*
G01*
X93275000Y-92265000D01*
G75*
G02*
X93125000Y-92115000I0J150000D01*
G01*
G37*
G36*
G01*
X93125000Y-93385000D02*
X93125000Y-93085000D01*
G75*
G02*
X93275000Y-92935000I150000J0D01*
G01*
X95025000Y-92935000D01*
G75*
G02*
X95175000Y-93085000I0J-150000D01*
G01*
X95175000Y-93385000D01*
G75*
G02*
X95025000Y-93535000I-150000J0D01*
G01*
X93275000Y-93535000D01*
G75*
G02*
X93125000Y-93385000I0J150000D01*
G01*
G37*
G36*
G01*
X93125000Y-94655000D02*
X93125000Y-94355000D01*
G75*
G02*
X93275000Y-94205000I150000J0D01*
G01*
X95025000Y-94205000D01*
G75*
G02*
X95175000Y-94355000I0J-150000D01*
G01*
X95175000Y-94655000D01*
G75*
G02*
X95025000Y-94805000I-150000J0D01*
G01*
X93275000Y-94805000D01*
G75*
G02*
X93125000Y-94655000I0J150000D01*
G01*
G37*
G36*
G01*
X93125000Y-95925000D02*
X93125000Y-95625000D01*
G75*
G02*
X93275000Y-95475000I150000J0D01*
G01*
X95025000Y-95475000D01*
G75*
G02*
X95175000Y-95625000I0J-150000D01*
G01*
X95175000Y-95925000D01*
G75*
G02*
X95025000Y-96075000I-150000J0D01*
G01*
X93275000Y-96075000D01*
G75*
G02*
X93125000Y-95925000I0J150000D01*
G01*
G37*
G36*
G01*
X93125000Y-97195000D02*
X93125000Y-96895000D01*
G75*
G02*
X93275000Y-96745000I150000J0D01*
G01*
X95025000Y-96745000D01*
G75*
G02*
X95175000Y-96895000I0J-150000D01*
G01*
X95175000Y-97195000D01*
G75*
G02*
X95025000Y-97345000I-150000J0D01*
G01*
X93275000Y-97345000D01*
G75*
G02*
X93125000Y-97195000I0J150000D01*
G01*
G37*
G36*
G01*
X93125000Y-98465000D02*
X93125000Y-98165000D01*
G75*
G02*
X93275000Y-98015000I150000J0D01*
G01*
X95025000Y-98015000D01*
G75*
G02*
X95175000Y-98165000I0J-150000D01*
G01*
X95175000Y-98465000D01*
G75*
G02*
X95025000Y-98615000I-150000J0D01*
G01*
X93275000Y-98615000D01*
G75*
G02*
X93125000Y-98465000I0J150000D01*
G01*
G37*
G36*
G01*
X102425000Y-98465000D02*
X102425000Y-98165000D01*
G75*
G02*
X102575000Y-98015000I150000J0D01*
G01*
X104325000Y-98015000D01*
G75*
G02*
X104475000Y-98165000I0J-150000D01*
G01*
X104475000Y-98465000D01*
G75*
G02*
X104325000Y-98615000I-150000J0D01*
G01*
X102575000Y-98615000D01*
G75*
G02*
X102425000Y-98465000I0J150000D01*
G01*
G37*
G36*
G01*
X102425000Y-97195000D02*
X102425000Y-96895000D01*
G75*
G02*
X102575000Y-96745000I150000J0D01*
G01*
X104325000Y-96745000D01*
G75*
G02*
X104475000Y-96895000I0J-150000D01*
G01*
X104475000Y-97195000D01*
G75*
G02*
X104325000Y-97345000I-150000J0D01*
G01*
X102575000Y-97345000D01*
G75*
G02*
X102425000Y-97195000I0J150000D01*
G01*
G37*
G36*
G01*
X102425000Y-95925000D02*
X102425000Y-95625000D01*
G75*
G02*
X102575000Y-95475000I150000J0D01*
G01*
X104325000Y-95475000D01*
G75*
G02*
X104475000Y-95625000I0J-150000D01*
G01*
X104475000Y-95925000D01*
G75*
G02*
X104325000Y-96075000I-150000J0D01*
G01*
X102575000Y-96075000D01*
G75*
G02*
X102425000Y-95925000I0J150000D01*
G01*
G37*
G36*
G01*
X102425000Y-94655000D02*
X102425000Y-94355000D01*
G75*
G02*
X102575000Y-94205000I150000J0D01*
G01*
X104325000Y-94205000D01*
G75*
G02*
X104475000Y-94355000I0J-150000D01*
G01*
X104475000Y-94655000D01*
G75*
G02*
X104325000Y-94805000I-150000J0D01*
G01*
X102575000Y-94805000D01*
G75*
G02*
X102425000Y-94655000I0J150000D01*
G01*
G37*
G36*
G01*
X102425000Y-93385000D02*
X102425000Y-93085000D01*
G75*
G02*
X102575000Y-92935000I150000J0D01*
G01*
X104325000Y-92935000D01*
G75*
G02*
X104475000Y-93085000I0J-150000D01*
G01*
X104475000Y-93385000D01*
G75*
G02*
X104325000Y-93535000I-150000J0D01*
G01*
X102575000Y-93535000D01*
G75*
G02*
X102425000Y-93385000I0J150000D01*
G01*
G37*
G36*
G01*
X102425000Y-92115000D02*
X102425000Y-91815000D01*
G75*
G02*
X102575000Y-91665000I150000J0D01*
G01*
X104325000Y-91665000D01*
G75*
G02*
X104475000Y-91815000I0J-150000D01*
G01*
X104475000Y-92115000D01*
G75*
G02*
X104325000Y-92265000I-150000J0D01*
G01*
X102575000Y-92265000D01*
G75*
G02*
X102425000Y-92115000I0J150000D01*
G01*
G37*
G36*
G01*
X102425000Y-90845000D02*
X102425000Y-90545000D01*
G75*
G02*
X102575000Y-90395000I150000J0D01*
G01*
X104325000Y-90395000D01*
G75*
G02*
X104475000Y-90545000I0J-150000D01*
G01*
X104475000Y-90845000D01*
G75*
G02*
X104325000Y-90995000I-150000J0D01*
G01*
X102575000Y-90995000D01*
G75*
G02*
X102425000Y-90845000I0J150000D01*
G01*
G37*
G36*
G01*
X102425000Y-89575000D02*
X102425000Y-89275000D01*
G75*
G02*
X102575000Y-89125000I150000J0D01*
G01*
X104325000Y-89125000D01*
G75*
G02*
X104475000Y-89275000I0J-150000D01*
G01*
X104475000Y-89575000D01*
G75*
G02*
X104325000Y-89725000I-150000J0D01*
G01*
X102575000Y-89725000D01*
G75*
G02*
X102425000Y-89575000I0J150000D01*
G01*
G37*
G36*
G01*
X102425000Y-88305000D02*
X102425000Y-88005000D01*
G75*
G02*
X102575000Y-87855000I150000J0D01*
G01*
X104325000Y-87855000D01*
G75*
G02*
X104475000Y-88005000I0J-150000D01*
G01*
X104475000Y-88305000D01*
G75*
G02*
X104325000Y-88455000I-150000J0D01*
G01*
X102575000Y-88455000D01*
G75*
G02*
X102425000Y-88305000I0J150000D01*
G01*
G37*
G36*
G01*
X102425000Y-87035000D02*
X102425000Y-86735000D01*
G75*
G02*
X102575000Y-86585000I150000J0D01*
G01*
X104325000Y-86585000D01*
G75*
G02*
X104475000Y-86735000I0J-150000D01*
G01*
X104475000Y-87035000D01*
G75*
G02*
X104325000Y-87185000I-150000J0D01*
G01*
X102575000Y-87185000D01*
G75*
G02*
X102425000Y-87035000I0J150000D01*
G01*
G37*
G36*
G01*
X114425000Y-68635000D02*
X114425000Y-68335000D01*
G75*
G02*
X114575000Y-68185000I150000J0D01*
G01*
X116325000Y-68185000D01*
G75*
G02*
X116475000Y-68335000I0J-150000D01*
G01*
X116475000Y-68635000D01*
G75*
G02*
X116325000Y-68785000I-150000J0D01*
G01*
X114575000Y-68785000D01*
G75*
G02*
X114425000Y-68635000I0J150000D01*
G01*
G37*
G36*
G01*
X114425000Y-69905000D02*
X114425000Y-69605000D01*
G75*
G02*
X114575000Y-69455000I150000J0D01*
G01*
X116325000Y-69455000D01*
G75*
G02*
X116475000Y-69605000I0J-150000D01*
G01*
X116475000Y-69905000D01*
G75*
G02*
X116325000Y-70055000I-150000J0D01*
G01*
X114575000Y-70055000D01*
G75*
G02*
X114425000Y-69905000I0J150000D01*
G01*
G37*
G36*
G01*
X114425000Y-71175000D02*
X114425000Y-70875000D01*
G75*
G02*
X114575000Y-70725000I150000J0D01*
G01*
X116325000Y-70725000D01*
G75*
G02*
X116475000Y-70875000I0J-150000D01*
G01*
X116475000Y-71175000D01*
G75*
G02*
X116325000Y-71325000I-150000J0D01*
G01*
X114575000Y-71325000D01*
G75*
G02*
X114425000Y-71175000I0J150000D01*
G01*
G37*
G36*
G01*
X114425000Y-72445000D02*
X114425000Y-72145000D01*
G75*
G02*
X114575000Y-71995000I150000J0D01*
G01*
X116325000Y-71995000D01*
G75*
G02*
X116475000Y-72145000I0J-150000D01*
G01*
X116475000Y-72445000D01*
G75*
G02*
X116325000Y-72595000I-150000J0D01*
G01*
X114575000Y-72595000D01*
G75*
G02*
X114425000Y-72445000I0J150000D01*
G01*
G37*
G36*
G01*
X114425000Y-73715000D02*
X114425000Y-73415000D01*
G75*
G02*
X114575000Y-73265000I150000J0D01*
G01*
X116325000Y-73265000D01*
G75*
G02*
X116475000Y-73415000I0J-150000D01*
G01*
X116475000Y-73715000D01*
G75*
G02*
X116325000Y-73865000I-150000J0D01*
G01*
X114575000Y-73865000D01*
G75*
G02*
X114425000Y-73715000I0J150000D01*
G01*
G37*
G36*
G01*
X114425000Y-74985000D02*
X114425000Y-74685000D01*
G75*
G02*
X114575000Y-74535000I150000J0D01*
G01*
X116325000Y-74535000D01*
G75*
G02*
X116475000Y-74685000I0J-150000D01*
G01*
X116475000Y-74985000D01*
G75*
G02*
X116325000Y-75135000I-150000J0D01*
G01*
X114575000Y-75135000D01*
G75*
G02*
X114425000Y-74985000I0J150000D01*
G01*
G37*
G36*
G01*
X114425000Y-76255000D02*
X114425000Y-75955000D01*
G75*
G02*
X114575000Y-75805000I150000J0D01*
G01*
X116325000Y-75805000D01*
G75*
G02*
X116475000Y-75955000I0J-150000D01*
G01*
X116475000Y-76255000D01*
G75*
G02*
X116325000Y-76405000I-150000J0D01*
G01*
X114575000Y-76405000D01*
G75*
G02*
X114425000Y-76255000I0J150000D01*
G01*
G37*
G36*
G01*
X114425000Y-77525000D02*
X114425000Y-77225000D01*
G75*
G02*
X114575000Y-77075000I150000J0D01*
G01*
X116325000Y-77075000D01*
G75*
G02*
X116475000Y-77225000I0J-150000D01*
G01*
X116475000Y-77525000D01*
G75*
G02*
X116325000Y-77675000I-150000J0D01*
G01*
X114575000Y-77675000D01*
G75*
G02*
X114425000Y-77525000I0J150000D01*
G01*
G37*
G36*
G01*
X114425000Y-78795000D02*
X114425000Y-78495000D01*
G75*
G02*
X114575000Y-78345000I150000J0D01*
G01*
X116325000Y-78345000D01*
G75*
G02*
X116475000Y-78495000I0J-150000D01*
G01*
X116475000Y-78795000D01*
G75*
G02*
X116325000Y-78945000I-150000J0D01*
G01*
X114575000Y-78945000D01*
G75*
G02*
X114425000Y-78795000I0J150000D01*
G01*
G37*
G36*
G01*
X114425000Y-80065000D02*
X114425000Y-79765000D01*
G75*
G02*
X114575000Y-79615000I150000J0D01*
G01*
X116325000Y-79615000D01*
G75*
G02*
X116475000Y-79765000I0J-150000D01*
G01*
X116475000Y-80065000D01*
G75*
G02*
X116325000Y-80215000I-150000J0D01*
G01*
X114575000Y-80215000D01*
G75*
G02*
X114425000Y-80065000I0J150000D01*
G01*
G37*
G36*
G01*
X105125000Y-80065000D02*
X105125000Y-79765000D01*
G75*
G02*
X105275000Y-79615000I150000J0D01*
G01*
X107025000Y-79615000D01*
G75*
G02*
X107175000Y-79765000I0J-150000D01*
G01*
X107175000Y-80065000D01*
G75*
G02*
X107025000Y-80215000I-150000J0D01*
G01*
X105275000Y-80215000D01*
G75*
G02*
X105125000Y-80065000I0J150000D01*
G01*
G37*
G36*
G01*
X105125000Y-78795000D02*
X105125000Y-78495000D01*
G75*
G02*
X105275000Y-78345000I150000J0D01*
G01*
X107025000Y-78345000D01*
G75*
G02*
X107175000Y-78495000I0J-150000D01*
G01*
X107175000Y-78795000D01*
G75*
G02*
X107025000Y-78945000I-150000J0D01*
G01*
X105275000Y-78945000D01*
G75*
G02*
X105125000Y-78795000I0J150000D01*
G01*
G37*
G36*
G01*
X105125000Y-77525000D02*
X105125000Y-77225000D01*
G75*
G02*
X105275000Y-77075000I150000J0D01*
G01*
X107025000Y-77075000D01*
G75*
G02*
X107175000Y-77225000I0J-150000D01*
G01*
X107175000Y-77525000D01*
G75*
G02*
X107025000Y-77675000I-150000J0D01*
G01*
X105275000Y-77675000D01*
G75*
G02*
X105125000Y-77525000I0J150000D01*
G01*
G37*
G36*
G01*
X105125000Y-76255000D02*
X105125000Y-75955000D01*
G75*
G02*
X105275000Y-75805000I150000J0D01*
G01*
X107025000Y-75805000D01*
G75*
G02*
X107175000Y-75955000I0J-150000D01*
G01*
X107175000Y-76255000D01*
G75*
G02*
X107025000Y-76405000I-150000J0D01*
G01*
X105275000Y-76405000D01*
G75*
G02*
X105125000Y-76255000I0J150000D01*
G01*
G37*
G36*
G01*
X105125000Y-74985000D02*
X105125000Y-74685000D01*
G75*
G02*
X105275000Y-74535000I150000J0D01*
G01*
X107025000Y-74535000D01*
G75*
G02*
X107175000Y-74685000I0J-150000D01*
G01*
X107175000Y-74985000D01*
G75*
G02*
X107025000Y-75135000I-150000J0D01*
G01*
X105275000Y-75135000D01*
G75*
G02*
X105125000Y-74985000I0J150000D01*
G01*
G37*
G36*
G01*
X105125000Y-73715000D02*
X105125000Y-73415000D01*
G75*
G02*
X105275000Y-73265000I150000J0D01*
G01*
X107025000Y-73265000D01*
G75*
G02*
X107175000Y-73415000I0J-150000D01*
G01*
X107175000Y-73715000D01*
G75*
G02*
X107025000Y-73865000I-150000J0D01*
G01*
X105275000Y-73865000D01*
G75*
G02*
X105125000Y-73715000I0J150000D01*
G01*
G37*
G36*
G01*
X105125000Y-72445000D02*
X105125000Y-72145000D01*
G75*
G02*
X105275000Y-71995000I150000J0D01*
G01*
X107025000Y-71995000D01*
G75*
G02*
X107175000Y-72145000I0J-150000D01*
G01*
X107175000Y-72445000D01*
G75*
G02*
X107025000Y-72595000I-150000J0D01*
G01*
X105275000Y-72595000D01*
G75*
G02*
X105125000Y-72445000I0J150000D01*
G01*
G37*
G36*
G01*
X105125000Y-71175000D02*
X105125000Y-70875000D01*
G75*
G02*
X105275000Y-70725000I150000J0D01*
G01*
X107025000Y-70725000D01*
G75*
G02*
X107175000Y-70875000I0J-150000D01*
G01*
X107175000Y-71175000D01*
G75*
G02*
X107025000Y-71325000I-150000J0D01*
G01*
X105275000Y-71325000D01*
G75*
G02*
X105125000Y-71175000I0J150000D01*
G01*
G37*
G36*
G01*
X105125000Y-69905000D02*
X105125000Y-69605000D01*
G75*
G02*
X105275000Y-69455000I150000J0D01*
G01*
X107025000Y-69455000D01*
G75*
G02*
X107175000Y-69605000I0J-150000D01*
G01*
X107175000Y-69905000D01*
G75*
G02*
X107025000Y-70055000I-150000J0D01*
G01*
X105275000Y-70055000D01*
G75*
G02*
X105125000Y-69905000I0J150000D01*
G01*
G37*
G36*
G01*
X105125000Y-68635000D02*
X105125000Y-68335000D01*
G75*
G02*
X105275000Y-68185000I150000J0D01*
G01*
X107025000Y-68185000D01*
G75*
G02*
X107175000Y-68335000I0J-150000D01*
G01*
X107175000Y-68635000D01*
G75*
G02*
X107025000Y-68785000I-150000J0D01*
G01*
X105275000Y-68785000D01*
G75*
G02*
X105125000Y-68635000I0J150000D01*
G01*
G37*
G36*
G01*
X133525000Y-68635000D02*
X133525000Y-68335000D01*
G75*
G02*
X133675000Y-68185000I150000J0D01*
G01*
X135425000Y-68185000D01*
G75*
G02*
X135575000Y-68335000I0J-150000D01*
G01*
X135575000Y-68635000D01*
G75*
G02*
X135425000Y-68785000I-150000J0D01*
G01*
X133675000Y-68785000D01*
G75*
G02*
X133525000Y-68635000I0J150000D01*
G01*
G37*
G36*
G01*
X133525000Y-69905000D02*
X133525000Y-69605000D01*
G75*
G02*
X133675000Y-69455000I150000J0D01*
G01*
X135425000Y-69455000D01*
G75*
G02*
X135575000Y-69605000I0J-150000D01*
G01*
X135575000Y-69905000D01*
G75*
G02*
X135425000Y-70055000I-150000J0D01*
G01*
X133675000Y-70055000D01*
G75*
G02*
X133525000Y-69905000I0J150000D01*
G01*
G37*
G36*
G01*
X133525000Y-71175000D02*
X133525000Y-70875000D01*
G75*
G02*
X133675000Y-70725000I150000J0D01*
G01*
X135425000Y-70725000D01*
G75*
G02*
X135575000Y-70875000I0J-150000D01*
G01*
X135575000Y-71175000D01*
G75*
G02*
X135425000Y-71325000I-150000J0D01*
G01*
X133675000Y-71325000D01*
G75*
G02*
X133525000Y-71175000I0J150000D01*
G01*
G37*
G36*
G01*
X133525000Y-72445000D02*
X133525000Y-72145000D01*
G75*
G02*
X133675000Y-71995000I150000J0D01*
G01*
X135425000Y-71995000D01*
G75*
G02*
X135575000Y-72145000I0J-150000D01*
G01*
X135575000Y-72445000D01*
G75*
G02*
X135425000Y-72595000I-150000J0D01*
G01*
X133675000Y-72595000D01*
G75*
G02*
X133525000Y-72445000I0J150000D01*
G01*
G37*
G36*
G01*
X133525000Y-73715000D02*
X133525000Y-73415000D01*
G75*
G02*
X133675000Y-73265000I150000J0D01*
G01*
X135425000Y-73265000D01*
G75*
G02*
X135575000Y-73415000I0J-150000D01*
G01*
X135575000Y-73715000D01*
G75*
G02*
X135425000Y-73865000I-150000J0D01*
G01*
X133675000Y-73865000D01*
G75*
G02*
X133525000Y-73715000I0J150000D01*
G01*
G37*
G36*
G01*
X133525000Y-74985000D02*
X133525000Y-74685000D01*
G75*
G02*
X133675000Y-74535000I150000J0D01*
G01*
X135425000Y-74535000D01*
G75*
G02*
X135575000Y-74685000I0J-150000D01*
G01*
X135575000Y-74985000D01*
G75*
G02*
X135425000Y-75135000I-150000J0D01*
G01*
X133675000Y-75135000D01*
G75*
G02*
X133525000Y-74985000I0J150000D01*
G01*
G37*
G36*
G01*
X133525000Y-76255000D02*
X133525000Y-75955000D01*
G75*
G02*
X133675000Y-75805000I150000J0D01*
G01*
X135425000Y-75805000D01*
G75*
G02*
X135575000Y-75955000I0J-150000D01*
G01*
X135575000Y-76255000D01*
G75*
G02*
X135425000Y-76405000I-150000J0D01*
G01*
X133675000Y-76405000D01*
G75*
G02*
X133525000Y-76255000I0J150000D01*
G01*
G37*
G36*
G01*
X133525000Y-77525000D02*
X133525000Y-77225000D01*
G75*
G02*
X133675000Y-77075000I150000J0D01*
G01*
X135425000Y-77075000D01*
G75*
G02*
X135575000Y-77225000I0J-150000D01*
G01*
X135575000Y-77525000D01*
G75*
G02*
X135425000Y-77675000I-150000J0D01*
G01*
X133675000Y-77675000D01*
G75*
G02*
X133525000Y-77525000I0J150000D01*
G01*
G37*
G36*
G01*
X133525000Y-78795000D02*
X133525000Y-78495000D01*
G75*
G02*
X133675000Y-78345000I150000J0D01*
G01*
X135425000Y-78345000D01*
G75*
G02*
X135575000Y-78495000I0J-150000D01*
G01*
X135575000Y-78795000D01*
G75*
G02*
X135425000Y-78945000I-150000J0D01*
G01*
X133675000Y-78945000D01*
G75*
G02*
X133525000Y-78795000I0J150000D01*
G01*
G37*
G36*
G01*
X133525000Y-80065000D02*
X133525000Y-79765000D01*
G75*
G02*
X133675000Y-79615000I150000J0D01*
G01*
X135425000Y-79615000D01*
G75*
G02*
X135575000Y-79765000I0J-150000D01*
G01*
X135575000Y-80065000D01*
G75*
G02*
X135425000Y-80215000I-150000J0D01*
G01*
X133675000Y-80215000D01*
G75*
G02*
X133525000Y-80065000I0J150000D01*
G01*
G37*
G36*
G01*
X142825000Y-80065000D02*
X142825000Y-79765000D01*
G75*
G02*
X142975000Y-79615000I150000J0D01*
G01*
X144725000Y-79615000D01*
G75*
G02*
X144875000Y-79765000I0J-150000D01*
G01*
X144875000Y-80065000D01*
G75*
G02*
X144725000Y-80215000I-150000J0D01*
G01*
X142975000Y-80215000D01*
G75*
G02*
X142825000Y-80065000I0J150000D01*
G01*
G37*
G36*
G01*
X142825000Y-78795000D02*
X142825000Y-78495000D01*
G75*
G02*
X142975000Y-78345000I150000J0D01*
G01*
X144725000Y-78345000D01*
G75*
G02*
X144875000Y-78495000I0J-150000D01*
G01*
X144875000Y-78795000D01*
G75*
G02*
X144725000Y-78945000I-150000J0D01*
G01*
X142975000Y-78945000D01*
G75*
G02*
X142825000Y-78795000I0J150000D01*
G01*
G37*
G36*
G01*
X142825000Y-77525000D02*
X142825000Y-77225000D01*
G75*
G02*
X142975000Y-77075000I150000J0D01*
G01*
X144725000Y-77075000D01*
G75*
G02*
X144875000Y-77225000I0J-150000D01*
G01*
X144875000Y-77525000D01*
G75*
G02*
X144725000Y-77675000I-150000J0D01*
G01*
X142975000Y-77675000D01*
G75*
G02*
X142825000Y-77525000I0J150000D01*
G01*
G37*
G36*
G01*
X142825000Y-76255000D02*
X142825000Y-75955000D01*
G75*
G02*
X142975000Y-75805000I150000J0D01*
G01*
X144725000Y-75805000D01*
G75*
G02*
X144875000Y-75955000I0J-150000D01*
G01*
X144875000Y-76255000D01*
G75*
G02*
X144725000Y-76405000I-150000J0D01*
G01*
X142975000Y-76405000D01*
G75*
G02*
X142825000Y-76255000I0J150000D01*
G01*
G37*
G36*
G01*
X142825000Y-74985000D02*
X142825000Y-74685000D01*
G75*
G02*
X142975000Y-74535000I150000J0D01*
G01*
X144725000Y-74535000D01*
G75*
G02*
X144875000Y-74685000I0J-150000D01*
G01*
X144875000Y-74985000D01*
G75*
G02*
X144725000Y-75135000I-150000J0D01*
G01*
X142975000Y-75135000D01*
G75*
G02*
X142825000Y-74985000I0J150000D01*
G01*
G37*
G36*
G01*
X142825000Y-73715000D02*
X142825000Y-73415000D01*
G75*
G02*
X142975000Y-73265000I150000J0D01*
G01*
X144725000Y-73265000D01*
G75*
G02*
X144875000Y-73415000I0J-150000D01*
G01*
X144875000Y-73715000D01*
G75*
G02*
X144725000Y-73865000I-150000J0D01*
G01*
X142975000Y-73865000D01*
G75*
G02*
X142825000Y-73715000I0J150000D01*
G01*
G37*
G36*
G01*
X142825000Y-72445000D02*
X142825000Y-72145000D01*
G75*
G02*
X142975000Y-71995000I150000J0D01*
G01*
X144725000Y-71995000D01*
G75*
G02*
X144875000Y-72145000I0J-150000D01*
G01*
X144875000Y-72445000D01*
G75*
G02*
X144725000Y-72595000I-150000J0D01*
G01*
X142975000Y-72595000D01*
G75*
G02*
X142825000Y-72445000I0J150000D01*
G01*
G37*
G36*
G01*
X142825000Y-71175000D02*
X142825000Y-70875000D01*
G75*
G02*
X142975000Y-70725000I150000J0D01*
G01*
X144725000Y-70725000D01*
G75*
G02*
X144875000Y-70875000I0J-150000D01*
G01*
X144875000Y-71175000D01*
G75*
G02*
X144725000Y-71325000I-150000J0D01*
G01*
X142975000Y-71325000D01*
G75*
G02*
X142825000Y-71175000I0J150000D01*
G01*
G37*
G36*
G01*
X142825000Y-69905000D02*
X142825000Y-69605000D01*
G75*
G02*
X142975000Y-69455000I150000J0D01*
G01*
X144725000Y-69455000D01*
G75*
G02*
X144875000Y-69605000I0J-150000D01*
G01*
X144875000Y-69905000D01*
G75*
G02*
X144725000Y-70055000I-150000J0D01*
G01*
X142975000Y-70055000D01*
G75*
G02*
X142825000Y-69905000I0J150000D01*
G01*
G37*
G36*
G01*
X142825000Y-68635000D02*
X142825000Y-68335000D01*
G75*
G02*
X142975000Y-68185000I150000J0D01*
G01*
X144725000Y-68185000D01*
G75*
G02*
X144875000Y-68335000I0J-150000D01*
G01*
X144875000Y-68635000D01*
G75*
G02*
X144725000Y-68785000I-150000J0D01*
G01*
X142975000Y-68785000D01*
G75*
G02*
X142825000Y-68635000I0J150000D01*
G01*
G37*
G36*
G01*
X152800000Y-72640000D02*
X152800000Y-72340000D01*
G75*
G02*
X152950000Y-72190000I150000J0D01*
G01*
X154600000Y-72190000D01*
G75*
G02*
X154750000Y-72340000I0J-150000D01*
G01*
X154750000Y-72640000D01*
G75*
G02*
X154600000Y-72790000I-150000J0D01*
G01*
X152950000Y-72790000D01*
G75*
G02*
X152800000Y-72640000I0J150000D01*
G01*
G37*
G36*
G01*
X152800000Y-73910000D02*
X152800000Y-73610000D01*
G75*
G02*
X152950000Y-73460000I150000J0D01*
G01*
X154600000Y-73460000D01*
G75*
G02*
X154750000Y-73610000I0J-150000D01*
G01*
X154750000Y-73910000D01*
G75*
G02*
X154600000Y-74060000I-150000J0D01*
G01*
X152950000Y-74060000D01*
G75*
G02*
X152800000Y-73910000I0J150000D01*
G01*
G37*
G36*
G01*
X152800000Y-75180000D02*
X152800000Y-74880000D01*
G75*
G02*
X152950000Y-74730000I150000J0D01*
G01*
X154600000Y-74730000D01*
G75*
G02*
X154750000Y-74880000I0J-150000D01*
G01*
X154750000Y-75180000D01*
G75*
G02*
X154600000Y-75330000I-150000J0D01*
G01*
X152950000Y-75330000D01*
G75*
G02*
X152800000Y-75180000I0J150000D01*
G01*
G37*
G36*
G01*
X152800000Y-76450000D02*
X152800000Y-76150000D01*
G75*
G02*
X152950000Y-76000000I150000J0D01*
G01*
X154600000Y-76000000D01*
G75*
G02*
X154750000Y-76150000I0J-150000D01*
G01*
X154750000Y-76450000D01*
G75*
G02*
X154600000Y-76600000I-150000J0D01*
G01*
X152950000Y-76600000D01*
G75*
G02*
X152800000Y-76450000I0J150000D01*
G01*
G37*
G36*
G01*
X152800000Y-77720000D02*
X152800000Y-77420000D01*
G75*
G02*
X152950000Y-77270000I150000J0D01*
G01*
X154600000Y-77270000D01*
G75*
G02*
X154750000Y-77420000I0J-150000D01*
G01*
X154750000Y-77720000D01*
G75*
G02*
X154600000Y-77870000I-150000J0D01*
G01*
X152950000Y-77870000D01*
G75*
G02*
X152800000Y-77720000I0J150000D01*
G01*
G37*
G36*
G01*
X152800000Y-78990000D02*
X152800000Y-78690000D01*
G75*
G02*
X152950000Y-78540000I150000J0D01*
G01*
X154600000Y-78540000D01*
G75*
G02*
X154750000Y-78690000I0J-150000D01*
G01*
X154750000Y-78990000D01*
G75*
G02*
X154600000Y-79140000I-150000J0D01*
G01*
X152950000Y-79140000D01*
G75*
G02*
X152800000Y-78990000I0J150000D01*
G01*
G37*
G36*
G01*
X152800000Y-80260000D02*
X152800000Y-79960000D01*
G75*
G02*
X152950000Y-79810000I150000J0D01*
G01*
X154600000Y-79810000D01*
G75*
G02*
X154750000Y-79960000I0J-150000D01*
G01*
X154750000Y-80260000D01*
G75*
G02*
X154600000Y-80410000I-150000J0D01*
G01*
X152950000Y-80410000D01*
G75*
G02*
X152800000Y-80260000I0J150000D01*
G01*
G37*
G36*
G01*
X157750000Y-80260000D02*
X157750000Y-79960000D01*
G75*
G02*
X157900000Y-79810000I150000J0D01*
G01*
X159550000Y-79810000D01*
G75*
G02*
X159700000Y-79960000I0J-150000D01*
G01*
X159700000Y-80260000D01*
G75*
G02*
X159550000Y-80410000I-150000J0D01*
G01*
X157900000Y-80410000D01*
G75*
G02*
X157750000Y-80260000I0J150000D01*
G01*
G37*
G36*
G01*
X157750000Y-78990000D02*
X157750000Y-78690000D01*
G75*
G02*
X157900000Y-78540000I150000J0D01*
G01*
X159550000Y-78540000D01*
G75*
G02*
X159700000Y-78690000I0J-150000D01*
G01*
X159700000Y-78990000D01*
G75*
G02*
X159550000Y-79140000I-150000J0D01*
G01*
X157900000Y-79140000D01*
G75*
G02*
X157750000Y-78990000I0J150000D01*
G01*
G37*
G36*
G01*
X157750000Y-77720000D02*
X157750000Y-77420000D01*
G75*
G02*
X157900000Y-77270000I150000J0D01*
G01*
X159550000Y-77270000D01*
G75*
G02*
X159700000Y-77420000I0J-150000D01*
G01*
X159700000Y-77720000D01*
G75*
G02*
X159550000Y-77870000I-150000J0D01*
G01*
X157900000Y-77870000D01*
G75*
G02*
X157750000Y-77720000I0J150000D01*
G01*
G37*
G36*
G01*
X157750000Y-76450000D02*
X157750000Y-76150000D01*
G75*
G02*
X157900000Y-76000000I150000J0D01*
G01*
X159550000Y-76000000D01*
G75*
G02*
X159700000Y-76150000I0J-150000D01*
G01*
X159700000Y-76450000D01*
G75*
G02*
X159550000Y-76600000I-150000J0D01*
G01*
X157900000Y-76600000D01*
G75*
G02*
X157750000Y-76450000I0J150000D01*
G01*
G37*
G36*
G01*
X157750000Y-75180000D02*
X157750000Y-74880000D01*
G75*
G02*
X157900000Y-74730000I150000J0D01*
G01*
X159550000Y-74730000D01*
G75*
G02*
X159700000Y-74880000I0J-150000D01*
G01*
X159700000Y-75180000D01*
G75*
G02*
X159550000Y-75330000I-150000J0D01*
G01*
X157900000Y-75330000D01*
G75*
G02*
X157750000Y-75180000I0J150000D01*
G01*
G37*
G36*
G01*
X157750000Y-73910000D02*
X157750000Y-73610000D01*
G75*
G02*
X157900000Y-73460000I150000J0D01*
G01*
X159550000Y-73460000D01*
G75*
G02*
X159700000Y-73610000I0J-150000D01*
G01*
X159700000Y-73910000D01*
G75*
G02*
X159550000Y-74060000I-150000J0D01*
G01*
X157900000Y-74060000D01*
G75*
G02*
X157750000Y-73910000I0J150000D01*
G01*
G37*
G36*
G01*
X157750000Y-72640000D02*
X157750000Y-72340000D01*
G75*
G02*
X157900000Y-72190000I150000J0D01*
G01*
X159550000Y-72190000D01*
G75*
G02*
X159700000Y-72340000I0J-150000D01*
G01*
X159700000Y-72640000D01*
G75*
G02*
X159550000Y-72790000I-150000J0D01*
G01*
X157900000Y-72790000D01*
G75*
G02*
X157750000Y-72640000I0J150000D01*
G01*
G37*
G36*
G01*
X185950000Y-117150000D02*
X187050000Y-117150000D01*
G75*
G02*
X187300000Y-117400000I0J-250000D01*
G01*
X187300000Y-119500000D01*
G75*
G02*
X187050000Y-119750000I-250000J0D01*
G01*
X185950000Y-119750000D01*
G75*
G02*
X185700000Y-119500000I0J250000D01*
G01*
X185700000Y-117400000D01*
G75*
G02*
X185950000Y-117150000I250000J0D01*
G01*
G37*
G36*
G01*
X185950000Y-120750000D02*
X187050000Y-120750000D01*
G75*
G02*
X187300000Y-121000000I0J-250000D01*
G01*
X187300000Y-123100000D01*
G75*
G02*
X187050000Y-123350000I-250000J0D01*
G01*
X185950000Y-123350000D01*
G75*
G02*
X185700000Y-123100000I0J250000D01*
G01*
X185700000Y-121000000D01*
G75*
G02*
X185950000Y-120750000I250000J0D01*
G01*
G37*
G36*
G01*
X99150000Y-78800000D02*
X99150000Y-79900000D01*
G75*
G02*
X98900000Y-80150000I-250000J0D01*
G01*
X96800000Y-80150000D01*
G75*
G02*
X96550000Y-79900000I0J250000D01*
G01*
X96550000Y-78800000D01*
G75*
G02*
X96800000Y-78550000I250000J0D01*
G01*
X98900000Y-78550000D01*
G75*
G02*
X99150000Y-78800000I0J-250000D01*
G01*
G37*
G36*
G01*
X102750000Y-78800000D02*
X102750000Y-79900000D01*
G75*
G02*
X102500000Y-80150000I-250000J0D01*
G01*
X100400000Y-80150000D01*
G75*
G02*
X100150000Y-79900000I0J250000D01*
G01*
X100150000Y-78800000D01*
G75*
G02*
X100400000Y-78550000I250000J0D01*
G01*
X102500000Y-78550000D01*
G75*
G02*
X102750000Y-78800000I0J-250000D01*
G01*
G37*
M02*
