G04 #@! TF.GenerationSoftware,KiCad,Pcbnew,(5.1.8)-1*
G04 #@! TF.CreationDate,2020-11-27T17:20:36-08:00*
G04 #@! TF.ProjectId,GPRModule,4750524d-6f64-4756-9c65-2e6b69636164,1.0*
G04 #@! TF.SameCoordinates,Original*
G04 #@! TF.FileFunction,Legend,Top*
G04 #@! TF.FilePolarity,Positive*
%FSLAX46Y46*%
G04 Gerber Fmt 4.6, Leading zero omitted, Abs format (unit mm)*
G04 Created by KiCad (PCBNEW (5.1.8)-1) date 2020-11-27 17:20:36*
%MOMM*%
%LPD*%
G01*
G04 APERTURE LIST*
%ADD10C,0.153000*%
%ADD11C,0.125000*%
%ADD12C,0.150000*%
%ADD13C,0.010000*%
%ADD14C,0.120000*%
G04 APERTURE END LIST*
D10*
X125568571Y-63583809D02*
X125640952Y-63583809D01*
X125713333Y-63620000D01*
X125749523Y-63656190D01*
X125785714Y-63728571D01*
X125821904Y-63873333D01*
X125821904Y-64054285D01*
X125785714Y-64199047D01*
X125749523Y-64271428D01*
X125713333Y-64307619D01*
X125640952Y-64343809D01*
X125568571Y-64343809D01*
X125496190Y-64307619D01*
X125460000Y-64271428D01*
X125423809Y-64199047D01*
X125387619Y-64054285D01*
X125387619Y-63873333D01*
X125423809Y-63728571D01*
X125460000Y-63656190D01*
X125496190Y-63620000D01*
X125568571Y-63583809D01*
X126075238Y-63583809D02*
X126581904Y-63583809D01*
X126256190Y-64343809D01*
X129332380Y-63583809D02*
X129404761Y-63583809D01*
X129477142Y-63620000D01*
X129513333Y-63656190D01*
X129549523Y-63728571D01*
X129585714Y-63873333D01*
X129585714Y-64054285D01*
X129549523Y-64199047D01*
X129513333Y-64271428D01*
X129477142Y-64307619D01*
X129404761Y-64343809D01*
X129332380Y-64343809D01*
X129260000Y-64307619D01*
X129223809Y-64271428D01*
X129187619Y-64199047D01*
X129151428Y-64054285D01*
X129151428Y-63873333D01*
X129187619Y-63728571D01*
X129223809Y-63656190D01*
X129260000Y-63620000D01*
X129332380Y-63583809D01*
X130237142Y-63583809D02*
X130092380Y-63583809D01*
X130020000Y-63620000D01*
X129983809Y-63656190D01*
X129911428Y-63764761D01*
X129875238Y-63909523D01*
X129875238Y-64199047D01*
X129911428Y-64271428D01*
X129947619Y-64307619D01*
X130020000Y-64343809D01*
X130164761Y-64343809D01*
X130237142Y-64307619D01*
X130273333Y-64271428D01*
X130309523Y-64199047D01*
X130309523Y-64018095D01*
X130273333Y-63945714D01*
X130237142Y-63909523D01*
X130164761Y-63873333D01*
X130020000Y-63873333D01*
X129947619Y-63909523D01*
X129911428Y-63945714D01*
X129875238Y-64018095D01*
X133096190Y-63583809D02*
X133168571Y-63583809D01*
X133240952Y-63620000D01*
X133277142Y-63656190D01*
X133313333Y-63728571D01*
X133349523Y-63873333D01*
X133349523Y-64054285D01*
X133313333Y-64199047D01*
X133277142Y-64271428D01*
X133240952Y-64307619D01*
X133168571Y-64343809D01*
X133096190Y-64343809D01*
X133023809Y-64307619D01*
X132987619Y-64271428D01*
X132951428Y-64199047D01*
X132915238Y-64054285D01*
X132915238Y-63873333D01*
X132951428Y-63728571D01*
X132987619Y-63656190D01*
X133023809Y-63620000D01*
X133096190Y-63583809D01*
X134037142Y-63583809D02*
X133675238Y-63583809D01*
X133639047Y-63945714D01*
X133675238Y-63909523D01*
X133747619Y-63873333D01*
X133928571Y-63873333D01*
X134000952Y-63909523D01*
X134037142Y-63945714D01*
X134073333Y-64018095D01*
X134073333Y-64199047D01*
X134037142Y-64271428D01*
X134000952Y-64307619D01*
X133928571Y-64343809D01*
X133747619Y-64343809D01*
X133675238Y-64307619D01*
X133639047Y-64271428D01*
X136860000Y-63583809D02*
X136932380Y-63583809D01*
X137004761Y-63620000D01*
X137040952Y-63656190D01*
X137077142Y-63728571D01*
X137113333Y-63873333D01*
X137113333Y-64054285D01*
X137077142Y-64199047D01*
X137040952Y-64271428D01*
X137004761Y-64307619D01*
X136932380Y-64343809D01*
X136860000Y-64343809D01*
X136787619Y-64307619D01*
X136751428Y-64271428D01*
X136715238Y-64199047D01*
X136679047Y-64054285D01*
X136679047Y-63873333D01*
X136715238Y-63728571D01*
X136751428Y-63656190D01*
X136787619Y-63620000D01*
X136860000Y-63583809D01*
X137764761Y-63837142D02*
X137764761Y-64343809D01*
X137583809Y-63547619D02*
X137402857Y-64090476D01*
X137873333Y-64090476D01*
X140623809Y-63583809D02*
X140696190Y-63583809D01*
X140768571Y-63620000D01*
X140804761Y-63656190D01*
X140840952Y-63728571D01*
X140877142Y-63873333D01*
X140877142Y-64054285D01*
X140840952Y-64199047D01*
X140804761Y-64271428D01*
X140768571Y-64307619D01*
X140696190Y-64343809D01*
X140623809Y-64343809D01*
X140551428Y-64307619D01*
X140515238Y-64271428D01*
X140479047Y-64199047D01*
X140442857Y-64054285D01*
X140442857Y-63873333D01*
X140479047Y-63728571D01*
X140515238Y-63656190D01*
X140551428Y-63620000D01*
X140623809Y-63583809D01*
X141130476Y-63583809D02*
X141600952Y-63583809D01*
X141347619Y-63873333D01*
X141456190Y-63873333D01*
X141528571Y-63909523D01*
X141564761Y-63945714D01*
X141600952Y-64018095D01*
X141600952Y-64199047D01*
X141564761Y-64271428D01*
X141528571Y-64307619D01*
X141456190Y-64343809D01*
X141239047Y-64343809D01*
X141166666Y-64307619D01*
X141130476Y-64271428D01*
X144387619Y-63583809D02*
X144460000Y-63583809D01*
X144532380Y-63620000D01*
X144568571Y-63656190D01*
X144604761Y-63728571D01*
X144640952Y-63873333D01*
X144640952Y-64054285D01*
X144604761Y-64199047D01*
X144568571Y-64271428D01*
X144532380Y-64307619D01*
X144460000Y-64343809D01*
X144387619Y-64343809D01*
X144315238Y-64307619D01*
X144279047Y-64271428D01*
X144242857Y-64199047D01*
X144206666Y-64054285D01*
X144206666Y-63873333D01*
X144242857Y-63728571D01*
X144279047Y-63656190D01*
X144315238Y-63620000D01*
X144387619Y-63583809D01*
X144930476Y-63656190D02*
X144966666Y-63620000D01*
X145039047Y-63583809D01*
X145220000Y-63583809D01*
X145292380Y-63620000D01*
X145328571Y-63656190D01*
X145364761Y-63728571D01*
X145364761Y-63800952D01*
X145328571Y-63909523D01*
X144894285Y-64343809D01*
X145364761Y-64343809D01*
X148151428Y-63583809D02*
X148223809Y-63583809D01*
X148296190Y-63620000D01*
X148332380Y-63656190D01*
X148368571Y-63728571D01*
X148404761Y-63873333D01*
X148404761Y-64054285D01*
X148368571Y-64199047D01*
X148332380Y-64271428D01*
X148296190Y-64307619D01*
X148223809Y-64343809D01*
X148151428Y-64343809D01*
X148079047Y-64307619D01*
X148042857Y-64271428D01*
X148006666Y-64199047D01*
X147970476Y-64054285D01*
X147970476Y-63873333D01*
X148006666Y-63728571D01*
X148042857Y-63656190D01*
X148079047Y-63620000D01*
X148151428Y-63583809D01*
X149128571Y-64343809D02*
X148694285Y-64343809D01*
X148911428Y-64343809D02*
X148911428Y-63583809D01*
X148839047Y-63692380D01*
X148766666Y-63764761D01*
X148694285Y-63800952D01*
X151915238Y-63583809D02*
X151987619Y-63583809D01*
X152060000Y-63620000D01*
X152096190Y-63656190D01*
X152132380Y-63728571D01*
X152168571Y-63873333D01*
X152168571Y-64054285D01*
X152132380Y-64199047D01*
X152096190Y-64271428D01*
X152060000Y-64307619D01*
X151987619Y-64343809D01*
X151915238Y-64343809D01*
X151842857Y-64307619D01*
X151806666Y-64271428D01*
X151770476Y-64199047D01*
X151734285Y-64054285D01*
X151734285Y-63873333D01*
X151770476Y-63728571D01*
X151806666Y-63656190D01*
X151842857Y-63620000D01*
X151915238Y-63583809D01*
X152639047Y-63583809D02*
X152711428Y-63583809D01*
X152783809Y-63620000D01*
X152820000Y-63656190D01*
X152856190Y-63728571D01*
X152892380Y-63873333D01*
X152892380Y-64054285D01*
X152856190Y-64199047D01*
X152820000Y-64271428D01*
X152783809Y-64307619D01*
X152711428Y-64343809D01*
X152639047Y-64343809D01*
X152566666Y-64307619D01*
X152530476Y-64271428D01*
X152494285Y-64199047D01*
X152458095Y-64054285D01*
X152458095Y-63873333D01*
X152494285Y-63728571D01*
X152530476Y-63656190D01*
X152566666Y-63620000D01*
X152639047Y-63583809D01*
X92400000Y-57950000D02*
X173150000Y-57950000D01*
X92400000Y-65200000D02*
X92400000Y-57950000D01*
X173150000Y-65200000D02*
X92400000Y-65200000D01*
X173150000Y-57950000D02*
X173150000Y-65200000D01*
D11*
X157787619Y-64939761D02*
X157787619Y-64586428D01*
X157787619Y-64687380D02*
X157812857Y-64636904D01*
X157838095Y-64611666D01*
X157888571Y-64586428D01*
X157939047Y-64586428D01*
X158317619Y-64914523D02*
X158267142Y-64939761D01*
X158166190Y-64939761D01*
X158115714Y-64914523D01*
X158090476Y-64864047D01*
X158090476Y-64662142D01*
X158115714Y-64611666D01*
X158166190Y-64586428D01*
X158267142Y-64586428D01*
X158317619Y-64611666D01*
X158342857Y-64662142D01*
X158342857Y-64712619D01*
X158090476Y-64763095D01*
X158797142Y-64939761D02*
X158797142Y-64662142D01*
X158771904Y-64611666D01*
X158721428Y-64586428D01*
X158620476Y-64586428D01*
X158570000Y-64611666D01*
X158797142Y-64914523D02*
X158746666Y-64939761D01*
X158620476Y-64939761D01*
X158570000Y-64914523D01*
X158544761Y-64864047D01*
X158544761Y-64813571D01*
X158570000Y-64763095D01*
X158620476Y-64737857D01*
X158746666Y-64737857D01*
X158797142Y-64712619D01*
X159276666Y-64939761D02*
X159276666Y-64409761D01*
X159276666Y-64914523D02*
X159226190Y-64939761D01*
X159125238Y-64939761D01*
X159074761Y-64914523D01*
X159049523Y-64889285D01*
X159024285Y-64838809D01*
X159024285Y-64687380D01*
X159049523Y-64636904D01*
X159074761Y-64611666D01*
X159125238Y-64586428D01*
X159226190Y-64586428D01*
X159276666Y-64611666D01*
X161497619Y-64586428D02*
X161598571Y-64939761D01*
X161699523Y-64687380D01*
X161800476Y-64939761D01*
X161901428Y-64586428D01*
X162103333Y-64939761D02*
X162103333Y-64586428D01*
X162103333Y-64687380D02*
X162128571Y-64636904D01*
X162153809Y-64611666D01*
X162204285Y-64586428D01*
X162254761Y-64586428D01*
X162431428Y-64939761D02*
X162431428Y-64586428D01*
X162431428Y-64409761D02*
X162406190Y-64435000D01*
X162431428Y-64460238D01*
X162456666Y-64435000D01*
X162431428Y-64409761D01*
X162431428Y-64460238D01*
X162608095Y-64586428D02*
X162810000Y-64586428D01*
X162683809Y-64409761D02*
X162683809Y-64864047D01*
X162709047Y-64914523D01*
X162759523Y-64939761D01*
X162810000Y-64939761D01*
X163188571Y-64914523D02*
X163138095Y-64939761D01*
X163037142Y-64939761D01*
X162986666Y-64914523D01*
X162961428Y-64864047D01*
X162961428Y-64662142D01*
X162986666Y-64611666D01*
X163037142Y-64586428D01*
X163138095Y-64586428D01*
X163188571Y-64611666D01*
X163213809Y-64662142D01*
X163213809Y-64712619D01*
X162961428Y-64763095D01*
X165409523Y-64586428D02*
X165510476Y-64939761D01*
X165611428Y-64687380D01*
X165712380Y-64939761D01*
X165813333Y-64586428D01*
X166015238Y-64939761D02*
X166015238Y-64586428D01*
X166015238Y-64687380D02*
X166040476Y-64636904D01*
X166065714Y-64611666D01*
X166116190Y-64586428D01*
X166166666Y-64586428D01*
X166343333Y-64939761D02*
X166343333Y-64586428D01*
X166343333Y-64409761D02*
X166318095Y-64435000D01*
X166343333Y-64460238D01*
X166368571Y-64435000D01*
X166343333Y-64409761D01*
X166343333Y-64460238D01*
X166520000Y-64586428D02*
X166721904Y-64586428D01*
X166595714Y-64409761D02*
X166595714Y-64864047D01*
X166620952Y-64914523D01*
X166671428Y-64939761D01*
X166721904Y-64939761D01*
X167100476Y-64914523D02*
X167050000Y-64939761D01*
X166949047Y-64939761D01*
X166898571Y-64914523D01*
X166873333Y-64864047D01*
X166873333Y-64662142D01*
X166898571Y-64611666D01*
X166949047Y-64586428D01*
X167050000Y-64586428D01*
X167100476Y-64611666D01*
X167125714Y-64662142D01*
X167125714Y-64712619D01*
X166873333Y-64763095D01*
X169321428Y-64586428D02*
X169422380Y-64939761D01*
X169523333Y-64687380D01*
X169624285Y-64939761D01*
X169725238Y-64586428D01*
X169927142Y-64939761D02*
X169927142Y-64586428D01*
X169927142Y-64687380D02*
X169952380Y-64636904D01*
X169977619Y-64611666D01*
X170028095Y-64586428D01*
X170078571Y-64586428D01*
X170255238Y-64939761D02*
X170255238Y-64586428D01*
X170255238Y-64409761D02*
X170230000Y-64435000D01*
X170255238Y-64460238D01*
X170280476Y-64435000D01*
X170255238Y-64409761D01*
X170255238Y-64460238D01*
X170431904Y-64586428D02*
X170633809Y-64586428D01*
X170507619Y-64409761D02*
X170507619Y-64864047D01*
X170532857Y-64914523D01*
X170583333Y-64939761D01*
X170633809Y-64939761D01*
X171012380Y-64914523D02*
X170961904Y-64939761D01*
X170860952Y-64939761D01*
X170810476Y-64914523D01*
X170785238Y-64864047D01*
X170785238Y-64662142D01*
X170810476Y-64611666D01*
X170860952Y-64586428D01*
X170961904Y-64586428D01*
X171012380Y-64611666D01*
X171037619Y-64662142D01*
X171037619Y-64712619D01*
X170785238Y-64763095D01*
X157850714Y-64189761D02*
X157850714Y-63659761D01*
X157850714Y-64164523D02*
X157800238Y-64189761D01*
X157699285Y-64189761D01*
X157648809Y-64164523D01*
X157623571Y-64139285D01*
X157598333Y-64088809D01*
X157598333Y-63937380D01*
X157623571Y-63886904D01*
X157648809Y-63861666D01*
X157699285Y-63836428D01*
X157800238Y-63836428D01*
X157850714Y-63861666D01*
X157976904Y-64240238D02*
X158380714Y-64240238D01*
X158506904Y-64189761D02*
X158506904Y-63659761D01*
X158506904Y-63861666D02*
X158557380Y-63836428D01*
X158658333Y-63836428D01*
X158708809Y-63861666D01*
X158734047Y-63886904D01*
X158759285Y-63937380D01*
X158759285Y-64088809D01*
X158734047Y-64139285D01*
X158708809Y-64164523D01*
X158658333Y-64189761D01*
X158557380Y-64189761D01*
X158506904Y-64164523D01*
X159213571Y-63836428D02*
X159213571Y-64189761D01*
X158986428Y-63836428D02*
X158986428Y-64114047D01*
X159011666Y-64164523D01*
X159062142Y-64189761D01*
X159137857Y-64189761D01*
X159188333Y-64164523D01*
X159213571Y-64139285D01*
X159440714Y-64164523D02*
X159491190Y-64189761D01*
X159592142Y-64189761D01*
X159642619Y-64164523D01*
X159667857Y-64114047D01*
X159667857Y-64088809D01*
X159642619Y-64038333D01*
X159592142Y-64013095D01*
X159516428Y-64013095D01*
X159465952Y-63987857D01*
X159440714Y-63937380D01*
X159440714Y-63912142D01*
X159465952Y-63861666D01*
X159516428Y-63836428D01*
X159592142Y-63836428D01*
X159642619Y-63861666D01*
X161737380Y-64189761D02*
X161737380Y-63659761D01*
X161737380Y-64164523D02*
X161686904Y-64189761D01*
X161585952Y-64189761D01*
X161535476Y-64164523D01*
X161510238Y-64139285D01*
X161485000Y-64088809D01*
X161485000Y-63937380D01*
X161510238Y-63886904D01*
X161535476Y-63861666D01*
X161585952Y-63836428D01*
X161686904Y-63836428D01*
X161737380Y-63861666D01*
X161863571Y-64240238D02*
X162267380Y-64240238D01*
X162393571Y-64189761D02*
X162393571Y-63659761D01*
X162393571Y-63861666D02*
X162444047Y-63836428D01*
X162545000Y-63836428D01*
X162595476Y-63861666D01*
X162620714Y-63886904D01*
X162645952Y-63937380D01*
X162645952Y-64088809D01*
X162620714Y-64139285D01*
X162595476Y-64164523D01*
X162545000Y-64189761D01*
X162444047Y-64189761D01*
X162393571Y-64164523D01*
X163100238Y-63836428D02*
X163100238Y-64189761D01*
X162873095Y-63836428D02*
X162873095Y-64114047D01*
X162898333Y-64164523D01*
X162948809Y-64189761D01*
X163024523Y-64189761D01*
X163075000Y-64164523D01*
X163100238Y-64139285D01*
X163327380Y-64164523D02*
X163377857Y-64189761D01*
X163478809Y-64189761D01*
X163529285Y-64164523D01*
X163554523Y-64114047D01*
X163554523Y-64088809D01*
X163529285Y-64038333D01*
X163478809Y-64013095D01*
X163403095Y-64013095D01*
X163352619Y-63987857D01*
X163327380Y-63937380D01*
X163327380Y-63912142D01*
X163352619Y-63861666D01*
X163403095Y-63836428D01*
X163478809Y-63836428D01*
X163529285Y-63861666D01*
X165346428Y-63836428D02*
X165472619Y-64189761D01*
X165598809Y-63836428D02*
X165472619Y-64189761D01*
X165422142Y-64315952D01*
X165396904Y-64341190D01*
X165346428Y-64366428D01*
X165674523Y-64240238D02*
X166078333Y-64240238D01*
X166204523Y-64189761D02*
X166204523Y-63659761D01*
X166204523Y-63861666D02*
X166255000Y-63836428D01*
X166355952Y-63836428D01*
X166406428Y-63861666D01*
X166431666Y-63886904D01*
X166456904Y-63937380D01*
X166456904Y-64088809D01*
X166431666Y-64139285D01*
X166406428Y-64164523D01*
X166355952Y-64189761D01*
X166255000Y-64189761D01*
X166204523Y-64164523D01*
X166911190Y-63836428D02*
X166911190Y-64189761D01*
X166684047Y-63836428D02*
X166684047Y-64114047D01*
X166709285Y-64164523D01*
X166759761Y-64189761D01*
X166835476Y-64189761D01*
X166885952Y-64164523D01*
X166911190Y-64139285D01*
X167138333Y-64164523D02*
X167188809Y-64189761D01*
X167289761Y-64189761D01*
X167340238Y-64164523D01*
X167365476Y-64114047D01*
X167365476Y-64088809D01*
X167340238Y-64038333D01*
X167289761Y-64013095D01*
X167214047Y-64013095D01*
X167163571Y-63987857D01*
X167138333Y-63937380D01*
X167138333Y-63912142D01*
X167163571Y-63861666D01*
X167214047Y-63836428D01*
X167289761Y-63836428D01*
X167340238Y-63861666D01*
X169157380Y-64189761D02*
X169435000Y-63836428D01*
X169157380Y-63836428D02*
X169435000Y-64189761D01*
X169510714Y-64240238D02*
X169914523Y-64240238D01*
X170040714Y-64189761D02*
X170040714Y-63659761D01*
X170040714Y-63861666D02*
X170091190Y-63836428D01*
X170192142Y-63836428D01*
X170242619Y-63861666D01*
X170267857Y-63886904D01*
X170293095Y-63937380D01*
X170293095Y-64088809D01*
X170267857Y-64139285D01*
X170242619Y-64164523D01*
X170192142Y-64189761D01*
X170091190Y-64189761D01*
X170040714Y-64164523D01*
X170747380Y-63836428D02*
X170747380Y-64189761D01*
X170520238Y-63836428D02*
X170520238Y-64114047D01*
X170545476Y-64164523D01*
X170595952Y-64189761D01*
X170671666Y-64189761D01*
X170722142Y-64164523D01*
X170747380Y-64139285D01*
X170974523Y-64164523D02*
X171025000Y-64189761D01*
X171125952Y-64189761D01*
X171176428Y-64164523D01*
X171201666Y-64114047D01*
X171201666Y-64088809D01*
X171176428Y-64038333D01*
X171125952Y-64013095D01*
X171050238Y-64013095D01*
X170999761Y-63987857D01*
X170974523Y-63937380D01*
X170974523Y-63912142D01*
X170999761Y-63861666D01*
X171050238Y-63836428D01*
X171125952Y-63836428D01*
X171176428Y-63861666D01*
D10*
X93631904Y-64383809D02*
X93197619Y-64383809D01*
X93414761Y-64383809D02*
X93414761Y-63623809D01*
X93342380Y-63732380D01*
X93270000Y-63804761D01*
X93197619Y-63840952D01*
X94319523Y-63623809D02*
X93957619Y-63623809D01*
X93921428Y-63985714D01*
X93957619Y-63949523D01*
X94030000Y-63913333D01*
X94210952Y-63913333D01*
X94283333Y-63949523D01*
X94319523Y-63985714D01*
X94355714Y-64058095D01*
X94355714Y-64239047D01*
X94319523Y-64311428D01*
X94283333Y-64347619D01*
X94210952Y-64383809D01*
X94030000Y-64383809D01*
X93957619Y-64347619D01*
X93921428Y-64311428D01*
X97395714Y-64383809D02*
X96961428Y-64383809D01*
X97178571Y-64383809D02*
X97178571Y-63623809D01*
X97106190Y-63732380D01*
X97033809Y-63804761D01*
X96961428Y-63840952D01*
X98047142Y-63877142D02*
X98047142Y-64383809D01*
X97866190Y-63587619D02*
X97685238Y-64130476D01*
X98155714Y-64130476D01*
X101159523Y-64383809D02*
X100725238Y-64383809D01*
X100942380Y-64383809D02*
X100942380Y-63623809D01*
X100870000Y-63732380D01*
X100797619Y-63804761D01*
X100725238Y-63840952D01*
X101412857Y-63623809D02*
X101883333Y-63623809D01*
X101630000Y-63913333D01*
X101738571Y-63913333D01*
X101810952Y-63949523D01*
X101847142Y-63985714D01*
X101883333Y-64058095D01*
X101883333Y-64239047D01*
X101847142Y-64311428D01*
X101810952Y-64347619D01*
X101738571Y-64383809D01*
X101521428Y-64383809D01*
X101449047Y-64347619D01*
X101412857Y-64311428D01*
X104923333Y-64383809D02*
X104489047Y-64383809D01*
X104706190Y-64383809D02*
X104706190Y-63623809D01*
X104633809Y-63732380D01*
X104561428Y-63804761D01*
X104489047Y-63840952D01*
X105212857Y-63696190D02*
X105249047Y-63660000D01*
X105321428Y-63623809D01*
X105502380Y-63623809D01*
X105574761Y-63660000D01*
X105610952Y-63696190D01*
X105647142Y-63768571D01*
X105647142Y-63840952D01*
X105610952Y-63949523D01*
X105176666Y-64383809D01*
X105647142Y-64383809D01*
X108687142Y-64383809D02*
X108252857Y-64383809D01*
X108470000Y-64383809D02*
X108470000Y-63623809D01*
X108397619Y-63732380D01*
X108325238Y-63804761D01*
X108252857Y-63840952D01*
X109410952Y-64383809D02*
X108976666Y-64383809D01*
X109193809Y-64383809D02*
X109193809Y-63623809D01*
X109121428Y-63732380D01*
X109049047Y-63804761D01*
X108976666Y-63840952D01*
X112450952Y-64383809D02*
X112016666Y-64383809D01*
X112233809Y-64383809D02*
X112233809Y-63623809D01*
X112161428Y-63732380D01*
X112089047Y-63804761D01*
X112016666Y-63840952D01*
X112921428Y-63623809D02*
X112993809Y-63623809D01*
X113066190Y-63660000D01*
X113102380Y-63696190D01*
X113138571Y-63768571D01*
X113174761Y-63913333D01*
X113174761Y-64094285D01*
X113138571Y-64239047D01*
X113102380Y-64311428D01*
X113066190Y-64347619D01*
X112993809Y-64383809D01*
X112921428Y-64383809D01*
X112849047Y-64347619D01*
X112812857Y-64311428D01*
X112776666Y-64239047D01*
X112740476Y-64094285D01*
X112740476Y-63913333D01*
X112776666Y-63768571D01*
X112812857Y-63696190D01*
X112849047Y-63660000D01*
X112921428Y-63623809D01*
X115961428Y-63623809D02*
X116033809Y-63623809D01*
X116106190Y-63660000D01*
X116142380Y-63696190D01*
X116178571Y-63768571D01*
X116214761Y-63913333D01*
X116214761Y-64094285D01*
X116178571Y-64239047D01*
X116142380Y-64311428D01*
X116106190Y-64347619D01*
X116033809Y-64383809D01*
X115961428Y-64383809D01*
X115889047Y-64347619D01*
X115852857Y-64311428D01*
X115816666Y-64239047D01*
X115780476Y-64094285D01*
X115780476Y-63913333D01*
X115816666Y-63768571D01*
X115852857Y-63696190D01*
X115889047Y-63660000D01*
X115961428Y-63623809D01*
X116576666Y-64383809D02*
X116721428Y-64383809D01*
X116793809Y-64347619D01*
X116830000Y-64311428D01*
X116902380Y-64202857D01*
X116938571Y-64058095D01*
X116938571Y-63768571D01*
X116902380Y-63696190D01*
X116866190Y-63660000D01*
X116793809Y-63623809D01*
X116649047Y-63623809D01*
X116576666Y-63660000D01*
X116540476Y-63696190D01*
X116504285Y-63768571D01*
X116504285Y-63949523D01*
X116540476Y-64021904D01*
X116576666Y-64058095D01*
X116649047Y-64094285D01*
X116793809Y-64094285D01*
X116866190Y-64058095D01*
X116902380Y-64021904D01*
X116938571Y-63949523D01*
X119725238Y-63623809D02*
X119797619Y-63623809D01*
X119870000Y-63660000D01*
X119906190Y-63696190D01*
X119942380Y-63768571D01*
X119978571Y-63913333D01*
X119978571Y-64094285D01*
X119942380Y-64239047D01*
X119906190Y-64311428D01*
X119870000Y-64347619D01*
X119797619Y-64383809D01*
X119725238Y-64383809D01*
X119652857Y-64347619D01*
X119616666Y-64311428D01*
X119580476Y-64239047D01*
X119544285Y-64094285D01*
X119544285Y-63913333D01*
X119580476Y-63768571D01*
X119616666Y-63696190D01*
X119652857Y-63660000D01*
X119725238Y-63623809D01*
X120412857Y-63949523D02*
X120340476Y-63913333D01*
X120304285Y-63877142D01*
X120268095Y-63804761D01*
X120268095Y-63768571D01*
X120304285Y-63696190D01*
X120340476Y-63660000D01*
X120412857Y-63623809D01*
X120557619Y-63623809D01*
X120630000Y-63660000D01*
X120666190Y-63696190D01*
X120702380Y-63768571D01*
X120702380Y-63804761D01*
X120666190Y-63877142D01*
X120630000Y-63913333D01*
X120557619Y-63949523D01*
X120412857Y-63949523D01*
X120340476Y-63985714D01*
X120304285Y-64021904D01*
X120268095Y-64094285D01*
X120268095Y-64239047D01*
X120304285Y-64311428D01*
X120340476Y-64347619D01*
X120412857Y-64383809D01*
X120557619Y-64383809D01*
X120630000Y-64347619D01*
X120666190Y-64311428D01*
X120702380Y-64239047D01*
X120702380Y-64094285D01*
X120666190Y-64021904D01*
X120630000Y-63985714D01*
X120557619Y-63949523D01*
D12*
X186300000Y-64000000D02*
X186300000Y-58991000D01*
X191300000Y-64000000D02*
X186300000Y-64000000D01*
X191300000Y-58991000D02*
X191300000Y-64000000D01*
X186300000Y-58991000D02*
X191300000Y-58991000D01*
X177292857Y-59050000D02*
X177150000Y-58978571D01*
X176935714Y-58978571D01*
X176721428Y-59050000D01*
X176578571Y-59192857D01*
X176507142Y-59335714D01*
X176435714Y-59621428D01*
X176435714Y-59835714D01*
X176507142Y-60121428D01*
X176578571Y-60264285D01*
X176721428Y-60407142D01*
X176935714Y-60478571D01*
X177078571Y-60478571D01*
X177292857Y-60407142D01*
X177364285Y-60335714D01*
X177364285Y-59835714D01*
X177078571Y-59835714D01*
X178578571Y-60407142D02*
X178435714Y-60478571D01*
X178150000Y-60478571D01*
X178007142Y-60407142D01*
X177935714Y-60264285D01*
X177935714Y-59692857D01*
X178007142Y-59550000D01*
X178150000Y-59478571D01*
X178435714Y-59478571D01*
X178578571Y-59550000D01*
X178650000Y-59692857D01*
X178650000Y-59835714D01*
X177935714Y-59978571D01*
X179292857Y-59478571D02*
X179292857Y-60478571D01*
X179292857Y-59621428D02*
X179364285Y-59550000D01*
X179507142Y-59478571D01*
X179721428Y-59478571D01*
X179864285Y-59550000D01*
X179935714Y-59692857D01*
X179935714Y-60478571D01*
X181221428Y-60407142D02*
X181078571Y-60478571D01*
X180792857Y-60478571D01*
X180650000Y-60407142D01*
X180578571Y-60264285D01*
X180578571Y-59692857D01*
X180650000Y-59550000D01*
X180792857Y-59478571D01*
X181078571Y-59478571D01*
X181221428Y-59550000D01*
X181292857Y-59692857D01*
X181292857Y-59835714D01*
X180578571Y-59978571D01*
X181935714Y-60478571D02*
X181935714Y-59478571D01*
X181935714Y-59764285D02*
X182007142Y-59621428D01*
X182078571Y-59550000D01*
X182221428Y-59478571D01*
X182364285Y-59478571D01*
X183507142Y-60478571D02*
X183507142Y-59692857D01*
X183435714Y-59550000D01*
X183292857Y-59478571D01*
X183007142Y-59478571D01*
X182864285Y-59550000D01*
X183507142Y-60407142D02*
X183364285Y-60478571D01*
X183007142Y-60478571D01*
X182864285Y-60407142D01*
X182792857Y-60264285D01*
X182792857Y-60121428D01*
X182864285Y-59978571D01*
X183007142Y-59907142D01*
X183364285Y-59907142D01*
X183507142Y-59835714D01*
X184435714Y-60478571D02*
X184292857Y-60407142D01*
X184221428Y-60264285D01*
X184221428Y-58978571D01*
X176257142Y-62878571D02*
X176257142Y-61378571D01*
X176828571Y-61378571D01*
X176971428Y-61450000D01*
X177042857Y-61521428D01*
X177114285Y-61664285D01*
X177114285Y-61878571D01*
X177042857Y-62021428D01*
X176971428Y-62092857D01*
X176828571Y-62164285D01*
X176257142Y-62164285D01*
X178400000Y-61878571D02*
X178400000Y-62878571D01*
X177757142Y-61878571D02*
X177757142Y-62664285D01*
X177828571Y-62807142D01*
X177971428Y-62878571D01*
X178185714Y-62878571D01*
X178328571Y-62807142D01*
X178400000Y-62735714D01*
X179114285Y-62878571D02*
X179114285Y-61878571D01*
X179114285Y-62164285D02*
X179185714Y-62021428D01*
X179257142Y-61950000D01*
X179400000Y-61878571D01*
X179542857Y-61878571D01*
X180042857Y-61878571D02*
X180042857Y-63378571D01*
X180042857Y-61950000D02*
X180185714Y-61878571D01*
X180471428Y-61878571D01*
X180614285Y-61950000D01*
X180685714Y-62021428D01*
X180757142Y-62164285D01*
X180757142Y-62592857D01*
X180685714Y-62735714D01*
X180614285Y-62807142D01*
X180471428Y-62878571D01*
X180185714Y-62878571D01*
X180042857Y-62807142D01*
X181614285Y-62878571D02*
X181471428Y-62807142D01*
X181400000Y-62735714D01*
X181328571Y-62592857D01*
X181328571Y-62164285D01*
X181400000Y-62021428D01*
X181471428Y-61950000D01*
X181614285Y-61878571D01*
X181828571Y-61878571D01*
X181971428Y-61950000D01*
X182042857Y-62021428D01*
X182114285Y-62164285D01*
X182114285Y-62592857D01*
X182042857Y-62735714D01*
X181971428Y-62807142D01*
X181828571Y-62878571D01*
X181614285Y-62878571D01*
X182685714Y-62807142D02*
X182828571Y-62878571D01*
X183114285Y-62878571D01*
X183257142Y-62807142D01*
X183328571Y-62664285D01*
X183328571Y-62592857D01*
X183257142Y-62450000D01*
X183114285Y-62378571D01*
X182900000Y-62378571D01*
X182757142Y-62307142D01*
X182685714Y-62164285D01*
X182685714Y-62092857D01*
X182757142Y-61950000D01*
X182900000Y-61878571D01*
X183114285Y-61878571D01*
X183257142Y-61950000D01*
X184542857Y-62807142D02*
X184400000Y-62878571D01*
X184114285Y-62878571D01*
X183971428Y-62807142D01*
X183900000Y-62664285D01*
X183900000Y-62092857D01*
X183971428Y-61950000D01*
X184114285Y-61878571D01*
X184400000Y-61878571D01*
X184542857Y-61950000D01*
X184614285Y-62092857D01*
X184614285Y-62235714D01*
X183900000Y-62378571D01*
X177042857Y-65278571D02*
X176542857Y-64564285D01*
X176185714Y-65278571D02*
X176185714Y-63778571D01*
X176757142Y-63778571D01*
X176900000Y-63850000D01*
X176971428Y-63921428D01*
X177042857Y-64064285D01*
X177042857Y-64278571D01*
X176971428Y-64421428D01*
X176900000Y-64492857D01*
X176757142Y-64564285D01*
X176185714Y-64564285D01*
X178257142Y-65207142D02*
X178114285Y-65278571D01*
X177828571Y-65278571D01*
X177685714Y-65207142D01*
X177614285Y-65064285D01*
X177614285Y-64492857D01*
X177685714Y-64350000D01*
X177828571Y-64278571D01*
X178114285Y-64278571D01*
X178257142Y-64350000D01*
X178328571Y-64492857D01*
X178328571Y-64635714D01*
X177614285Y-64778571D01*
X179614285Y-64278571D02*
X179614285Y-65492857D01*
X179542857Y-65635714D01*
X179471428Y-65707142D01*
X179328571Y-65778571D01*
X179114285Y-65778571D01*
X178971428Y-65707142D01*
X179614285Y-65207142D02*
X179471428Y-65278571D01*
X179185714Y-65278571D01*
X179042857Y-65207142D01*
X178971428Y-65135714D01*
X178900000Y-64992857D01*
X178900000Y-64564285D01*
X178971428Y-64421428D01*
X179042857Y-64350000D01*
X179185714Y-64278571D01*
X179471428Y-64278571D01*
X179614285Y-64350000D01*
X180328571Y-65278571D02*
X180328571Y-64278571D01*
X180328571Y-63778571D02*
X180257142Y-63850000D01*
X180328571Y-63921428D01*
X180400000Y-63850000D01*
X180328571Y-63778571D01*
X180328571Y-63921428D01*
X180971428Y-65207142D02*
X181114285Y-65278571D01*
X181400000Y-65278571D01*
X181542857Y-65207142D01*
X181614285Y-65064285D01*
X181614285Y-64992857D01*
X181542857Y-64850000D01*
X181400000Y-64778571D01*
X181185714Y-64778571D01*
X181042857Y-64707142D01*
X180971428Y-64564285D01*
X180971428Y-64492857D01*
X181042857Y-64350000D01*
X181185714Y-64278571D01*
X181400000Y-64278571D01*
X181542857Y-64350000D01*
X182042857Y-64278571D02*
X182614285Y-64278571D01*
X182257142Y-63778571D02*
X182257142Y-65064285D01*
X182328571Y-65207142D01*
X182471428Y-65278571D01*
X182614285Y-65278571D01*
X183685714Y-65207142D02*
X183542857Y-65278571D01*
X183257142Y-65278571D01*
X183114285Y-65207142D01*
X183042857Y-65064285D01*
X183042857Y-64492857D01*
X183114285Y-64350000D01*
X183257142Y-64278571D01*
X183542857Y-64278571D01*
X183685714Y-64350000D01*
X183757142Y-64492857D01*
X183757142Y-64635714D01*
X183042857Y-64778571D01*
X184400000Y-65278571D02*
X184400000Y-64278571D01*
X184400000Y-64564285D02*
X184471428Y-64421428D01*
X184542857Y-64350000D01*
X184685714Y-64278571D01*
X184828571Y-64278571D01*
D11*
X183036857Y-71446238D02*
X182989238Y-71422428D01*
X182894000Y-71422428D01*
X182846380Y-71446238D01*
X182798761Y-71493857D01*
X182774952Y-71541476D01*
X182774952Y-71636714D01*
X182798761Y-71684333D01*
X182846380Y-71731952D01*
X182894000Y-71755761D01*
X182989238Y-71755761D01*
X183036857Y-71731952D01*
X182941619Y-71255761D02*
X182822571Y-71279571D01*
X182703523Y-71351000D01*
X182632095Y-71470047D01*
X182608285Y-71589095D01*
X182632095Y-71708142D01*
X182703523Y-71827190D01*
X182822571Y-71898619D01*
X182941619Y-71922428D01*
X183060666Y-71898619D01*
X183179714Y-71827190D01*
X183251142Y-71708142D01*
X183274952Y-71589095D01*
X183251142Y-71470047D01*
X183179714Y-71351000D01*
X183060666Y-71279571D01*
X182941619Y-71255761D01*
X183846380Y-71374809D02*
X183870190Y-71351000D01*
X183917809Y-71327190D01*
X184036857Y-71327190D01*
X184084476Y-71351000D01*
X184108285Y-71374809D01*
X184132095Y-71422428D01*
X184132095Y-71470047D01*
X184108285Y-71541476D01*
X183822571Y-71827190D01*
X184132095Y-71827190D01*
X184441619Y-71327190D02*
X184489238Y-71327190D01*
X184536857Y-71351000D01*
X184560666Y-71374809D01*
X184584476Y-71422428D01*
X184608285Y-71517666D01*
X184608285Y-71636714D01*
X184584476Y-71731952D01*
X184560666Y-71779571D01*
X184536857Y-71803380D01*
X184489238Y-71827190D01*
X184441619Y-71827190D01*
X184394000Y-71803380D01*
X184370190Y-71779571D01*
X184346380Y-71731952D01*
X184322571Y-71636714D01*
X184322571Y-71517666D01*
X184346380Y-71422428D01*
X184370190Y-71374809D01*
X184394000Y-71351000D01*
X184441619Y-71327190D01*
X184798761Y-71374809D02*
X184822571Y-71351000D01*
X184870190Y-71327190D01*
X184989238Y-71327190D01*
X185036857Y-71351000D01*
X185060666Y-71374809D01*
X185084476Y-71422428D01*
X185084476Y-71470047D01*
X185060666Y-71541476D01*
X184774952Y-71827190D01*
X185084476Y-71827190D01*
X185394000Y-71327190D02*
X185441619Y-71327190D01*
X185489238Y-71351000D01*
X185513047Y-71374809D01*
X185536857Y-71422428D01*
X185560666Y-71517666D01*
X185560666Y-71636714D01*
X185536857Y-71731952D01*
X185513047Y-71779571D01*
X185489238Y-71803380D01*
X185441619Y-71827190D01*
X185394000Y-71827190D01*
X185346380Y-71803380D01*
X185322571Y-71779571D01*
X185298761Y-71731952D01*
X185274952Y-71636714D01*
X185274952Y-71517666D01*
X185298761Y-71422428D01*
X185322571Y-71374809D01*
X185346380Y-71351000D01*
X185394000Y-71327190D01*
X186441619Y-71779571D02*
X186417809Y-71803380D01*
X186346380Y-71827190D01*
X186298761Y-71827190D01*
X186227333Y-71803380D01*
X186179714Y-71755761D01*
X186155904Y-71708142D01*
X186132095Y-71612904D01*
X186132095Y-71541476D01*
X186155904Y-71446238D01*
X186179714Y-71398619D01*
X186227333Y-71351000D01*
X186298761Y-71327190D01*
X186346380Y-71327190D01*
X186417809Y-71351000D01*
X186441619Y-71374809D01*
X186655904Y-71827190D02*
X186655904Y-71327190D01*
X186870190Y-71827190D02*
X186870190Y-71565285D01*
X186846380Y-71517666D01*
X186798761Y-71493857D01*
X186727333Y-71493857D01*
X186679714Y-71517666D01*
X186655904Y-71541476D01*
X187322571Y-71827190D02*
X187322571Y-71565285D01*
X187298761Y-71517666D01*
X187251142Y-71493857D01*
X187155904Y-71493857D01*
X187108285Y-71517666D01*
X187322571Y-71803380D02*
X187274952Y-71827190D01*
X187155904Y-71827190D01*
X187108285Y-71803380D01*
X187084476Y-71755761D01*
X187084476Y-71708142D01*
X187108285Y-71660523D01*
X187155904Y-71636714D01*
X187274952Y-71636714D01*
X187322571Y-71612904D01*
X187774952Y-71827190D02*
X187774952Y-71327190D01*
X187774952Y-71803380D02*
X187727333Y-71827190D01*
X187632095Y-71827190D01*
X187584476Y-71803380D01*
X187560666Y-71779571D01*
X187536857Y-71731952D01*
X187536857Y-71589095D01*
X187560666Y-71541476D01*
X187584476Y-71517666D01*
X187632095Y-71493857D01*
X187727333Y-71493857D01*
X187774952Y-71517666D01*
X188679714Y-71827190D02*
X188513047Y-71589095D01*
X188394000Y-71827190D02*
X188394000Y-71327190D01*
X188584476Y-71327190D01*
X188632095Y-71351000D01*
X188655904Y-71374809D01*
X188679714Y-71422428D01*
X188679714Y-71493857D01*
X188655904Y-71541476D01*
X188632095Y-71565285D01*
X188584476Y-71589095D01*
X188394000Y-71589095D01*
X189084476Y-71803380D02*
X189036857Y-71827190D01*
X188941619Y-71827190D01*
X188894000Y-71803380D01*
X188870190Y-71755761D01*
X188870190Y-71565285D01*
X188894000Y-71517666D01*
X188941619Y-71493857D01*
X189036857Y-71493857D01*
X189084476Y-71517666D01*
X189108285Y-71565285D01*
X189108285Y-71612904D01*
X188870190Y-71660523D01*
X189322571Y-71827190D02*
X189322571Y-71493857D01*
X189322571Y-71541476D02*
X189346380Y-71517666D01*
X189394000Y-71493857D01*
X189465428Y-71493857D01*
X189513047Y-71517666D01*
X189536857Y-71565285D01*
X189536857Y-71827190D01*
X189536857Y-71565285D02*
X189560666Y-71517666D01*
X189608285Y-71493857D01*
X189679714Y-71493857D01*
X189727333Y-71517666D01*
X189751142Y-71565285D01*
X189751142Y-71827190D01*
X189989238Y-71493857D02*
X189989238Y-71993857D01*
X189989238Y-71517666D02*
X190036857Y-71493857D01*
X190132095Y-71493857D01*
X190179714Y-71517666D01*
X190203523Y-71541476D01*
X190227333Y-71589095D01*
X190227333Y-71731952D01*
X190203523Y-71779571D01*
X190179714Y-71803380D01*
X190132095Y-71827190D01*
X190036857Y-71827190D01*
X189989238Y-71803380D01*
X190441619Y-71493857D02*
X190441619Y-71993857D01*
X190441619Y-71517666D02*
X190489238Y-71493857D01*
X190584476Y-71493857D01*
X190632095Y-71517666D01*
X190655904Y-71541476D01*
X190679714Y-71589095D01*
X190679714Y-71731952D01*
X190655904Y-71779571D01*
X190632095Y-71803380D01*
X190584476Y-71827190D01*
X190489238Y-71827190D01*
X190441619Y-71803380D01*
D12*
X182386000Y-69596714D02*
X182314571Y-69668142D01*
X182100285Y-69739571D01*
X181957428Y-69739571D01*
X181743142Y-69668142D01*
X181600285Y-69525285D01*
X181528857Y-69382428D01*
X181457428Y-69096714D01*
X181457428Y-68882428D01*
X181528857Y-68596714D01*
X181600285Y-68453857D01*
X181743142Y-68311000D01*
X181957428Y-68239571D01*
X182100285Y-68239571D01*
X182314571Y-68311000D01*
X182386000Y-68382428D01*
X183028857Y-69739571D02*
X183028857Y-68239571D01*
X183600285Y-68239571D01*
X183743142Y-68311000D01*
X183814571Y-68382428D01*
X183886000Y-68525285D01*
X183886000Y-68739571D01*
X183814571Y-68882428D01*
X183743142Y-68953857D01*
X183600285Y-69025285D01*
X183028857Y-69025285D01*
X184528857Y-68239571D02*
X184528857Y-69453857D01*
X184600285Y-69596714D01*
X184671714Y-69668142D01*
X184814571Y-69739571D01*
X185100285Y-69739571D01*
X185243142Y-69668142D01*
X185314571Y-69596714D01*
X185386000Y-69453857D01*
X185386000Y-68239571D01*
X187886000Y-68739571D02*
X187886000Y-69739571D01*
X187243142Y-68739571D02*
X187243142Y-69525285D01*
X187314571Y-69668142D01*
X187457428Y-69739571D01*
X187671714Y-69739571D01*
X187814571Y-69668142D01*
X187886000Y-69596714D01*
X189386000Y-69739571D02*
X188528857Y-69739571D01*
X188957428Y-69739571D02*
X188957428Y-68239571D01*
X188814571Y-68453857D01*
X188671714Y-68596714D01*
X188528857Y-68668142D01*
X190671714Y-68239571D02*
X190386000Y-68239571D01*
X190243142Y-68311000D01*
X190171714Y-68382428D01*
X190028857Y-68596714D01*
X189957428Y-68882428D01*
X189957428Y-69453857D01*
X190028857Y-69596714D01*
X190100285Y-69668142D01*
X190243142Y-69739571D01*
X190528857Y-69739571D01*
X190671714Y-69668142D01*
X190743142Y-69596714D01*
X190814571Y-69453857D01*
X190814571Y-69096714D01*
X190743142Y-68953857D01*
X190671714Y-68882428D01*
X190528857Y-68811000D01*
X190243142Y-68811000D01*
X190100285Y-68882428D01*
X190028857Y-68953857D01*
X189957428Y-69096714D01*
D13*
G36*
X175799744Y-71419918D02*
G01*
X175855201Y-71447568D01*
X175904148Y-71498480D01*
X175917629Y-71517338D01*
X175932314Y-71542015D01*
X175941842Y-71568816D01*
X175947293Y-71604587D01*
X175949747Y-71656169D01*
X175950286Y-71724267D01*
X175947852Y-71817588D01*
X175939394Y-71887657D01*
X175923174Y-71939931D01*
X175897454Y-71979869D01*
X175860497Y-72012929D01*
X175857782Y-72014886D01*
X175821360Y-72034908D01*
X175777502Y-72044815D01*
X175721724Y-72047257D01*
X175631048Y-72047257D01*
X175631010Y-72135283D01*
X175630166Y-72184308D01*
X175625024Y-72213065D01*
X175611587Y-72230311D01*
X175585858Y-72244808D01*
X175579679Y-72247769D01*
X175550764Y-72261648D01*
X175528376Y-72270414D01*
X175511729Y-72271171D01*
X175500036Y-72261023D01*
X175492510Y-72237073D01*
X175488366Y-72196426D01*
X175486815Y-72136186D01*
X175487071Y-72053455D01*
X175488349Y-71945339D01*
X175488748Y-71913000D01*
X175490185Y-71801524D01*
X175491472Y-71728603D01*
X175630971Y-71728603D01*
X175631755Y-71790499D01*
X175635240Y-71830997D01*
X175643124Y-71857708D01*
X175657105Y-71878244D01*
X175666597Y-71888260D01*
X175705404Y-71917567D01*
X175739763Y-71919952D01*
X175775216Y-71895750D01*
X175776114Y-71894857D01*
X175790539Y-71876153D01*
X175799313Y-71850732D01*
X175803739Y-71811584D01*
X175805118Y-71751697D01*
X175805143Y-71738430D01*
X175801812Y-71655901D01*
X175790969Y-71598691D01*
X175771340Y-71563766D01*
X175741650Y-71548094D01*
X175724491Y-71546514D01*
X175683766Y-71553926D01*
X175655832Y-71578330D01*
X175639017Y-71622980D01*
X175631650Y-71691130D01*
X175630971Y-71728603D01*
X175491472Y-71728603D01*
X175491708Y-71715245D01*
X175493677Y-71650333D01*
X175496450Y-71602958D01*
X175500388Y-71569290D01*
X175505849Y-71545498D01*
X175513192Y-71527753D01*
X175522777Y-71512224D01*
X175526887Y-71506381D01*
X175581405Y-71451185D01*
X175650336Y-71419890D01*
X175730072Y-71411165D01*
X175799744Y-71419918D01*
G37*
X175799744Y-71419918D02*
X175855201Y-71447568D01*
X175904148Y-71498480D01*
X175917629Y-71517338D01*
X175932314Y-71542015D01*
X175941842Y-71568816D01*
X175947293Y-71604587D01*
X175949747Y-71656169D01*
X175950286Y-71724267D01*
X175947852Y-71817588D01*
X175939394Y-71887657D01*
X175923174Y-71939931D01*
X175897454Y-71979869D01*
X175860497Y-72012929D01*
X175857782Y-72014886D01*
X175821360Y-72034908D01*
X175777502Y-72044815D01*
X175721724Y-72047257D01*
X175631048Y-72047257D01*
X175631010Y-72135283D01*
X175630166Y-72184308D01*
X175625024Y-72213065D01*
X175611587Y-72230311D01*
X175585858Y-72244808D01*
X175579679Y-72247769D01*
X175550764Y-72261648D01*
X175528376Y-72270414D01*
X175511729Y-72271171D01*
X175500036Y-72261023D01*
X175492510Y-72237073D01*
X175488366Y-72196426D01*
X175486815Y-72136186D01*
X175487071Y-72053455D01*
X175488349Y-71945339D01*
X175488748Y-71913000D01*
X175490185Y-71801524D01*
X175491472Y-71728603D01*
X175630971Y-71728603D01*
X175631755Y-71790499D01*
X175635240Y-71830997D01*
X175643124Y-71857708D01*
X175657105Y-71878244D01*
X175666597Y-71888260D01*
X175705404Y-71917567D01*
X175739763Y-71919952D01*
X175775216Y-71895750D01*
X175776114Y-71894857D01*
X175790539Y-71876153D01*
X175799313Y-71850732D01*
X175803739Y-71811584D01*
X175805118Y-71751697D01*
X175805143Y-71738430D01*
X175801812Y-71655901D01*
X175790969Y-71598691D01*
X175771340Y-71563766D01*
X175741650Y-71548094D01*
X175724491Y-71546514D01*
X175683766Y-71553926D01*
X175655832Y-71578330D01*
X175639017Y-71622980D01*
X175631650Y-71691130D01*
X175630971Y-71728603D01*
X175491472Y-71728603D01*
X175491708Y-71715245D01*
X175493677Y-71650333D01*
X175496450Y-71602958D01*
X175500388Y-71569290D01*
X175505849Y-71545498D01*
X175513192Y-71527753D01*
X175522777Y-71512224D01*
X175526887Y-71506381D01*
X175581405Y-71451185D01*
X175650336Y-71419890D01*
X175730072Y-71411165D01*
X175799744Y-71419918D01*
G36*
X176916093Y-71427780D02*
G01*
X176962672Y-71454723D01*
X176995057Y-71481466D01*
X177018742Y-71509484D01*
X177035059Y-71543748D01*
X177045339Y-71589227D01*
X177050914Y-71650892D01*
X177053116Y-71733711D01*
X177053371Y-71793246D01*
X177053371Y-72012391D01*
X176991686Y-72040044D01*
X176930000Y-72067697D01*
X176922743Y-71827670D01*
X176919744Y-71738028D01*
X176916598Y-71672962D01*
X176912701Y-71628026D01*
X176907447Y-71598770D01*
X176900231Y-71580748D01*
X176890450Y-71569511D01*
X176887312Y-71567079D01*
X176839761Y-71548083D01*
X176791697Y-71555600D01*
X176763086Y-71575543D01*
X176751447Y-71589675D01*
X176743391Y-71608220D01*
X176738271Y-71636334D01*
X176735441Y-71679173D01*
X176734256Y-71741895D01*
X176734057Y-71807261D01*
X176734018Y-71889268D01*
X176732614Y-71947316D01*
X176727914Y-71986465D01*
X176717987Y-72011780D01*
X176700903Y-72028323D01*
X176674732Y-72041156D01*
X176639775Y-72054491D01*
X176601596Y-72069007D01*
X176606141Y-71811389D01*
X176607971Y-71718519D01*
X176610112Y-71649889D01*
X176613181Y-71600711D01*
X176617794Y-71566198D01*
X176624568Y-71541562D01*
X176634119Y-71522016D01*
X176645634Y-71504770D01*
X176701190Y-71449680D01*
X176768980Y-71417822D01*
X176842713Y-71410191D01*
X176916093Y-71427780D01*
G37*
X176916093Y-71427780D02*
X176962672Y-71454723D01*
X176995057Y-71481466D01*
X177018742Y-71509484D01*
X177035059Y-71543748D01*
X177045339Y-71589227D01*
X177050914Y-71650892D01*
X177053116Y-71733711D01*
X177053371Y-71793246D01*
X177053371Y-72012391D01*
X176991686Y-72040044D01*
X176930000Y-72067697D01*
X176922743Y-71827670D01*
X176919744Y-71738028D01*
X176916598Y-71672962D01*
X176912701Y-71628026D01*
X176907447Y-71598770D01*
X176900231Y-71580748D01*
X176890450Y-71569511D01*
X176887312Y-71567079D01*
X176839761Y-71548083D01*
X176791697Y-71555600D01*
X176763086Y-71575543D01*
X176751447Y-71589675D01*
X176743391Y-71608220D01*
X176738271Y-71636334D01*
X176735441Y-71679173D01*
X176734256Y-71741895D01*
X176734057Y-71807261D01*
X176734018Y-71889268D01*
X176732614Y-71947316D01*
X176727914Y-71986465D01*
X176717987Y-72011780D01*
X176700903Y-72028323D01*
X176674732Y-72041156D01*
X176639775Y-72054491D01*
X176601596Y-72069007D01*
X176606141Y-71811389D01*
X176607971Y-71718519D01*
X176610112Y-71649889D01*
X176613181Y-71600711D01*
X176617794Y-71566198D01*
X176624568Y-71541562D01*
X176634119Y-71522016D01*
X176645634Y-71504770D01*
X176701190Y-71449680D01*
X176768980Y-71417822D01*
X176842713Y-71410191D01*
X176916093Y-71427780D01*
G36*
X175241115Y-71421962D02*
G01*
X175309145Y-71457733D01*
X175359351Y-71515301D01*
X175377185Y-71552312D01*
X175391063Y-71607882D01*
X175398167Y-71678096D01*
X175398840Y-71754727D01*
X175393427Y-71829552D01*
X175382270Y-71894342D01*
X175365714Y-71940873D01*
X175360626Y-71948887D01*
X175300355Y-72008707D01*
X175228769Y-72044535D01*
X175151092Y-72055020D01*
X175072548Y-72038810D01*
X175050689Y-72029092D01*
X175008122Y-71999143D01*
X174970763Y-71959433D01*
X174967232Y-71954397D01*
X174952881Y-71930124D01*
X174943394Y-71904178D01*
X174937790Y-71870022D01*
X174935086Y-71821119D01*
X174934299Y-71750935D01*
X174934286Y-71735200D01*
X174934322Y-71730192D01*
X175079429Y-71730192D01*
X175080273Y-71796430D01*
X175083596Y-71840386D01*
X175090583Y-71868779D01*
X175102416Y-71888325D01*
X175108457Y-71894857D01*
X175143186Y-71919680D01*
X175176903Y-71918548D01*
X175210995Y-71897016D01*
X175231329Y-71874029D01*
X175243371Y-71840478D01*
X175250134Y-71787569D01*
X175250598Y-71781399D01*
X175251752Y-71685513D01*
X175239688Y-71614299D01*
X175214570Y-71568194D01*
X175176560Y-71547635D01*
X175162992Y-71546514D01*
X175127364Y-71552152D01*
X175102994Y-71571686D01*
X175088093Y-71609042D01*
X175080875Y-71668150D01*
X175079429Y-71730192D01*
X174934322Y-71730192D01*
X174934826Y-71660413D01*
X174937096Y-71608159D01*
X174942068Y-71571949D01*
X174950713Y-71545299D01*
X174964005Y-71521722D01*
X174966943Y-71517338D01*
X175016313Y-71458249D01*
X175070109Y-71423947D01*
X175135602Y-71410331D01*
X175157842Y-71409665D01*
X175241115Y-71421962D01*
G37*
X175241115Y-71421962D02*
X175309145Y-71457733D01*
X175359351Y-71515301D01*
X175377185Y-71552312D01*
X175391063Y-71607882D01*
X175398167Y-71678096D01*
X175398840Y-71754727D01*
X175393427Y-71829552D01*
X175382270Y-71894342D01*
X175365714Y-71940873D01*
X175360626Y-71948887D01*
X175300355Y-72008707D01*
X175228769Y-72044535D01*
X175151092Y-72055020D01*
X175072548Y-72038810D01*
X175050689Y-72029092D01*
X175008122Y-71999143D01*
X174970763Y-71959433D01*
X174967232Y-71954397D01*
X174952881Y-71930124D01*
X174943394Y-71904178D01*
X174937790Y-71870022D01*
X174935086Y-71821119D01*
X174934299Y-71750935D01*
X174934286Y-71735200D01*
X174934322Y-71730192D01*
X175079429Y-71730192D01*
X175080273Y-71796430D01*
X175083596Y-71840386D01*
X175090583Y-71868779D01*
X175102416Y-71888325D01*
X175108457Y-71894857D01*
X175143186Y-71919680D01*
X175176903Y-71918548D01*
X175210995Y-71897016D01*
X175231329Y-71874029D01*
X175243371Y-71840478D01*
X175250134Y-71787569D01*
X175250598Y-71781399D01*
X175251752Y-71685513D01*
X175239688Y-71614299D01*
X175214570Y-71568194D01*
X175176560Y-71547635D01*
X175162992Y-71546514D01*
X175127364Y-71552152D01*
X175102994Y-71571686D01*
X175088093Y-71609042D01*
X175080875Y-71668150D01*
X175079429Y-71730192D01*
X174934322Y-71730192D01*
X174934826Y-71660413D01*
X174937096Y-71608159D01*
X174942068Y-71571949D01*
X174950713Y-71545299D01*
X174964005Y-71521722D01*
X174966943Y-71517338D01*
X175016313Y-71458249D01*
X175070109Y-71423947D01*
X175135602Y-71410331D01*
X175157842Y-71409665D01*
X175241115Y-71421962D01*
G36*
X176368303Y-71431239D02*
G01*
X176425527Y-71469735D01*
X176469749Y-71525335D01*
X176496167Y-71596086D01*
X176501510Y-71648162D01*
X176500903Y-71669893D01*
X176495822Y-71686531D01*
X176481855Y-71701437D01*
X176454589Y-71717973D01*
X176409612Y-71739498D01*
X176342511Y-71769374D01*
X176342171Y-71769524D01*
X176280407Y-71797813D01*
X176229759Y-71822933D01*
X176195404Y-71842179D01*
X176182518Y-71852848D01*
X176182514Y-71852934D01*
X176193872Y-71876166D01*
X176220431Y-71901774D01*
X176250923Y-71920221D01*
X176266370Y-71923886D01*
X176308515Y-71911212D01*
X176344808Y-71879471D01*
X176362517Y-71844572D01*
X176379552Y-71818845D01*
X176412922Y-71789546D01*
X176452149Y-71764235D01*
X176486756Y-71750471D01*
X176493993Y-71749714D01*
X176502139Y-71762160D01*
X176502630Y-71793972D01*
X176496643Y-71836866D01*
X176485357Y-71882558D01*
X176469950Y-71922761D01*
X176469171Y-71924322D01*
X176422804Y-71989062D01*
X176362711Y-72033097D01*
X176294465Y-72054711D01*
X176223638Y-72052185D01*
X176155804Y-72023804D01*
X176152788Y-72021808D01*
X176099427Y-71973448D01*
X176064340Y-71910352D01*
X176044922Y-71827387D01*
X176042316Y-71804078D01*
X176037701Y-71694055D01*
X176043233Y-71642748D01*
X176182514Y-71642748D01*
X176184324Y-71674753D01*
X176194222Y-71684093D01*
X176218898Y-71677105D01*
X176257795Y-71660587D01*
X176301275Y-71639881D01*
X176302356Y-71639333D01*
X176339209Y-71619949D01*
X176354000Y-71607013D01*
X176350353Y-71593451D01*
X176334995Y-71575632D01*
X176295923Y-71549845D01*
X176253846Y-71547950D01*
X176216103Y-71566717D01*
X176190034Y-71602915D01*
X176182514Y-71642748D01*
X176043233Y-71642748D01*
X176047194Y-71606027D01*
X176071550Y-71536212D01*
X176105456Y-71487302D01*
X176166653Y-71437878D01*
X176234063Y-71413359D01*
X176302880Y-71411797D01*
X176368303Y-71431239D01*
G37*
X176368303Y-71431239D02*
X176425527Y-71469735D01*
X176469749Y-71525335D01*
X176496167Y-71596086D01*
X176501510Y-71648162D01*
X176500903Y-71669893D01*
X176495822Y-71686531D01*
X176481855Y-71701437D01*
X176454589Y-71717973D01*
X176409612Y-71739498D01*
X176342511Y-71769374D01*
X176342171Y-71769524D01*
X176280407Y-71797813D01*
X176229759Y-71822933D01*
X176195404Y-71842179D01*
X176182518Y-71852848D01*
X176182514Y-71852934D01*
X176193872Y-71876166D01*
X176220431Y-71901774D01*
X176250923Y-71920221D01*
X176266370Y-71923886D01*
X176308515Y-71911212D01*
X176344808Y-71879471D01*
X176362517Y-71844572D01*
X176379552Y-71818845D01*
X176412922Y-71789546D01*
X176452149Y-71764235D01*
X176486756Y-71750471D01*
X176493993Y-71749714D01*
X176502139Y-71762160D01*
X176502630Y-71793972D01*
X176496643Y-71836866D01*
X176485357Y-71882558D01*
X176469950Y-71922761D01*
X176469171Y-71924322D01*
X176422804Y-71989062D01*
X176362711Y-72033097D01*
X176294465Y-72054711D01*
X176223638Y-72052185D01*
X176155804Y-72023804D01*
X176152788Y-72021808D01*
X176099427Y-71973448D01*
X176064340Y-71910352D01*
X176044922Y-71827387D01*
X176042316Y-71804078D01*
X176037701Y-71694055D01*
X176043233Y-71642748D01*
X176182514Y-71642748D01*
X176184324Y-71674753D01*
X176194222Y-71684093D01*
X176218898Y-71677105D01*
X176257795Y-71660587D01*
X176301275Y-71639881D01*
X176302356Y-71639333D01*
X176339209Y-71619949D01*
X176354000Y-71607013D01*
X176350353Y-71593451D01*
X176334995Y-71575632D01*
X176295923Y-71549845D01*
X176253846Y-71547950D01*
X176216103Y-71566717D01*
X176190034Y-71602915D01*
X176182514Y-71642748D01*
X176043233Y-71642748D01*
X176047194Y-71606027D01*
X176071550Y-71536212D01*
X176105456Y-71487302D01*
X176166653Y-71437878D01*
X176234063Y-71413359D01*
X176302880Y-71411797D01*
X176368303Y-71431239D01*
G36*
X177575886Y-71351289D02*
G01*
X177580139Y-71410613D01*
X177585025Y-71445572D01*
X177591795Y-71460820D01*
X177601702Y-71461015D01*
X177604914Y-71459195D01*
X177647644Y-71446015D01*
X177703227Y-71446785D01*
X177759737Y-71460333D01*
X177795082Y-71477861D01*
X177831321Y-71505861D01*
X177857813Y-71537549D01*
X177875999Y-71577813D01*
X177887322Y-71631543D01*
X177893222Y-71703626D01*
X177895143Y-71798951D01*
X177895177Y-71817237D01*
X177895200Y-72022646D01*
X177849491Y-72038580D01*
X177817027Y-72049420D01*
X177799215Y-72054468D01*
X177798691Y-72054514D01*
X177796937Y-72040828D01*
X177795444Y-72003076D01*
X177794326Y-71946224D01*
X177793697Y-71875234D01*
X177793600Y-71832073D01*
X177793398Y-71746973D01*
X177792358Y-71685981D01*
X177789831Y-71644177D01*
X177785164Y-71616642D01*
X177777707Y-71598456D01*
X177766811Y-71584698D01*
X177760007Y-71578073D01*
X177713272Y-71551375D01*
X177662272Y-71549375D01*
X177616001Y-71571955D01*
X177607444Y-71580107D01*
X177594893Y-71595436D01*
X177586188Y-71613618D01*
X177580631Y-71639909D01*
X177577526Y-71679562D01*
X177576176Y-71737832D01*
X177575886Y-71818173D01*
X177575886Y-72022646D01*
X177530177Y-72038580D01*
X177497713Y-72049420D01*
X177479901Y-72054468D01*
X177479377Y-72054514D01*
X177478037Y-72040623D01*
X177476828Y-72001439D01*
X177475801Y-71940700D01*
X177475002Y-71862141D01*
X177474481Y-71769498D01*
X177474286Y-71666509D01*
X177474286Y-71269342D01*
X177521457Y-71249444D01*
X177568629Y-71229547D01*
X177575886Y-71351289D01*
G37*
X177575886Y-71351289D02*
X177580139Y-71410613D01*
X177585025Y-71445572D01*
X177591795Y-71460820D01*
X177601702Y-71461015D01*
X177604914Y-71459195D01*
X177647644Y-71446015D01*
X177703227Y-71446785D01*
X177759737Y-71460333D01*
X177795082Y-71477861D01*
X177831321Y-71505861D01*
X177857813Y-71537549D01*
X177875999Y-71577813D01*
X177887322Y-71631543D01*
X177893222Y-71703626D01*
X177895143Y-71798951D01*
X177895177Y-71817237D01*
X177895200Y-72022646D01*
X177849491Y-72038580D01*
X177817027Y-72049420D01*
X177799215Y-72054468D01*
X177798691Y-72054514D01*
X177796937Y-72040828D01*
X177795444Y-72003076D01*
X177794326Y-71946224D01*
X177793697Y-71875234D01*
X177793600Y-71832073D01*
X177793398Y-71746973D01*
X177792358Y-71685981D01*
X177789831Y-71644177D01*
X177785164Y-71616642D01*
X177777707Y-71598456D01*
X177766811Y-71584698D01*
X177760007Y-71578073D01*
X177713272Y-71551375D01*
X177662272Y-71549375D01*
X177616001Y-71571955D01*
X177607444Y-71580107D01*
X177594893Y-71595436D01*
X177586188Y-71613618D01*
X177580631Y-71639909D01*
X177577526Y-71679562D01*
X177576176Y-71737832D01*
X177575886Y-71818173D01*
X177575886Y-72022646D01*
X177530177Y-72038580D01*
X177497713Y-72049420D01*
X177479901Y-72054468D01*
X177479377Y-72054514D01*
X177478037Y-72040623D01*
X177476828Y-72001439D01*
X177475801Y-71940700D01*
X177475002Y-71862141D01*
X177474481Y-71769498D01*
X177474286Y-71666509D01*
X177474286Y-71269342D01*
X177521457Y-71249444D01*
X177568629Y-71229547D01*
X177575886Y-71351289D01*
G36*
X178239744Y-71450968D02*
G01*
X178296616Y-71472087D01*
X178297267Y-71472493D01*
X178332440Y-71498380D01*
X178358407Y-71528633D01*
X178376670Y-71568058D01*
X178388732Y-71621462D01*
X178396096Y-71693651D01*
X178400264Y-71789432D01*
X178400629Y-71803078D01*
X178405876Y-72008842D01*
X178361716Y-72031678D01*
X178329763Y-72047110D01*
X178310470Y-72054423D01*
X178309578Y-72054514D01*
X178306239Y-72041022D01*
X178303587Y-72004626D01*
X178301956Y-71951452D01*
X178301600Y-71908393D01*
X178301592Y-71838641D01*
X178298403Y-71794837D01*
X178287288Y-71773944D01*
X178263501Y-71772925D01*
X178222296Y-71788741D01*
X178160086Y-71817815D01*
X178114341Y-71841963D01*
X178090813Y-71862913D01*
X178083896Y-71885747D01*
X178083886Y-71886877D01*
X178095299Y-71926212D01*
X178129092Y-71947462D01*
X178180809Y-71950539D01*
X178218061Y-71950006D01*
X178237703Y-71960735D01*
X178249952Y-71986505D01*
X178257002Y-72019337D01*
X178246842Y-72037966D01*
X178243017Y-72040632D01*
X178207001Y-72051340D01*
X178156566Y-72052856D01*
X178104626Y-72045759D01*
X178067822Y-72032788D01*
X178016938Y-71989585D01*
X177988014Y-71929446D01*
X177982286Y-71882462D01*
X177986657Y-71840082D01*
X178002475Y-71805488D01*
X178033797Y-71774763D01*
X178084678Y-71743990D01*
X178159176Y-71709252D01*
X178163714Y-71707288D01*
X178230821Y-71676287D01*
X178272232Y-71650862D01*
X178289981Y-71628014D01*
X178286107Y-71604745D01*
X178262643Y-71578056D01*
X178255627Y-71571914D01*
X178208630Y-71548100D01*
X178159933Y-71549103D01*
X178117522Y-71572451D01*
X178089384Y-71615675D01*
X178086769Y-71624160D01*
X178061308Y-71665308D01*
X178029001Y-71685128D01*
X177982286Y-71704770D01*
X177982286Y-71653950D01*
X177996496Y-71580082D01*
X178038675Y-71512327D01*
X178060624Y-71489661D01*
X178110517Y-71460569D01*
X178173967Y-71447400D01*
X178239744Y-71450968D01*
G37*
X178239744Y-71450968D02*
X178296616Y-71472087D01*
X178297267Y-71472493D01*
X178332440Y-71498380D01*
X178358407Y-71528633D01*
X178376670Y-71568058D01*
X178388732Y-71621462D01*
X178396096Y-71693651D01*
X178400264Y-71789432D01*
X178400629Y-71803078D01*
X178405876Y-72008842D01*
X178361716Y-72031678D01*
X178329763Y-72047110D01*
X178310470Y-72054423D01*
X178309578Y-72054514D01*
X178306239Y-72041022D01*
X178303587Y-72004626D01*
X178301956Y-71951452D01*
X178301600Y-71908393D01*
X178301592Y-71838641D01*
X178298403Y-71794837D01*
X178287288Y-71773944D01*
X178263501Y-71772925D01*
X178222296Y-71788741D01*
X178160086Y-71817815D01*
X178114341Y-71841963D01*
X178090813Y-71862913D01*
X178083896Y-71885747D01*
X178083886Y-71886877D01*
X178095299Y-71926212D01*
X178129092Y-71947462D01*
X178180809Y-71950539D01*
X178218061Y-71950006D01*
X178237703Y-71960735D01*
X178249952Y-71986505D01*
X178257002Y-72019337D01*
X178246842Y-72037966D01*
X178243017Y-72040632D01*
X178207001Y-72051340D01*
X178156566Y-72052856D01*
X178104626Y-72045759D01*
X178067822Y-72032788D01*
X178016938Y-71989585D01*
X177988014Y-71929446D01*
X177982286Y-71882462D01*
X177986657Y-71840082D01*
X178002475Y-71805488D01*
X178033797Y-71774763D01*
X178084678Y-71743990D01*
X178159176Y-71709252D01*
X178163714Y-71707288D01*
X178230821Y-71676287D01*
X178272232Y-71650862D01*
X178289981Y-71628014D01*
X178286107Y-71604745D01*
X178262643Y-71578056D01*
X178255627Y-71571914D01*
X178208630Y-71548100D01*
X178159933Y-71549103D01*
X178117522Y-71572451D01*
X178089384Y-71615675D01*
X178086769Y-71624160D01*
X178061308Y-71665308D01*
X178029001Y-71685128D01*
X177982286Y-71704770D01*
X177982286Y-71653950D01*
X177996496Y-71580082D01*
X178038675Y-71512327D01*
X178060624Y-71489661D01*
X178110517Y-71460569D01*
X178173967Y-71447400D01*
X178239744Y-71450968D01*
G36*
X178729926Y-71449755D02*
G01*
X178795858Y-71474084D01*
X178849273Y-71517117D01*
X178870164Y-71547409D01*
X178892939Y-71602994D01*
X178892466Y-71643186D01*
X178868562Y-71670217D01*
X178859717Y-71674813D01*
X178821530Y-71689144D01*
X178802028Y-71685472D01*
X178795422Y-71661407D01*
X178795086Y-71648114D01*
X178782992Y-71599210D01*
X178751471Y-71564999D01*
X178707659Y-71548476D01*
X178658695Y-71552634D01*
X178618894Y-71574227D01*
X178605450Y-71586544D01*
X178595921Y-71601487D01*
X178589485Y-71624075D01*
X178585317Y-71659328D01*
X178582597Y-71712266D01*
X178580502Y-71787907D01*
X178579960Y-71811857D01*
X178577981Y-71893790D01*
X178575731Y-71951455D01*
X178572357Y-71989608D01*
X178567006Y-72013004D01*
X178558824Y-72026398D01*
X178546959Y-72034545D01*
X178539362Y-72038144D01*
X178507102Y-72050452D01*
X178488111Y-72054514D01*
X178481836Y-72040948D01*
X178478006Y-71999934D01*
X178476600Y-71930999D01*
X178477598Y-71833669D01*
X178477908Y-71818657D01*
X178480101Y-71729859D01*
X178482693Y-71665019D01*
X178486382Y-71619067D01*
X178491864Y-71586935D01*
X178499835Y-71563553D01*
X178510993Y-71543852D01*
X178516830Y-71535410D01*
X178550296Y-71498057D01*
X178587727Y-71469003D01*
X178592309Y-71466467D01*
X178659426Y-71446443D01*
X178729926Y-71449755D01*
G37*
X178729926Y-71449755D02*
X178795858Y-71474084D01*
X178849273Y-71517117D01*
X178870164Y-71547409D01*
X178892939Y-71602994D01*
X178892466Y-71643186D01*
X178868562Y-71670217D01*
X178859717Y-71674813D01*
X178821530Y-71689144D01*
X178802028Y-71685472D01*
X178795422Y-71661407D01*
X178795086Y-71648114D01*
X178782992Y-71599210D01*
X178751471Y-71564999D01*
X178707659Y-71548476D01*
X178658695Y-71552634D01*
X178618894Y-71574227D01*
X178605450Y-71586544D01*
X178595921Y-71601487D01*
X178589485Y-71624075D01*
X178585317Y-71659328D01*
X178582597Y-71712266D01*
X178580502Y-71787907D01*
X178579960Y-71811857D01*
X178577981Y-71893790D01*
X178575731Y-71951455D01*
X178572357Y-71989608D01*
X178567006Y-72013004D01*
X178558824Y-72026398D01*
X178546959Y-72034545D01*
X178539362Y-72038144D01*
X178507102Y-72050452D01*
X178488111Y-72054514D01*
X178481836Y-72040948D01*
X178478006Y-71999934D01*
X178476600Y-71930999D01*
X178477598Y-71833669D01*
X178477908Y-71818657D01*
X178480101Y-71729859D01*
X178482693Y-71665019D01*
X178486382Y-71619067D01*
X178491864Y-71586935D01*
X178499835Y-71563553D01*
X178510993Y-71543852D01*
X178516830Y-71535410D01*
X178550296Y-71498057D01*
X178587727Y-71469003D01*
X178592309Y-71466467D01*
X178659426Y-71446443D01*
X178729926Y-71449755D01*
G36*
X179390117Y-71565358D02*
G01*
X179389933Y-71673837D01*
X179389219Y-71757287D01*
X179387675Y-71819704D01*
X179385001Y-71865085D01*
X179380894Y-71897429D01*
X179375055Y-71920733D01*
X179367182Y-71938995D01*
X179361221Y-71949418D01*
X179311855Y-72005945D01*
X179249264Y-72041377D01*
X179180013Y-72054090D01*
X179110668Y-72042463D01*
X179069375Y-72021568D01*
X179026025Y-71985422D01*
X178996481Y-71941276D01*
X178978655Y-71883462D01*
X178970463Y-71806313D01*
X178969302Y-71749714D01*
X178969458Y-71745647D01*
X179070857Y-71745647D01*
X179071476Y-71810550D01*
X179074314Y-71853514D01*
X179080840Y-71881622D01*
X179092523Y-71901953D01*
X179106483Y-71917288D01*
X179153365Y-71946890D01*
X179203701Y-71949419D01*
X179251276Y-71924705D01*
X179254979Y-71921356D01*
X179270783Y-71903935D01*
X179280693Y-71883209D01*
X179286058Y-71852362D01*
X179288228Y-71804577D01*
X179288571Y-71751748D01*
X179287827Y-71685381D01*
X179284748Y-71641106D01*
X179278061Y-71612009D01*
X179266496Y-71591173D01*
X179257013Y-71580107D01*
X179212960Y-71552198D01*
X179162224Y-71548843D01*
X179113796Y-71570159D01*
X179104450Y-71578073D01*
X179088540Y-71595647D01*
X179078610Y-71616587D01*
X179073278Y-71647782D01*
X179071163Y-71696122D01*
X179070857Y-71745647D01*
X178969458Y-71745647D01*
X178972810Y-71658568D01*
X178984726Y-71590086D01*
X179007135Y-71538600D01*
X179042124Y-71498443D01*
X179069375Y-71477861D01*
X179118907Y-71455625D01*
X179176316Y-71445304D01*
X179229682Y-71448067D01*
X179259543Y-71459212D01*
X179271261Y-71462383D01*
X179279037Y-71450557D01*
X179284465Y-71418866D01*
X179288571Y-71370593D01*
X179293067Y-71316829D01*
X179299313Y-71284482D01*
X179310676Y-71265985D01*
X179330528Y-71253770D01*
X179343000Y-71248362D01*
X179390171Y-71228601D01*
X179390117Y-71565358D01*
G37*
X179390117Y-71565358D02*
X179389933Y-71673837D01*
X179389219Y-71757287D01*
X179387675Y-71819704D01*
X179385001Y-71865085D01*
X179380894Y-71897429D01*
X179375055Y-71920733D01*
X179367182Y-71938995D01*
X179361221Y-71949418D01*
X179311855Y-72005945D01*
X179249264Y-72041377D01*
X179180013Y-72054090D01*
X179110668Y-72042463D01*
X179069375Y-72021568D01*
X179026025Y-71985422D01*
X178996481Y-71941276D01*
X178978655Y-71883462D01*
X178970463Y-71806313D01*
X178969302Y-71749714D01*
X178969458Y-71745647D01*
X179070857Y-71745647D01*
X179071476Y-71810550D01*
X179074314Y-71853514D01*
X179080840Y-71881622D01*
X179092523Y-71901953D01*
X179106483Y-71917288D01*
X179153365Y-71946890D01*
X179203701Y-71949419D01*
X179251276Y-71924705D01*
X179254979Y-71921356D01*
X179270783Y-71903935D01*
X179280693Y-71883209D01*
X179286058Y-71852362D01*
X179288228Y-71804577D01*
X179288571Y-71751748D01*
X179287827Y-71685381D01*
X179284748Y-71641106D01*
X179278061Y-71612009D01*
X179266496Y-71591173D01*
X179257013Y-71580107D01*
X179212960Y-71552198D01*
X179162224Y-71548843D01*
X179113796Y-71570159D01*
X179104450Y-71578073D01*
X179088540Y-71595647D01*
X179078610Y-71616587D01*
X179073278Y-71647782D01*
X179071163Y-71696122D01*
X179070857Y-71745647D01*
X178969458Y-71745647D01*
X178972810Y-71658568D01*
X178984726Y-71590086D01*
X179007135Y-71538600D01*
X179042124Y-71498443D01*
X179069375Y-71477861D01*
X179118907Y-71455625D01*
X179176316Y-71445304D01*
X179229682Y-71448067D01*
X179259543Y-71459212D01*
X179271261Y-71462383D01*
X179279037Y-71450557D01*
X179284465Y-71418866D01*
X179288571Y-71370593D01*
X179293067Y-71316829D01*
X179299313Y-71284482D01*
X179310676Y-71265985D01*
X179330528Y-71253770D01*
X179343000Y-71248362D01*
X179390171Y-71228601D01*
X179390117Y-71565358D01*
G36*
X179979833Y-71458663D02*
G01*
X179982048Y-71496850D01*
X179983784Y-71554886D01*
X179984899Y-71628180D01*
X179985257Y-71705055D01*
X179985257Y-71965196D01*
X179939326Y-72011127D01*
X179907675Y-72039429D01*
X179879890Y-72050893D01*
X179841915Y-72050168D01*
X179826840Y-72048321D01*
X179779726Y-72042948D01*
X179740756Y-72039869D01*
X179731257Y-72039585D01*
X179699233Y-72041445D01*
X179653432Y-72046114D01*
X179635674Y-72048321D01*
X179592057Y-72051735D01*
X179562745Y-72044320D01*
X179533680Y-72021427D01*
X179523188Y-72011127D01*
X179477257Y-71965196D01*
X179477257Y-71478602D01*
X179514226Y-71461758D01*
X179546059Y-71449282D01*
X179564683Y-71444914D01*
X179569458Y-71458718D01*
X179573921Y-71497286D01*
X179577775Y-71556356D01*
X179580722Y-71631663D01*
X179582143Y-71695286D01*
X179586114Y-71945657D01*
X179620759Y-71950556D01*
X179652268Y-71947131D01*
X179667708Y-71936041D01*
X179672023Y-71915308D01*
X179675708Y-71871145D01*
X179678469Y-71809146D01*
X179680012Y-71734909D01*
X179680235Y-71696706D01*
X179680457Y-71476783D01*
X179726166Y-71460849D01*
X179758518Y-71450015D01*
X179776115Y-71444962D01*
X179776623Y-71444914D01*
X179778388Y-71458648D01*
X179780329Y-71496730D01*
X179782282Y-71554482D01*
X179784084Y-71627227D01*
X179785343Y-71695286D01*
X179789314Y-71945657D01*
X179876400Y-71945657D01*
X179880396Y-71717240D01*
X179884392Y-71488822D01*
X179926847Y-71466868D01*
X179958192Y-71451793D01*
X179976744Y-71444951D01*
X179977279Y-71444914D01*
X179979833Y-71458663D01*
G37*
X179979833Y-71458663D02*
X179982048Y-71496850D01*
X179983784Y-71554886D01*
X179984899Y-71628180D01*
X179985257Y-71705055D01*
X179985257Y-71965196D01*
X179939326Y-72011127D01*
X179907675Y-72039429D01*
X179879890Y-72050893D01*
X179841915Y-72050168D01*
X179826840Y-72048321D01*
X179779726Y-72042948D01*
X179740756Y-72039869D01*
X179731257Y-72039585D01*
X179699233Y-72041445D01*
X179653432Y-72046114D01*
X179635674Y-72048321D01*
X179592057Y-72051735D01*
X179562745Y-72044320D01*
X179533680Y-72021427D01*
X179523188Y-72011127D01*
X179477257Y-71965196D01*
X179477257Y-71478602D01*
X179514226Y-71461758D01*
X179546059Y-71449282D01*
X179564683Y-71444914D01*
X179569458Y-71458718D01*
X179573921Y-71497286D01*
X179577775Y-71556356D01*
X179580722Y-71631663D01*
X179582143Y-71695286D01*
X179586114Y-71945657D01*
X179620759Y-71950556D01*
X179652268Y-71947131D01*
X179667708Y-71936041D01*
X179672023Y-71915308D01*
X179675708Y-71871145D01*
X179678469Y-71809146D01*
X179680012Y-71734909D01*
X179680235Y-71696706D01*
X179680457Y-71476783D01*
X179726166Y-71460849D01*
X179758518Y-71450015D01*
X179776115Y-71444962D01*
X179776623Y-71444914D01*
X179778388Y-71458648D01*
X179780329Y-71496730D01*
X179782282Y-71554482D01*
X179784084Y-71627227D01*
X179785343Y-71695286D01*
X179789314Y-71945657D01*
X179876400Y-71945657D01*
X179880396Y-71717240D01*
X179884392Y-71488822D01*
X179926847Y-71466868D01*
X179958192Y-71451793D01*
X179976744Y-71444951D01*
X179977279Y-71444914D01*
X179979833Y-71458663D01*
G36*
X180344876Y-71456335D02*
G01*
X180386667Y-71475344D01*
X180419469Y-71498378D01*
X180443503Y-71524133D01*
X180460097Y-71557358D01*
X180470577Y-71602800D01*
X180476271Y-71665207D01*
X180478507Y-71749327D01*
X180478743Y-71804721D01*
X180478743Y-72020826D01*
X180441774Y-72037670D01*
X180412656Y-72049981D01*
X180398231Y-72054514D01*
X180395472Y-72041025D01*
X180393282Y-72004653D01*
X180391942Y-71951542D01*
X180391657Y-71909372D01*
X180390434Y-71848447D01*
X180387136Y-71800115D01*
X180382321Y-71770518D01*
X180378496Y-71764229D01*
X180352783Y-71770652D01*
X180312418Y-71787125D01*
X180265679Y-71809458D01*
X180220845Y-71833457D01*
X180186193Y-71854930D01*
X180170002Y-71869685D01*
X180169938Y-71869845D01*
X180171330Y-71897152D01*
X180183818Y-71923219D01*
X180205743Y-71944392D01*
X180237743Y-71951474D01*
X180265092Y-71950649D01*
X180303826Y-71950042D01*
X180324158Y-71959116D01*
X180336369Y-71983092D01*
X180337909Y-71987613D01*
X180343203Y-72021806D01*
X180329047Y-72042568D01*
X180292148Y-72052462D01*
X180252289Y-72054292D01*
X180180562Y-72040727D01*
X180143432Y-72021355D01*
X180097576Y-71975845D01*
X180073256Y-71919983D01*
X180071073Y-71860957D01*
X180091629Y-71805953D01*
X180122549Y-71771486D01*
X180153420Y-71752189D01*
X180201942Y-71727759D01*
X180258485Y-71702985D01*
X180267910Y-71699199D01*
X180330019Y-71671791D01*
X180365822Y-71647634D01*
X180377337Y-71623619D01*
X180366580Y-71596635D01*
X180348114Y-71575543D01*
X180304469Y-71549572D01*
X180256446Y-71547624D01*
X180212406Y-71567637D01*
X180180709Y-71607551D01*
X180176549Y-71617848D01*
X180152327Y-71655724D01*
X180116965Y-71683842D01*
X180072343Y-71706917D01*
X180072343Y-71641485D01*
X180074969Y-71601506D01*
X180086230Y-71569997D01*
X180111199Y-71536378D01*
X180135169Y-71510484D01*
X180172441Y-71473817D01*
X180201401Y-71454121D01*
X180232505Y-71446220D01*
X180267713Y-71444914D01*
X180344876Y-71456335D01*
G37*
X180344876Y-71456335D02*
X180386667Y-71475344D01*
X180419469Y-71498378D01*
X180443503Y-71524133D01*
X180460097Y-71557358D01*
X180470577Y-71602800D01*
X180476271Y-71665207D01*
X180478507Y-71749327D01*
X180478743Y-71804721D01*
X180478743Y-72020826D01*
X180441774Y-72037670D01*
X180412656Y-72049981D01*
X180398231Y-72054514D01*
X180395472Y-72041025D01*
X180393282Y-72004653D01*
X180391942Y-71951542D01*
X180391657Y-71909372D01*
X180390434Y-71848447D01*
X180387136Y-71800115D01*
X180382321Y-71770518D01*
X180378496Y-71764229D01*
X180352783Y-71770652D01*
X180312418Y-71787125D01*
X180265679Y-71809458D01*
X180220845Y-71833457D01*
X180186193Y-71854930D01*
X180170002Y-71869685D01*
X180169938Y-71869845D01*
X180171330Y-71897152D01*
X180183818Y-71923219D01*
X180205743Y-71944392D01*
X180237743Y-71951474D01*
X180265092Y-71950649D01*
X180303826Y-71950042D01*
X180324158Y-71959116D01*
X180336369Y-71983092D01*
X180337909Y-71987613D01*
X180343203Y-72021806D01*
X180329047Y-72042568D01*
X180292148Y-72052462D01*
X180252289Y-72054292D01*
X180180562Y-72040727D01*
X180143432Y-72021355D01*
X180097576Y-71975845D01*
X180073256Y-71919983D01*
X180071073Y-71860957D01*
X180091629Y-71805953D01*
X180122549Y-71771486D01*
X180153420Y-71752189D01*
X180201942Y-71727759D01*
X180258485Y-71702985D01*
X180267910Y-71699199D01*
X180330019Y-71671791D01*
X180365822Y-71647634D01*
X180377337Y-71623619D01*
X180366580Y-71596635D01*
X180348114Y-71575543D01*
X180304469Y-71549572D01*
X180256446Y-71547624D01*
X180212406Y-71567637D01*
X180180709Y-71607551D01*
X180176549Y-71617848D01*
X180152327Y-71655724D01*
X180116965Y-71683842D01*
X180072343Y-71706917D01*
X180072343Y-71641485D01*
X180074969Y-71601506D01*
X180086230Y-71569997D01*
X180111199Y-71536378D01*
X180135169Y-71510484D01*
X180172441Y-71473817D01*
X180201401Y-71454121D01*
X180232505Y-71446220D01*
X180267713Y-71444914D01*
X180344876Y-71456335D01*
G36*
X180852600Y-71458752D02*
G01*
X180869948Y-71466334D01*
X180911356Y-71499128D01*
X180946765Y-71546547D01*
X180968664Y-71597151D01*
X180972229Y-71622098D01*
X180960279Y-71656927D01*
X180934067Y-71675357D01*
X180905964Y-71686516D01*
X180893095Y-71688572D01*
X180886829Y-71673649D01*
X180874456Y-71641175D01*
X180869028Y-71626502D01*
X180838590Y-71575744D01*
X180794520Y-71550427D01*
X180738010Y-71551206D01*
X180733825Y-71552203D01*
X180703655Y-71566507D01*
X180681476Y-71594393D01*
X180666327Y-71639287D01*
X180657250Y-71704615D01*
X180653286Y-71793804D01*
X180652914Y-71841261D01*
X180652730Y-71916071D01*
X180651522Y-71967069D01*
X180648309Y-71999471D01*
X180642109Y-72018495D01*
X180631940Y-72029356D01*
X180616819Y-72037272D01*
X180615946Y-72037670D01*
X180586828Y-72049981D01*
X180572403Y-72054514D01*
X180570186Y-72040809D01*
X180568289Y-72002925D01*
X180566847Y-71945715D01*
X180565998Y-71874027D01*
X180565829Y-71821565D01*
X180566692Y-71720047D01*
X180570070Y-71643032D01*
X180577142Y-71586023D01*
X180589088Y-71544526D01*
X180607090Y-71514043D01*
X180632327Y-71490080D01*
X180657247Y-71473355D01*
X180717171Y-71451097D01*
X180786911Y-71446076D01*
X180852600Y-71458752D01*
G37*
X180852600Y-71458752D02*
X180869948Y-71466334D01*
X180911356Y-71499128D01*
X180946765Y-71546547D01*
X180968664Y-71597151D01*
X180972229Y-71622098D01*
X180960279Y-71656927D01*
X180934067Y-71675357D01*
X180905964Y-71686516D01*
X180893095Y-71688572D01*
X180886829Y-71673649D01*
X180874456Y-71641175D01*
X180869028Y-71626502D01*
X180838590Y-71575744D01*
X180794520Y-71550427D01*
X180738010Y-71551206D01*
X180733825Y-71552203D01*
X180703655Y-71566507D01*
X180681476Y-71594393D01*
X180666327Y-71639287D01*
X180657250Y-71704615D01*
X180653286Y-71793804D01*
X180652914Y-71841261D01*
X180652730Y-71916071D01*
X180651522Y-71967069D01*
X180648309Y-71999471D01*
X180642109Y-72018495D01*
X180631940Y-72029356D01*
X180616819Y-72037272D01*
X180615946Y-72037670D01*
X180586828Y-72049981D01*
X180572403Y-72054514D01*
X180570186Y-72040809D01*
X180568289Y-72002925D01*
X180566847Y-71945715D01*
X180565998Y-71874027D01*
X180565829Y-71821565D01*
X180566692Y-71720047D01*
X180570070Y-71643032D01*
X180577142Y-71586023D01*
X180589088Y-71544526D01*
X180607090Y-71514043D01*
X180632327Y-71490080D01*
X180657247Y-71473355D01*
X180717171Y-71451097D01*
X180786911Y-71446076D01*
X180852600Y-71458752D01*
G36*
X181353595Y-71466966D02*
G01*
X181411021Y-71504497D01*
X181438719Y-71538096D01*
X181460662Y-71599064D01*
X181462405Y-71647308D01*
X181458457Y-71711816D01*
X181309686Y-71776934D01*
X181237349Y-71810202D01*
X181190084Y-71836964D01*
X181165507Y-71860144D01*
X181161237Y-71882667D01*
X181174889Y-71907455D01*
X181189943Y-71923886D01*
X181233746Y-71950235D01*
X181281389Y-71952081D01*
X181325145Y-71931546D01*
X181357289Y-71890752D01*
X181363038Y-71876347D01*
X181390576Y-71831356D01*
X181422258Y-71812182D01*
X181465714Y-71795779D01*
X181465714Y-71857966D01*
X181461872Y-71900283D01*
X181446823Y-71935969D01*
X181415280Y-71976943D01*
X181410592Y-71982267D01*
X181375506Y-72018720D01*
X181345347Y-72038283D01*
X181307615Y-72047283D01*
X181276335Y-72050230D01*
X181220385Y-72050965D01*
X181180555Y-72041660D01*
X181155708Y-72027846D01*
X181116656Y-71997467D01*
X181089625Y-71964613D01*
X181072517Y-71923294D01*
X181063238Y-71867521D01*
X181059693Y-71791305D01*
X181059410Y-71752622D01*
X181060372Y-71706247D01*
X181148007Y-71706247D01*
X181149023Y-71731126D01*
X181151556Y-71735200D01*
X181168274Y-71729665D01*
X181204249Y-71715017D01*
X181252331Y-71694190D01*
X181262386Y-71689714D01*
X181323152Y-71658814D01*
X181356632Y-71631657D01*
X181363990Y-71606220D01*
X181346391Y-71580481D01*
X181331856Y-71569109D01*
X181279410Y-71546364D01*
X181230322Y-71550122D01*
X181189227Y-71577884D01*
X181160758Y-71627152D01*
X181151631Y-71666257D01*
X181148007Y-71706247D01*
X181060372Y-71706247D01*
X181061285Y-71662249D01*
X181068196Y-71595384D01*
X181081884Y-71546695D01*
X181104096Y-71510849D01*
X181136574Y-71482513D01*
X181150733Y-71473355D01*
X181215053Y-71449507D01*
X181285473Y-71448006D01*
X181353595Y-71466966D01*
G37*
X181353595Y-71466966D02*
X181411021Y-71504497D01*
X181438719Y-71538096D01*
X181460662Y-71599064D01*
X181462405Y-71647308D01*
X181458457Y-71711816D01*
X181309686Y-71776934D01*
X181237349Y-71810202D01*
X181190084Y-71836964D01*
X181165507Y-71860144D01*
X181161237Y-71882667D01*
X181174889Y-71907455D01*
X181189943Y-71923886D01*
X181233746Y-71950235D01*
X181281389Y-71952081D01*
X181325145Y-71931546D01*
X181357289Y-71890752D01*
X181363038Y-71876347D01*
X181390576Y-71831356D01*
X181422258Y-71812182D01*
X181465714Y-71795779D01*
X181465714Y-71857966D01*
X181461872Y-71900283D01*
X181446823Y-71935969D01*
X181415280Y-71976943D01*
X181410592Y-71982267D01*
X181375506Y-72018720D01*
X181345347Y-72038283D01*
X181307615Y-72047283D01*
X181276335Y-72050230D01*
X181220385Y-72050965D01*
X181180555Y-72041660D01*
X181155708Y-72027846D01*
X181116656Y-71997467D01*
X181089625Y-71964613D01*
X181072517Y-71923294D01*
X181063238Y-71867521D01*
X181059693Y-71791305D01*
X181059410Y-71752622D01*
X181060372Y-71706247D01*
X181148007Y-71706247D01*
X181149023Y-71731126D01*
X181151556Y-71735200D01*
X181168274Y-71729665D01*
X181204249Y-71715017D01*
X181252331Y-71694190D01*
X181262386Y-71689714D01*
X181323152Y-71658814D01*
X181356632Y-71631657D01*
X181363990Y-71606220D01*
X181346391Y-71580481D01*
X181331856Y-71569109D01*
X181279410Y-71546364D01*
X181230322Y-71550122D01*
X181189227Y-71577884D01*
X181160758Y-71627152D01*
X181151631Y-71666257D01*
X181148007Y-71706247D01*
X181060372Y-71706247D01*
X181061285Y-71662249D01*
X181068196Y-71595384D01*
X181081884Y-71546695D01*
X181104096Y-71510849D01*
X181136574Y-71482513D01*
X181150733Y-71473355D01*
X181215053Y-71449507D01*
X181285473Y-71448006D01*
X181353595Y-71466966D01*
G36*
X178303910Y-66742348D02*
G01*
X178382454Y-66742778D01*
X178439298Y-66743942D01*
X178478105Y-66746207D01*
X178502538Y-66749940D01*
X178516262Y-66755506D01*
X178522940Y-66763273D01*
X178526236Y-66773605D01*
X178526556Y-66774943D01*
X178531562Y-66799079D01*
X178540829Y-66846701D01*
X178553392Y-66912741D01*
X178568287Y-66992128D01*
X178584551Y-67079796D01*
X178585119Y-67082875D01*
X178601410Y-67168789D01*
X178616652Y-67244696D01*
X178629861Y-67306045D01*
X178640054Y-67348282D01*
X178646248Y-67366855D01*
X178646543Y-67367184D01*
X178664788Y-67376253D01*
X178702405Y-67391367D01*
X178751271Y-67409262D01*
X178751543Y-67409358D01*
X178813093Y-67432493D01*
X178885657Y-67461965D01*
X178954057Y-67491597D01*
X178957294Y-67493062D01*
X179068702Y-67543626D01*
X179315399Y-67375160D01*
X179391077Y-67323803D01*
X179459631Y-67277889D01*
X179517088Y-67240030D01*
X179559476Y-67212837D01*
X179582825Y-67198921D01*
X179585042Y-67197889D01*
X179602010Y-67202484D01*
X179633701Y-67224655D01*
X179681352Y-67265447D01*
X179746198Y-67325905D01*
X179812397Y-67390227D01*
X179876214Y-67453612D01*
X179933329Y-67511451D01*
X179980305Y-67560175D01*
X180013703Y-67596210D01*
X180030085Y-67615984D01*
X180030694Y-67617002D01*
X180032505Y-67630572D01*
X180025683Y-67652733D01*
X180008540Y-67686478D01*
X179979393Y-67734800D01*
X179936555Y-67800692D01*
X179879448Y-67885517D01*
X179828766Y-67960177D01*
X179783461Y-68027140D01*
X179746150Y-68082516D01*
X179719452Y-68122420D01*
X179705985Y-68142962D01*
X179705137Y-68144356D01*
X179706781Y-68164038D01*
X179719245Y-68202293D01*
X179740048Y-68251889D01*
X179747462Y-68267728D01*
X179779814Y-68338290D01*
X179814328Y-68418353D01*
X179842365Y-68487629D01*
X179862568Y-68539045D01*
X179878615Y-68578119D01*
X179887888Y-68598541D01*
X179889041Y-68600114D01*
X179906096Y-68602721D01*
X179946298Y-68609863D01*
X180004302Y-68620523D01*
X180074763Y-68633685D01*
X180152335Y-68648333D01*
X180231672Y-68663449D01*
X180307431Y-68678018D01*
X180374264Y-68691022D01*
X180426828Y-68701445D01*
X180459776Y-68708270D01*
X180467857Y-68710199D01*
X180476205Y-68714962D01*
X180482506Y-68725718D01*
X180487045Y-68746098D01*
X180490104Y-68779734D01*
X180491967Y-68830255D01*
X180492918Y-68901292D01*
X180493240Y-68996476D01*
X180493257Y-69035492D01*
X180493257Y-69352799D01*
X180417057Y-69367839D01*
X180374663Y-69375995D01*
X180311400Y-69387899D01*
X180234962Y-69402116D01*
X180153043Y-69417210D01*
X180130400Y-69421355D01*
X180054806Y-69436053D01*
X179988953Y-69450505D01*
X179938366Y-69463375D01*
X179908574Y-69473322D01*
X179903612Y-69476287D01*
X179891426Y-69497283D01*
X179873953Y-69537967D01*
X179854577Y-69590322D01*
X179850734Y-69601600D01*
X179825339Y-69671523D01*
X179793817Y-69750418D01*
X179762969Y-69821266D01*
X179762817Y-69821595D01*
X179711447Y-69932733D01*
X179880399Y-70181253D01*
X180049352Y-70429772D01*
X179832429Y-70647058D01*
X179766819Y-70711726D01*
X179706979Y-70768733D01*
X179656267Y-70815033D01*
X179618046Y-70847584D01*
X179595675Y-70863343D01*
X179592466Y-70864343D01*
X179573626Y-70856469D01*
X179535180Y-70834578D01*
X179481330Y-70801267D01*
X179416276Y-70759131D01*
X179345940Y-70711943D01*
X179274555Y-70663810D01*
X179210908Y-70621928D01*
X179159041Y-70588871D01*
X179122995Y-70567218D01*
X179106867Y-70559543D01*
X179087189Y-70566037D01*
X179049875Y-70583150D01*
X179002621Y-70607326D01*
X178997612Y-70610013D01*
X178933977Y-70641927D01*
X178890341Y-70657579D01*
X178863202Y-70657745D01*
X178849057Y-70643204D01*
X178848975Y-70643000D01*
X178841905Y-70625779D01*
X178825042Y-70584899D01*
X178799695Y-70523525D01*
X178767171Y-70444819D01*
X178728778Y-70351947D01*
X178685822Y-70248072D01*
X178644222Y-70147502D01*
X178598504Y-70036516D01*
X178556526Y-69933703D01*
X178519548Y-69842215D01*
X178488827Y-69765201D01*
X178465622Y-69705815D01*
X178451190Y-69667209D01*
X178446743Y-69652800D01*
X178457896Y-69636272D01*
X178487069Y-69609930D01*
X178525971Y-69580887D01*
X178636757Y-69489039D01*
X178723351Y-69383759D01*
X178784716Y-69267266D01*
X178819815Y-69141776D01*
X178827608Y-69009507D01*
X178821943Y-68948457D01*
X178791078Y-68821795D01*
X178737920Y-68709941D01*
X178665767Y-68614001D01*
X178577917Y-68535076D01*
X178477665Y-68474270D01*
X178368310Y-68432687D01*
X178253147Y-68411428D01*
X178135475Y-68411599D01*
X178018590Y-68434301D01*
X177905789Y-68480638D01*
X177800369Y-68551713D01*
X177756368Y-68591911D01*
X177671979Y-68695129D01*
X177613222Y-68807925D01*
X177579704Y-68927010D01*
X177571035Y-69049095D01*
X177586823Y-69170893D01*
X177626678Y-69289116D01*
X177690207Y-69400475D01*
X177777021Y-69501684D01*
X177874029Y-69580887D01*
X177914437Y-69611162D01*
X177942982Y-69637219D01*
X177953257Y-69652825D01*
X177947877Y-69669843D01*
X177932575Y-69710500D01*
X177908612Y-69771642D01*
X177877244Y-69850119D01*
X177839732Y-69942780D01*
X177797333Y-70046472D01*
X177755663Y-70147526D01*
X177709690Y-70258607D01*
X177667107Y-70361541D01*
X177629221Y-70453165D01*
X177597340Y-70530316D01*
X177572771Y-70589831D01*
X177556820Y-70628544D01*
X177550910Y-70643000D01*
X177536948Y-70657685D01*
X177509940Y-70657642D01*
X177466413Y-70642099D01*
X177402890Y-70610284D01*
X177402388Y-70610013D01*
X177354560Y-70585323D01*
X177315897Y-70567338D01*
X177294095Y-70559614D01*
X177293133Y-70559543D01*
X177276721Y-70567378D01*
X177240487Y-70589165D01*
X177188474Y-70622328D01*
X177124725Y-70664291D01*
X177054060Y-70711943D01*
X176982116Y-70760191D01*
X176917274Y-70802151D01*
X176863735Y-70835227D01*
X176825697Y-70856821D01*
X176807533Y-70864343D01*
X176790808Y-70854457D01*
X176757180Y-70826826D01*
X176710010Y-70784495D01*
X176652658Y-70730505D01*
X176588484Y-70667899D01*
X176567497Y-70646983D01*
X176350499Y-70429623D01*
X176515668Y-70187220D01*
X176565864Y-70112781D01*
X176609919Y-70045972D01*
X176645362Y-69990665D01*
X176669719Y-69950729D01*
X176680522Y-69930036D01*
X176680838Y-69928563D01*
X176675143Y-69909058D01*
X176659826Y-69869822D01*
X176637537Y-69817430D01*
X176621893Y-69782355D01*
X176592641Y-69715201D01*
X176565094Y-69647358D01*
X176543737Y-69590034D01*
X176537935Y-69572572D01*
X176521452Y-69525938D01*
X176505340Y-69489905D01*
X176496490Y-69476287D01*
X176476960Y-69467952D01*
X176434334Y-69456137D01*
X176374145Y-69442181D01*
X176301922Y-69427422D01*
X176269600Y-69421355D01*
X176187522Y-69406273D01*
X176108795Y-69391669D01*
X176041109Y-69378980D01*
X175992160Y-69369642D01*
X175982943Y-69367839D01*
X175906743Y-69352799D01*
X175906743Y-69035492D01*
X175906914Y-68931154D01*
X175907616Y-68852213D01*
X175909134Y-68795038D01*
X175911749Y-68755999D01*
X175915746Y-68731465D01*
X175921409Y-68717805D01*
X175929020Y-68711389D01*
X175932143Y-68710199D01*
X175950978Y-68705980D01*
X175992588Y-68697562D01*
X176051630Y-68685961D01*
X176122757Y-68672195D01*
X176200625Y-68657280D01*
X176279887Y-68642232D01*
X176355198Y-68628069D01*
X176421213Y-68615806D01*
X176472587Y-68606461D01*
X176503975Y-68601050D01*
X176510959Y-68600114D01*
X176517285Y-68587596D01*
X176531290Y-68554246D01*
X176550355Y-68506377D01*
X176557634Y-68487629D01*
X176586996Y-68415195D01*
X176621571Y-68335170D01*
X176652537Y-68267728D01*
X176675323Y-68216159D01*
X176690482Y-68173785D01*
X176695542Y-68147834D01*
X176694736Y-68144356D01*
X176684041Y-68127936D01*
X176659620Y-68091417D01*
X176624095Y-68038687D01*
X176580087Y-67973635D01*
X176530217Y-67900151D01*
X176520356Y-67885645D01*
X176462492Y-67799704D01*
X176419956Y-67734261D01*
X176391054Y-67686304D01*
X176374090Y-67652820D01*
X176367367Y-67630795D01*
X176369190Y-67617217D01*
X176369236Y-67617131D01*
X176383586Y-67599297D01*
X176415323Y-67564817D01*
X176461010Y-67517268D01*
X176517204Y-67460222D01*
X176580468Y-67397255D01*
X176587602Y-67390227D01*
X176667330Y-67313020D01*
X176728857Y-67256330D01*
X176773421Y-67219110D01*
X176802257Y-67200315D01*
X176814958Y-67197889D01*
X176833494Y-67208471D01*
X176871961Y-67232916D01*
X176926386Y-67268612D01*
X176992798Y-67312947D01*
X177067225Y-67363311D01*
X177084601Y-67375160D01*
X177331297Y-67543626D01*
X177442706Y-67493062D01*
X177510457Y-67463595D01*
X177583183Y-67433959D01*
X177645703Y-67410330D01*
X177648457Y-67409358D01*
X177697360Y-67391457D01*
X177735057Y-67376320D01*
X177753425Y-67367210D01*
X177753456Y-67367184D01*
X177759285Y-67350717D01*
X177769192Y-67310219D01*
X177782195Y-67250242D01*
X177797309Y-67175340D01*
X177813552Y-67090064D01*
X177814881Y-67082875D01*
X177831175Y-66995014D01*
X177846133Y-66915260D01*
X177858791Y-66848681D01*
X177868186Y-66800347D01*
X177873354Y-66775325D01*
X177873444Y-66774943D01*
X177876589Y-66764299D01*
X177882704Y-66756262D01*
X177895453Y-66750467D01*
X177918500Y-66746547D01*
X177955509Y-66744135D01*
X178010144Y-66742865D01*
X178086067Y-66742371D01*
X178186944Y-66742286D01*
X178200000Y-66742286D01*
X178303910Y-66742348D01*
G37*
X178303910Y-66742348D02*
X178382454Y-66742778D01*
X178439298Y-66743942D01*
X178478105Y-66746207D01*
X178502538Y-66749940D01*
X178516262Y-66755506D01*
X178522940Y-66763273D01*
X178526236Y-66773605D01*
X178526556Y-66774943D01*
X178531562Y-66799079D01*
X178540829Y-66846701D01*
X178553392Y-66912741D01*
X178568287Y-66992128D01*
X178584551Y-67079796D01*
X178585119Y-67082875D01*
X178601410Y-67168789D01*
X178616652Y-67244696D01*
X178629861Y-67306045D01*
X178640054Y-67348282D01*
X178646248Y-67366855D01*
X178646543Y-67367184D01*
X178664788Y-67376253D01*
X178702405Y-67391367D01*
X178751271Y-67409262D01*
X178751543Y-67409358D01*
X178813093Y-67432493D01*
X178885657Y-67461965D01*
X178954057Y-67491597D01*
X178957294Y-67493062D01*
X179068702Y-67543626D01*
X179315399Y-67375160D01*
X179391077Y-67323803D01*
X179459631Y-67277889D01*
X179517088Y-67240030D01*
X179559476Y-67212837D01*
X179582825Y-67198921D01*
X179585042Y-67197889D01*
X179602010Y-67202484D01*
X179633701Y-67224655D01*
X179681352Y-67265447D01*
X179746198Y-67325905D01*
X179812397Y-67390227D01*
X179876214Y-67453612D01*
X179933329Y-67511451D01*
X179980305Y-67560175D01*
X180013703Y-67596210D01*
X180030085Y-67615984D01*
X180030694Y-67617002D01*
X180032505Y-67630572D01*
X180025683Y-67652733D01*
X180008540Y-67686478D01*
X179979393Y-67734800D01*
X179936555Y-67800692D01*
X179879448Y-67885517D01*
X179828766Y-67960177D01*
X179783461Y-68027140D01*
X179746150Y-68082516D01*
X179719452Y-68122420D01*
X179705985Y-68142962D01*
X179705137Y-68144356D01*
X179706781Y-68164038D01*
X179719245Y-68202293D01*
X179740048Y-68251889D01*
X179747462Y-68267728D01*
X179779814Y-68338290D01*
X179814328Y-68418353D01*
X179842365Y-68487629D01*
X179862568Y-68539045D01*
X179878615Y-68578119D01*
X179887888Y-68598541D01*
X179889041Y-68600114D01*
X179906096Y-68602721D01*
X179946298Y-68609863D01*
X180004302Y-68620523D01*
X180074763Y-68633685D01*
X180152335Y-68648333D01*
X180231672Y-68663449D01*
X180307431Y-68678018D01*
X180374264Y-68691022D01*
X180426828Y-68701445D01*
X180459776Y-68708270D01*
X180467857Y-68710199D01*
X180476205Y-68714962D01*
X180482506Y-68725718D01*
X180487045Y-68746098D01*
X180490104Y-68779734D01*
X180491967Y-68830255D01*
X180492918Y-68901292D01*
X180493240Y-68996476D01*
X180493257Y-69035492D01*
X180493257Y-69352799D01*
X180417057Y-69367839D01*
X180374663Y-69375995D01*
X180311400Y-69387899D01*
X180234962Y-69402116D01*
X180153043Y-69417210D01*
X180130400Y-69421355D01*
X180054806Y-69436053D01*
X179988953Y-69450505D01*
X179938366Y-69463375D01*
X179908574Y-69473322D01*
X179903612Y-69476287D01*
X179891426Y-69497283D01*
X179873953Y-69537967D01*
X179854577Y-69590322D01*
X179850734Y-69601600D01*
X179825339Y-69671523D01*
X179793817Y-69750418D01*
X179762969Y-69821266D01*
X179762817Y-69821595D01*
X179711447Y-69932733D01*
X179880399Y-70181253D01*
X180049352Y-70429772D01*
X179832429Y-70647058D01*
X179766819Y-70711726D01*
X179706979Y-70768733D01*
X179656267Y-70815033D01*
X179618046Y-70847584D01*
X179595675Y-70863343D01*
X179592466Y-70864343D01*
X179573626Y-70856469D01*
X179535180Y-70834578D01*
X179481330Y-70801267D01*
X179416276Y-70759131D01*
X179345940Y-70711943D01*
X179274555Y-70663810D01*
X179210908Y-70621928D01*
X179159041Y-70588871D01*
X179122995Y-70567218D01*
X179106867Y-70559543D01*
X179087189Y-70566037D01*
X179049875Y-70583150D01*
X179002621Y-70607326D01*
X178997612Y-70610013D01*
X178933977Y-70641927D01*
X178890341Y-70657579D01*
X178863202Y-70657745D01*
X178849057Y-70643204D01*
X178848975Y-70643000D01*
X178841905Y-70625779D01*
X178825042Y-70584899D01*
X178799695Y-70523525D01*
X178767171Y-70444819D01*
X178728778Y-70351947D01*
X178685822Y-70248072D01*
X178644222Y-70147502D01*
X178598504Y-70036516D01*
X178556526Y-69933703D01*
X178519548Y-69842215D01*
X178488827Y-69765201D01*
X178465622Y-69705815D01*
X178451190Y-69667209D01*
X178446743Y-69652800D01*
X178457896Y-69636272D01*
X178487069Y-69609930D01*
X178525971Y-69580887D01*
X178636757Y-69489039D01*
X178723351Y-69383759D01*
X178784716Y-69267266D01*
X178819815Y-69141776D01*
X178827608Y-69009507D01*
X178821943Y-68948457D01*
X178791078Y-68821795D01*
X178737920Y-68709941D01*
X178665767Y-68614001D01*
X178577917Y-68535076D01*
X178477665Y-68474270D01*
X178368310Y-68432687D01*
X178253147Y-68411428D01*
X178135475Y-68411599D01*
X178018590Y-68434301D01*
X177905789Y-68480638D01*
X177800369Y-68551713D01*
X177756368Y-68591911D01*
X177671979Y-68695129D01*
X177613222Y-68807925D01*
X177579704Y-68927010D01*
X177571035Y-69049095D01*
X177586823Y-69170893D01*
X177626678Y-69289116D01*
X177690207Y-69400475D01*
X177777021Y-69501684D01*
X177874029Y-69580887D01*
X177914437Y-69611162D01*
X177942982Y-69637219D01*
X177953257Y-69652825D01*
X177947877Y-69669843D01*
X177932575Y-69710500D01*
X177908612Y-69771642D01*
X177877244Y-69850119D01*
X177839732Y-69942780D01*
X177797333Y-70046472D01*
X177755663Y-70147526D01*
X177709690Y-70258607D01*
X177667107Y-70361541D01*
X177629221Y-70453165D01*
X177597340Y-70530316D01*
X177572771Y-70589831D01*
X177556820Y-70628544D01*
X177550910Y-70643000D01*
X177536948Y-70657685D01*
X177509940Y-70657642D01*
X177466413Y-70642099D01*
X177402890Y-70610284D01*
X177402388Y-70610013D01*
X177354560Y-70585323D01*
X177315897Y-70567338D01*
X177294095Y-70559614D01*
X177293133Y-70559543D01*
X177276721Y-70567378D01*
X177240487Y-70589165D01*
X177188474Y-70622328D01*
X177124725Y-70664291D01*
X177054060Y-70711943D01*
X176982116Y-70760191D01*
X176917274Y-70802151D01*
X176863735Y-70835227D01*
X176825697Y-70856821D01*
X176807533Y-70864343D01*
X176790808Y-70854457D01*
X176757180Y-70826826D01*
X176710010Y-70784495D01*
X176652658Y-70730505D01*
X176588484Y-70667899D01*
X176567497Y-70646983D01*
X176350499Y-70429623D01*
X176515668Y-70187220D01*
X176565864Y-70112781D01*
X176609919Y-70045972D01*
X176645362Y-69990665D01*
X176669719Y-69950729D01*
X176680522Y-69930036D01*
X176680838Y-69928563D01*
X176675143Y-69909058D01*
X176659826Y-69869822D01*
X176637537Y-69817430D01*
X176621893Y-69782355D01*
X176592641Y-69715201D01*
X176565094Y-69647358D01*
X176543737Y-69590034D01*
X176537935Y-69572572D01*
X176521452Y-69525938D01*
X176505340Y-69489905D01*
X176496490Y-69476287D01*
X176476960Y-69467952D01*
X176434334Y-69456137D01*
X176374145Y-69442181D01*
X176301922Y-69427422D01*
X176269600Y-69421355D01*
X176187522Y-69406273D01*
X176108795Y-69391669D01*
X176041109Y-69378980D01*
X175992160Y-69369642D01*
X175982943Y-69367839D01*
X175906743Y-69352799D01*
X175906743Y-69035492D01*
X175906914Y-68931154D01*
X175907616Y-68852213D01*
X175909134Y-68795038D01*
X175911749Y-68755999D01*
X175915746Y-68731465D01*
X175921409Y-68717805D01*
X175929020Y-68711389D01*
X175932143Y-68710199D01*
X175950978Y-68705980D01*
X175992588Y-68697562D01*
X176051630Y-68685961D01*
X176122757Y-68672195D01*
X176200625Y-68657280D01*
X176279887Y-68642232D01*
X176355198Y-68628069D01*
X176421213Y-68615806D01*
X176472587Y-68606461D01*
X176503975Y-68601050D01*
X176510959Y-68600114D01*
X176517285Y-68587596D01*
X176531290Y-68554246D01*
X176550355Y-68506377D01*
X176557634Y-68487629D01*
X176586996Y-68415195D01*
X176621571Y-68335170D01*
X176652537Y-68267728D01*
X176675323Y-68216159D01*
X176690482Y-68173785D01*
X176695542Y-68147834D01*
X176694736Y-68144356D01*
X176684041Y-68127936D01*
X176659620Y-68091417D01*
X176624095Y-68038687D01*
X176580087Y-67973635D01*
X176530217Y-67900151D01*
X176520356Y-67885645D01*
X176462492Y-67799704D01*
X176419956Y-67734261D01*
X176391054Y-67686304D01*
X176374090Y-67652820D01*
X176367367Y-67630795D01*
X176369190Y-67617217D01*
X176369236Y-67617131D01*
X176383586Y-67599297D01*
X176415323Y-67564817D01*
X176461010Y-67517268D01*
X176517204Y-67460222D01*
X176580468Y-67397255D01*
X176587602Y-67390227D01*
X176667330Y-67313020D01*
X176728857Y-67256330D01*
X176773421Y-67219110D01*
X176802257Y-67200315D01*
X176814958Y-67197889D01*
X176833494Y-67208471D01*
X176871961Y-67232916D01*
X176926386Y-67268612D01*
X176992798Y-67312947D01*
X177067225Y-67363311D01*
X177084601Y-67375160D01*
X177331297Y-67543626D01*
X177442706Y-67493062D01*
X177510457Y-67463595D01*
X177583183Y-67433959D01*
X177645703Y-67410330D01*
X177648457Y-67409358D01*
X177697360Y-67391457D01*
X177735057Y-67376320D01*
X177753425Y-67367210D01*
X177753456Y-67367184D01*
X177759285Y-67350717D01*
X177769192Y-67310219D01*
X177782195Y-67250242D01*
X177797309Y-67175340D01*
X177813552Y-67090064D01*
X177814881Y-67082875D01*
X177831175Y-66995014D01*
X177846133Y-66915260D01*
X177858791Y-66848681D01*
X177868186Y-66800347D01*
X177873354Y-66775325D01*
X177873444Y-66774943D01*
X177876589Y-66764299D01*
X177882704Y-66756262D01*
X177895453Y-66750467D01*
X177918500Y-66746547D01*
X177955509Y-66744135D01*
X178010144Y-66742865D01*
X178086067Y-66742371D01*
X178186944Y-66742286D01*
X178200000Y-66742286D01*
X178303910Y-66742348D01*
D14*
X100750000Y-72140000D02*
X99750000Y-72140000D01*
X100750000Y-67900000D02*
X99750000Y-67900000D01*
X98800000Y-116110000D02*
X102660000Y-116110000D01*
X102660000Y-116110000D02*
X102660000Y-115875000D01*
X98800000Y-116110000D02*
X94940000Y-116110000D01*
X94940000Y-116110000D02*
X94940000Y-115875000D01*
X98800000Y-103090000D02*
X102660000Y-103090000D01*
X102660000Y-103090000D02*
X102660000Y-103325000D01*
X98800000Y-103090000D02*
X94940000Y-103090000D01*
X94940000Y-103090000D02*
X94940000Y-103325000D01*
X94940000Y-103325000D02*
X93125000Y-103325000D01*
X102435000Y-62450000D02*
X102435000Y-58390000D01*
X102435000Y-58390000D02*
X100165000Y-58390000D01*
X100165000Y-58390000D02*
X100165000Y-62450000D01*
X188353733Y-84290000D02*
X188696267Y-84290000D01*
X188353733Y-85310000D02*
X188696267Y-85310000D01*
X188153733Y-102310000D02*
X188496267Y-102310000D01*
X188153733Y-101290000D02*
X188496267Y-101290000D01*
X159803733Y-102310000D02*
X160146267Y-102310000D01*
X159803733Y-101290000D02*
X160146267Y-101290000D01*
X159808733Y-84290000D02*
X160151267Y-84290000D01*
X159808733Y-85310000D02*
X160151267Y-85310000D01*
X130953733Y-102310000D02*
X131296267Y-102310000D01*
X130953733Y-101290000D02*
X131296267Y-101290000D01*
X130953733Y-84290000D02*
X131296267Y-84290000D01*
X130953733Y-85310000D02*
X131296267Y-85310000D01*
X102428733Y-102310000D02*
X102771267Y-102310000D01*
X102428733Y-101290000D02*
X102771267Y-101290000D01*
X102428733Y-85310000D02*
X102771267Y-85310000D01*
X102428733Y-84290000D02*
X102771267Y-84290000D01*
X119271267Y-69060000D02*
X118928733Y-69060000D01*
X119271267Y-68040000D02*
X118928733Y-68040000D01*
X147671267Y-67990000D02*
X147328733Y-67990000D01*
X147671267Y-69010000D02*
X147328733Y-69010000D01*
X162471267Y-73060000D02*
X162128733Y-73060000D01*
X162471267Y-72040000D02*
X162128733Y-72040000D01*
X151115000Y-58390000D02*
X151115000Y-62450000D01*
X153385000Y-58390000D02*
X151115000Y-58390000D01*
X153385000Y-62450000D02*
X153385000Y-58390000D01*
X147365000Y-58402500D02*
X147365000Y-62462500D01*
X149635000Y-58402500D02*
X147365000Y-58402500D01*
X149635000Y-62462500D02*
X149635000Y-58402500D01*
X145885000Y-62462500D02*
X145885000Y-58402500D01*
X145885000Y-58402500D02*
X143615000Y-58402500D01*
X143615000Y-58402500D02*
X143615000Y-62462500D01*
X142135000Y-62462500D02*
X142135000Y-58402500D01*
X142135000Y-58402500D02*
X139865000Y-58402500D01*
X139865000Y-58402500D02*
X139865000Y-62462500D01*
X136115000Y-58402500D02*
X136115000Y-62462500D01*
X138385000Y-58402500D02*
X136115000Y-58402500D01*
X138385000Y-62462500D02*
X138385000Y-58402500D01*
X132365000Y-58402500D02*
X132365000Y-62462500D01*
X134635000Y-58402500D02*
X132365000Y-58402500D01*
X134635000Y-62462500D02*
X134635000Y-58402500D01*
X130885000Y-62462500D02*
X130885000Y-58402500D01*
X130885000Y-58402500D02*
X128615000Y-58402500D01*
X128615000Y-58402500D02*
X128615000Y-62462500D01*
X124865000Y-58402500D02*
X124865000Y-62462500D01*
X127135000Y-58402500D02*
X124865000Y-58402500D01*
X127135000Y-62462500D02*
X127135000Y-58402500D01*
X121135000Y-62450000D02*
X121135000Y-58390000D01*
X121135000Y-58390000D02*
X118865000Y-58390000D01*
X118865000Y-58390000D02*
X118865000Y-62450000D01*
X117385000Y-62450000D02*
X117385000Y-58390000D01*
X117385000Y-58390000D02*
X115115000Y-58390000D01*
X115115000Y-58390000D02*
X115115000Y-62450000D01*
X111365000Y-58390000D02*
X111365000Y-62450000D01*
X113635000Y-58390000D02*
X111365000Y-58390000D01*
X113635000Y-62450000D02*
X113635000Y-58390000D01*
X109885000Y-62450000D02*
X109885000Y-58390000D01*
X109885000Y-58390000D02*
X107615000Y-58390000D01*
X107615000Y-58390000D02*
X107615000Y-62450000D01*
X103865000Y-58390000D02*
X103865000Y-62450000D01*
X106135000Y-58390000D02*
X103865000Y-58390000D01*
X106135000Y-62450000D02*
X106135000Y-58390000D01*
X96515000Y-58390000D02*
X96515000Y-62450000D01*
X98785000Y-58390000D02*
X96515000Y-58390000D01*
X98785000Y-62450000D02*
X98785000Y-58390000D01*
X95035000Y-62450000D02*
X95035000Y-58390000D01*
X95035000Y-58390000D02*
X92765000Y-58390000D01*
X92765000Y-58390000D02*
X92765000Y-62450000D01*
X168965000Y-59272500D02*
X168965000Y-63332500D01*
X168965000Y-63332500D02*
X171235000Y-63332500D01*
X171235000Y-63332500D02*
X171235000Y-59272500D01*
X167435000Y-63332500D02*
X167435000Y-59272500D01*
X165165000Y-63332500D02*
X167435000Y-63332500D01*
X165165000Y-59272500D02*
X165165000Y-63332500D01*
X161365000Y-59272500D02*
X161365000Y-63332500D01*
X161365000Y-63332500D02*
X163635000Y-63332500D01*
X163635000Y-63332500D02*
X163635000Y-59272500D01*
X157565000Y-58387500D02*
X157565000Y-62447500D01*
X159835000Y-58387500D02*
X157565000Y-58387500D01*
X159835000Y-62447500D02*
X159835000Y-58387500D01*
X102130000Y-129720000D02*
X102080000Y-137970000D01*
X101530000Y-129720000D02*
X102130000Y-129720000D01*
X166730000Y-129770000D02*
X166780000Y-137970000D01*
X165080000Y-129770000D02*
X166730000Y-129770000D01*
X165080000Y-137970000D02*
X165080000Y-129770000D01*
X181480000Y-129720000D02*
X181780000Y-129720000D01*
X181480000Y-137970000D02*
X181480000Y-129720000D01*
X170600000Y-67831267D02*
X170600000Y-67488733D01*
X169580000Y-67831267D02*
X169580000Y-67488733D01*
X165780000Y-67831267D02*
X165780000Y-67488733D01*
X166800000Y-67831267D02*
X166800000Y-67488733D01*
X163000000Y-67831267D02*
X163000000Y-67488733D01*
X161980000Y-67831267D02*
X161980000Y-67488733D01*
X158180000Y-67831267D02*
X158180000Y-67488733D01*
X159200000Y-67831267D02*
X159200000Y-67488733D01*
X129300000Y-67880000D02*
X128300000Y-67880000D01*
X129300000Y-72120000D02*
X128300000Y-72120000D01*
X180940000Y-86325000D02*
X179125000Y-86325000D01*
X180940000Y-86090000D02*
X180940000Y-86325000D01*
X184800000Y-86090000D02*
X180940000Y-86090000D01*
X188660000Y-86090000D02*
X188660000Y-86325000D01*
X184800000Y-86090000D02*
X188660000Y-86090000D01*
X180940000Y-99110000D02*
X180940000Y-98875000D01*
X184800000Y-99110000D02*
X180940000Y-99110000D01*
X188660000Y-99110000D02*
X188660000Y-98875000D01*
X184800000Y-99110000D02*
X188660000Y-99110000D01*
X184600000Y-116110000D02*
X188460000Y-116110000D01*
X188460000Y-116110000D02*
X188460000Y-115875000D01*
X184600000Y-116110000D02*
X180740000Y-116110000D01*
X180740000Y-116110000D02*
X180740000Y-115875000D01*
X184600000Y-103090000D02*
X188460000Y-103090000D01*
X188460000Y-103090000D02*
X188460000Y-103325000D01*
X184600000Y-103090000D02*
X180740000Y-103090000D01*
X180740000Y-103090000D02*
X180740000Y-103325000D01*
X180740000Y-103325000D02*
X178925000Y-103325000D01*
X156200000Y-116110000D02*
X160060000Y-116110000D01*
X160060000Y-116110000D02*
X160060000Y-115875000D01*
X156200000Y-116110000D02*
X152340000Y-116110000D01*
X152340000Y-116110000D02*
X152340000Y-115875000D01*
X156200000Y-103090000D02*
X160060000Y-103090000D01*
X160060000Y-103090000D02*
X160060000Y-103325000D01*
X156200000Y-103090000D02*
X152340000Y-103090000D01*
X152340000Y-103090000D02*
X152340000Y-103325000D01*
X152340000Y-103325000D02*
X150525000Y-103325000D01*
X152340000Y-86325000D02*
X150525000Y-86325000D01*
X152340000Y-86090000D02*
X152340000Y-86325000D01*
X156200000Y-86090000D02*
X152340000Y-86090000D01*
X160060000Y-86090000D02*
X160060000Y-86325000D01*
X156200000Y-86090000D02*
X160060000Y-86090000D01*
X152340000Y-99110000D02*
X152340000Y-98875000D01*
X156200000Y-99110000D02*
X152340000Y-99110000D01*
X160060000Y-99110000D02*
X160060000Y-98875000D01*
X156200000Y-99110000D02*
X160060000Y-99110000D01*
X127400000Y-116110000D02*
X131260000Y-116110000D01*
X131260000Y-116110000D02*
X131260000Y-115875000D01*
X127400000Y-116110000D02*
X123540000Y-116110000D01*
X123540000Y-116110000D02*
X123540000Y-115875000D01*
X127400000Y-103090000D02*
X131260000Y-103090000D01*
X131260000Y-103090000D02*
X131260000Y-103325000D01*
X127400000Y-103090000D02*
X123540000Y-103090000D01*
X123540000Y-103090000D02*
X123540000Y-103325000D01*
X123540000Y-103325000D02*
X121725000Y-103325000D01*
X123540000Y-86325000D02*
X121725000Y-86325000D01*
X123540000Y-86090000D02*
X123540000Y-86325000D01*
X127400000Y-86090000D02*
X123540000Y-86090000D01*
X131260000Y-86090000D02*
X131260000Y-86325000D01*
X127400000Y-86090000D02*
X131260000Y-86090000D01*
X123540000Y-99110000D02*
X123540000Y-98875000D01*
X127400000Y-99110000D02*
X123540000Y-99110000D01*
X131260000Y-99110000D02*
X131260000Y-98875000D01*
X127400000Y-99110000D02*
X131260000Y-99110000D01*
X94940000Y-86325000D02*
X93125000Y-86325000D01*
X94940000Y-86090000D02*
X94940000Y-86325000D01*
X98800000Y-86090000D02*
X94940000Y-86090000D01*
X102660000Y-86090000D02*
X102660000Y-86325000D01*
X98800000Y-86090000D02*
X102660000Y-86090000D01*
X94940000Y-99110000D02*
X94940000Y-98875000D01*
X98800000Y-99110000D02*
X94940000Y-99110000D01*
X102660000Y-99110000D02*
X102660000Y-98875000D01*
X98800000Y-99110000D02*
X102660000Y-99110000D01*
X110800000Y-80710000D02*
X114660000Y-80710000D01*
X114660000Y-80710000D02*
X114660000Y-80475000D01*
X110800000Y-80710000D02*
X106940000Y-80710000D01*
X106940000Y-80710000D02*
X106940000Y-80475000D01*
X110800000Y-67690000D02*
X114660000Y-67690000D01*
X114660000Y-67690000D02*
X114660000Y-67925000D01*
X110800000Y-67690000D02*
X106940000Y-67690000D01*
X106940000Y-67690000D02*
X106940000Y-67925000D01*
X106940000Y-67925000D02*
X105125000Y-67925000D01*
X135340000Y-67925000D02*
X133525000Y-67925000D01*
X135340000Y-67690000D02*
X135340000Y-67925000D01*
X139200000Y-67690000D02*
X135340000Y-67690000D01*
X143060000Y-67690000D02*
X143060000Y-67925000D01*
X139200000Y-67690000D02*
X143060000Y-67690000D01*
X135340000Y-80710000D02*
X135340000Y-80475000D01*
X139200000Y-80710000D02*
X135340000Y-80710000D01*
X143060000Y-80710000D02*
X143060000Y-80475000D01*
X139200000Y-80710000D02*
X143060000Y-80710000D01*
X156250000Y-71865000D02*
X152800000Y-71865000D01*
X156250000Y-71865000D02*
X158200000Y-71865000D01*
X156250000Y-80735000D02*
X154300000Y-80735000D01*
X156250000Y-80735000D02*
X158200000Y-80735000D01*
D12*
X99559523Y-67472380D02*
X99226190Y-66996190D01*
X98988095Y-67472380D02*
X98988095Y-66472380D01*
X99369047Y-66472380D01*
X99464285Y-66520000D01*
X99511904Y-66567619D01*
X99559523Y-66662857D01*
X99559523Y-66805714D01*
X99511904Y-66900952D01*
X99464285Y-66948571D01*
X99369047Y-66996190D01*
X98988095Y-66996190D01*
X99988095Y-67472380D02*
X99988095Y-66472380D01*
X100559523Y-67472380D01*
X100559523Y-66472380D01*
X101559523Y-67472380D02*
X100988095Y-67472380D01*
X101273809Y-67472380D02*
X101273809Y-66472380D01*
X101178571Y-66615238D01*
X101083333Y-66710476D01*
X100988095Y-66758095D01*
X98038095Y-101702380D02*
X98038095Y-102511904D01*
X98085714Y-102607142D01*
X98133333Y-102654761D01*
X98228571Y-102702380D01*
X98419047Y-102702380D01*
X98514285Y-102654761D01*
X98561904Y-102607142D01*
X98609523Y-102511904D01*
X98609523Y-101702380D01*
X98990476Y-101702380D02*
X99657142Y-101702380D01*
X99228571Y-102702380D01*
X103652380Y-62064285D02*
X102652380Y-62064285D01*
X102652380Y-61826190D01*
X102700000Y-61683333D01*
X102795238Y-61588095D01*
X102890476Y-61540476D01*
X103080952Y-61492857D01*
X103223809Y-61492857D01*
X103414285Y-61540476D01*
X103509523Y-61588095D01*
X103604761Y-61683333D01*
X103652380Y-61826190D01*
X103652380Y-62064285D01*
X103652380Y-60540476D02*
X103652380Y-61111904D01*
X103652380Y-60826190D02*
X102652380Y-60826190D01*
X102795238Y-60921428D01*
X102890476Y-61016666D01*
X102938095Y-61111904D01*
X102652380Y-60207142D02*
X102652380Y-59588095D01*
X103033333Y-59921428D01*
X103033333Y-59778571D01*
X103080952Y-59683333D01*
X103128571Y-59635714D01*
X103223809Y-59588095D01*
X103461904Y-59588095D01*
X103557142Y-59635714D01*
X103604761Y-59683333D01*
X103652380Y-59778571D01*
X103652380Y-60064285D01*
X103604761Y-60159523D01*
X103557142Y-60207142D01*
X188358333Y-83727142D02*
X188310714Y-83774761D01*
X188167857Y-83822380D01*
X188072619Y-83822380D01*
X187929761Y-83774761D01*
X187834523Y-83679523D01*
X187786904Y-83584285D01*
X187739285Y-83393809D01*
X187739285Y-83250952D01*
X187786904Y-83060476D01*
X187834523Y-82965238D01*
X187929761Y-82870000D01*
X188072619Y-82822380D01*
X188167857Y-82822380D01*
X188310714Y-82870000D01*
X188358333Y-82917619D01*
X189310714Y-83822380D02*
X188739285Y-83822380D01*
X189025000Y-83822380D02*
X189025000Y-82822380D01*
X188929761Y-82965238D01*
X188834523Y-83060476D01*
X188739285Y-83108095D01*
X188158333Y-100727142D02*
X188110714Y-100774761D01*
X187967857Y-100822380D01*
X187872619Y-100822380D01*
X187729761Y-100774761D01*
X187634523Y-100679523D01*
X187586904Y-100584285D01*
X187539285Y-100393809D01*
X187539285Y-100250952D01*
X187586904Y-100060476D01*
X187634523Y-99965238D01*
X187729761Y-99870000D01*
X187872619Y-99822380D01*
X187967857Y-99822380D01*
X188110714Y-99870000D01*
X188158333Y-99917619D01*
X188539285Y-99917619D02*
X188586904Y-99870000D01*
X188682142Y-99822380D01*
X188920238Y-99822380D01*
X189015476Y-99870000D01*
X189063095Y-99917619D01*
X189110714Y-100012857D01*
X189110714Y-100108095D01*
X189063095Y-100250952D01*
X188491666Y-100822380D01*
X189110714Y-100822380D01*
X159808333Y-100727142D02*
X159760714Y-100774761D01*
X159617857Y-100822380D01*
X159522619Y-100822380D01*
X159379761Y-100774761D01*
X159284523Y-100679523D01*
X159236904Y-100584285D01*
X159189285Y-100393809D01*
X159189285Y-100250952D01*
X159236904Y-100060476D01*
X159284523Y-99965238D01*
X159379761Y-99870000D01*
X159522619Y-99822380D01*
X159617857Y-99822380D01*
X159760714Y-99870000D01*
X159808333Y-99917619D01*
X160141666Y-99822380D02*
X160760714Y-99822380D01*
X160427380Y-100203333D01*
X160570238Y-100203333D01*
X160665476Y-100250952D01*
X160713095Y-100298571D01*
X160760714Y-100393809D01*
X160760714Y-100631904D01*
X160713095Y-100727142D01*
X160665476Y-100774761D01*
X160570238Y-100822380D01*
X160284523Y-100822380D01*
X160189285Y-100774761D01*
X160141666Y-100727142D01*
X159813333Y-83727142D02*
X159765714Y-83774761D01*
X159622857Y-83822380D01*
X159527619Y-83822380D01*
X159384761Y-83774761D01*
X159289523Y-83679523D01*
X159241904Y-83584285D01*
X159194285Y-83393809D01*
X159194285Y-83250952D01*
X159241904Y-83060476D01*
X159289523Y-82965238D01*
X159384761Y-82870000D01*
X159527619Y-82822380D01*
X159622857Y-82822380D01*
X159765714Y-82870000D01*
X159813333Y-82917619D01*
X160670476Y-83155714D02*
X160670476Y-83822380D01*
X160432380Y-82774761D02*
X160194285Y-83489047D01*
X160813333Y-83489047D01*
X130958333Y-100727142D02*
X130910714Y-100774761D01*
X130767857Y-100822380D01*
X130672619Y-100822380D01*
X130529761Y-100774761D01*
X130434523Y-100679523D01*
X130386904Y-100584285D01*
X130339285Y-100393809D01*
X130339285Y-100250952D01*
X130386904Y-100060476D01*
X130434523Y-99965238D01*
X130529761Y-99870000D01*
X130672619Y-99822380D01*
X130767857Y-99822380D01*
X130910714Y-99870000D01*
X130958333Y-99917619D01*
X131863095Y-99822380D02*
X131386904Y-99822380D01*
X131339285Y-100298571D01*
X131386904Y-100250952D01*
X131482142Y-100203333D01*
X131720238Y-100203333D01*
X131815476Y-100250952D01*
X131863095Y-100298571D01*
X131910714Y-100393809D01*
X131910714Y-100631904D01*
X131863095Y-100727142D01*
X131815476Y-100774761D01*
X131720238Y-100822380D01*
X131482142Y-100822380D01*
X131386904Y-100774761D01*
X131339285Y-100727142D01*
X130958333Y-83727142D02*
X130910714Y-83774761D01*
X130767857Y-83822380D01*
X130672619Y-83822380D01*
X130529761Y-83774761D01*
X130434523Y-83679523D01*
X130386904Y-83584285D01*
X130339285Y-83393809D01*
X130339285Y-83250952D01*
X130386904Y-83060476D01*
X130434523Y-82965238D01*
X130529761Y-82870000D01*
X130672619Y-82822380D01*
X130767857Y-82822380D01*
X130910714Y-82870000D01*
X130958333Y-82917619D01*
X131815476Y-82822380D02*
X131625000Y-82822380D01*
X131529761Y-82870000D01*
X131482142Y-82917619D01*
X131386904Y-83060476D01*
X131339285Y-83250952D01*
X131339285Y-83631904D01*
X131386904Y-83727142D01*
X131434523Y-83774761D01*
X131529761Y-83822380D01*
X131720238Y-83822380D01*
X131815476Y-83774761D01*
X131863095Y-83727142D01*
X131910714Y-83631904D01*
X131910714Y-83393809D01*
X131863095Y-83298571D01*
X131815476Y-83250952D01*
X131720238Y-83203333D01*
X131529761Y-83203333D01*
X131434523Y-83250952D01*
X131386904Y-83298571D01*
X131339285Y-83393809D01*
X102433333Y-100727142D02*
X102385714Y-100774761D01*
X102242857Y-100822380D01*
X102147619Y-100822380D01*
X102004761Y-100774761D01*
X101909523Y-100679523D01*
X101861904Y-100584285D01*
X101814285Y-100393809D01*
X101814285Y-100250952D01*
X101861904Y-100060476D01*
X101909523Y-99965238D01*
X102004761Y-99870000D01*
X102147619Y-99822380D01*
X102242857Y-99822380D01*
X102385714Y-99870000D01*
X102433333Y-99917619D01*
X102766666Y-99822380D02*
X103433333Y-99822380D01*
X103004761Y-100822380D01*
X102433333Y-83727142D02*
X102385714Y-83774761D01*
X102242857Y-83822380D01*
X102147619Y-83822380D01*
X102004761Y-83774761D01*
X101909523Y-83679523D01*
X101861904Y-83584285D01*
X101814285Y-83393809D01*
X101814285Y-83250952D01*
X101861904Y-83060476D01*
X101909523Y-82965238D01*
X102004761Y-82870000D01*
X102147619Y-82822380D01*
X102242857Y-82822380D01*
X102385714Y-82870000D01*
X102433333Y-82917619D01*
X103004761Y-83250952D02*
X102909523Y-83203333D01*
X102861904Y-83155714D01*
X102814285Y-83060476D01*
X102814285Y-83012857D01*
X102861904Y-82917619D01*
X102909523Y-82870000D01*
X103004761Y-82822380D01*
X103195238Y-82822380D01*
X103290476Y-82870000D01*
X103338095Y-82917619D01*
X103385714Y-83012857D01*
X103385714Y-83060476D01*
X103338095Y-83155714D01*
X103290476Y-83203333D01*
X103195238Y-83250952D01*
X103004761Y-83250952D01*
X102909523Y-83298571D01*
X102861904Y-83346190D01*
X102814285Y-83441428D01*
X102814285Y-83631904D01*
X102861904Y-83727142D01*
X102909523Y-83774761D01*
X103004761Y-83822380D01*
X103195238Y-83822380D01*
X103290476Y-83774761D01*
X103338095Y-83727142D01*
X103385714Y-83631904D01*
X103385714Y-83441428D01*
X103338095Y-83346190D01*
X103290476Y-83298571D01*
X103195238Y-83250952D01*
X118933333Y-67507142D02*
X118885714Y-67554761D01*
X118742857Y-67602380D01*
X118647619Y-67602380D01*
X118504761Y-67554761D01*
X118409523Y-67459523D01*
X118361904Y-67364285D01*
X118314285Y-67173809D01*
X118314285Y-67030952D01*
X118361904Y-66840476D01*
X118409523Y-66745238D01*
X118504761Y-66650000D01*
X118647619Y-66602380D01*
X118742857Y-66602380D01*
X118885714Y-66650000D01*
X118933333Y-66697619D01*
X119409523Y-67602380D02*
X119600000Y-67602380D01*
X119695238Y-67554761D01*
X119742857Y-67507142D01*
X119838095Y-67364285D01*
X119885714Y-67173809D01*
X119885714Y-66792857D01*
X119838095Y-66697619D01*
X119790476Y-66650000D01*
X119695238Y-66602380D01*
X119504761Y-66602380D01*
X119409523Y-66650000D01*
X119361904Y-66697619D01*
X119314285Y-66792857D01*
X119314285Y-67030952D01*
X119361904Y-67126190D01*
X119409523Y-67173809D01*
X119504761Y-67221428D01*
X119695238Y-67221428D01*
X119790476Y-67173809D01*
X119838095Y-67126190D01*
X119885714Y-67030952D01*
X146857142Y-67457142D02*
X146809523Y-67504761D01*
X146666666Y-67552380D01*
X146571428Y-67552380D01*
X146428571Y-67504761D01*
X146333333Y-67409523D01*
X146285714Y-67314285D01*
X146238095Y-67123809D01*
X146238095Y-66980952D01*
X146285714Y-66790476D01*
X146333333Y-66695238D01*
X146428571Y-66600000D01*
X146571428Y-66552380D01*
X146666666Y-66552380D01*
X146809523Y-66600000D01*
X146857142Y-66647619D01*
X147809523Y-67552380D02*
X147238095Y-67552380D01*
X147523809Y-67552380D02*
X147523809Y-66552380D01*
X147428571Y-66695238D01*
X147333333Y-66790476D01*
X147238095Y-66838095D01*
X148428571Y-66552380D02*
X148523809Y-66552380D01*
X148619047Y-66600000D01*
X148666666Y-66647619D01*
X148714285Y-66742857D01*
X148761904Y-66933333D01*
X148761904Y-67171428D01*
X148714285Y-67361904D01*
X148666666Y-67457142D01*
X148619047Y-67504761D01*
X148523809Y-67552380D01*
X148428571Y-67552380D01*
X148333333Y-67504761D01*
X148285714Y-67457142D01*
X148238095Y-67361904D01*
X148190476Y-67171428D01*
X148190476Y-66933333D01*
X148238095Y-66742857D01*
X148285714Y-66647619D01*
X148333333Y-66600000D01*
X148428571Y-66552380D01*
X161657142Y-71507142D02*
X161609523Y-71554761D01*
X161466666Y-71602380D01*
X161371428Y-71602380D01*
X161228571Y-71554761D01*
X161133333Y-71459523D01*
X161085714Y-71364285D01*
X161038095Y-71173809D01*
X161038095Y-71030952D01*
X161085714Y-70840476D01*
X161133333Y-70745238D01*
X161228571Y-70650000D01*
X161371428Y-70602380D01*
X161466666Y-70602380D01*
X161609523Y-70650000D01*
X161657142Y-70697619D01*
X162609523Y-71602380D02*
X162038095Y-71602380D01*
X162323809Y-71602380D02*
X162323809Y-70602380D01*
X162228571Y-70745238D01*
X162133333Y-70840476D01*
X162038095Y-70888095D01*
X163561904Y-71602380D02*
X162990476Y-71602380D01*
X163276190Y-71602380D02*
X163276190Y-70602380D01*
X163180952Y-70745238D01*
X163085714Y-70840476D01*
X162990476Y-70888095D01*
X154652380Y-61588095D02*
X153652380Y-61588095D01*
X153652380Y-61350000D01*
X153700000Y-61207142D01*
X153795238Y-61111904D01*
X153890476Y-61064285D01*
X154080952Y-61016666D01*
X154223809Y-61016666D01*
X154414285Y-61064285D01*
X154509523Y-61111904D01*
X154604761Y-61207142D01*
X154652380Y-61350000D01*
X154652380Y-61588095D01*
X153652380Y-60397619D02*
X153652380Y-60302380D01*
X153700000Y-60207142D01*
X153747619Y-60159523D01*
X153842857Y-60111904D01*
X154033333Y-60064285D01*
X154271428Y-60064285D01*
X154461904Y-60111904D01*
X154557142Y-60159523D01*
X154604761Y-60207142D01*
X154652380Y-60302380D01*
X154652380Y-60397619D01*
X154604761Y-60492857D01*
X154557142Y-60540476D01*
X154461904Y-60588095D01*
X154271428Y-60635714D01*
X154033333Y-60635714D01*
X153842857Y-60588095D01*
X153747619Y-60540476D01*
X153700000Y-60492857D01*
X153652380Y-60397619D01*
X150852380Y-61600595D02*
X149852380Y-61600595D01*
X149852380Y-61362500D01*
X149900000Y-61219642D01*
X149995238Y-61124404D01*
X150090476Y-61076785D01*
X150280952Y-61029166D01*
X150423809Y-61029166D01*
X150614285Y-61076785D01*
X150709523Y-61124404D01*
X150804761Y-61219642D01*
X150852380Y-61362500D01*
X150852380Y-61600595D01*
X150852380Y-60076785D02*
X150852380Y-60648214D01*
X150852380Y-60362500D02*
X149852380Y-60362500D01*
X149995238Y-60457738D01*
X150090476Y-60552976D01*
X150138095Y-60648214D01*
X147052380Y-61538095D02*
X146052380Y-61538095D01*
X146052380Y-61300000D01*
X146100000Y-61157142D01*
X146195238Y-61061904D01*
X146290476Y-61014285D01*
X146480952Y-60966666D01*
X146623809Y-60966666D01*
X146814285Y-61014285D01*
X146909523Y-61061904D01*
X147004761Y-61157142D01*
X147052380Y-61300000D01*
X147052380Y-61538095D01*
X146147619Y-60585714D02*
X146100000Y-60538095D01*
X146052380Y-60442857D01*
X146052380Y-60204761D01*
X146100000Y-60109523D01*
X146147619Y-60061904D01*
X146242857Y-60014285D01*
X146338095Y-60014285D01*
X146480952Y-60061904D01*
X147052380Y-60633333D01*
X147052380Y-60014285D01*
X143352380Y-61600595D02*
X142352380Y-61600595D01*
X142352380Y-61362500D01*
X142400000Y-61219642D01*
X142495238Y-61124404D01*
X142590476Y-61076785D01*
X142780952Y-61029166D01*
X142923809Y-61029166D01*
X143114285Y-61076785D01*
X143209523Y-61124404D01*
X143304761Y-61219642D01*
X143352380Y-61362500D01*
X143352380Y-61600595D01*
X142352380Y-60695833D02*
X142352380Y-60076785D01*
X142733333Y-60410119D01*
X142733333Y-60267261D01*
X142780952Y-60172023D01*
X142828571Y-60124404D01*
X142923809Y-60076785D01*
X143161904Y-60076785D01*
X143257142Y-60124404D01*
X143304761Y-60172023D01*
X143352380Y-60267261D01*
X143352380Y-60552976D01*
X143304761Y-60648214D01*
X143257142Y-60695833D01*
X139652380Y-61600595D02*
X138652380Y-61600595D01*
X138652380Y-61362500D01*
X138700000Y-61219642D01*
X138795238Y-61124404D01*
X138890476Y-61076785D01*
X139080952Y-61029166D01*
X139223809Y-61029166D01*
X139414285Y-61076785D01*
X139509523Y-61124404D01*
X139604761Y-61219642D01*
X139652380Y-61362500D01*
X139652380Y-61600595D01*
X138985714Y-60172023D02*
X139652380Y-60172023D01*
X138604761Y-60410119D02*
X139319047Y-60648214D01*
X139319047Y-60029166D01*
X135852380Y-61600595D02*
X134852380Y-61600595D01*
X134852380Y-61362500D01*
X134900000Y-61219642D01*
X134995238Y-61124404D01*
X135090476Y-61076785D01*
X135280952Y-61029166D01*
X135423809Y-61029166D01*
X135614285Y-61076785D01*
X135709523Y-61124404D01*
X135804761Y-61219642D01*
X135852380Y-61362500D01*
X135852380Y-61600595D01*
X134852380Y-60124404D02*
X134852380Y-60600595D01*
X135328571Y-60648214D01*
X135280952Y-60600595D01*
X135233333Y-60505357D01*
X135233333Y-60267261D01*
X135280952Y-60172023D01*
X135328571Y-60124404D01*
X135423809Y-60076785D01*
X135661904Y-60076785D01*
X135757142Y-60124404D01*
X135804761Y-60172023D01*
X135852380Y-60267261D01*
X135852380Y-60505357D01*
X135804761Y-60600595D01*
X135757142Y-60648214D01*
X132152380Y-61600595D02*
X131152380Y-61600595D01*
X131152380Y-61362500D01*
X131200000Y-61219642D01*
X131295238Y-61124404D01*
X131390476Y-61076785D01*
X131580952Y-61029166D01*
X131723809Y-61029166D01*
X131914285Y-61076785D01*
X132009523Y-61124404D01*
X132104761Y-61219642D01*
X132152380Y-61362500D01*
X132152380Y-61600595D01*
X131152380Y-60172023D02*
X131152380Y-60362500D01*
X131200000Y-60457738D01*
X131247619Y-60505357D01*
X131390476Y-60600595D01*
X131580952Y-60648214D01*
X131961904Y-60648214D01*
X132057142Y-60600595D01*
X132104761Y-60552976D01*
X132152380Y-60457738D01*
X132152380Y-60267261D01*
X132104761Y-60172023D01*
X132057142Y-60124404D01*
X131961904Y-60076785D01*
X131723809Y-60076785D01*
X131628571Y-60124404D01*
X131580952Y-60172023D01*
X131533333Y-60267261D01*
X131533333Y-60457738D01*
X131580952Y-60552976D01*
X131628571Y-60600595D01*
X131723809Y-60648214D01*
X128352380Y-61600595D02*
X127352380Y-61600595D01*
X127352380Y-61362500D01*
X127400000Y-61219642D01*
X127495238Y-61124404D01*
X127590476Y-61076785D01*
X127780952Y-61029166D01*
X127923809Y-61029166D01*
X128114285Y-61076785D01*
X128209523Y-61124404D01*
X128304761Y-61219642D01*
X128352380Y-61362500D01*
X128352380Y-61600595D01*
X127352380Y-60695833D02*
X127352380Y-60029166D01*
X128352380Y-60457738D01*
X122352380Y-61588095D02*
X121352380Y-61588095D01*
X121352380Y-61350000D01*
X121400000Y-61207142D01*
X121495238Y-61111904D01*
X121590476Y-61064285D01*
X121780952Y-61016666D01*
X121923809Y-61016666D01*
X122114285Y-61064285D01*
X122209523Y-61111904D01*
X122304761Y-61207142D01*
X122352380Y-61350000D01*
X122352380Y-61588095D01*
X121780952Y-60445238D02*
X121733333Y-60540476D01*
X121685714Y-60588095D01*
X121590476Y-60635714D01*
X121542857Y-60635714D01*
X121447619Y-60588095D01*
X121400000Y-60540476D01*
X121352380Y-60445238D01*
X121352380Y-60254761D01*
X121400000Y-60159523D01*
X121447619Y-60111904D01*
X121542857Y-60064285D01*
X121590476Y-60064285D01*
X121685714Y-60111904D01*
X121733333Y-60159523D01*
X121780952Y-60254761D01*
X121780952Y-60445238D01*
X121828571Y-60540476D01*
X121876190Y-60588095D01*
X121971428Y-60635714D01*
X122161904Y-60635714D01*
X122257142Y-60588095D01*
X122304761Y-60540476D01*
X122352380Y-60445238D01*
X122352380Y-60254761D01*
X122304761Y-60159523D01*
X122257142Y-60111904D01*
X122161904Y-60064285D01*
X121971428Y-60064285D01*
X121876190Y-60111904D01*
X121828571Y-60159523D01*
X121780952Y-60254761D01*
X118652380Y-61588095D02*
X117652380Y-61588095D01*
X117652380Y-61350000D01*
X117700000Y-61207142D01*
X117795238Y-61111904D01*
X117890476Y-61064285D01*
X118080952Y-61016666D01*
X118223809Y-61016666D01*
X118414285Y-61064285D01*
X118509523Y-61111904D01*
X118604761Y-61207142D01*
X118652380Y-61350000D01*
X118652380Y-61588095D01*
X118652380Y-60540476D02*
X118652380Y-60350000D01*
X118604761Y-60254761D01*
X118557142Y-60207142D01*
X118414285Y-60111904D01*
X118223809Y-60064285D01*
X117842857Y-60064285D01*
X117747619Y-60111904D01*
X117700000Y-60159523D01*
X117652380Y-60254761D01*
X117652380Y-60445238D01*
X117700000Y-60540476D01*
X117747619Y-60588095D01*
X117842857Y-60635714D01*
X118080952Y-60635714D01*
X118176190Y-60588095D01*
X118223809Y-60540476D01*
X118271428Y-60445238D01*
X118271428Y-60254761D01*
X118223809Y-60159523D01*
X118176190Y-60111904D01*
X118080952Y-60064285D01*
X114852380Y-62064285D02*
X113852380Y-62064285D01*
X113852380Y-61826190D01*
X113900000Y-61683333D01*
X113995238Y-61588095D01*
X114090476Y-61540476D01*
X114280952Y-61492857D01*
X114423809Y-61492857D01*
X114614285Y-61540476D01*
X114709523Y-61588095D01*
X114804761Y-61683333D01*
X114852380Y-61826190D01*
X114852380Y-62064285D01*
X114852380Y-60540476D02*
X114852380Y-61111904D01*
X114852380Y-60826190D02*
X113852380Y-60826190D01*
X113995238Y-60921428D01*
X114090476Y-61016666D01*
X114138095Y-61111904D01*
X113852380Y-59921428D02*
X113852380Y-59826190D01*
X113900000Y-59730952D01*
X113947619Y-59683333D01*
X114042857Y-59635714D01*
X114233333Y-59588095D01*
X114471428Y-59588095D01*
X114661904Y-59635714D01*
X114757142Y-59683333D01*
X114804761Y-59730952D01*
X114852380Y-59826190D01*
X114852380Y-59921428D01*
X114804761Y-60016666D01*
X114757142Y-60064285D01*
X114661904Y-60111904D01*
X114471428Y-60159523D01*
X114233333Y-60159523D01*
X114042857Y-60111904D01*
X113947619Y-60064285D01*
X113900000Y-60016666D01*
X113852380Y-59921428D01*
X111052380Y-62064285D02*
X110052380Y-62064285D01*
X110052380Y-61826190D01*
X110100000Y-61683333D01*
X110195238Y-61588095D01*
X110290476Y-61540476D01*
X110480952Y-61492857D01*
X110623809Y-61492857D01*
X110814285Y-61540476D01*
X110909523Y-61588095D01*
X111004761Y-61683333D01*
X111052380Y-61826190D01*
X111052380Y-62064285D01*
X111052380Y-60540476D02*
X111052380Y-61111904D01*
X111052380Y-60826190D02*
X110052380Y-60826190D01*
X110195238Y-60921428D01*
X110290476Y-61016666D01*
X110338095Y-61111904D01*
X111052380Y-59588095D02*
X111052380Y-60159523D01*
X111052380Y-59873809D02*
X110052380Y-59873809D01*
X110195238Y-59969047D01*
X110290476Y-60064285D01*
X110338095Y-60159523D01*
X107352380Y-62064285D02*
X106352380Y-62064285D01*
X106352380Y-61826190D01*
X106400000Y-61683333D01*
X106495238Y-61588095D01*
X106590476Y-61540476D01*
X106780952Y-61492857D01*
X106923809Y-61492857D01*
X107114285Y-61540476D01*
X107209523Y-61588095D01*
X107304761Y-61683333D01*
X107352380Y-61826190D01*
X107352380Y-62064285D01*
X107352380Y-60540476D02*
X107352380Y-61111904D01*
X107352380Y-60826190D02*
X106352380Y-60826190D01*
X106495238Y-60921428D01*
X106590476Y-61016666D01*
X106638095Y-61111904D01*
X106447619Y-60159523D02*
X106400000Y-60111904D01*
X106352380Y-60016666D01*
X106352380Y-59778571D01*
X106400000Y-59683333D01*
X106447619Y-59635714D01*
X106542857Y-59588095D01*
X106638095Y-59588095D01*
X106780952Y-59635714D01*
X107352380Y-60207142D01*
X107352380Y-59588095D01*
X99952380Y-62064285D02*
X98952380Y-62064285D01*
X98952380Y-61826190D01*
X99000000Y-61683333D01*
X99095238Y-61588095D01*
X99190476Y-61540476D01*
X99380952Y-61492857D01*
X99523809Y-61492857D01*
X99714285Y-61540476D01*
X99809523Y-61588095D01*
X99904761Y-61683333D01*
X99952380Y-61826190D01*
X99952380Y-62064285D01*
X99952380Y-60540476D02*
X99952380Y-61111904D01*
X99952380Y-60826190D02*
X98952380Y-60826190D01*
X99095238Y-60921428D01*
X99190476Y-61016666D01*
X99238095Y-61111904D01*
X99285714Y-59683333D02*
X99952380Y-59683333D01*
X98904761Y-59921428D02*
X99619047Y-60159523D01*
X99619047Y-59540476D01*
X96252380Y-62064285D02*
X95252380Y-62064285D01*
X95252380Y-61826190D01*
X95300000Y-61683333D01*
X95395238Y-61588095D01*
X95490476Y-61540476D01*
X95680952Y-61492857D01*
X95823809Y-61492857D01*
X96014285Y-61540476D01*
X96109523Y-61588095D01*
X96204761Y-61683333D01*
X96252380Y-61826190D01*
X96252380Y-62064285D01*
X96252380Y-60540476D02*
X96252380Y-61111904D01*
X96252380Y-60826190D02*
X95252380Y-60826190D01*
X95395238Y-60921428D01*
X95490476Y-61016666D01*
X95538095Y-61111904D01*
X95252380Y-59635714D02*
X95252380Y-60111904D01*
X95728571Y-60159523D01*
X95680952Y-60111904D01*
X95633333Y-60016666D01*
X95633333Y-59778571D01*
X95680952Y-59683333D01*
X95728571Y-59635714D01*
X95823809Y-59588095D01*
X96061904Y-59588095D01*
X96157142Y-59635714D01*
X96204761Y-59683333D01*
X96252380Y-59778571D01*
X96252380Y-60016666D01*
X96204761Y-60111904D01*
X96157142Y-60159523D01*
X172452380Y-62074285D02*
X171452380Y-62074285D01*
X171452380Y-61836190D01*
X171500000Y-61693333D01*
X171595238Y-61598095D01*
X171690476Y-61550476D01*
X171880952Y-61502857D01*
X172023809Y-61502857D01*
X172214285Y-61550476D01*
X172309523Y-61598095D01*
X172404761Y-61693333D01*
X172452380Y-61836190D01*
X172452380Y-62074285D01*
X172452380Y-60550476D02*
X172452380Y-61121904D01*
X172452380Y-60836190D02*
X171452380Y-60836190D01*
X171595238Y-60931428D01*
X171690476Y-61026666D01*
X171738095Y-61121904D01*
X171452380Y-59693333D02*
X171452380Y-59883809D01*
X171500000Y-59979047D01*
X171547619Y-60026666D01*
X171690476Y-60121904D01*
X171880952Y-60169523D01*
X172261904Y-60169523D01*
X172357142Y-60121904D01*
X172404761Y-60074285D01*
X172452380Y-59979047D01*
X172452380Y-59788571D01*
X172404761Y-59693333D01*
X172357142Y-59645714D01*
X172261904Y-59598095D01*
X172023809Y-59598095D01*
X171928571Y-59645714D01*
X171880952Y-59693333D01*
X171833333Y-59788571D01*
X171833333Y-59979047D01*
X171880952Y-60074285D01*
X171928571Y-60121904D01*
X172023809Y-60169523D01*
X168652380Y-62086785D02*
X167652380Y-62086785D01*
X167652380Y-61848690D01*
X167700000Y-61705833D01*
X167795238Y-61610595D01*
X167890476Y-61562976D01*
X168080952Y-61515357D01*
X168223809Y-61515357D01*
X168414285Y-61562976D01*
X168509523Y-61610595D01*
X168604761Y-61705833D01*
X168652380Y-61848690D01*
X168652380Y-62086785D01*
X168652380Y-60562976D02*
X168652380Y-61134404D01*
X168652380Y-60848690D02*
X167652380Y-60848690D01*
X167795238Y-60943928D01*
X167890476Y-61039166D01*
X167938095Y-61134404D01*
X167652380Y-60229642D02*
X167652380Y-59562976D01*
X168652380Y-59991547D01*
X164852380Y-62074285D02*
X163852380Y-62074285D01*
X163852380Y-61836190D01*
X163900000Y-61693333D01*
X163995238Y-61598095D01*
X164090476Y-61550476D01*
X164280952Y-61502857D01*
X164423809Y-61502857D01*
X164614285Y-61550476D01*
X164709523Y-61598095D01*
X164804761Y-61693333D01*
X164852380Y-61836190D01*
X164852380Y-62074285D01*
X164852380Y-60550476D02*
X164852380Y-61121904D01*
X164852380Y-60836190D02*
X163852380Y-60836190D01*
X163995238Y-60931428D01*
X164090476Y-61026666D01*
X164138095Y-61121904D01*
X164280952Y-59979047D02*
X164233333Y-60074285D01*
X164185714Y-60121904D01*
X164090476Y-60169523D01*
X164042857Y-60169523D01*
X163947619Y-60121904D01*
X163900000Y-60074285D01*
X163852380Y-59979047D01*
X163852380Y-59788571D01*
X163900000Y-59693333D01*
X163947619Y-59645714D01*
X164042857Y-59598095D01*
X164090476Y-59598095D01*
X164185714Y-59645714D01*
X164233333Y-59693333D01*
X164280952Y-59788571D01*
X164280952Y-59979047D01*
X164328571Y-60074285D01*
X164376190Y-60121904D01*
X164471428Y-60169523D01*
X164661904Y-60169523D01*
X164757142Y-60121904D01*
X164804761Y-60074285D01*
X164852380Y-59979047D01*
X164852380Y-59788571D01*
X164804761Y-59693333D01*
X164757142Y-59645714D01*
X164661904Y-59598095D01*
X164471428Y-59598095D01*
X164376190Y-59645714D01*
X164328571Y-59693333D01*
X164280952Y-59788571D01*
X161052380Y-62061785D02*
X160052380Y-62061785D01*
X160052380Y-61823690D01*
X160100000Y-61680833D01*
X160195238Y-61585595D01*
X160290476Y-61537976D01*
X160480952Y-61490357D01*
X160623809Y-61490357D01*
X160814285Y-61537976D01*
X160909523Y-61585595D01*
X161004761Y-61680833D01*
X161052380Y-61823690D01*
X161052380Y-62061785D01*
X161052380Y-60537976D02*
X161052380Y-61109404D01*
X161052380Y-60823690D02*
X160052380Y-60823690D01*
X160195238Y-60918928D01*
X160290476Y-61014166D01*
X160338095Y-61109404D01*
X161052380Y-60061785D02*
X161052380Y-59871309D01*
X161004761Y-59776071D01*
X160957142Y-59728452D01*
X160814285Y-59633214D01*
X160623809Y-59585595D01*
X160242857Y-59585595D01*
X160147619Y-59633214D01*
X160100000Y-59680833D01*
X160052380Y-59776071D01*
X160052380Y-59966547D01*
X160100000Y-60061785D01*
X160147619Y-60109404D01*
X160242857Y-60157023D01*
X160480952Y-60157023D01*
X160576190Y-60109404D01*
X160623809Y-60061785D01*
X160671428Y-59966547D01*
X160671428Y-59776071D01*
X160623809Y-59680833D01*
X160576190Y-59633214D01*
X160480952Y-59585595D01*
X171942380Y-68302857D02*
X171466190Y-68636190D01*
X171942380Y-68874285D02*
X170942380Y-68874285D01*
X170942380Y-68493333D01*
X170990000Y-68398095D01*
X171037619Y-68350476D01*
X171132857Y-68302857D01*
X171275714Y-68302857D01*
X171370952Y-68350476D01*
X171418571Y-68398095D01*
X171466190Y-68493333D01*
X171466190Y-68874285D01*
X171942380Y-67350476D02*
X171942380Y-67921904D01*
X171942380Y-67636190D02*
X170942380Y-67636190D01*
X171085238Y-67731428D01*
X171180476Y-67826666D01*
X171228095Y-67921904D01*
X170942380Y-66493333D02*
X170942380Y-66683809D01*
X170990000Y-66779047D01*
X171037619Y-66826666D01*
X171180476Y-66921904D01*
X171370952Y-66969523D01*
X171751904Y-66969523D01*
X171847142Y-66921904D01*
X171894761Y-66874285D01*
X171942380Y-66779047D01*
X171942380Y-66588571D01*
X171894761Y-66493333D01*
X171847142Y-66445714D01*
X171751904Y-66398095D01*
X171513809Y-66398095D01*
X171418571Y-66445714D01*
X171370952Y-66493333D01*
X171323333Y-66588571D01*
X171323333Y-66779047D01*
X171370952Y-66874285D01*
X171418571Y-66921904D01*
X171513809Y-66969523D01*
X168142380Y-68302857D02*
X167666190Y-68636190D01*
X168142380Y-68874285D02*
X167142380Y-68874285D01*
X167142380Y-68493333D01*
X167190000Y-68398095D01*
X167237619Y-68350476D01*
X167332857Y-68302857D01*
X167475714Y-68302857D01*
X167570952Y-68350476D01*
X167618571Y-68398095D01*
X167666190Y-68493333D01*
X167666190Y-68874285D01*
X168142380Y-67350476D02*
X168142380Y-67921904D01*
X168142380Y-67636190D02*
X167142380Y-67636190D01*
X167285238Y-67731428D01*
X167380476Y-67826666D01*
X167428095Y-67921904D01*
X167142380Y-67017142D02*
X167142380Y-66350476D01*
X168142380Y-66779047D01*
X164342380Y-68302857D02*
X163866190Y-68636190D01*
X164342380Y-68874285D02*
X163342380Y-68874285D01*
X163342380Y-68493333D01*
X163390000Y-68398095D01*
X163437619Y-68350476D01*
X163532857Y-68302857D01*
X163675714Y-68302857D01*
X163770952Y-68350476D01*
X163818571Y-68398095D01*
X163866190Y-68493333D01*
X163866190Y-68874285D01*
X164342380Y-67350476D02*
X164342380Y-67921904D01*
X164342380Y-67636190D02*
X163342380Y-67636190D01*
X163485238Y-67731428D01*
X163580476Y-67826666D01*
X163628095Y-67921904D01*
X163770952Y-66779047D02*
X163723333Y-66874285D01*
X163675714Y-66921904D01*
X163580476Y-66969523D01*
X163532857Y-66969523D01*
X163437619Y-66921904D01*
X163390000Y-66874285D01*
X163342380Y-66779047D01*
X163342380Y-66588571D01*
X163390000Y-66493333D01*
X163437619Y-66445714D01*
X163532857Y-66398095D01*
X163580476Y-66398095D01*
X163675714Y-66445714D01*
X163723333Y-66493333D01*
X163770952Y-66588571D01*
X163770952Y-66779047D01*
X163818571Y-66874285D01*
X163866190Y-66921904D01*
X163961428Y-66969523D01*
X164151904Y-66969523D01*
X164247142Y-66921904D01*
X164294761Y-66874285D01*
X164342380Y-66779047D01*
X164342380Y-66588571D01*
X164294761Y-66493333D01*
X164247142Y-66445714D01*
X164151904Y-66398095D01*
X163961428Y-66398095D01*
X163866190Y-66445714D01*
X163818571Y-66493333D01*
X163770952Y-66588571D01*
X160542380Y-68302857D02*
X160066190Y-68636190D01*
X160542380Y-68874285D02*
X159542380Y-68874285D01*
X159542380Y-68493333D01*
X159590000Y-68398095D01*
X159637619Y-68350476D01*
X159732857Y-68302857D01*
X159875714Y-68302857D01*
X159970952Y-68350476D01*
X160018571Y-68398095D01*
X160066190Y-68493333D01*
X160066190Y-68874285D01*
X160542380Y-67350476D02*
X160542380Y-67921904D01*
X160542380Y-67636190D02*
X159542380Y-67636190D01*
X159685238Y-67731428D01*
X159780476Y-67826666D01*
X159828095Y-67921904D01*
X160542380Y-66874285D02*
X160542380Y-66683809D01*
X160494761Y-66588571D01*
X160447142Y-66540952D01*
X160304285Y-66445714D01*
X160113809Y-66398095D01*
X159732857Y-66398095D01*
X159637619Y-66445714D01*
X159590000Y-66493333D01*
X159542380Y-66588571D01*
X159542380Y-66779047D01*
X159590000Y-66874285D01*
X159637619Y-66921904D01*
X159732857Y-66969523D01*
X159970952Y-66969523D01*
X160066190Y-66921904D01*
X160113809Y-66874285D01*
X160161428Y-66779047D01*
X160161428Y-66588571D01*
X160113809Y-66493333D01*
X160066190Y-66445714D01*
X159970952Y-66398095D01*
X128109523Y-67452380D02*
X127776190Y-66976190D01*
X127538095Y-67452380D02*
X127538095Y-66452380D01*
X127919047Y-66452380D01*
X128014285Y-66500000D01*
X128061904Y-66547619D01*
X128109523Y-66642857D01*
X128109523Y-66785714D01*
X128061904Y-66880952D01*
X128014285Y-66928571D01*
X127919047Y-66976190D01*
X127538095Y-66976190D01*
X128538095Y-67452380D02*
X128538095Y-66452380D01*
X129109523Y-67452380D01*
X129109523Y-66452380D01*
X129538095Y-66547619D02*
X129585714Y-66500000D01*
X129680952Y-66452380D01*
X129919047Y-66452380D01*
X130014285Y-66500000D01*
X130061904Y-66547619D01*
X130109523Y-66642857D01*
X130109523Y-66738095D01*
X130061904Y-66880952D01*
X129490476Y-67452380D01*
X130109523Y-67452380D01*
X184038095Y-84702380D02*
X184038095Y-85511904D01*
X184085714Y-85607142D01*
X184133333Y-85654761D01*
X184228571Y-85702380D01*
X184419047Y-85702380D01*
X184514285Y-85654761D01*
X184561904Y-85607142D01*
X184609523Y-85511904D01*
X184609523Y-84702380D01*
X185609523Y-85702380D02*
X185038095Y-85702380D01*
X185323809Y-85702380D02*
X185323809Y-84702380D01*
X185228571Y-84845238D01*
X185133333Y-84940476D01*
X185038095Y-84988095D01*
X183838095Y-101702380D02*
X183838095Y-102511904D01*
X183885714Y-102607142D01*
X183933333Y-102654761D01*
X184028571Y-102702380D01*
X184219047Y-102702380D01*
X184314285Y-102654761D01*
X184361904Y-102607142D01*
X184409523Y-102511904D01*
X184409523Y-101702380D01*
X184838095Y-101797619D02*
X184885714Y-101750000D01*
X184980952Y-101702380D01*
X185219047Y-101702380D01*
X185314285Y-101750000D01*
X185361904Y-101797619D01*
X185409523Y-101892857D01*
X185409523Y-101988095D01*
X185361904Y-102130952D01*
X184790476Y-102702380D01*
X185409523Y-102702380D01*
X155438095Y-101702380D02*
X155438095Y-102511904D01*
X155485714Y-102607142D01*
X155533333Y-102654761D01*
X155628571Y-102702380D01*
X155819047Y-102702380D01*
X155914285Y-102654761D01*
X155961904Y-102607142D01*
X156009523Y-102511904D01*
X156009523Y-101702380D01*
X156390476Y-101702380D02*
X157009523Y-101702380D01*
X156676190Y-102083333D01*
X156819047Y-102083333D01*
X156914285Y-102130952D01*
X156961904Y-102178571D01*
X157009523Y-102273809D01*
X157009523Y-102511904D01*
X156961904Y-102607142D01*
X156914285Y-102654761D01*
X156819047Y-102702380D01*
X156533333Y-102702380D01*
X156438095Y-102654761D01*
X156390476Y-102607142D01*
X155438095Y-84702380D02*
X155438095Y-85511904D01*
X155485714Y-85607142D01*
X155533333Y-85654761D01*
X155628571Y-85702380D01*
X155819047Y-85702380D01*
X155914285Y-85654761D01*
X155961904Y-85607142D01*
X156009523Y-85511904D01*
X156009523Y-84702380D01*
X156914285Y-85035714D02*
X156914285Y-85702380D01*
X156676190Y-84654761D02*
X156438095Y-85369047D01*
X157057142Y-85369047D01*
X126638095Y-101702380D02*
X126638095Y-102511904D01*
X126685714Y-102607142D01*
X126733333Y-102654761D01*
X126828571Y-102702380D01*
X127019047Y-102702380D01*
X127114285Y-102654761D01*
X127161904Y-102607142D01*
X127209523Y-102511904D01*
X127209523Y-101702380D01*
X128161904Y-101702380D02*
X127685714Y-101702380D01*
X127638095Y-102178571D01*
X127685714Y-102130952D01*
X127780952Y-102083333D01*
X128019047Y-102083333D01*
X128114285Y-102130952D01*
X128161904Y-102178571D01*
X128209523Y-102273809D01*
X128209523Y-102511904D01*
X128161904Y-102607142D01*
X128114285Y-102654761D01*
X128019047Y-102702380D01*
X127780952Y-102702380D01*
X127685714Y-102654761D01*
X127638095Y-102607142D01*
X126638095Y-84702380D02*
X126638095Y-85511904D01*
X126685714Y-85607142D01*
X126733333Y-85654761D01*
X126828571Y-85702380D01*
X127019047Y-85702380D01*
X127114285Y-85654761D01*
X127161904Y-85607142D01*
X127209523Y-85511904D01*
X127209523Y-84702380D01*
X128114285Y-84702380D02*
X127923809Y-84702380D01*
X127828571Y-84750000D01*
X127780952Y-84797619D01*
X127685714Y-84940476D01*
X127638095Y-85130952D01*
X127638095Y-85511904D01*
X127685714Y-85607142D01*
X127733333Y-85654761D01*
X127828571Y-85702380D01*
X128019047Y-85702380D01*
X128114285Y-85654761D01*
X128161904Y-85607142D01*
X128209523Y-85511904D01*
X128209523Y-85273809D01*
X128161904Y-85178571D01*
X128114285Y-85130952D01*
X128019047Y-85083333D01*
X127828571Y-85083333D01*
X127733333Y-85130952D01*
X127685714Y-85178571D01*
X127638095Y-85273809D01*
X98038095Y-84702380D02*
X98038095Y-85511904D01*
X98085714Y-85607142D01*
X98133333Y-85654761D01*
X98228571Y-85702380D01*
X98419047Y-85702380D01*
X98514285Y-85654761D01*
X98561904Y-85607142D01*
X98609523Y-85511904D01*
X98609523Y-84702380D01*
X99228571Y-85130952D02*
X99133333Y-85083333D01*
X99085714Y-85035714D01*
X99038095Y-84940476D01*
X99038095Y-84892857D01*
X99085714Y-84797619D01*
X99133333Y-84750000D01*
X99228571Y-84702380D01*
X99419047Y-84702380D01*
X99514285Y-84750000D01*
X99561904Y-84797619D01*
X99609523Y-84892857D01*
X99609523Y-84940476D01*
X99561904Y-85035714D01*
X99514285Y-85083333D01*
X99419047Y-85130952D01*
X99228571Y-85130952D01*
X99133333Y-85178571D01*
X99085714Y-85226190D01*
X99038095Y-85321428D01*
X99038095Y-85511904D01*
X99085714Y-85607142D01*
X99133333Y-85654761D01*
X99228571Y-85702380D01*
X99419047Y-85702380D01*
X99514285Y-85654761D01*
X99561904Y-85607142D01*
X99609523Y-85511904D01*
X99609523Y-85321428D01*
X99561904Y-85226190D01*
X99514285Y-85178571D01*
X99419047Y-85130952D01*
X110038095Y-66302380D02*
X110038095Y-67111904D01*
X110085714Y-67207142D01*
X110133333Y-67254761D01*
X110228571Y-67302380D01*
X110419047Y-67302380D01*
X110514285Y-67254761D01*
X110561904Y-67207142D01*
X110609523Y-67111904D01*
X110609523Y-66302380D01*
X111133333Y-67302380D02*
X111323809Y-67302380D01*
X111419047Y-67254761D01*
X111466666Y-67207142D01*
X111561904Y-67064285D01*
X111609523Y-66873809D01*
X111609523Y-66492857D01*
X111561904Y-66397619D01*
X111514285Y-66350000D01*
X111419047Y-66302380D01*
X111228571Y-66302380D01*
X111133333Y-66350000D01*
X111085714Y-66397619D01*
X111038095Y-66492857D01*
X111038095Y-66730952D01*
X111085714Y-66826190D01*
X111133333Y-66873809D01*
X111228571Y-66921428D01*
X111419047Y-66921428D01*
X111514285Y-66873809D01*
X111561904Y-66826190D01*
X111609523Y-66730952D01*
X137961904Y-66302380D02*
X137961904Y-67111904D01*
X138009523Y-67207142D01*
X138057142Y-67254761D01*
X138152380Y-67302380D01*
X138342857Y-67302380D01*
X138438095Y-67254761D01*
X138485714Y-67207142D01*
X138533333Y-67111904D01*
X138533333Y-66302380D01*
X139533333Y-67302380D02*
X138961904Y-67302380D01*
X139247619Y-67302380D02*
X139247619Y-66302380D01*
X139152380Y-66445238D01*
X139057142Y-66540476D01*
X138961904Y-66588095D01*
X140152380Y-66302380D02*
X140247619Y-66302380D01*
X140342857Y-66350000D01*
X140390476Y-66397619D01*
X140438095Y-66492857D01*
X140485714Y-66683333D01*
X140485714Y-66921428D01*
X140438095Y-67111904D01*
X140390476Y-67207142D01*
X140342857Y-67254761D01*
X140247619Y-67302380D01*
X140152380Y-67302380D01*
X140057142Y-67254761D01*
X140009523Y-67207142D01*
X139961904Y-67111904D01*
X139914285Y-66921428D01*
X139914285Y-66683333D01*
X139961904Y-66492857D01*
X140009523Y-66397619D01*
X140057142Y-66350000D01*
X140152380Y-66302380D01*
X155011904Y-70472380D02*
X155011904Y-71281904D01*
X155059523Y-71377142D01*
X155107142Y-71424761D01*
X155202380Y-71472380D01*
X155392857Y-71472380D01*
X155488095Y-71424761D01*
X155535714Y-71377142D01*
X155583333Y-71281904D01*
X155583333Y-70472380D01*
X156583333Y-71472380D02*
X156011904Y-71472380D01*
X156297619Y-71472380D02*
X156297619Y-70472380D01*
X156202380Y-70615238D01*
X156107142Y-70710476D01*
X156011904Y-70758095D01*
X157535714Y-71472380D02*
X156964285Y-71472380D01*
X157250000Y-71472380D02*
X157250000Y-70472380D01*
X157154761Y-70615238D01*
X157059523Y-70710476D01*
X156964285Y-70758095D01*
M02*
