%FSLAX45Y45*%
G04 Gerber Fmt 4.5, Leading zero omitted, Abs format (unit mm)*
G04 Created by KiCad (PCBNEW (5.1.8)-1) date 2022-01-11 15:47:59*
%MOMM*%
%LPD*%
G01*
G04 APERTURE LIST*
%TA.AperFunction,Profile*%
%ADD10C,0.100000*%
%TD*%
%ADD11C,0.200000*%
%ADD12C,0.300000*%
G04 APERTURE END LIST*
D10*
X16496000Y-13031000D02*
G75*
G02*
X16692000Y-13031000I98000J0D01*
G01*
X16692000Y-13750000D02*
X16692000Y-13031000D01*
X16496600Y-13750000D02*
X16496000Y-13031000D01*
X18141000Y-13750000D02*
X18141000Y-12933000D01*
X10216000Y-13750000D02*
X10216000Y-12933000D01*
X18141000Y-13750000D02*
X16692000Y-13750000D01*
X16496600Y-13750000D02*
X10216000Y-13750000D01*
X10216000Y-12933000D02*
X9179000Y-12933000D01*
X9180000Y-5750000D02*
X19180000Y-5750000D01*
X9179000Y-12933000D02*
X9180000Y-5750000D01*
X19178000Y-12933000D02*
X18141000Y-12933000D01*
X19180000Y-5750000D02*
X19178000Y-12933000D01*
D11*
X9280000Y-7430000D02*
X9320000Y-7470000D01*
X9320000Y-7430000D02*
X9280000Y-7470000D01*
X9280000Y-7630000D02*
X9320000Y-7670000D01*
X9320000Y-7630000D02*
X9280000Y-7670000D01*
X9280000Y-7830000D02*
X9320000Y-7870000D01*
X9320000Y-7830000D02*
X9280000Y-7870000D01*
X9280000Y-8035000D02*
X9320000Y-8075000D01*
X9320000Y-8035000D02*
X9280000Y-8075000D01*
X9280000Y-8435000D02*
X9320000Y-8475000D01*
X9320000Y-8435000D02*
X9280000Y-8475000D01*
X9280000Y-9960000D02*
X9320000Y-10000000D01*
X9320000Y-9960000D02*
X9280000Y-10000000D01*
X9280000Y-10160000D02*
X9320000Y-10200000D01*
X9320000Y-10160000D02*
X9280000Y-10200000D01*
X9280000Y-11835000D02*
X9320000Y-11875000D01*
X9320000Y-11835000D02*
X9280000Y-11875000D01*
X9280000Y-12035000D02*
X9320000Y-12075000D01*
X9320000Y-12035000D02*
X9280000Y-12075000D01*
X9280000Y-12235000D02*
X9320000Y-12275000D01*
X9320000Y-12235000D02*
X9280000Y-12275000D01*
X9280000Y-12435000D02*
X9320000Y-12475000D01*
X9320000Y-12435000D02*
X9280000Y-12475000D01*
X9480000Y-7430000D02*
X9520000Y-7470000D01*
X9520000Y-7430000D02*
X9480000Y-7470000D01*
X9480000Y-7630000D02*
X9520000Y-7670000D01*
X9520000Y-7630000D02*
X9480000Y-7670000D01*
X9480000Y-7830000D02*
X9520000Y-7870000D01*
X9520000Y-7830000D02*
X9480000Y-7870000D01*
X9480000Y-8035000D02*
X9520000Y-8075000D01*
X9520000Y-8035000D02*
X9480000Y-8075000D01*
X9480000Y-8435000D02*
X9520000Y-8475000D01*
X9520000Y-8435000D02*
X9480000Y-8475000D01*
X9480000Y-9960000D02*
X9520000Y-10000000D01*
X9520000Y-9960000D02*
X9480000Y-10000000D01*
X9480000Y-10160000D02*
X9520000Y-10200000D01*
X9520000Y-10160000D02*
X9480000Y-10200000D01*
X9480000Y-11835000D02*
X9520000Y-11875000D01*
X9520000Y-11835000D02*
X9480000Y-11875000D01*
X9480000Y-12035000D02*
X9520000Y-12075000D01*
X9520000Y-12035000D02*
X9480000Y-12075000D01*
X9480000Y-12235000D02*
X9520000Y-12275000D01*
X9520000Y-12235000D02*
X9480000Y-12275000D01*
X9480000Y-12435000D02*
X9520000Y-12475000D01*
X9520000Y-12435000D02*
X9480000Y-12475000D01*
X9633500Y-8795500D02*
X9673500Y-8835500D01*
X9673500Y-8795500D02*
X9633500Y-8835500D01*
X9633500Y-8923000D02*
X9673500Y-8963000D01*
X9673500Y-8923000D02*
X9633500Y-8963000D01*
X9633500Y-9050500D02*
X9673500Y-9090500D01*
X9673500Y-9050500D02*
X9633500Y-9090500D01*
X9633500Y-9180500D02*
X9673500Y-9220500D01*
X9673500Y-9180500D02*
X9633500Y-9220500D01*
X9633500Y-9305500D02*
X9673500Y-9345500D01*
X9673500Y-9305500D02*
X9633500Y-9345500D01*
X9633500Y-9430500D02*
X9673500Y-9470500D01*
X9673500Y-9430500D02*
X9633500Y-9470500D01*
X9633500Y-9558000D02*
X9673500Y-9598000D01*
X9673500Y-9558000D02*
X9633500Y-9598000D01*
X9633500Y-9685500D02*
X9673500Y-9725500D01*
X9673500Y-9685500D02*
X9633500Y-9725500D01*
X9633500Y-10495500D02*
X9673500Y-10535500D01*
X9673500Y-10495500D02*
X9633500Y-10535500D01*
X9633500Y-10623000D02*
X9673500Y-10663000D01*
X9673500Y-10623000D02*
X9633500Y-10663000D01*
X9633500Y-10750500D02*
X9673500Y-10790500D01*
X9673500Y-10750500D02*
X9633500Y-10790500D01*
X9633500Y-10880500D02*
X9673500Y-10920500D01*
X9673500Y-10880500D02*
X9633500Y-10920500D01*
X9633500Y-11005500D02*
X9673500Y-11045500D01*
X9673500Y-11005500D02*
X9633500Y-11045500D01*
X9633500Y-11130500D02*
X9673500Y-11170500D01*
X9673500Y-11130500D02*
X9633500Y-11170500D01*
X9633500Y-11258000D02*
X9673500Y-11298000D01*
X9673500Y-11258000D02*
X9633500Y-11298000D01*
X9633500Y-11385500D02*
X9673500Y-11425500D01*
X9673500Y-11385500D02*
X9633500Y-11425500D01*
X9680000Y-9960000D02*
X9720000Y-10000000D01*
X9720000Y-9960000D02*
X9680000Y-10000000D01*
X9680000Y-10160000D02*
X9720000Y-10200000D01*
X9720000Y-10160000D02*
X9680000Y-10200000D01*
X10455000Y-11830000D02*
X10495000Y-11870000D01*
X10495000Y-11830000D02*
X10455000Y-11870000D01*
X10455000Y-12030000D02*
X10495000Y-12070000D01*
X10495000Y-12030000D02*
X10455000Y-12070000D01*
X10562000Y-10495000D02*
X10602000Y-10535000D01*
X10602000Y-10495000D02*
X10562000Y-10535000D01*
X10562500Y-8922500D02*
X10602500Y-8962500D01*
X10602500Y-8922500D02*
X10562500Y-8962500D01*
X10562500Y-9050000D02*
X10602500Y-9090000D01*
X10602500Y-9050000D02*
X10562500Y-9090000D01*
X10562500Y-9177500D02*
X10602500Y-9217500D01*
X10602500Y-9177500D02*
X10562500Y-9217500D01*
X10562500Y-9307500D02*
X10602500Y-9347500D01*
X10602500Y-9307500D02*
X10562500Y-9347500D01*
X10562500Y-9432500D02*
X10602500Y-9472500D01*
X10602500Y-9432500D02*
X10562500Y-9472500D01*
X10562500Y-9557500D02*
X10602500Y-9597500D01*
X10602500Y-9557500D02*
X10562500Y-9597500D01*
X10562500Y-9685000D02*
X10602500Y-9725000D01*
X10602500Y-9685000D02*
X10562500Y-9725000D01*
X10562500Y-9812500D02*
X10602500Y-9852500D01*
X10602500Y-9812500D02*
X10562500Y-9852500D01*
X10562500Y-10622500D02*
X10602500Y-10662500D01*
X10602500Y-10622500D02*
X10562500Y-10662500D01*
X10562500Y-10750000D02*
X10602500Y-10790000D01*
X10602500Y-10750000D02*
X10562500Y-10790000D01*
X10562500Y-10877500D02*
X10602500Y-10917500D01*
X10602500Y-10877500D02*
X10562500Y-10917500D01*
X10562500Y-11007500D02*
X10602500Y-11047500D01*
X10602500Y-11007500D02*
X10562500Y-11047500D01*
X10562500Y-11132500D02*
X10602500Y-11172500D01*
X10602500Y-11132500D02*
X10562500Y-11172500D01*
X10562500Y-11257500D02*
X10602500Y-11297500D01*
X10602500Y-11257500D02*
X10562500Y-11297500D01*
X10562500Y-11385000D02*
X10602500Y-11425000D01*
X10602500Y-11385000D02*
X10562500Y-11425000D01*
X10562500Y-11512500D02*
X10602500Y-11552500D01*
X10602500Y-11512500D02*
X10562500Y-11552500D01*
X10563000Y-8797000D02*
X10603000Y-8837000D01*
X10603000Y-8797000D02*
X10563000Y-8837000D01*
X10580000Y-9960000D02*
X10620000Y-10000000D01*
X10620000Y-9960000D02*
X10580000Y-10000000D01*
X10580000Y-10160000D02*
X10620000Y-10200000D01*
X10620000Y-10160000D02*
X10580000Y-10200000D01*
X10655000Y-11830000D02*
X10695000Y-11870000D01*
X10695000Y-11830000D02*
X10655000Y-11870000D01*
X10655000Y-12030000D02*
X10695000Y-12070000D01*
X10695000Y-12030000D02*
X10655000Y-12070000D01*
X10730000Y-8805000D02*
X10770000Y-8845000D01*
X10770000Y-8805000D02*
X10730000Y-8845000D01*
X10730000Y-9960000D02*
X10770000Y-10000000D01*
X10770000Y-9960000D02*
X10730000Y-10000000D01*
X10730000Y-10160000D02*
X10770000Y-10200000D01*
X10770000Y-10160000D02*
X10730000Y-10200000D01*
X10805000Y-6810000D02*
X10845000Y-6850000D01*
X10845000Y-6810000D02*
X10805000Y-6850000D01*
X10805000Y-6985000D02*
X10845000Y-7025000D01*
X10845000Y-6985000D02*
X10805000Y-7025000D01*
X10805000Y-7160000D02*
X10845000Y-7200000D01*
X10845000Y-7160000D02*
X10805000Y-7200000D01*
X10820000Y-11542501D02*
X10860000Y-11582501D01*
X10860000Y-11542501D02*
X10820000Y-11582501D01*
X10880000Y-11830000D02*
X10920000Y-11870000D01*
X10920000Y-11830000D02*
X10880000Y-11870000D01*
X10880000Y-12030000D02*
X10920000Y-12070000D01*
X10920000Y-12030000D02*
X10880000Y-12070000D01*
X10900000Y-11620000D02*
X10940000Y-11660000D01*
X10940000Y-11620000D02*
X10900000Y-11660000D01*
X10980000Y-11700000D02*
X11020000Y-11740000D01*
X11020000Y-11700000D02*
X10980000Y-11740000D01*
X11005000Y-6810000D02*
X11045000Y-6850000D01*
X11045000Y-6810000D02*
X11005000Y-6850000D01*
X11005000Y-6960000D02*
X11045000Y-7000000D01*
X11045000Y-6960000D02*
X11005000Y-7000000D01*
X11060000Y-11780000D02*
X11100000Y-11820000D01*
X11100000Y-11780000D02*
X11060000Y-11820000D01*
X11140000Y-11860000D02*
X11180000Y-11900000D01*
X11180000Y-11860000D02*
X11140000Y-11900000D01*
X11205000Y-6810000D02*
X11245000Y-6850000D01*
X11245000Y-6810000D02*
X11205000Y-6850000D01*
X11220000Y-11940000D02*
X11260000Y-11980000D01*
X11260000Y-11940000D02*
X11220000Y-11980000D01*
X11300000Y-12020000D02*
X11340000Y-12060000D01*
X11340000Y-12020000D02*
X11300000Y-12060000D01*
X11355000Y-8235000D02*
X11395000Y-8275000D01*
X11395000Y-8235000D02*
X11355000Y-8275000D01*
X11355000Y-8435000D02*
X11395000Y-8475000D01*
X11395000Y-8435000D02*
X11355000Y-8475000D01*
X11355000Y-8630000D02*
X11395000Y-8670000D01*
X11395000Y-8630000D02*
X11355000Y-8670000D01*
X11380000Y-12099999D02*
X11420000Y-12139999D01*
X11420000Y-12099999D02*
X11380000Y-12139999D01*
X11555000Y-8235000D02*
X11595000Y-8275000D01*
X11595000Y-8235000D02*
X11555000Y-8275000D01*
X11555000Y-8435000D02*
X11595000Y-8475000D01*
X11595000Y-8435000D02*
X11555000Y-8475000D01*
X11555000Y-8630000D02*
X11595000Y-8670000D01*
X11595000Y-8630000D02*
X11555000Y-8670000D01*
X11755000Y-7110000D02*
X11795000Y-7150000D01*
X11795000Y-7110000D02*
X11755000Y-7150000D01*
X11755000Y-7310000D02*
X11795000Y-7350000D01*
X11795000Y-7310000D02*
X11755000Y-7350000D01*
X11755000Y-7510000D02*
X11795000Y-7550000D01*
X11795000Y-7510000D02*
X11755000Y-7550000D01*
X11755000Y-8235000D02*
X11795000Y-8275000D01*
X11795000Y-8235000D02*
X11755000Y-8275000D01*
X11755000Y-8435000D02*
X11795000Y-8475000D01*
X11795000Y-8435000D02*
X11755000Y-8475000D01*
X11755000Y-8630000D02*
X11795000Y-8670000D01*
X11795000Y-8630000D02*
X11755000Y-8670000D01*
X11880000Y-8010000D02*
X11920000Y-8050000D01*
X11920000Y-8010000D02*
X11880000Y-8050000D01*
X11955000Y-8435000D02*
X11995000Y-8475000D01*
X11995000Y-8435000D02*
X11955000Y-8475000D01*
X12030000Y-7305000D02*
X12070000Y-7345000D01*
X12070000Y-7305000D02*
X12030000Y-7345000D01*
X12030000Y-7505000D02*
X12070000Y-7545000D01*
X12070000Y-7505000D02*
X12030000Y-7545000D01*
X12030000Y-7705000D02*
X12070000Y-7745000D01*
X12070000Y-7705000D02*
X12030000Y-7745000D01*
X12055000Y-6460000D02*
X12095000Y-6500000D01*
X12095000Y-6460000D02*
X12055000Y-6500000D01*
X12055000Y-6660000D02*
X12095000Y-6700000D01*
X12095000Y-6660000D02*
X12055000Y-6700000D01*
X12155000Y-8435000D02*
X12195000Y-8475000D01*
X12195000Y-8435000D02*
X12155000Y-8475000D01*
X12230000Y-7505000D02*
X12270000Y-7545000D01*
X12270000Y-7505000D02*
X12230000Y-7545000D01*
X12230000Y-7705000D02*
X12270000Y-7745000D01*
X12270000Y-7705000D02*
X12230000Y-7745000D01*
X12280000Y-5910000D02*
X12320000Y-5950000D01*
X12320000Y-5910000D02*
X12280000Y-5950000D01*
X12280000Y-6110000D02*
X12320000Y-6150000D01*
X12320000Y-6110000D02*
X12280000Y-6150000D01*
X12280000Y-6310000D02*
X12320000Y-6350000D01*
X12320000Y-6310000D02*
X12280000Y-6350000D01*
X12355000Y-8435000D02*
X12395000Y-8475000D01*
X12395000Y-8435000D02*
X12355000Y-8475000D01*
X12430000Y-7705000D02*
X12470000Y-7745000D01*
X12470000Y-7705000D02*
X12430000Y-7745000D01*
X12530000Y-10105000D02*
X12570000Y-10145000D01*
X12570000Y-10105000D02*
X12530000Y-10145000D01*
X12530000Y-10305000D02*
X12570000Y-10345000D01*
X12570000Y-10305000D02*
X12530000Y-10345000D01*
X12530000Y-10510000D02*
X12570000Y-10550000D01*
X12570000Y-10510000D02*
X12530000Y-10550000D01*
X12555000Y-7310000D02*
X12595000Y-7350000D01*
X12595000Y-7310000D02*
X12555000Y-7350000D01*
X12555000Y-8435000D02*
X12595000Y-8475000D01*
X12595000Y-8435000D02*
X12555000Y-8475000D01*
X12730000Y-10105000D02*
X12770000Y-10145000D01*
X12770000Y-10105000D02*
X12730000Y-10145000D01*
X12730000Y-10305000D02*
X12770000Y-10345000D01*
X12770000Y-10305000D02*
X12730000Y-10345000D01*
X12730000Y-10510000D02*
X12770000Y-10550000D01*
X12770000Y-10510000D02*
X12730000Y-10550000D01*
X12755000Y-7310000D02*
X12795000Y-7350000D01*
X12795000Y-7310000D02*
X12755000Y-7350000D01*
X12755000Y-7510000D02*
X12795000Y-7550000D01*
X12795000Y-7510000D02*
X12755000Y-7550000D01*
X12930000Y-10510000D02*
X12970000Y-10550000D01*
X12970000Y-10510000D02*
X12930000Y-10550000D01*
X12955000Y-7310000D02*
X12995000Y-7350000D01*
X12995000Y-7310000D02*
X12955000Y-7350000D01*
X12955000Y-7510000D02*
X12995000Y-7550000D01*
X12995000Y-7510000D02*
X12955000Y-7550000D01*
X12955000Y-7710000D02*
X12995000Y-7750000D01*
X12995000Y-7710000D02*
X12955000Y-7750000D01*
X13380000Y-12210000D02*
X13420000Y-12250000D01*
X13420000Y-12210000D02*
X13380000Y-12250000D01*
X13422500Y-8922500D02*
X13462500Y-8962500D01*
X13462500Y-8922500D02*
X13422500Y-8962500D01*
X13422500Y-9050000D02*
X13462500Y-9090000D01*
X13462500Y-9050000D02*
X13422500Y-9090000D01*
X13422500Y-9177500D02*
X13462500Y-9217500D01*
X13462500Y-9177500D02*
X13422500Y-9217500D01*
X13422500Y-9307500D02*
X13462500Y-9347500D01*
X13462500Y-9307500D02*
X13422500Y-9347500D01*
X13422500Y-9432500D02*
X13462500Y-9472500D01*
X13462500Y-9432500D02*
X13422500Y-9472500D01*
X13422500Y-9557500D02*
X13462500Y-9597500D01*
X13462500Y-9557500D02*
X13422500Y-9597500D01*
X13422500Y-9685000D02*
X13462500Y-9725000D01*
X13462500Y-9685000D02*
X13422500Y-9725000D01*
X13422500Y-9812500D02*
X13462500Y-9852500D01*
X13462500Y-9812500D02*
X13422500Y-9852500D01*
X13422500Y-10622500D02*
X13462500Y-10662500D01*
X13462500Y-10622500D02*
X13422500Y-10662500D01*
X13422500Y-10750000D02*
X13462500Y-10790000D01*
X13462500Y-10750000D02*
X13422500Y-10790000D01*
X13422500Y-10877500D02*
X13462500Y-10917500D01*
X13462500Y-10877500D02*
X13422500Y-10917500D01*
X13422500Y-11007500D02*
X13462500Y-11047500D01*
X13462500Y-11007500D02*
X13422500Y-11047500D01*
X13422500Y-11132500D02*
X13462500Y-11172500D01*
X13462500Y-11132500D02*
X13422500Y-11172500D01*
X13422500Y-11257500D02*
X13462500Y-11297500D01*
X13462500Y-11257500D02*
X13422500Y-11297500D01*
X13422500Y-11385000D02*
X13462500Y-11425000D01*
X13462500Y-11385000D02*
X13422500Y-11425000D01*
X13422500Y-11512500D02*
X13462500Y-11552500D01*
X13462500Y-11512500D02*
X13422500Y-11552500D01*
X13423000Y-8797000D02*
X13463000Y-8837000D01*
X13463000Y-8797000D02*
X13423000Y-8837000D01*
X13460000Y-12290000D02*
X13500000Y-12330000D01*
X13500000Y-12290000D02*
X13460000Y-12330000D01*
X13540000Y-12370000D02*
X13580000Y-12410000D01*
X13580000Y-12370000D02*
X13540000Y-12410000D01*
X13555000Y-9960000D02*
X13595000Y-10000000D01*
X13595000Y-9960000D02*
X13555000Y-10000000D01*
X13555000Y-10160000D02*
X13595000Y-10200000D01*
X13595000Y-10160000D02*
X13555000Y-10200000D01*
X13555000Y-10360000D02*
X13595000Y-10400000D01*
X13595000Y-10360000D02*
X13555000Y-10400000D01*
X13620000Y-12450000D02*
X13660000Y-12490000D01*
X13660000Y-12450000D02*
X13620000Y-12490000D01*
X13655000Y-11610000D02*
X13695000Y-11650000D01*
X13695000Y-11610000D02*
X13655000Y-11650000D01*
X13680000Y-6810000D02*
X13720000Y-6850000D01*
X13720000Y-6810000D02*
X13680000Y-6850000D01*
X13680000Y-6985000D02*
X13720000Y-7025000D01*
X13720000Y-6985000D02*
X13680000Y-7025000D01*
X13680000Y-7160000D02*
X13720000Y-7200000D01*
X13720000Y-7160000D02*
X13680000Y-7200000D01*
X13700000Y-12530000D02*
X13740000Y-12570000D01*
X13740000Y-12530000D02*
X13700000Y-12570000D01*
X13755000Y-9960000D02*
X13795000Y-10000000D01*
X13795000Y-9960000D02*
X13755000Y-10000000D01*
X13755000Y-10160000D02*
X13795000Y-10200000D01*
X13795000Y-10160000D02*
X13755000Y-10200000D01*
X13755000Y-10360000D02*
X13795000Y-10400000D01*
X13795000Y-10360000D02*
X13755000Y-10400000D01*
X13780000Y-12610000D02*
X13820000Y-12650000D01*
X13820000Y-12610000D02*
X13780000Y-12650000D01*
X13860000Y-12690000D02*
X13900000Y-12730000D01*
X13900000Y-12690000D02*
X13860000Y-12730000D01*
X13880000Y-6810000D02*
X13920000Y-6850000D01*
X13920000Y-6810000D02*
X13880000Y-6850000D01*
X13880000Y-6985000D02*
X13920000Y-7025000D01*
X13920000Y-6985000D02*
X13880000Y-7025000D01*
X13920000Y-9920000D02*
X13960000Y-9960000D01*
X13960000Y-9920000D02*
X13920000Y-9960000D01*
X13940000Y-12769999D02*
X13980000Y-12809999D01*
X13980000Y-12769999D02*
X13940000Y-12809999D01*
X14000000Y-10000000D02*
X14040000Y-10040000D01*
X14040000Y-10000000D02*
X14000000Y-10040000D01*
X14080000Y-6810000D02*
X14120000Y-6850000D01*
X14120000Y-6810000D02*
X14080000Y-6850000D01*
X14080000Y-10080000D02*
X14120000Y-10120000D01*
X14120000Y-10080000D02*
X14080000Y-10120000D01*
X14160000Y-10160000D02*
X14200000Y-10200000D01*
X14200000Y-10160000D02*
X14160000Y-10200000D01*
X14205000Y-8435000D02*
X14245000Y-8475000D01*
X14245000Y-8435000D02*
X14205000Y-8475000D01*
X14205000Y-8635000D02*
X14245000Y-8675000D01*
X14245000Y-8635000D02*
X14205000Y-8675000D01*
X14240000Y-10240000D02*
X14280000Y-10280000D01*
X14280000Y-10240000D02*
X14240000Y-10280000D01*
X14320000Y-10320000D02*
X14360000Y-10360000D01*
X14360000Y-10320000D02*
X14320000Y-10360000D01*
X14400000Y-10400000D02*
X14440000Y-10440000D01*
X14440000Y-10400000D02*
X14400000Y-10440000D01*
X14405000Y-8435000D02*
X14445000Y-8475000D01*
X14445000Y-8435000D02*
X14405000Y-8475000D01*
X14405000Y-8635000D02*
X14445000Y-8675000D01*
X14445000Y-8635000D02*
X14405000Y-8675000D01*
X14480000Y-10480000D02*
X14520000Y-10520000D01*
X14520000Y-10480000D02*
X14480000Y-10520000D01*
X14605000Y-8435000D02*
X14645000Y-8475000D01*
X14645000Y-8435000D02*
X14605000Y-8475000D01*
X14605000Y-8635000D02*
X14645000Y-8675000D01*
X14645000Y-8635000D02*
X14605000Y-8675000D01*
X14763500Y-7976500D02*
X14803500Y-8016500D01*
X14803500Y-7976500D02*
X14763500Y-8016500D01*
X14805000Y-8435000D02*
X14845000Y-8475000D01*
X14845000Y-8435000D02*
X14805000Y-8475000D01*
X14805000Y-8635000D02*
X14845000Y-8675000D01*
X14845000Y-8635000D02*
X14805000Y-8675000D01*
X15030000Y-6810000D02*
X15070000Y-6850000D01*
X15070000Y-6810000D02*
X15030000Y-6850000D01*
X15030000Y-6960000D02*
X15070000Y-7000000D01*
X15070000Y-6960000D02*
X15030000Y-7000000D01*
X15130000Y-7735000D02*
X15170000Y-7775000D01*
X15170000Y-7735000D02*
X15130000Y-7775000D01*
X15130000Y-12235000D02*
X15170000Y-12275000D01*
X15170000Y-12235000D02*
X15130000Y-12275000D01*
X15155000Y-8010000D02*
X15195000Y-8050000D01*
X15195000Y-8010000D02*
X15155000Y-8050000D01*
X15230000Y-6810000D02*
X15270000Y-6850000D01*
X15270000Y-6810000D02*
X15230000Y-6850000D01*
X15230000Y-6960000D02*
X15270000Y-7000000D01*
X15270000Y-6960000D02*
X15230000Y-7000000D01*
X15280000Y-12235000D02*
X15320000Y-12275000D01*
X15320000Y-12235000D02*
X15280000Y-12275000D01*
X15355000Y-8135000D02*
X15395000Y-8175000D01*
X15395000Y-8135000D02*
X15355000Y-8175000D01*
X15380000Y-8405000D02*
X15420000Y-8445000D01*
X15420000Y-8405000D02*
X15380000Y-8445000D01*
X15430000Y-6810000D02*
X15470000Y-6850000D01*
X15470000Y-6810000D02*
X15430000Y-6850000D01*
X15430000Y-6960000D02*
X15470000Y-7000000D01*
X15470000Y-6960000D02*
X15430000Y-7000000D01*
X15494000Y-12240000D02*
X15534000Y-12280000D01*
X15534000Y-12240000D02*
X15494000Y-12280000D01*
X15530000Y-5910000D02*
X15570000Y-5950000D01*
X15570000Y-5910000D02*
X15530000Y-5950000D01*
X15530000Y-6110000D02*
X15570000Y-6150000D01*
X15570000Y-6110000D02*
X15530000Y-6150000D01*
X15530000Y-6310000D02*
X15570000Y-6350000D01*
X15570000Y-6310000D02*
X15530000Y-6350000D01*
X15551000Y-7356000D02*
X15591000Y-7396000D01*
X15591000Y-7356000D02*
X15551000Y-7396000D01*
X15621000Y-12239000D02*
X15661000Y-12279000D01*
X15661000Y-12239000D02*
X15621000Y-12279000D01*
X15630000Y-6810000D02*
X15670000Y-6850000D01*
X15670000Y-6810000D02*
X15630000Y-6850000D01*
X15630000Y-6960000D02*
X15670000Y-7000000D01*
X15670000Y-6960000D02*
X15630000Y-7000000D01*
X15634000Y-8126001D02*
X15674000Y-8166001D01*
X15674000Y-8126001D02*
X15634000Y-8166001D01*
X15655000Y-8635000D02*
X15695000Y-8675000D01*
X15695000Y-8635000D02*
X15655000Y-8675000D01*
X15748000Y-12240000D02*
X15788000Y-12280000D01*
X15788000Y-12240000D02*
X15748000Y-12280000D01*
X15850000Y-6973000D02*
X15890000Y-7013000D01*
X15890000Y-6973000D02*
X15850000Y-7013000D01*
X15855000Y-8635000D02*
X15895000Y-8675000D01*
X15895000Y-8635000D02*
X15855000Y-8675000D01*
X15875000Y-12240000D02*
X15915000Y-12280000D01*
X15915000Y-12240000D02*
X15875000Y-12280000D01*
X16002000Y-12240000D02*
X16042000Y-12280000D01*
X16042000Y-12240000D02*
X16002000Y-12280000D01*
X16122500Y-7482500D02*
X16162500Y-7522500D01*
X16162500Y-7482500D02*
X16122500Y-7522500D01*
X16123000Y-7865000D02*
X16163000Y-7905000D01*
X16163000Y-7865000D02*
X16123000Y-7905000D01*
X16129000Y-12240000D02*
X16169000Y-12280000D01*
X16169000Y-12240000D02*
X16129000Y-12280000D01*
X16230000Y-6973000D02*
X16270000Y-7013000D01*
X16270000Y-6973000D02*
X16230000Y-7013000D01*
X16256000Y-12240000D02*
X16296000Y-12280000D01*
X16296000Y-12240000D02*
X16256000Y-12280000D01*
X16257000Y-7482000D02*
X16297000Y-7522000D01*
X16297000Y-7482000D02*
X16257000Y-7522000D01*
X16302500Y-8922500D02*
X16342500Y-8962500D01*
X16342500Y-8922500D02*
X16302500Y-8962500D01*
X16302500Y-9050000D02*
X16342500Y-9090000D01*
X16342500Y-9050000D02*
X16302500Y-9090000D01*
X16302500Y-9177500D02*
X16342500Y-9217500D01*
X16342500Y-9177500D02*
X16302500Y-9217500D01*
X16302500Y-9307500D02*
X16342500Y-9347500D01*
X16342500Y-9307500D02*
X16302500Y-9347500D01*
X16302500Y-9432500D02*
X16342500Y-9472500D01*
X16342500Y-9432500D02*
X16302500Y-9472500D01*
X16302500Y-9557500D02*
X16342500Y-9597500D01*
X16342500Y-9557500D02*
X16302500Y-9597500D01*
X16302500Y-9685000D02*
X16342500Y-9725000D01*
X16342500Y-9685000D02*
X16302500Y-9725000D01*
X16302500Y-9812500D02*
X16342500Y-9852500D01*
X16342500Y-9812500D02*
X16302500Y-9852500D01*
X16302500Y-10622500D02*
X16342500Y-10662500D01*
X16342500Y-10622500D02*
X16302500Y-10662500D01*
X16302500Y-10750000D02*
X16342500Y-10790000D01*
X16342500Y-10750000D02*
X16302500Y-10790000D01*
X16302500Y-10877500D02*
X16342500Y-10917500D01*
X16342500Y-10877500D02*
X16302500Y-10917500D01*
X16302500Y-11007500D02*
X16342500Y-11047500D01*
X16342500Y-11007500D02*
X16302500Y-11047500D01*
X16302500Y-11132500D02*
X16342500Y-11172500D01*
X16342500Y-11132500D02*
X16302500Y-11172500D01*
X16302500Y-11257500D02*
X16342500Y-11297500D01*
X16342500Y-11257500D02*
X16302500Y-11297500D01*
X16302500Y-11385000D02*
X16342500Y-11425000D01*
X16342500Y-11385000D02*
X16302500Y-11425000D01*
X16302500Y-11512500D02*
X16342500Y-11552500D01*
X16342500Y-11512500D02*
X16302500Y-11552500D01*
X16303000Y-8796000D02*
X16343000Y-8836000D01*
X16343000Y-8796000D02*
X16303000Y-8836000D01*
X16330000Y-11660000D02*
X16370000Y-11700000D01*
X16370000Y-11660000D02*
X16330000Y-11700000D01*
X16383000Y-12240000D02*
X16423000Y-12280000D01*
X16423000Y-12240000D02*
X16383000Y-12280000D01*
X16388000Y-7482000D02*
X16428000Y-7522000D01*
X16428000Y-7482000D02*
X16388000Y-7522000D01*
X16510000Y-12482501D02*
X16550000Y-12522501D01*
X16550000Y-12482501D02*
X16510000Y-12522501D01*
X16630000Y-7755000D02*
X16670000Y-7795000D01*
X16670000Y-7755000D02*
X16630000Y-7795000D01*
X16630000Y-7960000D02*
X16670000Y-8000000D01*
X16670000Y-7960000D02*
X16630000Y-8000000D01*
X16630000Y-8160000D02*
X16670000Y-8200000D01*
X16670000Y-8160000D02*
X16630000Y-8200000D01*
X16637500Y-12240000D02*
X16677500Y-12280000D01*
X16677500Y-12240000D02*
X16637500Y-12280000D01*
X16740000Y-9920000D02*
X16780000Y-9960000D01*
X16780000Y-9920000D02*
X16740000Y-9960000D01*
X16820000Y-10000000D02*
X16860000Y-10040000D01*
X16860000Y-10000000D02*
X16820000Y-10040000D01*
X16830000Y-7755000D02*
X16870000Y-7795000D01*
X16870000Y-7755000D02*
X16830000Y-7795000D01*
X16830000Y-7960000D02*
X16870000Y-8000000D01*
X16870000Y-7960000D02*
X16830000Y-8000000D01*
X16830000Y-8160000D02*
X16870000Y-8200000D01*
X16870000Y-8160000D02*
X16830000Y-8200000D01*
X16834000Y-11720000D02*
X16874000Y-11760000D01*
X16874000Y-11720000D02*
X16834000Y-11760000D01*
X16900000Y-10080000D02*
X16940000Y-10120000D01*
X16940000Y-10080000D02*
X16900000Y-10120000D01*
X16910000Y-12610000D02*
X16950000Y-12650000D01*
X16950000Y-12610000D02*
X16910000Y-12650000D01*
X16961000Y-11719000D02*
X17001000Y-11759000D01*
X17001000Y-11719000D02*
X16961000Y-11759000D01*
X16980000Y-10160000D02*
X17020000Y-10200000D01*
X17020000Y-10160000D02*
X16980000Y-10200000D01*
X17010000Y-12610000D02*
X17050000Y-12650000D01*
X17050000Y-12610000D02*
X17010000Y-12650000D01*
X17010000Y-12710000D02*
X17050000Y-12750000D01*
X17050000Y-12710000D02*
X17010000Y-12750000D01*
X17010000Y-12810000D02*
X17050000Y-12850000D01*
X17050000Y-12810000D02*
X17010000Y-12850000D01*
X17030000Y-6985000D02*
X17070000Y-7025000D01*
X17070000Y-6985000D02*
X17030000Y-7025000D01*
X17030000Y-7160000D02*
X17070000Y-7200000D01*
X17070000Y-7160000D02*
X17030000Y-7200000D01*
X17030000Y-7360000D02*
X17070000Y-7400000D01*
X17070000Y-7360000D02*
X17030000Y-7400000D01*
X17030000Y-7960000D02*
X17070000Y-8000000D01*
X17070000Y-7960000D02*
X17030000Y-8000000D01*
X17055000Y-8635000D02*
X17095000Y-8675000D01*
X17095000Y-8635000D02*
X17055000Y-8675000D01*
X17060000Y-10240000D02*
X17100000Y-10280000D01*
X17100000Y-10240000D02*
X17060000Y-10280000D01*
X17088000Y-11720000D02*
X17128000Y-11760000D01*
X17128000Y-11720000D02*
X17088000Y-11760000D01*
X17110000Y-12710000D02*
X17150000Y-12750000D01*
X17150000Y-12710000D02*
X17110000Y-12750000D01*
X17110000Y-12810000D02*
X17150000Y-12850000D01*
X17150000Y-12810000D02*
X17110000Y-12850000D01*
X17140000Y-10320000D02*
X17180000Y-10360000D01*
X17180000Y-10320000D02*
X17140000Y-10360000D01*
X17215000Y-11720000D02*
X17255000Y-11760000D01*
X17255000Y-11720000D02*
X17215000Y-11760000D01*
X17220000Y-10400000D02*
X17260000Y-10440000D01*
X17260000Y-10400000D02*
X17220000Y-10440000D01*
X17230000Y-6985000D02*
X17270000Y-7025000D01*
X17270000Y-6985000D02*
X17230000Y-7025000D01*
X17230000Y-7160000D02*
X17270000Y-7200000D01*
X17270000Y-7160000D02*
X17230000Y-7200000D01*
X17230000Y-7360000D02*
X17270000Y-7400000D01*
X17270000Y-7360000D02*
X17230000Y-7400000D01*
X17230000Y-7560000D02*
X17270000Y-7600000D01*
X17270000Y-7560000D02*
X17230000Y-7600000D01*
X17255000Y-8455000D02*
X17295000Y-8495000D01*
X17295000Y-8455000D02*
X17255000Y-8495000D01*
X17255000Y-8635000D02*
X17295000Y-8675000D01*
X17295000Y-8635000D02*
X17255000Y-8675000D01*
X17290000Y-12720000D02*
X17330000Y-12760000D01*
X17330000Y-12720000D02*
X17290000Y-12760000D01*
X17300000Y-10480000D02*
X17340000Y-10520000D01*
X17340000Y-10480000D02*
X17300000Y-10520000D01*
X17342000Y-11720000D02*
X17382000Y-11760000D01*
X17382000Y-11720000D02*
X17342000Y-11760000D01*
X17455000Y-8455000D02*
X17495000Y-8495000D01*
X17495000Y-8455000D02*
X17455000Y-8495000D01*
X17455000Y-8635000D02*
X17495000Y-8675000D01*
X17495000Y-8635000D02*
X17455000Y-8675000D01*
X17455000Y-9960000D02*
X17495000Y-10000000D01*
X17495000Y-9960000D02*
X17455000Y-10000000D01*
X17455000Y-10160000D02*
X17495000Y-10200000D01*
X17495000Y-10160000D02*
X17455000Y-10200000D01*
X17469000Y-11720000D02*
X17509000Y-11760000D01*
X17509000Y-11720000D02*
X17469000Y-11760000D01*
X17530000Y-12235000D02*
X17570000Y-12275000D01*
X17570000Y-12235000D02*
X17530000Y-12275000D01*
X17530000Y-12435000D02*
X17570000Y-12475000D01*
X17570000Y-12435000D02*
X17530000Y-12475000D01*
X17596000Y-11720000D02*
X17636000Y-11760000D01*
X17636000Y-11720000D02*
X17596000Y-11760000D01*
X17655000Y-7330000D02*
X17695000Y-7370000D01*
X17695000Y-7330000D02*
X17655000Y-7370000D01*
X17655000Y-7530000D02*
X17695000Y-7570000D01*
X17695000Y-7530000D02*
X17655000Y-7570000D01*
X17655000Y-7735000D02*
X17695000Y-7775000D01*
X17695000Y-7735000D02*
X17655000Y-7775000D01*
X17655000Y-7960000D02*
X17695000Y-8000000D01*
X17695000Y-7960000D02*
X17655000Y-8000000D01*
X17655000Y-8455000D02*
X17695000Y-8495000D01*
X17695000Y-8455000D02*
X17655000Y-8495000D01*
X17655000Y-8635000D02*
X17695000Y-8675000D01*
X17695000Y-8635000D02*
X17655000Y-8675000D01*
X17655000Y-9960000D02*
X17695000Y-10000000D01*
X17695000Y-9960000D02*
X17655000Y-10000000D01*
X17655000Y-10160000D02*
X17695000Y-10200000D01*
X17695000Y-10160000D02*
X17655000Y-10200000D01*
X17723000Y-11720000D02*
X17763000Y-11760000D01*
X17763000Y-11720000D02*
X17723000Y-11760000D01*
X17730000Y-12435000D02*
X17770000Y-12475000D01*
X17770000Y-12435000D02*
X17730000Y-12475000D01*
X17730000Y-12630000D02*
X17770000Y-12670000D01*
X17770000Y-12630000D02*
X17730000Y-12670000D01*
X17755000Y-12230000D02*
X17795000Y-12270000D01*
X17795000Y-12230000D02*
X17755000Y-12270000D01*
X17855000Y-7330000D02*
X17895000Y-7370000D01*
X17895000Y-7330000D02*
X17855000Y-7370000D01*
X17855000Y-7530000D02*
X17895000Y-7570000D01*
X17895000Y-7530000D02*
X17855000Y-7570000D01*
X17855000Y-7735000D02*
X17895000Y-7775000D01*
X17895000Y-7735000D02*
X17855000Y-7775000D01*
X17855000Y-7960000D02*
X17895000Y-8000000D01*
X17895000Y-7960000D02*
X17855000Y-8000000D01*
X17855000Y-9960000D02*
X17895000Y-10000000D01*
X17895000Y-9960000D02*
X17855000Y-10000000D01*
X17855000Y-10160000D02*
X17895000Y-10200000D01*
X17895000Y-10160000D02*
X17855000Y-10200000D01*
X17930000Y-11805000D02*
X17970000Y-11845000D01*
X17970000Y-11805000D02*
X17930000Y-11845000D01*
X17930000Y-11905000D02*
X17970000Y-11945000D01*
X17970000Y-11905000D02*
X17930000Y-11945000D01*
X17930000Y-12235000D02*
X17970000Y-12275000D01*
X17970000Y-12235000D02*
X17930000Y-12275000D01*
X17930000Y-12435000D02*
X17970000Y-12475000D01*
X17970000Y-12435000D02*
X17930000Y-12475000D01*
X17930000Y-12630000D02*
X17970000Y-12670000D01*
X17970000Y-12630000D02*
X17930000Y-12670000D01*
X17930000Y-12830000D02*
X17970000Y-12870000D01*
X17970000Y-12830000D02*
X17930000Y-12870000D01*
X18080000Y-7330000D02*
X18120000Y-7370000D01*
X18120000Y-7330000D02*
X18080000Y-7370000D01*
X18080000Y-7530000D02*
X18120000Y-7570000D01*
X18120000Y-7530000D02*
X18080000Y-7570000D01*
X18080000Y-7735000D02*
X18120000Y-7775000D01*
X18120000Y-7735000D02*
X18080000Y-7775000D01*
X18080000Y-7960000D02*
X18120000Y-8000000D01*
X18120000Y-7960000D02*
X18080000Y-8000000D01*
X18080000Y-9960000D02*
X18120000Y-10000000D01*
X18120000Y-9960000D02*
X18080000Y-10000000D01*
X18080000Y-10160000D02*
X18120000Y-10200000D01*
X18120000Y-10160000D02*
X18080000Y-10200000D01*
X18130000Y-11805000D02*
X18170000Y-11845000D01*
X18170000Y-11805000D02*
X18130000Y-11845000D01*
X18130000Y-11905000D02*
X18170000Y-11945000D01*
X18170000Y-11905000D02*
X18130000Y-11945000D01*
X18130000Y-12235000D02*
X18170000Y-12275000D01*
X18170000Y-12235000D02*
X18130000Y-12275000D01*
X18130000Y-12435000D02*
X18170000Y-12475000D01*
X18170000Y-12435000D02*
X18130000Y-12475000D01*
X18130000Y-12630000D02*
X18170000Y-12670000D01*
X18170000Y-12630000D02*
X18130000Y-12670000D01*
X18280000Y-7330000D02*
X18320000Y-7370000D01*
X18320000Y-7330000D02*
X18280000Y-7370000D01*
X18280000Y-7530000D02*
X18320000Y-7570000D01*
X18320000Y-7530000D02*
X18280000Y-7570000D01*
X18280000Y-7735000D02*
X18320000Y-7775000D01*
X18320000Y-7735000D02*
X18280000Y-7775000D01*
X18280000Y-7960000D02*
X18320000Y-8000000D01*
X18320000Y-7960000D02*
X18280000Y-8000000D01*
X18305000Y-9960000D02*
X18345000Y-10000000D01*
X18345000Y-9960000D02*
X18305000Y-10000000D01*
X18430000Y-12435000D02*
X18470000Y-12475000D01*
X18470000Y-12435000D02*
X18430000Y-12475000D01*
X18430000Y-12630000D02*
X18470000Y-12670000D01*
X18470000Y-12630000D02*
X18430000Y-12670000D01*
X18480000Y-7330000D02*
X18520000Y-7370000D01*
X18520000Y-7330000D02*
X18480000Y-7370000D01*
X18480000Y-7530000D02*
X18520000Y-7570000D01*
X18520000Y-7530000D02*
X18480000Y-7570000D01*
X18480000Y-7735000D02*
X18520000Y-7775000D01*
X18520000Y-7735000D02*
X18480000Y-7775000D01*
X18480000Y-7960000D02*
X18520000Y-8000000D01*
X18520000Y-7960000D02*
X18480000Y-8000000D01*
X18505000Y-9960000D02*
X18545000Y-10000000D01*
X18545000Y-9960000D02*
X18505000Y-10000000D01*
X18550000Y-8922500D02*
X18590000Y-8962500D01*
X18590000Y-8922500D02*
X18550000Y-8962500D01*
X18550000Y-9050000D02*
X18590000Y-9090000D01*
X18590000Y-9050000D02*
X18550000Y-9090000D01*
X18550000Y-9177500D02*
X18590000Y-9217500D01*
X18590000Y-9177500D02*
X18550000Y-9217500D01*
X18550000Y-9302500D02*
X18590000Y-9342500D01*
X18590000Y-9302500D02*
X18550000Y-9342500D01*
X18550000Y-9427500D02*
X18590000Y-9467500D01*
X18590000Y-9427500D02*
X18550000Y-9467500D01*
X18550000Y-9557500D02*
X18590000Y-9597500D01*
X18590000Y-9557500D02*
X18550000Y-9597500D01*
X18550000Y-9685000D02*
X18590000Y-9725000D01*
X18590000Y-9685000D02*
X18550000Y-9725000D01*
X18550000Y-9812500D02*
X18590000Y-9852500D01*
X18590000Y-9812500D02*
X18550000Y-9852500D01*
X18550000Y-10625000D02*
X18590000Y-10665000D01*
X18590000Y-10625000D02*
X18550000Y-10665000D01*
X18550000Y-10752500D02*
X18590000Y-10792500D01*
X18590000Y-10752500D02*
X18550000Y-10792500D01*
X18550000Y-10880000D02*
X18590000Y-10920000D01*
X18590000Y-10880000D02*
X18550000Y-10920000D01*
X18550000Y-11005000D02*
X18590000Y-11045000D01*
X18590000Y-11005000D02*
X18550000Y-11045000D01*
X18550000Y-11130000D02*
X18590000Y-11170000D01*
X18590000Y-11130000D02*
X18550000Y-11170000D01*
X18550000Y-11260000D02*
X18590000Y-11300000D01*
X18590000Y-11260000D02*
X18550000Y-11300000D01*
X18550000Y-11387500D02*
X18590000Y-11427500D01*
X18590000Y-11387500D02*
X18550000Y-11427500D01*
X18550000Y-11515000D02*
X18590000Y-11555000D01*
X18590000Y-11515000D02*
X18550000Y-11555000D01*
X18630000Y-12435000D02*
X18670000Y-12475000D01*
X18670000Y-12435000D02*
X18630000Y-12475000D01*
X18630000Y-12630000D02*
X18670000Y-12670000D01*
X18670000Y-12630000D02*
X18630000Y-12670000D01*
X18705000Y-7330000D02*
X18745000Y-7370000D01*
X18745000Y-7330000D02*
X18705000Y-7370000D01*
X18705000Y-7530000D02*
X18745000Y-7570000D01*
X18745000Y-7530000D02*
X18705000Y-7570000D01*
X18705000Y-7735000D02*
X18745000Y-7775000D01*
X18745000Y-7735000D02*
X18705000Y-7775000D01*
X18705000Y-7960000D02*
X18745000Y-8000000D01*
X18745000Y-7960000D02*
X18705000Y-8000000D01*
X18830000Y-12435000D02*
X18870000Y-12475000D01*
X18870000Y-12435000D02*
X18830000Y-12475000D01*
X18830000Y-12630000D02*
X18870000Y-12670000D01*
X18870000Y-12630000D02*
X18830000Y-12670000D01*
X18905000Y-7330000D02*
X18945000Y-7370000D01*
X18945000Y-7330000D02*
X18905000Y-7370000D01*
X18905000Y-7530000D02*
X18945000Y-7570000D01*
X18945000Y-7530000D02*
X18905000Y-7570000D01*
X18905000Y-7735000D02*
X18945000Y-7775000D01*
X18945000Y-7735000D02*
X18905000Y-7775000D01*
X18905000Y-7960000D02*
X18945000Y-8000000D01*
X18945000Y-7960000D02*
X18905000Y-8000000D01*
X18930000Y-9985000D02*
X18970000Y-10025000D01*
X18970000Y-9985000D02*
X18930000Y-10025000D01*
X18930000Y-11685000D02*
X18970000Y-11725000D01*
X18970000Y-11685000D02*
X18930000Y-11725000D01*
X19030000Y-12435000D02*
X19070000Y-12475000D01*
X19070000Y-12435000D02*
X19030000Y-12475000D01*
X19030000Y-12630000D02*
X19070000Y-12670000D01*
X19070000Y-12630000D02*
X19030000Y-12670000D01*
X16823000Y-12809000D02*
G75*
G03*
X16823000Y-12809000I-40000J0D01*
G01*
X18370000Y-12770000D02*
G75*
G03*
X18370000Y-12770000I-40000J0D01*
G01*
D12*
X9460428Y-14220714D02*
X9460428Y-13920714D01*
X9531857Y-13920714D01*
X9574714Y-13935000D01*
X9603286Y-13963571D01*
X9617571Y-13992143D01*
X9631857Y-14049286D01*
X9631857Y-14092143D01*
X9617571Y-14149286D01*
X9603286Y-14177857D01*
X9574714Y-14206429D01*
X9531857Y-14220714D01*
X9460428Y-14220714D01*
X9760428Y-14220714D02*
X9760428Y-14020714D01*
X9760428Y-14077857D02*
X9774714Y-14049286D01*
X9789000Y-14035000D01*
X9817571Y-14020714D01*
X9846143Y-14020714D01*
X9946143Y-14220714D02*
X9946143Y-14020714D01*
X9946143Y-13920714D02*
X9931857Y-13935000D01*
X9946143Y-13949286D01*
X9960428Y-13935000D01*
X9946143Y-13920714D01*
X9946143Y-13949286D01*
X10131857Y-14220714D02*
X10103286Y-14206429D01*
X10089000Y-14177857D01*
X10089000Y-13920714D01*
X10289000Y-14220714D02*
X10260428Y-14206429D01*
X10246143Y-14177857D01*
X10246143Y-13920714D01*
X10631857Y-14220714D02*
X10631857Y-13920714D01*
X10731857Y-14135000D01*
X10831857Y-13920714D01*
X10831857Y-14220714D01*
X11103286Y-14220714D02*
X11103286Y-14063571D01*
X11089000Y-14035000D01*
X11060428Y-14020714D01*
X11003286Y-14020714D01*
X10974714Y-14035000D01*
X11103286Y-14206429D02*
X11074714Y-14220714D01*
X11003286Y-14220714D01*
X10974714Y-14206429D01*
X10960428Y-14177857D01*
X10960428Y-14149286D01*
X10974714Y-14120714D01*
X11003286Y-14106429D01*
X11074714Y-14106429D01*
X11103286Y-14092143D01*
X11246143Y-14020714D02*
X11246143Y-14320714D01*
X11246143Y-14035000D02*
X11274714Y-14020714D01*
X11331857Y-14020714D01*
X11360428Y-14035000D01*
X11374714Y-14049286D01*
X11389000Y-14077857D01*
X11389000Y-14163571D01*
X11374714Y-14192143D01*
X11360428Y-14206429D01*
X11331857Y-14220714D01*
X11274714Y-14220714D01*
X11246143Y-14206429D01*
X11517571Y-14192143D02*
X11531857Y-14206429D01*
X11517571Y-14220714D01*
X11503286Y-14206429D01*
X11517571Y-14192143D01*
X11517571Y-14220714D01*
X11517571Y-14035000D02*
X11531857Y-14049286D01*
X11517571Y-14063571D01*
X11503286Y-14049286D01*
X11517571Y-14035000D01*
X11517571Y-14063571D01*
X9134000Y-14695000D02*
X9174000Y-14735000D01*
X9174000Y-14695000D02*
X9134000Y-14735000D01*
X9517571Y-14550714D02*
X9546143Y-14550714D01*
X9574714Y-14565000D01*
X9589000Y-14579286D01*
X9603286Y-14607857D01*
X9617571Y-14665000D01*
X9617571Y-14736429D01*
X9603286Y-14793571D01*
X9589000Y-14822143D01*
X9574714Y-14836429D01*
X9546143Y-14850714D01*
X9517571Y-14850714D01*
X9489000Y-14836429D01*
X9474714Y-14822143D01*
X9460428Y-14793571D01*
X9446143Y-14736429D01*
X9446143Y-14665000D01*
X9460428Y-14607857D01*
X9474714Y-14579286D01*
X9489000Y-14565000D01*
X9517571Y-14550714D01*
X9746143Y-14822143D02*
X9760428Y-14836429D01*
X9746143Y-14850714D01*
X9731857Y-14836429D01*
X9746143Y-14822143D01*
X9746143Y-14850714D01*
X10017571Y-14650714D02*
X10017571Y-14850714D01*
X9946143Y-14536429D02*
X9874714Y-14750714D01*
X10060428Y-14750714D01*
X10231857Y-14550714D02*
X10260428Y-14550714D01*
X10289000Y-14565000D01*
X10303286Y-14579286D01*
X10317571Y-14607857D01*
X10331857Y-14665000D01*
X10331857Y-14736429D01*
X10317571Y-14793571D01*
X10303286Y-14822143D01*
X10289000Y-14836429D01*
X10260428Y-14850714D01*
X10231857Y-14850714D01*
X10203286Y-14836429D01*
X10189000Y-14822143D01*
X10174714Y-14793571D01*
X10160428Y-14736429D01*
X10160428Y-14665000D01*
X10174714Y-14607857D01*
X10189000Y-14579286D01*
X10203286Y-14565000D01*
X10231857Y-14550714D01*
X10460428Y-14850714D02*
X10460428Y-14650714D01*
X10460428Y-14679286D02*
X10474714Y-14665000D01*
X10503286Y-14650714D01*
X10546143Y-14650714D01*
X10574714Y-14665000D01*
X10589000Y-14693571D01*
X10589000Y-14850714D01*
X10589000Y-14693571D02*
X10603286Y-14665000D01*
X10631857Y-14650714D01*
X10674714Y-14650714D01*
X10703286Y-14665000D01*
X10717571Y-14693571D01*
X10717571Y-14850714D01*
X10860428Y-14850714D02*
X10860428Y-14650714D01*
X10860428Y-14679286D02*
X10874714Y-14665000D01*
X10903286Y-14650714D01*
X10946143Y-14650714D01*
X10974714Y-14665000D01*
X10989000Y-14693571D01*
X10989000Y-14850714D01*
X10989000Y-14693571D02*
X11003286Y-14665000D01*
X11031857Y-14650714D01*
X11074714Y-14650714D01*
X11103286Y-14665000D01*
X11117571Y-14693571D01*
X11117571Y-14850714D01*
X11703286Y-14536429D02*
X11446143Y-14922143D01*
X12089000Y-14550714D02*
X12117571Y-14550714D01*
X12146143Y-14565000D01*
X12160428Y-14579286D01*
X12174714Y-14607857D01*
X12189000Y-14665000D01*
X12189000Y-14736429D01*
X12174714Y-14793571D01*
X12160428Y-14822143D01*
X12146143Y-14836429D01*
X12117571Y-14850714D01*
X12089000Y-14850714D01*
X12060428Y-14836429D01*
X12046143Y-14822143D01*
X12031857Y-14793571D01*
X12017571Y-14736429D01*
X12017571Y-14665000D01*
X12031857Y-14607857D01*
X12046143Y-14579286D01*
X12060428Y-14565000D01*
X12089000Y-14550714D01*
X12317571Y-14822143D02*
X12331857Y-14836429D01*
X12317571Y-14850714D01*
X12303286Y-14836429D01*
X12317571Y-14822143D01*
X12317571Y-14850714D01*
X12517571Y-14550714D02*
X12546143Y-14550714D01*
X12574714Y-14565000D01*
X12589000Y-14579286D01*
X12603286Y-14607857D01*
X12617571Y-14665000D01*
X12617571Y-14736429D01*
X12603286Y-14793571D01*
X12589000Y-14822143D01*
X12574714Y-14836429D01*
X12546143Y-14850714D01*
X12517571Y-14850714D01*
X12489000Y-14836429D01*
X12474714Y-14822143D01*
X12460428Y-14793571D01*
X12446143Y-14736429D01*
X12446143Y-14665000D01*
X12460428Y-14607857D01*
X12474714Y-14579286D01*
X12489000Y-14565000D01*
X12517571Y-14550714D01*
X12903286Y-14850714D02*
X12731857Y-14850714D01*
X12817571Y-14850714D02*
X12817571Y-14550714D01*
X12789000Y-14593571D01*
X12760428Y-14622143D01*
X12731857Y-14636429D01*
X13160428Y-14550714D02*
X13103286Y-14550714D01*
X13074714Y-14565000D01*
X13060428Y-14579286D01*
X13031857Y-14622143D01*
X13017571Y-14679286D01*
X13017571Y-14793571D01*
X13031857Y-14822143D01*
X13046143Y-14836429D01*
X13074714Y-14850714D01*
X13131857Y-14850714D01*
X13160428Y-14836429D01*
X13174714Y-14822143D01*
X13189000Y-14793571D01*
X13189000Y-14722143D01*
X13174714Y-14693571D01*
X13160428Y-14679286D01*
X13131857Y-14665000D01*
X13074714Y-14665000D01*
X13046143Y-14679286D01*
X13031857Y-14693571D01*
X13017571Y-14722143D01*
X13303286Y-14550714D02*
X13303286Y-14607857D01*
X13417571Y-14550714D02*
X13417571Y-14607857D01*
X13860428Y-14965000D02*
X13846143Y-14950714D01*
X13817571Y-14907857D01*
X13803286Y-14879286D01*
X13789000Y-14836429D01*
X13774714Y-14765000D01*
X13774714Y-14707857D01*
X13789000Y-14636429D01*
X13803286Y-14593571D01*
X13817571Y-14565000D01*
X13846143Y-14522143D01*
X13860428Y-14507857D01*
X13946143Y-14550714D02*
X14131857Y-14550714D01*
X14031857Y-14665000D01*
X14074714Y-14665000D01*
X14103286Y-14679286D01*
X14117571Y-14693571D01*
X14131857Y-14722143D01*
X14131857Y-14793571D01*
X14117571Y-14822143D01*
X14103286Y-14836429D01*
X14074714Y-14850714D01*
X13989000Y-14850714D01*
X13960428Y-14836429D01*
X13946143Y-14822143D01*
X14403286Y-14550714D02*
X14260428Y-14550714D01*
X14246143Y-14693571D01*
X14260428Y-14679286D01*
X14289000Y-14665000D01*
X14360428Y-14665000D01*
X14389000Y-14679286D01*
X14403286Y-14693571D01*
X14417571Y-14722143D01*
X14417571Y-14793571D01*
X14403286Y-14822143D01*
X14389000Y-14836429D01*
X14360428Y-14850714D01*
X14289000Y-14850714D01*
X14260428Y-14836429D01*
X14246143Y-14822143D01*
X14589000Y-14679286D02*
X14560428Y-14665000D01*
X14546143Y-14650714D01*
X14531857Y-14622143D01*
X14531857Y-14607857D01*
X14546143Y-14579286D01*
X14560428Y-14565000D01*
X14589000Y-14550714D01*
X14646143Y-14550714D01*
X14674714Y-14565000D01*
X14689000Y-14579286D01*
X14703286Y-14607857D01*
X14703286Y-14622143D01*
X14689000Y-14650714D01*
X14674714Y-14665000D01*
X14646143Y-14679286D01*
X14589000Y-14679286D01*
X14560428Y-14693571D01*
X14546143Y-14707857D01*
X14531857Y-14736429D01*
X14531857Y-14793571D01*
X14546143Y-14822143D01*
X14560428Y-14836429D01*
X14589000Y-14850714D01*
X14646143Y-14850714D01*
X14674714Y-14836429D01*
X14689000Y-14822143D01*
X14703286Y-14793571D01*
X14703286Y-14736429D01*
X14689000Y-14707857D01*
X14674714Y-14693571D01*
X14646143Y-14679286D01*
X15060428Y-14850714D02*
X15060428Y-14550714D01*
X15189000Y-14850714D02*
X15189000Y-14693571D01*
X15174714Y-14665000D01*
X15146143Y-14650714D01*
X15103286Y-14650714D01*
X15074714Y-14665000D01*
X15060428Y-14679286D01*
X15374714Y-14850714D02*
X15346143Y-14836429D01*
X15331857Y-14822143D01*
X15317571Y-14793571D01*
X15317571Y-14707857D01*
X15331857Y-14679286D01*
X15346143Y-14665000D01*
X15374714Y-14650714D01*
X15417571Y-14650714D01*
X15446143Y-14665000D01*
X15460428Y-14679286D01*
X15474714Y-14707857D01*
X15474714Y-14793571D01*
X15460428Y-14822143D01*
X15446143Y-14836429D01*
X15417571Y-14850714D01*
X15374714Y-14850714D01*
X15646143Y-14850714D02*
X15617571Y-14836429D01*
X15603286Y-14807857D01*
X15603286Y-14550714D01*
X15874714Y-14836429D02*
X15846143Y-14850714D01*
X15789000Y-14850714D01*
X15760428Y-14836429D01*
X15746143Y-14807857D01*
X15746143Y-14693571D01*
X15760428Y-14665000D01*
X15789000Y-14650714D01*
X15846143Y-14650714D01*
X15874714Y-14665000D01*
X15889000Y-14693571D01*
X15889000Y-14722143D01*
X15746143Y-14750714D01*
X16003286Y-14836429D02*
X16031857Y-14850714D01*
X16089000Y-14850714D01*
X16117571Y-14836429D01*
X16131857Y-14807857D01*
X16131857Y-14793571D01*
X16117571Y-14765000D01*
X16089000Y-14750714D01*
X16046143Y-14750714D01*
X16017571Y-14736429D01*
X16003286Y-14707857D01*
X16003286Y-14693571D01*
X16017571Y-14665000D01*
X16046143Y-14650714D01*
X16089000Y-14650714D01*
X16117571Y-14665000D01*
X16231857Y-14965000D02*
X16246143Y-14950714D01*
X16274714Y-14907857D01*
X16289000Y-14879286D01*
X16303286Y-14836429D01*
X16317571Y-14765000D01*
X16317571Y-14707857D01*
X16303286Y-14636429D01*
X16289000Y-14593571D01*
X16274714Y-14565000D01*
X16246143Y-14522143D01*
X16231857Y-14507857D01*
X9174000Y-15111000D02*
G75*
G03*
X9174000Y-15111000I-40000J0D01*
G01*
X9517571Y-14946714D02*
X9546143Y-14946714D01*
X9574714Y-14961000D01*
X9589000Y-14975286D01*
X9603286Y-15003857D01*
X9617571Y-15061000D01*
X9617571Y-15132429D01*
X9603286Y-15189571D01*
X9589000Y-15218143D01*
X9574714Y-15232429D01*
X9546143Y-15246714D01*
X9517571Y-15246714D01*
X9489000Y-15232429D01*
X9474714Y-15218143D01*
X9460428Y-15189571D01*
X9446143Y-15132429D01*
X9446143Y-15061000D01*
X9460428Y-15003857D01*
X9474714Y-14975286D01*
X9489000Y-14961000D01*
X9517571Y-14946714D01*
X9746143Y-15218143D02*
X9760428Y-15232429D01*
X9746143Y-15246714D01*
X9731857Y-15232429D01*
X9746143Y-15218143D01*
X9746143Y-15246714D01*
X9931857Y-15075286D02*
X9903286Y-15061000D01*
X9889000Y-15046714D01*
X9874714Y-15018143D01*
X9874714Y-15003857D01*
X9889000Y-14975286D01*
X9903286Y-14961000D01*
X9931857Y-14946714D01*
X9989000Y-14946714D01*
X10017571Y-14961000D01*
X10031857Y-14975286D01*
X10046143Y-15003857D01*
X10046143Y-15018143D01*
X10031857Y-15046714D01*
X10017571Y-15061000D01*
X9989000Y-15075286D01*
X9931857Y-15075286D01*
X9903286Y-15089571D01*
X9889000Y-15103857D01*
X9874714Y-15132429D01*
X9874714Y-15189571D01*
X9889000Y-15218143D01*
X9903286Y-15232429D01*
X9931857Y-15246714D01*
X9989000Y-15246714D01*
X10017571Y-15232429D01*
X10031857Y-15218143D01*
X10046143Y-15189571D01*
X10046143Y-15132429D01*
X10031857Y-15103857D01*
X10017571Y-15089571D01*
X9989000Y-15075286D01*
X10231857Y-14946714D02*
X10260428Y-14946714D01*
X10289000Y-14961000D01*
X10303286Y-14975286D01*
X10317571Y-15003857D01*
X10331857Y-15061000D01*
X10331857Y-15132429D01*
X10317571Y-15189571D01*
X10303286Y-15218143D01*
X10289000Y-15232429D01*
X10260428Y-15246714D01*
X10231857Y-15246714D01*
X10203286Y-15232429D01*
X10189000Y-15218143D01*
X10174714Y-15189571D01*
X10160428Y-15132429D01*
X10160428Y-15061000D01*
X10174714Y-15003857D01*
X10189000Y-14975286D01*
X10203286Y-14961000D01*
X10231857Y-14946714D01*
X10460428Y-15246714D02*
X10460428Y-15046714D01*
X10460428Y-15075286D02*
X10474714Y-15061000D01*
X10503286Y-15046714D01*
X10546143Y-15046714D01*
X10574714Y-15061000D01*
X10589000Y-15089571D01*
X10589000Y-15246714D01*
X10589000Y-15089571D02*
X10603286Y-15061000D01*
X10631857Y-15046714D01*
X10674714Y-15046714D01*
X10703286Y-15061000D01*
X10717571Y-15089571D01*
X10717571Y-15246714D01*
X10860428Y-15246714D02*
X10860428Y-15046714D01*
X10860428Y-15075286D02*
X10874714Y-15061000D01*
X10903286Y-15046714D01*
X10946143Y-15046714D01*
X10974714Y-15061000D01*
X10989000Y-15089571D01*
X10989000Y-15246714D01*
X10989000Y-15089571D02*
X11003286Y-15061000D01*
X11031857Y-15046714D01*
X11074714Y-15046714D01*
X11103286Y-15061000D01*
X11117571Y-15089571D01*
X11117571Y-15246714D01*
X11703286Y-14932429D02*
X11446143Y-15318143D01*
X12089000Y-14946714D02*
X12117571Y-14946714D01*
X12146143Y-14961000D01*
X12160428Y-14975286D01*
X12174714Y-15003857D01*
X12189000Y-15061000D01*
X12189000Y-15132429D01*
X12174714Y-15189571D01*
X12160428Y-15218143D01*
X12146143Y-15232429D01*
X12117571Y-15246714D01*
X12089000Y-15246714D01*
X12060428Y-15232429D01*
X12046143Y-15218143D01*
X12031857Y-15189571D01*
X12017571Y-15132429D01*
X12017571Y-15061000D01*
X12031857Y-15003857D01*
X12046143Y-14975286D01*
X12060428Y-14961000D01*
X12089000Y-14946714D01*
X12317571Y-15218143D02*
X12331857Y-15232429D01*
X12317571Y-15246714D01*
X12303286Y-15232429D01*
X12317571Y-15218143D01*
X12317571Y-15246714D01*
X12517571Y-14946714D02*
X12546143Y-14946714D01*
X12574714Y-14961000D01*
X12589000Y-14975286D01*
X12603286Y-15003857D01*
X12617571Y-15061000D01*
X12617571Y-15132429D01*
X12603286Y-15189571D01*
X12589000Y-15218143D01*
X12574714Y-15232429D01*
X12546143Y-15246714D01*
X12517571Y-15246714D01*
X12489000Y-15232429D01*
X12474714Y-15218143D01*
X12460428Y-15189571D01*
X12446143Y-15132429D01*
X12446143Y-15061000D01*
X12460428Y-15003857D01*
X12474714Y-14975286D01*
X12489000Y-14961000D01*
X12517571Y-14946714D01*
X12717571Y-14946714D02*
X12903286Y-14946714D01*
X12803286Y-15061000D01*
X12846143Y-15061000D01*
X12874714Y-15075286D01*
X12889000Y-15089571D01*
X12903286Y-15118143D01*
X12903286Y-15189571D01*
X12889000Y-15218143D01*
X12874714Y-15232429D01*
X12846143Y-15246714D01*
X12760428Y-15246714D01*
X12731857Y-15232429D01*
X12717571Y-15218143D01*
X13189000Y-15246714D02*
X13017571Y-15246714D01*
X13103286Y-15246714D02*
X13103286Y-14946714D01*
X13074714Y-14989571D01*
X13046143Y-15018143D01*
X13017571Y-15032429D01*
X13303286Y-14946714D02*
X13303286Y-15003857D01*
X13417571Y-14946714D02*
X13417571Y-15003857D01*
X13860428Y-15361000D02*
X13846143Y-15346714D01*
X13817571Y-15303857D01*
X13803286Y-15275286D01*
X13789000Y-15232429D01*
X13774714Y-15161000D01*
X13774714Y-15103857D01*
X13789000Y-15032429D01*
X13803286Y-14989571D01*
X13817571Y-14961000D01*
X13846143Y-14918143D01*
X13860428Y-14903857D01*
X13960428Y-14975286D02*
X13974714Y-14961000D01*
X14003286Y-14946714D01*
X14074714Y-14946714D01*
X14103286Y-14961000D01*
X14117571Y-14975286D01*
X14131857Y-15003857D01*
X14131857Y-15032429D01*
X14117571Y-15075286D01*
X13946143Y-15246714D01*
X14131857Y-15246714D01*
X14489000Y-15246714D02*
X14489000Y-14946714D01*
X14617571Y-15246714D02*
X14617571Y-15089571D01*
X14603286Y-15061000D01*
X14574714Y-15046714D01*
X14531857Y-15046714D01*
X14503286Y-15061000D01*
X14489000Y-15075286D01*
X14803286Y-15246714D02*
X14774714Y-15232429D01*
X14760428Y-15218143D01*
X14746143Y-15189571D01*
X14746143Y-15103857D01*
X14760428Y-15075286D01*
X14774714Y-15061000D01*
X14803286Y-15046714D01*
X14846143Y-15046714D01*
X14874714Y-15061000D01*
X14889000Y-15075286D01*
X14903286Y-15103857D01*
X14903286Y-15189571D01*
X14889000Y-15218143D01*
X14874714Y-15232429D01*
X14846143Y-15246714D01*
X14803286Y-15246714D01*
X15074714Y-15246714D02*
X15046143Y-15232429D01*
X15031857Y-15203857D01*
X15031857Y-14946714D01*
X15303286Y-15232429D02*
X15274714Y-15246714D01*
X15217571Y-15246714D01*
X15189000Y-15232429D01*
X15174714Y-15203857D01*
X15174714Y-15089571D01*
X15189000Y-15061000D01*
X15217571Y-15046714D01*
X15274714Y-15046714D01*
X15303286Y-15061000D01*
X15317571Y-15089571D01*
X15317571Y-15118143D01*
X15174714Y-15146714D01*
X15431857Y-15232429D02*
X15460428Y-15246714D01*
X15517571Y-15246714D01*
X15546143Y-15232429D01*
X15560428Y-15203857D01*
X15560428Y-15189571D01*
X15546143Y-15161000D01*
X15517571Y-15146714D01*
X15474714Y-15146714D01*
X15446143Y-15132429D01*
X15431857Y-15103857D01*
X15431857Y-15089571D01*
X15446143Y-15061000D01*
X15474714Y-15046714D01*
X15517571Y-15046714D01*
X15546143Y-15061000D01*
X15660428Y-15361000D02*
X15674714Y-15346714D01*
X15703286Y-15303857D01*
X15717571Y-15275286D01*
X15731857Y-15232429D01*
X15746143Y-15161000D01*
X15746143Y-15103857D01*
X15731857Y-15032429D01*
X15717571Y-14989571D01*
X15703286Y-14961000D01*
X15674714Y-14918143D01*
X15660428Y-14903857D01*
M02*
