M48
; DRILL file {KiCad (5.1.8)-1} date 01/11/22 15:47:27
; FORMAT={-:-/ absolute / metric / decimal}
; #@! TF.CreationDate,2022-01-11T15:47:27-08:00
; #@! TF.GenerationSoftware,Kicad,Pcbnew,(5.1.8)-1
; #@! TF.FileFunction,Plated,1,2,PTH
FMAT,2
METRIC
T1C0.400
T2C0.800
%
G90
G05
T1
X93.0Y-74.5
X93.0Y-76.5
X93.0Y-78.5
X93.0Y-80.55
X93.0Y-84.55
X93.0Y-99.8
X93.0Y-101.8
X93.0Y-118.55
X93.0Y-120.55
X93.0Y-122.55
X93.0Y-124.55
X95.0Y-74.5
X95.0Y-76.5
X95.0Y-78.5
X95.0Y-80.55
X95.0Y-84.55
X95.0Y-99.8
X95.0Y-101.8
X95.0Y-118.55
X95.0Y-120.55
X95.0Y-122.55
X95.0Y-124.55
X96.535Y-88.155
X96.535Y-89.43
X96.535Y-90.705
X96.535Y-92.005
X96.535Y-93.255
X96.535Y-94.505
X96.535Y-95.78
X96.535Y-97.055
X96.535Y-105.155
X96.535Y-106.43
X96.535Y-107.705
X96.535Y-109.005
X96.535Y-110.255
X96.535Y-111.505
X96.535Y-112.78
X96.535Y-114.055
X97.0Y-99.8
X97.0Y-101.8
X104.75Y-118.5
X104.75Y-120.5
X105.82Y-105.15
X105.825Y-89.425
X105.825Y-90.7
X105.825Y-91.975
X105.825Y-93.275
X105.825Y-94.525
X105.825Y-95.775
X105.825Y-97.05
X105.825Y-98.325
X105.825Y-106.425
X105.825Y-107.7
X105.825Y-108.975
X105.825Y-110.275
X105.825Y-111.525
X105.825Y-112.775
X105.825Y-114.05
X105.825Y-115.325
X105.83Y-88.17
X106.0Y-99.8
X106.0Y-101.8
X106.75Y-118.5
X106.75Y-120.5
X107.5Y-88.25
X107.5Y-99.8
X107.5Y-101.8
X108.25Y-68.3
X108.25Y-70.05
X108.25Y-71.8
X108.4Y-115.625
X109.0Y-118.5
X109.0Y-120.5
X109.2Y-116.4
X110.0Y-117.2
X110.25Y-68.3
X110.25Y-69.8
X110.8Y-118.0
X111.6Y-118.8
X112.25Y-68.3
X112.4Y-119.6
X113.2Y-120.4
X113.75Y-82.55
X113.75Y-84.55
X113.75Y-86.5
X114.0Y-121.2
X115.75Y-82.55
X115.75Y-84.55
X115.75Y-86.5
X117.75Y-71.3
X117.75Y-73.3
X117.75Y-75.3
X117.75Y-82.55
X117.75Y-84.55
X117.75Y-86.5
X119.0Y-80.3
X119.75Y-84.55
X120.5Y-73.25
X120.5Y-75.25
X120.5Y-77.25
X120.75Y-64.8
X120.75Y-66.8
X121.75Y-84.55
X122.5Y-75.25
X122.5Y-77.25
X123.0Y-59.3
X123.0Y-61.3
X123.0Y-63.3
X123.75Y-84.55
X124.5Y-77.25
X125.5Y-101.25
X125.5Y-103.25
X125.5Y-105.3
X125.75Y-73.3
X125.75Y-84.55
X127.5Y-101.25
X127.5Y-103.25
X127.5Y-105.3
X127.75Y-73.3
X127.75Y-75.3
X129.5Y-105.3
X129.75Y-73.3
X129.75Y-75.3
X129.75Y-77.3
X134.0Y-122.3
X134.425Y-89.425
X134.425Y-90.7
X134.425Y-91.975
X134.425Y-93.275
X134.425Y-94.525
X134.425Y-95.775
X134.425Y-97.05
X134.425Y-98.325
X134.425Y-106.425
X134.425Y-107.7
X134.425Y-108.975
X134.425Y-110.275
X134.425Y-111.525
X134.425Y-112.775
X134.425Y-114.05
X134.425Y-115.325
X134.43Y-88.17
X134.8Y-123.1
X135.6Y-123.9
X135.75Y-99.8
X135.75Y-101.8
X135.75Y-103.8
X136.4Y-124.7
X136.75Y-116.3
X137.0Y-68.3
X137.0Y-70.05
X137.0Y-71.8
X137.2Y-125.5
X137.75Y-99.8
X137.75Y-101.8
X137.75Y-103.8
X138.0Y-126.3
X138.8Y-127.1
X139.0Y-68.3
X139.0Y-70.05
X139.4Y-99.4
X139.6Y-127.9
X140.2Y-100.2
X141.0Y-68.3
X141.0Y-101.0
X141.8Y-101.8
X142.25Y-84.55
X142.25Y-86.55
X142.6Y-102.6
X143.4Y-103.4
X144.2Y-104.2
X144.25Y-84.55
X144.25Y-86.55
X145.0Y-105.0
X146.25Y-84.55
X146.25Y-86.55
X147.835Y-79.965
X148.25Y-84.55
X148.25Y-86.55
X150.5Y-68.3
X150.5Y-69.8
X151.5Y-77.55
X151.5Y-122.55
X151.75Y-80.3
X152.5Y-68.3
X152.5Y-69.8
X153.0Y-122.55
X153.75Y-81.55
X154.0Y-84.25
X154.5Y-68.3
X154.5Y-69.8
X155.14Y-122.6
X155.5Y-59.3
X155.5Y-61.3
X155.5Y-63.3
X155.71Y-73.76
X156.41Y-122.59
X156.5Y-68.3
X156.5Y-69.8
X156.54Y-81.46
X156.75Y-86.55
X157.68Y-122.6
X158.7Y-69.93
X158.75Y-86.55
X158.95Y-122.6
X160.22Y-122.6
X161.425Y-75.025
X161.43Y-78.85
X161.49Y-122.6
X162.5Y-69.93
X162.76Y-122.6
X162.77Y-75.02
X163.225Y-89.425
X163.225Y-90.7
X163.225Y-91.975
X163.225Y-93.275
X163.225Y-94.525
X163.225Y-95.775
X163.225Y-97.05
X163.225Y-98.325
X163.225Y-106.425
X163.225Y-107.7
X163.225Y-108.975
X163.225Y-110.275
X163.225Y-111.525
X163.225Y-112.775
X163.225Y-114.05
X163.225Y-115.325
X163.23Y-88.16
X163.5Y-116.8
X164.03Y-122.6
X164.08Y-75.02
X165.3Y-125.025
X166.5Y-77.75
X166.5Y-79.8
X166.5Y-81.8
X166.575Y-122.6
X167.6Y-99.4
X168.4Y-100.2
X168.5Y-77.75
X168.5Y-79.8
X168.5Y-81.8
X168.54Y-117.4
X169.2Y-101.0
X169.3Y-126.3
X169.81Y-117.39
X170.0Y-101.8
X170.3Y-126.3
X170.3Y-127.3
X170.3Y-128.3
X170.5Y-70.05
X170.5Y-71.8
X170.5Y-73.8
X170.5Y-79.8
X170.75Y-86.55
X170.8Y-102.6
X171.08Y-117.4
X171.3Y-127.3
X171.3Y-128.3
X171.6Y-103.4
X172.35Y-117.4
X172.4Y-104.2
X172.5Y-70.05
X172.5Y-71.8
X172.5Y-73.8
X172.5Y-75.8
X172.75Y-84.75
X172.75Y-86.55
X173.1Y-127.4
X173.2Y-105.0
X173.62Y-117.4
X174.75Y-84.75
X174.75Y-86.55
X174.75Y-99.8
X174.75Y-101.8
X174.89Y-117.4
X175.5Y-122.55
X175.5Y-124.55
X176.16Y-117.4
X176.75Y-73.5
X176.75Y-75.5
X176.75Y-77.55
X176.75Y-79.8
X176.75Y-84.75
X176.75Y-86.55
X176.75Y-99.8
X176.75Y-101.8
X177.43Y-117.4
X177.5Y-124.55
X177.5Y-126.5
X177.75Y-122.5
X178.75Y-73.5
X178.75Y-75.5
X178.75Y-77.55
X178.75Y-79.8
X178.75Y-99.8
X178.75Y-101.8
X179.5Y-118.25
X179.5Y-119.25
X179.5Y-122.55
X179.5Y-124.55
X179.5Y-126.5
X179.5Y-128.5
X181.0Y-73.5
X181.0Y-75.5
X181.0Y-77.55
X181.0Y-79.8
X181.0Y-99.8
X181.0Y-101.8
X181.5Y-118.25
X181.5Y-119.25
X181.5Y-122.55
X181.5Y-124.55
X181.5Y-126.5
X183.0Y-73.5
X183.0Y-75.5
X183.0Y-77.55
X183.0Y-79.8
X183.25Y-99.8
X184.5Y-124.55
X184.5Y-126.5
X185.0Y-73.5
X185.0Y-75.5
X185.0Y-77.55
X185.0Y-79.8
X185.25Y-99.8
X185.7Y-89.425
X185.7Y-90.7
X185.7Y-91.975
X185.7Y-93.225
X185.7Y-94.475
X185.7Y-95.775
X185.7Y-97.05
X185.7Y-98.325
X185.7Y-106.45
X185.7Y-107.725
X185.7Y-109.0
X185.7Y-110.25
X185.7Y-111.5
X185.7Y-112.8
X185.7Y-114.075
X185.7Y-115.35
X186.5Y-124.55
X186.5Y-126.5
X187.25Y-73.5
X187.25Y-75.5
X187.25Y-77.55
X187.25Y-79.8
X188.5Y-124.55
X188.5Y-126.5
X189.25Y-73.5
X189.25Y-75.5
X189.25Y-77.55
X189.25Y-79.8
X189.5Y-100.05
X189.5Y-117.05
X190.5Y-124.55
X190.5Y-126.5
T2
X167.83Y-128.09
X183.3Y-127.7
T0
M30
