G04 #@! TF.GenerationSoftware,KiCad,Pcbnew,(5.1.8)-1*
G04 #@! TF.CreationDate,2020-11-27T17:20:36-08:00*
G04 #@! TF.ProjectId,GPRModule,4750524d-6f64-4756-9c65-2e6b69636164,1.0*
G04 #@! TF.SameCoordinates,Original*
G04 #@! TF.FileFunction,Other,User*
%FSLAX46Y46*%
G04 Gerber Fmt 4.6, Leading zero omitted, Abs format (unit mm)*
G04 Created by KiCad (PCBNEW (5.1.8)-1) date 2020-11-27 17:20:36*
%MOMM*%
%LPD*%
G01*
G04 APERTURE LIST*
%ADD10C,0.050000*%
G04 APERTURE END LIST*
D10*
X98700000Y-67770000D02*
X101800000Y-67770000D01*
X98700000Y-67770000D02*
X98700000Y-72270000D01*
X101800000Y-72270000D02*
X101800000Y-67770000D01*
X101800000Y-72270000D02*
X98700000Y-72270000D01*
X92870000Y-102950000D02*
X92870000Y-116250000D01*
X92870000Y-116250000D02*
X104730000Y-116250000D01*
X104730000Y-116250000D02*
X104730000Y-102950000D01*
X104730000Y-102950000D02*
X92870000Y-102950000D01*
X100180000Y-58400000D02*
X102420000Y-58400000D01*
X102420000Y-58400000D02*
X102420000Y-63300000D01*
X102420000Y-63300000D02*
X100180000Y-63300000D01*
X100180000Y-63300000D02*
X100180000Y-58400000D01*
X186875000Y-85530000D02*
X186875000Y-84070000D01*
X186875000Y-84070000D02*
X190175000Y-84070000D01*
X190175000Y-84070000D02*
X190175000Y-85530000D01*
X190175000Y-85530000D02*
X186875000Y-85530000D01*
X189975000Y-102530000D02*
X186675000Y-102530000D01*
X189975000Y-101070000D02*
X189975000Y-102530000D01*
X186675000Y-101070000D02*
X189975000Y-101070000D01*
X186675000Y-102530000D02*
X186675000Y-101070000D01*
X161625000Y-102530000D02*
X158325000Y-102530000D01*
X161625000Y-101070000D02*
X161625000Y-102530000D01*
X158325000Y-101070000D02*
X161625000Y-101070000D01*
X158325000Y-102530000D02*
X158325000Y-101070000D01*
X158330000Y-85530000D02*
X158330000Y-84070000D01*
X158330000Y-84070000D02*
X161630000Y-84070000D01*
X161630000Y-84070000D02*
X161630000Y-85530000D01*
X161630000Y-85530000D02*
X158330000Y-85530000D01*
X132775000Y-102530000D02*
X129475000Y-102530000D01*
X132775000Y-101070000D02*
X132775000Y-102530000D01*
X129475000Y-101070000D02*
X132775000Y-101070000D01*
X129475000Y-102530000D02*
X129475000Y-101070000D01*
X129475000Y-85530000D02*
X129475000Y-84070000D01*
X129475000Y-84070000D02*
X132775000Y-84070000D01*
X132775000Y-84070000D02*
X132775000Y-85530000D01*
X132775000Y-85530000D02*
X129475000Y-85530000D01*
X104250000Y-102530000D02*
X100950000Y-102530000D01*
X104250000Y-101070000D02*
X104250000Y-102530000D01*
X100950000Y-101070000D02*
X104250000Y-101070000D01*
X100950000Y-102530000D02*
X100950000Y-101070000D01*
X104250000Y-85530000D02*
X100950000Y-85530000D01*
X104250000Y-84070000D02*
X104250000Y-85530000D01*
X100950000Y-84070000D02*
X104250000Y-84070000D01*
X100950000Y-85530000D02*
X100950000Y-84070000D01*
X120750000Y-67820000D02*
X120750000Y-69280000D01*
X120750000Y-69280000D02*
X117450000Y-69280000D01*
X117450000Y-69280000D02*
X117450000Y-67820000D01*
X117450000Y-67820000D02*
X120750000Y-67820000D01*
X145850000Y-67770000D02*
X149150000Y-67770000D01*
X145850000Y-69230000D02*
X145850000Y-67770000D01*
X149150000Y-69230000D02*
X145850000Y-69230000D01*
X149150000Y-67770000D02*
X149150000Y-69230000D01*
X163950000Y-71820000D02*
X163950000Y-73280000D01*
X163950000Y-73280000D02*
X160650000Y-73280000D01*
X160650000Y-73280000D02*
X160650000Y-71820000D01*
X160650000Y-71820000D02*
X163950000Y-71820000D01*
X151130000Y-63300000D02*
X151130000Y-58400000D01*
X153370000Y-63300000D02*
X151130000Y-63300000D01*
X153370000Y-58400000D02*
X153370000Y-63300000D01*
X151130000Y-58400000D02*
X153370000Y-58400000D01*
X147380000Y-63312500D02*
X147380000Y-58412500D01*
X149620000Y-63312500D02*
X147380000Y-63312500D01*
X149620000Y-58412500D02*
X149620000Y-63312500D01*
X147380000Y-58412500D02*
X149620000Y-58412500D01*
X143630000Y-58412500D02*
X145870000Y-58412500D01*
X145870000Y-58412500D02*
X145870000Y-63312500D01*
X145870000Y-63312500D02*
X143630000Y-63312500D01*
X143630000Y-63312500D02*
X143630000Y-58412500D01*
X139880000Y-58412500D02*
X142120000Y-58412500D01*
X142120000Y-58412500D02*
X142120000Y-63312500D01*
X142120000Y-63312500D02*
X139880000Y-63312500D01*
X139880000Y-63312500D02*
X139880000Y-58412500D01*
X136130000Y-63312500D02*
X136130000Y-58412500D01*
X138370000Y-63312500D02*
X136130000Y-63312500D01*
X138370000Y-58412500D02*
X138370000Y-63312500D01*
X136130000Y-58412500D02*
X138370000Y-58412500D01*
X132380000Y-63312500D02*
X132380000Y-58412500D01*
X134620000Y-63312500D02*
X132380000Y-63312500D01*
X134620000Y-58412500D02*
X134620000Y-63312500D01*
X132380000Y-58412500D02*
X134620000Y-58412500D01*
X128630000Y-58412500D02*
X130870000Y-58412500D01*
X130870000Y-58412500D02*
X130870000Y-63312500D01*
X130870000Y-63312500D02*
X128630000Y-63312500D01*
X128630000Y-63312500D02*
X128630000Y-58412500D01*
X124880000Y-63312500D02*
X124880000Y-58412500D01*
X127120000Y-63312500D02*
X124880000Y-63312500D01*
X127120000Y-58412500D02*
X127120000Y-63312500D01*
X124880000Y-58412500D02*
X127120000Y-58412500D01*
X118880000Y-58400000D02*
X121120000Y-58400000D01*
X121120000Y-58400000D02*
X121120000Y-63300000D01*
X121120000Y-63300000D02*
X118880000Y-63300000D01*
X118880000Y-63300000D02*
X118880000Y-58400000D01*
X115130000Y-58400000D02*
X117370000Y-58400000D01*
X117370000Y-58400000D02*
X117370000Y-63300000D01*
X117370000Y-63300000D02*
X115130000Y-63300000D01*
X115130000Y-63300000D02*
X115130000Y-58400000D01*
X111380000Y-63300000D02*
X111380000Y-58400000D01*
X113620000Y-63300000D02*
X111380000Y-63300000D01*
X113620000Y-58400000D02*
X113620000Y-63300000D01*
X111380000Y-58400000D02*
X113620000Y-58400000D01*
X107630000Y-58400000D02*
X109870000Y-58400000D01*
X109870000Y-58400000D02*
X109870000Y-63300000D01*
X109870000Y-63300000D02*
X107630000Y-63300000D01*
X107630000Y-63300000D02*
X107630000Y-58400000D01*
X103880000Y-63300000D02*
X103880000Y-58400000D01*
X106120000Y-63300000D02*
X103880000Y-63300000D01*
X106120000Y-58400000D02*
X106120000Y-63300000D01*
X103880000Y-58400000D02*
X106120000Y-58400000D01*
X96530000Y-63300000D02*
X96530000Y-58400000D01*
X98770000Y-63300000D02*
X96530000Y-63300000D01*
X98770000Y-58400000D02*
X98770000Y-63300000D01*
X96530000Y-58400000D02*
X98770000Y-58400000D01*
X92780000Y-58400000D02*
X95020000Y-58400000D01*
X95020000Y-58400000D02*
X95020000Y-63300000D01*
X95020000Y-63300000D02*
X92780000Y-63300000D01*
X92780000Y-63300000D02*
X92780000Y-58400000D01*
X171220000Y-63322500D02*
X168980000Y-63322500D01*
X168980000Y-63322500D02*
X168980000Y-58422500D01*
X168980000Y-58422500D02*
X171220000Y-58422500D01*
X171220000Y-58422500D02*
X171220000Y-63322500D01*
X167420000Y-58422500D02*
X167420000Y-63322500D01*
X165180000Y-58422500D02*
X167420000Y-58422500D01*
X165180000Y-63322500D02*
X165180000Y-58422500D01*
X167420000Y-63322500D02*
X165180000Y-63322500D01*
X163620000Y-63322500D02*
X161380000Y-63322500D01*
X161380000Y-63322500D02*
X161380000Y-58422500D01*
X161380000Y-58422500D02*
X163620000Y-58422500D01*
X163620000Y-58422500D02*
X163620000Y-63322500D01*
X157580000Y-63297500D02*
X157580000Y-58397500D01*
X159820000Y-63297500D02*
X157580000Y-63297500D01*
X159820000Y-58397500D02*
X159820000Y-63297500D01*
X157580000Y-58397500D02*
X159820000Y-58397500D01*
X181670000Y-138220000D02*
X101930000Y-138220000D01*
X181670000Y-138220000D02*
X181670000Y-129460000D01*
X101930000Y-129460000D02*
X101930000Y-138220000D01*
X101930000Y-129460000D02*
X181670000Y-129460000D01*
X170820000Y-66010000D02*
X170820000Y-69310000D01*
X169360000Y-66010000D02*
X170820000Y-66010000D01*
X169360000Y-69310000D02*
X169360000Y-66010000D01*
X170820000Y-69310000D02*
X169360000Y-69310000D01*
X167020000Y-69310000D02*
X165560000Y-69310000D01*
X165560000Y-69310000D02*
X165560000Y-66010000D01*
X165560000Y-66010000D02*
X167020000Y-66010000D01*
X167020000Y-66010000D02*
X167020000Y-69310000D01*
X163220000Y-66010000D02*
X163220000Y-69310000D01*
X161760000Y-66010000D02*
X163220000Y-66010000D01*
X161760000Y-69310000D02*
X161760000Y-66010000D01*
X163220000Y-69310000D02*
X161760000Y-69310000D01*
X159420000Y-69310000D02*
X157960000Y-69310000D01*
X157960000Y-69310000D02*
X157960000Y-66010000D01*
X157960000Y-66010000D02*
X159420000Y-66010000D01*
X159420000Y-66010000D02*
X159420000Y-69310000D01*
X130350000Y-72250000D02*
X127250000Y-72250000D01*
X130350000Y-72250000D02*
X130350000Y-67750000D01*
X127250000Y-67750000D02*
X127250000Y-72250000D01*
X127250000Y-67750000D02*
X130350000Y-67750000D01*
X190730000Y-85950000D02*
X178870000Y-85950000D01*
X190730000Y-99250000D02*
X190730000Y-85950000D01*
X178870000Y-99250000D02*
X190730000Y-99250000D01*
X178870000Y-85950000D02*
X178870000Y-99250000D01*
X178670000Y-102950000D02*
X178670000Y-116250000D01*
X178670000Y-116250000D02*
X190530000Y-116250000D01*
X190530000Y-116250000D02*
X190530000Y-102950000D01*
X190530000Y-102950000D02*
X178670000Y-102950000D01*
X150270000Y-102950000D02*
X150270000Y-116250000D01*
X150270000Y-116250000D02*
X162130000Y-116250000D01*
X162130000Y-116250000D02*
X162130000Y-102950000D01*
X162130000Y-102950000D02*
X150270000Y-102950000D01*
X162130000Y-85950000D02*
X150270000Y-85950000D01*
X162130000Y-99250000D02*
X162130000Y-85950000D01*
X150270000Y-99250000D02*
X162130000Y-99250000D01*
X150270000Y-85950000D02*
X150270000Y-99250000D01*
X121470000Y-102950000D02*
X121470000Y-116250000D01*
X121470000Y-116250000D02*
X133330000Y-116250000D01*
X133330000Y-116250000D02*
X133330000Y-102950000D01*
X133330000Y-102950000D02*
X121470000Y-102950000D01*
X133330000Y-85950000D02*
X121470000Y-85950000D01*
X133330000Y-99250000D02*
X133330000Y-85950000D01*
X121470000Y-99250000D02*
X133330000Y-99250000D01*
X121470000Y-85950000D02*
X121470000Y-99250000D01*
X104730000Y-85950000D02*
X92870000Y-85950000D01*
X104730000Y-99250000D02*
X104730000Y-85950000D01*
X92870000Y-99250000D02*
X104730000Y-99250000D01*
X92870000Y-85950000D02*
X92870000Y-99250000D01*
X104870000Y-67550000D02*
X104870000Y-80850000D01*
X104870000Y-80850000D02*
X116730000Y-80850000D01*
X116730000Y-80850000D02*
X116730000Y-67550000D01*
X116730000Y-67550000D02*
X104870000Y-67550000D01*
X145130000Y-67550000D02*
X133270000Y-67550000D01*
X145130000Y-80850000D02*
X145130000Y-67550000D01*
X133270000Y-80850000D02*
X145130000Y-80850000D01*
X133270000Y-67550000D02*
X133270000Y-80850000D01*
X159950000Y-71720000D02*
X152550000Y-71720000D01*
X159950000Y-80880000D02*
X159950000Y-71720000D01*
X152550000Y-80880000D02*
X159950000Y-80880000D01*
X152550000Y-71720000D02*
X152550000Y-80880000D01*
M02*
