G04 #@! TF.GenerationSoftware,KiCad,Pcbnew,(5.1.8)-1*
G04 #@! TF.CreationDate,2020-11-27T19:32:22-08:00*
G04 #@! TF.ProjectId,GPRModule,4750524d-6f64-4756-9c65-2e6b69636164,1.0*
G04 #@! TF.SameCoordinates,Original*
G04 #@! TF.FileFunction,Other,Fab,Top*
%FSLAX46Y46*%
G04 Gerber Fmt 4.6, Leading zero omitted, Abs format (unit mm)*
G04 Created by KiCad (PCBNEW (5.1.8)-1) date 2020-11-27 19:32:22*
%MOMM*%
%LPD*%
G01*
G04 APERTURE LIST*
%ADD10C,0.150000*%
%ADD11C,0.100000*%
%ADD12C,0.120000*%
%ADD13C,0.060000*%
G04 APERTURE END LIST*
D10*
X78419047Y-120328571D02*
X78561904Y-120376190D01*
X78609523Y-120423809D01*
X78657142Y-120519047D01*
X78657142Y-120661904D01*
X78609523Y-120757142D01*
X78561904Y-120804761D01*
X78466666Y-120852380D01*
X78085714Y-120852380D01*
X78085714Y-119852380D01*
X78419047Y-119852380D01*
X78514285Y-119900000D01*
X78561904Y-119947619D01*
X78609523Y-120042857D01*
X78609523Y-120138095D01*
X78561904Y-120233333D01*
X78514285Y-120280952D01*
X78419047Y-120328571D01*
X78085714Y-120328571D01*
X79466666Y-120804761D02*
X79371428Y-120852380D01*
X79180952Y-120852380D01*
X79085714Y-120804761D01*
X79038095Y-120709523D01*
X79038095Y-120328571D01*
X79085714Y-120233333D01*
X79180952Y-120185714D01*
X79371428Y-120185714D01*
X79466666Y-120233333D01*
X79514285Y-120328571D01*
X79514285Y-120423809D01*
X79038095Y-120519047D01*
X79847619Y-120185714D02*
X80085714Y-120852380D01*
X80323809Y-120185714D01*
X81085714Y-120804761D02*
X80990476Y-120852380D01*
X80800000Y-120852380D01*
X80704761Y-120804761D01*
X80657142Y-120709523D01*
X80657142Y-120328571D01*
X80704761Y-120233333D01*
X80800000Y-120185714D01*
X80990476Y-120185714D01*
X81085714Y-120233333D01*
X81133333Y-120328571D01*
X81133333Y-120423809D01*
X80657142Y-120519047D01*
X81704761Y-120852380D02*
X81609523Y-120804761D01*
X81561904Y-120709523D01*
X81561904Y-119852380D01*
X82466666Y-120804761D02*
X82371428Y-120852380D01*
X82180952Y-120852380D01*
X82085714Y-120804761D01*
X82038095Y-120709523D01*
X82038095Y-120328571D01*
X82085714Y-120233333D01*
X82180952Y-120185714D01*
X82371428Y-120185714D01*
X82466666Y-120233333D01*
X82514285Y-120328571D01*
X82514285Y-120423809D01*
X82038095Y-120519047D01*
X83371428Y-120852380D02*
X83371428Y-119852380D01*
X83371428Y-120804761D02*
X83276190Y-120852380D01*
X83085714Y-120852380D01*
X82990476Y-120804761D01*
X82942857Y-120757142D01*
X82895238Y-120661904D01*
X82895238Y-120376190D01*
X82942857Y-120280952D01*
X82990476Y-120233333D01*
X83085714Y-120185714D01*
X83276190Y-120185714D01*
X83371428Y-120233333D01*
X84942857Y-120328571D02*
X84609523Y-120328571D01*
X84609523Y-120852380D02*
X84609523Y-119852380D01*
X85085714Y-119852380D01*
X85466666Y-120852380D02*
X85466666Y-120185714D01*
X85466666Y-119852380D02*
X85419047Y-119900000D01*
X85466666Y-119947619D01*
X85514285Y-119900000D01*
X85466666Y-119852380D01*
X85466666Y-119947619D01*
X85942857Y-120185714D02*
X85942857Y-120852380D01*
X85942857Y-120280952D02*
X85990476Y-120233333D01*
X86085714Y-120185714D01*
X86228571Y-120185714D01*
X86323809Y-120233333D01*
X86371428Y-120328571D01*
X86371428Y-120852380D01*
X87276190Y-120185714D02*
X87276190Y-120995238D01*
X87228571Y-121090476D01*
X87180952Y-121138095D01*
X87085714Y-121185714D01*
X86942857Y-121185714D01*
X86847619Y-121138095D01*
X87276190Y-120804761D02*
X87180952Y-120852380D01*
X86990476Y-120852380D01*
X86895238Y-120804761D01*
X86847619Y-120757142D01*
X86800000Y-120661904D01*
X86800000Y-120376190D01*
X86847619Y-120280952D01*
X86895238Y-120233333D01*
X86990476Y-120185714D01*
X87180952Y-120185714D01*
X87276190Y-120233333D01*
X88133333Y-120804761D02*
X88038095Y-120852380D01*
X87847619Y-120852380D01*
X87752380Y-120804761D01*
X87704761Y-120709523D01*
X87704761Y-120328571D01*
X87752380Y-120233333D01*
X87847619Y-120185714D01*
X88038095Y-120185714D01*
X88133333Y-120233333D01*
X88180952Y-120328571D01*
X88180952Y-120423809D01*
X87704761Y-120519047D01*
X88609523Y-120852380D02*
X88609523Y-120185714D01*
X88609523Y-120376190D02*
X88657142Y-120280952D01*
X88704761Y-120233333D01*
X88800000Y-120185714D01*
X88895238Y-120185714D01*
X89180952Y-120804761D02*
X89276190Y-120852380D01*
X89466666Y-120852380D01*
X89561904Y-120804761D01*
X89609523Y-120709523D01*
X89609523Y-120661904D01*
X89561904Y-120566666D01*
X89466666Y-120519047D01*
X89323809Y-120519047D01*
X89228571Y-120471428D01*
X89180952Y-120376190D01*
X89180952Y-120328571D01*
X89228571Y-120233333D01*
X89323809Y-120185714D01*
X89466666Y-120185714D01*
X89561904Y-120233333D01*
X91085714Y-121233333D02*
X91038095Y-121185714D01*
X90942857Y-121042857D01*
X90895238Y-120947619D01*
X90847619Y-120804761D01*
X90800000Y-120566666D01*
X90800000Y-120376190D01*
X90847619Y-120138095D01*
X90895238Y-119995238D01*
X90942857Y-119900000D01*
X91038095Y-119757142D01*
X91085714Y-119709523D01*
X91895238Y-120804761D02*
X91800000Y-120852380D01*
X91609523Y-120852380D01*
X91514285Y-120804761D01*
X91466666Y-120757142D01*
X91419047Y-120661904D01*
X91419047Y-120376190D01*
X91466666Y-120280952D01*
X91514285Y-120233333D01*
X91609523Y-120185714D01*
X91800000Y-120185714D01*
X91895238Y-120233333D01*
X92323809Y-120852380D02*
X92323809Y-119852380D01*
X92752380Y-120852380D02*
X92752380Y-120328571D01*
X92704761Y-120233333D01*
X92609523Y-120185714D01*
X92466666Y-120185714D01*
X92371428Y-120233333D01*
X92323809Y-120280952D01*
X93657142Y-120852380D02*
X93657142Y-120328571D01*
X93609523Y-120233333D01*
X93514285Y-120185714D01*
X93323809Y-120185714D01*
X93228571Y-120233333D01*
X93657142Y-120804761D02*
X93561904Y-120852380D01*
X93323809Y-120852380D01*
X93228571Y-120804761D01*
X93180952Y-120709523D01*
X93180952Y-120614285D01*
X93228571Y-120519047D01*
X93323809Y-120471428D01*
X93561904Y-120471428D01*
X93657142Y-120423809D01*
X94133333Y-120852380D02*
X94133333Y-120185714D01*
X94133333Y-120280952D02*
X94180952Y-120233333D01*
X94276190Y-120185714D01*
X94419047Y-120185714D01*
X94514285Y-120233333D01*
X94561904Y-120328571D01*
X94561904Y-120852380D01*
X94561904Y-120328571D02*
X94609523Y-120233333D01*
X94704761Y-120185714D01*
X94847619Y-120185714D01*
X94942857Y-120233333D01*
X94990476Y-120328571D01*
X94990476Y-120852380D01*
X95323809Y-120185714D02*
X95704761Y-120185714D01*
X95466666Y-120852380D02*
X95466666Y-119995238D01*
X95514285Y-119900000D01*
X95609523Y-119852380D01*
X95704761Y-119852380D01*
X96419047Y-120804761D02*
X96323809Y-120852380D01*
X96133333Y-120852380D01*
X96038095Y-120804761D01*
X95990476Y-120709523D01*
X95990476Y-120328571D01*
X96038095Y-120233333D01*
X96133333Y-120185714D01*
X96323809Y-120185714D01*
X96419047Y-120233333D01*
X96466666Y-120328571D01*
X96466666Y-120423809D01*
X95990476Y-120519047D01*
X96895238Y-120852380D02*
X96895238Y-120185714D01*
X96895238Y-120376190D02*
X96942857Y-120280952D01*
X96990476Y-120233333D01*
X97085714Y-120185714D01*
X97180952Y-120185714D01*
X97466666Y-120804761D02*
X97561904Y-120852380D01*
X97752380Y-120852380D01*
X97847619Y-120804761D01*
X97895238Y-120709523D01*
X97895238Y-120661904D01*
X97847619Y-120566666D01*
X97752380Y-120519047D01*
X97609523Y-120519047D01*
X97514285Y-120471428D01*
X97466666Y-120376190D01*
X97466666Y-120328571D01*
X97514285Y-120233333D01*
X97609523Y-120185714D01*
X97752380Y-120185714D01*
X97847619Y-120233333D01*
X98228571Y-121233333D02*
X98276190Y-121185714D01*
X98371428Y-121042857D01*
X98419047Y-120947619D01*
X98466666Y-120804761D01*
X98514285Y-120566666D01*
X98514285Y-120376190D01*
X98466666Y-120138095D01*
X98419047Y-119995238D01*
X98371428Y-119900000D01*
X98276190Y-119757142D01*
X98228571Y-119709523D01*
D11*
X101050000Y-68020000D02*
X99450000Y-68020000D01*
X101050000Y-72020000D02*
X101050000Y-68020000D01*
X99450000Y-72020000D02*
X101050000Y-72020000D01*
X99450000Y-68020000D02*
X99450000Y-72020000D01*
X95050000Y-104200000D02*
X96050000Y-103200000D01*
X95050000Y-116000000D02*
X95050000Y-104200000D01*
X102550000Y-116000000D02*
X95050000Y-116000000D01*
X102550000Y-103200000D02*
X102550000Y-116000000D01*
X96050000Y-103200000D02*
X102550000Y-103200000D01*
X100500000Y-62450000D02*
X102100000Y-62450000D01*
X100500000Y-59250000D02*
X100500000Y-62450000D01*
X101700000Y-59250000D02*
X100500000Y-59250000D01*
X102100000Y-59650000D02*
X101700000Y-59250000D01*
X102100000Y-62450000D02*
X102100000Y-59650000D01*
X189325000Y-85200000D02*
X187725000Y-85200000D01*
X189325000Y-84400000D02*
X189325000Y-85200000D01*
X187725000Y-84400000D02*
X189325000Y-84400000D01*
X187725000Y-85200000D02*
X187725000Y-84400000D01*
X187525000Y-102200000D02*
X187525000Y-101400000D01*
X187525000Y-101400000D02*
X189125000Y-101400000D01*
X189125000Y-101400000D02*
X189125000Y-102200000D01*
X189125000Y-102200000D02*
X187525000Y-102200000D01*
X159175000Y-102200000D02*
X159175000Y-101400000D01*
X159175000Y-101400000D02*
X160775000Y-101400000D01*
X160775000Y-101400000D02*
X160775000Y-102200000D01*
X160775000Y-102200000D02*
X159175000Y-102200000D01*
X160780000Y-85200000D02*
X159180000Y-85200000D01*
X160780000Y-84400000D02*
X160780000Y-85200000D01*
X159180000Y-84400000D02*
X160780000Y-84400000D01*
X159180000Y-85200000D02*
X159180000Y-84400000D01*
X130325000Y-102200000D02*
X130325000Y-101400000D01*
X130325000Y-101400000D02*
X131925000Y-101400000D01*
X131925000Y-101400000D02*
X131925000Y-102200000D01*
X131925000Y-102200000D02*
X130325000Y-102200000D01*
X131925000Y-85200000D02*
X130325000Y-85200000D01*
X131925000Y-84400000D02*
X131925000Y-85200000D01*
X130325000Y-84400000D02*
X131925000Y-84400000D01*
X130325000Y-85200000D02*
X130325000Y-84400000D01*
X101800000Y-102200000D02*
X101800000Y-101400000D01*
X101800000Y-101400000D02*
X103400000Y-101400000D01*
X103400000Y-101400000D02*
X103400000Y-102200000D01*
X103400000Y-102200000D02*
X101800000Y-102200000D01*
X101800000Y-85200000D02*
X101800000Y-84400000D01*
X101800000Y-84400000D02*
X103400000Y-84400000D01*
X103400000Y-84400000D02*
X103400000Y-85200000D01*
X103400000Y-85200000D02*
X101800000Y-85200000D01*
X118300000Y-68150000D02*
X119900000Y-68150000D01*
X118300000Y-68950000D02*
X118300000Y-68150000D01*
X119900000Y-68950000D02*
X118300000Y-68950000D01*
X119900000Y-68150000D02*
X119900000Y-68950000D01*
X148300000Y-68100000D02*
X148300000Y-68900000D01*
X148300000Y-68900000D02*
X146700000Y-68900000D01*
X146700000Y-68900000D02*
X146700000Y-68100000D01*
X146700000Y-68100000D02*
X148300000Y-68100000D01*
X161500000Y-72150000D02*
X163100000Y-72150000D01*
X161500000Y-72950000D02*
X161500000Y-72150000D01*
X163100000Y-72950000D02*
X161500000Y-72950000D01*
X163100000Y-72150000D02*
X163100000Y-72950000D01*
X153050000Y-62450000D02*
X153050000Y-59650000D01*
X153050000Y-59650000D02*
X152650000Y-59250000D01*
X152650000Y-59250000D02*
X151450000Y-59250000D01*
X151450000Y-59250000D02*
X151450000Y-62450000D01*
X151450000Y-62450000D02*
X153050000Y-62450000D01*
X149300000Y-62462500D02*
X149300000Y-59662500D01*
X149300000Y-59662500D02*
X148900000Y-59262500D01*
X148900000Y-59262500D02*
X147700000Y-59262500D01*
X147700000Y-59262500D02*
X147700000Y-62462500D01*
X147700000Y-62462500D02*
X149300000Y-62462500D01*
X143950000Y-62462500D02*
X145550000Y-62462500D01*
X143950000Y-59262500D02*
X143950000Y-62462500D01*
X145150000Y-59262500D02*
X143950000Y-59262500D01*
X145550000Y-59662500D02*
X145150000Y-59262500D01*
X145550000Y-62462500D02*
X145550000Y-59662500D01*
X140200000Y-62462500D02*
X141800000Y-62462500D01*
X140200000Y-59262500D02*
X140200000Y-62462500D01*
X141400000Y-59262500D02*
X140200000Y-59262500D01*
X141800000Y-59662500D02*
X141400000Y-59262500D01*
X141800000Y-62462500D02*
X141800000Y-59662500D01*
X138050000Y-62462500D02*
X138050000Y-59662500D01*
X138050000Y-59662500D02*
X137650000Y-59262500D01*
X137650000Y-59262500D02*
X136450000Y-59262500D01*
X136450000Y-59262500D02*
X136450000Y-62462500D01*
X136450000Y-62462500D02*
X138050000Y-62462500D01*
X134300000Y-62462500D02*
X134300000Y-59662500D01*
X134300000Y-59662500D02*
X133900000Y-59262500D01*
X133900000Y-59262500D02*
X132700000Y-59262500D01*
X132700000Y-59262500D02*
X132700000Y-62462500D01*
X132700000Y-62462500D02*
X134300000Y-62462500D01*
X128950000Y-62462500D02*
X130550000Y-62462500D01*
X128950000Y-59262500D02*
X128950000Y-62462500D01*
X130150000Y-59262500D02*
X128950000Y-59262500D01*
X130550000Y-59662500D02*
X130150000Y-59262500D01*
X130550000Y-62462500D02*
X130550000Y-59662500D01*
X126800000Y-62462500D02*
X126800000Y-59662500D01*
X126800000Y-59662500D02*
X126400000Y-59262500D01*
X126400000Y-59262500D02*
X125200000Y-59262500D01*
X125200000Y-59262500D02*
X125200000Y-62462500D01*
X125200000Y-62462500D02*
X126800000Y-62462500D01*
X119200000Y-62450000D02*
X120800000Y-62450000D01*
X119200000Y-59250000D02*
X119200000Y-62450000D01*
X120400000Y-59250000D02*
X119200000Y-59250000D01*
X120800000Y-59650000D02*
X120400000Y-59250000D01*
X120800000Y-62450000D02*
X120800000Y-59650000D01*
X115450000Y-62450000D02*
X117050000Y-62450000D01*
X115450000Y-59250000D02*
X115450000Y-62450000D01*
X116650000Y-59250000D02*
X115450000Y-59250000D01*
X117050000Y-59650000D02*
X116650000Y-59250000D01*
X117050000Y-62450000D02*
X117050000Y-59650000D01*
X113300000Y-62450000D02*
X113300000Y-59650000D01*
X113300000Y-59650000D02*
X112900000Y-59250000D01*
X112900000Y-59250000D02*
X111700000Y-59250000D01*
X111700000Y-59250000D02*
X111700000Y-62450000D01*
X111700000Y-62450000D02*
X113300000Y-62450000D01*
X107950000Y-62450000D02*
X109550000Y-62450000D01*
X107950000Y-59250000D02*
X107950000Y-62450000D01*
X109150000Y-59250000D02*
X107950000Y-59250000D01*
X109550000Y-59650000D02*
X109150000Y-59250000D01*
X109550000Y-62450000D02*
X109550000Y-59650000D01*
X105800000Y-62450000D02*
X105800000Y-59650000D01*
X105800000Y-59650000D02*
X105400000Y-59250000D01*
X105400000Y-59250000D02*
X104200000Y-59250000D01*
X104200000Y-59250000D02*
X104200000Y-62450000D01*
X104200000Y-62450000D02*
X105800000Y-62450000D01*
X98450000Y-62450000D02*
X98450000Y-59650000D01*
X98450000Y-59650000D02*
X98050000Y-59250000D01*
X98050000Y-59250000D02*
X96850000Y-59250000D01*
X96850000Y-59250000D02*
X96850000Y-62450000D01*
X96850000Y-62450000D02*
X98450000Y-62450000D01*
X93100000Y-62450000D02*
X94700000Y-62450000D01*
X93100000Y-59250000D02*
X93100000Y-62450000D01*
X94300000Y-59250000D02*
X93100000Y-59250000D01*
X94700000Y-59650000D02*
X94300000Y-59250000D01*
X94700000Y-62450000D02*
X94700000Y-59650000D01*
X170900000Y-59272500D02*
X169300000Y-59272500D01*
X170900000Y-62472500D02*
X170900000Y-59272500D01*
X169700000Y-62472500D02*
X170900000Y-62472500D01*
X169300000Y-62072500D02*
X169700000Y-62472500D01*
X169300000Y-59272500D02*
X169300000Y-62072500D01*
X165500000Y-59272500D02*
X165500000Y-62072500D01*
X165500000Y-62072500D02*
X165900000Y-62472500D01*
X165900000Y-62472500D02*
X167100000Y-62472500D01*
X167100000Y-62472500D02*
X167100000Y-59272500D01*
X167100000Y-59272500D02*
X165500000Y-59272500D01*
X163300000Y-59272500D02*
X161700000Y-59272500D01*
X163300000Y-62472500D02*
X163300000Y-59272500D01*
X162100000Y-62472500D02*
X163300000Y-62472500D01*
X161700000Y-62072500D02*
X162100000Y-62472500D01*
X161700000Y-59272500D02*
X161700000Y-62072500D01*
X159500000Y-62447500D02*
X159500000Y-59647500D01*
X159500000Y-59647500D02*
X159100000Y-59247500D01*
X159100000Y-59247500D02*
X157900000Y-59247500D01*
X157900000Y-59247500D02*
X157900000Y-62447500D01*
X157900000Y-62447500D02*
X159500000Y-62447500D01*
X102180000Y-129710000D02*
X102180000Y-137970000D01*
X102180000Y-137970000D02*
X165040000Y-137970000D01*
X165040000Y-137970000D02*
X165040000Y-129710000D01*
X165040000Y-129710000D02*
X166820000Y-129710000D01*
X166820000Y-129710000D02*
X166820000Y-137970000D01*
X166820000Y-137970000D02*
X181420000Y-137970000D01*
X181420000Y-137970000D02*
X181420000Y-129710000D01*
X170490000Y-68460000D02*
X169690000Y-68460000D01*
X169690000Y-68460000D02*
X169690000Y-66860000D01*
X169690000Y-66860000D02*
X170490000Y-66860000D01*
X170490000Y-66860000D02*
X170490000Y-68460000D01*
X166690000Y-66860000D02*
X166690000Y-68460000D01*
X165890000Y-66860000D02*
X166690000Y-66860000D01*
X165890000Y-68460000D02*
X165890000Y-66860000D01*
X166690000Y-68460000D02*
X165890000Y-68460000D01*
X162890000Y-68460000D02*
X162090000Y-68460000D01*
X162090000Y-68460000D02*
X162090000Y-66860000D01*
X162090000Y-66860000D02*
X162890000Y-66860000D01*
X162890000Y-66860000D02*
X162890000Y-68460000D01*
X159090000Y-66860000D02*
X159090000Y-68460000D01*
X158290000Y-66860000D02*
X159090000Y-66860000D01*
X158290000Y-68460000D02*
X158290000Y-66860000D01*
X159090000Y-68460000D02*
X158290000Y-68460000D01*
X128000000Y-68000000D02*
X128000000Y-72000000D01*
X128000000Y-72000000D02*
X129600000Y-72000000D01*
X129600000Y-72000000D02*
X129600000Y-68000000D01*
X129600000Y-68000000D02*
X128000000Y-68000000D01*
X182050000Y-86200000D02*
X188550000Y-86200000D01*
X188550000Y-86200000D02*
X188550000Y-99000000D01*
X188550000Y-99000000D02*
X181050000Y-99000000D01*
X181050000Y-99000000D02*
X181050000Y-87200000D01*
X181050000Y-87200000D02*
X182050000Y-86200000D01*
X180850000Y-104200000D02*
X181850000Y-103200000D01*
X180850000Y-116000000D02*
X180850000Y-104200000D01*
X188350000Y-116000000D02*
X180850000Y-116000000D01*
X188350000Y-103200000D02*
X188350000Y-116000000D01*
X181850000Y-103200000D02*
X188350000Y-103200000D01*
X152450000Y-104200000D02*
X153450000Y-103200000D01*
X152450000Y-116000000D02*
X152450000Y-104200000D01*
X159950000Y-116000000D02*
X152450000Y-116000000D01*
X159950000Y-103200000D02*
X159950000Y-116000000D01*
X153450000Y-103200000D02*
X159950000Y-103200000D01*
X153450000Y-86200000D02*
X159950000Y-86200000D01*
X159950000Y-86200000D02*
X159950000Y-99000000D01*
X159950000Y-99000000D02*
X152450000Y-99000000D01*
X152450000Y-99000000D02*
X152450000Y-87200000D01*
X152450000Y-87200000D02*
X153450000Y-86200000D01*
X123650000Y-104200000D02*
X124650000Y-103200000D01*
X123650000Y-116000000D02*
X123650000Y-104200000D01*
X131150000Y-116000000D02*
X123650000Y-116000000D01*
X131150000Y-103200000D02*
X131150000Y-116000000D01*
X124650000Y-103200000D02*
X131150000Y-103200000D01*
X124650000Y-86200000D02*
X131150000Y-86200000D01*
X131150000Y-86200000D02*
X131150000Y-99000000D01*
X131150000Y-99000000D02*
X123650000Y-99000000D01*
X123650000Y-99000000D02*
X123650000Y-87200000D01*
X123650000Y-87200000D02*
X124650000Y-86200000D01*
X96050000Y-86200000D02*
X102550000Y-86200000D01*
X102550000Y-86200000D02*
X102550000Y-99000000D01*
X102550000Y-99000000D02*
X95050000Y-99000000D01*
X95050000Y-99000000D02*
X95050000Y-87200000D01*
X95050000Y-87200000D02*
X96050000Y-86200000D01*
X107050000Y-68800000D02*
X108050000Y-67800000D01*
X107050000Y-80600000D02*
X107050000Y-68800000D01*
X114550000Y-80600000D02*
X107050000Y-80600000D01*
X114550000Y-67800000D02*
X114550000Y-80600000D01*
X108050000Y-67800000D02*
X114550000Y-67800000D01*
X136450000Y-67800000D02*
X142950000Y-67800000D01*
X142950000Y-67800000D02*
X142950000Y-80600000D01*
X142950000Y-80600000D02*
X135450000Y-80600000D01*
X135450000Y-80600000D02*
X135450000Y-68800000D01*
X135450000Y-68800000D02*
X136450000Y-67800000D01*
X155275000Y-71975000D02*
X158200000Y-71975000D01*
X158200000Y-71975000D02*
X158200000Y-80625000D01*
X158200000Y-80625000D02*
X154300000Y-80625000D01*
X154300000Y-80625000D02*
X154300000Y-72950000D01*
X154300000Y-72950000D02*
X155275000Y-71975000D01*
D10*
X98511904Y-72567619D02*
X98559523Y-72520000D01*
X98654761Y-72472380D01*
X98892857Y-72472380D01*
X98988095Y-72520000D01*
X99035714Y-72567619D01*
X99083333Y-72662857D01*
X99083333Y-72758095D01*
X99035714Y-72900952D01*
X98464285Y-73472380D01*
X99083333Y-73472380D01*
X99464285Y-72567619D02*
X99511904Y-72520000D01*
X99607142Y-72472380D01*
X99845238Y-72472380D01*
X99940476Y-72520000D01*
X99988095Y-72567619D01*
X100035714Y-72662857D01*
X100035714Y-72758095D01*
X99988095Y-72900952D01*
X99416666Y-73472380D01*
X100035714Y-73472380D01*
X100654761Y-72472380D02*
X100750000Y-72472380D01*
X100845238Y-72520000D01*
X100892857Y-72567619D01*
X100940476Y-72662857D01*
X100988095Y-72853333D01*
X100988095Y-73091428D01*
X100940476Y-73281904D01*
X100892857Y-73377142D01*
X100845238Y-73424761D01*
X100750000Y-73472380D01*
X100654761Y-73472380D01*
X100559523Y-73424761D01*
X100511904Y-73377142D01*
X100464285Y-73281904D01*
X100416666Y-73091428D01*
X100416666Y-72853333D01*
X100464285Y-72662857D01*
X100511904Y-72567619D01*
X100559523Y-72520000D01*
X100654761Y-72472380D01*
X101988095Y-73472380D02*
X101654761Y-72996190D01*
X101416666Y-73472380D02*
X101416666Y-72472380D01*
X101797619Y-72472380D01*
X101892857Y-72520000D01*
X101940476Y-72567619D01*
X101988095Y-72662857D01*
X101988095Y-72805714D01*
X101940476Y-72900952D01*
X101892857Y-72948571D01*
X101797619Y-72996190D01*
X101416666Y-72996190D01*
X100702380Y-70710476D02*
X100226190Y-71043809D01*
X100702380Y-71281904D02*
X99702380Y-71281904D01*
X99702380Y-70900952D01*
X99750000Y-70805714D01*
X99797619Y-70758095D01*
X99892857Y-70710476D01*
X100035714Y-70710476D01*
X100130952Y-70758095D01*
X100178571Y-70805714D01*
X100226190Y-70900952D01*
X100226190Y-71281904D01*
X100702380Y-70281904D02*
X99702380Y-70281904D01*
X100702380Y-69710476D01*
X99702380Y-69710476D01*
X100702380Y-68710476D02*
X100702380Y-69281904D01*
X100702380Y-68996190D02*
X99702380Y-68996190D01*
X99845238Y-69091428D01*
X99940476Y-69186666D01*
X99988095Y-69281904D01*
X95680952Y-116402380D02*
X96347619Y-116402380D01*
X95919047Y-117402380D01*
X97157142Y-116735714D02*
X97157142Y-117402380D01*
X96919047Y-116354761D02*
X96680952Y-117069047D01*
X97300000Y-117069047D01*
X98157142Y-117402380D02*
X97680952Y-117402380D01*
X97680952Y-116402380D01*
X98442857Y-117354761D02*
X98585714Y-117402380D01*
X98823809Y-117402380D01*
X98919047Y-117354761D01*
X98966666Y-117307142D01*
X99014285Y-117211904D01*
X99014285Y-117116666D01*
X98966666Y-117021428D01*
X98919047Y-116973809D01*
X98823809Y-116926190D01*
X98633333Y-116878571D01*
X98538095Y-116830952D01*
X98490476Y-116783333D01*
X98442857Y-116688095D01*
X98442857Y-116592857D01*
X98490476Y-116497619D01*
X98538095Y-116450000D01*
X98633333Y-116402380D01*
X98871428Y-116402380D01*
X99014285Y-116450000D01*
X99395238Y-116497619D02*
X99442857Y-116450000D01*
X99538095Y-116402380D01*
X99776190Y-116402380D01*
X99871428Y-116450000D01*
X99919047Y-116497619D01*
X99966666Y-116592857D01*
X99966666Y-116688095D01*
X99919047Y-116830952D01*
X99347619Y-117402380D01*
X99966666Y-117402380D01*
X100823809Y-116735714D02*
X100823809Y-117402380D01*
X100585714Y-116354761D02*
X100347619Y-117069047D01*
X100966666Y-117069047D01*
X101823809Y-116402380D02*
X101347619Y-116402380D01*
X101300000Y-116878571D01*
X101347619Y-116830952D01*
X101442857Y-116783333D01*
X101680952Y-116783333D01*
X101776190Y-116830952D01*
X101823809Y-116878571D01*
X101871428Y-116973809D01*
X101871428Y-117211904D01*
X101823809Y-117307142D01*
X101776190Y-117354761D01*
X101680952Y-117402380D01*
X101442857Y-117402380D01*
X101347619Y-117354761D01*
X101300000Y-117307142D01*
X98038095Y-109052380D02*
X98038095Y-109861904D01*
X98085714Y-109957142D01*
X98133333Y-110004761D01*
X98228571Y-110052380D01*
X98419047Y-110052380D01*
X98514285Y-110004761D01*
X98561904Y-109957142D01*
X98609523Y-109861904D01*
X98609523Y-109052380D01*
X98990476Y-109052380D02*
X99657142Y-109052380D01*
X99228571Y-110052380D01*
X99932380Y-63326190D02*
X99932380Y-63802380D01*
X98932380Y-63802380D01*
X99408571Y-62992857D02*
X99408571Y-62659523D01*
X99932380Y-62516666D02*
X99932380Y-62992857D01*
X98932380Y-62992857D01*
X98932380Y-62516666D01*
X99932380Y-62088095D02*
X98932380Y-62088095D01*
X98932380Y-61850000D01*
X98980000Y-61707142D01*
X99075238Y-61611904D01*
X99170476Y-61564285D01*
X99360952Y-61516666D01*
X99503809Y-61516666D01*
X99694285Y-61564285D01*
X99789523Y-61611904D01*
X99884761Y-61707142D01*
X99932380Y-61850000D01*
X99932380Y-62088095D01*
X100027619Y-61326190D02*
X100027619Y-60564285D01*
X99932380Y-59754761D02*
X99456190Y-60088095D01*
X99932380Y-60326190D02*
X98932380Y-60326190D01*
X98932380Y-59945238D01*
X98980000Y-59850000D01*
X99027619Y-59802380D01*
X99122857Y-59754761D01*
X99265714Y-59754761D01*
X99360952Y-59802380D01*
X99408571Y-59850000D01*
X99456190Y-59945238D01*
X99456190Y-60326190D01*
X99408571Y-59326190D02*
X99408571Y-58992857D01*
X99932380Y-58850000D02*
X99932380Y-59326190D01*
X98932380Y-59326190D01*
X98932380Y-58850000D01*
X99932380Y-58421428D02*
X98932380Y-58421428D01*
X98932380Y-58183333D01*
X98980000Y-58040476D01*
X99075238Y-57945238D01*
X99170476Y-57897619D01*
X99360952Y-57850000D01*
X99503809Y-57850000D01*
X99694285Y-57897619D01*
X99789523Y-57945238D01*
X99884761Y-58040476D01*
X99932380Y-58183333D01*
X99932380Y-58421428D01*
D12*
X101661904Y-61821428D02*
X100861904Y-61821428D01*
X100861904Y-61630952D01*
X100900000Y-61516666D01*
X100976190Y-61440476D01*
X101052380Y-61402380D01*
X101204761Y-61364285D01*
X101319047Y-61364285D01*
X101471428Y-61402380D01*
X101547619Y-61440476D01*
X101623809Y-61516666D01*
X101661904Y-61630952D01*
X101661904Y-61821428D01*
X101661904Y-60602380D02*
X101661904Y-61059523D01*
X101661904Y-60830952D02*
X100861904Y-60830952D01*
X100976190Y-60907142D01*
X101052380Y-60983333D01*
X101090476Y-61059523D01*
X100861904Y-60335714D02*
X100861904Y-59840476D01*
X101166666Y-60107142D01*
X101166666Y-59992857D01*
X101204761Y-59916666D01*
X101242857Y-59878571D01*
X101319047Y-59840476D01*
X101509523Y-59840476D01*
X101585714Y-59878571D01*
X101623809Y-59916666D01*
X101661904Y-59992857D01*
X101661904Y-60221428D01*
X101623809Y-60297619D01*
X101585714Y-60335714D01*
D10*
X186882142Y-85682380D02*
X186977380Y-85682380D01*
X187072619Y-85730000D01*
X187120238Y-85777619D01*
X187167857Y-85872857D01*
X187215476Y-86063333D01*
X187215476Y-86301428D01*
X187167857Y-86491904D01*
X187120238Y-86587142D01*
X187072619Y-86634761D01*
X186977380Y-86682380D01*
X186882142Y-86682380D01*
X186786904Y-86634761D01*
X186739285Y-86587142D01*
X186691666Y-86491904D01*
X186644047Y-86301428D01*
X186644047Y-86063333D01*
X186691666Y-85872857D01*
X186739285Y-85777619D01*
X186786904Y-85730000D01*
X186882142Y-85682380D01*
X187644047Y-86587142D02*
X187691666Y-86634761D01*
X187644047Y-86682380D01*
X187596428Y-86634761D01*
X187644047Y-86587142D01*
X187644047Y-86682380D01*
X188644047Y-86682380D02*
X188072619Y-86682380D01*
X188358333Y-86682380D02*
X188358333Y-85682380D01*
X188263095Y-85825238D01*
X188167857Y-85920476D01*
X188072619Y-85968095D01*
X189501190Y-86015714D02*
X189501190Y-86682380D01*
X189072619Y-86015714D02*
X189072619Y-86539523D01*
X189120238Y-86634761D01*
X189215476Y-86682380D01*
X189358333Y-86682380D01*
X189453571Y-86634761D01*
X189501190Y-86587142D01*
X190310714Y-86158571D02*
X189977380Y-86158571D01*
X189977380Y-86682380D02*
X189977380Y-85682380D01*
X190453571Y-85682380D01*
D13*
X188458333Y-84942857D02*
X188439285Y-84961904D01*
X188382142Y-84980952D01*
X188344047Y-84980952D01*
X188286904Y-84961904D01*
X188248809Y-84923809D01*
X188229761Y-84885714D01*
X188210714Y-84809523D01*
X188210714Y-84752380D01*
X188229761Y-84676190D01*
X188248809Y-84638095D01*
X188286904Y-84600000D01*
X188344047Y-84580952D01*
X188382142Y-84580952D01*
X188439285Y-84600000D01*
X188458333Y-84619047D01*
X188839285Y-84980952D02*
X188610714Y-84980952D01*
X188725000Y-84980952D02*
X188725000Y-84580952D01*
X188686904Y-84638095D01*
X188648809Y-84676190D01*
X188610714Y-84695238D01*
D10*
X186682142Y-102682380D02*
X186777380Y-102682380D01*
X186872619Y-102730000D01*
X186920238Y-102777619D01*
X186967857Y-102872857D01*
X187015476Y-103063333D01*
X187015476Y-103301428D01*
X186967857Y-103491904D01*
X186920238Y-103587142D01*
X186872619Y-103634761D01*
X186777380Y-103682380D01*
X186682142Y-103682380D01*
X186586904Y-103634761D01*
X186539285Y-103587142D01*
X186491666Y-103491904D01*
X186444047Y-103301428D01*
X186444047Y-103063333D01*
X186491666Y-102872857D01*
X186539285Y-102777619D01*
X186586904Y-102730000D01*
X186682142Y-102682380D01*
X187444047Y-103587142D02*
X187491666Y-103634761D01*
X187444047Y-103682380D01*
X187396428Y-103634761D01*
X187444047Y-103587142D01*
X187444047Y-103682380D01*
X188444047Y-103682380D02*
X187872619Y-103682380D01*
X188158333Y-103682380D02*
X188158333Y-102682380D01*
X188063095Y-102825238D01*
X187967857Y-102920476D01*
X187872619Y-102968095D01*
X189301190Y-103015714D02*
X189301190Y-103682380D01*
X188872619Y-103015714D02*
X188872619Y-103539523D01*
X188920238Y-103634761D01*
X189015476Y-103682380D01*
X189158333Y-103682380D01*
X189253571Y-103634761D01*
X189301190Y-103587142D01*
X190110714Y-103158571D02*
X189777380Y-103158571D01*
X189777380Y-103682380D02*
X189777380Y-102682380D01*
X190253571Y-102682380D01*
D13*
X188258333Y-101942857D02*
X188239285Y-101961904D01*
X188182142Y-101980952D01*
X188144047Y-101980952D01*
X188086904Y-101961904D01*
X188048809Y-101923809D01*
X188029761Y-101885714D01*
X188010714Y-101809523D01*
X188010714Y-101752380D01*
X188029761Y-101676190D01*
X188048809Y-101638095D01*
X188086904Y-101600000D01*
X188144047Y-101580952D01*
X188182142Y-101580952D01*
X188239285Y-101600000D01*
X188258333Y-101619047D01*
X188410714Y-101619047D02*
X188429761Y-101600000D01*
X188467857Y-101580952D01*
X188563095Y-101580952D01*
X188601190Y-101600000D01*
X188620238Y-101619047D01*
X188639285Y-101657142D01*
X188639285Y-101695238D01*
X188620238Y-101752380D01*
X188391666Y-101980952D01*
X188639285Y-101980952D01*
D10*
X158332142Y-102682380D02*
X158427380Y-102682380D01*
X158522619Y-102730000D01*
X158570238Y-102777619D01*
X158617857Y-102872857D01*
X158665476Y-103063333D01*
X158665476Y-103301428D01*
X158617857Y-103491904D01*
X158570238Y-103587142D01*
X158522619Y-103634761D01*
X158427380Y-103682380D01*
X158332142Y-103682380D01*
X158236904Y-103634761D01*
X158189285Y-103587142D01*
X158141666Y-103491904D01*
X158094047Y-103301428D01*
X158094047Y-103063333D01*
X158141666Y-102872857D01*
X158189285Y-102777619D01*
X158236904Y-102730000D01*
X158332142Y-102682380D01*
X159094047Y-103587142D02*
X159141666Y-103634761D01*
X159094047Y-103682380D01*
X159046428Y-103634761D01*
X159094047Y-103587142D01*
X159094047Y-103682380D01*
X160094047Y-103682380D02*
X159522619Y-103682380D01*
X159808333Y-103682380D02*
X159808333Y-102682380D01*
X159713095Y-102825238D01*
X159617857Y-102920476D01*
X159522619Y-102968095D01*
X160951190Y-103015714D02*
X160951190Y-103682380D01*
X160522619Y-103015714D02*
X160522619Y-103539523D01*
X160570238Y-103634761D01*
X160665476Y-103682380D01*
X160808333Y-103682380D01*
X160903571Y-103634761D01*
X160951190Y-103587142D01*
X161760714Y-103158571D02*
X161427380Y-103158571D01*
X161427380Y-103682380D02*
X161427380Y-102682380D01*
X161903571Y-102682380D01*
D13*
X159908333Y-101942857D02*
X159889285Y-101961904D01*
X159832142Y-101980952D01*
X159794047Y-101980952D01*
X159736904Y-101961904D01*
X159698809Y-101923809D01*
X159679761Y-101885714D01*
X159660714Y-101809523D01*
X159660714Y-101752380D01*
X159679761Y-101676190D01*
X159698809Y-101638095D01*
X159736904Y-101600000D01*
X159794047Y-101580952D01*
X159832142Y-101580952D01*
X159889285Y-101600000D01*
X159908333Y-101619047D01*
X160041666Y-101580952D02*
X160289285Y-101580952D01*
X160155952Y-101733333D01*
X160213095Y-101733333D01*
X160251190Y-101752380D01*
X160270238Y-101771428D01*
X160289285Y-101809523D01*
X160289285Y-101904761D01*
X160270238Y-101942857D01*
X160251190Y-101961904D01*
X160213095Y-101980952D01*
X160098809Y-101980952D01*
X160060714Y-101961904D01*
X160041666Y-101942857D01*
D10*
X158337142Y-85682380D02*
X158432380Y-85682380D01*
X158527619Y-85730000D01*
X158575238Y-85777619D01*
X158622857Y-85872857D01*
X158670476Y-86063333D01*
X158670476Y-86301428D01*
X158622857Y-86491904D01*
X158575238Y-86587142D01*
X158527619Y-86634761D01*
X158432380Y-86682380D01*
X158337142Y-86682380D01*
X158241904Y-86634761D01*
X158194285Y-86587142D01*
X158146666Y-86491904D01*
X158099047Y-86301428D01*
X158099047Y-86063333D01*
X158146666Y-85872857D01*
X158194285Y-85777619D01*
X158241904Y-85730000D01*
X158337142Y-85682380D01*
X159099047Y-86587142D02*
X159146666Y-86634761D01*
X159099047Y-86682380D01*
X159051428Y-86634761D01*
X159099047Y-86587142D01*
X159099047Y-86682380D01*
X160099047Y-86682380D02*
X159527619Y-86682380D01*
X159813333Y-86682380D02*
X159813333Y-85682380D01*
X159718095Y-85825238D01*
X159622857Y-85920476D01*
X159527619Y-85968095D01*
X160956190Y-86015714D02*
X160956190Y-86682380D01*
X160527619Y-86015714D02*
X160527619Y-86539523D01*
X160575238Y-86634761D01*
X160670476Y-86682380D01*
X160813333Y-86682380D01*
X160908571Y-86634761D01*
X160956190Y-86587142D01*
X161765714Y-86158571D02*
X161432380Y-86158571D01*
X161432380Y-86682380D02*
X161432380Y-85682380D01*
X161908571Y-85682380D01*
D13*
X159913333Y-84942857D02*
X159894285Y-84961904D01*
X159837142Y-84980952D01*
X159799047Y-84980952D01*
X159741904Y-84961904D01*
X159703809Y-84923809D01*
X159684761Y-84885714D01*
X159665714Y-84809523D01*
X159665714Y-84752380D01*
X159684761Y-84676190D01*
X159703809Y-84638095D01*
X159741904Y-84600000D01*
X159799047Y-84580952D01*
X159837142Y-84580952D01*
X159894285Y-84600000D01*
X159913333Y-84619047D01*
X160256190Y-84714285D02*
X160256190Y-84980952D01*
X160160952Y-84561904D02*
X160065714Y-84847619D01*
X160313333Y-84847619D01*
D10*
X129482142Y-102682380D02*
X129577380Y-102682380D01*
X129672619Y-102730000D01*
X129720238Y-102777619D01*
X129767857Y-102872857D01*
X129815476Y-103063333D01*
X129815476Y-103301428D01*
X129767857Y-103491904D01*
X129720238Y-103587142D01*
X129672619Y-103634761D01*
X129577380Y-103682380D01*
X129482142Y-103682380D01*
X129386904Y-103634761D01*
X129339285Y-103587142D01*
X129291666Y-103491904D01*
X129244047Y-103301428D01*
X129244047Y-103063333D01*
X129291666Y-102872857D01*
X129339285Y-102777619D01*
X129386904Y-102730000D01*
X129482142Y-102682380D01*
X130244047Y-103587142D02*
X130291666Y-103634761D01*
X130244047Y-103682380D01*
X130196428Y-103634761D01*
X130244047Y-103587142D01*
X130244047Y-103682380D01*
X131244047Y-103682380D02*
X130672619Y-103682380D01*
X130958333Y-103682380D02*
X130958333Y-102682380D01*
X130863095Y-102825238D01*
X130767857Y-102920476D01*
X130672619Y-102968095D01*
X132101190Y-103015714D02*
X132101190Y-103682380D01*
X131672619Y-103015714D02*
X131672619Y-103539523D01*
X131720238Y-103634761D01*
X131815476Y-103682380D01*
X131958333Y-103682380D01*
X132053571Y-103634761D01*
X132101190Y-103587142D01*
X132910714Y-103158571D02*
X132577380Y-103158571D01*
X132577380Y-103682380D02*
X132577380Y-102682380D01*
X133053571Y-102682380D01*
D13*
X131058333Y-101942857D02*
X131039285Y-101961904D01*
X130982142Y-101980952D01*
X130944047Y-101980952D01*
X130886904Y-101961904D01*
X130848809Y-101923809D01*
X130829761Y-101885714D01*
X130810714Y-101809523D01*
X130810714Y-101752380D01*
X130829761Y-101676190D01*
X130848809Y-101638095D01*
X130886904Y-101600000D01*
X130944047Y-101580952D01*
X130982142Y-101580952D01*
X131039285Y-101600000D01*
X131058333Y-101619047D01*
X131420238Y-101580952D02*
X131229761Y-101580952D01*
X131210714Y-101771428D01*
X131229761Y-101752380D01*
X131267857Y-101733333D01*
X131363095Y-101733333D01*
X131401190Y-101752380D01*
X131420238Y-101771428D01*
X131439285Y-101809523D01*
X131439285Y-101904761D01*
X131420238Y-101942857D01*
X131401190Y-101961904D01*
X131363095Y-101980952D01*
X131267857Y-101980952D01*
X131229761Y-101961904D01*
X131210714Y-101942857D01*
D10*
X129482142Y-85682380D02*
X129577380Y-85682380D01*
X129672619Y-85730000D01*
X129720238Y-85777619D01*
X129767857Y-85872857D01*
X129815476Y-86063333D01*
X129815476Y-86301428D01*
X129767857Y-86491904D01*
X129720238Y-86587142D01*
X129672619Y-86634761D01*
X129577380Y-86682380D01*
X129482142Y-86682380D01*
X129386904Y-86634761D01*
X129339285Y-86587142D01*
X129291666Y-86491904D01*
X129244047Y-86301428D01*
X129244047Y-86063333D01*
X129291666Y-85872857D01*
X129339285Y-85777619D01*
X129386904Y-85730000D01*
X129482142Y-85682380D01*
X130244047Y-86587142D02*
X130291666Y-86634761D01*
X130244047Y-86682380D01*
X130196428Y-86634761D01*
X130244047Y-86587142D01*
X130244047Y-86682380D01*
X131244047Y-86682380D02*
X130672619Y-86682380D01*
X130958333Y-86682380D02*
X130958333Y-85682380D01*
X130863095Y-85825238D01*
X130767857Y-85920476D01*
X130672619Y-85968095D01*
X132101190Y-86015714D02*
X132101190Y-86682380D01*
X131672619Y-86015714D02*
X131672619Y-86539523D01*
X131720238Y-86634761D01*
X131815476Y-86682380D01*
X131958333Y-86682380D01*
X132053571Y-86634761D01*
X132101190Y-86587142D01*
X132910714Y-86158571D02*
X132577380Y-86158571D01*
X132577380Y-86682380D02*
X132577380Y-85682380D01*
X133053571Y-85682380D01*
D13*
X131058333Y-84942857D02*
X131039285Y-84961904D01*
X130982142Y-84980952D01*
X130944047Y-84980952D01*
X130886904Y-84961904D01*
X130848809Y-84923809D01*
X130829761Y-84885714D01*
X130810714Y-84809523D01*
X130810714Y-84752380D01*
X130829761Y-84676190D01*
X130848809Y-84638095D01*
X130886904Y-84600000D01*
X130944047Y-84580952D01*
X130982142Y-84580952D01*
X131039285Y-84600000D01*
X131058333Y-84619047D01*
X131401190Y-84580952D02*
X131325000Y-84580952D01*
X131286904Y-84600000D01*
X131267857Y-84619047D01*
X131229761Y-84676190D01*
X131210714Y-84752380D01*
X131210714Y-84904761D01*
X131229761Y-84942857D01*
X131248809Y-84961904D01*
X131286904Y-84980952D01*
X131363095Y-84980952D01*
X131401190Y-84961904D01*
X131420238Y-84942857D01*
X131439285Y-84904761D01*
X131439285Y-84809523D01*
X131420238Y-84771428D01*
X131401190Y-84752380D01*
X131363095Y-84733333D01*
X131286904Y-84733333D01*
X131248809Y-84752380D01*
X131229761Y-84771428D01*
X131210714Y-84809523D01*
D10*
X100957142Y-102682380D02*
X101052380Y-102682380D01*
X101147619Y-102730000D01*
X101195238Y-102777619D01*
X101242857Y-102872857D01*
X101290476Y-103063333D01*
X101290476Y-103301428D01*
X101242857Y-103491904D01*
X101195238Y-103587142D01*
X101147619Y-103634761D01*
X101052380Y-103682380D01*
X100957142Y-103682380D01*
X100861904Y-103634761D01*
X100814285Y-103587142D01*
X100766666Y-103491904D01*
X100719047Y-103301428D01*
X100719047Y-103063333D01*
X100766666Y-102872857D01*
X100814285Y-102777619D01*
X100861904Y-102730000D01*
X100957142Y-102682380D01*
X101719047Y-103587142D02*
X101766666Y-103634761D01*
X101719047Y-103682380D01*
X101671428Y-103634761D01*
X101719047Y-103587142D01*
X101719047Y-103682380D01*
X102719047Y-103682380D02*
X102147619Y-103682380D01*
X102433333Y-103682380D02*
X102433333Y-102682380D01*
X102338095Y-102825238D01*
X102242857Y-102920476D01*
X102147619Y-102968095D01*
X103576190Y-103015714D02*
X103576190Y-103682380D01*
X103147619Y-103015714D02*
X103147619Y-103539523D01*
X103195238Y-103634761D01*
X103290476Y-103682380D01*
X103433333Y-103682380D01*
X103528571Y-103634761D01*
X103576190Y-103587142D01*
X104385714Y-103158571D02*
X104052380Y-103158571D01*
X104052380Y-103682380D02*
X104052380Y-102682380D01*
X104528571Y-102682380D01*
D13*
X102533333Y-101942857D02*
X102514285Y-101961904D01*
X102457142Y-101980952D01*
X102419047Y-101980952D01*
X102361904Y-101961904D01*
X102323809Y-101923809D01*
X102304761Y-101885714D01*
X102285714Y-101809523D01*
X102285714Y-101752380D01*
X102304761Y-101676190D01*
X102323809Y-101638095D01*
X102361904Y-101600000D01*
X102419047Y-101580952D01*
X102457142Y-101580952D01*
X102514285Y-101600000D01*
X102533333Y-101619047D01*
X102666666Y-101580952D02*
X102933333Y-101580952D01*
X102761904Y-101980952D01*
D10*
X100957142Y-85682380D02*
X101052380Y-85682380D01*
X101147619Y-85730000D01*
X101195238Y-85777619D01*
X101242857Y-85872857D01*
X101290476Y-86063333D01*
X101290476Y-86301428D01*
X101242857Y-86491904D01*
X101195238Y-86587142D01*
X101147619Y-86634761D01*
X101052380Y-86682380D01*
X100957142Y-86682380D01*
X100861904Y-86634761D01*
X100814285Y-86587142D01*
X100766666Y-86491904D01*
X100719047Y-86301428D01*
X100719047Y-86063333D01*
X100766666Y-85872857D01*
X100814285Y-85777619D01*
X100861904Y-85730000D01*
X100957142Y-85682380D01*
X101719047Y-86587142D02*
X101766666Y-86634761D01*
X101719047Y-86682380D01*
X101671428Y-86634761D01*
X101719047Y-86587142D01*
X101719047Y-86682380D01*
X102719047Y-86682380D02*
X102147619Y-86682380D01*
X102433333Y-86682380D02*
X102433333Y-85682380D01*
X102338095Y-85825238D01*
X102242857Y-85920476D01*
X102147619Y-85968095D01*
X103576190Y-86015714D02*
X103576190Y-86682380D01*
X103147619Y-86015714D02*
X103147619Y-86539523D01*
X103195238Y-86634761D01*
X103290476Y-86682380D01*
X103433333Y-86682380D01*
X103528571Y-86634761D01*
X103576190Y-86587142D01*
X104385714Y-86158571D02*
X104052380Y-86158571D01*
X104052380Y-86682380D02*
X104052380Y-85682380D01*
X104528571Y-85682380D01*
D13*
X102533333Y-84942857D02*
X102514285Y-84961904D01*
X102457142Y-84980952D01*
X102419047Y-84980952D01*
X102361904Y-84961904D01*
X102323809Y-84923809D01*
X102304761Y-84885714D01*
X102285714Y-84809523D01*
X102285714Y-84752380D01*
X102304761Y-84676190D01*
X102323809Y-84638095D01*
X102361904Y-84600000D01*
X102419047Y-84580952D01*
X102457142Y-84580952D01*
X102514285Y-84600000D01*
X102533333Y-84619047D01*
X102761904Y-84752380D02*
X102723809Y-84733333D01*
X102704761Y-84714285D01*
X102685714Y-84676190D01*
X102685714Y-84657142D01*
X102704761Y-84619047D01*
X102723809Y-84600000D01*
X102761904Y-84580952D01*
X102838095Y-84580952D01*
X102876190Y-84600000D01*
X102895238Y-84619047D01*
X102914285Y-84657142D01*
X102914285Y-84676190D01*
X102895238Y-84714285D01*
X102876190Y-84733333D01*
X102838095Y-84752380D01*
X102761904Y-84752380D01*
X102723809Y-84771428D01*
X102704761Y-84790476D01*
X102685714Y-84828571D01*
X102685714Y-84904761D01*
X102704761Y-84942857D01*
X102723809Y-84961904D01*
X102761904Y-84980952D01*
X102838095Y-84980952D01*
X102876190Y-84961904D01*
X102895238Y-84942857D01*
X102914285Y-84904761D01*
X102914285Y-84828571D01*
X102895238Y-84790476D01*
X102876190Y-84771428D01*
X102838095Y-84752380D01*
D10*
X117457142Y-66572380D02*
X117552380Y-66572380D01*
X117647619Y-66620000D01*
X117695238Y-66667619D01*
X117742857Y-66762857D01*
X117790476Y-66953333D01*
X117790476Y-67191428D01*
X117742857Y-67381904D01*
X117695238Y-67477142D01*
X117647619Y-67524761D01*
X117552380Y-67572380D01*
X117457142Y-67572380D01*
X117361904Y-67524761D01*
X117314285Y-67477142D01*
X117266666Y-67381904D01*
X117219047Y-67191428D01*
X117219047Y-66953333D01*
X117266666Y-66762857D01*
X117314285Y-66667619D01*
X117361904Y-66620000D01*
X117457142Y-66572380D01*
X118219047Y-67477142D02*
X118266666Y-67524761D01*
X118219047Y-67572380D01*
X118171428Y-67524761D01*
X118219047Y-67477142D01*
X118219047Y-67572380D01*
X119219047Y-67572380D02*
X118647619Y-67572380D01*
X118933333Y-67572380D02*
X118933333Y-66572380D01*
X118838095Y-66715238D01*
X118742857Y-66810476D01*
X118647619Y-66858095D01*
X120076190Y-66905714D02*
X120076190Y-67572380D01*
X119647619Y-66905714D02*
X119647619Y-67429523D01*
X119695238Y-67524761D01*
X119790476Y-67572380D01*
X119933333Y-67572380D01*
X120028571Y-67524761D01*
X120076190Y-67477142D01*
X120885714Y-67048571D02*
X120552380Y-67048571D01*
X120552380Y-67572380D02*
X120552380Y-66572380D01*
X121028571Y-66572380D01*
D13*
X119033333Y-68692857D02*
X119014285Y-68711904D01*
X118957142Y-68730952D01*
X118919047Y-68730952D01*
X118861904Y-68711904D01*
X118823809Y-68673809D01*
X118804761Y-68635714D01*
X118785714Y-68559523D01*
X118785714Y-68502380D01*
X118804761Y-68426190D01*
X118823809Y-68388095D01*
X118861904Y-68350000D01*
X118919047Y-68330952D01*
X118957142Y-68330952D01*
X119014285Y-68350000D01*
X119033333Y-68369047D01*
X119223809Y-68730952D02*
X119300000Y-68730952D01*
X119338095Y-68711904D01*
X119357142Y-68692857D01*
X119395238Y-68635714D01*
X119414285Y-68559523D01*
X119414285Y-68407142D01*
X119395238Y-68369047D01*
X119376190Y-68350000D01*
X119338095Y-68330952D01*
X119261904Y-68330952D01*
X119223809Y-68350000D01*
X119204761Y-68369047D01*
X119185714Y-68407142D01*
X119185714Y-68502380D01*
X119204761Y-68540476D01*
X119223809Y-68559523D01*
X119261904Y-68578571D01*
X119338095Y-68578571D01*
X119376190Y-68559523D01*
X119395238Y-68540476D01*
X119414285Y-68502380D01*
D10*
X145857142Y-66522380D02*
X145952380Y-66522380D01*
X146047619Y-66570000D01*
X146095238Y-66617619D01*
X146142857Y-66712857D01*
X146190476Y-66903333D01*
X146190476Y-67141428D01*
X146142857Y-67331904D01*
X146095238Y-67427142D01*
X146047619Y-67474761D01*
X145952380Y-67522380D01*
X145857142Y-67522380D01*
X145761904Y-67474761D01*
X145714285Y-67427142D01*
X145666666Y-67331904D01*
X145619047Y-67141428D01*
X145619047Y-66903333D01*
X145666666Y-66712857D01*
X145714285Y-66617619D01*
X145761904Y-66570000D01*
X145857142Y-66522380D01*
X146619047Y-67427142D02*
X146666666Y-67474761D01*
X146619047Y-67522380D01*
X146571428Y-67474761D01*
X146619047Y-67427142D01*
X146619047Y-67522380D01*
X147619047Y-67522380D02*
X147047619Y-67522380D01*
X147333333Y-67522380D02*
X147333333Y-66522380D01*
X147238095Y-66665238D01*
X147142857Y-66760476D01*
X147047619Y-66808095D01*
X148476190Y-66855714D02*
X148476190Y-67522380D01*
X148047619Y-66855714D02*
X148047619Y-67379523D01*
X148095238Y-67474761D01*
X148190476Y-67522380D01*
X148333333Y-67522380D01*
X148428571Y-67474761D01*
X148476190Y-67427142D01*
X149285714Y-66998571D02*
X148952380Y-66998571D01*
X148952380Y-67522380D02*
X148952380Y-66522380D01*
X149428571Y-66522380D01*
D13*
X147242857Y-68642857D02*
X147223809Y-68661904D01*
X147166666Y-68680952D01*
X147128571Y-68680952D01*
X147071428Y-68661904D01*
X147033333Y-68623809D01*
X147014285Y-68585714D01*
X146995238Y-68509523D01*
X146995238Y-68452380D01*
X147014285Y-68376190D01*
X147033333Y-68338095D01*
X147071428Y-68300000D01*
X147128571Y-68280952D01*
X147166666Y-68280952D01*
X147223809Y-68300000D01*
X147242857Y-68319047D01*
X147623809Y-68680952D02*
X147395238Y-68680952D01*
X147509523Y-68680952D02*
X147509523Y-68280952D01*
X147471428Y-68338095D01*
X147433333Y-68376190D01*
X147395238Y-68395238D01*
X147871428Y-68280952D02*
X147909523Y-68280952D01*
X147947619Y-68300000D01*
X147966666Y-68319047D01*
X147985714Y-68357142D01*
X148004761Y-68433333D01*
X148004761Y-68528571D01*
X147985714Y-68604761D01*
X147966666Y-68642857D01*
X147947619Y-68661904D01*
X147909523Y-68680952D01*
X147871428Y-68680952D01*
X147833333Y-68661904D01*
X147814285Y-68642857D01*
X147795238Y-68604761D01*
X147776190Y-68528571D01*
X147776190Y-68433333D01*
X147795238Y-68357142D01*
X147814285Y-68319047D01*
X147833333Y-68300000D01*
X147871428Y-68280952D01*
D10*
X160657142Y-70572380D02*
X160752380Y-70572380D01*
X160847619Y-70620000D01*
X160895238Y-70667619D01*
X160942857Y-70762857D01*
X160990476Y-70953333D01*
X160990476Y-71191428D01*
X160942857Y-71381904D01*
X160895238Y-71477142D01*
X160847619Y-71524761D01*
X160752380Y-71572380D01*
X160657142Y-71572380D01*
X160561904Y-71524761D01*
X160514285Y-71477142D01*
X160466666Y-71381904D01*
X160419047Y-71191428D01*
X160419047Y-70953333D01*
X160466666Y-70762857D01*
X160514285Y-70667619D01*
X160561904Y-70620000D01*
X160657142Y-70572380D01*
X161419047Y-71477142D02*
X161466666Y-71524761D01*
X161419047Y-71572380D01*
X161371428Y-71524761D01*
X161419047Y-71477142D01*
X161419047Y-71572380D01*
X162419047Y-71572380D02*
X161847619Y-71572380D01*
X162133333Y-71572380D02*
X162133333Y-70572380D01*
X162038095Y-70715238D01*
X161942857Y-70810476D01*
X161847619Y-70858095D01*
X163276190Y-70905714D02*
X163276190Y-71572380D01*
X162847619Y-70905714D02*
X162847619Y-71429523D01*
X162895238Y-71524761D01*
X162990476Y-71572380D01*
X163133333Y-71572380D01*
X163228571Y-71524761D01*
X163276190Y-71477142D01*
X164085714Y-71048571D02*
X163752380Y-71048571D01*
X163752380Y-71572380D02*
X163752380Y-70572380D01*
X164228571Y-70572380D01*
D13*
X162042857Y-72692857D02*
X162023809Y-72711904D01*
X161966666Y-72730952D01*
X161928571Y-72730952D01*
X161871428Y-72711904D01*
X161833333Y-72673809D01*
X161814285Y-72635714D01*
X161795238Y-72559523D01*
X161795238Y-72502380D01*
X161814285Y-72426190D01*
X161833333Y-72388095D01*
X161871428Y-72350000D01*
X161928571Y-72330952D01*
X161966666Y-72330952D01*
X162023809Y-72350000D01*
X162042857Y-72369047D01*
X162423809Y-72730952D02*
X162195238Y-72730952D01*
X162309523Y-72730952D02*
X162309523Y-72330952D01*
X162271428Y-72388095D01*
X162233333Y-72426190D01*
X162195238Y-72445238D01*
X162804761Y-72730952D02*
X162576190Y-72730952D01*
X162690476Y-72730952D02*
X162690476Y-72330952D01*
X162652380Y-72388095D01*
X162614285Y-72426190D01*
X162576190Y-72445238D01*
D10*
X150882380Y-63326190D02*
X150882380Y-63802380D01*
X149882380Y-63802380D01*
X150358571Y-62992857D02*
X150358571Y-62659523D01*
X150882380Y-62516666D02*
X150882380Y-62992857D01*
X149882380Y-62992857D01*
X149882380Y-62516666D01*
X150882380Y-62088095D02*
X149882380Y-62088095D01*
X149882380Y-61850000D01*
X149930000Y-61707142D01*
X150025238Y-61611904D01*
X150120476Y-61564285D01*
X150310952Y-61516666D01*
X150453809Y-61516666D01*
X150644285Y-61564285D01*
X150739523Y-61611904D01*
X150834761Y-61707142D01*
X150882380Y-61850000D01*
X150882380Y-62088095D01*
X150977619Y-61326190D02*
X150977619Y-60564285D01*
X150882380Y-59754761D02*
X150406190Y-60088095D01*
X150882380Y-60326190D02*
X149882380Y-60326190D01*
X149882380Y-59945238D01*
X149930000Y-59850000D01*
X149977619Y-59802380D01*
X150072857Y-59754761D01*
X150215714Y-59754761D01*
X150310952Y-59802380D01*
X150358571Y-59850000D01*
X150406190Y-59945238D01*
X150406190Y-60326190D01*
X150358571Y-59326190D02*
X150358571Y-58992857D01*
X150882380Y-58850000D02*
X150882380Y-59326190D01*
X149882380Y-59326190D01*
X149882380Y-58850000D01*
X150882380Y-58421428D02*
X149882380Y-58421428D01*
X149882380Y-58183333D01*
X149930000Y-58040476D01*
X150025238Y-57945238D01*
X150120476Y-57897619D01*
X150310952Y-57850000D01*
X150453809Y-57850000D01*
X150644285Y-57897619D01*
X150739523Y-57945238D01*
X150834761Y-58040476D01*
X150882380Y-58183333D01*
X150882380Y-58421428D01*
D12*
X152611904Y-61440476D02*
X151811904Y-61440476D01*
X151811904Y-61250000D01*
X151850000Y-61135714D01*
X151926190Y-61059523D01*
X152002380Y-61021428D01*
X152154761Y-60983333D01*
X152269047Y-60983333D01*
X152421428Y-61021428D01*
X152497619Y-61059523D01*
X152573809Y-61135714D01*
X152611904Y-61250000D01*
X152611904Y-61440476D01*
X151811904Y-60488095D02*
X151811904Y-60411904D01*
X151850000Y-60335714D01*
X151888095Y-60297619D01*
X151964285Y-60259523D01*
X152116666Y-60221428D01*
X152307142Y-60221428D01*
X152459523Y-60259523D01*
X152535714Y-60297619D01*
X152573809Y-60335714D01*
X152611904Y-60411904D01*
X152611904Y-60488095D01*
X152573809Y-60564285D01*
X152535714Y-60602380D01*
X152459523Y-60640476D01*
X152307142Y-60678571D01*
X152116666Y-60678571D01*
X151964285Y-60640476D01*
X151888095Y-60602380D01*
X151850000Y-60564285D01*
X151811904Y-60488095D01*
D10*
X147132380Y-63338690D02*
X147132380Y-63814880D01*
X146132380Y-63814880D01*
X146608571Y-63005357D02*
X146608571Y-62672023D01*
X147132380Y-62529166D02*
X147132380Y-63005357D01*
X146132380Y-63005357D01*
X146132380Y-62529166D01*
X147132380Y-62100595D02*
X146132380Y-62100595D01*
X146132380Y-61862500D01*
X146180000Y-61719642D01*
X146275238Y-61624404D01*
X146370476Y-61576785D01*
X146560952Y-61529166D01*
X146703809Y-61529166D01*
X146894285Y-61576785D01*
X146989523Y-61624404D01*
X147084761Y-61719642D01*
X147132380Y-61862500D01*
X147132380Y-62100595D01*
X147227619Y-61338690D02*
X147227619Y-60576785D01*
X147132380Y-59767261D02*
X146656190Y-60100595D01*
X147132380Y-60338690D02*
X146132380Y-60338690D01*
X146132380Y-59957738D01*
X146180000Y-59862500D01*
X146227619Y-59814880D01*
X146322857Y-59767261D01*
X146465714Y-59767261D01*
X146560952Y-59814880D01*
X146608571Y-59862500D01*
X146656190Y-59957738D01*
X146656190Y-60338690D01*
X146608571Y-59338690D02*
X146608571Y-59005357D01*
X147132380Y-58862500D02*
X147132380Y-59338690D01*
X146132380Y-59338690D01*
X146132380Y-58862500D01*
X147132380Y-58433928D02*
X146132380Y-58433928D01*
X146132380Y-58195833D01*
X146180000Y-58052976D01*
X146275238Y-57957738D01*
X146370476Y-57910119D01*
X146560952Y-57862500D01*
X146703809Y-57862500D01*
X146894285Y-57910119D01*
X146989523Y-57957738D01*
X147084761Y-58052976D01*
X147132380Y-58195833D01*
X147132380Y-58433928D01*
D12*
X148861904Y-61452976D02*
X148061904Y-61452976D01*
X148061904Y-61262500D01*
X148100000Y-61148214D01*
X148176190Y-61072023D01*
X148252380Y-61033928D01*
X148404761Y-60995833D01*
X148519047Y-60995833D01*
X148671428Y-61033928D01*
X148747619Y-61072023D01*
X148823809Y-61148214D01*
X148861904Y-61262500D01*
X148861904Y-61452976D01*
X148861904Y-60233928D02*
X148861904Y-60691071D01*
X148861904Y-60462500D02*
X148061904Y-60462500D01*
X148176190Y-60538690D01*
X148252380Y-60614880D01*
X148290476Y-60691071D01*
D10*
X143382380Y-63338690D02*
X143382380Y-63814880D01*
X142382380Y-63814880D01*
X142858571Y-63005357D02*
X142858571Y-62672023D01*
X143382380Y-62529166D02*
X143382380Y-63005357D01*
X142382380Y-63005357D01*
X142382380Y-62529166D01*
X143382380Y-62100595D02*
X142382380Y-62100595D01*
X142382380Y-61862500D01*
X142430000Y-61719642D01*
X142525238Y-61624404D01*
X142620476Y-61576785D01*
X142810952Y-61529166D01*
X142953809Y-61529166D01*
X143144285Y-61576785D01*
X143239523Y-61624404D01*
X143334761Y-61719642D01*
X143382380Y-61862500D01*
X143382380Y-62100595D01*
X143477619Y-61338690D02*
X143477619Y-60576785D01*
X143382380Y-59767261D02*
X142906190Y-60100595D01*
X143382380Y-60338690D02*
X142382380Y-60338690D01*
X142382380Y-59957738D01*
X142430000Y-59862500D01*
X142477619Y-59814880D01*
X142572857Y-59767261D01*
X142715714Y-59767261D01*
X142810952Y-59814880D01*
X142858571Y-59862500D01*
X142906190Y-59957738D01*
X142906190Y-60338690D01*
X142858571Y-59338690D02*
X142858571Y-59005357D01*
X143382380Y-58862500D02*
X143382380Y-59338690D01*
X142382380Y-59338690D01*
X142382380Y-58862500D01*
X143382380Y-58433928D02*
X142382380Y-58433928D01*
X142382380Y-58195833D01*
X142430000Y-58052976D01*
X142525238Y-57957738D01*
X142620476Y-57910119D01*
X142810952Y-57862500D01*
X142953809Y-57862500D01*
X143144285Y-57910119D01*
X143239523Y-57957738D01*
X143334761Y-58052976D01*
X143382380Y-58195833D01*
X143382380Y-58433928D01*
D12*
X145111904Y-61452976D02*
X144311904Y-61452976D01*
X144311904Y-61262500D01*
X144350000Y-61148214D01*
X144426190Y-61072023D01*
X144502380Y-61033928D01*
X144654761Y-60995833D01*
X144769047Y-60995833D01*
X144921428Y-61033928D01*
X144997619Y-61072023D01*
X145073809Y-61148214D01*
X145111904Y-61262500D01*
X145111904Y-61452976D01*
X144388095Y-60691071D02*
X144350000Y-60652976D01*
X144311904Y-60576785D01*
X144311904Y-60386309D01*
X144350000Y-60310119D01*
X144388095Y-60272023D01*
X144464285Y-60233928D01*
X144540476Y-60233928D01*
X144654761Y-60272023D01*
X145111904Y-60729166D01*
X145111904Y-60233928D01*
D10*
X139632380Y-63338690D02*
X139632380Y-63814880D01*
X138632380Y-63814880D01*
X139108571Y-63005357D02*
X139108571Y-62672023D01*
X139632380Y-62529166D02*
X139632380Y-63005357D01*
X138632380Y-63005357D01*
X138632380Y-62529166D01*
X139632380Y-62100595D02*
X138632380Y-62100595D01*
X138632380Y-61862500D01*
X138680000Y-61719642D01*
X138775238Y-61624404D01*
X138870476Y-61576785D01*
X139060952Y-61529166D01*
X139203809Y-61529166D01*
X139394285Y-61576785D01*
X139489523Y-61624404D01*
X139584761Y-61719642D01*
X139632380Y-61862500D01*
X139632380Y-62100595D01*
X139727619Y-61338690D02*
X139727619Y-60576785D01*
X139632380Y-59767261D02*
X139156190Y-60100595D01*
X139632380Y-60338690D02*
X138632380Y-60338690D01*
X138632380Y-59957738D01*
X138680000Y-59862500D01*
X138727619Y-59814880D01*
X138822857Y-59767261D01*
X138965714Y-59767261D01*
X139060952Y-59814880D01*
X139108571Y-59862500D01*
X139156190Y-59957738D01*
X139156190Y-60338690D01*
X139108571Y-59338690D02*
X139108571Y-59005357D01*
X139632380Y-58862500D02*
X139632380Y-59338690D01*
X138632380Y-59338690D01*
X138632380Y-58862500D01*
X139632380Y-58433928D02*
X138632380Y-58433928D01*
X138632380Y-58195833D01*
X138680000Y-58052976D01*
X138775238Y-57957738D01*
X138870476Y-57910119D01*
X139060952Y-57862500D01*
X139203809Y-57862500D01*
X139394285Y-57910119D01*
X139489523Y-57957738D01*
X139584761Y-58052976D01*
X139632380Y-58195833D01*
X139632380Y-58433928D01*
D12*
X141361904Y-61452976D02*
X140561904Y-61452976D01*
X140561904Y-61262500D01*
X140600000Y-61148214D01*
X140676190Y-61072023D01*
X140752380Y-61033928D01*
X140904761Y-60995833D01*
X141019047Y-60995833D01*
X141171428Y-61033928D01*
X141247619Y-61072023D01*
X141323809Y-61148214D01*
X141361904Y-61262500D01*
X141361904Y-61452976D01*
X140561904Y-60729166D02*
X140561904Y-60233928D01*
X140866666Y-60500595D01*
X140866666Y-60386309D01*
X140904761Y-60310119D01*
X140942857Y-60272023D01*
X141019047Y-60233928D01*
X141209523Y-60233928D01*
X141285714Y-60272023D01*
X141323809Y-60310119D01*
X141361904Y-60386309D01*
X141361904Y-60614880D01*
X141323809Y-60691071D01*
X141285714Y-60729166D01*
D10*
X135882380Y-63338690D02*
X135882380Y-63814880D01*
X134882380Y-63814880D01*
X135358571Y-63005357D02*
X135358571Y-62672023D01*
X135882380Y-62529166D02*
X135882380Y-63005357D01*
X134882380Y-63005357D01*
X134882380Y-62529166D01*
X135882380Y-62100595D02*
X134882380Y-62100595D01*
X134882380Y-61862500D01*
X134930000Y-61719642D01*
X135025238Y-61624404D01*
X135120476Y-61576785D01*
X135310952Y-61529166D01*
X135453809Y-61529166D01*
X135644285Y-61576785D01*
X135739523Y-61624404D01*
X135834761Y-61719642D01*
X135882380Y-61862500D01*
X135882380Y-62100595D01*
X135977619Y-61338690D02*
X135977619Y-60576785D01*
X135882380Y-59767261D02*
X135406190Y-60100595D01*
X135882380Y-60338690D02*
X134882380Y-60338690D01*
X134882380Y-59957738D01*
X134930000Y-59862500D01*
X134977619Y-59814880D01*
X135072857Y-59767261D01*
X135215714Y-59767261D01*
X135310952Y-59814880D01*
X135358571Y-59862500D01*
X135406190Y-59957738D01*
X135406190Y-60338690D01*
X135358571Y-59338690D02*
X135358571Y-59005357D01*
X135882380Y-58862500D02*
X135882380Y-59338690D01*
X134882380Y-59338690D01*
X134882380Y-58862500D01*
X135882380Y-58433928D02*
X134882380Y-58433928D01*
X134882380Y-58195833D01*
X134930000Y-58052976D01*
X135025238Y-57957738D01*
X135120476Y-57910119D01*
X135310952Y-57862500D01*
X135453809Y-57862500D01*
X135644285Y-57910119D01*
X135739523Y-57957738D01*
X135834761Y-58052976D01*
X135882380Y-58195833D01*
X135882380Y-58433928D01*
D12*
X137611904Y-61452976D02*
X136811904Y-61452976D01*
X136811904Y-61262500D01*
X136850000Y-61148214D01*
X136926190Y-61072023D01*
X137002380Y-61033928D01*
X137154761Y-60995833D01*
X137269047Y-60995833D01*
X137421428Y-61033928D01*
X137497619Y-61072023D01*
X137573809Y-61148214D01*
X137611904Y-61262500D01*
X137611904Y-61452976D01*
X137078571Y-60310119D02*
X137611904Y-60310119D01*
X136773809Y-60500595D02*
X137345238Y-60691071D01*
X137345238Y-60195833D01*
D10*
X132132380Y-63338690D02*
X132132380Y-63814880D01*
X131132380Y-63814880D01*
X131608571Y-63005357D02*
X131608571Y-62672023D01*
X132132380Y-62529166D02*
X132132380Y-63005357D01*
X131132380Y-63005357D01*
X131132380Y-62529166D01*
X132132380Y-62100595D02*
X131132380Y-62100595D01*
X131132380Y-61862500D01*
X131180000Y-61719642D01*
X131275238Y-61624404D01*
X131370476Y-61576785D01*
X131560952Y-61529166D01*
X131703809Y-61529166D01*
X131894285Y-61576785D01*
X131989523Y-61624404D01*
X132084761Y-61719642D01*
X132132380Y-61862500D01*
X132132380Y-62100595D01*
X132227619Y-61338690D02*
X132227619Y-60576785D01*
X132132380Y-59767261D02*
X131656190Y-60100595D01*
X132132380Y-60338690D02*
X131132380Y-60338690D01*
X131132380Y-59957738D01*
X131180000Y-59862500D01*
X131227619Y-59814880D01*
X131322857Y-59767261D01*
X131465714Y-59767261D01*
X131560952Y-59814880D01*
X131608571Y-59862500D01*
X131656190Y-59957738D01*
X131656190Y-60338690D01*
X131608571Y-59338690D02*
X131608571Y-59005357D01*
X132132380Y-58862500D02*
X132132380Y-59338690D01*
X131132380Y-59338690D01*
X131132380Y-58862500D01*
X132132380Y-58433928D02*
X131132380Y-58433928D01*
X131132380Y-58195833D01*
X131180000Y-58052976D01*
X131275238Y-57957738D01*
X131370476Y-57910119D01*
X131560952Y-57862500D01*
X131703809Y-57862500D01*
X131894285Y-57910119D01*
X131989523Y-57957738D01*
X132084761Y-58052976D01*
X132132380Y-58195833D01*
X132132380Y-58433928D01*
D12*
X133861904Y-61452976D02*
X133061904Y-61452976D01*
X133061904Y-61262500D01*
X133100000Y-61148214D01*
X133176190Y-61072023D01*
X133252380Y-61033928D01*
X133404761Y-60995833D01*
X133519047Y-60995833D01*
X133671428Y-61033928D01*
X133747619Y-61072023D01*
X133823809Y-61148214D01*
X133861904Y-61262500D01*
X133861904Y-61452976D01*
X133061904Y-60272023D02*
X133061904Y-60652976D01*
X133442857Y-60691071D01*
X133404761Y-60652976D01*
X133366666Y-60576785D01*
X133366666Y-60386309D01*
X133404761Y-60310119D01*
X133442857Y-60272023D01*
X133519047Y-60233928D01*
X133709523Y-60233928D01*
X133785714Y-60272023D01*
X133823809Y-60310119D01*
X133861904Y-60386309D01*
X133861904Y-60576785D01*
X133823809Y-60652976D01*
X133785714Y-60691071D01*
D10*
X128382380Y-63338690D02*
X128382380Y-63814880D01*
X127382380Y-63814880D01*
X127858571Y-63005357D02*
X127858571Y-62672023D01*
X128382380Y-62529166D02*
X128382380Y-63005357D01*
X127382380Y-63005357D01*
X127382380Y-62529166D01*
X128382380Y-62100595D02*
X127382380Y-62100595D01*
X127382380Y-61862500D01*
X127430000Y-61719642D01*
X127525238Y-61624404D01*
X127620476Y-61576785D01*
X127810952Y-61529166D01*
X127953809Y-61529166D01*
X128144285Y-61576785D01*
X128239523Y-61624404D01*
X128334761Y-61719642D01*
X128382380Y-61862500D01*
X128382380Y-62100595D01*
X128477619Y-61338690D02*
X128477619Y-60576785D01*
X128382380Y-59767261D02*
X127906190Y-60100595D01*
X128382380Y-60338690D02*
X127382380Y-60338690D01*
X127382380Y-59957738D01*
X127430000Y-59862500D01*
X127477619Y-59814880D01*
X127572857Y-59767261D01*
X127715714Y-59767261D01*
X127810952Y-59814880D01*
X127858571Y-59862500D01*
X127906190Y-59957738D01*
X127906190Y-60338690D01*
X127858571Y-59338690D02*
X127858571Y-59005357D01*
X128382380Y-58862500D02*
X128382380Y-59338690D01*
X127382380Y-59338690D01*
X127382380Y-58862500D01*
X128382380Y-58433928D02*
X127382380Y-58433928D01*
X127382380Y-58195833D01*
X127430000Y-58052976D01*
X127525238Y-57957738D01*
X127620476Y-57910119D01*
X127810952Y-57862500D01*
X127953809Y-57862500D01*
X128144285Y-57910119D01*
X128239523Y-57957738D01*
X128334761Y-58052976D01*
X128382380Y-58195833D01*
X128382380Y-58433928D01*
D12*
X130111904Y-61452976D02*
X129311904Y-61452976D01*
X129311904Y-61262500D01*
X129350000Y-61148214D01*
X129426190Y-61072023D01*
X129502380Y-61033928D01*
X129654761Y-60995833D01*
X129769047Y-60995833D01*
X129921428Y-61033928D01*
X129997619Y-61072023D01*
X130073809Y-61148214D01*
X130111904Y-61262500D01*
X130111904Y-61452976D01*
X129311904Y-60310119D02*
X129311904Y-60462500D01*
X129350000Y-60538690D01*
X129388095Y-60576785D01*
X129502380Y-60652976D01*
X129654761Y-60691071D01*
X129959523Y-60691071D01*
X130035714Y-60652976D01*
X130073809Y-60614880D01*
X130111904Y-60538690D01*
X130111904Y-60386309D01*
X130073809Y-60310119D01*
X130035714Y-60272023D01*
X129959523Y-60233928D01*
X129769047Y-60233928D01*
X129692857Y-60272023D01*
X129654761Y-60310119D01*
X129616666Y-60386309D01*
X129616666Y-60538690D01*
X129654761Y-60614880D01*
X129692857Y-60652976D01*
X129769047Y-60691071D01*
D10*
X124632380Y-63338690D02*
X124632380Y-63814880D01*
X123632380Y-63814880D01*
X124108571Y-63005357D02*
X124108571Y-62672023D01*
X124632380Y-62529166D02*
X124632380Y-63005357D01*
X123632380Y-63005357D01*
X123632380Y-62529166D01*
X124632380Y-62100595D02*
X123632380Y-62100595D01*
X123632380Y-61862500D01*
X123680000Y-61719642D01*
X123775238Y-61624404D01*
X123870476Y-61576785D01*
X124060952Y-61529166D01*
X124203809Y-61529166D01*
X124394285Y-61576785D01*
X124489523Y-61624404D01*
X124584761Y-61719642D01*
X124632380Y-61862500D01*
X124632380Y-62100595D01*
X124727619Y-61338690D02*
X124727619Y-60576785D01*
X124632380Y-59767261D02*
X124156190Y-60100595D01*
X124632380Y-60338690D02*
X123632380Y-60338690D01*
X123632380Y-59957738D01*
X123680000Y-59862500D01*
X123727619Y-59814880D01*
X123822857Y-59767261D01*
X123965714Y-59767261D01*
X124060952Y-59814880D01*
X124108571Y-59862500D01*
X124156190Y-59957738D01*
X124156190Y-60338690D01*
X124108571Y-59338690D02*
X124108571Y-59005357D01*
X124632380Y-58862500D02*
X124632380Y-59338690D01*
X123632380Y-59338690D01*
X123632380Y-58862500D01*
X124632380Y-58433928D02*
X123632380Y-58433928D01*
X123632380Y-58195833D01*
X123680000Y-58052976D01*
X123775238Y-57957738D01*
X123870476Y-57910119D01*
X124060952Y-57862500D01*
X124203809Y-57862500D01*
X124394285Y-57910119D01*
X124489523Y-57957738D01*
X124584761Y-58052976D01*
X124632380Y-58195833D01*
X124632380Y-58433928D01*
D12*
X126361904Y-61452976D02*
X125561904Y-61452976D01*
X125561904Y-61262500D01*
X125600000Y-61148214D01*
X125676190Y-61072023D01*
X125752380Y-61033928D01*
X125904761Y-60995833D01*
X126019047Y-60995833D01*
X126171428Y-61033928D01*
X126247619Y-61072023D01*
X126323809Y-61148214D01*
X126361904Y-61262500D01*
X126361904Y-61452976D01*
X125561904Y-60729166D02*
X125561904Y-60195833D01*
X126361904Y-60538690D01*
D10*
X118632380Y-63326190D02*
X118632380Y-63802380D01*
X117632380Y-63802380D01*
X118108571Y-62992857D02*
X118108571Y-62659523D01*
X118632380Y-62516666D02*
X118632380Y-62992857D01*
X117632380Y-62992857D01*
X117632380Y-62516666D01*
X118632380Y-62088095D02*
X117632380Y-62088095D01*
X117632380Y-61850000D01*
X117680000Y-61707142D01*
X117775238Y-61611904D01*
X117870476Y-61564285D01*
X118060952Y-61516666D01*
X118203809Y-61516666D01*
X118394285Y-61564285D01*
X118489523Y-61611904D01*
X118584761Y-61707142D01*
X118632380Y-61850000D01*
X118632380Y-62088095D01*
X118727619Y-61326190D02*
X118727619Y-60564285D01*
X118632380Y-59754761D02*
X118156190Y-60088095D01*
X118632380Y-60326190D02*
X117632380Y-60326190D01*
X117632380Y-59945238D01*
X117680000Y-59850000D01*
X117727619Y-59802380D01*
X117822857Y-59754761D01*
X117965714Y-59754761D01*
X118060952Y-59802380D01*
X118108571Y-59850000D01*
X118156190Y-59945238D01*
X118156190Y-60326190D01*
X118108571Y-59326190D02*
X118108571Y-58992857D01*
X118632380Y-58850000D02*
X118632380Y-59326190D01*
X117632380Y-59326190D01*
X117632380Y-58850000D01*
X118632380Y-58421428D02*
X117632380Y-58421428D01*
X117632380Y-58183333D01*
X117680000Y-58040476D01*
X117775238Y-57945238D01*
X117870476Y-57897619D01*
X118060952Y-57850000D01*
X118203809Y-57850000D01*
X118394285Y-57897619D01*
X118489523Y-57945238D01*
X118584761Y-58040476D01*
X118632380Y-58183333D01*
X118632380Y-58421428D01*
D12*
X120361904Y-61440476D02*
X119561904Y-61440476D01*
X119561904Y-61250000D01*
X119600000Y-61135714D01*
X119676190Y-61059523D01*
X119752380Y-61021428D01*
X119904761Y-60983333D01*
X120019047Y-60983333D01*
X120171428Y-61021428D01*
X120247619Y-61059523D01*
X120323809Y-61135714D01*
X120361904Y-61250000D01*
X120361904Y-61440476D01*
X119904761Y-60526190D02*
X119866666Y-60602380D01*
X119828571Y-60640476D01*
X119752380Y-60678571D01*
X119714285Y-60678571D01*
X119638095Y-60640476D01*
X119600000Y-60602380D01*
X119561904Y-60526190D01*
X119561904Y-60373809D01*
X119600000Y-60297619D01*
X119638095Y-60259523D01*
X119714285Y-60221428D01*
X119752380Y-60221428D01*
X119828571Y-60259523D01*
X119866666Y-60297619D01*
X119904761Y-60373809D01*
X119904761Y-60526190D01*
X119942857Y-60602380D01*
X119980952Y-60640476D01*
X120057142Y-60678571D01*
X120209523Y-60678571D01*
X120285714Y-60640476D01*
X120323809Y-60602380D01*
X120361904Y-60526190D01*
X120361904Y-60373809D01*
X120323809Y-60297619D01*
X120285714Y-60259523D01*
X120209523Y-60221428D01*
X120057142Y-60221428D01*
X119980952Y-60259523D01*
X119942857Y-60297619D01*
X119904761Y-60373809D01*
D10*
X114882380Y-63326190D02*
X114882380Y-63802380D01*
X113882380Y-63802380D01*
X114358571Y-62992857D02*
X114358571Y-62659523D01*
X114882380Y-62516666D02*
X114882380Y-62992857D01*
X113882380Y-62992857D01*
X113882380Y-62516666D01*
X114882380Y-62088095D02*
X113882380Y-62088095D01*
X113882380Y-61850000D01*
X113930000Y-61707142D01*
X114025238Y-61611904D01*
X114120476Y-61564285D01*
X114310952Y-61516666D01*
X114453809Y-61516666D01*
X114644285Y-61564285D01*
X114739523Y-61611904D01*
X114834761Y-61707142D01*
X114882380Y-61850000D01*
X114882380Y-62088095D01*
X114977619Y-61326190D02*
X114977619Y-60564285D01*
X114882380Y-59754761D02*
X114406190Y-60088095D01*
X114882380Y-60326190D02*
X113882380Y-60326190D01*
X113882380Y-59945238D01*
X113930000Y-59850000D01*
X113977619Y-59802380D01*
X114072857Y-59754761D01*
X114215714Y-59754761D01*
X114310952Y-59802380D01*
X114358571Y-59850000D01*
X114406190Y-59945238D01*
X114406190Y-60326190D01*
X114358571Y-59326190D02*
X114358571Y-58992857D01*
X114882380Y-58850000D02*
X114882380Y-59326190D01*
X113882380Y-59326190D01*
X113882380Y-58850000D01*
X114882380Y-58421428D02*
X113882380Y-58421428D01*
X113882380Y-58183333D01*
X113930000Y-58040476D01*
X114025238Y-57945238D01*
X114120476Y-57897619D01*
X114310952Y-57850000D01*
X114453809Y-57850000D01*
X114644285Y-57897619D01*
X114739523Y-57945238D01*
X114834761Y-58040476D01*
X114882380Y-58183333D01*
X114882380Y-58421428D01*
D12*
X116611904Y-61440476D02*
X115811904Y-61440476D01*
X115811904Y-61250000D01*
X115850000Y-61135714D01*
X115926190Y-61059523D01*
X116002380Y-61021428D01*
X116154761Y-60983333D01*
X116269047Y-60983333D01*
X116421428Y-61021428D01*
X116497619Y-61059523D01*
X116573809Y-61135714D01*
X116611904Y-61250000D01*
X116611904Y-61440476D01*
X116611904Y-60602380D02*
X116611904Y-60450000D01*
X116573809Y-60373809D01*
X116535714Y-60335714D01*
X116421428Y-60259523D01*
X116269047Y-60221428D01*
X115964285Y-60221428D01*
X115888095Y-60259523D01*
X115850000Y-60297619D01*
X115811904Y-60373809D01*
X115811904Y-60526190D01*
X115850000Y-60602380D01*
X115888095Y-60640476D01*
X115964285Y-60678571D01*
X116154761Y-60678571D01*
X116230952Y-60640476D01*
X116269047Y-60602380D01*
X116307142Y-60526190D01*
X116307142Y-60373809D01*
X116269047Y-60297619D01*
X116230952Y-60259523D01*
X116154761Y-60221428D01*
D10*
X111132380Y-63326190D02*
X111132380Y-63802380D01*
X110132380Y-63802380D01*
X110608571Y-62992857D02*
X110608571Y-62659523D01*
X111132380Y-62516666D02*
X111132380Y-62992857D01*
X110132380Y-62992857D01*
X110132380Y-62516666D01*
X111132380Y-62088095D02*
X110132380Y-62088095D01*
X110132380Y-61850000D01*
X110180000Y-61707142D01*
X110275238Y-61611904D01*
X110370476Y-61564285D01*
X110560952Y-61516666D01*
X110703809Y-61516666D01*
X110894285Y-61564285D01*
X110989523Y-61611904D01*
X111084761Y-61707142D01*
X111132380Y-61850000D01*
X111132380Y-62088095D01*
X111227619Y-61326190D02*
X111227619Y-60564285D01*
X111132380Y-59754761D02*
X110656190Y-60088095D01*
X111132380Y-60326190D02*
X110132380Y-60326190D01*
X110132380Y-59945238D01*
X110180000Y-59850000D01*
X110227619Y-59802380D01*
X110322857Y-59754761D01*
X110465714Y-59754761D01*
X110560952Y-59802380D01*
X110608571Y-59850000D01*
X110656190Y-59945238D01*
X110656190Y-60326190D01*
X110608571Y-59326190D02*
X110608571Y-58992857D01*
X111132380Y-58850000D02*
X111132380Y-59326190D01*
X110132380Y-59326190D01*
X110132380Y-58850000D01*
X111132380Y-58421428D02*
X110132380Y-58421428D01*
X110132380Y-58183333D01*
X110180000Y-58040476D01*
X110275238Y-57945238D01*
X110370476Y-57897619D01*
X110560952Y-57850000D01*
X110703809Y-57850000D01*
X110894285Y-57897619D01*
X110989523Y-57945238D01*
X111084761Y-58040476D01*
X111132380Y-58183333D01*
X111132380Y-58421428D01*
D12*
X112861904Y-61821428D02*
X112061904Y-61821428D01*
X112061904Y-61630952D01*
X112100000Y-61516666D01*
X112176190Y-61440476D01*
X112252380Y-61402380D01*
X112404761Y-61364285D01*
X112519047Y-61364285D01*
X112671428Y-61402380D01*
X112747619Y-61440476D01*
X112823809Y-61516666D01*
X112861904Y-61630952D01*
X112861904Y-61821428D01*
X112861904Y-60602380D02*
X112861904Y-61059523D01*
X112861904Y-60830952D02*
X112061904Y-60830952D01*
X112176190Y-60907142D01*
X112252380Y-60983333D01*
X112290476Y-61059523D01*
X112061904Y-60107142D02*
X112061904Y-60030952D01*
X112100000Y-59954761D01*
X112138095Y-59916666D01*
X112214285Y-59878571D01*
X112366666Y-59840476D01*
X112557142Y-59840476D01*
X112709523Y-59878571D01*
X112785714Y-59916666D01*
X112823809Y-59954761D01*
X112861904Y-60030952D01*
X112861904Y-60107142D01*
X112823809Y-60183333D01*
X112785714Y-60221428D01*
X112709523Y-60259523D01*
X112557142Y-60297619D01*
X112366666Y-60297619D01*
X112214285Y-60259523D01*
X112138095Y-60221428D01*
X112100000Y-60183333D01*
X112061904Y-60107142D01*
D10*
X107382380Y-63326190D02*
X107382380Y-63802380D01*
X106382380Y-63802380D01*
X106858571Y-62992857D02*
X106858571Y-62659523D01*
X107382380Y-62516666D02*
X107382380Y-62992857D01*
X106382380Y-62992857D01*
X106382380Y-62516666D01*
X107382380Y-62088095D02*
X106382380Y-62088095D01*
X106382380Y-61850000D01*
X106430000Y-61707142D01*
X106525238Y-61611904D01*
X106620476Y-61564285D01*
X106810952Y-61516666D01*
X106953809Y-61516666D01*
X107144285Y-61564285D01*
X107239523Y-61611904D01*
X107334761Y-61707142D01*
X107382380Y-61850000D01*
X107382380Y-62088095D01*
X107477619Y-61326190D02*
X107477619Y-60564285D01*
X107382380Y-59754761D02*
X106906190Y-60088095D01*
X107382380Y-60326190D02*
X106382380Y-60326190D01*
X106382380Y-59945238D01*
X106430000Y-59850000D01*
X106477619Y-59802380D01*
X106572857Y-59754761D01*
X106715714Y-59754761D01*
X106810952Y-59802380D01*
X106858571Y-59850000D01*
X106906190Y-59945238D01*
X106906190Y-60326190D01*
X106858571Y-59326190D02*
X106858571Y-58992857D01*
X107382380Y-58850000D02*
X107382380Y-59326190D01*
X106382380Y-59326190D01*
X106382380Y-58850000D01*
X107382380Y-58421428D02*
X106382380Y-58421428D01*
X106382380Y-58183333D01*
X106430000Y-58040476D01*
X106525238Y-57945238D01*
X106620476Y-57897619D01*
X106810952Y-57850000D01*
X106953809Y-57850000D01*
X107144285Y-57897619D01*
X107239523Y-57945238D01*
X107334761Y-58040476D01*
X107382380Y-58183333D01*
X107382380Y-58421428D01*
D12*
X109111904Y-61821428D02*
X108311904Y-61821428D01*
X108311904Y-61630952D01*
X108350000Y-61516666D01*
X108426190Y-61440476D01*
X108502380Y-61402380D01*
X108654761Y-61364285D01*
X108769047Y-61364285D01*
X108921428Y-61402380D01*
X108997619Y-61440476D01*
X109073809Y-61516666D01*
X109111904Y-61630952D01*
X109111904Y-61821428D01*
X109111904Y-60602380D02*
X109111904Y-61059523D01*
X109111904Y-60830952D02*
X108311904Y-60830952D01*
X108426190Y-60907142D01*
X108502380Y-60983333D01*
X108540476Y-61059523D01*
X109111904Y-59840476D02*
X109111904Y-60297619D01*
X109111904Y-60069047D02*
X108311904Y-60069047D01*
X108426190Y-60145238D01*
X108502380Y-60221428D01*
X108540476Y-60297619D01*
D10*
X103632380Y-63326190D02*
X103632380Y-63802380D01*
X102632380Y-63802380D01*
X103108571Y-62992857D02*
X103108571Y-62659523D01*
X103632380Y-62516666D02*
X103632380Y-62992857D01*
X102632380Y-62992857D01*
X102632380Y-62516666D01*
X103632380Y-62088095D02*
X102632380Y-62088095D01*
X102632380Y-61850000D01*
X102680000Y-61707142D01*
X102775238Y-61611904D01*
X102870476Y-61564285D01*
X103060952Y-61516666D01*
X103203809Y-61516666D01*
X103394285Y-61564285D01*
X103489523Y-61611904D01*
X103584761Y-61707142D01*
X103632380Y-61850000D01*
X103632380Y-62088095D01*
X103727619Y-61326190D02*
X103727619Y-60564285D01*
X103632380Y-59754761D02*
X103156190Y-60088095D01*
X103632380Y-60326190D02*
X102632380Y-60326190D01*
X102632380Y-59945238D01*
X102680000Y-59850000D01*
X102727619Y-59802380D01*
X102822857Y-59754761D01*
X102965714Y-59754761D01*
X103060952Y-59802380D01*
X103108571Y-59850000D01*
X103156190Y-59945238D01*
X103156190Y-60326190D01*
X103108571Y-59326190D02*
X103108571Y-58992857D01*
X103632380Y-58850000D02*
X103632380Y-59326190D01*
X102632380Y-59326190D01*
X102632380Y-58850000D01*
X103632380Y-58421428D02*
X102632380Y-58421428D01*
X102632380Y-58183333D01*
X102680000Y-58040476D01*
X102775238Y-57945238D01*
X102870476Y-57897619D01*
X103060952Y-57850000D01*
X103203809Y-57850000D01*
X103394285Y-57897619D01*
X103489523Y-57945238D01*
X103584761Y-58040476D01*
X103632380Y-58183333D01*
X103632380Y-58421428D01*
D12*
X105361904Y-61821428D02*
X104561904Y-61821428D01*
X104561904Y-61630952D01*
X104600000Y-61516666D01*
X104676190Y-61440476D01*
X104752380Y-61402380D01*
X104904761Y-61364285D01*
X105019047Y-61364285D01*
X105171428Y-61402380D01*
X105247619Y-61440476D01*
X105323809Y-61516666D01*
X105361904Y-61630952D01*
X105361904Y-61821428D01*
X105361904Y-60602380D02*
X105361904Y-61059523D01*
X105361904Y-60830952D02*
X104561904Y-60830952D01*
X104676190Y-60907142D01*
X104752380Y-60983333D01*
X104790476Y-61059523D01*
X104638095Y-60297619D02*
X104600000Y-60259523D01*
X104561904Y-60183333D01*
X104561904Y-59992857D01*
X104600000Y-59916666D01*
X104638095Y-59878571D01*
X104714285Y-59840476D01*
X104790476Y-59840476D01*
X104904761Y-59878571D01*
X105361904Y-60335714D01*
X105361904Y-59840476D01*
D10*
X96282380Y-63326190D02*
X96282380Y-63802380D01*
X95282380Y-63802380D01*
X95758571Y-62992857D02*
X95758571Y-62659523D01*
X96282380Y-62516666D02*
X96282380Y-62992857D01*
X95282380Y-62992857D01*
X95282380Y-62516666D01*
X96282380Y-62088095D02*
X95282380Y-62088095D01*
X95282380Y-61850000D01*
X95330000Y-61707142D01*
X95425238Y-61611904D01*
X95520476Y-61564285D01*
X95710952Y-61516666D01*
X95853809Y-61516666D01*
X96044285Y-61564285D01*
X96139523Y-61611904D01*
X96234761Y-61707142D01*
X96282380Y-61850000D01*
X96282380Y-62088095D01*
X96377619Y-61326190D02*
X96377619Y-60564285D01*
X96282380Y-59754761D02*
X95806190Y-60088095D01*
X96282380Y-60326190D02*
X95282380Y-60326190D01*
X95282380Y-59945238D01*
X95330000Y-59850000D01*
X95377619Y-59802380D01*
X95472857Y-59754761D01*
X95615714Y-59754761D01*
X95710952Y-59802380D01*
X95758571Y-59850000D01*
X95806190Y-59945238D01*
X95806190Y-60326190D01*
X95758571Y-59326190D02*
X95758571Y-58992857D01*
X96282380Y-58850000D02*
X96282380Y-59326190D01*
X95282380Y-59326190D01*
X95282380Y-58850000D01*
X96282380Y-58421428D02*
X95282380Y-58421428D01*
X95282380Y-58183333D01*
X95330000Y-58040476D01*
X95425238Y-57945238D01*
X95520476Y-57897619D01*
X95710952Y-57850000D01*
X95853809Y-57850000D01*
X96044285Y-57897619D01*
X96139523Y-57945238D01*
X96234761Y-58040476D01*
X96282380Y-58183333D01*
X96282380Y-58421428D01*
D12*
X98011904Y-61821428D02*
X97211904Y-61821428D01*
X97211904Y-61630952D01*
X97250000Y-61516666D01*
X97326190Y-61440476D01*
X97402380Y-61402380D01*
X97554761Y-61364285D01*
X97669047Y-61364285D01*
X97821428Y-61402380D01*
X97897619Y-61440476D01*
X97973809Y-61516666D01*
X98011904Y-61630952D01*
X98011904Y-61821428D01*
X98011904Y-60602380D02*
X98011904Y-61059523D01*
X98011904Y-60830952D02*
X97211904Y-60830952D01*
X97326190Y-60907142D01*
X97402380Y-60983333D01*
X97440476Y-61059523D01*
X97478571Y-59916666D02*
X98011904Y-59916666D01*
X97173809Y-60107142D02*
X97745238Y-60297619D01*
X97745238Y-59802380D01*
D10*
X92532380Y-63326190D02*
X92532380Y-63802380D01*
X91532380Y-63802380D01*
X92008571Y-62992857D02*
X92008571Y-62659523D01*
X92532380Y-62516666D02*
X92532380Y-62992857D01*
X91532380Y-62992857D01*
X91532380Y-62516666D01*
X92532380Y-62088095D02*
X91532380Y-62088095D01*
X91532380Y-61850000D01*
X91580000Y-61707142D01*
X91675238Y-61611904D01*
X91770476Y-61564285D01*
X91960952Y-61516666D01*
X92103809Y-61516666D01*
X92294285Y-61564285D01*
X92389523Y-61611904D01*
X92484761Y-61707142D01*
X92532380Y-61850000D01*
X92532380Y-62088095D01*
X92627619Y-61326190D02*
X92627619Y-60564285D01*
X92532380Y-59754761D02*
X92056190Y-60088095D01*
X92532380Y-60326190D02*
X91532380Y-60326190D01*
X91532380Y-59945238D01*
X91580000Y-59850000D01*
X91627619Y-59802380D01*
X91722857Y-59754761D01*
X91865714Y-59754761D01*
X91960952Y-59802380D01*
X92008571Y-59850000D01*
X92056190Y-59945238D01*
X92056190Y-60326190D01*
X92008571Y-59326190D02*
X92008571Y-58992857D01*
X92532380Y-58850000D02*
X92532380Y-59326190D01*
X91532380Y-59326190D01*
X91532380Y-58850000D01*
X92532380Y-58421428D02*
X91532380Y-58421428D01*
X91532380Y-58183333D01*
X91580000Y-58040476D01*
X91675238Y-57945238D01*
X91770476Y-57897619D01*
X91960952Y-57850000D01*
X92103809Y-57850000D01*
X92294285Y-57897619D01*
X92389523Y-57945238D01*
X92484761Y-58040476D01*
X92532380Y-58183333D01*
X92532380Y-58421428D01*
D12*
X94261904Y-61821428D02*
X93461904Y-61821428D01*
X93461904Y-61630952D01*
X93500000Y-61516666D01*
X93576190Y-61440476D01*
X93652380Y-61402380D01*
X93804761Y-61364285D01*
X93919047Y-61364285D01*
X94071428Y-61402380D01*
X94147619Y-61440476D01*
X94223809Y-61516666D01*
X94261904Y-61630952D01*
X94261904Y-61821428D01*
X94261904Y-60602380D02*
X94261904Y-61059523D01*
X94261904Y-60830952D02*
X93461904Y-60830952D01*
X93576190Y-60907142D01*
X93652380Y-60983333D01*
X93690476Y-61059523D01*
X93461904Y-59878571D02*
X93461904Y-60259523D01*
X93842857Y-60297619D01*
X93804761Y-60259523D01*
X93766666Y-60183333D01*
X93766666Y-59992857D01*
X93804761Y-59916666D01*
X93842857Y-59878571D01*
X93919047Y-59840476D01*
X94109523Y-59840476D01*
X94185714Y-59878571D01*
X94223809Y-59916666D01*
X94261904Y-59992857D01*
X94261904Y-60183333D01*
X94223809Y-60259523D01*
X94185714Y-60297619D01*
D10*
X172372380Y-64348690D02*
X172372380Y-64824880D01*
X171372380Y-64824880D01*
X171848571Y-64015357D02*
X171848571Y-63682023D01*
X172372380Y-63539166D02*
X172372380Y-64015357D01*
X171372380Y-64015357D01*
X171372380Y-63539166D01*
X172372380Y-63110595D02*
X171372380Y-63110595D01*
X171372380Y-62872500D01*
X171420000Y-62729642D01*
X171515238Y-62634404D01*
X171610476Y-62586785D01*
X171800952Y-62539166D01*
X171943809Y-62539166D01*
X172134285Y-62586785D01*
X172229523Y-62634404D01*
X172324761Y-62729642D01*
X172372380Y-62872500D01*
X172372380Y-63110595D01*
X172467619Y-62348690D02*
X172467619Y-61586785D01*
X172086666Y-61396309D02*
X172086666Y-60920119D01*
X172372380Y-61491547D02*
X171372380Y-61158214D01*
X172372380Y-60824880D01*
X172372380Y-60491547D02*
X171372380Y-60491547D01*
X172086666Y-60158214D01*
X171372380Y-59824880D01*
X172372380Y-59824880D01*
X171848571Y-59015357D02*
X171896190Y-58872500D01*
X171943809Y-58824880D01*
X172039047Y-58777261D01*
X172181904Y-58777261D01*
X172277142Y-58824880D01*
X172324761Y-58872500D01*
X172372380Y-58967738D01*
X172372380Y-59348690D01*
X171372380Y-59348690D01*
X171372380Y-59015357D01*
X171420000Y-58920119D01*
X171467619Y-58872500D01*
X171562857Y-58824880D01*
X171658095Y-58824880D01*
X171753333Y-58872500D01*
X171800952Y-58920119D01*
X171848571Y-59015357D01*
X171848571Y-59348690D01*
X171848571Y-58348690D02*
X171848571Y-58015357D01*
X172372380Y-57872500D02*
X172372380Y-58348690D01*
X171372380Y-58348690D01*
X171372380Y-57872500D01*
X172372380Y-56872500D02*
X171896190Y-57205833D01*
X172372380Y-57443928D02*
X171372380Y-57443928D01*
X171372380Y-57062976D01*
X171420000Y-56967738D01*
X171467619Y-56920119D01*
X171562857Y-56872500D01*
X171705714Y-56872500D01*
X171800952Y-56920119D01*
X171848571Y-56967738D01*
X171896190Y-57062976D01*
X171896190Y-57443928D01*
D12*
X170461904Y-61843928D02*
X169661904Y-61843928D01*
X169661904Y-61653452D01*
X169700000Y-61539166D01*
X169776190Y-61462976D01*
X169852380Y-61424880D01*
X170004761Y-61386785D01*
X170119047Y-61386785D01*
X170271428Y-61424880D01*
X170347619Y-61462976D01*
X170423809Y-61539166D01*
X170461904Y-61653452D01*
X170461904Y-61843928D01*
X170461904Y-60624880D02*
X170461904Y-61082023D01*
X170461904Y-60853452D02*
X169661904Y-60853452D01*
X169776190Y-60929642D01*
X169852380Y-61005833D01*
X169890476Y-61082023D01*
X169661904Y-59939166D02*
X169661904Y-60091547D01*
X169700000Y-60167738D01*
X169738095Y-60205833D01*
X169852380Y-60282023D01*
X170004761Y-60320119D01*
X170309523Y-60320119D01*
X170385714Y-60282023D01*
X170423809Y-60243928D01*
X170461904Y-60167738D01*
X170461904Y-60015357D01*
X170423809Y-59939166D01*
X170385714Y-59901071D01*
X170309523Y-59862976D01*
X170119047Y-59862976D01*
X170042857Y-59901071D01*
X170004761Y-59939166D01*
X169966666Y-60015357D01*
X169966666Y-60167738D01*
X170004761Y-60243928D01*
X170042857Y-60282023D01*
X170119047Y-60320119D01*
D10*
X168572380Y-64348690D02*
X168572380Y-64824880D01*
X167572380Y-64824880D01*
X168048571Y-64015357D02*
X168048571Y-63682023D01*
X168572380Y-63539166D02*
X168572380Y-64015357D01*
X167572380Y-64015357D01*
X167572380Y-63539166D01*
X168572380Y-63110595D02*
X167572380Y-63110595D01*
X167572380Y-62872500D01*
X167620000Y-62729642D01*
X167715238Y-62634404D01*
X167810476Y-62586785D01*
X168000952Y-62539166D01*
X168143809Y-62539166D01*
X168334285Y-62586785D01*
X168429523Y-62634404D01*
X168524761Y-62729642D01*
X168572380Y-62872500D01*
X168572380Y-63110595D01*
X168667619Y-62348690D02*
X168667619Y-61586785D01*
X168286666Y-61396309D02*
X168286666Y-60920119D01*
X168572380Y-61491547D02*
X167572380Y-61158214D01*
X168572380Y-60824880D01*
X168572380Y-60491547D02*
X167572380Y-60491547D01*
X168286666Y-60158214D01*
X167572380Y-59824880D01*
X168572380Y-59824880D01*
X168048571Y-59015357D02*
X168096190Y-58872500D01*
X168143809Y-58824880D01*
X168239047Y-58777261D01*
X168381904Y-58777261D01*
X168477142Y-58824880D01*
X168524761Y-58872500D01*
X168572380Y-58967738D01*
X168572380Y-59348690D01*
X167572380Y-59348690D01*
X167572380Y-59015357D01*
X167620000Y-58920119D01*
X167667619Y-58872500D01*
X167762857Y-58824880D01*
X167858095Y-58824880D01*
X167953333Y-58872500D01*
X168000952Y-58920119D01*
X168048571Y-59015357D01*
X168048571Y-59348690D01*
X168048571Y-58348690D02*
X168048571Y-58015357D01*
X168572380Y-57872500D02*
X168572380Y-58348690D01*
X167572380Y-58348690D01*
X167572380Y-57872500D01*
X168572380Y-56872500D02*
X168096190Y-57205833D01*
X168572380Y-57443928D02*
X167572380Y-57443928D01*
X167572380Y-57062976D01*
X167620000Y-56967738D01*
X167667619Y-56920119D01*
X167762857Y-56872500D01*
X167905714Y-56872500D01*
X168000952Y-56920119D01*
X168048571Y-56967738D01*
X168096190Y-57062976D01*
X168096190Y-57443928D01*
D12*
X166661904Y-61843928D02*
X165861904Y-61843928D01*
X165861904Y-61653452D01*
X165900000Y-61539166D01*
X165976190Y-61462976D01*
X166052380Y-61424880D01*
X166204761Y-61386785D01*
X166319047Y-61386785D01*
X166471428Y-61424880D01*
X166547619Y-61462976D01*
X166623809Y-61539166D01*
X166661904Y-61653452D01*
X166661904Y-61843928D01*
X166661904Y-60624880D02*
X166661904Y-61082023D01*
X166661904Y-60853452D02*
X165861904Y-60853452D01*
X165976190Y-60929642D01*
X166052380Y-61005833D01*
X166090476Y-61082023D01*
X165861904Y-60358214D02*
X165861904Y-59824880D01*
X166661904Y-60167738D01*
D10*
X164772380Y-64348690D02*
X164772380Y-64824880D01*
X163772380Y-64824880D01*
X164248571Y-64015357D02*
X164248571Y-63682023D01*
X164772380Y-63539166D02*
X164772380Y-64015357D01*
X163772380Y-64015357D01*
X163772380Y-63539166D01*
X164772380Y-63110595D02*
X163772380Y-63110595D01*
X163772380Y-62872500D01*
X163820000Y-62729642D01*
X163915238Y-62634404D01*
X164010476Y-62586785D01*
X164200952Y-62539166D01*
X164343809Y-62539166D01*
X164534285Y-62586785D01*
X164629523Y-62634404D01*
X164724761Y-62729642D01*
X164772380Y-62872500D01*
X164772380Y-63110595D01*
X164867619Y-62348690D02*
X164867619Y-61586785D01*
X164486666Y-61396309D02*
X164486666Y-60920119D01*
X164772380Y-61491547D02*
X163772380Y-61158214D01*
X164772380Y-60824880D01*
X164772380Y-60491547D02*
X163772380Y-60491547D01*
X164486666Y-60158214D01*
X163772380Y-59824880D01*
X164772380Y-59824880D01*
X164248571Y-59015357D02*
X164296190Y-58872500D01*
X164343809Y-58824880D01*
X164439047Y-58777261D01*
X164581904Y-58777261D01*
X164677142Y-58824880D01*
X164724761Y-58872500D01*
X164772380Y-58967738D01*
X164772380Y-59348690D01*
X163772380Y-59348690D01*
X163772380Y-59015357D01*
X163820000Y-58920119D01*
X163867619Y-58872500D01*
X163962857Y-58824880D01*
X164058095Y-58824880D01*
X164153333Y-58872500D01*
X164200952Y-58920119D01*
X164248571Y-59015357D01*
X164248571Y-59348690D01*
X164248571Y-58348690D02*
X164248571Y-58015357D01*
X164772380Y-57872500D02*
X164772380Y-58348690D01*
X163772380Y-58348690D01*
X163772380Y-57872500D01*
X164772380Y-56872500D02*
X164296190Y-57205833D01*
X164772380Y-57443928D02*
X163772380Y-57443928D01*
X163772380Y-57062976D01*
X163820000Y-56967738D01*
X163867619Y-56920119D01*
X163962857Y-56872500D01*
X164105714Y-56872500D01*
X164200952Y-56920119D01*
X164248571Y-56967738D01*
X164296190Y-57062976D01*
X164296190Y-57443928D01*
D12*
X162861904Y-61843928D02*
X162061904Y-61843928D01*
X162061904Y-61653452D01*
X162100000Y-61539166D01*
X162176190Y-61462976D01*
X162252380Y-61424880D01*
X162404761Y-61386785D01*
X162519047Y-61386785D01*
X162671428Y-61424880D01*
X162747619Y-61462976D01*
X162823809Y-61539166D01*
X162861904Y-61653452D01*
X162861904Y-61843928D01*
X162861904Y-60624880D02*
X162861904Y-61082023D01*
X162861904Y-60853452D02*
X162061904Y-60853452D01*
X162176190Y-60929642D01*
X162252380Y-61005833D01*
X162290476Y-61082023D01*
X162404761Y-60167738D02*
X162366666Y-60243928D01*
X162328571Y-60282023D01*
X162252380Y-60320119D01*
X162214285Y-60320119D01*
X162138095Y-60282023D01*
X162100000Y-60243928D01*
X162061904Y-60167738D01*
X162061904Y-60015357D01*
X162100000Y-59939166D01*
X162138095Y-59901071D01*
X162214285Y-59862976D01*
X162252380Y-59862976D01*
X162328571Y-59901071D01*
X162366666Y-59939166D01*
X162404761Y-60015357D01*
X162404761Y-60167738D01*
X162442857Y-60243928D01*
X162480952Y-60282023D01*
X162557142Y-60320119D01*
X162709523Y-60320119D01*
X162785714Y-60282023D01*
X162823809Y-60243928D01*
X162861904Y-60167738D01*
X162861904Y-60015357D01*
X162823809Y-59939166D01*
X162785714Y-59901071D01*
X162709523Y-59862976D01*
X162557142Y-59862976D01*
X162480952Y-59901071D01*
X162442857Y-59939166D01*
X162404761Y-60015357D01*
D10*
X157332380Y-64323690D02*
X157332380Y-64799880D01*
X156332380Y-64799880D01*
X156808571Y-63990357D02*
X156808571Y-63657023D01*
X157332380Y-63514166D02*
X157332380Y-63990357D01*
X156332380Y-63990357D01*
X156332380Y-63514166D01*
X157332380Y-63085595D02*
X156332380Y-63085595D01*
X156332380Y-62847500D01*
X156380000Y-62704642D01*
X156475238Y-62609404D01*
X156570476Y-62561785D01*
X156760952Y-62514166D01*
X156903809Y-62514166D01*
X157094285Y-62561785D01*
X157189523Y-62609404D01*
X157284761Y-62704642D01*
X157332380Y-62847500D01*
X157332380Y-63085595D01*
X157427619Y-62323690D02*
X157427619Y-61561785D01*
X157046666Y-61371309D02*
X157046666Y-60895119D01*
X157332380Y-61466547D02*
X156332380Y-61133214D01*
X157332380Y-60799880D01*
X157332380Y-60466547D02*
X156332380Y-60466547D01*
X157046666Y-60133214D01*
X156332380Y-59799880D01*
X157332380Y-59799880D01*
X156808571Y-58990357D02*
X156856190Y-58847500D01*
X156903809Y-58799880D01*
X156999047Y-58752261D01*
X157141904Y-58752261D01*
X157237142Y-58799880D01*
X157284761Y-58847500D01*
X157332380Y-58942738D01*
X157332380Y-59323690D01*
X156332380Y-59323690D01*
X156332380Y-58990357D01*
X156380000Y-58895119D01*
X156427619Y-58847500D01*
X156522857Y-58799880D01*
X156618095Y-58799880D01*
X156713333Y-58847500D01*
X156760952Y-58895119D01*
X156808571Y-58990357D01*
X156808571Y-59323690D01*
X156808571Y-58323690D02*
X156808571Y-57990357D01*
X157332380Y-57847500D02*
X157332380Y-58323690D01*
X156332380Y-58323690D01*
X156332380Y-57847500D01*
X157332380Y-56847500D02*
X156856190Y-57180833D01*
X157332380Y-57418928D02*
X156332380Y-57418928D01*
X156332380Y-57037976D01*
X156380000Y-56942738D01*
X156427619Y-56895119D01*
X156522857Y-56847500D01*
X156665714Y-56847500D01*
X156760952Y-56895119D01*
X156808571Y-56942738D01*
X156856190Y-57037976D01*
X156856190Y-57418928D01*
D12*
X159061904Y-61818928D02*
X158261904Y-61818928D01*
X158261904Y-61628452D01*
X158300000Y-61514166D01*
X158376190Y-61437976D01*
X158452380Y-61399880D01*
X158604761Y-61361785D01*
X158719047Y-61361785D01*
X158871428Y-61399880D01*
X158947619Y-61437976D01*
X159023809Y-61514166D01*
X159061904Y-61628452D01*
X159061904Y-61818928D01*
X159061904Y-60599880D02*
X159061904Y-61057023D01*
X159061904Y-60828452D02*
X158261904Y-60828452D01*
X158376190Y-60904642D01*
X158452380Y-60980833D01*
X158490476Y-61057023D01*
X159061904Y-60218928D02*
X159061904Y-60066547D01*
X159023809Y-59990357D01*
X158985714Y-59952261D01*
X158871428Y-59876071D01*
X158719047Y-59837976D01*
X158414285Y-59837976D01*
X158338095Y-59876071D01*
X158300000Y-59914166D01*
X158261904Y-59990357D01*
X158261904Y-60142738D01*
X158300000Y-60218928D01*
X158338095Y-60257023D01*
X158414285Y-60295119D01*
X158604761Y-60295119D01*
X158680952Y-60257023D01*
X158719047Y-60218928D01*
X158757142Y-60142738D01*
X158757142Y-59990357D01*
X158719047Y-59914166D01*
X158680952Y-59876071D01*
X158604761Y-59837976D01*
D10*
X165666666Y-127452380D02*
X165666666Y-128166666D01*
X165619047Y-128309523D01*
X165523809Y-128404761D01*
X165380952Y-128452380D01*
X165285714Y-128452380D01*
X166666666Y-128452380D02*
X166095238Y-128452380D01*
X166380952Y-128452380D02*
X166380952Y-127452380D01*
X166285714Y-127595238D01*
X166190476Y-127690476D01*
X166095238Y-127738095D01*
X155685238Y-129272380D02*
X155685238Y-128272380D01*
X156161428Y-128605714D02*
X156161428Y-129272380D01*
X156161428Y-128700952D02*
X156209047Y-128653333D01*
X156304285Y-128605714D01*
X156447142Y-128605714D01*
X156542380Y-128653333D01*
X156590000Y-128748571D01*
X156590000Y-129272380D01*
X156923333Y-128605714D02*
X157304285Y-128605714D01*
X157066190Y-128272380D02*
X157066190Y-129129523D01*
X157113809Y-129224761D01*
X157209047Y-129272380D01*
X157304285Y-129272380D01*
X158018571Y-129224761D02*
X157923333Y-129272380D01*
X157732857Y-129272380D01*
X157637619Y-129224761D01*
X157590000Y-129129523D01*
X157590000Y-128748571D01*
X157637619Y-128653333D01*
X157732857Y-128605714D01*
X157923333Y-128605714D01*
X158018571Y-128653333D01*
X158066190Y-128748571D01*
X158066190Y-128843809D01*
X157590000Y-128939047D01*
X158494761Y-129272380D02*
X158494761Y-128605714D01*
X158494761Y-128796190D02*
X158542380Y-128700952D01*
X158590000Y-128653333D01*
X158685238Y-128605714D01*
X158780476Y-128605714D01*
X159542380Y-129224761D02*
X159447142Y-129272380D01*
X159256666Y-129272380D01*
X159161428Y-129224761D01*
X159113809Y-129177142D01*
X159066190Y-129081904D01*
X159066190Y-128796190D01*
X159113809Y-128700952D01*
X159161428Y-128653333D01*
X159256666Y-128605714D01*
X159447142Y-128605714D01*
X159542380Y-128653333D01*
X160113809Y-129272380D02*
X160018571Y-129224761D01*
X159970952Y-129177142D01*
X159923333Y-129081904D01*
X159923333Y-128796190D01*
X159970952Y-128700952D01*
X160018571Y-128653333D01*
X160113809Y-128605714D01*
X160256666Y-128605714D01*
X160351904Y-128653333D01*
X160399523Y-128700952D01*
X160447142Y-128796190D01*
X160447142Y-129081904D01*
X160399523Y-129177142D01*
X160351904Y-129224761D01*
X160256666Y-129272380D01*
X160113809Y-129272380D01*
X160875714Y-128605714D02*
X160875714Y-129272380D01*
X160875714Y-128700952D02*
X160923333Y-128653333D01*
X161018571Y-128605714D01*
X161161428Y-128605714D01*
X161256666Y-128653333D01*
X161304285Y-128748571D01*
X161304285Y-129272380D01*
X161780476Y-128605714D02*
X161780476Y-129272380D01*
X161780476Y-128700952D02*
X161828095Y-128653333D01*
X161923333Y-128605714D01*
X162066190Y-128605714D01*
X162161428Y-128653333D01*
X162209047Y-128748571D01*
X162209047Y-129272380D01*
X163066190Y-129224761D02*
X162970952Y-129272380D01*
X162780476Y-129272380D01*
X162685238Y-129224761D01*
X162637619Y-129129523D01*
X162637619Y-128748571D01*
X162685238Y-128653333D01*
X162780476Y-128605714D01*
X162970952Y-128605714D01*
X163066190Y-128653333D01*
X163113809Y-128748571D01*
X163113809Y-128843809D01*
X162637619Y-128939047D01*
X163970952Y-129224761D02*
X163875714Y-129272380D01*
X163685238Y-129272380D01*
X163590000Y-129224761D01*
X163542380Y-129177142D01*
X163494761Y-129081904D01*
X163494761Y-128796190D01*
X163542380Y-128700952D01*
X163590000Y-128653333D01*
X163685238Y-128605714D01*
X163875714Y-128605714D01*
X163970952Y-128653333D01*
X164256666Y-128605714D02*
X164637619Y-128605714D01*
X164399523Y-128272380D02*
X164399523Y-129129523D01*
X164447142Y-129224761D01*
X164542380Y-129272380D01*
X164637619Y-129272380D01*
X141466666Y-133292380D02*
X141466666Y-134006666D01*
X141419047Y-134149523D01*
X141323809Y-134244761D01*
X141180952Y-134292380D01*
X141085714Y-134292380D01*
X142466666Y-134292380D02*
X141895238Y-134292380D01*
X142180952Y-134292380D02*
X142180952Y-133292380D01*
X142085714Y-133435238D01*
X141990476Y-133530476D01*
X141895238Y-133578095D01*
X168237619Y-69398095D02*
X168190000Y-69350476D01*
X168142380Y-69255238D01*
X168142380Y-69017142D01*
X168190000Y-68921904D01*
X168237619Y-68874285D01*
X168332857Y-68826666D01*
X168428095Y-68826666D01*
X168570952Y-68874285D01*
X169142380Y-69445714D01*
X169142380Y-68826666D01*
X168237619Y-68445714D02*
X168190000Y-68398095D01*
X168142380Y-68302857D01*
X168142380Y-68064761D01*
X168190000Y-67969523D01*
X168237619Y-67921904D01*
X168332857Y-67874285D01*
X168428095Y-67874285D01*
X168570952Y-67921904D01*
X169142380Y-68493333D01*
X169142380Y-67874285D01*
X168142380Y-67255238D02*
X168142380Y-67160000D01*
X168190000Y-67064761D01*
X168237619Y-67017142D01*
X168332857Y-66969523D01*
X168523333Y-66921904D01*
X168761428Y-66921904D01*
X168951904Y-66969523D01*
X169047142Y-67017142D01*
X169094761Y-67064761D01*
X169142380Y-67160000D01*
X169142380Y-67255238D01*
X169094761Y-67350476D01*
X169047142Y-67398095D01*
X168951904Y-67445714D01*
X168761428Y-67493333D01*
X168523333Y-67493333D01*
X168332857Y-67445714D01*
X168237619Y-67398095D01*
X168190000Y-67350476D01*
X168142380Y-67255238D01*
X169142380Y-65921904D02*
X168666190Y-66255238D01*
X169142380Y-66493333D02*
X168142380Y-66493333D01*
X168142380Y-66112380D01*
X168190000Y-66017142D01*
X168237619Y-65969523D01*
X168332857Y-65921904D01*
X168475714Y-65921904D01*
X168570952Y-65969523D01*
X168618571Y-66017142D01*
X168666190Y-66112380D01*
X168666190Y-66493333D01*
D13*
X170270952Y-67917142D02*
X170080476Y-68050476D01*
X170270952Y-68145714D02*
X169870952Y-68145714D01*
X169870952Y-67993333D01*
X169890000Y-67955238D01*
X169909047Y-67936190D01*
X169947142Y-67917142D01*
X170004285Y-67917142D01*
X170042380Y-67936190D01*
X170061428Y-67955238D01*
X170080476Y-67993333D01*
X170080476Y-68145714D01*
X170270952Y-67536190D02*
X170270952Y-67764761D01*
X170270952Y-67650476D02*
X169870952Y-67650476D01*
X169928095Y-67688571D01*
X169966190Y-67726666D01*
X169985238Y-67764761D01*
X169870952Y-67193333D02*
X169870952Y-67269523D01*
X169890000Y-67307619D01*
X169909047Y-67326666D01*
X169966190Y-67364761D01*
X170042380Y-67383809D01*
X170194761Y-67383809D01*
X170232857Y-67364761D01*
X170251904Y-67345714D01*
X170270952Y-67307619D01*
X170270952Y-67231428D01*
X170251904Y-67193333D01*
X170232857Y-67174285D01*
X170194761Y-67155238D01*
X170099523Y-67155238D01*
X170061428Y-67174285D01*
X170042380Y-67193333D01*
X170023333Y-67231428D01*
X170023333Y-67307619D01*
X170042380Y-67345714D01*
X170061428Y-67364761D01*
X170099523Y-67383809D01*
D10*
X164437619Y-69398095D02*
X164390000Y-69350476D01*
X164342380Y-69255238D01*
X164342380Y-69017142D01*
X164390000Y-68921904D01*
X164437619Y-68874285D01*
X164532857Y-68826666D01*
X164628095Y-68826666D01*
X164770952Y-68874285D01*
X165342380Y-69445714D01*
X165342380Y-68826666D01*
X164437619Y-68445714D02*
X164390000Y-68398095D01*
X164342380Y-68302857D01*
X164342380Y-68064761D01*
X164390000Y-67969523D01*
X164437619Y-67921904D01*
X164532857Y-67874285D01*
X164628095Y-67874285D01*
X164770952Y-67921904D01*
X165342380Y-68493333D01*
X165342380Y-67874285D01*
X164342380Y-67255238D02*
X164342380Y-67160000D01*
X164390000Y-67064761D01*
X164437619Y-67017142D01*
X164532857Y-66969523D01*
X164723333Y-66921904D01*
X164961428Y-66921904D01*
X165151904Y-66969523D01*
X165247142Y-67017142D01*
X165294761Y-67064761D01*
X165342380Y-67160000D01*
X165342380Y-67255238D01*
X165294761Y-67350476D01*
X165247142Y-67398095D01*
X165151904Y-67445714D01*
X164961428Y-67493333D01*
X164723333Y-67493333D01*
X164532857Y-67445714D01*
X164437619Y-67398095D01*
X164390000Y-67350476D01*
X164342380Y-67255238D01*
X165342380Y-65921904D02*
X164866190Y-66255238D01*
X165342380Y-66493333D02*
X164342380Y-66493333D01*
X164342380Y-66112380D01*
X164390000Y-66017142D01*
X164437619Y-65969523D01*
X164532857Y-65921904D01*
X164675714Y-65921904D01*
X164770952Y-65969523D01*
X164818571Y-66017142D01*
X164866190Y-66112380D01*
X164866190Y-66493333D01*
D13*
X166470952Y-67917142D02*
X166280476Y-68050476D01*
X166470952Y-68145714D02*
X166070952Y-68145714D01*
X166070952Y-67993333D01*
X166090000Y-67955238D01*
X166109047Y-67936190D01*
X166147142Y-67917142D01*
X166204285Y-67917142D01*
X166242380Y-67936190D01*
X166261428Y-67955238D01*
X166280476Y-67993333D01*
X166280476Y-68145714D01*
X166470952Y-67536190D02*
X166470952Y-67764761D01*
X166470952Y-67650476D02*
X166070952Y-67650476D01*
X166128095Y-67688571D01*
X166166190Y-67726666D01*
X166185238Y-67764761D01*
X166070952Y-67402857D02*
X166070952Y-67136190D01*
X166470952Y-67307619D01*
D10*
X160637619Y-69398095D02*
X160590000Y-69350476D01*
X160542380Y-69255238D01*
X160542380Y-69017142D01*
X160590000Y-68921904D01*
X160637619Y-68874285D01*
X160732857Y-68826666D01*
X160828095Y-68826666D01*
X160970952Y-68874285D01*
X161542380Y-69445714D01*
X161542380Y-68826666D01*
X160637619Y-68445714D02*
X160590000Y-68398095D01*
X160542380Y-68302857D01*
X160542380Y-68064761D01*
X160590000Y-67969523D01*
X160637619Y-67921904D01*
X160732857Y-67874285D01*
X160828095Y-67874285D01*
X160970952Y-67921904D01*
X161542380Y-68493333D01*
X161542380Y-67874285D01*
X160542380Y-67255238D02*
X160542380Y-67160000D01*
X160590000Y-67064761D01*
X160637619Y-67017142D01*
X160732857Y-66969523D01*
X160923333Y-66921904D01*
X161161428Y-66921904D01*
X161351904Y-66969523D01*
X161447142Y-67017142D01*
X161494761Y-67064761D01*
X161542380Y-67160000D01*
X161542380Y-67255238D01*
X161494761Y-67350476D01*
X161447142Y-67398095D01*
X161351904Y-67445714D01*
X161161428Y-67493333D01*
X160923333Y-67493333D01*
X160732857Y-67445714D01*
X160637619Y-67398095D01*
X160590000Y-67350476D01*
X160542380Y-67255238D01*
X161542380Y-65921904D02*
X161066190Y-66255238D01*
X161542380Y-66493333D02*
X160542380Y-66493333D01*
X160542380Y-66112380D01*
X160590000Y-66017142D01*
X160637619Y-65969523D01*
X160732857Y-65921904D01*
X160875714Y-65921904D01*
X160970952Y-65969523D01*
X161018571Y-66017142D01*
X161066190Y-66112380D01*
X161066190Y-66493333D01*
D13*
X162670952Y-67917142D02*
X162480476Y-68050476D01*
X162670952Y-68145714D02*
X162270952Y-68145714D01*
X162270952Y-67993333D01*
X162290000Y-67955238D01*
X162309047Y-67936190D01*
X162347142Y-67917142D01*
X162404285Y-67917142D01*
X162442380Y-67936190D01*
X162461428Y-67955238D01*
X162480476Y-67993333D01*
X162480476Y-68145714D01*
X162670952Y-67536190D02*
X162670952Y-67764761D01*
X162670952Y-67650476D02*
X162270952Y-67650476D01*
X162328095Y-67688571D01*
X162366190Y-67726666D01*
X162385238Y-67764761D01*
X162442380Y-67307619D02*
X162423333Y-67345714D01*
X162404285Y-67364761D01*
X162366190Y-67383809D01*
X162347142Y-67383809D01*
X162309047Y-67364761D01*
X162290000Y-67345714D01*
X162270952Y-67307619D01*
X162270952Y-67231428D01*
X162290000Y-67193333D01*
X162309047Y-67174285D01*
X162347142Y-67155238D01*
X162366190Y-67155238D01*
X162404285Y-67174285D01*
X162423333Y-67193333D01*
X162442380Y-67231428D01*
X162442380Y-67307619D01*
X162461428Y-67345714D01*
X162480476Y-67364761D01*
X162518571Y-67383809D01*
X162594761Y-67383809D01*
X162632857Y-67364761D01*
X162651904Y-67345714D01*
X162670952Y-67307619D01*
X162670952Y-67231428D01*
X162651904Y-67193333D01*
X162632857Y-67174285D01*
X162594761Y-67155238D01*
X162518571Y-67155238D01*
X162480476Y-67174285D01*
X162461428Y-67193333D01*
X162442380Y-67231428D01*
D10*
X156837619Y-69398095D02*
X156790000Y-69350476D01*
X156742380Y-69255238D01*
X156742380Y-69017142D01*
X156790000Y-68921904D01*
X156837619Y-68874285D01*
X156932857Y-68826666D01*
X157028095Y-68826666D01*
X157170952Y-68874285D01*
X157742380Y-69445714D01*
X157742380Y-68826666D01*
X156837619Y-68445714D02*
X156790000Y-68398095D01*
X156742380Y-68302857D01*
X156742380Y-68064761D01*
X156790000Y-67969523D01*
X156837619Y-67921904D01*
X156932857Y-67874285D01*
X157028095Y-67874285D01*
X157170952Y-67921904D01*
X157742380Y-68493333D01*
X157742380Y-67874285D01*
X156742380Y-67255238D02*
X156742380Y-67160000D01*
X156790000Y-67064761D01*
X156837619Y-67017142D01*
X156932857Y-66969523D01*
X157123333Y-66921904D01*
X157361428Y-66921904D01*
X157551904Y-66969523D01*
X157647142Y-67017142D01*
X157694761Y-67064761D01*
X157742380Y-67160000D01*
X157742380Y-67255238D01*
X157694761Y-67350476D01*
X157647142Y-67398095D01*
X157551904Y-67445714D01*
X157361428Y-67493333D01*
X157123333Y-67493333D01*
X156932857Y-67445714D01*
X156837619Y-67398095D01*
X156790000Y-67350476D01*
X156742380Y-67255238D01*
X157742380Y-65921904D02*
X157266190Y-66255238D01*
X157742380Y-66493333D02*
X156742380Y-66493333D01*
X156742380Y-66112380D01*
X156790000Y-66017142D01*
X156837619Y-65969523D01*
X156932857Y-65921904D01*
X157075714Y-65921904D01*
X157170952Y-65969523D01*
X157218571Y-66017142D01*
X157266190Y-66112380D01*
X157266190Y-66493333D01*
D13*
X158870952Y-67917142D02*
X158680476Y-68050476D01*
X158870952Y-68145714D02*
X158470952Y-68145714D01*
X158470952Y-67993333D01*
X158490000Y-67955238D01*
X158509047Y-67936190D01*
X158547142Y-67917142D01*
X158604285Y-67917142D01*
X158642380Y-67936190D01*
X158661428Y-67955238D01*
X158680476Y-67993333D01*
X158680476Y-68145714D01*
X158870952Y-67536190D02*
X158870952Y-67764761D01*
X158870952Y-67650476D02*
X158470952Y-67650476D01*
X158528095Y-67688571D01*
X158566190Y-67726666D01*
X158585238Y-67764761D01*
X158870952Y-67345714D02*
X158870952Y-67269523D01*
X158851904Y-67231428D01*
X158832857Y-67212380D01*
X158775714Y-67174285D01*
X158699523Y-67155238D01*
X158547142Y-67155238D01*
X158509047Y-67174285D01*
X158490000Y-67193333D01*
X158470952Y-67231428D01*
X158470952Y-67307619D01*
X158490000Y-67345714D01*
X158509047Y-67364761D01*
X158547142Y-67383809D01*
X158642380Y-67383809D01*
X158680476Y-67364761D01*
X158699523Y-67345714D01*
X158718571Y-67307619D01*
X158718571Y-67231428D01*
X158699523Y-67193333D01*
X158680476Y-67174285D01*
X158642380Y-67155238D01*
D10*
X127061904Y-72547619D02*
X127109523Y-72500000D01*
X127204761Y-72452380D01*
X127442857Y-72452380D01*
X127538095Y-72500000D01*
X127585714Y-72547619D01*
X127633333Y-72642857D01*
X127633333Y-72738095D01*
X127585714Y-72880952D01*
X127014285Y-73452380D01*
X127633333Y-73452380D01*
X128014285Y-72547619D02*
X128061904Y-72500000D01*
X128157142Y-72452380D01*
X128395238Y-72452380D01*
X128490476Y-72500000D01*
X128538095Y-72547619D01*
X128585714Y-72642857D01*
X128585714Y-72738095D01*
X128538095Y-72880952D01*
X127966666Y-73452380D01*
X128585714Y-73452380D01*
X129204761Y-72452380D02*
X129300000Y-72452380D01*
X129395238Y-72500000D01*
X129442857Y-72547619D01*
X129490476Y-72642857D01*
X129538095Y-72833333D01*
X129538095Y-73071428D01*
X129490476Y-73261904D01*
X129442857Y-73357142D01*
X129395238Y-73404761D01*
X129300000Y-73452380D01*
X129204761Y-73452380D01*
X129109523Y-73404761D01*
X129061904Y-73357142D01*
X129014285Y-73261904D01*
X128966666Y-73071428D01*
X128966666Y-72833333D01*
X129014285Y-72642857D01*
X129061904Y-72547619D01*
X129109523Y-72500000D01*
X129204761Y-72452380D01*
X130538095Y-73452380D02*
X130204761Y-72976190D01*
X129966666Y-73452380D02*
X129966666Y-72452380D01*
X130347619Y-72452380D01*
X130442857Y-72500000D01*
X130490476Y-72547619D01*
X130538095Y-72642857D01*
X130538095Y-72785714D01*
X130490476Y-72880952D01*
X130442857Y-72928571D01*
X130347619Y-72976190D01*
X129966666Y-72976190D01*
X128347619Y-69309523D02*
X128823809Y-68976190D01*
X128347619Y-68738095D02*
X129347619Y-68738095D01*
X129347619Y-69119047D01*
X129300000Y-69214285D01*
X129252380Y-69261904D01*
X129157142Y-69309523D01*
X129014285Y-69309523D01*
X128919047Y-69261904D01*
X128871428Y-69214285D01*
X128823809Y-69119047D01*
X128823809Y-68738095D01*
X128347619Y-69738095D02*
X129347619Y-69738095D01*
X128347619Y-70309523D01*
X129347619Y-70309523D01*
X129252380Y-70738095D02*
X129300000Y-70785714D01*
X129347619Y-70880952D01*
X129347619Y-71119047D01*
X129300000Y-71214285D01*
X129252380Y-71261904D01*
X129157142Y-71309523D01*
X129061904Y-71309523D01*
X128919047Y-71261904D01*
X128347619Y-70690476D01*
X128347619Y-71309523D01*
X181157142Y-99402380D02*
X181823809Y-99402380D01*
X181395238Y-100402380D01*
X182633333Y-99735714D02*
X182633333Y-100402380D01*
X182395238Y-99354761D02*
X182157142Y-100069047D01*
X182776190Y-100069047D01*
X183157142Y-100402380D02*
X183157142Y-99402380D01*
X183157142Y-99878571D02*
X183728571Y-99878571D01*
X183728571Y-100402380D02*
X183728571Y-99402380D01*
X184776190Y-100307142D02*
X184728571Y-100354761D01*
X184585714Y-100402380D01*
X184490476Y-100402380D01*
X184347619Y-100354761D01*
X184252380Y-100259523D01*
X184204761Y-100164285D01*
X184157142Y-99973809D01*
X184157142Y-99830952D01*
X184204761Y-99640476D01*
X184252380Y-99545238D01*
X184347619Y-99450000D01*
X184490476Y-99402380D01*
X184585714Y-99402380D01*
X184728571Y-99450000D01*
X184776190Y-99497619D01*
X185061904Y-99402380D02*
X185633333Y-99402380D01*
X185347619Y-100402380D02*
X185347619Y-99402380D01*
X186442857Y-99402380D02*
X185966666Y-99402380D01*
X185919047Y-99878571D01*
X185966666Y-99830952D01*
X186061904Y-99783333D01*
X186300000Y-99783333D01*
X186395238Y-99830952D01*
X186442857Y-99878571D01*
X186490476Y-99973809D01*
X186490476Y-100211904D01*
X186442857Y-100307142D01*
X186395238Y-100354761D01*
X186300000Y-100402380D01*
X186061904Y-100402380D01*
X185966666Y-100354761D01*
X185919047Y-100307142D01*
X186823809Y-99402380D02*
X187490476Y-99402380D01*
X187061904Y-100402380D01*
X188300000Y-99735714D02*
X188300000Y-100402380D01*
X188061904Y-99354761D02*
X187823809Y-100069047D01*
X188442857Y-100069047D01*
X184038095Y-92052380D02*
X184038095Y-92861904D01*
X184085714Y-92957142D01*
X184133333Y-93004761D01*
X184228571Y-93052380D01*
X184419047Y-93052380D01*
X184514285Y-93004761D01*
X184561904Y-92957142D01*
X184609523Y-92861904D01*
X184609523Y-92052380D01*
X185609523Y-93052380D02*
X185038095Y-93052380D01*
X185323809Y-93052380D02*
X185323809Y-92052380D01*
X185228571Y-92195238D01*
X185133333Y-92290476D01*
X185038095Y-92338095D01*
X180957142Y-116402380D02*
X181623809Y-116402380D01*
X181195238Y-117402380D01*
X182433333Y-116735714D02*
X182433333Y-117402380D01*
X182195238Y-116354761D02*
X181957142Y-117069047D01*
X182576190Y-117069047D01*
X182957142Y-117402380D02*
X182957142Y-116402380D01*
X182957142Y-116878571D02*
X183528571Y-116878571D01*
X183528571Y-117402380D02*
X183528571Y-116402380D01*
X184576190Y-117307142D02*
X184528571Y-117354761D01*
X184385714Y-117402380D01*
X184290476Y-117402380D01*
X184147619Y-117354761D01*
X184052380Y-117259523D01*
X184004761Y-117164285D01*
X183957142Y-116973809D01*
X183957142Y-116830952D01*
X184004761Y-116640476D01*
X184052380Y-116545238D01*
X184147619Y-116450000D01*
X184290476Y-116402380D01*
X184385714Y-116402380D01*
X184528571Y-116450000D01*
X184576190Y-116497619D01*
X184861904Y-116402380D02*
X185433333Y-116402380D01*
X185147619Y-117402380D02*
X185147619Y-116402380D01*
X186242857Y-116402380D02*
X185766666Y-116402380D01*
X185719047Y-116878571D01*
X185766666Y-116830952D01*
X185861904Y-116783333D01*
X186100000Y-116783333D01*
X186195238Y-116830952D01*
X186242857Y-116878571D01*
X186290476Y-116973809D01*
X186290476Y-117211904D01*
X186242857Y-117307142D01*
X186195238Y-117354761D01*
X186100000Y-117402380D01*
X185861904Y-117402380D01*
X185766666Y-117354761D01*
X185719047Y-117307142D01*
X186623809Y-116402380D02*
X187290476Y-116402380D01*
X186861904Y-117402380D01*
X188100000Y-116735714D02*
X188100000Y-117402380D01*
X187861904Y-116354761D02*
X187623809Y-117069047D01*
X188242857Y-117069047D01*
X183838095Y-109052380D02*
X183838095Y-109861904D01*
X183885714Y-109957142D01*
X183933333Y-110004761D01*
X184028571Y-110052380D01*
X184219047Y-110052380D01*
X184314285Y-110004761D01*
X184361904Y-109957142D01*
X184409523Y-109861904D01*
X184409523Y-109052380D01*
X184838095Y-109147619D02*
X184885714Y-109100000D01*
X184980952Y-109052380D01*
X185219047Y-109052380D01*
X185314285Y-109100000D01*
X185361904Y-109147619D01*
X185409523Y-109242857D01*
X185409523Y-109338095D01*
X185361904Y-109480952D01*
X184790476Y-110052380D01*
X185409523Y-110052380D01*
X153080952Y-116402380D02*
X153747619Y-116402380D01*
X153319047Y-117402380D01*
X154557142Y-116735714D02*
X154557142Y-117402380D01*
X154319047Y-116354761D02*
X154080952Y-117069047D01*
X154700000Y-117069047D01*
X155557142Y-117402380D02*
X155080952Y-117402380D01*
X155080952Y-116402380D01*
X155842857Y-117354761D02*
X155985714Y-117402380D01*
X156223809Y-117402380D01*
X156319047Y-117354761D01*
X156366666Y-117307142D01*
X156414285Y-117211904D01*
X156414285Y-117116666D01*
X156366666Y-117021428D01*
X156319047Y-116973809D01*
X156223809Y-116926190D01*
X156033333Y-116878571D01*
X155938095Y-116830952D01*
X155890476Y-116783333D01*
X155842857Y-116688095D01*
X155842857Y-116592857D01*
X155890476Y-116497619D01*
X155938095Y-116450000D01*
X156033333Y-116402380D01*
X156271428Y-116402380D01*
X156414285Y-116450000D01*
X156795238Y-116497619D02*
X156842857Y-116450000D01*
X156938095Y-116402380D01*
X157176190Y-116402380D01*
X157271428Y-116450000D01*
X157319047Y-116497619D01*
X157366666Y-116592857D01*
X157366666Y-116688095D01*
X157319047Y-116830952D01*
X156747619Y-117402380D01*
X157366666Y-117402380D01*
X158223809Y-116735714D02*
X158223809Y-117402380D01*
X157985714Y-116354761D02*
X157747619Y-117069047D01*
X158366666Y-117069047D01*
X159223809Y-116402380D02*
X158747619Y-116402380D01*
X158700000Y-116878571D01*
X158747619Y-116830952D01*
X158842857Y-116783333D01*
X159080952Y-116783333D01*
X159176190Y-116830952D01*
X159223809Y-116878571D01*
X159271428Y-116973809D01*
X159271428Y-117211904D01*
X159223809Y-117307142D01*
X159176190Y-117354761D01*
X159080952Y-117402380D01*
X158842857Y-117402380D01*
X158747619Y-117354761D01*
X158700000Y-117307142D01*
X155438095Y-109052380D02*
X155438095Y-109861904D01*
X155485714Y-109957142D01*
X155533333Y-110004761D01*
X155628571Y-110052380D01*
X155819047Y-110052380D01*
X155914285Y-110004761D01*
X155961904Y-109957142D01*
X156009523Y-109861904D01*
X156009523Y-109052380D01*
X156390476Y-109052380D02*
X157009523Y-109052380D01*
X156676190Y-109433333D01*
X156819047Y-109433333D01*
X156914285Y-109480952D01*
X156961904Y-109528571D01*
X157009523Y-109623809D01*
X157009523Y-109861904D01*
X156961904Y-109957142D01*
X156914285Y-110004761D01*
X156819047Y-110052380D01*
X156533333Y-110052380D01*
X156438095Y-110004761D01*
X156390476Y-109957142D01*
X153080952Y-99402380D02*
X153747619Y-99402380D01*
X153319047Y-100402380D01*
X154557142Y-99735714D02*
X154557142Y-100402380D01*
X154319047Y-99354761D02*
X154080952Y-100069047D01*
X154700000Y-100069047D01*
X155557142Y-100402380D02*
X155080952Y-100402380D01*
X155080952Y-99402380D01*
X155842857Y-100354761D02*
X155985714Y-100402380D01*
X156223809Y-100402380D01*
X156319047Y-100354761D01*
X156366666Y-100307142D01*
X156414285Y-100211904D01*
X156414285Y-100116666D01*
X156366666Y-100021428D01*
X156319047Y-99973809D01*
X156223809Y-99926190D01*
X156033333Y-99878571D01*
X155938095Y-99830952D01*
X155890476Y-99783333D01*
X155842857Y-99688095D01*
X155842857Y-99592857D01*
X155890476Y-99497619D01*
X155938095Y-99450000D01*
X156033333Y-99402380D01*
X156271428Y-99402380D01*
X156414285Y-99450000D01*
X156795238Y-99497619D02*
X156842857Y-99450000D01*
X156938095Y-99402380D01*
X157176190Y-99402380D01*
X157271428Y-99450000D01*
X157319047Y-99497619D01*
X157366666Y-99592857D01*
X157366666Y-99688095D01*
X157319047Y-99830952D01*
X156747619Y-100402380D01*
X157366666Y-100402380D01*
X158223809Y-99735714D02*
X158223809Y-100402380D01*
X157985714Y-99354761D02*
X157747619Y-100069047D01*
X158366666Y-100069047D01*
X159223809Y-99402380D02*
X158747619Y-99402380D01*
X158700000Y-99878571D01*
X158747619Y-99830952D01*
X158842857Y-99783333D01*
X159080952Y-99783333D01*
X159176190Y-99830952D01*
X159223809Y-99878571D01*
X159271428Y-99973809D01*
X159271428Y-100211904D01*
X159223809Y-100307142D01*
X159176190Y-100354761D01*
X159080952Y-100402380D01*
X158842857Y-100402380D01*
X158747619Y-100354761D01*
X158700000Y-100307142D01*
X155438095Y-92052380D02*
X155438095Y-92861904D01*
X155485714Y-92957142D01*
X155533333Y-93004761D01*
X155628571Y-93052380D01*
X155819047Y-93052380D01*
X155914285Y-93004761D01*
X155961904Y-92957142D01*
X156009523Y-92861904D01*
X156009523Y-92052380D01*
X156914285Y-92385714D02*
X156914285Y-93052380D01*
X156676190Y-92004761D02*
X156438095Y-92719047D01*
X157057142Y-92719047D01*
X124280952Y-116402380D02*
X124947619Y-116402380D01*
X124519047Y-117402380D01*
X125757142Y-116735714D02*
X125757142Y-117402380D01*
X125519047Y-116354761D02*
X125280952Y-117069047D01*
X125900000Y-117069047D01*
X126757142Y-117402380D02*
X126280952Y-117402380D01*
X126280952Y-116402380D01*
X127042857Y-117354761D02*
X127185714Y-117402380D01*
X127423809Y-117402380D01*
X127519047Y-117354761D01*
X127566666Y-117307142D01*
X127614285Y-117211904D01*
X127614285Y-117116666D01*
X127566666Y-117021428D01*
X127519047Y-116973809D01*
X127423809Y-116926190D01*
X127233333Y-116878571D01*
X127138095Y-116830952D01*
X127090476Y-116783333D01*
X127042857Y-116688095D01*
X127042857Y-116592857D01*
X127090476Y-116497619D01*
X127138095Y-116450000D01*
X127233333Y-116402380D01*
X127471428Y-116402380D01*
X127614285Y-116450000D01*
X127995238Y-116497619D02*
X128042857Y-116450000D01*
X128138095Y-116402380D01*
X128376190Y-116402380D01*
X128471428Y-116450000D01*
X128519047Y-116497619D01*
X128566666Y-116592857D01*
X128566666Y-116688095D01*
X128519047Y-116830952D01*
X127947619Y-117402380D01*
X128566666Y-117402380D01*
X129423809Y-116735714D02*
X129423809Y-117402380D01*
X129185714Y-116354761D02*
X128947619Y-117069047D01*
X129566666Y-117069047D01*
X130423809Y-116402380D02*
X129947619Y-116402380D01*
X129900000Y-116878571D01*
X129947619Y-116830952D01*
X130042857Y-116783333D01*
X130280952Y-116783333D01*
X130376190Y-116830952D01*
X130423809Y-116878571D01*
X130471428Y-116973809D01*
X130471428Y-117211904D01*
X130423809Y-117307142D01*
X130376190Y-117354761D01*
X130280952Y-117402380D01*
X130042857Y-117402380D01*
X129947619Y-117354761D01*
X129900000Y-117307142D01*
X126638095Y-109052380D02*
X126638095Y-109861904D01*
X126685714Y-109957142D01*
X126733333Y-110004761D01*
X126828571Y-110052380D01*
X127019047Y-110052380D01*
X127114285Y-110004761D01*
X127161904Y-109957142D01*
X127209523Y-109861904D01*
X127209523Y-109052380D01*
X128161904Y-109052380D02*
X127685714Y-109052380D01*
X127638095Y-109528571D01*
X127685714Y-109480952D01*
X127780952Y-109433333D01*
X128019047Y-109433333D01*
X128114285Y-109480952D01*
X128161904Y-109528571D01*
X128209523Y-109623809D01*
X128209523Y-109861904D01*
X128161904Y-109957142D01*
X128114285Y-110004761D01*
X128019047Y-110052380D01*
X127780952Y-110052380D01*
X127685714Y-110004761D01*
X127638095Y-109957142D01*
X124280952Y-99402380D02*
X124947619Y-99402380D01*
X124519047Y-100402380D01*
X125757142Y-99735714D02*
X125757142Y-100402380D01*
X125519047Y-99354761D02*
X125280952Y-100069047D01*
X125900000Y-100069047D01*
X126757142Y-100402380D02*
X126280952Y-100402380D01*
X126280952Y-99402380D01*
X127042857Y-100354761D02*
X127185714Y-100402380D01*
X127423809Y-100402380D01*
X127519047Y-100354761D01*
X127566666Y-100307142D01*
X127614285Y-100211904D01*
X127614285Y-100116666D01*
X127566666Y-100021428D01*
X127519047Y-99973809D01*
X127423809Y-99926190D01*
X127233333Y-99878571D01*
X127138095Y-99830952D01*
X127090476Y-99783333D01*
X127042857Y-99688095D01*
X127042857Y-99592857D01*
X127090476Y-99497619D01*
X127138095Y-99450000D01*
X127233333Y-99402380D01*
X127471428Y-99402380D01*
X127614285Y-99450000D01*
X127995238Y-99497619D02*
X128042857Y-99450000D01*
X128138095Y-99402380D01*
X128376190Y-99402380D01*
X128471428Y-99450000D01*
X128519047Y-99497619D01*
X128566666Y-99592857D01*
X128566666Y-99688095D01*
X128519047Y-99830952D01*
X127947619Y-100402380D01*
X128566666Y-100402380D01*
X129423809Y-99735714D02*
X129423809Y-100402380D01*
X129185714Y-99354761D02*
X128947619Y-100069047D01*
X129566666Y-100069047D01*
X130423809Y-99402380D02*
X129947619Y-99402380D01*
X129900000Y-99878571D01*
X129947619Y-99830952D01*
X130042857Y-99783333D01*
X130280952Y-99783333D01*
X130376190Y-99830952D01*
X130423809Y-99878571D01*
X130471428Y-99973809D01*
X130471428Y-100211904D01*
X130423809Y-100307142D01*
X130376190Y-100354761D01*
X130280952Y-100402380D01*
X130042857Y-100402380D01*
X129947619Y-100354761D01*
X129900000Y-100307142D01*
X126638095Y-92052380D02*
X126638095Y-92861904D01*
X126685714Y-92957142D01*
X126733333Y-93004761D01*
X126828571Y-93052380D01*
X127019047Y-93052380D01*
X127114285Y-93004761D01*
X127161904Y-92957142D01*
X127209523Y-92861904D01*
X127209523Y-92052380D01*
X128114285Y-92052380D02*
X127923809Y-92052380D01*
X127828571Y-92100000D01*
X127780952Y-92147619D01*
X127685714Y-92290476D01*
X127638095Y-92480952D01*
X127638095Y-92861904D01*
X127685714Y-92957142D01*
X127733333Y-93004761D01*
X127828571Y-93052380D01*
X128019047Y-93052380D01*
X128114285Y-93004761D01*
X128161904Y-92957142D01*
X128209523Y-92861904D01*
X128209523Y-92623809D01*
X128161904Y-92528571D01*
X128114285Y-92480952D01*
X128019047Y-92433333D01*
X127828571Y-92433333D01*
X127733333Y-92480952D01*
X127685714Y-92528571D01*
X127638095Y-92623809D01*
X95680952Y-99402380D02*
X96347619Y-99402380D01*
X95919047Y-100402380D01*
X97157142Y-99735714D02*
X97157142Y-100402380D01*
X96919047Y-99354761D02*
X96680952Y-100069047D01*
X97300000Y-100069047D01*
X98157142Y-100402380D02*
X97680952Y-100402380D01*
X97680952Y-99402380D01*
X98442857Y-100354761D02*
X98585714Y-100402380D01*
X98823809Y-100402380D01*
X98919047Y-100354761D01*
X98966666Y-100307142D01*
X99014285Y-100211904D01*
X99014285Y-100116666D01*
X98966666Y-100021428D01*
X98919047Y-99973809D01*
X98823809Y-99926190D01*
X98633333Y-99878571D01*
X98538095Y-99830952D01*
X98490476Y-99783333D01*
X98442857Y-99688095D01*
X98442857Y-99592857D01*
X98490476Y-99497619D01*
X98538095Y-99450000D01*
X98633333Y-99402380D01*
X98871428Y-99402380D01*
X99014285Y-99450000D01*
X99395238Y-99497619D02*
X99442857Y-99450000D01*
X99538095Y-99402380D01*
X99776190Y-99402380D01*
X99871428Y-99450000D01*
X99919047Y-99497619D01*
X99966666Y-99592857D01*
X99966666Y-99688095D01*
X99919047Y-99830952D01*
X99347619Y-100402380D01*
X99966666Y-100402380D01*
X100823809Y-99735714D02*
X100823809Y-100402380D01*
X100585714Y-99354761D02*
X100347619Y-100069047D01*
X100966666Y-100069047D01*
X101823809Y-99402380D02*
X101347619Y-99402380D01*
X101300000Y-99878571D01*
X101347619Y-99830952D01*
X101442857Y-99783333D01*
X101680952Y-99783333D01*
X101776190Y-99830952D01*
X101823809Y-99878571D01*
X101871428Y-99973809D01*
X101871428Y-100211904D01*
X101823809Y-100307142D01*
X101776190Y-100354761D01*
X101680952Y-100402380D01*
X101442857Y-100402380D01*
X101347619Y-100354761D01*
X101300000Y-100307142D01*
X98038095Y-92052380D02*
X98038095Y-92861904D01*
X98085714Y-92957142D01*
X98133333Y-93004761D01*
X98228571Y-93052380D01*
X98419047Y-93052380D01*
X98514285Y-93004761D01*
X98561904Y-92957142D01*
X98609523Y-92861904D01*
X98609523Y-92052380D01*
X99228571Y-92480952D02*
X99133333Y-92433333D01*
X99085714Y-92385714D01*
X99038095Y-92290476D01*
X99038095Y-92242857D01*
X99085714Y-92147619D01*
X99133333Y-92100000D01*
X99228571Y-92052380D01*
X99419047Y-92052380D01*
X99514285Y-92100000D01*
X99561904Y-92147619D01*
X99609523Y-92242857D01*
X99609523Y-92290476D01*
X99561904Y-92385714D01*
X99514285Y-92433333D01*
X99419047Y-92480952D01*
X99228571Y-92480952D01*
X99133333Y-92528571D01*
X99085714Y-92576190D01*
X99038095Y-92671428D01*
X99038095Y-92861904D01*
X99085714Y-92957142D01*
X99133333Y-93004761D01*
X99228571Y-93052380D01*
X99419047Y-93052380D01*
X99514285Y-93004761D01*
X99561904Y-92957142D01*
X99609523Y-92861904D01*
X99609523Y-92671428D01*
X99561904Y-92576190D01*
X99514285Y-92528571D01*
X99419047Y-92480952D01*
X107680952Y-81002380D02*
X108347619Y-81002380D01*
X107919047Y-82002380D01*
X109157142Y-81335714D02*
X109157142Y-82002380D01*
X108919047Y-80954761D02*
X108680952Y-81669047D01*
X109300000Y-81669047D01*
X110157142Y-82002380D02*
X109680952Y-82002380D01*
X109680952Y-81002380D01*
X110442857Y-81954761D02*
X110585714Y-82002380D01*
X110823809Y-82002380D01*
X110919047Y-81954761D01*
X110966666Y-81907142D01*
X111014285Y-81811904D01*
X111014285Y-81716666D01*
X110966666Y-81621428D01*
X110919047Y-81573809D01*
X110823809Y-81526190D01*
X110633333Y-81478571D01*
X110538095Y-81430952D01*
X110490476Y-81383333D01*
X110442857Y-81288095D01*
X110442857Y-81192857D01*
X110490476Y-81097619D01*
X110538095Y-81050000D01*
X110633333Y-81002380D01*
X110871428Y-81002380D01*
X111014285Y-81050000D01*
X111395238Y-81097619D02*
X111442857Y-81050000D01*
X111538095Y-81002380D01*
X111776190Y-81002380D01*
X111871428Y-81050000D01*
X111919047Y-81097619D01*
X111966666Y-81192857D01*
X111966666Y-81288095D01*
X111919047Y-81430952D01*
X111347619Y-82002380D01*
X111966666Y-82002380D01*
X112823809Y-81335714D02*
X112823809Y-82002380D01*
X112585714Y-80954761D02*
X112347619Y-81669047D01*
X112966666Y-81669047D01*
X113823809Y-81002380D02*
X113347619Y-81002380D01*
X113300000Y-81478571D01*
X113347619Y-81430952D01*
X113442857Y-81383333D01*
X113680952Y-81383333D01*
X113776190Y-81430952D01*
X113823809Y-81478571D01*
X113871428Y-81573809D01*
X113871428Y-81811904D01*
X113823809Y-81907142D01*
X113776190Y-81954761D01*
X113680952Y-82002380D01*
X113442857Y-82002380D01*
X113347619Y-81954761D01*
X113300000Y-81907142D01*
X110038095Y-73652380D02*
X110038095Y-74461904D01*
X110085714Y-74557142D01*
X110133333Y-74604761D01*
X110228571Y-74652380D01*
X110419047Y-74652380D01*
X110514285Y-74604761D01*
X110561904Y-74557142D01*
X110609523Y-74461904D01*
X110609523Y-73652380D01*
X111133333Y-74652380D02*
X111323809Y-74652380D01*
X111419047Y-74604761D01*
X111466666Y-74557142D01*
X111561904Y-74414285D01*
X111609523Y-74223809D01*
X111609523Y-73842857D01*
X111561904Y-73747619D01*
X111514285Y-73700000D01*
X111419047Y-73652380D01*
X111228571Y-73652380D01*
X111133333Y-73700000D01*
X111085714Y-73747619D01*
X111038095Y-73842857D01*
X111038095Y-74080952D01*
X111085714Y-74176190D01*
X111133333Y-74223809D01*
X111228571Y-74271428D01*
X111419047Y-74271428D01*
X111514285Y-74223809D01*
X111561904Y-74176190D01*
X111609523Y-74080952D01*
X136080952Y-81002380D02*
X136747619Y-81002380D01*
X136319047Y-82002380D01*
X137557142Y-81335714D02*
X137557142Y-82002380D01*
X137319047Y-80954761D02*
X137080952Y-81669047D01*
X137700000Y-81669047D01*
X138557142Y-82002380D02*
X138080952Y-82002380D01*
X138080952Y-81002380D01*
X138842857Y-81954761D02*
X138985714Y-82002380D01*
X139223809Y-82002380D01*
X139319047Y-81954761D01*
X139366666Y-81907142D01*
X139414285Y-81811904D01*
X139414285Y-81716666D01*
X139366666Y-81621428D01*
X139319047Y-81573809D01*
X139223809Y-81526190D01*
X139033333Y-81478571D01*
X138938095Y-81430952D01*
X138890476Y-81383333D01*
X138842857Y-81288095D01*
X138842857Y-81192857D01*
X138890476Y-81097619D01*
X138938095Y-81050000D01*
X139033333Y-81002380D01*
X139271428Y-81002380D01*
X139414285Y-81050000D01*
X139795238Y-81097619D02*
X139842857Y-81050000D01*
X139938095Y-81002380D01*
X140176190Y-81002380D01*
X140271428Y-81050000D01*
X140319047Y-81097619D01*
X140366666Y-81192857D01*
X140366666Y-81288095D01*
X140319047Y-81430952D01*
X139747619Y-82002380D01*
X140366666Y-82002380D01*
X141223809Y-81335714D02*
X141223809Y-82002380D01*
X140985714Y-80954761D02*
X140747619Y-81669047D01*
X141366666Y-81669047D01*
X142223809Y-81002380D02*
X141747619Y-81002380D01*
X141700000Y-81478571D01*
X141747619Y-81430952D01*
X141842857Y-81383333D01*
X142080952Y-81383333D01*
X142176190Y-81430952D01*
X142223809Y-81478571D01*
X142271428Y-81573809D01*
X142271428Y-81811904D01*
X142223809Y-81907142D01*
X142176190Y-81954761D01*
X142080952Y-82002380D01*
X141842857Y-82002380D01*
X141747619Y-81954761D01*
X141700000Y-81907142D01*
X137961904Y-73652380D02*
X137961904Y-74461904D01*
X138009523Y-74557142D01*
X138057142Y-74604761D01*
X138152380Y-74652380D01*
X138342857Y-74652380D01*
X138438095Y-74604761D01*
X138485714Y-74557142D01*
X138533333Y-74461904D01*
X138533333Y-73652380D01*
X139533333Y-74652380D02*
X138961904Y-74652380D01*
X139247619Y-74652380D02*
X139247619Y-73652380D01*
X139152380Y-73795238D01*
X139057142Y-73890476D01*
X138961904Y-73938095D01*
X140152380Y-73652380D02*
X140247619Y-73652380D01*
X140342857Y-73700000D01*
X140390476Y-73747619D01*
X140438095Y-73842857D01*
X140485714Y-74033333D01*
X140485714Y-74271428D01*
X140438095Y-74461904D01*
X140390476Y-74557142D01*
X140342857Y-74604761D01*
X140247619Y-74652380D01*
X140152380Y-74652380D01*
X140057142Y-74604761D01*
X140009523Y-74557142D01*
X139961904Y-74461904D01*
X139914285Y-74271428D01*
X139914285Y-74033333D01*
X139961904Y-73842857D01*
X140009523Y-73747619D01*
X140057142Y-73700000D01*
X140152380Y-73652380D01*
X153130952Y-81032380D02*
X153797619Y-81032380D01*
X153369047Y-82032380D01*
X154607142Y-81365714D02*
X154607142Y-82032380D01*
X154369047Y-80984761D02*
X154130952Y-81699047D01*
X154750000Y-81699047D01*
X155607142Y-82032380D02*
X155130952Y-82032380D01*
X155130952Y-81032380D01*
X155892857Y-81984761D02*
X156035714Y-82032380D01*
X156273809Y-82032380D01*
X156369047Y-81984761D01*
X156416666Y-81937142D01*
X156464285Y-81841904D01*
X156464285Y-81746666D01*
X156416666Y-81651428D01*
X156369047Y-81603809D01*
X156273809Y-81556190D01*
X156083333Y-81508571D01*
X155988095Y-81460952D01*
X155940476Y-81413333D01*
X155892857Y-81318095D01*
X155892857Y-81222857D01*
X155940476Y-81127619D01*
X155988095Y-81080000D01*
X156083333Y-81032380D01*
X156321428Y-81032380D01*
X156464285Y-81080000D01*
X157416666Y-82032380D02*
X156845238Y-82032380D01*
X157130952Y-82032380D02*
X157130952Y-81032380D01*
X157035714Y-81175238D01*
X156940476Y-81270476D01*
X156845238Y-81318095D01*
X157797619Y-81127619D02*
X157845238Y-81080000D01*
X157940476Y-81032380D01*
X158178571Y-81032380D01*
X158273809Y-81080000D01*
X158321428Y-81127619D01*
X158369047Y-81222857D01*
X158369047Y-81318095D01*
X158321428Y-81460952D01*
X157750000Y-82032380D01*
X158369047Y-82032380D01*
X159226190Y-81032380D02*
X159035714Y-81032380D01*
X158940476Y-81080000D01*
X158892857Y-81127619D01*
X158797619Y-81270476D01*
X158750000Y-81460952D01*
X158750000Y-81841904D01*
X158797619Y-81937142D01*
X158845238Y-81984761D01*
X158940476Y-82032380D01*
X159130952Y-82032380D01*
X159226190Y-81984761D01*
X159273809Y-81937142D01*
X159321428Y-81841904D01*
X159321428Y-81603809D01*
X159273809Y-81508571D01*
X159226190Y-81460952D01*
X159130952Y-81413333D01*
X158940476Y-81413333D01*
X158845238Y-81460952D01*
X158797619Y-81508571D01*
X158750000Y-81603809D01*
X155036666Y-75763333D02*
X155036666Y-76556666D01*
X155083333Y-76650000D01*
X155130000Y-76696666D01*
X155223333Y-76743333D01*
X155410000Y-76743333D01*
X155503333Y-76696666D01*
X155550000Y-76650000D01*
X155596666Y-76556666D01*
X155596666Y-75763333D01*
X156576666Y-76743333D02*
X156016666Y-76743333D01*
X156296666Y-76743333D02*
X156296666Y-75763333D01*
X156203333Y-75903333D01*
X156110000Y-75996666D01*
X156016666Y-76043333D01*
X157510000Y-76743333D02*
X156950000Y-76743333D01*
X157230000Y-76743333D02*
X157230000Y-75763333D01*
X157136666Y-75903333D01*
X157043333Y-75996666D01*
X156950000Y-76043333D01*
M02*
