G04 #@! TF.GenerationSoftware,KiCad,Pcbnew,(5.1.8)-1*
G04 #@! TF.CreationDate,2020-11-27T19:32:22-08:00*
G04 #@! TF.ProjectId,GPRModule,4750524d-6f64-4756-9c65-2e6b69636164,1.0*
G04 #@! TF.SameCoordinates,Original*
G04 #@! TF.FileFunction,Legend,Top*
G04 #@! TF.FilePolarity,Positive*
%FSLAX46Y46*%
G04 Gerber Fmt 4.6, Leading zero omitted, Abs format (unit mm)*
G04 Created by KiCad (PCBNEW (5.1.8)-1) date 2020-11-27 19:32:22*
%MOMM*%
%LPD*%
G01*
G04 APERTURE LIST*
%ADD10C,0.153000*%
%ADD11C,0.125000*%
%ADD12C,0.150000*%
%ADD13C,0.120000*%
G04 APERTURE END LIST*
D10*
X125568571Y-63583809D02*
X125640952Y-63583809D01*
X125713333Y-63620000D01*
X125749523Y-63656190D01*
X125785714Y-63728571D01*
X125821904Y-63873333D01*
X125821904Y-64054285D01*
X125785714Y-64199047D01*
X125749523Y-64271428D01*
X125713333Y-64307619D01*
X125640952Y-64343809D01*
X125568571Y-64343809D01*
X125496190Y-64307619D01*
X125460000Y-64271428D01*
X125423809Y-64199047D01*
X125387619Y-64054285D01*
X125387619Y-63873333D01*
X125423809Y-63728571D01*
X125460000Y-63656190D01*
X125496190Y-63620000D01*
X125568571Y-63583809D01*
X126075238Y-63583809D02*
X126581904Y-63583809D01*
X126256190Y-64343809D01*
X129332380Y-63583809D02*
X129404761Y-63583809D01*
X129477142Y-63620000D01*
X129513333Y-63656190D01*
X129549523Y-63728571D01*
X129585714Y-63873333D01*
X129585714Y-64054285D01*
X129549523Y-64199047D01*
X129513333Y-64271428D01*
X129477142Y-64307619D01*
X129404761Y-64343809D01*
X129332380Y-64343809D01*
X129260000Y-64307619D01*
X129223809Y-64271428D01*
X129187619Y-64199047D01*
X129151428Y-64054285D01*
X129151428Y-63873333D01*
X129187619Y-63728571D01*
X129223809Y-63656190D01*
X129260000Y-63620000D01*
X129332380Y-63583809D01*
X130237142Y-63583809D02*
X130092380Y-63583809D01*
X130020000Y-63620000D01*
X129983809Y-63656190D01*
X129911428Y-63764761D01*
X129875238Y-63909523D01*
X129875238Y-64199047D01*
X129911428Y-64271428D01*
X129947619Y-64307619D01*
X130020000Y-64343809D01*
X130164761Y-64343809D01*
X130237142Y-64307619D01*
X130273333Y-64271428D01*
X130309523Y-64199047D01*
X130309523Y-64018095D01*
X130273333Y-63945714D01*
X130237142Y-63909523D01*
X130164761Y-63873333D01*
X130020000Y-63873333D01*
X129947619Y-63909523D01*
X129911428Y-63945714D01*
X129875238Y-64018095D01*
X133096190Y-63583809D02*
X133168571Y-63583809D01*
X133240952Y-63620000D01*
X133277142Y-63656190D01*
X133313333Y-63728571D01*
X133349523Y-63873333D01*
X133349523Y-64054285D01*
X133313333Y-64199047D01*
X133277142Y-64271428D01*
X133240952Y-64307619D01*
X133168571Y-64343809D01*
X133096190Y-64343809D01*
X133023809Y-64307619D01*
X132987619Y-64271428D01*
X132951428Y-64199047D01*
X132915238Y-64054285D01*
X132915238Y-63873333D01*
X132951428Y-63728571D01*
X132987619Y-63656190D01*
X133023809Y-63620000D01*
X133096190Y-63583809D01*
X134037142Y-63583809D02*
X133675238Y-63583809D01*
X133639047Y-63945714D01*
X133675238Y-63909523D01*
X133747619Y-63873333D01*
X133928571Y-63873333D01*
X134000952Y-63909523D01*
X134037142Y-63945714D01*
X134073333Y-64018095D01*
X134073333Y-64199047D01*
X134037142Y-64271428D01*
X134000952Y-64307619D01*
X133928571Y-64343809D01*
X133747619Y-64343809D01*
X133675238Y-64307619D01*
X133639047Y-64271428D01*
X136860000Y-63583809D02*
X136932380Y-63583809D01*
X137004761Y-63620000D01*
X137040952Y-63656190D01*
X137077142Y-63728571D01*
X137113333Y-63873333D01*
X137113333Y-64054285D01*
X137077142Y-64199047D01*
X137040952Y-64271428D01*
X137004761Y-64307619D01*
X136932380Y-64343809D01*
X136860000Y-64343809D01*
X136787619Y-64307619D01*
X136751428Y-64271428D01*
X136715238Y-64199047D01*
X136679047Y-64054285D01*
X136679047Y-63873333D01*
X136715238Y-63728571D01*
X136751428Y-63656190D01*
X136787619Y-63620000D01*
X136860000Y-63583809D01*
X137764761Y-63837142D02*
X137764761Y-64343809D01*
X137583809Y-63547619D02*
X137402857Y-64090476D01*
X137873333Y-64090476D01*
X140623809Y-63583809D02*
X140696190Y-63583809D01*
X140768571Y-63620000D01*
X140804761Y-63656190D01*
X140840952Y-63728571D01*
X140877142Y-63873333D01*
X140877142Y-64054285D01*
X140840952Y-64199047D01*
X140804761Y-64271428D01*
X140768571Y-64307619D01*
X140696190Y-64343809D01*
X140623809Y-64343809D01*
X140551428Y-64307619D01*
X140515238Y-64271428D01*
X140479047Y-64199047D01*
X140442857Y-64054285D01*
X140442857Y-63873333D01*
X140479047Y-63728571D01*
X140515238Y-63656190D01*
X140551428Y-63620000D01*
X140623809Y-63583809D01*
X141130476Y-63583809D02*
X141600952Y-63583809D01*
X141347619Y-63873333D01*
X141456190Y-63873333D01*
X141528571Y-63909523D01*
X141564761Y-63945714D01*
X141600952Y-64018095D01*
X141600952Y-64199047D01*
X141564761Y-64271428D01*
X141528571Y-64307619D01*
X141456190Y-64343809D01*
X141239047Y-64343809D01*
X141166666Y-64307619D01*
X141130476Y-64271428D01*
X144387619Y-63583809D02*
X144460000Y-63583809D01*
X144532380Y-63620000D01*
X144568571Y-63656190D01*
X144604761Y-63728571D01*
X144640952Y-63873333D01*
X144640952Y-64054285D01*
X144604761Y-64199047D01*
X144568571Y-64271428D01*
X144532380Y-64307619D01*
X144460000Y-64343809D01*
X144387619Y-64343809D01*
X144315238Y-64307619D01*
X144279047Y-64271428D01*
X144242857Y-64199047D01*
X144206666Y-64054285D01*
X144206666Y-63873333D01*
X144242857Y-63728571D01*
X144279047Y-63656190D01*
X144315238Y-63620000D01*
X144387619Y-63583809D01*
X144930476Y-63656190D02*
X144966666Y-63620000D01*
X145039047Y-63583809D01*
X145220000Y-63583809D01*
X145292380Y-63620000D01*
X145328571Y-63656190D01*
X145364761Y-63728571D01*
X145364761Y-63800952D01*
X145328571Y-63909523D01*
X144894285Y-64343809D01*
X145364761Y-64343809D01*
X148151428Y-63583809D02*
X148223809Y-63583809D01*
X148296190Y-63620000D01*
X148332380Y-63656190D01*
X148368571Y-63728571D01*
X148404761Y-63873333D01*
X148404761Y-64054285D01*
X148368571Y-64199047D01*
X148332380Y-64271428D01*
X148296190Y-64307619D01*
X148223809Y-64343809D01*
X148151428Y-64343809D01*
X148079047Y-64307619D01*
X148042857Y-64271428D01*
X148006666Y-64199047D01*
X147970476Y-64054285D01*
X147970476Y-63873333D01*
X148006666Y-63728571D01*
X148042857Y-63656190D01*
X148079047Y-63620000D01*
X148151428Y-63583809D01*
X149128571Y-64343809D02*
X148694285Y-64343809D01*
X148911428Y-64343809D02*
X148911428Y-63583809D01*
X148839047Y-63692380D01*
X148766666Y-63764761D01*
X148694285Y-63800952D01*
X151915238Y-63583809D02*
X151987619Y-63583809D01*
X152060000Y-63620000D01*
X152096190Y-63656190D01*
X152132380Y-63728571D01*
X152168571Y-63873333D01*
X152168571Y-64054285D01*
X152132380Y-64199047D01*
X152096190Y-64271428D01*
X152060000Y-64307619D01*
X151987619Y-64343809D01*
X151915238Y-64343809D01*
X151842857Y-64307619D01*
X151806666Y-64271428D01*
X151770476Y-64199047D01*
X151734285Y-64054285D01*
X151734285Y-63873333D01*
X151770476Y-63728571D01*
X151806666Y-63656190D01*
X151842857Y-63620000D01*
X151915238Y-63583809D01*
X152639047Y-63583809D02*
X152711428Y-63583809D01*
X152783809Y-63620000D01*
X152820000Y-63656190D01*
X152856190Y-63728571D01*
X152892380Y-63873333D01*
X152892380Y-64054285D01*
X152856190Y-64199047D01*
X152820000Y-64271428D01*
X152783809Y-64307619D01*
X152711428Y-64343809D01*
X152639047Y-64343809D01*
X152566666Y-64307619D01*
X152530476Y-64271428D01*
X152494285Y-64199047D01*
X152458095Y-64054285D01*
X152458095Y-63873333D01*
X152494285Y-63728571D01*
X152530476Y-63656190D01*
X152566666Y-63620000D01*
X152639047Y-63583809D01*
X92400000Y-57950000D02*
X173150000Y-57950000D01*
X92400000Y-65200000D02*
X92400000Y-57950000D01*
X173150000Y-65200000D02*
X92400000Y-65200000D01*
X173150000Y-57950000D02*
X173150000Y-65200000D01*
D11*
X157787619Y-64939761D02*
X157787619Y-64586428D01*
X157787619Y-64687380D02*
X157812857Y-64636904D01*
X157838095Y-64611666D01*
X157888571Y-64586428D01*
X157939047Y-64586428D01*
X158317619Y-64914523D02*
X158267142Y-64939761D01*
X158166190Y-64939761D01*
X158115714Y-64914523D01*
X158090476Y-64864047D01*
X158090476Y-64662142D01*
X158115714Y-64611666D01*
X158166190Y-64586428D01*
X158267142Y-64586428D01*
X158317619Y-64611666D01*
X158342857Y-64662142D01*
X158342857Y-64712619D01*
X158090476Y-64763095D01*
X158797142Y-64939761D02*
X158797142Y-64662142D01*
X158771904Y-64611666D01*
X158721428Y-64586428D01*
X158620476Y-64586428D01*
X158570000Y-64611666D01*
X158797142Y-64914523D02*
X158746666Y-64939761D01*
X158620476Y-64939761D01*
X158570000Y-64914523D01*
X158544761Y-64864047D01*
X158544761Y-64813571D01*
X158570000Y-64763095D01*
X158620476Y-64737857D01*
X158746666Y-64737857D01*
X158797142Y-64712619D01*
X159276666Y-64939761D02*
X159276666Y-64409761D01*
X159276666Y-64914523D02*
X159226190Y-64939761D01*
X159125238Y-64939761D01*
X159074761Y-64914523D01*
X159049523Y-64889285D01*
X159024285Y-64838809D01*
X159024285Y-64687380D01*
X159049523Y-64636904D01*
X159074761Y-64611666D01*
X159125238Y-64586428D01*
X159226190Y-64586428D01*
X159276666Y-64611666D01*
X161497619Y-64586428D02*
X161598571Y-64939761D01*
X161699523Y-64687380D01*
X161800476Y-64939761D01*
X161901428Y-64586428D01*
X162103333Y-64939761D02*
X162103333Y-64586428D01*
X162103333Y-64687380D02*
X162128571Y-64636904D01*
X162153809Y-64611666D01*
X162204285Y-64586428D01*
X162254761Y-64586428D01*
X162431428Y-64939761D02*
X162431428Y-64586428D01*
X162431428Y-64409761D02*
X162406190Y-64435000D01*
X162431428Y-64460238D01*
X162456666Y-64435000D01*
X162431428Y-64409761D01*
X162431428Y-64460238D01*
X162608095Y-64586428D02*
X162810000Y-64586428D01*
X162683809Y-64409761D02*
X162683809Y-64864047D01*
X162709047Y-64914523D01*
X162759523Y-64939761D01*
X162810000Y-64939761D01*
X163188571Y-64914523D02*
X163138095Y-64939761D01*
X163037142Y-64939761D01*
X162986666Y-64914523D01*
X162961428Y-64864047D01*
X162961428Y-64662142D01*
X162986666Y-64611666D01*
X163037142Y-64586428D01*
X163138095Y-64586428D01*
X163188571Y-64611666D01*
X163213809Y-64662142D01*
X163213809Y-64712619D01*
X162961428Y-64763095D01*
X165409523Y-64586428D02*
X165510476Y-64939761D01*
X165611428Y-64687380D01*
X165712380Y-64939761D01*
X165813333Y-64586428D01*
X166015238Y-64939761D02*
X166015238Y-64586428D01*
X166015238Y-64687380D02*
X166040476Y-64636904D01*
X166065714Y-64611666D01*
X166116190Y-64586428D01*
X166166666Y-64586428D01*
X166343333Y-64939761D02*
X166343333Y-64586428D01*
X166343333Y-64409761D02*
X166318095Y-64435000D01*
X166343333Y-64460238D01*
X166368571Y-64435000D01*
X166343333Y-64409761D01*
X166343333Y-64460238D01*
X166520000Y-64586428D02*
X166721904Y-64586428D01*
X166595714Y-64409761D02*
X166595714Y-64864047D01*
X166620952Y-64914523D01*
X166671428Y-64939761D01*
X166721904Y-64939761D01*
X167100476Y-64914523D02*
X167050000Y-64939761D01*
X166949047Y-64939761D01*
X166898571Y-64914523D01*
X166873333Y-64864047D01*
X166873333Y-64662142D01*
X166898571Y-64611666D01*
X166949047Y-64586428D01*
X167050000Y-64586428D01*
X167100476Y-64611666D01*
X167125714Y-64662142D01*
X167125714Y-64712619D01*
X166873333Y-64763095D01*
X169321428Y-64586428D02*
X169422380Y-64939761D01*
X169523333Y-64687380D01*
X169624285Y-64939761D01*
X169725238Y-64586428D01*
X169927142Y-64939761D02*
X169927142Y-64586428D01*
X169927142Y-64687380D02*
X169952380Y-64636904D01*
X169977619Y-64611666D01*
X170028095Y-64586428D01*
X170078571Y-64586428D01*
X170255238Y-64939761D02*
X170255238Y-64586428D01*
X170255238Y-64409761D02*
X170230000Y-64435000D01*
X170255238Y-64460238D01*
X170280476Y-64435000D01*
X170255238Y-64409761D01*
X170255238Y-64460238D01*
X170431904Y-64586428D02*
X170633809Y-64586428D01*
X170507619Y-64409761D02*
X170507619Y-64864047D01*
X170532857Y-64914523D01*
X170583333Y-64939761D01*
X170633809Y-64939761D01*
X171012380Y-64914523D02*
X170961904Y-64939761D01*
X170860952Y-64939761D01*
X170810476Y-64914523D01*
X170785238Y-64864047D01*
X170785238Y-64662142D01*
X170810476Y-64611666D01*
X170860952Y-64586428D01*
X170961904Y-64586428D01*
X171012380Y-64611666D01*
X171037619Y-64662142D01*
X171037619Y-64712619D01*
X170785238Y-64763095D01*
X157850714Y-64189761D02*
X157850714Y-63659761D01*
X157850714Y-64164523D02*
X157800238Y-64189761D01*
X157699285Y-64189761D01*
X157648809Y-64164523D01*
X157623571Y-64139285D01*
X157598333Y-64088809D01*
X157598333Y-63937380D01*
X157623571Y-63886904D01*
X157648809Y-63861666D01*
X157699285Y-63836428D01*
X157800238Y-63836428D01*
X157850714Y-63861666D01*
X157976904Y-64240238D02*
X158380714Y-64240238D01*
X158506904Y-64189761D02*
X158506904Y-63659761D01*
X158506904Y-63861666D02*
X158557380Y-63836428D01*
X158658333Y-63836428D01*
X158708809Y-63861666D01*
X158734047Y-63886904D01*
X158759285Y-63937380D01*
X158759285Y-64088809D01*
X158734047Y-64139285D01*
X158708809Y-64164523D01*
X158658333Y-64189761D01*
X158557380Y-64189761D01*
X158506904Y-64164523D01*
X159213571Y-63836428D02*
X159213571Y-64189761D01*
X158986428Y-63836428D02*
X158986428Y-64114047D01*
X159011666Y-64164523D01*
X159062142Y-64189761D01*
X159137857Y-64189761D01*
X159188333Y-64164523D01*
X159213571Y-64139285D01*
X159440714Y-64164523D02*
X159491190Y-64189761D01*
X159592142Y-64189761D01*
X159642619Y-64164523D01*
X159667857Y-64114047D01*
X159667857Y-64088809D01*
X159642619Y-64038333D01*
X159592142Y-64013095D01*
X159516428Y-64013095D01*
X159465952Y-63987857D01*
X159440714Y-63937380D01*
X159440714Y-63912142D01*
X159465952Y-63861666D01*
X159516428Y-63836428D01*
X159592142Y-63836428D01*
X159642619Y-63861666D01*
X161737380Y-64189761D02*
X161737380Y-63659761D01*
X161737380Y-64164523D02*
X161686904Y-64189761D01*
X161585952Y-64189761D01*
X161535476Y-64164523D01*
X161510238Y-64139285D01*
X161485000Y-64088809D01*
X161485000Y-63937380D01*
X161510238Y-63886904D01*
X161535476Y-63861666D01*
X161585952Y-63836428D01*
X161686904Y-63836428D01*
X161737380Y-63861666D01*
X161863571Y-64240238D02*
X162267380Y-64240238D01*
X162393571Y-64189761D02*
X162393571Y-63659761D01*
X162393571Y-63861666D02*
X162444047Y-63836428D01*
X162545000Y-63836428D01*
X162595476Y-63861666D01*
X162620714Y-63886904D01*
X162645952Y-63937380D01*
X162645952Y-64088809D01*
X162620714Y-64139285D01*
X162595476Y-64164523D01*
X162545000Y-64189761D01*
X162444047Y-64189761D01*
X162393571Y-64164523D01*
X163100238Y-63836428D02*
X163100238Y-64189761D01*
X162873095Y-63836428D02*
X162873095Y-64114047D01*
X162898333Y-64164523D01*
X162948809Y-64189761D01*
X163024523Y-64189761D01*
X163075000Y-64164523D01*
X163100238Y-64139285D01*
X163327380Y-64164523D02*
X163377857Y-64189761D01*
X163478809Y-64189761D01*
X163529285Y-64164523D01*
X163554523Y-64114047D01*
X163554523Y-64088809D01*
X163529285Y-64038333D01*
X163478809Y-64013095D01*
X163403095Y-64013095D01*
X163352619Y-63987857D01*
X163327380Y-63937380D01*
X163327380Y-63912142D01*
X163352619Y-63861666D01*
X163403095Y-63836428D01*
X163478809Y-63836428D01*
X163529285Y-63861666D01*
X165346428Y-63836428D02*
X165472619Y-64189761D01*
X165598809Y-63836428D02*
X165472619Y-64189761D01*
X165422142Y-64315952D01*
X165396904Y-64341190D01*
X165346428Y-64366428D01*
X165674523Y-64240238D02*
X166078333Y-64240238D01*
X166204523Y-64189761D02*
X166204523Y-63659761D01*
X166204523Y-63861666D02*
X166255000Y-63836428D01*
X166355952Y-63836428D01*
X166406428Y-63861666D01*
X166431666Y-63886904D01*
X166456904Y-63937380D01*
X166456904Y-64088809D01*
X166431666Y-64139285D01*
X166406428Y-64164523D01*
X166355952Y-64189761D01*
X166255000Y-64189761D01*
X166204523Y-64164523D01*
X166911190Y-63836428D02*
X166911190Y-64189761D01*
X166684047Y-63836428D02*
X166684047Y-64114047D01*
X166709285Y-64164523D01*
X166759761Y-64189761D01*
X166835476Y-64189761D01*
X166885952Y-64164523D01*
X166911190Y-64139285D01*
X167138333Y-64164523D02*
X167188809Y-64189761D01*
X167289761Y-64189761D01*
X167340238Y-64164523D01*
X167365476Y-64114047D01*
X167365476Y-64088809D01*
X167340238Y-64038333D01*
X167289761Y-64013095D01*
X167214047Y-64013095D01*
X167163571Y-63987857D01*
X167138333Y-63937380D01*
X167138333Y-63912142D01*
X167163571Y-63861666D01*
X167214047Y-63836428D01*
X167289761Y-63836428D01*
X167340238Y-63861666D01*
X169157380Y-64189761D02*
X169435000Y-63836428D01*
X169157380Y-63836428D02*
X169435000Y-64189761D01*
X169510714Y-64240238D02*
X169914523Y-64240238D01*
X170040714Y-64189761D02*
X170040714Y-63659761D01*
X170040714Y-63861666D02*
X170091190Y-63836428D01*
X170192142Y-63836428D01*
X170242619Y-63861666D01*
X170267857Y-63886904D01*
X170293095Y-63937380D01*
X170293095Y-64088809D01*
X170267857Y-64139285D01*
X170242619Y-64164523D01*
X170192142Y-64189761D01*
X170091190Y-64189761D01*
X170040714Y-64164523D01*
X170747380Y-63836428D02*
X170747380Y-64189761D01*
X170520238Y-63836428D02*
X170520238Y-64114047D01*
X170545476Y-64164523D01*
X170595952Y-64189761D01*
X170671666Y-64189761D01*
X170722142Y-64164523D01*
X170747380Y-64139285D01*
X170974523Y-64164523D02*
X171025000Y-64189761D01*
X171125952Y-64189761D01*
X171176428Y-64164523D01*
X171201666Y-64114047D01*
X171201666Y-64088809D01*
X171176428Y-64038333D01*
X171125952Y-64013095D01*
X171050238Y-64013095D01*
X170999761Y-63987857D01*
X170974523Y-63937380D01*
X170974523Y-63912142D01*
X170999761Y-63861666D01*
X171050238Y-63836428D01*
X171125952Y-63836428D01*
X171176428Y-63861666D01*
D10*
X93631904Y-64383809D02*
X93197619Y-64383809D01*
X93414761Y-64383809D02*
X93414761Y-63623809D01*
X93342380Y-63732380D01*
X93270000Y-63804761D01*
X93197619Y-63840952D01*
X94319523Y-63623809D02*
X93957619Y-63623809D01*
X93921428Y-63985714D01*
X93957619Y-63949523D01*
X94030000Y-63913333D01*
X94210952Y-63913333D01*
X94283333Y-63949523D01*
X94319523Y-63985714D01*
X94355714Y-64058095D01*
X94355714Y-64239047D01*
X94319523Y-64311428D01*
X94283333Y-64347619D01*
X94210952Y-64383809D01*
X94030000Y-64383809D01*
X93957619Y-64347619D01*
X93921428Y-64311428D01*
X97395714Y-64383809D02*
X96961428Y-64383809D01*
X97178571Y-64383809D02*
X97178571Y-63623809D01*
X97106190Y-63732380D01*
X97033809Y-63804761D01*
X96961428Y-63840952D01*
X98047142Y-63877142D02*
X98047142Y-64383809D01*
X97866190Y-63587619D02*
X97685238Y-64130476D01*
X98155714Y-64130476D01*
X101159523Y-64383809D02*
X100725238Y-64383809D01*
X100942380Y-64383809D02*
X100942380Y-63623809D01*
X100870000Y-63732380D01*
X100797619Y-63804761D01*
X100725238Y-63840952D01*
X101412857Y-63623809D02*
X101883333Y-63623809D01*
X101630000Y-63913333D01*
X101738571Y-63913333D01*
X101810952Y-63949523D01*
X101847142Y-63985714D01*
X101883333Y-64058095D01*
X101883333Y-64239047D01*
X101847142Y-64311428D01*
X101810952Y-64347619D01*
X101738571Y-64383809D01*
X101521428Y-64383809D01*
X101449047Y-64347619D01*
X101412857Y-64311428D01*
X104923333Y-64383809D02*
X104489047Y-64383809D01*
X104706190Y-64383809D02*
X104706190Y-63623809D01*
X104633809Y-63732380D01*
X104561428Y-63804761D01*
X104489047Y-63840952D01*
X105212857Y-63696190D02*
X105249047Y-63660000D01*
X105321428Y-63623809D01*
X105502380Y-63623809D01*
X105574761Y-63660000D01*
X105610952Y-63696190D01*
X105647142Y-63768571D01*
X105647142Y-63840952D01*
X105610952Y-63949523D01*
X105176666Y-64383809D01*
X105647142Y-64383809D01*
X108687142Y-64383809D02*
X108252857Y-64383809D01*
X108470000Y-64383809D02*
X108470000Y-63623809D01*
X108397619Y-63732380D01*
X108325238Y-63804761D01*
X108252857Y-63840952D01*
X109410952Y-64383809D02*
X108976666Y-64383809D01*
X109193809Y-64383809D02*
X109193809Y-63623809D01*
X109121428Y-63732380D01*
X109049047Y-63804761D01*
X108976666Y-63840952D01*
X112450952Y-64383809D02*
X112016666Y-64383809D01*
X112233809Y-64383809D02*
X112233809Y-63623809D01*
X112161428Y-63732380D01*
X112089047Y-63804761D01*
X112016666Y-63840952D01*
X112921428Y-63623809D02*
X112993809Y-63623809D01*
X113066190Y-63660000D01*
X113102380Y-63696190D01*
X113138571Y-63768571D01*
X113174761Y-63913333D01*
X113174761Y-64094285D01*
X113138571Y-64239047D01*
X113102380Y-64311428D01*
X113066190Y-64347619D01*
X112993809Y-64383809D01*
X112921428Y-64383809D01*
X112849047Y-64347619D01*
X112812857Y-64311428D01*
X112776666Y-64239047D01*
X112740476Y-64094285D01*
X112740476Y-63913333D01*
X112776666Y-63768571D01*
X112812857Y-63696190D01*
X112849047Y-63660000D01*
X112921428Y-63623809D01*
X115961428Y-63623809D02*
X116033809Y-63623809D01*
X116106190Y-63660000D01*
X116142380Y-63696190D01*
X116178571Y-63768571D01*
X116214761Y-63913333D01*
X116214761Y-64094285D01*
X116178571Y-64239047D01*
X116142380Y-64311428D01*
X116106190Y-64347619D01*
X116033809Y-64383809D01*
X115961428Y-64383809D01*
X115889047Y-64347619D01*
X115852857Y-64311428D01*
X115816666Y-64239047D01*
X115780476Y-64094285D01*
X115780476Y-63913333D01*
X115816666Y-63768571D01*
X115852857Y-63696190D01*
X115889047Y-63660000D01*
X115961428Y-63623809D01*
X116576666Y-64383809D02*
X116721428Y-64383809D01*
X116793809Y-64347619D01*
X116830000Y-64311428D01*
X116902380Y-64202857D01*
X116938571Y-64058095D01*
X116938571Y-63768571D01*
X116902380Y-63696190D01*
X116866190Y-63660000D01*
X116793809Y-63623809D01*
X116649047Y-63623809D01*
X116576666Y-63660000D01*
X116540476Y-63696190D01*
X116504285Y-63768571D01*
X116504285Y-63949523D01*
X116540476Y-64021904D01*
X116576666Y-64058095D01*
X116649047Y-64094285D01*
X116793809Y-64094285D01*
X116866190Y-64058095D01*
X116902380Y-64021904D01*
X116938571Y-63949523D01*
X119725238Y-63623809D02*
X119797619Y-63623809D01*
X119870000Y-63660000D01*
X119906190Y-63696190D01*
X119942380Y-63768571D01*
X119978571Y-63913333D01*
X119978571Y-64094285D01*
X119942380Y-64239047D01*
X119906190Y-64311428D01*
X119870000Y-64347619D01*
X119797619Y-64383809D01*
X119725238Y-64383809D01*
X119652857Y-64347619D01*
X119616666Y-64311428D01*
X119580476Y-64239047D01*
X119544285Y-64094285D01*
X119544285Y-63913333D01*
X119580476Y-63768571D01*
X119616666Y-63696190D01*
X119652857Y-63660000D01*
X119725238Y-63623809D01*
X120412857Y-63949523D02*
X120340476Y-63913333D01*
X120304285Y-63877142D01*
X120268095Y-63804761D01*
X120268095Y-63768571D01*
X120304285Y-63696190D01*
X120340476Y-63660000D01*
X120412857Y-63623809D01*
X120557619Y-63623809D01*
X120630000Y-63660000D01*
X120666190Y-63696190D01*
X120702380Y-63768571D01*
X120702380Y-63804761D01*
X120666190Y-63877142D01*
X120630000Y-63913333D01*
X120557619Y-63949523D01*
X120412857Y-63949523D01*
X120340476Y-63985714D01*
X120304285Y-64021904D01*
X120268095Y-64094285D01*
X120268095Y-64239047D01*
X120304285Y-64311428D01*
X120340476Y-64347619D01*
X120412857Y-64383809D01*
X120557619Y-64383809D01*
X120630000Y-64347619D01*
X120666190Y-64311428D01*
X120702380Y-64239047D01*
X120702380Y-64094285D01*
X120666190Y-64021904D01*
X120630000Y-63985714D01*
X120557619Y-63949523D01*
D12*
X186300000Y-64000000D02*
X186300000Y-58991000D01*
X191300000Y-64000000D02*
X186300000Y-64000000D01*
X191300000Y-58991000D02*
X191300000Y-64000000D01*
X186300000Y-58991000D02*
X191300000Y-58991000D01*
X177292857Y-59050000D02*
X177150000Y-58978571D01*
X176935714Y-58978571D01*
X176721428Y-59050000D01*
X176578571Y-59192857D01*
X176507142Y-59335714D01*
X176435714Y-59621428D01*
X176435714Y-59835714D01*
X176507142Y-60121428D01*
X176578571Y-60264285D01*
X176721428Y-60407142D01*
X176935714Y-60478571D01*
X177078571Y-60478571D01*
X177292857Y-60407142D01*
X177364285Y-60335714D01*
X177364285Y-59835714D01*
X177078571Y-59835714D01*
X178578571Y-60407142D02*
X178435714Y-60478571D01*
X178150000Y-60478571D01*
X178007142Y-60407142D01*
X177935714Y-60264285D01*
X177935714Y-59692857D01*
X178007142Y-59550000D01*
X178150000Y-59478571D01*
X178435714Y-59478571D01*
X178578571Y-59550000D01*
X178650000Y-59692857D01*
X178650000Y-59835714D01*
X177935714Y-59978571D01*
X179292857Y-59478571D02*
X179292857Y-60478571D01*
X179292857Y-59621428D02*
X179364285Y-59550000D01*
X179507142Y-59478571D01*
X179721428Y-59478571D01*
X179864285Y-59550000D01*
X179935714Y-59692857D01*
X179935714Y-60478571D01*
X181221428Y-60407142D02*
X181078571Y-60478571D01*
X180792857Y-60478571D01*
X180650000Y-60407142D01*
X180578571Y-60264285D01*
X180578571Y-59692857D01*
X180650000Y-59550000D01*
X180792857Y-59478571D01*
X181078571Y-59478571D01*
X181221428Y-59550000D01*
X181292857Y-59692857D01*
X181292857Y-59835714D01*
X180578571Y-59978571D01*
X181935714Y-60478571D02*
X181935714Y-59478571D01*
X181935714Y-59764285D02*
X182007142Y-59621428D01*
X182078571Y-59550000D01*
X182221428Y-59478571D01*
X182364285Y-59478571D01*
X183507142Y-60478571D02*
X183507142Y-59692857D01*
X183435714Y-59550000D01*
X183292857Y-59478571D01*
X183007142Y-59478571D01*
X182864285Y-59550000D01*
X183507142Y-60407142D02*
X183364285Y-60478571D01*
X183007142Y-60478571D01*
X182864285Y-60407142D01*
X182792857Y-60264285D01*
X182792857Y-60121428D01*
X182864285Y-59978571D01*
X183007142Y-59907142D01*
X183364285Y-59907142D01*
X183507142Y-59835714D01*
X184435714Y-60478571D02*
X184292857Y-60407142D01*
X184221428Y-60264285D01*
X184221428Y-58978571D01*
X176257142Y-62878571D02*
X176257142Y-61378571D01*
X176828571Y-61378571D01*
X176971428Y-61450000D01*
X177042857Y-61521428D01*
X177114285Y-61664285D01*
X177114285Y-61878571D01*
X177042857Y-62021428D01*
X176971428Y-62092857D01*
X176828571Y-62164285D01*
X176257142Y-62164285D01*
X178400000Y-61878571D02*
X178400000Y-62878571D01*
X177757142Y-61878571D02*
X177757142Y-62664285D01*
X177828571Y-62807142D01*
X177971428Y-62878571D01*
X178185714Y-62878571D01*
X178328571Y-62807142D01*
X178400000Y-62735714D01*
X179114285Y-62878571D02*
X179114285Y-61878571D01*
X179114285Y-62164285D02*
X179185714Y-62021428D01*
X179257142Y-61950000D01*
X179400000Y-61878571D01*
X179542857Y-61878571D01*
X180042857Y-61878571D02*
X180042857Y-63378571D01*
X180042857Y-61950000D02*
X180185714Y-61878571D01*
X180471428Y-61878571D01*
X180614285Y-61950000D01*
X180685714Y-62021428D01*
X180757142Y-62164285D01*
X180757142Y-62592857D01*
X180685714Y-62735714D01*
X180614285Y-62807142D01*
X180471428Y-62878571D01*
X180185714Y-62878571D01*
X180042857Y-62807142D01*
X181614285Y-62878571D02*
X181471428Y-62807142D01*
X181400000Y-62735714D01*
X181328571Y-62592857D01*
X181328571Y-62164285D01*
X181400000Y-62021428D01*
X181471428Y-61950000D01*
X181614285Y-61878571D01*
X181828571Y-61878571D01*
X181971428Y-61950000D01*
X182042857Y-62021428D01*
X182114285Y-62164285D01*
X182114285Y-62592857D01*
X182042857Y-62735714D01*
X181971428Y-62807142D01*
X181828571Y-62878571D01*
X181614285Y-62878571D01*
X182685714Y-62807142D02*
X182828571Y-62878571D01*
X183114285Y-62878571D01*
X183257142Y-62807142D01*
X183328571Y-62664285D01*
X183328571Y-62592857D01*
X183257142Y-62450000D01*
X183114285Y-62378571D01*
X182900000Y-62378571D01*
X182757142Y-62307142D01*
X182685714Y-62164285D01*
X182685714Y-62092857D01*
X182757142Y-61950000D01*
X182900000Y-61878571D01*
X183114285Y-61878571D01*
X183257142Y-61950000D01*
X184542857Y-62807142D02*
X184400000Y-62878571D01*
X184114285Y-62878571D01*
X183971428Y-62807142D01*
X183900000Y-62664285D01*
X183900000Y-62092857D01*
X183971428Y-61950000D01*
X184114285Y-61878571D01*
X184400000Y-61878571D01*
X184542857Y-61950000D01*
X184614285Y-62092857D01*
X184614285Y-62235714D01*
X183900000Y-62378571D01*
X177042857Y-65278571D02*
X176542857Y-64564285D01*
X176185714Y-65278571D02*
X176185714Y-63778571D01*
X176757142Y-63778571D01*
X176900000Y-63850000D01*
X176971428Y-63921428D01*
X177042857Y-64064285D01*
X177042857Y-64278571D01*
X176971428Y-64421428D01*
X176900000Y-64492857D01*
X176757142Y-64564285D01*
X176185714Y-64564285D01*
X178257142Y-65207142D02*
X178114285Y-65278571D01*
X177828571Y-65278571D01*
X177685714Y-65207142D01*
X177614285Y-65064285D01*
X177614285Y-64492857D01*
X177685714Y-64350000D01*
X177828571Y-64278571D01*
X178114285Y-64278571D01*
X178257142Y-64350000D01*
X178328571Y-64492857D01*
X178328571Y-64635714D01*
X177614285Y-64778571D01*
X179614285Y-64278571D02*
X179614285Y-65492857D01*
X179542857Y-65635714D01*
X179471428Y-65707142D01*
X179328571Y-65778571D01*
X179114285Y-65778571D01*
X178971428Y-65707142D01*
X179614285Y-65207142D02*
X179471428Y-65278571D01*
X179185714Y-65278571D01*
X179042857Y-65207142D01*
X178971428Y-65135714D01*
X178900000Y-64992857D01*
X178900000Y-64564285D01*
X178971428Y-64421428D01*
X179042857Y-64350000D01*
X179185714Y-64278571D01*
X179471428Y-64278571D01*
X179614285Y-64350000D01*
X180328571Y-65278571D02*
X180328571Y-64278571D01*
X180328571Y-63778571D02*
X180257142Y-63850000D01*
X180328571Y-63921428D01*
X180400000Y-63850000D01*
X180328571Y-63778571D01*
X180328571Y-63921428D01*
X180971428Y-65207142D02*
X181114285Y-65278571D01*
X181400000Y-65278571D01*
X181542857Y-65207142D01*
X181614285Y-65064285D01*
X181614285Y-64992857D01*
X181542857Y-64850000D01*
X181400000Y-64778571D01*
X181185714Y-64778571D01*
X181042857Y-64707142D01*
X180971428Y-64564285D01*
X180971428Y-64492857D01*
X181042857Y-64350000D01*
X181185714Y-64278571D01*
X181400000Y-64278571D01*
X181542857Y-64350000D01*
X182042857Y-64278571D02*
X182614285Y-64278571D01*
X182257142Y-63778571D02*
X182257142Y-65064285D01*
X182328571Y-65207142D01*
X182471428Y-65278571D01*
X182614285Y-65278571D01*
X183685714Y-65207142D02*
X183542857Y-65278571D01*
X183257142Y-65278571D01*
X183114285Y-65207142D01*
X183042857Y-65064285D01*
X183042857Y-64492857D01*
X183114285Y-64350000D01*
X183257142Y-64278571D01*
X183542857Y-64278571D01*
X183685714Y-64350000D01*
X183757142Y-64492857D01*
X183757142Y-64635714D01*
X183042857Y-64778571D01*
X184400000Y-65278571D02*
X184400000Y-64278571D01*
X184400000Y-64564285D02*
X184471428Y-64421428D01*
X184542857Y-64350000D01*
X184685714Y-64278571D01*
X184828571Y-64278571D01*
D11*
X183036857Y-71446238D02*
X182989238Y-71422428D01*
X182894000Y-71422428D01*
X182846380Y-71446238D01*
X182798761Y-71493857D01*
X182774952Y-71541476D01*
X182774952Y-71636714D01*
X182798761Y-71684333D01*
X182846380Y-71731952D01*
X182894000Y-71755761D01*
X182989238Y-71755761D01*
X183036857Y-71731952D01*
X182941619Y-71255761D02*
X182822571Y-71279571D01*
X182703523Y-71351000D01*
X182632095Y-71470047D01*
X182608285Y-71589095D01*
X182632095Y-71708142D01*
X182703523Y-71827190D01*
X182822571Y-71898619D01*
X182941619Y-71922428D01*
X183060666Y-71898619D01*
X183179714Y-71827190D01*
X183251142Y-71708142D01*
X183274952Y-71589095D01*
X183251142Y-71470047D01*
X183179714Y-71351000D01*
X183060666Y-71279571D01*
X182941619Y-71255761D01*
X183846380Y-71374809D02*
X183870190Y-71351000D01*
X183917809Y-71327190D01*
X184036857Y-71327190D01*
X184084476Y-71351000D01*
X184108285Y-71374809D01*
X184132095Y-71422428D01*
X184132095Y-71470047D01*
X184108285Y-71541476D01*
X183822571Y-71827190D01*
X184132095Y-71827190D01*
X184441619Y-71327190D02*
X184489238Y-71327190D01*
X184536857Y-71351000D01*
X184560666Y-71374809D01*
X184584476Y-71422428D01*
X184608285Y-71517666D01*
X184608285Y-71636714D01*
X184584476Y-71731952D01*
X184560666Y-71779571D01*
X184536857Y-71803380D01*
X184489238Y-71827190D01*
X184441619Y-71827190D01*
X184394000Y-71803380D01*
X184370190Y-71779571D01*
X184346380Y-71731952D01*
X184322571Y-71636714D01*
X184322571Y-71517666D01*
X184346380Y-71422428D01*
X184370190Y-71374809D01*
X184394000Y-71351000D01*
X184441619Y-71327190D01*
X184798761Y-71374809D02*
X184822571Y-71351000D01*
X184870190Y-71327190D01*
X184989238Y-71327190D01*
X185036857Y-71351000D01*
X185060666Y-71374809D01*
X185084476Y-71422428D01*
X185084476Y-71470047D01*
X185060666Y-71541476D01*
X184774952Y-71827190D01*
X185084476Y-71827190D01*
X185394000Y-71327190D02*
X185441619Y-71327190D01*
X185489238Y-71351000D01*
X185513047Y-71374809D01*
X185536857Y-71422428D01*
X185560666Y-71517666D01*
X185560666Y-71636714D01*
X185536857Y-71731952D01*
X185513047Y-71779571D01*
X185489238Y-71803380D01*
X185441619Y-71827190D01*
X185394000Y-71827190D01*
X185346380Y-71803380D01*
X185322571Y-71779571D01*
X185298761Y-71731952D01*
X185274952Y-71636714D01*
X185274952Y-71517666D01*
X185298761Y-71422428D01*
X185322571Y-71374809D01*
X185346380Y-71351000D01*
X185394000Y-71327190D01*
X186441619Y-71779571D02*
X186417809Y-71803380D01*
X186346380Y-71827190D01*
X186298761Y-71827190D01*
X186227333Y-71803380D01*
X186179714Y-71755761D01*
X186155904Y-71708142D01*
X186132095Y-71612904D01*
X186132095Y-71541476D01*
X186155904Y-71446238D01*
X186179714Y-71398619D01*
X186227333Y-71351000D01*
X186298761Y-71327190D01*
X186346380Y-71327190D01*
X186417809Y-71351000D01*
X186441619Y-71374809D01*
X186655904Y-71827190D02*
X186655904Y-71327190D01*
X186870190Y-71827190D02*
X186870190Y-71565285D01*
X186846380Y-71517666D01*
X186798761Y-71493857D01*
X186727333Y-71493857D01*
X186679714Y-71517666D01*
X186655904Y-71541476D01*
X187322571Y-71827190D02*
X187322571Y-71565285D01*
X187298761Y-71517666D01*
X187251142Y-71493857D01*
X187155904Y-71493857D01*
X187108285Y-71517666D01*
X187322571Y-71803380D02*
X187274952Y-71827190D01*
X187155904Y-71827190D01*
X187108285Y-71803380D01*
X187084476Y-71755761D01*
X187084476Y-71708142D01*
X187108285Y-71660523D01*
X187155904Y-71636714D01*
X187274952Y-71636714D01*
X187322571Y-71612904D01*
X187774952Y-71827190D02*
X187774952Y-71327190D01*
X187774952Y-71803380D02*
X187727333Y-71827190D01*
X187632095Y-71827190D01*
X187584476Y-71803380D01*
X187560666Y-71779571D01*
X187536857Y-71731952D01*
X187536857Y-71589095D01*
X187560666Y-71541476D01*
X187584476Y-71517666D01*
X187632095Y-71493857D01*
X187727333Y-71493857D01*
X187774952Y-71517666D01*
X188679714Y-71827190D02*
X188513047Y-71589095D01*
X188394000Y-71827190D02*
X188394000Y-71327190D01*
X188584476Y-71327190D01*
X188632095Y-71351000D01*
X188655904Y-71374809D01*
X188679714Y-71422428D01*
X188679714Y-71493857D01*
X188655904Y-71541476D01*
X188632095Y-71565285D01*
X188584476Y-71589095D01*
X188394000Y-71589095D01*
X189084476Y-71803380D02*
X189036857Y-71827190D01*
X188941619Y-71827190D01*
X188894000Y-71803380D01*
X188870190Y-71755761D01*
X188870190Y-71565285D01*
X188894000Y-71517666D01*
X188941619Y-71493857D01*
X189036857Y-71493857D01*
X189084476Y-71517666D01*
X189108285Y-71565285D01*
X189108285Y-71612904D01*
X188870190Y-71660523D01*
X189322571Y-71827190D02*
X189322571Y-71493857D01*
X189322571Y-71541476D02*
X189346380Y-71517666D01*
X189394000Y-71493857D01*
X189465428Y-71493857D01*
X189513047Y-71517666D01*
X189536857Y-71565285D01*
X189536857Y-71827190D01*
X189536857Y-71565285D02*
X189560666Y-71517666D01*
X189608285Y-71493857D01*
X189679714Y-71493857D01*
X189727333Y-71517666D01*
X189751142Y-71565285D01*
X189751142Y-71827190D01*
X189989238Y-71493857D02*
X189989238Y-71993857D01*
X189989238Y-71517666D02*
X190036857Y-71493857D01*
X190132095Y-71493857D01*
X190179714Y-71517666D01*
X190203523Y-71541476D01*
X190227333Y-71589095D01*
X190227333Y-71731952D01*
X190203523Y-71779571D01*
X190179714Y-71803380D01*
X190132095Y-71827190D01*
X190036857Y-71827190D01*
X189989238Y-71803380D01*
X190441619Y-71493857D02*
X190441619Y-71993857D01*
X190441619Y-71517666D02*
X190489238Y-71493857D01*
X190584476Y-71493857D01*
X190632095Y-71517666D01*
X190655904Y-71541476D01*
X190679714Y-71589095D01*
X190679714Y-71731952D01*
X190655904Y-71779571D01*
X190632095Y-71803380D01*
X190584476Y-71827190D01*
X190489238Y-71827190D01*
X190441619Y-71803380D01*
D12*
X182386000Y-69596714D02*
X182314571Y-69668142D01*
X182100285Y-69739571D01*
X181957428Y-69739571D01*
X181743142Y-69668142D01*
X181600285Y-69525285D01*
X181528857Y-69382428D01*
X181457428Y-69096714D01*
X181457428Y-68882428D01*
X181528857Y-68596714D01*
X181600285Y-68453857D01*
X181743142Y-68311000D01*
X181957428Y-68239571D01*
X182100285Y-68239571D01*
X182314571Y-68311000D01*
X182386000Y-68382428D01*
X183028857Y-69739571D02*
X183028857Y-68239571D01*
X183600285Y-68239571D01*
X183743142Y-68311000D01*
X183814571Y-68382428D01*
X183886000Y-68525285D01*
X183886000Y-68739571D01*
X183814571Y-68882428D01*
X183743142Y-68953857D01*
X183600285Y-69025285D01*
X183028857Y-69025285D01*
X184528857Y-68239571D02*
X184528857Y-69453857D01*
X184600285Y-69596714D01*
X184671714Y-69668142D01*
X184814571Y-69739571D01*
X185100285Y-69739571D01*
X185243142Y-69668142D01*
X185314571Y-69596714D01*
X185386000Y-69453857D01*
X185386000Y-68239571D01*
X187886000Y-68739571D02*
X187886000Y-69739571D01*
X187243142Y-68739571D02*
X187243142Y-69525285D01*
X187314571Y-69668142D01*
X187457428Y-69739571D01*
X187671714Y-69739571D01*
X187814571Y-69668142D01*
X187886000Y-69596714D01*
X189386000Y-69739571D02*
X188528857Y-69739571D01*
X188957428Y-69739571D02*
X188957428Y-68239571D01*
X188814571Y-68453857D01*
X188671714Y-68596714D01*
X188528857Y-68668142D01*
X190671714Y-68239571D02*
X190386000Y-68239571D01*
X190243142Y-68311000D01*
X190171714Y-68382428D01*
X190028857Y-68596714D01*
X189957428Y-68882428D01*
X189957428Y-69453857D01*
X190028857Y-69596714D01*
X190100285Y-69668142D01*
X190243142Y-69739571D01*
X190528857Y-69739571D01*
X190671714Y-69668142D01*
X190743142Y-69596714D01*
X190814571Y-69453857D01*
X190814571Y-69096714D01*
X190743142Y-68953857D01*
X190671714Y-68882428D01*
X190528857Y-68811000D01*
X190243142Y-68811000D01*
X190100285Y-68882428D01*
X190028857Y-68953857D01*
X189957428Y-69096714D01*
D13*
X100750000Y-67900000D02*
X99750000Y-67900000D01*
X100750000Y-72140000D02*
X99750000Y-72140000D01*
X94940000Y-103325000D02*
X93125000Y-103325000D01*
X94940000Y-103090000D02*
X94940000Y-103325000D01*
X98800000Y-103090000D02*
X94940000Y-103090000D01*
X102660000Y-103090000D02*
X102660000Y-103325000D01*
X98800000Y-103090000D02*
X102660000Y-103090000D01*
X94940000Y-116110000D02*
X94940000Y-115875000D01*
X98800000Y-116110000D02*
X94940000Y-116110000D01*
X102660000Y-116110000D02*
X102660000Y-115875000D01*
X98800000Y-116110000D02*
X102660000Y-116110000D01*
X100165000Y-58390000D02*
X100165000Y-62450000D01*
X102435000Y-58390000D02*
X100165000Y-58390000D01*
X102435000Y-62450000D02*
X102435000Y-58390000D01*
X188353733Y-85310000D02*
X188696267Y-85310000D01*
X188353733Y-84290000D02*
X188696267Y-84290000D01*
X188153733Y-101290000D02*
X188496267Y-101290000D01*
X188153733Y-102310000D02*
X188496267Y-102310000D01*
X159803733Y-101290000D02*
X160146267Y-101290000D01*
X159803733Y-102310000D02*
X160146267Y-102310000D01*
X159808733Y-85310000D02*
X160151267Y-85310000D01*
X159808733Y-84290000D02*
X160151267Y-84290000D01*
X130953733Y-101290000D02*
X131296267Y-101290000D01*
X130953733Y-102310000D02*
X131296267Y-102310000D01*
X130953733Y-85310000D02*
X131296267Y-85310000D01*
X130953733Y-84290000D02*
X131296267Y-84290000D01*
X102428733Y-101290000D02*
X102771267Y-101290000D01*
X102428733Y-102310000D02*
X102771267Y-102310000D01*
X102428733Y-84290000D02*
X102771267Y-84290000D01*
X102428733Y-85310000D02*
X102771267Y-85310000D01*
X119271267Y-68040000D02*
X118928733Y-68040000D01*
X119271267Y-69060000D02*
X118928733Y-69060000D01*
X147671267Y-69010000D02*
X147328733Y-69010000D01*
X147671267Y-67990000D02*
X147328733Y-67990000D01*
X162471267Y-72040000D02*
X162128733Y-72040000D01*
X162471267Y-73060000D02*
X162128733Y-73060000D01*
X153385000Y-62450000D02*
X153385000Y-58390000D01*
X153385000Y-58390000D02*
X151115000Y-58390000D01*
X151115000Y-58390000D02*
X151115000Y-62450000D01*
X149635000Y-62462500D02*
X149635000Y-58402500D01*
X149635000Y-58402500D02*
X147365000Y-58402500D01*
X147365000Y-58402500D02*
X147365000Y-62462500D01*
X143615000Y-58402500D02*
X143615000Y-62462500D01*
X145885000Y-58402500D02*
X143615000Y-58402500D01*
X145885000Y-62462500D02*
X145885000Y-58402500D01*
X139865000Y-58402500D02*
X139865000Y-62462500D01*
X142135000Y-58402500D02*
X139865000Y-58402500D01*
X142135000Y-62462500D02*
X142135000Y-58402500D01*
X138385000Y-62462500D02*
X138385000Y-58402500D01*
X138385000Y-58402500D02*
X136115000Y-58402500D01*
X136115000Y-58402500D02*
X136115000Y-62462500D01*
X134635000Y-62462500D02*
X134635000Y-58402500D01*
X134635000Y-58402500D02*
X132365000Y-58402500D01*
X132365000Y-58402500D02*
X132365000Y-62462500D01*
X128615000Y-58402500D02*
X128615000Y-62462500D01*
X130885000Y-58402500D02*
X128615000Y-58402500D01*
X130885000Y-62462500D02*
X130885000Y-58402500D01*
X127135000Y-62462500D02*
X127135000Y-58402500D01*
X127135000Y-58402500D02*
X124865000Y-58402500D01*
X124865000Y-58402500D02*
X124865000Y-62462500D01*
X118865000Y-58390000D02*
X118865000Y-62450000D01*
X121135000Y-58390000D02*
X118865000Y-58390000D01*
X121135000Y-62450000D02*
X121135000Y-58390000D01*
X115115000Y-58390000D02*
X115115000Y-62450000D01*
X117385000Y-58390000D02*
X115115000Y-58390000D01*
X117385000Y-62450000D02*
X117385000Y-58390000D01*
X113635000Y-62450000D02*
X113635000Y-58390000D01*
X113635000Y-58390000D02*
X111365000Y-58390000D01*
X111365000Y-58390000D02*
X111365000Y-62450000D01*
X107615000Y-58390000D02*
X107615000Y-62450000D01*
X109885000Y-58390000D02*
X107615000Y-58390000D01*
X109885000Y-62450000D02*
X109885000Y-58390000D01*
X106135000Y-62450000D02*
X106135000Y-58390000D01*
X106135000Y-58390000D02*
X103865000Y-58390000D01*
X103865000Y-58390000D02*
X103865000Y-62450000D01*
X98785000Y-62450000D02*
X98785000Y-58390000D01*
X98785000Y-58390000D02*
X96515000Y-58390000D01*
X96515000Y-58390000D02*
X96515000Y-62450000D01*
X92765000Y-58390000D02*
X92765000Y-62450000D01*
X95035000Y-58390000D02*
X92765000Y-58390000D01*
X95035000Y-62450000D02*
X95035000Y-58390000D01*
X171235000Y-63332500D02*
X171235000Y-59272500D01*
X168965000Y-63332500D02*
X171235000Y-63332500D01*
X168965000Y-59272500D02*
X168965000Y-63332500D01*
X165165000Y-59272500D02*
X165165000Y-63332500D01*
X165165000Y-63332500D02*
X167435000Y-63332500D01*
X167435000Y-63332500D02*
X167435000Y-59272500D01*
X163635000Y-63332500D02*
X163635000Y-59272500D01*
X161365000Y-63332500D02*
X163635000Y-63332500D01*
X161365000Y-59272500D02*
X161365000Y-63332500D01*
X159835000Y-62447500D02*
X159835000Y-58387500D01*
X159835000Y-58387500D02*
X157565000Y-58387500D01*
X157565000Y-58387500D02*
X157565000Y-62447500D01*
X181480000Y-137970000D02*
X181480000Y-129720000D01*
X181480000Y-129720000D02*
X181780000Y-129720000D01*
X165080000Y-137970000D02*
X165080000Y-129770000D01*
X165080000Y-129770000D02*
X166730000Y-129770000D01*
X166730000Y-129770000D02*
X166780000Y-137970000D01*
X101530000Y-129720000D02*
X102130000Y-129720000D01*
X102130000Y-129720000D02*
X102080000Y-137970000D01*
X169580000Y-67831267D02*
X169580000Y-67488733D01*
X170600000Y-67831267D02*
X170600000Y-67488733D01*
X166800000Y-67831267D02*
X166800000Y-67488733D01*
X165780000Y-67831267D02*
X165780000Y-67488733D01*
X161980000Y-67831267D02*
X161980000Y-67488733D01*
X163000000Y-67831267D02*
X163000000Y-67488733D01*
X159200000Y-67831267D02*
X159200000Y-67488733D01*
X158180000Y-67831267D02*
X158180000Y-67488733D01*
X129300000Y-72120000D02*
X128300000Y-72120000D01*
X129300000Y-67880000D02*
X128300000Y-67880000D01*
X184800000Y-99110000D02*
X188660000Y-99110000D01*
X188660000Y-99110000D02*
X188660000Y-98875000D01*
X184800000Y-99110000D02*
X180940000Y-99110000D01*
X180940000Y-99110000D02*
X180940000Y-98875000D01*
X184800000Y-86090000D02*
X188660000Y-86090000D01*
X188660000Y-86090000D02*
X188660000Y-86325000D01*
X184800000Y-86090000D02*
X180940000Y-86090000D01*
X180940000Y-86090000D02*
X180940000Y-86325000D01*
X180940000Y-86325000D02*
X179125000Y-86325000D01*
X180740000Y-103325000D02*
X178925000Y-103325000D01*
X180740000Y-103090000D02*
X180740000Y-103325000D01*
X184600000Y-103090000D02*
X180740000Y-103090000D01*
X188460000Y-103090000D02*
X188460000Y-103325000D01*
X184600000Y-103090000D02*
X188460000Y-103090000D01*
X180740000Y-116110000D02*
X180740000Y-115875000D01*
X184600000Y-116110000D02*
X180740000Y-116110000D01*
X188460000Y-116110000D02*
X188460000Y-115875000D01*
X184600000Y-116110000D02*
X188460000Y-116110000D01*
X152340000Y-103325000D02*
X150525000Y-103325000D01*
X152340000Y-103090000D02*
X152340000Y-103325000D01*
X156200000Y-103090000D02*
X152340000Y-103090000D01*
X160060000Y-103090000D02*
X160060000Y-103325000D01*
X156200000Y-103090000D02*
X160060000Y-103090000D01*
X152340000Y-116110000D02*
X152340000Y-115875000D01*
X156200000Y-116110000D02*
X152340000Y-116110000D01*
X160060000Y-116110000D02*
X160060000Y-115875000D01*
X156200000Y-116110000D02*
X160060000Y-116110000D01*
X156200000Y-99110000D02*
X160060000Y-99110000D01*
X160060000Y-99110000D02*
X160060000Y-98875000D01*
X156200000Y-99110000D02*
X152340000Y-99110000D01*
X152340000Y-99110000D02*
X152340000Y-98875000D01*
X156200000Y-86090000D02*
X160060000Y-86090000D01*
X160060000Y-86090000D02*
X160060000Y-86325000D01*
X156200000Y-86090000D02*
X152340000Y-86090000D01*
X152340000Y-86090000D02*
X152340000Y-86325000D01*
X152340000Y-86325000D02*
X150525000Y-86325000D01*
X123540000Y-103325000D02*
X121725000Y-103325000D01*
X123540000Y-103090000D02*
X123540000Y-103325000D01*
X127400000Y-103090000D02*
X123540000Y-103090000D01*
X131260000Y-103090000D02*
X131260000Y-103325000D01*
X127400000Y-103090000D02*
X131260000Y-103090000D01*
X123540000Y-116110000D02*
X123540000Y-115875000D01*
X127400000Y-116110000D02*
X123540000Y-116110000D01*
X131260000Y-116110000D02*
X131260000Y-115875000D01*
X127400000Y-116110000D02*
X131260000Y-116110000D01*
X127400000Y-99110000D02*
X131260000Y-99110000D01*
X131260000Y-99110000D02*
X131260000Y-98875000D01*
X127400000Y-99110000D02*
X123540000Y-99110000D01*
X123540000Y-99110000D02*
X123540000Y-98875000D01*
X127400000Y-86090000D02*
X131260000Y-86090000D01*
X131260000Y-86090000D02*
X131260000Y-86325000D01*
X127400000Y-86090000D02*
X123540000Y-86090000D01*
X123540000Y-86090000D02*
X123540000Y-86325000D01*
X123540000Y-86325000D02*
X121725000Y-86325000D01*
X98800000Y-99110000D02*
X102660000Y-99110000D01*
X102660000Y-99110000D02*
X102660000Y-98875000D01*
X98800000Y-99110000D02*
X94940000Y-99110000D01*
X94940000Y-99110000D02*
X94940000Y-98875000D01*
X98800000Y-86090000D02*
X102660000Y-86090000D01*
X102660000Y-86090000D02*
X102660000Y-86325000D01*
X98800000Y-86090000D02*
X94940000Y-86090000D01*
X94940000Y-86090000D02*
X94940000Y-86325000D01*
X94940000Y-86325000D02*
X93125000Y-86325000D01*
X106940000Y-67925000D02*
X105125000Y-67925000D01*
X106940000Y-67690000D02*
X106940000Y-67925000D01*
X110800000Y-67690000D02*
X106940000Y-67690000D01*
X114660000Y-67690000D02*
X114660000Y-67925000D01*
X110800000Y-67690000D02*
X114660000Y-67690000D01*
X106940000Y-80710000D02*
X106940000Y-80475000D01*
X110800000Y-80710000D02*
X106940000Y-80710000D01*
X114660000Y-80710000D02*
X114660000Y-80475000D01*
X110800000Y-80710000D02*
X114660000Y-80710000D01*
X139200000Y-80710000D02*
X143060000Y-80710000D01*
X143060000Y-80710000D02*
X143060000Y-80475000D01*
X139200000Y-80710000D02*
X135340000Y-80710000D01*
X135340000Y-80710000D02*
X135340000Y-80475000D01*
X139200000Y-67690000D02*
X143060000Y-67690000D01*
X143060000Y-67690000D02*
X143060000Y-67925000D01*
X139200000Y-67690000D02*
X135340000Y-67690000D01*
X135340000Y-67690000D02*
X135340000Y-67925000D01*
X135340000Y-67925000D02*
X133525000Y-67925000D01*
X156250000Y-80735000D02*
X158200000Y-80735000D01*
X156250000Y-80735000D02*
X154300000Y-80735000D01*
X156250000Y-71865000D02*
X158200000Y-71865000D01*
X156250000Y-71865000D02*
X152800000Y-71865000D01*
D12*
X99559523Y-67472380D02*
X99226190Y-66996190D01*
X98988095Y-67472380D02*
X98988095Y-66472380D01*
X99369047Y-66472380D01*
X99464285Y-66520000D01*
X99511904Y-66567619D01*
X99559523Y-66662857D01*
X99559523Y-66805714D01*
X99511904Y-66900952D01*
X99464285Y-66948571D01*
X99369047Y-66996190D01*
X98988095Y-66996190D01*
X99988095Y-67472380D02*
X99988095Y-66472380D01*
X100559523Y-67472380D01*
X100559523Y-66472380D01*
X101559523Y-67472380D02*
X100988095Y-67472380D01*
X101273809Y-67472380D02*
X101273809Y-66472380D01*
X101178571Y-66615238D01*
X101083333Y-66710476D01*
X100988095Y-66758095D01*
X98038095Y-101702380D02*
X98038095Y-102511904D01*
X98085714Y-102607142D01*
X98133333Y-102654761D01*
X98228571Y-102702380D01*
X98419047Y-102702380D01*
X98514285Y-102654761D01*
X98561904Y-102607142D01*
X98609523Y-102511904D01*
X98609523Y-101702380D01*
X98990476Y-101702380D02*
X99657142Y-101702380D01*
X99228571Y-102702380D01*
X103652380Y-62064285D02*
X102652380Y-62064285D01*
X102652380Y-61826190D01*
X102700000Y-61683333D01*
X102795238Y-61588095D01*
X102890476Y-61540476D01*
X103080952Y-61492857D01*
X103223809Y-61492857D01*
X103414285Y-61540476D01*
X103509523Y-61588095D01*
X103604761Y-61683333D01*
X103652380Y-61826190D01*
X103652380Y-62064285D01*
X103652380Y-60540476D02*
X103652380Y-61111904D01*
X103652380Y-60826190D02*
X102652380Y-60826190D01*
X102795238Y-60921428D01*
X102890476Y-61016666D01*
X102938095Y-61111904D01*
X102652380Y-60207142D02*
X102652380Y-59588095D01*
X103033333Y-59921428D01*
X103033333Y-59778571D01*
X103080952Y-59683333D01*
X103128571Y-59635714D01*
X103223809Y-59588095D01*
X103461904Y-59588095D01*
X103557142Y-59635714D01*
X103604761Y-59683333D01*
X103652380Y-59778571D01*
X103652380Y-60064285D01*
X103604761Y-60159523D01*
X103557142Y-60207142D01*
X188358333Y-83727142D02*
X188310714Y-83774761D01*
X188167857Y-83822380D01*
X188072619Y-83822380D01*
X187929761Y-83774761D01*
X187834523Y-83679523D01*
X187786904Y-83584285D01*
X187739285Y-83393809D01*
X187739285Y-83250952D01*
X187786904Y-83060476D01*
X187834523Y-82965238D01*
X187929761Y-82870000D01*
X188072619Y-82822380D01*
X188167857Y-82822380D01*
X188310714Y-82870000D01*
X188358333Y-82917619D01*
X189310714Y-83822380D02*
X188739285Y-83822380D01*
X189025000Y-83822380D02*
X189025000Y-82822380D01*
X188929761Y-82965238D01*
X188834523Y-83060476D01*
X188739285Y-83108095D01*
X188158333Y-100727142D02*
X188110714Y-100774761D01*
X187967857Y-100822380D01*
X187872619Y-100822380D01*
X187729761Y-100774761D01*
X187634523Y-100679523D01*
X187586904Y-100584285D01*
X187539285Y-100393809D01*
X187539285Y-100250952D01*
X187586904Y-100060476D01*
X187634523Y-99965238D01*
X187729761Y-99870000D01*
X187872619Y-99822380D01*
X187967857Y-99822380D01*
X188110714Y-99870000D01*
X188158333Y-99917619D01*
X188539285Y-99917619D02*
X188586904Y-99870000D01*
X188682142Y-99822380D01*
X188920238Y-99822380D01*
X189015476Y-99870000D01*
X189063095Y-99917619D01*
X189110714Y-100012857D01*
X189110714Y-100108095D01*
X189063095Y-100250952D01*
X188491666Y-100822380D01*
X189110714Y-100822380D01*
X159808333Y-100727142D02*
X159760714Y-100774761D01*
X159617857Y-100822380D01*
X159522619Y-100822380D01*
X159379761Y-100774761D01*
X159284523Y-100679523D01*
X159236904Y-100584285D01*
X159189285Y-100393809D01*
X159189285Y-100250952D01*
X159236904Y-100060476D01*
X159284523Y-99965238D01*
X159379761Y-99870000D01*
X159522619Y-99822380D01*
X159617857Y-99822380D01*
X159760714Y-99870000D01*
X159808333Y-99917619D01*
X160141666Y-99822380D02*
X160760714Y-99822380D01*
X160427380Y-100203333D01*
X160570238Y-100203333D01*
X160665476Y-100250952D01*
X160713095Y-100298571D01*
X160760714Y-100393809D01*
X160760714Y-100631904D01*
X160713095Y-100727142D01*
X160665476Y-100774761D01*
X160570238Y-100822380D01*
X160284523Y-100822380D01*
X160189285Y-100774761D01*
X160141666Y-100727142D01*
X159813333Y-83727142D02*
X159765714Y-83774761D01*
X159622857Y-83822380D01*
X159527619Y-83822380D01*
X159384761Y-83774761D01*
X159289523Y-83679523D01*
X159241904Y-83584285D01*
X159194285Y-83393809D01*
X159194285Y-83250952D01*
X159241904Y-83060476D01*
X159289523Y-82965238D01*
X159384761Y-82870000D01*
X159527619Y-82822380D01*
X159622857Y-82822380D01*
X159765714Y-82870000D01*
X159813333Y-82917619D01*
X160670476Y-83155714D02*
X160670476Y-83822380D01*
X160432380Y-82774761D02*
X160194285Y-83489047D01*
X160813333Y-83489047D01*
X130958333Y-100727142D02*
X130910714Y-100774761D01*
X130767857Y-100822380D01*
X130672619Y-100822380D01*
X130529761Y-100774761D01*
X130434523Y-100679523D01*
X130386904Y-100584285D01*
X130339285Y-100393809D01*
X130339285Y-100250952D01*
X130386904Y-100060476D01*
X130434523Y-99965238D01*
X130529761Y-99870000D01*
X130672619Y-99822380D01*
X130767857Y-99822380D01*
X130910714Y-99870000D01*
X130958333Y-99917619D01*
X131863095Y-99822380D02*
X131386904Y-99822380D01*
X131339285Y-100298571D01*
X131386904Y-100250952D01*
X131482142Y-100203333D01*
X131720238Y-100203333D01*
X131815476Y-100250952D01*
X131863095Y-100298571D01*
X131910714Y-100393809D01*
X131910714Y-100631904D01*
X131863095Y-100727142D01*
X131815476Y-100774761D01*
X131720238Y-100822380D01*
X131482142Y-100822380D01*
X131386904Y-100774761D01*
X131339285Y-100727142D01*
X130958333Y-83727142D02*
X130910714Y-83774761D01*
X130767857Y-83822380D01*
X130672619Y-83822380D01*
X130529761Y-83774761D01*
X130434523Y-83679523D01*
X130386904Y-83584285D01*
X130339285Y-83393809D01*
X130339285Y-83250952D01*
X130386904Y-83060476D01*
X130434523Y-82965238D01*
X130529761Y-82870000D01*
X130672619Y-82822380D01*
X130767857Y-82822380D01*
X130910714Y-82870000D01*
X130958333Y-82917619D01*
X131815476Y-82822380D02*
X131625000Y-82822380D01*
X131529761Y-82870000D01*
X131482142Y-82917619D01*
X131386904Y-83060476D01*
X131339285Y-83250952D01*
X131339285Y-83631904D01*
X131386904Y-83727142D01*
X131434523Y-83774761D01*
X131529761Y-83822380D01*
X131720238Y-83822380D01*
X131815476Y-83774761D01*
X131863095Y-83727142D01*
X131910714Y-83631904D01*
X131910714Y-83393809D01*
X131863095Y-83298571D01*
X131815476Y-83250952D01*
X131720238Y-83203333D01*
X131529761Y-83203333D01*
X131434523Y-83250952D01*
X131386904Y-83298571D01*
X131339285Y-83393809D01*
X102433333Y-100727142D02*
X102385714Y-100774761D01*
X102242857Y-100822380D01*
X102147619Y-100822380D01*
X102004761Y-100774761D01*
X101909523Y-100679523D01*
X101861904Y-100584285D01*
X101814285Y-100393809D01*
X101814285Y-100250952D01*
X101861904Y-100060476D01*
X101909523Y-99965238D01*
X102004761Y-99870000D01*
X102147619Y-99822380D01*
X102242857Y-99822380D01*
X102385714Y-99870000D01*
X102433333Y-99917619D01*
X102766666Y-99822380D02*
X103433333Y-99822380D01*
X103004761Y-100822380D01*
X102433333Y-83727142D02*
X102385714Y-83774761D01*
X102242857Y-83822380D01*
X102147619Y-83822380D01*
X102004761Y-83774761D01*
X101909523Y-83679523D01*
X101861904Y-83584285D01*
X101814285Y-83393809D01*
X101814285Y-83250952D01*
X101861904Y-83060476D01*
X101909523Y-82965238D01*
X102004761Y-82870000D01*
X102147619Y-82822380D01*
X102242857Y-82822380D01*
X102385714Y-82870000D01*
X102433333Y-82917619D01*
X103004761Y-83250952D02*
X102909523Y-83203333D01*
X102861904Y-83155714D01*
X102814285Y-83060476D01*
X102814285Y-83012857D01*
X102861904Y-82917619D01*
X102909523Y-82870000D01*
X103004761Y-82822380D01*
X103195238Y-82822380D01*
X103290476Y-82870000D01*
X103338095Y-82917619D01*
X103385714Y-83012857D01*
X103385714Y-83060476D01*
X103338095Y-83155714D01*
X103290476Y-83203333D01*
X103195238Y-83250952D01*
X103004761Y-83250952D01*
X102909523Y-83298571D01*
X102861904Y-83346190D01*
X102814285Y-83441428D01*
X102814285Y-83631904D01*
X102861904Y-83727142D01*
X102909523Y-83774761D01*
X103004761Y-83822380D01*
X103195238Y-83822380D01*
X103290476Y-83774761D01*
X103338095Y-83727142D01*
X103385714Y-83631904D01*
X103385714Y-83441428D01*
X103338095Y-83346190D01*
X103290476Y-83298571D01*
X103195238Y-83250952D01*
X118933333Y-67507142D02*
X118885714Y-67554761D01*
X118742857Y-67602380D01*
X118647619Y-67602380D01*
X118504761Y-67554761D01*
X118409523Y-67459523D01*
X118361904Y-67364285D01*
X118314285Y-67173809D01*
X118314285Y-67030952D01*
X118361904Y-66840476D01*
X118409523Y-66745238D01*
X118504761Y-66650000D01*
X118647619Y-66602380D01*
X118742857Y-66602380D01*
X118885714Y-66650000D01*
X118933333Y-66697619D01*
X119409523Y-67602380D02*
X119600000Y-67602380D01*
X119695238Y-67554761D01*
X119742857Y-67507142D01*
X119838095Y-67364285D01*
X119885714Y-67173809D01*
X119885714Y-66792857D01*
X119838095Y-66697619D01*
X119790476Y-66650000D01*
X119695238Y-66602380D01*
X119504761Y-66602380D01*
X119409523Y-66650000D01*
X119361904Y-66697619D01*
X119314285Y-66792857D01*
X119314285Y-67030952D01*
X119361904Y-67126190D01*
X119409523Y-67173809D01*
X119504761Y-67221428D01*
X119695238Y-67221428D01*
X119790476Y-67173809D01*
X119838095Y-67126190D01*
X119885714Y-67030952D01*
X146857142Y-67457142D02*
X146809523Y-67504761D01*
X146666666Y-67552380D01*
X146571428Y-67552380D01*
X146428571Y-67504761D01*
X146333333Y-67409523D01*
X146285714Y-67314285D01*
X146238095Y-67123809D01*
X146238095Y-66980952D01*
X146285714Y-66790476D01*
X146333333Y-66695238D01*
X146428571Y-66600000D01*
X146571428Y-66552380D01*
X146666666Y-66552380D01*
X146809523Y-66600000D01*
X146857142Y-66647619D01*
X147809523Y-67552380D02*
X147238095Y-67552380D01*
X147523809Y-67552380D02*
X147523809Y-66552380D01*
X147428571Y-66695238D01*
X147333333Y-66790476D01*
X147238095Y-66838095D01*
X148428571Y-66552380D02*
X148523809Y-66552380D01*
X148619047Y-66600000D01*
X148666666Y-66647619D01*
X148714285Y-66742857D01*
X148761904Y-66933333D01*
X148761904Y-67171428D01*
X148714285Y-67361904D01*
X148666666Y-67457142D01*
X148619047Y-67504761D01*
X148523809Y-67552380D01*
X148428571Y-67552380D01*
X148333333Y-67504761D01*
X148285714Y-67457142D01*
X148238095Y-67361904D01*
X148190476Y-67171428D01*
X148190476Y-66933333D01*
X148238095Y-66742857D01*
X148285714Y-66647619D01*
X148333333Y-66600000D01*
X148428571Y-66552380D01*
X161657142Y-71507142D02*
X161609523Y-71554761D01*
X161466666Y-71602380D01*
X161371428Y-71602380D01*
X161228571Y-71554761D01*
X161133333Y-71459523D01*
X161085714Y-71364285D01*
X161038095Y-71173809D01*
X161038095Y-71030952D01*
X161085714Y-70840476D01*
X161133333Y-70745238D01*
X161228571Y-70650000D01*
X161371428Y-70602380D01*
X161466666Y-70602380D01*
X161609523Y-70650000D01*
X161657142Y-70697619D01*
X162609523Y-71602380D02*
X162038095Y-71602380D01*
X162323809Y-71602380D02*
X162323809Y-70602380D01*
X162228571Y-70745238D01*
X162133333Y-70840476D01*
X162038095Y-70888095D01*
X163561904Y-71602380D02*
X162990476Y-71602380D01*
X163276190Y-71602380D02*
X163276190Y-70602380D01*
X163180952Y-70745238D01*
X163085714Y-70840476D01*
X162990476Y-70888095D01*
X154652380Y-61588095D02*
X153652380Y-61588095D01*
X153652380Y-61350000D01*
X153700000Y-61207142D01*
X153795238Y-61111904D01*
X153890476Y-61064285D01*
X154080952Y-61016666D01*
X154223809Y-61016666D01*
X154414285Y-61064285D01*
X154509523Y-61111904D01*
X154604761Y-61207142D01*
X154652380Y-61350000D01*
X154652380Y-61588095D01*
X153652380Y-60397619D02*
X153652380Y-60302380D01*
X153700000Y-60207142D01*
X153747619Y-60159523D01*
X153842857Y-60111904D01*
X154033333Y-60064285D01*
X154271428Y-60064285D01*
X154461904Y-60111904D01*
X154557142Y-60159523D01*
X154604761Y-60207142D01*
X154652380Y-60302380D01*
X154652380Y-60397619D01*
X154604761Y-60492857D01*
X154557142Y-60540476D01*
X154461904Y-60588095D01*
X154271428Y-60635714D01*
X154033333Y-60635714D01*
X153842857Y-60588095D01*
X153747619Y-60540476D01*
X153700000Y-60492857D01*
X153652380Y-60397619D01*
X150852380Y-61600595D02*
X149852380Y-61600595D01*
X149852380Y-61362500D01*
X149900000Y-61219642D01*
X149995238Y-61124404D01*
X150090476Y-61076785D01*
X150280952Y-61029166D01*
X150423809Y-61029166D01*
X150614285Y-61076785D01*
X150709523Y-61124404D01*
X150804761Y-61219642D01*
X150852380Y-61362500D01*
X150852380Y-61600595D01*
X150852380Y-60076785D02*
X150852380Y-60648214D01*
X150852380Y-60362500D02*
X149852380Y-60362500D01*
X149995238Y-60457738D01*
X150090476Y-60552976D01*
X150138095Y-60648214D01*
X147052380Y-61538095D02*
X146052380Y-61538095D01*
X146052380Y-61300000D01*
X146100000Y-61157142D01*
X146195238Y-61061904D01*
X146290476Y-61014285D01*
X146480952Y-60966666D01*
X146623809Y-60966666D01*
X146814285Y-61014285D01*
X146909523Y-61061904D01*
X147004761Y-61157142D01*
X147052380Y-61300000D01*
X147052380Y-61538095D01*
X146147619Y-60585714D02*
X146100000Y-60538095D01*
X146052380Y-60442857D01*
X146052380Y-60204761D01*
X146100000Y-60109523D01*
X146147619Y-60061904D01*
X146242857Y-60014285D01*
X146338095Y-60014285D01*
X146480952Y-60061904D01*
X147052380Y-60633333D01*
X147052380Y-60014285D01*
X143352380Y-61600595D02*
X142352380Y-61600595D01*
X142352380Y-61362500D01*
X142400000Y-61219642D01*
X142495238Y-61124404D01*
X142590476Y-61076785D01*
X142780952Y-61029166D01*
X142923809Y-61029166D01*
X143114285Y-61076785D01*
X143209523Y-61124404D01*
X143304761Y-61219642D01*
X143352380Y-61362500D01*
X143352380Y-61600595D01*
X142352380Y-60695833D02*
X142352380Y-60076785D01*
X142733333Y-60410119D01*
X142733333Y-60267261D01*
X142780952Y-60172023D01*
X142828571Y-60124404D01*
X142923809Y-60076785D01*
X143161904Y-60076785D01*
X143257142Y-60124404D01*
X143304761Y-60172023D01*
X143352380Y-60267261D01*
X143352380Y-60552976D01*
X143304761Y-60648214D01*
X143257142Y-60695833D01*
X139652380Y-61600595D02*
X138652380Y-61600595D01*
X138652380Y-61362500D01*
X138700000Y-61219642D01*
X138795238Y-61124404D01*
X138890476Y-61076785D01*
X139080952Y-61029166D01*
X139223809Y-61029166D01*
X139414285Y-61076785D01*
X139509523Y-61124404D01*
X139604761Y-61219642D01*
X139652380Y-61362500D01*
X139652380Y-61600595D01*
X138985714Y-60172023D02*
X139652380Y-60172023D01*
X138604761Y-60410119D02*
X139319047Y-60648214D01*
X139319047Y-60029166D01*
X135852380Y-61600595D02*
X134852380Y-61600595D01*
X134852380Y-61362500D01*
X134900000Y-61219642D01*
X134995238Y-61124404D01*
X135090476Y-61076785D01*
X135280952Y-61029166D01*
X135423809Y-61029166D01*
X135614285Y-61076785D01*
X135709523Y-61124404D01*
X135804761Y-61219642D01*
X135852380Y-61362500D01*
X135852380Y-61600595D01*
X134852380Y-60124404D02*
X134852380Y-60600595D01*
X135328571Y-60648214D01*
X135280952Y-60600595D01*
X135233333Y-60505357D01*
X135233333Y-60267261D01*
X135280952Y-60172023D01*
X135328571Y-60124404D01*
X135423809Y-60076785D01*
X135661904Y-60076785D01*
X135757142Y-60124404D01*
X135804761Y-60172023D01*
X135852380Y-60267261D01*
X135852380Y-60505357D01*
X135804761Y-60600595D01*
X135757142Y-60648214D01*
X132152380Y-61600595D02*
X131152380Y-61600595D01*
X131152380Y-61362500D01*
X131200000Y-61219642D01*
X131295238Y-61124404D01*
X131390476Y-61076785D01*
X131580952Y-61029166D01*
X131723809Y-61029166D01*
X131914285Y-61076785D01*
X132009523Y-61124404D01*
X132104761Y-61219642D01*
X132152380Y-61362500D01*
X132152380Y-61600595D01*
X131152380Y-60172023D02*
X131152380Y-60362500D01*
X131200000Y-60457738D01*
X131247619Y-60505357D01*
X131390476Y-60600595D01*
X131580952Y-60648214D01*
X131961904Y-60648214D01*
X132057142Y-60600595D01*
X132104761Y-60552976D01*
X132152380Y-60457738D01*
X132152380Y-60267261D01*
X132104761Y-60172023D01*
X132057142Y-60124404D01*
X131961904Y-60076785D01*
X131723809Y-60076785D01*
X131628571Y-60124404D01*
X131580952Y-60172023D01*
X131533333Y-60267261D01*
X131533333Y-60457738D01*
X131580952Y-60552976D01*
X131628571Y-60600595D01*
X131723809Y-60648214D01*
X128352380Y-61600595D02*
X127352380Y-61600595D01*
X127352380Y-61362500D01*
X127400000Y-61219642D01*
X127495238Y-61124404D01*
X127590476Y-61076785D01*
X127780952Y-61029166D01*
X127923809Y-61029166D01*
X128114285Y-61076785D01*
X128209523Y-61124404D01*
X128304761Y-61219642D01*
X128352380Y-61362500D01*
X128352380Y-61600595D01*
X127352380Y-60695833D02*
X127352380Y-60029166D01*
X128352380Y-60457738D01*
X122352380Y-61588095D02*
X121352380Y-61588095D01*
X121352380Y-61350000D01*
X121400000Y-61207142D01*
X121495238Y-61111904D01*
X121590476Y-61064285D01*
X121780952Y-61016666D01*
X121923809Y-61016666D01*
X122114285Y-61064285D01*
X122209523Y-61111904D01*
X122304761Y-61207142D01*
X122352380Y-61350000D01*
X122352380Y-61588095D01*
X121780952Y-60445238D02*
X121733333Y-60540476D01*
X121685714Y-60588095D01*
X121590476Y-60635714D01*
X121542857Y-60635714D01*
X121447619Y-60588095D01*
X121400000Y-60540476D01*
X121352380Y-60445238D01*
X121352380Y-60254761D01*
X121400000Y-60159523D01*
X121447619Y-60111904D01*
X121542857Y-60064285D01*
X121590476Y-60064285D01*
X121685714Y-60111904D01*
X121733333Y-60159523D01*
X121780952Y-60254761D01*
X121780952Y-60445238D01*
X121828571Y-60540476D01*
X121876190Y-60588095D01*
X121971428Y-60635714D01*
X122161904Y-60635714D01*
X122257142Y-60588095D01*
X122304761Y-60540476D01*
X122352380Y-60445238D01*
X122352380Y-60254761D01*
X122304761Y-60159523D01*
X122257142Y-60111904D01*
X122161904Y-60064285D01*
X121971428Y-60064285D01*
X121876190Y-60111904D01*
X121828571Y-60159523D01*
X121780952Y-60254761D01*
X118652380Y-61588095D02*
X117652380Y-61588095D01*
X117652380Y-61350000D01*
X117700000Y-61207142D01*
X117795238Y-61111904D01*
X117890476Y-61064285D01*
X118080952Y-61016666D01*
X118223809Y-61016666D01*
X118414285Y-61064285D01*
X118509523Y-61111904D01*
X118604761Y-61207142D01*
X118652380Y-61350000D01*
X118652380Y-61588095D01*
X118652380Y-60540476D02*
X118652380Y-60350000D01*
X118604761Y-60254761D01*
X118557142Y-60207142D01*
X118414285Y-60111904D01*
X118223809Y-60064285D01*
X117842857Y-60064285D01*
X117747619Y-60111904D01*
X117700000Y-60159523D01*
X117652380Y-60254761D01*
X117652380Y-60445238D01*
X117700000Y-60540476D01*
X117747619Y-60588095D01*
X117842857Y-60635714D01*
X118080952Y-60635714D01*
X118176190Y-60588095D01*
X118223809Y-60540476D01*
X118271428Y-60445238D01*
X118271428Y-60254761D01*
X118223809Y-60159523D01*
X118176190Y-60111904D01*
X118080952Y-60064285D01*
X114852380Y-62064285D02*
X113852380Y-62064285D01*
X113852380Y-61826190D01*
X113900000Y-61683333D01*
X113995238Y-61588095D01*
X114090476Y-61540476D01*
X114280952Y-61492857D01*
X114423809Y-61492857D01*
X114614285Y-61540476D01*
X114709523Y-61588095D01*
X114804761Y-61683333D01*
X114852380Y-61826190D01*
X114852380Y-62064285D01*
X114852380Y-60540476D02*
X114852380Y-61111904D01*
X114852380Y-60826190D02*
X113852380Y-60826190D01*
X113995238Y-60921428D01*
X114090476Y-61016666D01*
X114138095Y-61111904D01*
X113852380Y-59921428D02*
X113852380Y-59826190D01*
X113900000Y-59730952D01*
X113947619Y-59683333D01*
X114042857Y-59635714D01*
X114233333Y-59588095D01*
X114471428Y-59588095D01*
X114661904Y-59635714D01*
X114757142Y-59683333D01*
X114804761Y-59730952D01*
X114852380Y-59826190D01*
X114852380Y-59921428D01*
X114804761Y-60016666D01*
X114757142Y-60064285D01*
X114661904Y-60111904D01*
X114471428Y-60159523D01*
X114233333Y-60159523D01*
X114042857Y-60111904D01*
X113947619Y-60064285D01*
X113900000Y-60016666D01*
X113852380Y-59921428D01*
X111052380Y-62064285D02*
X110052380Y-62064285D01*
X110052380Y-61826190D01*
X110100000Y-61683333D01*
X110195238Y-61588095D01*
X110290476Y-61540476D01*
X110480952Y-61492857D01*
X110623809Y-61492857D01*
X110814285Y-61540476D01*
X110909523Y-61588095D01*
X111004761Y-61683333D01*
X111052380Y-61826190D01*
X111052380Y-62064285D01*
X111052380Y-60540476D02*
X111052380Y-61111904D01*
X111052380Y-60826190D02*
X110052380Y-60826190D01*
X110195238Y-60921428D01*
X110290476Y-61016666D01*
X110338095Y-61111904D01*
X111052380Y-59588095D02*
X111052380Y-60159523D01*
X111052380Y-59873809D02*
X110052380Y-59873809D01*
X110195238Y-59969047D01*
X110290476Y-60064285D01*
X110338095Y-60159523D01*
X107352380Y-62064285D02*
X106352380Y-62064285D01*
X106352380Y-61826190D01*
X106400000Y-61683333D01*
X106495238Y-61588095D01*
X106590476Y-61540476D01*
X106780952Y-61492857D01*
X106923809Y-61492857D01*
X107114285Y-61540476D01*
X107209523Y-61588095D01*
X107304761Y-61683333D01*
X107352380Y-61826190D01*
X107352380Y-62064285D01*
X107352380Y-60540476D02*
X107352380Y-61111904D01*
X107352380Y-60826190D02*
X106352380Y-60826190D01*
X106495238Y-60921428D01*
X106590476Y-61016666D01*
X106638095Y-61111904D01*
X106447619Y-60159523D02*
X106400000Y-60111904D01*
X106352380Y-60016666D01*
X106352380Y-59778571D01*
X106400000Y-59683333D01*
X106447619Y-59635714D01*
X106542857Y-59588095D01*
X106638095Y-59588095D01*
X106780952Y-59635714D01*
X107352380Y-60207142D01*
X107352380Y-59588095D01*
X99952380Y-62064285D02*
X98952380Y-62064285D01*
X98952380Y-61826190D01*
X99000000Y-61683333D01*
X99095238Y-61588095D01*
X99190476Y-61540476D01*
X99380952Y-61492857D01*
X99523809Y-61492857D01*
X99714285Y-61540476D01*
X99809523Y-61588095D01*
X99904761Y-61683333D01*
X99952380Y-61826190D01*
X99952380Y-62064285D01*
X99952380Y-60540476D02*
X99952380Y-61111904D01*
X99952380Y-60826190D02*
X98952380Y-60826190D01*
X99095238Y-60921428D01*
X99190476Y-61016666D01*
X99238095Y-61111904D01*
X99285714Y-59683333D02*
X99952380Y-59683333D01*
X98904761Y-59921428D02*
X99619047Y-60159523D01*
X99619047Y-59540476D01*
X96252380Y-62064285D02*
X95252380Y-62064285D01*
X95252380Y-61826190D01*
X95300000Y-61683333D01*
X95395238Y-61588095D01*
X95490476Y-61540476D01*
X95680952Y-61492857D01*
X95823809Y-61492857D01*
X96014285Y-61540476D01*
X96109523Y-61588095D01*
X96204761Y-61683333D01*
X96252380Y-61826190D01*
X96252380Y-62064285D01*
X96252380Y-60540476D02*
X96252380Y-61111904D01*
X96252380Y-60826190D02*
X95252380Y-60826190D01*
X95395238Y-60921428D01*
X95490476Y-61016666D01*
X95538095Y-61111904D01*
X95252380Y-59635714D02*
X95252380Y-60111904D01*
X95728571Y-60159523D01*
X95680952Y-60111904D01*
X95633333Y-60016666D01*
X95633333Y-59778571D01*
X95680952Y-59683333D01*
X95728571Y-59635714D01*
X95823809Y-59588095D01*
X96061904Y-59588095D01*
X96157142Y-59635714D01*
X96204761Y-59683333D01*
X96252380Y-59778571D01*
X96252380Y-60016666D01*
X96204761Y-60111904D01*
X96157142Y-60159523D01*
X172452380Y-62074285D02*
X171452380Y-62074285D01*
X171452380Y-61836190D01*
X171500000Y-61693333D01*
X171595238Y-61598095D01*
X171690476Y-61550476D01*
X171880952Y-61502857D01*
X172023809Y-61502857D01*
X172214285Y-61550476D01*
X172309523Y-61598095D01*
X172404761Y-61693333D01*
X172452380Y-61836190D01*
X172452380Y-62074285D01*
X172452380Y-60550476D02*
X172452380Y-61121904D01*
X172452380Y-60836190D02*
X171452380Y-60836190D01*
X171595238Y-60931428D01*
X171690476Y-61026666D01*
X171738095Y-61121904D01*
X171452380Y-59693333D02*
X171452380Y-59883809D01*
X171500000Y-59979047D01*
X171547619Y-60026666D01*
X171690476Y-60121904D01*
X171880952Y-60169523D01*
X172261904Y-60169523D01*
X172357142Y-60121904D01*
X172404761Y-60074285D01*
X172452380Y-59979047D01*
X172452380Y-59788571D01*
X172404761Y-59693333D01*
X172357142Y-59645714D01*
X172261904Y-59598095D01*
X172023809Y-59598095D01*
X171928571Y-59645714D01*
X171880952Y-59693333D01*
X171833333Y-59788571D01*
X171833333Y-59979047D01*
X171880952Y-60074285D01*
X171928571Y-60121904D01*
X172023809Y-60169523D01*
X168652380Y-62086785D02*
X167652380Y-62086785D01*
X167652380Y-61848690D01*
X167700000Y-61705833D01*
X167795238Y-61610595D01*
X167890476Y-61562976D01*
X168080952Y-61515357D01*
X168223809Y-61515357D01*
X168414285Y-61562976D01*
X168509523Y-61610595D01*
X168604761Y-61705833D01*
X168652380Y-61848690D01*
X168652380Y-62086785D01*
X168652380Y-60562976D02*
X168652380Y-61134404D01*
X168652380Y-60848690D02*
X167652380Y-60848690D01*
X167795238Y-60943928D01*
X167890476Y-61039166D01*
X167938095Y-61134404D01*
X167652380Y-60229642D02*
X167652380Y-59562976D01*
X168652380Y-59991547D01*
X164852380Y-62074285D02*
X163852380Y-62074285D01*
X163852380Y-61836190D01*
X163900000Y-61693333D01*
X163995238Y-61598095D01*
X164090476Y-61550476D01*
X164280952Y-61502857D01*
X164423809Y-61502857D01*
X164614285Y-61550476D01*
X164709523Y-61598095D01*
X164804761Y-61693333D01*
X164852380Y-61836190D01*
X164852380Y-62074285D01*
X164852380Y-60550476D02*
X164852380Y-61121904D01*
X164852380Y-60836190D02*
X163852380Y-60836190D01*
X163995238Y-60931428D01*
X164090476Y-61026666D01*
X164138095Y-61121904D01*
X164280952Y-59979047D02*
X164233333Y-60074285D01*
X164185714Y-60121904D01*
X164090476Y-60169523D01*
X164042857Y-60169523D01*
X163947619Y-60121904D01*
X163900000Y-60074285D01*
X163852380Y-59979047D01*
X163852380Y-59788571D01*
X163900000Y-59693333D01*
X163947619Y-59645714D01*
X164042857Y-59598095D01*
X164090476Y-59598095D01*
X164185714Y-59645714D01*
X164233333Y-59693333D01*
X164280952Y-59788571D01*
X164280952Y-59979047D01*
X164328571Y-60074285D01*
X164376190Y-60121904D01*
X164471428Y-60169523D01*
X164661904Y-60169523D01*
X164757142Y-60121904D01*
X164804761Y-60074285D01*
X164852380Y-59979047D01*
X164852380Y-59788571D01*
X164804761Y-59693333D01*
X164757142Y-59645714D01*
X164661904Y-59598095D01*
X164471428Y-59598095D01*
X164376190Y-59645714D01*
X164328571Y-59693333D01*
X164280952Y-59788571D01*
X161052380Y-62061785D02*
X160052380Y-62061785D01*
X160052380Y-61823690D01*
X160100000Y-61680833D01*
X160195238Y-61585595D01*
X160290476Y-61537976D01*
X160480952Y-61490357D01*
X160623809Y-61490357D01*
X160814285Y-61537976D01*
X160909523Y-61585595D01*
X161004761Y-61680833D01*
X161052380Y-61823690D01*
X161052380Y-62061785D01*
X161052380Y-60537976D02*
X161052380Y-61109404D01*
X161052380Y-60823690D02*
X160052380Y-60823690D01*
X160195238Y-60918928D01*
X160290476Y-61014166D01*
X160338095Y-61109404D01*
X161052380Y-60061785D02*
X161052380Y-59871309D01*
X161004761Y-59776071D01*
X160957142Y-59728452D01*
X160814285Y-59633214D01*
X160623809Y-59585595D01*
X160242857Y-59585595D01*
X160147619Y-59633214D01*
X160100000Y-59680833D01*
X160052380Y-59776071D01*
X160052380Y-59966547D01*
X160100000Y-60061785D01*
X160147619Y-60109404D01*
X160242857Y-60157023D01*
X160480952Y-60157023D01*
X160576190Y-60109404D01*
X160623809Y-60061785D01*
X160671428Y-59966547D01*
X160671428Y-59776071D01*
X160623809Y-59680833D01*
X160576190Y-59633214D01*
X160480952Y-59585595D01*
X171942380Y-68302857D02*
X171466190Y-68636190D01*
X171942380Y-68874285D02*
X170942380Y-68874285D01*
X170942380Y-68493333D01*
X170990000Y-68398095D01*
X171037619Y-68350476D01*
X171132857Y-68302857D01*
X171275714Y-68302857D01*
X171370952Y-68350476D01*
X171418571Y-68398095D01*
X171466190Y-68493333D01*
X171466190Y-68874285D01*
X171942380Y-67350476D02*
X171942380Y-67921904D01*
X171942380Y-67636190D02*
X170942380Y-67636190D01*
X171085238Y-67731428D01*
X171180476Y-67826666D01*
X171228095Y-67921904D01*
X170942380Y-66493333D02*
X170942380Y-66683809D01*
X170990000Y-66779047D01*
X171037619Y-66826666D01*
X171180476Y-66921904D01*
X171370952Y-66969523D01*
X171751904Y-66969523D01*
X171847142Y-66921904D01*
X171894761Y-66874285D01*
X171942380Y-66779047D01*
X171942380Y-66588571D01*
X171894761Y-66493333D01*
X171847142Y-66445714D01*
X171751904Y-66398095D01*
X171513809Y-66398095D01*
X171418571Y-66445714D01*
X171370952Y-66493333D01*
X171323333Y-66588571D01*
X171323333Y-66779047D01*
X171370952Y-66874285D01*
X171418571Y-66921904D01*
X171513809Y-66969523D01*
X168142380Y-68302857D02*
X167666190Y-68636190D01*
X168142380Y-68874285D02*
X167142380Y-68874285D01*
X167142380Y-68493333D01*
X167190000Y-68398095D01*
X167237619Y-68350476D01*
X167332857Y-68302857D01*
X167475714Y-68302857D01*
X167570952Y-68350476D01*
X167618571Y-68398095D01*
X167666190Y-68493333D01*
X167666190Y-68874285D01*
X168142380Y-67350476D02*
X168142380Y-67921904D01*
X168142380Y-67636190D02*
X167142380Y-67636190D01*
X167285238Y-67731428D01*
X167380476Y-67826666D01*
X167428095Y-67921904D01*
X167142380Y-67017142D02*
X167142380Y-66350476D01*
X168142380Y-66779047D01*
X164342380Y-68302857D02*
X163866190Y-68636190D01*
X164342380Y-68874285D02*
X163342380Y-68874285D01*
X163342380Y-68493333D01*
X163390000Y-68398095D01*
X163437619Y-68350476D01*
X163532857Y-68302857D01*
X163675714Y-68302857D01*
X163770952Y-68350476D01*
X163818571Y-68398095D01*
X163866190Y-68493333D01*
X163866190Y-68874285D01*
X164342380Y-67350476D02*
X164342380Y-67921904D01*
X164342380Y-67636190D02*
X163342380Y-67636190D01*
X163485238Y-67731428D01*
X163580476Y-67826666D01*
X163628095Y-67921904D01*
X163770952Y-66779047D02*
X163723333Y-66874285D01*
X163675714Y-66921904D01*
X163580476Y-66969523D01*
X163532857Y-66969523D01*
X163437619Y-66921904D01*
X163390000Y-66874285D01*
X163342380Y-66779047D01*
X163342380Y-66588571D01*
X163390000Y-66493333D01*
X163437619Y-66445714D01*
X163532857Y-66398095D01*
X163580476Y-66398095D01*
X163675714Y-66445714D01*
X163723333Y-66493333D01*
X163770952Y-66588571D01*
X163770952Y-66779047D01*
X163818571Y-66874285D01*
X163866190Y-66921904D01*
X163961428Y-66969523D01*
X164151904Y-66969523D01*
X164247142Y-66921904D01*
X164294761Y-66874285D01*
X164342380Y-66779047D01*
X164342380Y-66588571D01*
X164294761Y-66493333D01*
X164247142Y-66445714D01*
X164151904Y-66398095D01*
X163961428Y-66398095D01*
X163866190Y-66445714D01*
X163818571Y-66493333D01*
X163770952Y-66588571D01*
X160542380Y-68302857D02*
X160066190Y-68636190D01*
X160542380Y-68874285D02*
X159542380Y-68874285D01*
X159542380Y-68493333D01*
X159590000Y-68398095D01*
X159637619Y-68350476D01*
X159732857Y-68302857D01*
X159875714Y-68302857D01*
X159970952Y-68350476D01*
X160018571Y-68398095D01*
X160066190Y-68493333D01*
X160066190Y-68874285D01*
X160542380Y-67350476D02*
X160542380Y-67921904D01*
X160542380Y-67636190D02*
X159542380Y-67636190D01*
X159685238Y-67731428D01*
X159780476Y-67826666D01*
X159828095Y-67921904D01*
X160542380Y-66874285D02*
X160542380Y-66683809D01*
X160494761Y-66588571D01*
X160447142Y-66540952D01*
X160304285Y-66445714D01*
X160113809Y-66398095D01*
X159732857Y-66398095D01*
X159637619Y-66445714D01*
X159590000Y-66493333D01*
X159542380Y-66588571D01*
X159542380Y-66779047D01*
X159590000Y-66874285D01*
X159637619Y-66921904D01*
X159732857Y-66969523D01*
X159970952Y-66969523D01*
X160066190Y-66921904D01*
X160113809Y-66874285D01*
X160161428Y-66779047D01*
X160161428Y-66588571D01*
X160113809Y-66493333D01*
X160066190Y-66445714D01*
X159970952Y-66398095D01*
X128109523Y-67452380D02*
X127776190Y-66976190D01*
X127538095Y-67452380D02*
X127538095Y-66452380D01*
X127919047Y-66452380D01*
X128014285Y-66500000D01*
X128061904Y-66547619D01*
X128109523Y-66642857D01*
X128109523Y-66785714D01*
X128061904Y-66880952D01*
X128014285Y-66928571D01*
X127919047Y-66976190D01*
X127538095Y-66976190D01*
X128538095Y-67452380D02*
X128538095Y-66452380D01*
X129109523Y-67452380D01*
X129109523Y-66452380D01*
X129538095Y-66547619D02*
X129585714Y-66500000D01*
X129680952Y-66452380D01*
X129919047Y-66452380D01*
X130014285Y-66500000D01*
X130061904Y-66547619D01*
X130109523Y-66642857D01*
X130109523Y-66738095D01*
X130061904Y-66880952D01*
X129490476Y-67452380D01*
X130109523Y-67452380D01*
X184038095Y-84702380D02*
X184038095Y-85511904D01*
X184085714Y-85607142D01*
X184133333Y-85654761D01*
X184228571Y-85702380D01*
X184419047Y-85702380D01*
X184514285Y-85654761D01*
X184561904Y-85607142D01*
X184609523Y-85511904D01*
X184609523Y-84702380D01*
X185609523Y-85702380D02*
X185038095Y-85702380D01*
X185323809Y-85702380D02*
X185323809Y-84702380D01*
X185228571Y-84845238D01*
X185133333Y-84940476D01*
X185038095Y-84988095D01*
X183838095Y-101702380D02*
X183838095Y-102511904D01*
X183885714Y-102607142D01*
X183933333Y-102654761D01*
X184028571Y-102702380D01*
X184219047Y-102702380D01*
X184314285Y-102654761D01*
X184361904Y-102607142D01*
X184409523Y-102511904D01*
X184409523Y-101702380D01*
X184838095Y-101797619D02*
X184885714Y-101750000D01*
X184980952Y-101702380D01*
X185219047Y-101702380D01*
X185314285Y-101750000D01*
X185361904Y-101797619D01*
X185409523Y-101892857D01*
X185409523Y-101988095D01*
X185361904Y-102130952D01*
X184790476Y-102702380D01*
X185409523Y-102702380D01*
X155438095Y-101702380D02*
X155438095Y-102511904D01*
X155485714Y-102607142D01*
X155533333Y-102654761D01*
X155628571Y-102702380D01*
X155819047Y-102702380D01*
X155914285Y-102654761D01*
X155961904Y-102607142D01*
X156009523Y-102511904D01*
X156009523Y-101702380D01*
X156390476Y-101702380D02*
X157009523Y-101702380D01*
X156676190Y-102083333D01*
X156819047Y-102083333D01*
X156914285Y-102130952D01*
X156961904Y-102178571D01*
X157009523Y-102273809D01*
X157009523Y-102511904D01*
X156961904Y-102607142D01*
X156914285Y-102654761D01*
X156819047Y-102702380D01*
X156533333Y-102702380D01*
X156438095Y-102654761D01*
X156390476Y-102607142D01*
X155438095Y-84702380D02*
X155438095Y-85511904D01*
X155485714Y-85607142D01*
X155533333Y-85654761D01*
X155628571Y-85702380D01*
X155819047Y-85702380D01*
X155914285Y-85654761D01*
X155961904Y-85607142D01*
X156009523Y-85511904D01*
X156009523Y-84702380D01*
X156914285Y-85035714D02*
X156914285Y-85702380D01*
X156676190Y-84654761D02*
X156438095Y-85369047D01*
X157057142Y-85369047D01*
X126638095Y-101702380D02*
X126638095Y-102511904D01*
X126685714Y-102607142D01*
X126733333Y-102654761D01*
X126828571Y-102702380D01*
X127019047Y-102702380D01*
X127114285Y-102654761D01*
X127161904Y-102607142D01*
X127209523Y-102511904D01*
X127209523Y-101702380D01*
X128161904Y-101702380D02*
X127685714Y-101702380D01*
X127638095Y-102178571D01*
X127685714Y-102130952D01*
X127780952Y-102083333D01*
X128019047Y-102083333D01*
X128114285Y-102130952D01*
X128161904Y-102178571D01*
X128209523Y-102273809D01*
X128209523Y-102511904D01*
X128161904Y-102607142D01*
X128114285Y-102654761D01*
X128019047Y-102702380D01*
X127780952Y-102702380D01*
X127685714Y-102654761D01*
X127638095Y-102607142D01*
X126638095Y-84702380D02*
X126638095Y-85511904D01*
X126685714Y-85607142D01*
X126733333Y-85654761D01*
X126828571Y-85702380D01*
X127019047Y-85702380D01*
X127114285Y-85654761D01*
X127161904Y-85607142D01*
X127209523Y-85511904D01*
X127209523Y-84702380D01*
X128114285Y-84702380D02*
X127923809Y-84702380D01*
X127828571Y-84750000D01*
X127780952Y-84797619D01*
X127685714Y-84940476D01*
X127638095Y-85130952D01*
X127638095Y-85511904D01*
X127685714Y-85607142D01*
X127733333Y-85654761D01*
X127828571Y-85702380D01*
X128019047Y-85702380D01*
X128114285Y-85654761D01*
X128161904Y-85607142D01*
X128209523Y-85511904D01*
X128209523Y-85273809D01*
X128161904Y-85178571D01*
X128114285Y-85130952D01*
X128019047Y-85083333D01*
X127828571Y-85083333D01*
X127733333Y-85130952D01*
X127685714Y-85178571D01*
X127638095Y-85273809D01*
X98038095Y-84702380D02*
X98038095Y-85511904D01*
X98085714Y-85607142D01*
X98133333Y-85654761D01*
X98228571Y-85702380D01*
X98419047Y-85702380D01*
X98514285Y-85654761D01*
X98561904Y-85607142D01*
X98609523Y-85511904D01*
X98609523Y-84702380D01*
X99228571Y-85130952D02*
X99133333Y-85083333D01*
X99085714Y-85035714D01*
X99038095Y-84940476D01*
X99038095Y-84892857D01*
X99085714Y-84797619D01*
X99133333Y-84750000D01*
X99228571Y-84702380D01*
X99419047Y-84702380D01*
X99514285Y-84750000D01*
X99561904Y-84797619D01*
X99609523Y-84892857D01*
X99609523Y-84940476D01*
X99561904Y-85035714D01*
X99514285Y-85083333D01*
X99419047Y-85130952D01*
X99228571Y-85130952D01*
X99133333Y-85178571D01*
X99085714Y-85226190D01*
X99038095Y-85321428D01*
X99038095Y-85511904D01*
X99085714Y-85607142D01*
X99133333Y-85654761D01*
X99228571Y-85702380D01*
X99419047Y-85702380D01*
X99514285Y-85654761D01*
X99561904Y-85607142D01*
X99609523Y-85511904D01*
X99609523Y-85321428D01*
X99561904Y-85226190D01*
X99514285Y-85178571D01*
X99419047Y-85130952D01*
X110038095Y-66302380D02*
X110038095Y-67111904D01*
X110085714Y-67207142D01*
X110133333Y-67254761D01*
X110228571Y-67302380D01*
X110419047Y-67302380D01*
X110514285Y-67254761D01*
X110561904Y-67207142D01*
X110609523Y-67111904D01*
X110609523Y-66302380D01*
X111133333Y-67302380D02*
X111323809Y-67302380D01*
X111419047Y-67254761D01*
X111466666Y-67207142D01*
X111561904Y-67064285D01*
X111609523Y-66873809D01*
X111609523Y-66492857D01*
X111561904Y-66397619D01*
X111514285Y-66350000D01*
X111419047Y-66302380D01*
X111228571Y-66302380D01*
X111133333Y-66350000D01*
X111085714Y-66397619D01*
X111038095Y-66492857D01*
X111038095Y-66730952D01*
X111085714Y-66826190D01*
X111133333Y-66873809D01*
X111228571Y-66921428D01*
X111419047Y-66921428D01*
X111514285Y-66873809D01*
X111561904Y-66826190D01*
X111609523Y-66730952D01*
X137961904Y-66302380D02*
X137961904Y-67111904D01*
X138009523Y-67207142D01*
X138057142Y-67254761D01*
X138152380Y-67302380D01*
X138342857Y-67302380D01*
X138438095Y-67254761D01*
X138485714Y-67207142D01*
X138533333Y-67111904D01*
X138533333Y-66302380D01*
X139533333Y-67302380D02*
X138961904Y-67302380D01*
X139247619Y-67302380D02*
X139247619Y-66302380D01*
X139152380Y-66445238D01*
X139057142Y-66540476D01*
X138961904Y-66588095D01*
X140152380Y-66302380D02*
X140247619Y-66302380D01*
X140342857Y-66350000D01*
X140390476Y-66397619D01*
X140438095Y-66492857D01*
X140485714Y-66683333D01*
X140485714Y-66921428D01*
X140438095Y-67111904D01*
X140390476Y-67207142D01*
X140342857Y-67254761D01*
X140247619Y-67302380D01*
X140152380Y-67302380D01*
X140057142Y-67254761D01*
X140009523Y-67207142D01*
X139961904Y-67111904D01*
X139914285Y-66921428D01*
X139914285Y-66683333D01*
X139961904Y-66492857D01*
X140009523Y-66397619D01*
X140057142Y-66350000D01*
X140152380Y-66302380D01*
X155011904Y-70472380D02*
X155011904Y-71281904D01*
X155059523Y-71377142D01*
X155107142Y-71424761D01*
X155202380Y-71472380D01*
X155392857Y-71472380D01*
X155488095Y-71424761D01*
X155535714Y-71377142D01*
X155583333Y-71281904D01*
X155583333Y-70472380D01*
X156583333Y-71472380D02*
X156011904Y-71472380D01*
X156297619Y-71472380D02*
X156297619Y-70472380D01*
X156202380Y-70615238D01*
X156107142Y-70710476D01*
X156011904Y-70758095D01*
X157535714Y-71472380D02*
X156964285Y-71472380D01*
X157250000Y-71472380D02*
X157250000Y-70472380D01*
X157154761Y-70615238D01*
X157059523Y-70710476D01*
X156964285Y-70758095D01*
M02*
