M48
; DRILL file {KiCad (5.1.8)-1} date 01/15/21 18:21:32
; FORMAT={-:-/ absolute / inch / decimal}
; #@! TF.CreationDate,2021-01-15T18:21:32-08:00
; #@! TF.GenerationSoftware,Kicad,Pcbnew,(5.1.8)-1
; #@! TF.FileFunction,Plated,1,2,PTH
FMAT,2
INCH
T1C0.0157
T2C0.0315
%
G90
G05
T1
X3.6614Y-2.9331
X3.6614Y-3.0118
X3.6614Y-3.0906
X3.6614Y-3.1713
X3.6614Y-3.3287
X3.6614Y-3.9291
X3.6614Y-4.0079
X3.6614Y-4.6673
X3.6614Y-4.7461
X3.6614Y-4.8248
X3.6614Y-4.9035
X3.7402Y-2.9331
X3.7402Y-3.0118
X3.7402Y-3.0906
X3.7402Y-3.1713
X3.7402Y-3.3287
X3.7402Y-3.9291
X3.7402Y-4.0079
X3.7402Y-4.6673
X3.7402Y-4.7461
X3.7402Y-4.8248
X3.7402Y-4.9035
X3.8006Y-3.4707
X3.8006Y-3.5209
X3.8006Y-3.5711
X3.8006Y-3.6222
X3.8006Y-3.6715
X3.8006Y-3.7207
X3.8006Y-3.7709
X3.8006Y-3.8211
X3.8006Y-4.14
X3.8006Y-4.1902
X3.8006Y-4.2404
X3.8006Y-4.2915
X3.8006Y-4.3407
X3.8006Y-4.39
X3.8006Y-4.4402
X3.8006Y-4.4904
X3.8189Y-3.9291
X3.8189Y-4.0079
X4.124Y-4.6654
X4.124Y-4.7441
X4.1661Y-4.1398
X4.1663Y-3.5207
X4.1663Y-3.5709
X4.1663Y-3.6211
X4.1663Y-3.6722
X4.1663Y-3.7215
X4.1663Y-3.7707
X4.1663Y-3.8209
X4.1663Y-3.8711
X4.1663Y-4.19
X4.1663Y-4.2402
X4.1663Y-4.2904
X4.1663Y-4.3415
X4.1663Y-4.3907
X4.1663Y-4.44
X4.1663Y-4.4902
X4.1663Y-4.5404
X4.1665Y-3.4713
X4.1732Y-3.9291
X4.1732Y-4.0079
X4.2028Y-4.6654
X4.2028Y-4.7441
X4.2323Y-3.4744
X4.2323Y-3.9291
X4.2323Y-4.0079
X4.2618Y-2.689
X4.2618Y-2.7579
X4.2618Y-2.8268
X4.2677Y-4.5522
X4.2913Y-4.6654
X4.2913Y-4.7441
X4.2992Y-4.5827
X4.3307Y-4.6142
X4.3406Y-2.689
X4.3406Y-2.748
X4.3622Y-4.6457
X4.3937Y-4.6772
X4.4193Y-2.689
X4.4252Y-4.7087
X4.4567Y-4.7402
X4.4783Y-3.25
X4.4783Y-3.3287
X4.4783Y-3.4055
X4.4882Y-4.7717
X4.5571Y-3.25
X4.5571Y-3.3287
X4.5571Y-3.4055
X4.6358Y-2.8071
X4.6358Y-2.8858
X4.6358Y-2.9646
X4.6358Y-3.25
X4.6358Y-3.3287
X4.6358Y-3.4055
X4.685Y-3.1614
X4.7146Y-3.3287
X4.7441Y-2.8839
X4.7441Y-2.9626
X4.7441Y-3.0413
X4.7539Y-2.5512
X4.7539Y-2.6299
X4.7933Y-3.3287
X4.8228Y-2.9626
X4.8228Y-3.0413
X4.8425Y-2.3346
X4.8425Y-2.4134
X4.8425Y-2.4921
X4.872Y-3.3287
X4.9016Y-3.0413
X4.9409Y-3.9862
X4.9409Y-4.065
X4.9409Y-4.1457
X4.9508Y-2.8858
X4.9508Y-3.3287
X5.0197Y-3.9862
X5.0197Y-4.065
X5.0197Y-4.1457
X5.0295Y-2.8858
X5.0295Y-2.9646
X5.0984Y-4.1457
X5.1083Y-2.8858
X5.1083Y-2.9646
X5.1083Y-3.0433
X5.2756Y-4.815
X5.2923Y-3.5207
X5.2923Y-3.5709
X5.2923Y-3.6211
X5.2923Y-3.6722
X5.2923Y-3.7215
X5.2923Y-3.7707
X5.2923Y-3.8209
X5.2923Y-3.8711
X5.2923Y-4.19
X5.2923Y-4.2402
X5.2923Y-4.2904
X5.2923Y-4.3415
X5.2923Y-4.3907
X5.2923Y-4.44
X5.2923Y-4.4902
X5.2923Y-4.5404
X5.2925Y-3.4713
X5.3071Y-4.8465
X5.3386Y-4.878
X5.3445Y-3.9291
X5.3445Y-4.0079
X5.3445Y-4.0866
X5.3701Y-4.9094
X5.3839Y-4.5787
X5.3937Y-2.689
X5.3937Y-2.7579
X5.3937Y-2.8268
X5.4016Y-4.9409
X5.4232Y-3.9291
X5.4232Y-4.0079
X5.4232Y-4.0866
X5.4331Y-4.9724
X5.4646Y-5.0039
X5.4724Y-2.689
X5.4724Y-2.7579
X5.4882Y-3.9134
X5.4961Y-5.0354
X5.5197Y-3.9449
X5.5512Y-2.689
X5.5512Y-3.9764
X5.5827Y-4.0079
X5.6004Y-3.3287
X5.6004Y-3.4075
X5.6142Y-4.0394
X5.6457Y-4.0709
X5.6772Y-4.1024
X5.6791Y-3.3287
X5.6791Y-3.4075
X5.7087Y-4.1339
X5.7579Y-3.3287
X5.7579Y-3.4075
X5.8203Y-3.1482
X5.8366Y-3.3287
X5.8366Y-3.4075
X5.9252Y-2.689
X5.9252Y-2.748
X5.9646Y-3.0531
X5.9646Y-4.8248
X5.9744Y-3.1614
X6.0039Y-2.689
X6.0039Y-2.748
X6.0236Y-4.8248
X6.0531Y-3.2106
X6.063Y-3.3169
X6.0827Y-2.689
X6.0827Y-2.748
X6.1079Y-4.8268
X6.122Y-2.3346
X6.122Y-2.4134
X6.122Y-2.4921
X6.1303Y-2.9039
X6.1579Y-4.8264
X6.1614Y-2.689
X6.1614Y-2.748
X6.163Y-3.2071
X6.1713Y-3.4075
X6.2079Y-4.8268
X6.248Y-2.7531
X6.25Y-3.4075
X6.2579Y-4.8268
X6.3079Y-4.8268
X6.3553Y-2.9537
X6.3555Y-3.1043
X6.3579Y-4.8268
X6.3976Y-2.7531
X6.4079Y-4.8268
X6.4083Y-2.9535
X6.4262Y-3.5207
X6.4262Y-3.5709
X6.4262Y-3.6211
X6.4262Y-3.6722
X6.4262Y-3.7215
X6.4262Y-3.7707
X6.4262Y-3.8209
X6.4262Y-3.8711
X6.4262Y-4.19
X6.4262Y-4.2402
X6.4262Y-4.2904
X6.4262Y-4.3415
X6.4262Y-4.3907
X6.4262Y-4.44
X6.4262Y-4.4902
X6.4262Y-4.5404
X6.4264Y-3.4709
X6.437Y-4.5984
X6.4579Y-4.8268
X6.4598Y-2.9535
X6.5079Y-4.9222
X6.5551Y-3.061
X6.5551Y-3.1417
X6.5551Y-3.2205
X6.5581Y-4.8268
X6.5984Y-3.9134
X6.6299Y-3.9449
X6.6339Y-3.061
X6.6339Y-3.1417
X6.6339Y-3.2205
X6.6354Y-4.622
X6.6614Y-3.9764
X6.6654Y-4.9724
X6.6854Y-4.6217
X6.6929Y-4.0079
X6.7047Y-4.9724
X6.7047Y-5.0118
X6.7047Y-5.0512
X6.7126Y-2.7579
X6.7126Y-2.8268
X6.7126Y-2.9055
X6.7126Y-3.1417
X6.7224Y-3.4075
X6.7244Y-4.0394
X6.7354Y-4.622
X6.7441Y-5.0118
X6.7441Y-5.0512
X6.7559Y-4.0709
X6.7854Y-4.622
X6.7874Y-4.1024
X6.7913Y-2.7579
X6.7913Y-2.8268
X6.7913Y-2.9055
X6.7913Y-2.9843
X6.8012Y-3.3366
X6.8012Y-3.4075
X6.815Y-5.0157
X6.8189Y-4.1339
X6.8354Y-4.622
X6.8799Y-3.3366
X6.8799Y-3.4075
X6.8799Y-3.9291
X6.8799Y-4.0079
X6.8854Y-4.622
X6.9094Y-4.8248
X6.9094Y-4.9035
X6.9354Y-4.622
X6.9587Y-2.8937
X6.9587Y-2.9724
X6.9587Y-3.0531
X6.9587Y-3.1417
X6.9587Y-3.3366
X6.9587Y-3.4075
X6.9587Y-3.9291
X6.9587Y-4.0079
X6.9854Y-4.622
X6.9882Y-4.9035
X6.9882Y-4.9803
X6.998Y-4.8228
X7.0374Y-2.8937
X7.0374Y-2.9724
X7.0374Y-3.0531
X7.0374Y-3.1417
X7.0374Y-3.9291
X7.0374Y-4.0079
X7.0669Y-4.6555
X7.0669Y-4.6949
X7.0669Y-4.8248
X7.0669Y-4.9035
X7.0669Y-4.9803
X7.0669Y-5.0591
X7.126Y-2.8937
X7.126Y-2.9724
X7.126Y-3.0531
X7.126Y-3.1417
X7.126Y-3.9291
X7.126Y-4.0079
X7.1457Y-4.6555
X7.1457Y-4.6949
X7.1457Y-4.8248
X7.1457Y-4.9035
X7.1457Y-4.9803
X7.2047Y-2.8937
X7.2047Y-2.9724
X7.2047Y-3.0531
X7.2047Y-3.1417
X7.2146Y-3.9291
X7.2638Y-4.9035
X7.2638Y-4.9803
X7.2835Y-2.8937
X7.2835Y-2.9724
X7.2835Y-3.0531
X7.2835Y-3.1417
X7.2933Y-3.9291
X7.311Y-3.5207
X7.311Y-3.5709
X7.311Y-3.6211
X7.311Y-3.6703
X7.311Y-3.7195
X7.311Y-3.7707
X7.311Y-3.8209
X7.311Y-3.8711
X7.311Y-4.1909
X7.311Y-4.2411
X7.311Y-4.2913
X7.311Y-4.3406
X7.311Y-4.3898
X7.311Y-4.4409
X7.311Y-4.4911
X7.311Y-4.5413
X7.3425Y-4.9035
X7.3425Y-4.9803
X7.372Y-2.8937
X7.372Y-2.9724
X7.372Y-3.0531
X7.372Y-3.1417
X7.4213Y-4.9035
X7.4213Y-4.9803
X7.4508Y-2.8937
X7.4508Y-2.9724
X7.4508Y-3.0531
X7.4508Y-3.1417
X7.4606Y-3.939
X7.4606Y-4.6083
X7.5Y-4.9035
X7.5Y-4.9803
T2
X6.6075Y-5.0429
X7.2165Y-5.0276
T0
M30
