M48
; DRILL file {KiCad (5.1.8)-1} date 11/30/20 17:22:32
; FORMAT={-:-/ absolute / inch / decimal}
; #@! TF.CreationDate,2020-11-30T17:22:32-08:00
; #@! TF.GenerationSoftware,Kicad,Pcbnew,(5.1.8)-1
; #@! TF.FileFunction,Plated,1,2,PTH
FMAT,2
INCH
T1C0.0315
T2C0.0394
T3C0.0402
%
G90
G05
T1
X7.6406Y-3.761
X7.6406Y-3.8602
T2
X6.4409Y-4.622
X6.5409Y-4.622
X6.6409Y-4.622
X6.7409Y-4.622
X6.8409Y-4.622
X6.9409Y-4.622
X7.0409Y-4.622
X7.1409Y-4.622
X7.2409Y-4.622
X7.3409Y-4.622
X7.4409Y-4.622
X7.5409Y-4.622
X7.6409Y-4.622
X7.7409Y-4.622
X7.8409Y-4.622
X7.9409Y-4.622
X4.7795Y-4.622
X4.8795Y-4.622
X4.9795Y-4.622
X5.0795Y-4.622
X5.1795Y-4.622
X5.2795Y-4.622
X5.3795Y-4.622
X5.4795Y-4.622
X5.5795Y-4.622
X5.6795Y-4.622
X5.7795Y-4.622
X5.8795Y-4.622
X5.9795Y-4.622
X6.0795Y-4.622
X6.1795Y-4.622
X6.2795Y-4.622
X3.126Y-4.622
X3.226Y-4.622
X3.326Y-4.622
X3.426Y-4.622
X3.526Y-4.622
X3.626Y-4.622
X3.726Y-4.622
X3.826Y-4.622
X3.926Y-4.622
X4.026Y-4.622
X4.126Y-4.622
X4.226Y-4.622
X4.326Y-4.622
X4.426Y-4.622
X4.526Y-4.622
X4.626Y-4.622
X8.3409Y-3.0
X8.4409Y-3.0
X8.5409Y-3.0
X8.6409Y-3.0
X8.7409Y-3.0
X8.8409Y-3.0
X8.9409Y-3.0
X2.9685Y-4.622
X6.4409Y-3.0
X6.5409Y-3.0
X6.6409Y-3.0
X6.7409Y-3.0
X6.8409Y-3.0
X6.9409Y-3.0
X7.0409Y-3.0
X7.1409Y-3.0
X7.2409Y-3.0
X7.3409Y-3.0
X7.4409Y-3.0
X7.5409Y-3.0
X7.6409Y-3.0
X7.7409Y-3.0
X7.8409Y-3.0
X7.9409Y-3.0
X8.3409Y-4.622
X8.4409Y-4.622
X8.5409Y-4.622
X8.6409Y-4.622
X8.7409Y-4.622
X8.8409Y-4.622
X8.9409Y-4.622
X4.7835Y-3.0
X4.8835Y-3.0
X4.9835Y-3.0
X5.0835Y-3.0
X5.1835Y-3.0
X5.2835Y-3.0
X5.3835Y-3.0
X5.4835Y-3.0
X5.5835Y-3.0
X5.6835Y-3.0
X5.7835Y-3.0
X5.8835Y-3.0
X5.9835Y-3.0
X6.0835Y-3.0
X6.1835Y-3.0
X6.2835Y-3.0
X3.126Y-3.0
X3.226Y-3.0
X3.326Y-3.0
X3.426Y-3.0
X3.526Y-3.0
X3.626Y-3.0
X3.726Y-3.0
X3.826Y-3.0
X3.926Y-3.0
X4.026Y-3.0
X4.126Y-3.0
X4.226Y-3.0
X4.326Y-3.0
X4.426Y-3.0
X4.526Y-3.0
X4.626Y-3.0
X8.9409Y-3.7598
X8.9409Y-3.8598
X2.9685Y-3.0
T3
X4.3254Y-3.661
X4.3254Y-3.861
X4.3754Y-3.761
X4.3754Y-3.961
X4.4254Y-3.661
X4.4254Y-3.861
X4.4754Y-3.761
X4.4754Y-3.961
X4.5254Y-3.661
X4.5254Y-3.861
X4.5754Y-3.761
X4.5754Y-3.961
X4.6254Y-3.661
X4.6254Y-3.861
X4.6754Y-3.761
X4.6754Y-3.961
X4.7254Y-3.661
X4.7254Y-3.861
X4.7754Y-3.761
X4.7754Y-3.961
X4.8254Y-3.661
X4.8254Y-3.861
X4.8754Y-3.761
X4.8754Y-3.961
X4.9254Y-3.661
X4.9254Y-3.861
X4.9754Y-3.761
X4.9754Y-3.961
X5.0254Y-3.661
X5.0254Y-3.861
X5.0754Y-3.761
X5.0754Y-3.961
X5.1254Y-3.661
X5.1254Y-3.861
X5.1754Y-3.761
X5.1754Y-3.961
X5.2254Y-3.661
X5.2254Y-3.861
X5.2754Y-3.761
X5.2754Y-3.961
X5.3254Y-3.661
X5.3254Y-3.861
X5.3754Y-3.761
X5.3754Y-3.961
X5.4254Y-3.661
X5.4254Y-3.861
X5.4754Y-3.761
X5.4754Y-3.961
X5.5254Y-3.661
X5.5254Y-3.861
X5.5754Y-3.761
X5.5754Y-3.961
X5.6254Y-3.661
X5.6254Y-3.861
X5.6754Y-3.761
X5.6754Y-3.961
X5.7254Y-3.661
X5.7254Y-3.861
X5.7754Y-3.761
X5.7754Y-3.961
X5.8254Y-3.661
X5.8254Y-3.861
X5.8754Y-3.761
X5.8754Y-3.961
X5.9254Y-3.661
X5.9254Y-3.861
X5.9754Y-3.761
X5.9754Y-3.961
X6.0254Y-3.661
X6.0254Y-3.861
X6.0754Y-3.761
X6.0754Y-3.961
X6.1254Y-3.661
X6.1254Y-3.861
X6.1754Y-3.761
X6.1754Y-3.961
X6.2254Y-3.661
X6.2254Y-3.861
X6.2754Y-3.761
X6.2754Y-3.961
X6.3254Y-3.661
X6.3254Y-3.861
X6.3754Y-3.761
X6.3754Y-3.961
X6.4254Y-3.661
X6.4254Y-3.861
X6.4754Y-3.761
X6.4754Y-3.961
X6.5254Y-3.661
X6.5254Y-3.861
X6.5754Y-3.761
X6.5754Y-3.961
X6.6254Y-3.661
X6.6254Y-3.861
X6.6754Y-3.761
X6.6754Y-3.961
X6.725Y-3.661
X6.725Y-3.861
X6.8754Y-3.761
X6.8754Y-3.961
X6.9254Y-3.661
X6.9254Y-3.861
X6.9754Y-3.761
X6.9754Y-3.961
X7.0254Y-3.661
X7.0254Y-3.861
X7.0754Y-3.761
X7.0754Y-3.961
X7.1254Y-3.661
X7.1254Y-3.861
X7.1754Y-3.761
X7.1754Y-3.961
X7.2254Y-3.661
X7.2254Y-3.861
X7.2754Y-3.761
X7.2754Y-3.961
X7.3254Y-3.661
X7.3254Y-3.861
X7.3754Y-3.761
X7.3754Y-3.961
T0
M30
