%TF.GenerationSoftware,KiCad,Pcbnew,(5.1.8)-1*%
%TF.CreationDate,2020-11-30T17:22:19-08:00*%
%TF.ProjectId,BreakOutBoard,42726561-6b4f-4757-9442-6f6172642e6b,rev?*%
%TF.SameCoordinates,Original*%
%TF.FileFunction,Copper,L2,Bot*%
%TF.FilePolarity,Positive*%
%FSLAX46Y46*%
G04 Gerber Fmt 4.6, Leading zero omitted, Abs format (unit mm)*
G04 Created by KiCad (PCBNEW (5.1.8)-1) date 2020-11-30 17:22:19*
%MOMM*%
%LPD*%
G01*
G04 APERTURE LIST*
%TA.AperFunction,ComponentPad*%
%ADD10R,1.700000X1.700000*%
%TD*%
%TA.AperFunction,ComponentPad*%
%ADD11O,1.700000X1.700000*%
%TD*%
%TA.AperFunction,ComponentPad*%
%ADD12C,1.530000*%
%TD*%
%TA.AperFunction,ComponentPad*%
%ADD13R,1.530000X1.530000*%
%TD*%
%TA.AperFunction,ViaPad*%
%ADD14C,1.600000*%
%TD*%
%TA.AperFunction,Conductor*%
%ADD15C,0.500000*%
%TD*%
G04 APERTURE END LIST*
D10*
%TO.P,J3,1*%
%TO.N,+5V*%
X227100000Y-95500000D03*
D11*
%TO.P,J3,2*%
%TO.N,GND*%
X227100000Y-98040000D03*
%TD*%
D12*
%TO.P,J8,B62*%
%TO.N,+5V*%
X187335000Y-100610000D03*
%TO.P,J8,B61*%
%TO.N,GND*%
X186065000Y-98070000D03*
%TO.P,J8,B60*%
%TO.N,/CLK*%
X184795000Y-100610000D03*
%TO.P,J8,B59*%
%TO.N,/~CLK*%
X183525000Y-98070000D03*
%TO.P,J8,B58*%
%TO.N,/HLT*%
X182255000Y-100610000D03*
%TO.P,J8,B57*%
%TO.N,/DBG*%
X180985000Y-98070000D03*
%TO.P,J8,B56*%
%TO.N,/RST*%
X179715000Y-100610000D03*
%TO.P,J8,B55*%
%TO.N,/B55*%
X178445000Y-98070000D03*
%TO.P,J8,B54*%
%TO.N,/B54*%
X177175000Y-100610000D03*
%TO.P,J8,B53*%
%TO.N,GND*%
X175905000Y-98070000D03*
%TO.P,J8,B52*%
%TO.N,+5V*%
X174635000Y-100610000D03*
%TO.P,J8,B49*%
%TO.N,/B49*%
X170815000Y-98070000D03*
%TO.P,J8,B48*%
%TO.N,/B48*%
X169555000Y-100610000D03*
%TO.P,J8,B47*%
%TO.N,/B47*%
X168285000Y-98070000D03*
%TO.P,J8,B46*%
%TO.N,/B46*%
X167015000Y-100610000D03*
%TO.P,J8,B45*%
%TO.N,/B45*%
X165745000Y-98070000D03*
%TO.P,J8,B44*%
%TO.N,/B44*%
X164475000Y-100610000D03*
%TO.P,J8,B43*%
%TO.N,/B43*%
X163205000Y-98070000D03*
%TO.P,J8,B42*%
%TO.N,/B42*%
X161935000Y-100610000D03*
%TO.P,J8,B41*%
%TO.N,/B41*%
X160665000Y-98070000D03*
%TO.P,J8,B40*%
%TO.N,/B40*%
X159395000Y-100610000D03*
%TO.P,J8,B39*%
%TO.N,/B39*%
X158125000Y-98070000D03*
%TO.P,J8,B38*%
%TO.N,/B38*%
X156855000Y-100610000D03*
%TO.P,J8,B37*%
%TO.N,/B37*%
X155585000Y-98070000D03*
%TO.P,J8,B36*%
%TO.N,/B36*%
X154315000Y-100610000D03*
%TO.P,J8,B35*%
%TO.N,/B35*%
X153045000Y-98070000D03*
%TO.P,J8,B34*%
%TO.N,/B34*%
X151775000Y-100610000D03*
%TO.P,J8,B33*%
%TO.N,/B33*%
X150505000Y-98070000D03*
%TO.P,J8,B32*%
%TO.N,/B32*%
X149235000Y-100610000D03*
%TO.P,J8,B31*%
%TO.N,/B31*%
X147965000Y-98070000D03*
%TO.P,J8,B30*%
%TO.N,/B30*%
X146695000Y-100610000D03*
%TO.P,J8,B29*%
%TO.N,/B29*%
X145425000Y-98070000D03*
%TO.P,J8,B28*%
%TO.N,/B28*%
X144155000Y-100610000D03*
%TO.P,J8,B27*%
%TO.N,/B27*%
X142885000Y-98070000D03*
%TO.P,J8,B26*%
%TO.N,/B26*%
X141615000Y-100610000D03*
%TO.P,J8,B25*%
%TO.N,/B25*%
X140345000Y-98070000D03*
%TO.P,J8,B24*%
%TO.N,/B24*%
X139075000Y-100610000D03*
%TO.P,J8,B23*%
%TO.N,/B23*%
X137805000Y-98070000D03*
%TO.P,J8,B22*%
%TO.N,/B22*%
X136535000Y-100610000D03*
%TO.P,J8,B21*%
%TO.N,/B21*%
X135265000Y-98070000D03*
%TO.P,J8,B20*%
%TO.N,/B20*%
X133995000Y-100610000D03*
%TO.P,J8,B19*%
%TO.N,/B19*%
X132725000Y-98070000D03*
%TO.P,J8,B18*%
%TO.N,/B18*%
X131455000Y-100610000D03*
%TO.P,J8,B17*%
%TO.N,/B17*%
X130185000Y-98070000D03*
%TO.P,J8,B16*%
%TO.N,/B16*%
X128915000Y-100610000D03*
%TO.P,J8,B15*%
%TO.N,/B15*%
X127645000Y-98070000D03*
%TO.P,J8,B14*%
%TO.N,/B14*%
X126375000Y-100610000D03*
%TO.P,J8,B13*%
%TO.N,/B13*%
X125105000Y-98070000D03*
%TO.P,J8,B12*%
%TO.N,/B12*%
X123835000Y-100610000D03*
%TO.P,J8,B11*%
%TO.N,/B11*%
X122565000Y-98070000D03*
%TO.P,J8,B10*%
%TO.N,/B10*%
X121295000Y-100610000D03*
%TO.P,J8,B9*%
%TO.N,/B9*%
X120025000Y-98070000D03*
%TO.P,J8,B8*%
%TO.N,/B8*%
X118755000Y-100610000D03*
%TO.P,J8,B7*%
%TO.N,/B7*%
X117485000Y-98070000D03*
%TO.P,J8,B6*%
%TO.N,/B6*%
X116215000Y-100610000D03*
%TO.P,J8,B5*%
%TO.N,/B5*%
X114945000Y-98070000D03*
%TO.P,J8,B4*%
%TO.N,/B4*%
X113675000Y-100610000D03*
%TO.P,J8,B3*%
%TO.N,/B3*%
X112405000Y-98070000D03*
%TO.P,J8,B2*%
%TO.N,/B2*%
X111135000Y-100610000D03*
%TO.P,J8,B1*%
%TO.N,/B1*%
X109865000Y-98070000D03*
%TO.P,J8,A62*%
%TO.N,+5V*%
X187335000Y-95530000D03*
%TO.P,J8,A61*%
%TO.N,GND*%
X186065000Y-92990000D03*
%TO.P,J8,A60*%
%TO.N,/A60*%
X184795000Y-95530000D03*
%TO.P,J8,A59*%
%TO.N,/A59*%
X183525000Y-92990000D03*
%TO.P,J8,A58*%
%TO.N,/A58*%
X182255000Y-95530000D03*
%TO.P,J8,A57*%
%TO.N,/A57*%
X180985000Y-92990000D03*
%TO.P,J8,A56*%
%TO.N,/A56*%
X179715000Y-95530000D03*
%TO.P,J8,A55*%
%TO.N,/A55*%
X178445000Y-92990000D03*
%TO.P,J8,A54*%
%TO.N,/A54*%
X177175000Y-95530000D03*
%TO.P,J8,A53*%
%TO.N,GND*%
X175905000Y-92990000D03*
%TO.P,J8,A52*%
%TO.N,+5V*%
X174635000Y-95530000D03*
%TO.P,J8,A49*%
%TO.N,/A49*%
X170815000Y-92990000D03*
%TO.P,J8,A48*%
%TO.N,/A48*%
X169555000Y-95530000D03*
%TO.P,J8,A47*%
%TO.N,/A47*%
X168285000Y-92990000D03*
%TO.P,J8,A46*%
%TO.N,/A46*%
X167015000Y-95530000D03*
%TO.P,J8,A45*%
%TO.N,/A45*%
X165745000Y-92990000D03*
%TO.P,J8,A44*%
%TO.N,/A44*%
X164475000Y-95530000D03*
%TO.P,J8,A43*%
%TO.N,/A43*%
X163205000Y-92990000D03*
%TO.P,J8,A42*%
%TO.N,/A42*%
X161935000Y-95530000D03*
%TO.P,J8,A41*%
%TO.N,/A41*%
X160665000Y-92990000D03*
%TO.P,J8,A40*%
%TO.N,/A40*%
X159395000Y-95530000D03*
%TO.P,J8,A39*%
%TO.N,/A39*%
X158125000Y-92990000D03*
%TO.P,J8,A38*%
%TO.N,/A38*%
X156855000Y-95530000D03*
%TO.P,J8,A37*%
%TO.N,/A37*%
X155585000Y-92990000D03*
%TO.P,J8,A36*%
%TO.N,/A36*%
X154315000Y-95530000D03*
%TO.P,J8,A35*%
%TO.N,/A35*%
X153045000Y-92990000D03*
%TO.P,J8,A34*%
%TO.N,/A34*%
X151775000Y-95530000D03*
%TO.P,J8,A33*%
%TO.N,/A33*%
X150505000Y-92990000D03*
%TO.P,J8,A32*%
%TO.N,/A32*%
X149235000Y-95530000D03*
%TO.P,J8,A31*%
%TO.N,/A31*%
X147965000Y-92990000D03*
%TO.P,J8,A30*%
%TO.N,/A30*%
X146695000Y-95530000D03*
%TO.P,J8,A29*%
%TO.N,/A29*%
X145425000Y-92990000D03*
%TO.P,J8,A28*%
%TO.N,/A28*%
X144155000Y-95530000D03*
%TO.P,J8,A27*%
%TO.N,/A27*%
X142885000Y-92990000D03*
%TO.P,J8,A26*%
%TO.N,/A26*%
X141615000Y-95530000D03*
%TO.P,J8,A25*%
%TO.N,/A25*%
X140345000Y-92990000D03*
%TO.P,J8,A24*%
%TO.N,/A24*%
X139075000Y-95530000D03*
%TO.P,J8,A23*%
%TO.N,/A23*%
X137805000Y-92990000D03*
%TO.P,J8,A22*%
%TO.N,/A22*%
X136535000Y-95530000D03*
%TO.P,J8,A21*%
%TO.N,/A21*%
X135265000Y-92990000D03*
%TO.P,J8,A20*%
%TO.N,/A20*%
X133995000Y-95530000D03*
%TO.P,J8,A19*%
%TO.N,/A19*%
X132725000Y-92990000D03*
%TO.P,J8,A18*%
%TO.N,/A18*%
X131455000Y-95530000D03*
%TO.P,J8,A17*%
%TO.N,/A17*%
X130185000Y-92990000D03*
%TO.P,J8,A16*%
%TO.N,/A16*%
X128915000Y-95530000D03*
%TO.P,J8,A15*%
%TO.N,/A15*%
X127645000Y-92990000D03*
%TO.P,J8,A14*%
%TO.N,/A14*%
X126375000Y-95530000D03*
%TO.P,J8,A13*%
%TO.N,/A13*%
X125105000Y-92990000D03*
%TO.P,J8,A12*%
%TO.N,/A12*%
X123835000Y-95530000D03*
%TO.P,J8,A11*%
%TO.N,/A11*%
X122565000Y-92990000D03*
%TO.P,J8,A10*%
%TO.N,/A10*%
X121295000Y-95530000D03*
%TO.P,J8,A9*%
%TO.N,/A9*%
X120025000Y-92990000D03*
%TO.P,J8,A8*%
%TO.N,/A8*%
X118755000Y-95530000D03*
%TO.P,J8,A7*%
%TO.N,/A7*%
X117485000Y-92990000D03*
%TO.P,J8,A6*%
%TO.N,/A6*%
X116215000Y-95530000D03*
%TO.P,J8,A5*%
%TO.N,/A5*%
X114945000Y-92990000D03*
%TO.P,J8,A4*%
%TO.N,/A4*%
X113675000Y-95530000D03*
%TO.P,J8,A3*%
%TO.N,/A3*%
X112405000Y-92990000D03*
%TO.P,J8,A2*%
%TO.N,/A2*%
X111135000Y-95530000D03*
D13*
%TO.P,J8,A1*%
%TO.N,/A1*%
X109865000Y-92990000D03*
%TD*%
D11*
%TO.P,J11,7*%
%TO.N,/CLK*%
X227100000Y-117400000D03*
%TO.P,J11,6*%
%TO.N,/~CLK*%
X224560000Y-117400000D03*
%TO.P,J11,5*%
%TO.N,/HLT*%
X222020000Y-117400000D03*
%TO.P,J11,4*%
%TO.N,/DBG*%
X219480000Y-117400000D03*
%TO.P,J11,3*%
%TO.N,/RST*%
X216940000Y-117400000D03*
%TO.P,J11,2*%
%TO.N,/B55*%
X214400000Y-117400000D03*
D10*
%TO.P,J11,1*%
%TO.N,/B54*%
X211860000Y-117400000D03*
%TD*%
%TO.P,J12,1*%
%TO.N,/A54*%
X211860000Y-76200000D03*
D11*
%TO.P,J12,2*%
%TO.N,/A55*%
X214400000Y-76200000D03*
%TO.P,J12,3*%
%TO.N,/A56*%
X216940000Y-76200000D03*
%TO.P,J12,4*%
%TO.N,/A57*%
X219480000Y-76200000D03*
%TO.P,J12,5*%
%TO.N,/A58*%
X222020000Y-76200000D03*
%TO.P,J12,6*%
%TO.N,/A59*%
X224560000Y-76200000D03*
%TO.P,J12,7*%
%TO.N,/A60*%
X227100000Y-76200000D03*
%TD*%
D10*
%TO.P,J1,1*%
%TO.N,/B1*%
X75400000Y-117400000D03*
%TD*%
%TO.P,J2,1*%
%TO.N,/A1*%
X75400000Y-76200000D03*
%TD*%
D11*
%TO.P,J4,16*%
%TO.N,/B17*%
X117500000Y-117400000D03*
%TO.P,J4,15*%
%TO.N,/B16*%
X114960000Y-117400000D03*
%TO.P,J4,14*%
%TO.N,/B15*%
X112420000Y-117400000D03*
%TO.P,J4,13*%
%TO.N,/B14*%
X109880000Y-117400000D03*
%TO.P,J4,12*%
%TO.N,/B13*%
X107340000Y-117400000D03*
%TO.P,J4,11*%
%TO.N,/B12*%
X104800000Y-117400000D03*
%TO.P,J4,10*%
%TO.N,/B11*%
X102260000Y-117400000D03*
%TO.P,J4,9*%
%TO.N,/B10*%
X99720000Y-117400000D03*
%TO.P,J4,8*%
%TO.N,/B9*%
X97180000Y-117400000D03*
%TO.P,J4,7*%
%TO.N,/B8*%
X94640000Y-117400000D03*
%TO.P,J4,6*%
%TO.N,/B7*%
X92100000Y-117400000D03*
%TO.P,J4,5*%
%TO.N,/B6*%
X89560000Y-117400000D03*
%TO.P,J4,4*%
%TO.N,/B5*%
X87020000Y-117400000D03*
%TO.P,J4,3*%
%TO.N,/B4*%
X84480000Y-117400000D03*
%TO.P,J4,2*%
%TO.N,/B3*%
X81940000Y-117400000D03*
D10*
%TO.P,J4,1*%
%TO.N,/B2*%
X79400000Y-117400000D03*
%TD*%
%TO.P,J5,1*%
%TO.N,/A2*%
X79400000Y-76200000D03*
D11*
%TO.P,J5,2*%
%TO.N,/A3*%
X81940000Y-76200000D03*
%TO.P,J5,3*%
%TO.N,/A4*%
X84480000Y-76200000D03*
%TO.P,J5,4*%
%TO.N,/A5*%
X87020000Y-76200000D03*
%TO.P,J5,5*%
%TO.N,/A6*%
X89560000Y-76200000D03*
%TO.P,J5,6*%
%TO.N,/A7*%
X92100000Y-76200000D03*
%TO.P,J5,7*%
%TO.N,/A8*%
X94640000Y-76200000D03*
%TO.P,J5,8*%
%TO.N,/A9*%
X97180000Y-76200000D03*
%TO.P,J5,9*%
%TO.N,/A10*%
X99720000Y-76200000D03*
%TO.P,J5,10*%
%TO.N,/A11*%
X102260000Y-76200000D03*
%TO.P,J5,11*%
%TO.N,/A12*%
X104800000Y-76200000D03*
%TO.P,J5,12*%
%TO.N,/A13*%
X107340000Y-76200000D03*
%TO.P,J5,13*%
%TO.N,/A14*%
X109880000Y-76200000D03*
%TO.P,J5,14*%
%TO.N,/A15*%
X112420000Y-76200000D03*
%TO.P,J5,15*%
%TO.N,/A16*%
X114960000Y-76200000D03*
%TO.P,J5,16*%
%TO.N,/A17*%
X117500000Y-76200000D03*
%TD*%
%TO.P,J6,16*%
%TO.N,/B33*%
X159500000Y-117400000D03*
%TO.P,J6,15*%
%TO.N,/B32*%
X156960000Y-117400000D03*
%TO.P,J6,14*%
%TO.N,/B31*%
X154420000Y-117400000D03*
%TO.P,J6,13*%
%TO.N,/B30*%
X151880000Y-117400000D03*
%TO.P,J6,12*%
%TO.N,/B29*%
X149340000Y-117400000D03*
%TO.P,J6,11*%
%TO.N,/B28*%
X146800000Y-117400000D03*
%TO.P,J6,10*%
%TO.N,/B27*%
X144260000Y-117400000D03*
%TO.P,J6,9*%
%TO.N,/B26*%
X141720000Y-117400000D03*
%TO.P,J6,8*%
%TO.N,/B25*%
X139180000Y-117400000D03*
%TO.P,J6,7*%
%TO.N,/B24*%
X136640000Y-117400000D03*
%TO.P,J6,6*%
%TO.N,/B23*%
X134100000Y-117400000D03*
%TO.P,J6,5*%
%TO.N,/B22*%
X131560000Y-117400000D03*
%TO.P,J6,4*%
%TO.N,/B21*%
X129020000Y-117400000D03*
%TO.P,J6,3*%
%TO.N,/B20*%
X126480000Y-117400000D03*
%TO.P,J6,2*%
%TO.N,/B19*%
X123940000Y-117400000D03*
D10*
%TO.P,J6,1*%
%TO.N,/B18*%
X121400000Y-117400000D03*
%TD*%
%TO.P,J7,1*%
%TO.N,/A18*%
X121500000Y-76200000D03*
D11*
%TO.P,J7,2*%
%TO.N,/A19*%
X124040000Y-76200000D03*
%TO.P,J7,3*%
%TO.N,/A20*%
X126580000Y-76200000D03*
%TO.P,J7,4*%
%TO.N,/A21*%
X129120000Y-76200000D03*
%TO.P,J7,5*%
%TO.N,/A22*%
X131660000Y-76200000D03*
%TO.P,J7,6*%
%TO.N,/A23*%
X134200000Y-76200000D03*
%TO.P,J7,7*%
%TO.N,/A24*%
X136740000Y-76200000D03*
%TO.P,J7,8*%
%TO.N,/A25*%
X139280000Y-76200000D03*
%TO.P,J7,9*%
%TO.N,/A26*%
X141820000Y-76200000D03*
%TO.P,J7,10*%
%TO.N,/A27*%
X144360000Y-76200000D03*
%TO.P,J7,11*%
%TO.N,/A28*%
X146900000Y-76200000D03*
%TO.P,J7,12*%
%TO.N,/A29*%
X149440000Y-76200000D03*
%TO.P,J7,13*%
%TO.N,/A30*%
X151980000Y-76200000D03*
%TO.P,J7,14*%
%TO.N,/A31*%
X154520000Y-76200000D03*
%TO.P,J7,15*%
%TO.N,/A32*%
X157060000Y-76200000D03*
%TO.P,J7,16*%
%TO.N,/A33*%
X159600000Y-76200000D03*
%TD*%
D10*
%TO.P,J9,1*%
%TO.N,/B34*%
X163600000Y-117400000D03*
D11*
%TO.P,J9,2*%
%TO.N,/B35*%
X166140000Y-117400000D03*
%TO.P,J9,3*%
%TO.N,/B36*%
X168680000Y-117400000D03*
%TO.P,J9,4*%
%TO.N,/B37*%
X171220000Y-117400000D03*
%TO.P,J9,5*%
%TO.N,/B38*%
X173760000Y-117400000D03*
%TO.P,J9,6*%
%TO.N,/B39*%
X176300000Y-117400000D03*
%TO.P,J9,7*%
%TO.N,/B40*%
X178840000Y-117400000D03*
%TO.P,J9,8*%
%TO.N,/B41*%
X181380000Y-117400000D03*
%TO.P,J9,9*%
%TO.N,/B42*%
X183920000Y-117400000D03*
%TO.P,J9,10*%
%TO.N,/B43*%
X186460000Y-117400000D03*
%TO.P,J9,11*%
%TO.N,/B44*%
X189000000Y-117400000D03*
%TO.P,J9,12*%
%TO.N,/B45*%
X191540000Y-117400000D03*
%TO.P,J9,13*%
%TO.N,/B46*%
X194080000Y-117400000D03*
%TO.P,J9,14*%
%TO.N,/B47*%
X196620000Y-117400000D03*
%TO.P,J9,15*%
%TO.N,/B48*%
X199160000Y-117400000D03*
%TO.P,J9,16*%
%TO.N,/B49*%
X201700000Y-117400000D03*
%TD*%
%TO.P,J10,16*%
%TO.N,/A49*%
X201700000Y-76200000D03*
%TO.P,J10,15*%
%TO.N,/A48*%
X199160000Y-76200000D03*
%TO.P,J10,14*%
%TO.N,/A47*%
X196620000Y-76200000D03*
%TO.P,J10,13*%
%TO.N,/A46*%
X194080000Y-76200000D03*
%TO.P,J10,12*%
%TO.N,/A45*%
X191540000Y-76200000D03*
%TO.P,J10,11*%
%TO.N,/A44*%
X189000000Y-76200000D03*
%TO.P,J10,10*%
%TO.N,/A43*%
X186460000Y-76200000D03*
%TO.P,J10,9*%
%TO.N,/A42*%
X183920000Y-76200000D03*
%TO.P,J10,8*%
%TO.N,/A41*%
X181380000Y-76200000D03*
%TO.P,J10,7*%
%TO.N,/A40*%
X178840000Y-76200000D03*
%TO.P,J10,6*%
%TO.N,/A39*%
X176300000Y-76200000D03*
%TO.P,J10,5*%
%TO.N,/A38*%
X173760000Y-76200000D03*
%TO.P,J10,4*%
%TO.N,/A37*%
X171220000Y-76200000D03*
%TO.P,J10,3*%
%TO.N,/A36*%
X168680000Y-76200000D03*
%TO.P,J10,2*%
%TO.N,/A35*%
X166140000Y-76200000D03*
D10*
%TO.P,J10,1*%
%TO.N,/A34*%
X163600000Y-76200000D03*
%TD*%
D14*
%TO.N,GND*%
X194070000Y-98050000D03*
%TO.N,+5V*%
X194070000Y-95530000D03*
%TD*%
D15*
%TO.N,+5V*%
X187335000Y-92298399D02*
X187335000Y-95530000D01*
X185236601Y-90200000D02*
X187335000Y-92298399D01*
X176600000Y-90200000D02*
X185236601Y-90200000D01*
X174635000Y-92165000D02*
X176600000Y-90200000D01*
X174635000Y-95530000D02*
X174635000Y-92165000D01*
X174635000Y-100610000D02*
X174635000Y-101835000D01*
X174635000Y-101835000D02*
X175400000Y-102600000D01*
X185345000Y-102600000D02*
X187335000Y-100610000D01*
X175400000Y-102600000D02*
X185345000Y-102600000D01*
X192415000Y-95530000D02*
X194070000Y-95530000D01*
X187335000Y-100610000D02*
X192415000Y-95530000D01*
%TO.N,GND*%
X184275000Y-91200000D02*
X186065000Y-92990000D01*
X177695000Y-91200000D02*
X184275000Y-91200000D01*
X175905000Y-92990000D02*
X177695000Y-91200000D01*
X175905000Y-98070000D02*
X174930000Y-98070000D01*
X174930000Y-98070000D02*
X172800000Y-100200000D01*
X172800000Y-100200000D02*
X172800000Y-102200000D01*
X172800000Y-102200000D02*
X174400000Y-103800000D01*
X174400000Y-103800000D02*
X186600000Y-103800000D01*
X192350000Y-98050000D02*
X194070000Y-98050000D01*
X186600000Y-103800000D02*
X192350000Y-98050000D01*
X186065000Y-92990000D02*
X186065000Y-98070000D01*
X175905000Y-92990000D02*
X175905000Y-98070000D01*
%TD*%
M02*
