%TF.GenerationSoftware,KiCad,Pcbnew,(5.1.8)-1*%
%TF.CreationDate,2020-11-30T17:22:19-08:00*%
%TF.ProjectId,BreakOutBoard,42726561-6b4f-4757-9442-6f6172642e6b,rev?*%
%TF.SameCoordinates,Original*%
%TF.FileFunction,Copper,L1,Top*%
%TF.FilePolarity,Positive*%
%FSLAX46Y46*%
G04 Gerber Fmt 4.6, Leading zero omitted, Abs format (unit mm)*
G04 Created by KiCad (PCBNEW (5.1.8)-1) date 2020-11-30 17:22:19*
%MOMM*%
%LPD*%
G01*
G04 APERTURE LIST*
%TA.AperFunction,ComponentPad*%
%ADD10R,1.700000X1.700000*%
%TD*%
%TA.AperFunction,ComponentPad*%
%ADD11O,1.700000X1.700000*%
%TD*%
%TA.AperFunction,ComponentPad*%
%ADD12C,1.530000*%
%TD*%
%TA.AperFunction,ComponentPad*%
%ADD13R,1.530000X1.530000*%
%TD*%
%TA.AperFunction,ViaPad*%
%ADD14C,1.600000*%
%TD*%
%TA.AperFunction,Conductor*%
%ADD15C,0.500000*%
%TD*%
%TA.AperFunction,Conductor*%
%ADD16C,0.250000*%
%TD*%
G04 APERTURE END LIST*
D10*
%TO.P,J3,1*%
%TO.N,+5V*%
X227100000Y-95500000D03*
D11*
%TO.P,J3,2*%
%TO.N,GND*%
X227100000Y-98040000D03*
%TD*%
D12*
%TO.P,J8,B62*%
%TO.N,+5V*%
X187335000Y-100610000D03*
%TO.P,J8,B61*%
%TO.N,GND*%
X186065000Y-98070000D03*
%TO.P,J8,B60*%
%TO.N,/CLK*%
X184795000Y-100610000D03*
%TO.P,J8,B59*%
%TO.N,/~CLK*%
X183525000Y-98070000D03*
%TO.P,J8,B58*%
%TO.N,/HLT*%
X182255000Y-100610000D03*
%TO.P,J8,B57*%
%TO.N,/DBG*%
X180985000Y-98070000D03*
%TO.P,J8,B56*%
%TO.N,/RST*%
X179715000Y-100610000D03*
%TO.P,J8,B55*%
%TO.N,/B55*%
X178445000Y-98070000D03*
%TO.P,J8,B54*%
%TO.N,/B54*%
X177175000Y-100610000D03*
%TO.P,J8,B53*%
%TO.N,GND*%
X175905000Y-98070000D03*
%TO.P,J8,B52*%
%TO.N,+5V*%
X174635000Y-100610000D03*
%TO.P,J8,B49*%
%TO.N,/B49*%
X170815000Y-98070000D03*
%TO.P,J8,B48*%
%TO.N,/B48*%
X169555000Y-100610000D03*
%TO.P,J8,B47*%
%TO.N,/B47*%
X168285000Y-98070000D03*
%TO.P,J8,B46*%
%TO.N,/B46*%
X167015000Y-100610000D03*
%TO.P,J8,B45*%
%TO.N,/B45*%
X165745000Y-98070000D03*
%TO.P,J8,B44*%
%TO.N,/B44*%
X164475000Y-100610000D03*
%TO.P,J8,B43*%
%TO.N,/B43*%
X163205000Y-98070000D03*
%TO.P,J8,B42*%
%TO.N,/B42*%
X161935000Y-100610000D03*
%TO.P,J8,B41*%
%TO.N,/B41*%
X160665000Y-98070000D03*
%TO.P,J8,B40*%
%TO.N,/B40*%
X159395000Y-100610000D03*
%TO.P,J8,B39*%
%TO.N,/B39*%
X158125000Y-98070000D03*
%TO.P,J8,B38*%
%TO.N,/B38*%
X156855000Y-100610000D03*
%TO.P,J8,B37*%
%TO.N,/B37*%
X155585000Y-98070000D03*
%TO.P,J8,B36*%
%TO.N,/B36*%
X154315000Y-100610000D03*
%TO.P,J8,B35*%
%TO.N,/B35*%
X153045000Y-98070000D03*
%TO.P,J8,B34*%
%TO.N,/B34*%
X151775000Y-100610000D03*
%TO.P,J8,B33*%
%TO.N,/B33*%
X150505000Y-98070000D03*
%TO.P,J8,B32*%
%TO.N,/B32*%
X149235000Y-100610000D03*
%TO.P,J8,B31*%
%TO.N,/B31*%
X147965000Y-98070000D03*
%TO.P,J8,B30*%
%TO.N,/B30*%
X146695000Y-100610000D03*
%TO.P,J8,B29*%
%TO.N,/B29*%
X145425000Y-98070000D03*
%TO.P,J8,B28*%
%TO.N,/B28*%
X144155000Y-100610000D03*
%TO.P,J8,B27*%
%TO.N,/B27*%
X142885000Y-98070000D03*
%TO.P,J8,B26*%
%TO.N,/B26*%
X141615000Y-100610000D03*
%TO.P,J8,B25*%
%TO.N,/B25*%
X140345000Y-98070000D03*
%TO.P,J8,B24*%
%TO.N,/B24*%
X139075000Y-100610000D03*
%TO.P,J8,B23*%
%TO.N,/B23*%
X137805000Y-98070000D03*
%TO.P,J8,B22*%
%TO.N,/B22*%
X136535000Y-100610000D03*
%TO.P,J8,B21*%
%TO.N,/B21*%
X135265000Y-98070000D03*
%TO.P,J8,B20*%
%TO.N,/B20*%
X133995000Y-100610000D03*
%TO.P,J8,B19*%
%TO.N,/B19*%
X132725000Y-98070000D03*
%TO.P,J8,B18*%
%TO.N,/B18*%
X131455000Y-100610000D03*
%TO.P,J8,B17*%
%TO.N,/B17*%
X130185000Y-98070000D03*
%TO.P,J8,B16*%
%TO.N,/B16*%
X128915000Y-100610000D03*
%TO.P,J8,B15*%
%TO.N,/B15*%
X127645000Y-98070000D03*
%TO.P,J8,B14*%
%TO.N,/B14*%
X126375000Y-100610000D03*
%TO.P,J8,B13*%
%TO.N,/B13*%
X125105000Y-98070000D03*
%TO.P,J8,B12*%
%TO.N,/B12*%
X123835000Y-100610000D03*
%TO.P,J8,B11*%
%TO.N,/B11*%
X122565000Y-98070000D03*
%TO.P,J8,B10*%
%TO.N,/B10*%
X121295000Y-100610000D03*
%TO.P,J8,B9*%
%TO.N,/B9*%
X120025000Y-98070000D03*
%TO.P,J8,B8*%
%TO.N,/B8*%
X118755000Y-100610000D03*
%TO.P,J8,B7*%
%TO.N,/B7*%
X117485000Y-98070000D03*
%TO.P,J8,B6*%
%TO.N,/B6*%
X116215000Y-100610000D03*
%TO.P,J8,B5*%
%TO.N,/B5*%
X114945000Y-98070000D03*
%TO.P,J8,B4*%
%TO.N,/B4*%
X113675000Y-100610000D03*
%TO.P,J8,B3*%
%TO.N,/B3*%
X112405000Y-98070000D03*
%TO.P,J8,B2*%
%TO.N,/B2*%
X111135000Y-100610000D03*
%TO.P,J8,B1*%
%TO.N,/B1*%
X109865000Y-98070000D03*
%TO.P,J8,A62*%
%TO.N,+5V*%
X187335000Y-95530000D03*
%TO.P,J8,A61*%
%TO.N,GND*%
X186065000Y-92990000D03*
%TO.P,J8,A60*%
%TO.N,/A60*%
X184795000Y-95530000D03*
%TO.P,J8,A59*%
%TO.N,/A59*%
X183525000Y-92990000D03*
%TO.P,J8,A58*%
%TO.N,/A58*%
X182255000Y-95530000D03*
%TO.P,J8,A57*%
%TO.N,/A57*%
X180985000Y-92990000D03*
%TO.P,J8,A56*%
%TO.N,/A56*%
X179715000Y-95530000D03*
%TO.P,J8,A55*%
%TO.N,/A55*%
X178445000Y-92990000D03*
%TO.P,J8,A54*%
%TO.N,/A54*%
X177175000Y-95530000D03*
%TO.P,J8,A53*%
%TO.N,GND*%
X175905000Y-92990000D03*
%TO.P,J8,A52*%
%TO.N,+5V*%
X174635000Y-95530000D03*
%TO.P,J8,A49*%
%TO.N,/A49*%
X170815000Y-92990000D03*
%TO.P,J8,A48*%
%TO.N,/A48*%
X169555000Y-95530000D03*
%TO.P,J8,A47*%
%TO.N,/A47*%
X168285000Y-92990000D03*
%TO.P,J8,A46*%
%TO.N,/A46*%
X167015000Y-95530000D03*
%TO.P,J8,A45*%
%TO.N,/A45*%
X165745000Y-92990000D03*
%TO.P,J8,A44*%
%TO.N,/A44*%
X164475000Y-95530000D03*
%TO.P,J8,A43*%
%TO.N,/A43*%
X163205000Y-92990000D03*
%TO.P,J8,A42*%
%TO.N,/A42*%
X161935000Y-95530000D03*
%TO.P,J8,A41*%
%TO.N,/A41*%
X160665000Y-92990000D03*
%TO.P,J8,A40*%
%TO.N,/A40*%
X159395000Y-95530000D03*
%TO.P,J8,A39*%
%TO.N,/A39*%
X158125000Y-92990000D03*
%TO.P,J8,A38*%
%TO.N,/A38*%
X156855000Y-95530000D03*
%TO.P,J8,A37*%
%TO.N,/A37*%
X155585000Y-92990000D03*
%TO.P,J8,A36*%
%TO.N,/A36*%
X154315000Y-95530000D03*
%TO.P,J8,A35*%
%TO.N,/A35*%
X153045000Y-92990000D03*
%TO.P,J8,A34*%
%TO.N,/A34*%
X151775000Y-95530000D03*
%TO.P,J8,A33*%
%TO.N,/A33*%
X150505000Y-92990000D03*
%TO.P,J8,A32*%
%TO.N,/A32*%
X149235000Y-95530000D03*
%TO.P,J8,A31*%
%TO.N,/A31*%
X147965000Y-92990000D03*
%TO.P,J8,A30*%
%TO.N,/A30*%
X146695000Y-95530000D03*
%TO.P,J8,A29*%
%TO.N,/A29*%
X145425000Y-92990000D03*
%TO.P,J8,A28*%
%TO.N,/A28*%
X144155000Y-95530000D03*
%TO.P,J8,A27*%
%TO.N,/A27*%
X142885000Y-92990000D03*
%TO.P,J8,A26*%
%TO.N,/A26*%
X141615000Y-95530000D03*
%TO.P,J8,A25*%
%TO.N,/A25*%
X140345000Y-92990000D03*
%TO.P,J8,A24*%
%TO.N,/A24*%
X139075000Y-95530000D03*
%TO.P,J8,A23*%
%TO.N,/A23*%
X137805000Y-92990000D03*
%TO.P,J8,A22*%
%TO.N,/A22*%
X136535000Y-95530000D03*
%TO.P,J8,A21*%
%TO.N,/A21*%
X135265000Y-92990000D03*
%TO.P,J8,A20*%
%TO.N,/A20*%
X133995000Y-95530000D03*
%TO.P,J8,A19*%
%TO.N,/A19*%
X132725000Y-92990000D03*
%TO.P,J8,A18*%
%TO.N,/A18*%
X131455000Y-95530000D03*
%TO.P,J8,A17*%
%TO.N,/A17*%
X130185000Y-92990000D03*
%TO.P,J8,A16*%
%TO.N,/A16*%
X128915000Y-95530000D03*
%TO.P,J8,A15*%
%TO.N,/A15*%
X127645000Y-92990000D03*
%TO.P,J8,A14*%
%TO.N,/A14*%
X126375000Y-95530000D03*
%TO.P,J8,A13*%
%TO.N,/A13*%
X125105000Y-92990000D03*
%TO.P,J8,A12*%
%TO.N,/A12*%
X123835000Y-95530000D03*
%TO.P,J8,A11*%
%TO.N,/A11*%
X122565000Y-92990000D03*
%TO.P,J8,A10*%
%TO.N,/A10*%
X121295000Y-95530000D03*
%TO.P,J8,A9*%
%TO.N,/A9*%
X120025000Y-92990000D03*
%TO.P,J8,A8*%
%TO.N,/A8*%
X118755000Y-95530000D03*
%TO.P,J8,A7*%
%TO.N,/A7*%
X117485000Y-92990000D03*
%TO.P,J8,A6*%
%TO.N,/A6*%
X116215000Y-95530000D03*
%TO.P,J8,A5*%
%TO.N,/A5*%
X114945000Y-92990000D03*
%TO.P,J8,A4*%
%TO.N,/A4*%
X113675000Y-95530000D03*
%TO.P,J8,A3*%
%TO.N,/A3*%
X112405000Y-92990000D03*
%TO.P,J8,A2*%
%TO.N,/A2*%
X111135000Y-95530000D03*
D13*
%TO.P,J8,A1*%
%TO.N,/A1*%
X109865000Y-92990000D03*
%TD*%
D11*
%TO.P,J11,7*%
%TO.N,/CLK*%
X227100000Y-117400000D03*
%TO.P,J11,6*%
%TO.N,/~CLK*%
X224560000Y-117400000D03*
%TO.P,J11,5*%
%TO.N,/HLT*%
X222020000Y-117400000D03*
%TO.P,J11,4*%
%TO.N,/DBG*%
X219480000Y-117400000D03*
%TO.P,J11,3*%
%TO.N,/RST*%
X216940000Y-117400000D03*
%TO.P,J11,2*%
%TO.N,/B55*%
X214400000Y-117400000D03*
D10*
%TO.P,J11,1*%
%TO.N,/B54*%
X211860000Y-117400000D03*
%TD*%
%TO.P,J12,1*%
%TO.N,/A54*%
X211860000Y-76200000D03*
D11*
%TO.P,J12,2*%
%TO.N,/A55*%
X214400000Y-76200000D03*
%TO.P,J12,3*%
%TO.N,/A56*%
X216940000Y-76200000D03*
%TO.P,J12,4*%
%TO.N,/A57*%
X219480000Y-76200000D03*
%TO.P,J12,5*%
%TO.N,/A58*%
X222020000Y-76200000D03*
%TO.P,J12,6*%
%TO.N,/A59*%
X224560000Y-76200000D03*
%TO.P,J12,7*%
%TO.N,/A60*%
X227100000Y-76200000D03*
%TD*%
D10*
%TO.P,J1,1*%
%TO.N,/B1*%
X75400000Y-117400000D03*
%TD*%
%TO.P,J2,1*%
%TO.N,/A1*%
X75400000Y-76200000D03*
%TD*%
D11*
%TO.P,J4,16*%
%TO.N,/B17*%
X117500000Y-117400000D03*
%TO.P,J4,15*%
%TO.N,/B16*%
X114960000Y-117400000D03*
%TO.P,J4,14*%
%TO.N,/B15*%
X112420000Y-117400000D03*
%TO.P,J4,13*%
%TO.N,/B14*%
X109880000Y-117400000D03*
%TO.P,J4,12*%
%TO.N,/B13*%
X107340000Y-117400000D03*
%TO.P,J4,11*%
%TO.N,/B12*%
X104800000Y-117400000D03*
%TO.P,J4,10*%
%TO.N,/B11*%
X102260000Y-117400000D03*
%TO.P,J4,9*%
%TO.N,/B10*%
X99720000Y-117400000D03*
%TO.P,J4,8*%
%TO.N,/B9*%
X97180000Y-117400000D03*
%TO.P,J4,7*%
%TO.N,/B8*%
X94640000Y-117400000D03*
%TO.P,J4,6*%
%TO.N,/B7*%
X92100000Y-117400000D03*
%TO.P,J4,5*%
%TO.N,/B6*%
X89560000Y-117400000D03*
%TO.P,J4,4*%
%TO.N,/B5*%
X87020000Y-117400000D03*
%TO.P,J4,3*%
%TO.N,/B4*%
X84480000Y-117400000D03*
%TO.P,J4,2*%
%TO.N,/B3*%
X81940000Y-117400000D03*
D10*
%TO.P,J4,1*%
%TO.N,/B2*%
X79400000Y-117400000D03*
%TD*%
%TO.P,J5,1*%
%TO.N,/A2*%
X79400000Y-76200000D03*
D11*
%TO.P,J5,2*%
%TO.N,/A3*%
X81940000Y-76200000D03*
%TO.P,J5,3*%
%TO.N,/A4*%
X84480000Y-76200000D03*
%TO.P,J5,4*%
%TO.N,/A5*%
X87020000Y-76200000D03*
%TO.P,J5,5*%
%TO.N,/A6*%
X89560000Y-76200000D03*
%TO.P,J5,6*%
%TO.N,/A7*%
X92100000Y-76200000D03*
%TO.P,J5,7*%
%TO.N,/A8*%
X94640000Y-76200000D03*
%TO.P,J5,8*%
%TO.N,/A9*%
X97180000Y-76200000D03*
%TO.P,J5,9*%
%TO.N,/A10*%
X99720000Y-76200000D03*
%TO.P,J5,10*%
%TO.N,/A11*%
X102260000Y-76200000D03*
%TO.P,J5,11*%
%TO.N,/A12*%
X104800000Y-76200000D03*
%TO.P,J5,12*%
%TO.N,/A13*%
X107340000Y-76200000D03*
%TO.P,J5,13*%
%TO.N,/A14*%
X109880000Y-76200000D03*
%TO.P,J5,14*%
%TO.N,/A15*%
X112420000Y-76200000D03*
%TO.P,J5,15*%
%TO.N,/A16*%
X114960000Y-76200000D03*
%TO.P,J5,16*%
%TO.N,/A17*%
X117500000Y-76200000D03*
%TD*%
%TO.P,J6,16*%
%TO.N,/B33*%
X159500000Y-117400000D03*
%TO.P,J6,15*%
%TO.N,/B32*%
X156960000Y-117400000D03*
%TO.P,J6,14*%
%TO.N,/B31*%
X154420000Y-117400000D03*
%TO.P,J6,13*%
%TO.N,/B30*%
X151880000Y-117400000D03*
%TO.P,J6,12*%
%TO.N,/B29*%
X149340000Y-117400000D03*
%TO.P,J6,11*%
%TO.N,/B28*%
X146800000Y-117400000D03*
%TO.P,J6,10*%
%TO.N,/B27*%
X144260000Y-117400000D03*
%TO.P,J6,9*%
%TO.N,/B26*%
X141720000Y-117400000D03*
%TO.P,J6,8*%
%TO.N,/B25*%
X139180000Y-117400000D03*
%TO.P,J6,7*%
%TO.N,/B24*%
X136640000Y-117400000D03*
%TO.P,J6,6*%
%TO.N,/B23*%
X134100000Y-117400000D03*
%TO.P,J6,5*%
%TO.N,/B22*%
X131560000Y-117400000D03*
%TO.P,J6,4*%
%TO.N,/B21*%
X129020000Y-117400000D03*
%TO.P,J6,3*%
%TO.N,/B20*%
X126480000Y-117400000D03*
%TO.P,J6,2*%
%TO.N,/B19*%
X123940000Y-117400000D03*
D10*
%TO.P,J6,1*%
%TO.N,/B18*%
X121400000Y-117400000D03*
%TD*%
%TO.P,J7,1*%
%TO.N,/A18*%
X121500000Y-76200000D03*
D11*
%TO.P,J7,2*%
%TO.N,/A19*%
X124040000Y-76200000D03*
%TO.P,J7,3*%
%TO.N,/A20*%
X126580000Y-76200000D03*
%TO.P,J7,4*%
%TO.N,/A21*%
X129120000Y-76200000D03*
%TO.P,J7,5*%
%TO.N,/A22*%
X131660000Y-76200000D03*
%TO.P,J7,6*%
%TO.N,/A23*%
X134200000Y-76200000D03*
%TO.P,J7,7*%
%TO.N,/A24*%
X136740000Y-76200000D03*
%TO.P,J7,8*%
%TO.N,/A25*%
X139280000Y-76200000D03*
%TO.P,J7,9*%
%TO.N,/A26*%
X141820000Y-76200000D03*
%TO.P,J7,10*%
%TO.N,/A27*%
X144360000Y-76200000D03*
%TO.P,J7,11*%
%TO.N,/A28*%
X146900000Y-76200000D03*
%TO.P,J7,12*%
%TO.N,/A29*%
X149440000Y-76200000D03*
%TO.P,J7,13*%
%TO.N,/A30*%
X151980000Y-76200000D03*
%TO.P,J7,14*%
%TO.N,/A31*%
X154520000Y-76200000D03*
%TO.P,J7,15*%
%TO.N,/A32*%
X157060000Y-76200000D03*
%TO.P,J7,16*%
%TO.N,/A33*%
X159600000Y-76200000D03*
%TD*%
D10*
%TO.P,J9,1*%
%TO.N,/B34*%
X163600000Y-117400000D03*
D11*
%TO.P,J9,2*%
%TO.N,/B35*%
X166140000Y-117400000D03*
%TO.P,J9,3*%
%TO.N,/B36*%
X168680000Y-117400000D03*
%TO.P,J9,4*%
%TO.N,/B37*%
X171220000Y-117400000D03*
%TO.P,J9,5*%
%TO.N,/B38*%
X173760000Y-117400000D03*
%TO.P,J9,6*%
%TO.N,/B39*%
X176300000Y-117400000D03*
%TO.P,J9,7*%
%TO.N,/B40*%
X178840000Y-117400000D03*
%TO.P,J9,8*%
%TO.N,/B41*%
X181380000Y-117400000D03*
%TO.P,J9,9*%
%TO.N,/B42*%
X183920000Y-117400000D03*
%TO.P,J9,10*%
%TO.N,/B43*%
X186460000Y-117400000D03*
%TO.P,J9,11*%
%TO.N,/B44*%
X189000000Y-117400000D03*
%TO.P,J9,12*%
%TO.N,/B45*%
X191540000Y-117400000D03*
%TO.P,J9,13*%
%TO.N,/B46*%
X194080000Y-117400000D03*
%TO.P,J9,14*%
%TO.N,/B47*%
X196620000Y-117400000D03*
%TO.P,J9,15*%
%TO.N,/B48*%
X199160000Y-117400000D03*
%TO.P,J9,16*%
%TO.N,/B49*%
X201700000Y-117400000D03*
%TD*%
%TO.P,J10,16*%
%TO.N,/A49*%
X201700000Y-76200000D03*
%TO.P,J10,15*%
%TO.N,/A48*%
X199160000Y-76200000D03*
%TO.P,J10,14*%
%TO.N,/A47*%
X196620000Y-76200000D03*
%TO.P,J10,13*%
%TO.N,/A46*%
X194080000Y-76200000D03*
%TO.P,J10,12*%
%TO.N,/A45*%
X191540000Y-76200000D03*
%TO.P,J10,11*%
%TO.N,/A44*%
X189000000Y-76200000D03*
%TO.P,J10,10*%
%TO.N,/A43*%
X186460000Y-76200000D03*
%TO.P,J10,9*%
%TO.N,/A42*%
X183920000Y-76200000D03*
%TO.P,J10,8*%
%TO.N,/A41*%
X181380000Y-76200000D03*
%TO.P,J10,7*%
%TO.N,/A40*%
X178840000Y-76200000D03*
%TO.P,J10,6*%
%TO.N,/A39*%
X176300000Y-76200000D03*
%TO.P,J10,5*%
%TO.N,/A38*%
X173760000Y-76200000D03*
%TO.P,J10,4*%
%TO.N,/A37*%
X171220000Y-76200000D03*
%TO.P,J10,3*%
%TO.N,/A36*%
X168680000Y-76200000D03*
%TO.P,J10,2*%
%TO.N,/A35*%
X166140000Y-76200000D03*
D10*
%TO.P,J10,1*%
%TO.N,/A34*%
X163600000Y-76200000D03*
%TD*%
D14*
%TO.N,GND*%
X194070000Y-98050000D03*
%TO.N,+5V*%
X194070000Y-95530000D03*
%TD*%
D15*
%TO.N,+5V*%
X227070000Y-95530000D02*
X227100000Y-95500000D01*
X187335000Y-95530000D02*
X194070000Y-95530000D01*
X194070000Y-95530000D02*
X227070000Y-95530000D01*
%TO.N,GND*%
X227070000Y-98070000D02*
X227100000Y-98040000D01*
X186065000Y-98070000D02*
X194130000Y-98070000D01*
X194130000Y-98070000D02*
X227070000Y-98070000D01*
D16*
%TO.N,/B40*%
X159395000Y-100610000D02*
X167685161Y-108900161D01*
X170340161Y-108900161D02*
X178840000Y-117400000D01*
X167685161Y-108900161D02*
X170340161Y-108900161D01*
%TO.N,/B39*%
X158125000Y-100953202D02*
X166521969Y-109350171D01*
X158125000Y-98070000D02*
X158125000Y-100953202D01*
X168250171Y-109350171D02*
X176300000Y-117400000D01*
X166521969Y-109350171D02*
X168250171Y-109350171D01*
%TO.N,/B38*%
X173645000Y-117400000D02*
X173760000Y-117400000D01*
X156855000Y-100610000D02*
X173645000Y-117400000D01*
%TO.N,/B37*%
X155585000Y-101765000D02*
X171220000Y-117400000D01*
X155585000Y-98070000D02*
X155585000Y-101765000D01*
%TO.N,/B36*%
X154315000Y-103035000D02*
X168680000Y-117400000D01*
X154315000Y-100610000D02*
X154315000Y-103035000D01*
%TO.N,/B35*%
X153045000Y-104305000D02*
X166140000Y-117400000D01*
X153045000Y-98070000D02*
X153045000Y-104305000D01*
%TO.N,/B34*%
X151775000Y-105575000D02*
X163600000Y-117400000D01*
X151775000Y-100610000D02*
X151775000Y-105575000D01*
%TO.N,/B33*%
X150505000Y-106705000D02*
X159500000Y-115700000D01*
X159500000Y-115700000D02*
X159500000Y-117400000D01*
X150505000Y-98070000D02*
X150505000Y-106705000D01*
%TO.N,/B32*%
X156960000Y-115560000D02*
X156960000Y-117400000D01*
X149235000Y-107835000D02*
X156960000Y-115560000D01*
X149235000Y-100610000D02*
X149235000Y-107835000D01*
%TO.N,/B31*%
X154420000Y-115620000D02*
X154420000Y-117400000D01*
X147965000Y-109165000D02*
X154420000Y-115620000D01*
X147965000Y-98070000D02*
X147965000Y-109165000D01*
%TO.N,/B30*%
X146695000Y-100610000D02*
X146695000Y-110495000D01*
X151880000Y-115680000D02*
X151880000Y-117400000D01*
X146695000Y-110495000D02*
X151880000Y-115680000D01*
%TO.N,/B29*%
X149340000Y-115740000D02*
X149340000Y-117400000D01*
X145425000Y-111825000D02*
X149340000Y-115740000D01*
X145425000Y-98070000D02*
X145425000Y-111825000D01*
%TO.N,/B28*%
X146800000Y-115600000D02*
X146800000Y-117400000D01*
X144155000Y-112955000D02*
X146800000Y-115600000D01*
X144155000Y-100610000D02*
X144155000Y-112955000D01*
%TO.N,/B27*%
X144260000Y-115460000D02*
X144260000Y-117400000D01*
X142885000Y-114085000D02*
X144260000Y-115460000D01*
X142885000Y-98070000D02*
X142885000Y-114085000D01*
%TO.N,/B26*%
X141615000Y-117295000D02*
X141720000Y-117400000D01*
X141615000Y-100610000D02*
X141615000Y-117295000D01*
%TO.N,/B25*%
X140345000Y-116235000D02*
X139180000Y-117400000D01*
X140345000Y-98070000D02*
X140345000Y-116235000D01*
%TO.N,/B24*%
X139075000Y-114965000D02*
X136640000Y-117400000D01*
X139075000Y-100610000D02*
X139075000Y-114965000D01*
%TO.N,/B23*%
X137805000Y-113695000D02*
X134100000Y-117400000D01*
X137805000Y-98070000D02*
X137805000Y-113695000D01*
%TO.N,/B22*%
X136535000Y-112425000D02*
X131560000Y-117400000D01*
X136535000Y-100610000D02*
X136535000Y-112425000D01*
%TO.N,/B21*%
X135265000Y-111155000D02*
X129020000Y-117400000D01*
X135265000Y-98070000D02*
X135265000Y-111155000D01*
%TO.N,/B20*%
X126480000Y-117060000D02*
X126480000Y-117400000D01*
X133995000Y-109545000D02*
X126480000Y-117060000D01*
X133995000Y-100610000D02*
X133995000Y-109545000D01*
%TO.N,/B19*%
X123940000Y-116660000D02*
X123940000Y-117400000D01*
X132725000Y-107875000D02*
X123940000Y-116660000D01*
X132725000Y-98070000D02*
X132725000Y-107875000D01*
%TO.N,/B18*%
X121400000Y-116400000D02*
X121400000Y-117400000D01*
X131455000Y-106345000D02*
X121400000Y-116400000D01*
X131455000Y-100610000D02*
X131455000Y-106345000D01*
%TO.N,/B17*%
X117600000Y-117400000D02*
X117500000Y-117400000D01*
X130185000Y-104815000D02*
X117600000Y-117400000D01*
X130185000Y-98070000D02*
X130185000Y-104815000D01*
%TO.N,/B16*%
X128915000Y-103445000D02*
X114960000Y-117400000D01*
X128915000Y-100610000D02*
X128915000Y-103445000D01*
%TO.N,/B15*%
X112420000Y-117180000D02*
X112420000Y-117400000D01*
X127645000Y-101955000D02*
X112420000Y-117180000D01*
X127645000Y-98070000D02*
X127645000Y-101955000D01*
%TO.N,/B14*%
X109880000Y-117105000D02*
X109880000Y-117400000D01*
X126375000Y-100610000D02*
X109880000Y-117105000D01*
%TO.N,/B13*%
X125105000Y-100953202D02*
X119808152Y-106250050D01*
X125105000Y-98070000D02*
X125105000Y-100953202D01*
X118489950Y-106250050D02*
X107340000Y-117400000D01*
X119808152Y-106250050D02*
X118489950Y-106250050D01*
%TO.N,/B12*%
X123835000Y-100610000D02*
X118644960Y-105800040D01*
X116399960Y-105800040D02*
X104800000Y-117400000D01*
X118644960Y-105800040D02*
X116399960Y-105800040D01*
%TO.N,/B11*%
X122565000Y-100953202D02*
X118168172Y-105350030D01*
X122565000Y-98070000D02*
X122565000Y-100953202D01*
X114309970Y-105350030D02*
X102260000Y-117400000D01*
X118168172Y-105350030D02*
X114309970Y-105350030D01*
%TO.N,/B10*%
X121295000Y-100610000D02*
X117004980Y-104900020D01*
X112219980Y-104900020D02*
X99720000Y-117400000D01*
X117004980Y-104900020D02*
X112219980Y-104900020D01*
%TO.N,/B9*%
X120025000Y-100953202D02*
X116528192Y-104450010D01*
X120025000Y-98070000D02*
X120025000Y-100953202D01*
X110129990Y-104450010D02*
X97180000Y-117400000D01*
X116528192Y-104450010D02*
X110129990Y-104450010D01*
%TO.N,/B8*%
X118755000Y-100610000D02*
X115365000Y-104000000D01*
X108040000Y-104000000D02*
X94640000Y-117400000D01*
X115365000Y-104000000D02*
X108040000Y-104000000D01*
%TO.N,/B7*%
X117485000Y-100953202D02*
X114938161Y-103500041D01*
X117485000Y-98070000D02*
X117485000Y-100953202D01*
X105999959Y-103500041D02*
X92100000Y-117400000D01*
X114938161Y-103500041D02*
X105999959Y-103500041D01*
%TO.N,/B6*%
X116215000Y-100610000D02*
X113774969Y-103050031D01*
X103909969Y-103050031D02*
X89560000Y-117400000D01*
X113774969Y-103050031D02*
X103909969Y-103050031D01*
%TO.N,/B5*%
X114945000Y-100953202D02*
X113298181Y-102600021D01*
X114945000Y-98070000D02*
X114945000Y-100953202D01*
X101819979Y-102600021D02*
X87020000Y-117400000D01*
X113298181Y-102600021D02*
X101819979Y-102600021D01*
%TO.N,/B4*%
X113675000Y-100610000D02*
X112134989Y-102150011D01*
X99729989Y-102150011D02*
X84480000Y-117400000D01*
X112134989Y-102150011D02*
X99729989Y-102150011D01*
%TO.N,/B3*%
X97639999Y-101700001D02*
X81940000Y-117400000D01*
X111658201Y-101700001D02*
X97639999Y-101700001D01*
X112405000Y-100953202D02*
X111658201Y-101700001D01*
X112405000Y-98070000D02*
X112405000Y-100953202D01*
%TO.N,/B2*%
X96190000Y-100610000D02*
X79400000Y-117400000D01*
X111135000Y-100610000D02*
X96190000Y-100610000D01*
%TO.N,/B1*%
X93965001Y-98834999D02*
X75400000Y-117400000D01*
X109100001Y-98834999D02*
X93965001Y-98834999D01*
X109865000Y-98070000D02*
X109100001Y-98834999D01*
%TO.N,/A1*%
X92190000Y-92990000D02*
X75400000Y-76200000D01*
X109865000Y-92990000D02*
X92190000Y-92990000D01*
%TO.N,/A2*%
X111135000Y-92144998D02*
X110790002Y-91800000D01*
X111135000Y-95530000D02*
X111135000Y-92144998D01*
X95000000Y-91800000D02*
X79400000Y-76200000D01*
X110790002Y-91800000D02*
X95000000Y-91800000D01*
%TO.N,/A3*%
X112405000Y-91908127D02*
X111846863Y-91349990D01*
X112405000Y-92990000D02*
X112405000Y-91908127D01*
X97089990Y-91349990D02*
X81940000Y-76200000D01*
X111846863Y-91349990D02*
X97089990Y-91349990D01*
%TO.N,/A4*%
X113675000Y-92541717D02*
X112033263Y-90899980D01*
X113675000Y-95530000D02*
X113675000Y-92541717D01*
X99179980Y-90899980D02*
X84480000Y-76200000D01*
X112033263Y-90899980D02*
X99179980Y-90899980D01*
%TO.N,/A5*%
X114945000Y-92990000D02*
X112404970Y-90449970D01*
X101269970Y-90449970D02*
X87020000Y-76200000D01*
X112404970Y-90449970D02*
X101269970Y-90449970D01*
%TO.N,/A6*%
X116215000Y-92646798D02*
X113568162Y-89999960D01*
X116215000Y-95530000D02*
X116215000Y-92646798D01*
X103359960Y-89999960D02*
X89560000Y-76200000D01*
X113568162Y-89999960D02*
X103359960Y-89999960D01*
%TO.N,/A7*%
X117485000Y-92990000D02*
X114044950Y-89549950D01*
X105449950Y-89549950D02*
X92100000Y-76200000D01*
X114044950Y-89549950D02*
X105449950Y-89549950D01*
%TO.N,/A8*%
X118755000Y-92646798D02*
X115208142Y-89099940D01*
X118755000Y-95530000D02*
X118755000Y-92646798D01*
X107539940Y-89099940D02*
X94640000Y-76200000D01*
X115208142Y-89099940D02*
X107539940Y-89099940D01*
%TO.N,/A9*%
X120025000Y-92990000D02*
X115684930Y-88649930D01*
X109629930Y-88649930D02*
X97180000Y-76200000D01*
X115684930Y-88649930D02*
X109629930Y-88649930D01*
%TO.N,/A10*%
X121295000Y-92646798D02*
X116848122Y-88199920D01*
X121295000Y-95530000D02*
X121295000Y-92646798D01*
X111719920Y-88199920D02*
X99720000Y-76200000D01*
X116848122Y-88199920D02*
X111719920Y-88199920D01*
%TO.N,/A11*%
X122565000Y-92990000D02*
X117324910Y-87749910D01*
X113809910Y-87749910D02*
X102260000Y-76200000D01*
X117324910Y-87749910D02*
X113809910Y-87749910D01*
%TO.N,/A12*%
X123835000Y-92646798D02*
X118488102Y-87299900D01*
X123835000Y-95530000D02*
X123835000Y-92646798D01*
X115899900Y-87299900D02*
X104800000Y-76200000D01*
X118488102Y-87299900D02*
X115899900Y-87299900D01*
%TO.N,/A13*%
X125105000Y-92990000D02*
X118964890Y-86849890D01*
X117989890Y-86849890D02*
X107340000Y-76200000D01*
X118964890Y-86849890D02*
X117989890Y-86849890D01*
%TO.N,/A14*%
X126375000Y-92646798D02*
X109928202Y-76200000D01*
X109928202Y-76200000D02*
X109880000Y-76200000D01*
X126375000Y-95530000D02*
X126375000Y-92646798D01*
%TO.N,/A15*%
X127645000Y-91425000D02*
X112420000Y-76200000D01*
X127645000Y-92990000D02*
X127645000Y-91425000D01*
%TO.N,/A16*%
X128915000Y-90155000D02*
X114960000Y-76200000D01*
X128915000Y-95530000D02*
X128915000Y-90155000D01*
%TO.N,/A17*%
X130185000Y-88885000D02*
X117500000Y-76200000D01*
X130185000Y-92990000D02*
X130185000Y-88885000D01*
%TO.N,/A18*%
X131455000Y-87655000D02*
X121500000Y-77700000D01*
X121500000Y-77700000D02*
X121500000Y-76200000D01*
X131455000Y-95530000D02*
X131455000Y-87655000D01*
%TO.N,/A19*%
X124040000Y-77640000D02*
X124040000Y-76200000D01*
X132725000Y-86325000D02*
X124040000Y-77640000D01*
X132725000Y-92990000D02*
X132725000Y-86325000D01*
%TO.N,/A20*%
X126580000Y-77380000D02*
X126580000Y-76200000D01*
X133995000Y-84795000D02*
X126580000Y-77380000D01*
X133995000Y-95530000D02*
X133995000Y-84795000D01*
%TO.N,/A21*%
X129120000Y-77120000D02*
X129120000Y-76200000D01*
X135265000Y-83265000D02*
X129120000Y-77120000D01*
X135265000Y-92990000D02*
X135265000Y-83265000D01*
%TO.N,/A22*%
X131660000Y-76860000D02*
X131660000Y-76200000D01*
X136535000Y-81735000D02*
X131660000Y-76860000D01*
X136535000Y-95530000D02*
X136535000Y-81735000D01*
%TO.N,/A23*%
X134200000Y-76400000D02*
X134200000Y-76200000D01*
X137805000Y-80005000D02*
X134200000Y-76400000D01*
X137805000Y-92990000D02*
X137805000Y-80005000D01*
%TO.N,/A24*%
X136740000Y-76540000D02*
X136740000Y-76200000D01*
X139075000Y-78875000D02*
X136740000Y-76540000D01*
X139075000Y-95530000D02*
X139075000Y-78875000D01*
%TO.N,/A25*%
X140345000Y-77265000D02*
X139280000Y-76200000D01*
X140345000Y-92990000D02*
X140345000Y-77265000D01*
%TO.N,/A26*%
X141615000Y-76405000D02*
X141820000Y-76200000D01*
X141615000Y-95530000D02*
X141615000Y-76405000D01*
%TO.N,/A27*%
X142885000Y-77675000D02*
X144360000Y-76200000D01*
X142885000Y-92990000D02*
X142885000Y-77675000D01*
%TO.N,/A28*%
X146900000Y-77100000D02*
X146900000Y-76200000D01*
X144155000Y-79845000D02*
X146900000Y-77100000D01*
X144155000Y-95530000D02*
X144155000Y-79845000D01*
%TO.N,/A29*%
X149440000Y-77160000D02*
X149440000Y-76200000D01*
X145425000Y-81175000D02*
X149440000Y-77160000D01*
X145425000Y-92990000D02*
X145425000Y-81175000D01*
%TO.N,/A30*%
X151980000Y-77220000D02*
X151980000Y-76200000D01*
X146695000Y-82505000D02*
X151980000Y-77220000D01*
X146695000Y-95530000D02*
X146695000Y-82505000D01*
%TO.N,/A31*%
X147965000Y-92990000D02*
X147965000Y-83835000D01*
X154520000Y-77280000D02*
X154520000Y-76200000D01*
X147965000Y-83835000D02*
X154520000Y-77280000D01*
%TO.N,/A32*%
X157060000Y-77140000D02*
X157060000Y-76200000D01*
X149235000Y-84965000D02*
X157060000Y-77140000D01*
X149235000Y-95530000D02*
X149235000Y-84965000D01*
%TO.N,/A33*%
X159600000Y-77400000D02*
X159600000Y-76200000D01*
X150505000Y-86495000D02*
X159600000Y-77400000D01*
X150505000Y-92990000D02*
X150505000Y-86495000D01*
%TO.N,/A34*%
X151775000Y-88025000D02*
X163600000Y-76200000D01*
X151775000Y-95530000D02*
X151775000Y-88025000D01*
%TO.N,/A35*%
X153045000Y-89295000D02*
X166140000Y-76200000D01*
X153045000Y-92990000D02*
X153045000Y-89295000D01*
%TO.N,/A36*%
X154315000Y-90565000D02*
X168680000Y-76200000D01*
X154315000Y-95530000D02*
X154315000Y-90565000D01*
%TO.N,/A37*%
X155585000Y-91835000D02*
X171220000Y-76200000D01*
X155585000Y-92990000D02*
X155585000Y-91835000D01*
%TO.N,/A38*%
X156855000Y-92646798D02*
X165901798Y-83600000D01*
X156855000Y-95530000D02*
X156855000Y-92646798D01*
X166878590Y-83600000D02*
X173760000Y-76718590D01*
X173760000Y-76718590D02*
X173760000Y-76200000D01*
X165901798Y-83600000D02*
X166878590Y-83600000D01*
%TO.N,/A39*%
X158125000Y-92990000D02*
X167065110Y-84049890D01*
X168450110Y-84049890D02*
X176300000Y-76200000D01*
X167065110Y-84049890D02*
X168450110Y-84049890D01*
%TO.N,/A40*%
X159395000Y-92646798D02*
X167541898Y-84499900D01*
X159395000Y-95530000D02*
X159395000Y-92646798D01*
X170540100Y-84499900D02*
X178840000Y-76200000D01*
X167541898Y-84499900D02*
X170540100Y-84499900D01*
%TO.N,/B41*%
X160665000Y-100953202D02*
X168161949Y-108450151D01*
X160665000Y-98070000D02*
X160665000Y-100953202D01*
X172430151Y-108450151D02*
X181380000Y-117400000D01*
X168161949Y-108450151D02*
X172430151Y-108450151D01*
%TO.N,/B42*%
X161935000Y-100610000D02*
X169325141Y-108000141D01*
X174520141Y-108000141D02*
X183920000Y-117400000D01*
X169325141Y-108000141D02*
X174520141Y-108000141D01*
%TO.N,/B43*%
X163205000Y-100953202D02*
X169801929Y-107550131D01*
X163205000Y-98070000D02*
X163205000Y-100953202D01*
X176610131Y-107550131D02*
X186460000Y-117400000D01*
X169801929Y-107550131D02*
X176610131Y-107550131D01*
%TO.N,/B44*%
X164475000Y-100610000D02*
X170965121Y-107100121D01*
X178700121Y-107100121D02*
X189000000Y-117400000D01*
X170965121Y-107100121D02*
X178700121Y-107100121D01*
%TO.N,/B45*%
X165745000Y-100953202D02*
X171441909Y-106650111D01*
X165745000Y-98070000D02*
X165745000Y-100953202D01*
X180790111Y-106650111D02*
X191540000Y-117400000D01*
X171441909Y-106650111D02*
X180790111Y-106650111D01*
%TO.N,/B46*%
X167015000Y-100610000D02*
X172605101Y-106200101D01*
X182880101Y-106200101D02*
X194080000Y-117400000D01*
X172605101Y-106200101D02*
X182880101Y-106200101D01*
%TO.N,/B47*%
X168285000Y-100953202D02*
X173081889Y-105750091D01*
X168285000Y-98070000D02*
X168285000Y-100953202D01*
X184970091Y-105750091D02*
X196620000Y-117400000D01*
X173081889Y-105750091D02*
X184970091Y-105750091D01*
%TO.N,/B48*%
X169555000Y-100610000D02*
X174245081Y-105300081D01*
X187060081Y-105300081D02*
X199160000Y-117400000D01*
X174245081Y-105300081D02*
X187060081Y-105300081D01*
%TO.N,/B49*%
X170815000Y-99151873D02*
X176513198Y-104850071D01*
X170815000Y-98070000D02*
X170815000Y-99151873D01*
X189150071Y-104850071D02*
X201700000Y-117400000D01*
X176513198Y-104850071D02*
X189150071Y-104850071D01*
%TO.N,/B54*%
X177175000Y-100610000D02*
X180965061Y-104400061D01*
X198860061Y-104400061D02*
X211860000Y-117400000D01*
X180965061Y-104400061D02*
X198860061Y-104400061D01*
%TO.N,/B55*%
X178445000Y-100953202D02*
X181441849Y-103950051D01*
X178445000Y-98070000D02*
X178445000Y-100953202D01*
X200950051Y-103950051D02*
X214400000Y-117400000D01*
X181441849Y-103950051D02*
X200950051Y-103950051D01*
%TO.N,/RST*%
X203040041Y-103500041D02*
X216940000Y-117400000D01*
X182605041Y-103500041D02*
X203040041Y-103500041D01*
X179715000Y-100610000D02*
X182605041Y-103500041D01*
%TO.N,/DBG*%
X225735001Y-116835999D02*
X211049013Y-102150011D01*
X225735001Y-117964001D02*
X225735001Y-116835999D01*
X225124001Y-118575001D02*
X225735001Y-117964001D01*
X221455999Y-118575001D02*
X225124001Y-118575001D01*
X205931029Y-103050031D02*
X221455999Y-118575001D01*
X183081829Y-103050031D02*
X205931029Y-103050031D01*
X180985000Y-100953202D02*
X183081829Y-103050031D01*
X180985000Y-98070000D02*
X180985000Y-100953202D01*
%TO.N,/HLT*%
X182255000Y-100610000D02*
X184245021Y-102600021D01*
X207220021Y-102600021D02*
X222020000Y-117400000D01*
X184245021Y-102600021D02*
X207220021Y-102600021D01*
%TO.N,/~CLK*%
X183525000Y-100953202D02*
X184721809Y-102150011D01*
X183525000Y-98070000D02*
X183525000Y-100953202D01*
X209310011Y-102150011D02*
X224560000Y-117400000D01*
X184721809Y-102150011D02*
X209310011Y-102150011D01*
%TO.N,/CLK*%
X211400001Y-101700001D02*
X227100000Y-117400000D01*
X185885001Y-101700001D02*
X211400001Y-101700001D01*
X184795000Y-100610000D02*
X185885001Y-101700001D01*
%TO.N,/A41*%
X160665000Y-92990000D02*
X168705090Y-84949910D01*
X172630090Y-84949910D02*
X181380000Y-76200000D01*
X168705090Y-84949910D02*
X172630090Y-84949910D01*
%TO.N,/A42*%
X161935000Y-92646798D02*
X169181878Y-85399920D01*
X161935000Y-95530000D02*
X161935000Y-92646798D01*
X174720080Y-85399920D02*
X183920000Y-76200000D01*
X169181878Y-85399920D02*
X174720080Y-85399920D01*
%TO.N,/A43*%
X163205000Y-92990000D02*
X170345070Y-85849930D01*
X176810070Y-85849930D02*
X186460000Y-76200000D01*
X170345070Y-85849930D02*
X176810070Y-85849930D01*
%TO.N,/A44*%
X164475000Y-92646798D02*
X170821858Y-86299940D01*
X164475000Y-95530000D02*
X164475000Y-92646798D01*
X178900060Y-86299940D02*
X189000000Y-76200000D01*
X170821858Y-86299940D02*
X178900060Y-86299940D01*
%TO.N,/A45*%
X165745000Y-92990000D02*
X171985050Y-86749950D01*
X180990050Y-86749950D02*
X191540000Y-76200000D01*
X171985050Y-86749950D02*
X180990050Y-86749950D01*
%TO.N,/A46*%
X167015000Y-92646798D02*
X172461838Y-87199960D01*
X167015000Y-95530000D02*
X167015000Y-92646798D01*
X183080040Y-87199960D02*
X194080000Y-76200000D01*
X172461838Y-87199960D02*
X183080040Y-87199960D01*
%TO.N,/A47*%
X168285000Y-92990000D02*
X173625030Y-87649970D01*
X185170030Y-87649970D02*
X196620000Y-76200000D01*
X173625030Y-87649970D02*
X185170030Y-87649970D01*
%TO.N,/A48*%
X169555000Y-92636798D02*
X174091818Y-88099980D01*
X169555000Y-95530000D02*
X169555000Y-92636798D01*
X187260020Y-88099980D02*
X199160000Y-76200000D01*
X174091818Y-88099980D02*
X187260020Y-88099980D01*
%TO.N,/A49*%
X170815000Y-92990000D02*
X175255010Y-88549990D01*
X189350010Y-88549990D02*
X201700000Y-76200000D01*
X175255010Y-88549990D02*
X189350010Y-88549990D01*
%TO.N,/A54*%
X177175000Y-92646798D02*
X180821798Y-89000000D01*
X177175000Y-95530000D02*
X177175000Y-92646798D01*
X199060000Y-89000000D02*
X211860000Y-76200000D01*
X180821798Y-89000000D02*
X199060000Y-89000000D01*
%TO.N,/A55*%
X178445000Y-92990000D02*
X181935020Y-89499980D01*
X201100020Y-89499980D02*
X214400000Y-76200000D01*
X181935020Y-89499980D02*
X201100020Y-89499980D01*
%TO.N,/A56*%
X179715000Y-92646798D02*
X182411808Y-89949990D01*
X179715000Y-95530000D02*
X179715000Y-92646798D01*
X203190010Y-89949990D02*
X216940000Y-76200000D01*
X182411808Y-89949990D02*
X203190010Y-89949990D01*
%TO.N,/A57*%
X180985000Y-92990000D02*
X183575000Y-90400000D01*
X205280000Y-90400000D02*
X219480000Y-76200000D01*
X183575000Y-90400000D02*
X205280000Y-90400000D01*
%TO.N,/A58*%
X182255000Y-92646798D02*
X184001818Y-90899980D01*
X182255000Y-95530000D02*
X182255000Y-92646798D01*
X207320020Y-90899980D02*
X222020000Y-76200000D01*
X184001818Y-90899980D02*
X207320020Y-90899980D01*
%TO.N,/A59*%
X183525000Y-92990000D02*
X185165010Y-91349990D01*
X209410010Y-91349990D02*
X224560000Y-76200000D01*
X185165010Y-91349990D02*
X209410010Y-91349990D01*
%TO.N,/A60*%
X184795000Y-92646798D02*
X185641798Y-91800000D01*
X184795000Y-95530000D02*
X184795000Y-92646798D01*
X211500000Y-91800000D02*
X227100000Y-76200000D01*
X185641798Y-91800000D02*
X211500000Y-91800000D01*
%TD*%
M02*
