<svg xmlns="http://www.w3.org/2000/svg" xmlns:xlink="http://www.w3.org/1999/xlink" xmlns:lucid="lucid" width="1496.33" height="1030.02"><g transform="translate(1557 -160)" lucid:page-tab-id="0_0"><path d="M-320.67 597.5h184.58V590l13.5 15-13.5 15v-7.5h-184.57z" stroke="#000" stroke-opacity="0" stroke-width="2" fill="#d9bc66"/><use xlink:href="#a" transform="matrix(1,0,0,1,-315.66990304912866,595) translate(48 13.166666666666668)"/><path d="M-320.67 517.5h184.58V510l13.5 15-13.5 15v-7.5h-184.57z" stroke="#000" stroke-opacity="0" stroke-width="2" fill="#d9bc66"/><use xlink:href="#a" transform="matrix(1,0,0,1,-315.66990304912866,515.0000000000002) translate(48 13.166666666666668)"/><path d="M-320.67 437.5h184.58V430l13.5 15-13.5 15v-7.5h-184.57z" stroke="#000" stroke-opacity="0" stroke-width="2" fill="#d9bc66"/><use xlink:href="#a" transform="matrix(1,0,0,1,-315.66990304912866,435) translate(48 13.166666666666668)"/><path d="M-600.67 320h280v60h-280z" stroke="#333" stroke-width="2" fill="#f2f2f2"/><use xlink:href="#b" transform="matrix(1,0,0,1,-595.6699030491286,325) translate(124.025 30.025)"/><path d="M-600.67 400h280v60h-280z" stroke="#333" stroke-width="2" fill="#f2f2f2"/><use xlink:href="#c" transform="matrix(1,0,0,1,-595.6699030491286,405) translate(124.025 30.025)"/><path d="M-600.67 480h280v60h-280z" stroke="#333" stroke-width="2" fill="#f2f2f2"/><use xlink:href="#d" transform="matrix(1,0,0,1,-595.6699030491286,485) translate(124.025 30.025)"/><path d="M-600.67 560h280v60h-280z" stroke="#333" stroke-width="2" fill="#f2f2f2"/><use xlink:href="#e" transform="matrix(1,0,0,1,-595.6699030491286,565) translate(124.025 30.025)"/><path d="M-1279.67 320h280v60h-280z" stroke="#333" stroke-width="2" fill="#f2f2f2"/><use xlink:href="#f" transform="matrix(1,0,0,1,-1274.6699030491286,325.0000000000007) translate(123.5 30.025)"/><path d="M-1279.67 400h280v60h-280z" stroke="#333" stroke-width="2" fill="#f2f2f2"/><use xlink:href="#g" transform="matrix(1,0,0,1,-1274.6699030491286,405.00000000000045) translate(127 30.025)"/><path d="M-1279.67 480h280v60h-280z" stroke="#333" stroke-width="2" fill="#f2f2f2"/><use xlink:href="#h" transform="matrix(1,0,0,1,-1274.6699030491286,485.0000000000002) translate(126.525 30.025)"/><path d="M-1279.67 560h280v60h-280z" stroke="#333" stroke-width="2" fill="#f2f2f2"/><use xlink:href="#i" transform="matrix(1,0,0,1,-1274.6699030491286,565) translate(123.025 30.025)"/><path d="M-784 350l20-20v10h143.33v-10l20 20-20 20v-10H-764v10z" stroke="#000" stroke-opacity="0" stroke-width="2" fill="#0396a6"/><use xlink:href="#j" transform="matrix(1,0,0,1,-778.9999030491285,335) translate(77 18.6)"/><path d="M-784 425l20-20v10h143.33v-10l20 20-20 20v-10H-764v10z" stroke="#000" stroke-opacity="0" stroke-width="2" fill="#0396a6"/><use xlink:href="#j" transform="matrix(1,0,0,1,-778.9999030491285,410) translate(77 18.6)"/><path d="M-784 510l20-20v10h143.33v-10l20 20-20 20v-10H-764v10z" stroke="#000" stroke-opacity="0" stroke-width="2" fill="#0396a6"/><use xlink:href="#j" transform="matrix(1,0,0,1,-778.9999030491285,495) translate(77 18.6)"/><path d="M-784 590l20-20v10h143.33v-10l20 20-20 20v-10H-764v10z" stroke="#000" stroke-opacity="0" stroke-width="2" fill="#0396a6"/><use xlink:href="#j" transform="matrix(1,0,0,1,-778.9999030491285,575) translate(77 18.6)"/><path d="M-800.67 280.15l28.02 27.98h-14l.63 833.86 14-.02L-800 1170l-28.02-27.98h14l-.63-833.86h-14z" stroke="#000" stroke-opacity="0" stroke-width="2" fill="#0396a6"/><use xlink:href="#j" transform="matrix(0.9999997162994193,-0.0007532603008846222,0.0007532603008846222,0.9999997162994193,-823.6665180260878,285.1646899483981) translate(13.005 440.65)"/><path d="M-340.67 673h260v220.17h-260z" stroke="#333" stroke-width="2" fill="#f2f2f2"/><use xlink:href="#k" transform="matrix(1,0,0,1,-335.6699030491286,678) translate(107.525 106.7125)"/><path d="M-860.67 180h120v60h-120z" stroke="#000" stroke-opacity="0" stroke-width="2" fill="#0396a6"/><use xlink:href="#l" transform="matrix(1,0,0,1,-855.6700000000044,185) translate(18.025 30.025)"/><use xlink:href="#m" transform="matrix(1,0,0,1,-855.6700000000044,185) translate(60.975 30.025)"/><path d="M-216.2 180h120v60h-120z" stroke="#000" stroke-opacity="0" stroke-width="2" fill="#d9bc66"/><use xlink:href="#n" transform="matrix(1,0,0,1,-211.19311794206442,185) translate(19.525 30.025)"/><use xlink:href="#o" transform="matrix(1,0,0,1,-211.19311794206442,185) translate(59.475 30.025)"/><path d="M-216.2 247h60v30h-60z" stroke="#000" stroke-opacity="0" stroke-width="2" fill="#fff" fill-opacity="0"/><use xlink:href="#p" transform="matrix(1,0,0,1,-211.19311794206442,252) translate(19 15.65)"/><path d="M-140.67 247.5h60v30h-60z" stroke="#000" stroke-opacity="0" stroke-width="2" fill="#fff" fill-opacity="0"/><use xlink:href="#q" transform="matrix(1,0,0,1,-135.6699030491286,252.49992125262958) translate(19 15.65)"/><path d="M-890.5 630h180.33v60H-890.5z" stroke="#333" stroke-width="2" fill="#f2f2f2"/><use xlink:href="#r" transform="matrix(1,0,0,1,-885.5027181395294,635.0000000000001) translate(38.574999999999996 30.3375)"/><use xlink:href="#s" transform="matrix(1,0,0,1,-885.5027181395294,635.0000000000001) translate(74.57499999999999 30.3375)"/><path d="M-320.67 327.5h106.5V320l13.5 15-13.5 15v-7.5h-106.5z" stroke="#000" stroke-opacity="0" stroke-width="2" fill="#d9bc66"/><use xlink:href="#a" transform="matrix(1,0,0,1,-315.6699030491285,325) translate(48 13.166666666666668)"/><path d="M-320.67 357.5h184.58V350l13.5 15-13.5 15v-7.5h-184.57z" stroke="#000" stroke-opacity="0" stroke-width="2" fill="#d9bc66"/><use xlink:href="#a" transform="matrix(1,0,0,1,-315.66990304912866,355) translate(48 13.166666666666668)"/><path d="M-320.67 407.5h106.5V400l13.5 15-13.5 15v-7.5h-106.5z" stroke="#000" stroke-opacity="0" stroke-width="2" fill="#d9bc66"/><use xlink:href="#a" transform="matrix(1,0,0,1,-315.6699030491285,405) translate(48 13.166666666666668)"/><path d="M-320.67 487.5h106.5V480l13.5 15-13.5 15v-7.5h-106.5z" stroke="#000" stroke-opacity="0" stroke-width="2" fill="#d9bc66"/><use xlink:href="#a" transform="matrix(1,0,0,1,-315.6699030491285,485) translate(48 13.166666666666668)"/><path d="M-320.67 567.5h106.5V560l13.5 15-13.5 15v-7.5h-106.5z" stroke="#000" stroke-opacity="0" stroke-width="2" fill="#d9bc66"/><use xlink:href="#a" transform="matrix(1,0,0,1,-315.6699030491285,564.9999999999998) translate(48 13.166666666666668)"/><path d="M-175.45 284.85l5.25 365.66 10.74-.14-21.2 19.64-21.77-19.03 10.74-.15-5.24-365.67z" stroke="#000" stroke-opacity="0" stroke-width="2" fill="#d9bc66"/><use xlink:href="#a" transform="matrix(0.9998971118408163,-0.014344536674085353,0.014344536674085353,0.9998971118408163,-202.60681208776123,290.23598555854585) translate(9.097592592592592 192.79166666666666)"/><path d="M-99.93 285v365.66h10.75l-21.5 19.34-21.48-19.34h10.75l-.02-365.66z" stroke="#000" stroke-opacity="0" stroke-width="2" fill="#d9bc66"/><use xlink:href="#a" transform="matrix(0.9999999999912839,-0.000004175185631881766,0.000004175185631881766,0.9999999999912839,-127.15860277731498,290.0000688367145) translate(9.097592592592592 192.79166666666666)"/><path d="M-784 730l20-20v10h400.44v-10l20 20-20 20v-10H-764v10z" stroke="#000" stroke-opacity="0" stroke-width="2" fill="#0396a6"/><use xlink:href="#j" transform="matrix(1,0,0,1,-778.9999030491285,714.9999999999997) translate(205.5 18.6)"/><path d="M-999.67 350l20-20v10h143.33v-10l20 20-20 20v-10h-143.33v10z" stroke="#000" stroke-opacity="0" stroke-width="2" fill="#0396a6"/><use xlink:href="#j" transform="matrix(1,0,0,1,-994.6699030491286,335.0000000000007) translate(77 18.6)"/><path d="M-999.67 425l20-20v10h143.33v-10l20 20-20 20v-10h-143.33v10z" stroke="#000" stroke-opacity="0" stroke-width="2" fill="#0396a6"/><use xlink:href="#j" transform="matrix(1,0,0,1,-994.6699030491286,410.0000000000007) translate(77 18.6)"/><path d="M-999.67 510l20-20v10h143.33v-10l20 20-20 20v-10h-143.33v10z" stroke="#000" stroke-opacity="0" stroke-width="2" fill="#0396a6"/><use xlink:href="#j" transform="matrix(1,0,0,1,-994.6699030491286,495.0000000000007) translate(77 18.6)"/><path d="M-999.67 590l20-20v10h143.33v-10l20 20-20 20v-10h-143.33v10z" stroke="#000" stroke-opacity="0" stroke-width="2" fill="#0396a6"/><use xlink:href="#j" transform="matrix(1,0,0,1,-994.6699030491286,575.0000000000007) translate(77 18.6)"/><path d="M-1477 264.74l28 28h-14V812h14l-28 28-28-28h14V292.74h-14z" stroke="#000" stroke-opacity="0" stroke-width="2" fill="#884ed9"/><use xlink:href="#j" transform="matrix(0.9999999999998722,-5.056010081716306e-7,5.056010081716306e-7,0.9999999999998722,-1500.0002398492556,269.7386948188131) translate(13.005 288.55625)"/><path d="M-1537 180h120v60h-120z" stroke="#000" stroke-opacity="0" stroke-width="2" fill="#884ed9"/><use xlink:href="#t" transform="matrix(1,0,0,1,-1532,185) translate(4.024999999999999 30.025)"/><use xlink:href="#m" transform="matrix(1,0,0,1,-1532,185) translate(74.975 30.025)"/><path d="M-1463 350l20-20v10h143.33v-10l20 20-20 20v-10H-1443v10z" stroke="#000" stroke-opacity="0" stroke-width="2" fill="#884ed9"/><use xlink:href="#j" transform="matrix(1,0,0,1,-1457.9999030491285,335) translate(77 18.6)"/><path d="M-1463 425l20-20v10h143.33v-10l20 20-20 20v-10H-1443v10z" stroke="#000" stroke-opacity="0" stroke-width="2" fill="#884ed9"/><use xlink:href="#j" transform="matrix(1,0,0,1,-1457.9999030491285,410) translate(77 18.6)"/><path d="M-1463 510l20-20v10h143.33v-10l20 20-20 20v-10H-1443v10z" stroke="#000" stroke-opacity="0" stroke-width="2" fill="#884ed9"/><use xlink:href="#j" transform="matrix(1,0,0,1,-1457.9999030491285,495) translate(77 18.6)"/><path d="M-1463 590l20-20v10h143.33v-10l20 20-20 20v-10H-1443v10z" stroke="#000" stroke-opacity="0" stroke-width="2" fill="#884ed9"/><use xlink:href="#j" transform="matrix(1,0,0,1,-1457.9999030491285,575) translate(77 18.6)"/><path d="M-1279.67 680h280v100h-280z" stroke="#333" stroke-width="2" fill="#f2f2f2"/><use xlink:href="#u" transform="matrix(1,0,0,1,-1274.6699030491286,685) translate(102.57499999999999 48.15)"/><path d="M-999.67 730l20-20v10h143.33v-10l20 20-20 20v-10h-143.33v10z" stroke="#000" stroke-opacity="0" stroke-width="2" fill="#0396a6"/><use xlink:href="#j" transform="matrix(1,0,0,1,-994.6699030491286,715.0000000000005) translate(77 18.6)"/><path d="M-1463 730l20-20v10h143.33v-10l20 20-20 20v-10H-1443v10z" stroke="#000" stroke-opacity="0" stroke-width="2" fill="#884ed9"/><use xlink:href="#j" transform="matrix(1,0,0,1,-1457.9999030491285,714.9999999999997) translate(77 18.6)"/><path d="M-1279.67 860h280v306.83h-280z" stroke="#333" stroke-width="2" fill="#f2f2f2"/><use xlink:href="#v" transform="matrix(1,0,0,1,-1274.6699030491286,864.9999999999999) translate(0 14.4)"/><path d="M-1140.34 780l28.08 27.92-14 .04.18 64 14-.04L-1140 900l-28.08-27.92 14-.04-.18-64-14 .04z" stroke="#000" stroke-opacity="0" stroke-width="2" fill="#f2762e"/><use xlink:href="#j" transform="matrix(0.9999961010656321,-0.0027924637032844864,0.0027924637032844864,0.9999961010656321,-1163.3210449569083,785.0642071705038) translate(13.005 59.49375)"/><path d="M-1100 790h120v60h-120z" stroke="#000" stroke-opacity="0" stroke-width="2" fill="#f2762e"/><use xlink:href="#w" transform="matrix(1,0,0,1,-1095,795) translate(13.574999999999996 17.525)"/><use xlink:href="#x" transform="matrix(1,0,0,1,-1095,795) translate(58.475 17.525)"/><use xlink:href="#m" transform="matrix(1,0,0,1,-1095,795) translate(39.5 39.125)"/><path d="M-1260.17 900h240v60h-240z" fill="#fff"/><path d="M-1248.17 900h8m8 0h8m8 0h8m8 0h8m8 0h8m8 0h8m8 0h8m8 0h8m8 0h8m8 0h8m8 0h8m8 0h8m8 0h8m8 0h8m8 0h4v3.75m0 7.5v7.5m0 7.5v7.5m0 7.5v7.5m0 7.5V960h-4m-8 0h-8m-8 0h-8m-8 0h-8m-8 0h-8m-8 0h-8m-8 0h-8m-8 0h-8m-8 0h-8m-8 0h-8m-8 0h-8m-8 0h-8m-8 0h-8m-8 0h-8m-8 0h-8m-8 0h-4v-3.75m0-7.5v-7.5m0-7.5v-7.5m0-7.5v-7.5m0-7.5V900h4" stroke="#000" stroke-width="2" fill="none"/><use xlink:href="#y" transform="matrix(1,0,0,1,-1255.1675484754576,905) translate(84 30.025)"/><use xlink:href="#z" transform="matrix(1,0,0,1,-1255.1675484754576,905) translate(136 30.025)"/><path d="M-1259.67 983.4h240v60h-240z" fill="#fff"/><path d="M-1247.67 983.4h8m8 0h8m8 0h8m8 0h8m8 0h8m8 0h8m8 0h8m8 0h8m8 0h8m8 0h8m8 0h8m8 0h8m8 0h8m8 0h8m8 0h4v3.76m0 7.5v7.5m0 7.5v7.5m0 7.5v7.5m0 7.5v3.75h-4m-8 0h-8m-8 0h-8m-8 0h-8m-8 0h-8m-8 0h-8m-8 0h-8m-8 0h-8m-8 0h-8m-8 0h-8m-8 0h-8m-8 0h-8m-8 0h-8m-8 0h-8m-8 0h-8m-8 0h-4v-3.74m0-7.5v-7.5m0-7.5v-7.5m0-7.5v-7.5m0-7.5v-3.75h4" stroke="#000" stroke-width="2" fill="none"/><use xlink:href="#y" transform="matrix(1,0,0,1,-1254.6699030491286,988.4127520865541) translate(84 30.025)"/><use xlink:href="#A" transform="matrix(1,0,0,1,-1254.6699030491286,988.4127520865541) translate(136 30.025)"/><path d="M-1260.17 1066.83h240v60h-240z" fill="#fff"/><path d="M-1248.17 1066.83h8m8 0h8m8 0h8m8 0h8m8 0h8m8 0h8m8 0h8m8 0h8m8 0h8m8 0h8m8 0h8m8 0h8m8 0h8m8 0h8m8 0h4v3.75m0 7.5v7.5m0 7.5v7.5m0 7.5v7.5m0 7.5v3.75h-4m-8 0h-8m-8 0h-8m-8 0h-8m-8 0h-8m-8 0h-8m-8 0h-8m-8 0h-8m-8 0h-8m-8 0h-8m-8 0h-8m-8 0h-8m-8 0h-8m-8 0h-8m-8 0h-8m-8 0h-4v-3.75m0-7.5v-7.5m0-7.5v-7.5m0-7.5v-7.5m0-7.5v-3.75h4" stroke="#000" stroke-width="2" fill="none"/><use xlink:href="#y" transform="matrix(1,0,0,1,-1255.1675484754576,1071.8255041731081) translate(84 30.025)"/><use xlink:href="#B" transform="matrix(1,0,0,1,-1255.1675484754576,1071.8255041731081) translate(136 30.025)"/><path d="M-784 840l20-20v10h94.47v-10l20 20-20 20v-10H-764v10z" stroke="#000" stroke-opacity="0" stroke-width="2" fill="#0396a6"/><use xlink:href="#j" transform="matrix(0.9999999991284361,-0.00004175078251419909,0.00004175078251419909,0.9999999991284361,-778.9996942995738,824.9997912765923) translate(52.5 18.6)"/><path d="M-649.52 790h280v100h-280z" stroke="#333" stroke-width="2" fill="#f2f2f2"/><use xlink:href="#C" transform="matrix(1,0,0,1,-644.5244693633617,795) translate(100.05 48.15)"/><use xlink:href="#D" transform="matrix(1,0,0,1,-644.5244693633617,795) translate(159.95 48.15)"/><g><path d="M-784 950.08l20-20v10h94.47v-10l20 20-20 20v-10H-764v10z" stroke="#000" stroke-opacity="0" stroke-width="2" fill="#0396a6"/></g><g><use xlink:href="#j" transform="matrix(0.9999999991284361,-0.00004175078251419909,0.00004175078251419909,0.9999999991284361,-778.9996942995738,935.0779802602841) translate(52.5 18.6)"/></g><path d="M-649.52 900.08h280v100h-280z" stroke="#333" stroke-width="2" fill="#f2f2f2"/><g><use xlink:href="#C" transform="matrix(1,0,0,1,-644.5244693633617,905.0781889836919) translate(100.05 48.15)"/><use xlink:href="#E" transform="matrix(1,0,0,1,-644.5244693633617,905.0781889836919) translate(159.95 48.15)"/></g><g><path d="M-784 1060.16l20-20v10h94.47v-10l20 20-20 20v-10H-764v10z" stroke="#000" stroke-opacity="0" stroke-width="2" fill="#0396a6"/></g><g><use xlink:href="#j" transform="matrix(0.9999999991284361,-0.00004175078251419909,0.00004175078251419909,0.9999999991284361,-778.9996942995738,1045.1561692439761) translate(52.5 18.6)"/></g><path d="M-649.52 1010.16h280v100h-280z" stroke="#333" stroke-width="2" fill="#f2f2f2"/><g><use xlink:href="#C" transform="matrix(1,0,0,1,-644.5244693633617,1015.1563779673838) translate(100.05 48.15)"/><use xlink:href="#F" transform="matrix(1,0,0,1,-644.5244693633617,1015.1563779673838) translate(159.95 48.15)"/></g><defs><path fill="#333" d="M27 0v-27h64v-190l-56 39v-29l58-41h29v221h61V0H27" id="G"/><path fill="#333" d="M110-160c48 1 74 30 74 79 0 53-28 85-80 85-65 0-83-55-86-122-5-90 50-162 133-122 14 7 22 21 27 39l-31 6c-5-40-67-38-82-6-9 19-15 44-15 74 11-20 30-34 60-33zm-7 138c34 0 49-23 49-58s-16-56-50-56c-29 0-50 16-49 49 1 36 15 65 50 65" id="H"/><g id="a"><use transform="matrix(0.03703703703703704,0,0,0.03703703703703704,0,0)" xlink:href="#G"/><use transform="matrix(0.03703703703703704,0,0,0.03703703703703704,7.407407407407408,0)" xlink:href="#H"/></g><path fill="#333" d="M233-177c-1 41-23 64-60 70L243 0h-38l-65-103H63V0H30v-248c88 3 205-21 203 71zM63-129c60-2 137 13 137-47 0-61-80-42-137-45v92" id="I"/><g id="b"><use transform="matrix(0.05,0,0,0.05,0,0)" xlink:href="#I"/><use transform="matrix(0.05,0,0,0.05,12.950000000000001,0)" xlink:href="#G"/></g><path fill="#333" d="M101-251c82-7 93 87 43 132L82-64C71-53 59-42 53-27h129V0H18c2-99 128-94 128-182 0-28-16-43-45-43s-46 15-49 41l-32-3c6-41 34-60 81-64" id="J"/><g id="c"><use transform="matrix(0.05,0,0,0.05,0,0)" xlink:href="#I"/><use transform="matrix(0.05,0,0,0.05,12.950000000000001,0)" xlink:href="#J"/></g><path fill="#333" d="M126-127c33 6 58 20 58 59 0 88-139 92-164 29-3-8-5-16-6-25l32-3c6 27 21 44 54 44 32 0 52-15 52-46 0-38-36-46-79-43v-28c39 1 72-4 72-42 0-27-17-43-46-43-28 0-47 15-49 41l-32-3c6-42 35-63 81-64 48-1 79 21 79 65 0 36-21 52-52 59" id="K"/><g id="d"><use transform="matrix(0.05,0,0,0.05,0,0)" xlink:href="#I"/><use transform="matrix(0.05,0,0,0.05,12.950000000000001,0)" xlink:href="#K"/></g><path fill="#333" d="M155-56V0h-30v-56H8v-25l114-167h33v167h35v25h-35zm-30-156c-27 46-58 90-88 131h88v-131" id="L"/><g id="e"><use transform="matrix(0.05,0,0,0.05,0,0)" xlink:href="#I"/><use transform="matrix(0.05,0,0,0.05,12.950000000000001,0)" xlink:href="#L"/></g><path fill="#333" d="M185-189c-5-48-123-54-124 2 14 75 158 14 163 119 3 78-121 87-175 55-17-10-28-26-33-46l33-7c5 56 141 63 141-1 0-78-155-14-162-118-5-82 145-84 179-34 5 7 8 16 11 25" id="M"/><path fill="#333" d="M30-248c87 1 191-15 191 75 0 78-77 80-158 76V0H30v-248zm33 125c57 0 124 11 124-50 0-59-68-47-124-48v98" id="N"/><g id="f"><use transform="matrix(0.05,0,0,0.05,0,0)" xlink:href="#M"/><use transform="matrix(0.05,0,0,0.05,12,0)" xlink:href="#N"/></g><path fill="#333" d="M33 0v-248h34V0H33" id="O"/><g id="g"><use transform="matrix(0.05,0,0,0.05,0,0)" xlink:href="#M"/><use transform="matrix(0.05,0,0,0.05,12,0)" xlink:href="#O"/></g><path fill="#333" d="M30-248c118-7 216 8 213 122C240-48 200 0 122 0H30v-248zM63-27c89 8 146-16 146-99s-60-101-146-95v194" id="P"/><g id="h"><use transform="matrix(0.05,0,0,0.05,0,0)" xlink:href="#P"/><use transform="matrix(0.05,0,0,0.05,12.950000000000001,0)" xlink:href="#O"/></g><path fill="#333" d="M212-179c-10-28-35-45-73-45-59 0-87 40-87 99 0 60 29 101 89 101 43 0 62-24 78-52l27 14C228-24 195 4 139 4 59 4 22-46 18-125c-6-104 99-153 187-111 19 9 31 26 39 46" id="Q"/><g id="i"><use transform="matrix(0.05,0,0,0.05,0,0)" xlink:href="#N"/><use transform="matrix(0.05,0,0,0.05,12,0)" xlink:href="#Q"/></g><path fill="#e5e5e5" d="M27 0v-27h64v-190l-56 39v-29l58-41h29v221h61V0H27" id="R"/><path fill="#e5e5e5" d="M110-160c48 1 74 30 74 79 0 53-28 85-80 85-65 0-83-55-86-122-5-90 50-162 133-122 14 7 22 21 27 39l-31 6c-5-40-67-38-82-6-9 19-15 44-15 74 11-20 30-34 60-33zm-7 138c34 0 49-23 49-58s-16-56-50-56c-29 0-50 16-49 49 1 36 15 65 50 65" id="S"/><g id="j"><use transform="matrix(0.05,0,0,0.05,0,0)" xlink:href="#R"/><use transform="matrix(0.05,0,0,0.05,10,0)" xlink:href="#S"/></g><path fill="#333" d="M205 0l-28-72H64L36 0H1l101-248h38L239 0h-34zm-38-99l-47-123c-12 45-31 82-46 123h93" id="T"/><path fill="#333" d="M30 0v-248h33v221h125V0H30" id="U"/><path fill="#333" d="M232-93c-1 65-40 97-104 97C67 4 28-28 28-90v-158h33c8 89-33 224 67 224 102 0 64-133 71-224h33v155" id="V"/><g id="k"><use transform="matrix(0.05,0,0,0.05,0,0)" xlink:href="#T"/><use transform="matrix(0.05,0,0,0.05,12,0)" xlink:href="#U"/><use transform="matrix(0.05,0,0,0.05,22,0)" xlink:href="#V"/></g><path fill="#e5e5e5" d="M30-248c118-7 216 8 213 122C240-48 200 0 122 0H30v-248zM63-27c89 8 146-16 146-99s-60-101-146-95v194" id="W"/><path fill="#e5e5e5" d="M141-36C126-15 110 5 73 4 37 3 15-17 15-53c-1-64 63-63 125-63 3-35-9-54-41-54-24 1-41 7-42 31l-33-3c5-37 33-52 76-52 45 0 72 20 72 64v82c-1 20 7 32 28 27v20c-31 9-61-2-59-35zM48-53c0 20 12 33 32 33 41-3 63-29 60-74-43 2-92-5-92 41" id="X"/><path fill="#e5e5e5" d="M59-47c-2 24 18 29 38 22v24C64 9 27 4 27-40v-127H5v-23h24l9-43h21v43h35v23H59v120" id="Y"/><g id="l"><use transform="matrix(0.05,0,0,0.05,0,0)" xlink:href="#W"/><use transform="matrix(0.05,0,0,0.05,12.950000000000001,0)" xlink:href="#X"/><use transform="matrix(0.05,0,0,0.05,22.950000000000003,0)" xlink:href="#Y"/><use transform="matrix(0.05,0,0,0.05,27.950000000000003,0)" xlink:href="#X"/></g><path fill="#e5e5e5" d="M160-131c35 5 61 23 61 61C221 17 115-2 30 0v-248c76 3 177-17 177 60 0 33-19 50-47 57zm-97-11c50-1 110 9 110-42 0-47-63-36-110-37v79zm0 115c55-2 124 14 124-45 0-56-70-42-124-44v89" id="Z"/><path fill="#e5e5e5" d="M84 4C-5 8 30-112 23-190h32v120c0 31 7 50 39 49 72-2 45-101 50-169h31l1 190h-30c-1-10 1-25-2-33-11 22-28 36-60 37" id="aa"/><path fill="#e5e5e5" d="M135-143c-3-34-86-38-87 0 15 53 115 12 119 90S17 21 10-45l28-5c4 36 97 45 98 0-10-56-113-15-118-90-4-57 82-63 122-42 12 7 21 19 24 35" id="ab"/><g id="m"><use transform="matrix(0.05,0,0,0.05,0,0)" xlink:href="#Z"/><use transform="matrix(0.05,0,0,0.05,12,0)" xlink:href="#aa"/><use transform="matrix(0.05,0,0,0.05,22,0)" xlink:href="#ab"/></g><g id="n"><use transform="matrix(0.05,0,0,0.05,0,0)" xlink:href="#T"/><use transform="matrix(0.05,0,0,0.05,12,0)" xlink:href="#U"/><use transform="matrix(0.05,0,0,0.05,22,0)" xlink:href="#V"/></g><path fill="#333" d="M160-131c35 5 61 23 61 61C221 17 115-2 30 0v-248c76 3 177-17 177 60 0 33-19 50-47 57zm-97-11c50-1 110 9 110-42 0-47-63-36-110-37v79zm0 115c55-2 124 14 124-45 0-56-70-42-124-44v89" id="ac"/><path fill="#333" d="M84 4C-5 8 30-112 23-190h32v120c0 31 7 50 39 49 72-2 45-101 50-169h31l1 190h-30c-1-10 1-25-2-33-11 22-28 36-60 37" id="ad"/><path fill="#333" d="M135-143c-3-34-86-38-87 0 15 53 115 12 119 90S17 21 10-45l28-5c4 36 97 45 98 0-10-56-113-15-118-90-4-57 82-63 122-42 12 7 21 19 24 35" id="ae"/><g id="o"><use transform="matrix(0.05,0,0,0.05,0,0)" xlink:href="#ac"/><use transform="matrix(0.05,0,0,0.05,12,0)" xlink:href="#ad"/><use transform="matrix(0.05,0,0,0.05,22,0)" xlink:href="#ae"/></g><path d="M195 0l-74-108L45 0H8l94-129-87-119h37l69 98 67-98h37l-84 118L233 0h-38" id="af"/><use transform="matrix(0.05,0,0,0.05,0,0)" xlink:href="#af" id="p"/><path d="M137-103V0h-34v-103L8-248h37l75 118 75-118h37" id="ag"/><use transform="matrix(0.05,0,0,0.05,0,0)" xlink:href="#ag" id="q"/><g id="r"><use transform="matrix(0.05,0,0,0.05,0,0)" xlink:href="#ac"/><use transform="matrix(0.05,0,0,0.05,12,0)" xlink:href="#ad"/><use transform="matrix(0.05,0,0,0.05,22,0)" xlink:href="#ae"/></g><path fill="#333" d="M100-194c62-1 85 37 85 99 1 63-27 99-86 99S16-35 15-95c0-66 28-99 85-99zM99-20c44 1 53-31 53-75 0-43-8-75-51-75s-53 32-53 75 10 74 51 75" id="ah"/><path fill="#333" d="M117-194c89-4 53 116 60 194h-32v-121c0-31-8-49-39-48C34-167 62-67 57 0H25l-1-190h30c1 10-1 24 2 32 11-22 29-35 61-36" id="ai"/><path fill="#333" d="M59-47c-2 24 18 29 38 22v24C64 9 27 4 27-40v-127H5v-23h24l9-43h21v43h35v23H59v120" id="aj"/><path fill="#333" d="M114-163C36-179 61-72 57 0H25l-1-190h30c1 12-1 29 2 39 6-27 23-49 58-41v29" id="ak"/><path fill="#333" d="M24 0v-261h32V0H24" id="al"/><g id="s"><use transform="matrix(0.05,0,0,0.05,0,0)" xlink:href="#Q"/><use transform="matrix(0.05,0,0,0.05,12.950000000000001,0)" xlink:href="#ah"/><use transform="matrix(0.05,0,0,0.05,22.950000000000003,0)" xlink:href="#ai"/><use transform="matrix(0.05,0,0,0.05,32.95,0)" xlink:href="#aj"/><use transform="matrix(0.05,0,0,0.05,37.95,0)" xlink:href="#ak"/><use transform="matrix(0.05,0,0,0.05,43.900000000000006,0)" xlink:href="#ah"/><use transform="matrix(0.05,0,0,0.05,53.900000000000006,0)" xlink:href="#al"/></g><path fill="#e5e5e5" d="M205 0l-28-72H64L36 0H1l101-248h38L239 0h-34zm-38-99l-47-123c-12 45-31 82-46 123h93" id="am"/><path fill="#e5e5e5" d="M85-194c31 0 48 13 60 33l-1-100h32l1 261h-30c-2-10 0-23-3-31C134-8 116 4 85 4 32 4 16-35 15-94c0-66 23-100 70-100zm9 24c-40 0-46 34-46 75 0 40 6 74 45 74 42 0 51-32 51-76 0-42-9-74-50-73" id="an"/><path fill="#e5e5e5" d="M114-163C36-179 61-72 57 0H25l-1-190h30c1 12-1 29 2 39 6-27 23-49 58-41v29" id="ao"/><path fill="#e5e5e5" d="M100-194c63 0 86 42 84 106H49c0 40 14 67 53 68 26 1 43-12 49-29l28 8c-11 28-37 45-77 45C44 4 14-33 15-96c1-61 26-98 85-98zm52 81c6-60-76-77-97-28-3 7-6 17-6 28h103" id="ap"/><g id="t"><use transform="matrix(0.05,0,0,0.05,0,0)" xlink:href="#am"/><use transform="matrix(0.05,0,0,0.05,12,0)" xlink:href="#an"/><use transform="matrix(0.05,0,0,0.05,22,0)" xlink:href="#an"/><use transform="matrix(0.05,0,0,0.05,32,0)" xlink:href="#ao"/><use transform="matrix(0.05,0,0,0.05,37.95,0)" xlink:href="#ap"/><use transform="matrix(0.05,0,0,0.05,47.95,0)" xlink:href="#ab"/><use transform="matrix(0.05,0,0,0.05,56.95,0)" xlink:href="#ab"/></g><path fill="#333" d="M240 0l2-218c-23 76-54 145-80 218h-23L58-218 59 0H30v-248h44l77 211c21-75 51-140 76-211h43V0h-30" id="aq"/><path fill="#333" d="M100-194c63 0 86 42 84 106H49c0 40 14 67 53 68 26 1 43-12 49-29l28 8c-11 28-37 45-77 45C44 4 14-33 15-96c1-61 26-98 85-98zm52 81c6-60-76-77-97-28-3 7-6 17-6 28h103" id="ar"/><path fill="#333" d="M210-169c-67 3-38 105-44 169h-31v-121c0-29-5-50-35-48C34-165 62-65 56 0H25l-1-190h30c1 10-1 24 2 32 10-44 99-50 107 0 11-21 27-35 58-36 85-2 47 119 55 194h-31v-121c0-29-5-49-35-48" id="as"/><path fill="#333" d="M179-190L93 31C79 59 56 82 12 73V49c39 6 53-20 64-50L1-190h34L92-34l54-156h33" id="at"/><g id="u"><use transform="matrix(0.05,0,0,0.05,0,0)" xlink:href="#aq"/><use transform="matrix(0.05,0,0,0.05,14.950000000000001,0)" xlink:href="#ar"/><use transform="matrix(0.05,0,0,0.05,24.950000000000003,0)" xlink:href="#as"/><use transform="matrix(0.05,0,0,0.05,39.900000000000006,0)" xlink:href="#ah"/><use transform="matrix(0.05,0,0,0.05,49.900000000000006,0)" xlink:href="#ak"/><use transform="matrix(0.05,0,0,0.05,55.85,0)" xlink:href="#at"/></g><path fill="#333" d="M24-231v-30h32v30H24zM24 0v-190h32V0H24" id="au"/><path fill="#333" d="M115-194c55 1 70 41 70 98S169 2 115 4C84 4 66-9 55-30l1 105H24l-1-265h31l2 30c10-21 28-34 59-34zm-8 174c40 0 45-34 45-75s-6-73-45-74c-42 0-51 32-51 76 0 43 10 73 51 73" id="av"/><g id="v"><use transform="matrix(0.05,0,0,0.05,0,0)" xlink:href="#N"/><use transform="matrix(0.05,0,0,0.05,12,0)" xlink:href="#au"/><use transform="matrix(0.05,0,0,0.05,15.949999999999998,0)" xlink:href="#av"/><use transform="matrix(0.05,0,0,0.05,25.950000000000003,0)" xlink:href="#ar"/><use transform="matrix(0.05,0,0,0.05,35.95,0)" xlink:href="#al"/><use transform="matrix(0.05,0,0,0.05,39.900000000000006,0)" xlink:href="#au"/><use transform="matrix(0.05,0,0,0.05,43.85000000000001,0)" xlink:href="#ai"/><use transform="matrix(0.05,0,0,0.05,53.85,0)" xlink:href="#ar"/></g><path fill="#e5e5e5" d="M240 0l2-218c-23 76-54 145-80 218h-23L58-218 59 0H30v-248h44l77 211c21-75 51-140 76-211h43V0h-30" id="aw"/><path fill="#e5e5e5" d="M210-169c-67 3-38 105-44 169h-31v-121c0-29-5-50-35-48C34-165 62-65 56 0H25l-1-190h30c1 10-1 24 2 32 10-44 99-50 107 0 11-21 27-35 58-36 85-2 47 119 55 194h-31v-121c0-29-5-49-35-48" id="ax"/><g id="w"><use transform="matrix(0.05,0,0,0.05,0,0)" xlink:href="#aw"/><use transform="matrix(0.05,0,0,0.05,14.950000000000001,0)" xlink:href="#ap"/><use transform="matrix(0.05,0,0,0.05,24.950000000000003,0)" xlink:href="#ax"/></g><g id="x"><use transform="matrix(0.05,0,0,0.05,0,0)" xlink:href="#W"/><use transform="matrix(0.05,0,0,0.05,12.950000000000001,0)" xlink:href="#X"/><use transform="matrix(0.05,0,0,0.05,22.950000000000003,0)" xlink:href="#Y"/><use transform="matrix(0.05,0,0,0.05,27.950000000000003,0)" xlink:href="#X"/></g><path d="M185-189c-5-48-123-54-124 2 14 75 158 14 163 119 3 78-121 87-175 55-17-10-28-26-33-46l33-7c5 56 141 63 141-1 0-78-155-14-162-118-5-82 145-84 179-34 5 7 8 16 11 25" id="ay"/><path d="M59-47c-2 24 18 29 38 22v24C64 9 27 4 27-40v-127H5v-23h24l9-43h21v43h35v23H59v120" id="az"/><path d="M141-36C126-15 110 5 73 4 37 3 15-17 15-53c-1-64 63-63 125-63 3-35-9-54-41-54-24 1-41 7-42 31l-33-3c5-37 33-52 76-52 45 0 72 20 72 64v82c-1 20 7 32 28 27v20c-31 9-61-2-59-35zM48-53c0 20 12 33 32 33 41-3 63-29 60-74-43 2-92-5-92 41" id="aA"/><path d="M177-190C167-65 218 103 67 71c-23-6-38-20-44-43l32-5c15 47 100 32 89-28v-30C133-14 115 1 83 1 29 1 15-40 15-95c0-56 16-97 71-98 29-1 48 16 59 35 1-10 0-23 2-32h30zM94-22c36 0 50-32 50-73 0-42-14-75-50-75-39 0-46 34-46 75s6 73 46 73" id="aB"/><path d="M100-194c63 0 86 42 84 106H49c0 40 14 67 53 68 26 1 43-12 49-29l28 8c-11 28-37 45-77 45C44 4 14-33 15-96c1-61 26-98 85-98zm52 81c6-60-76-77-97-28-3 7-6 17-6 28h103" id="aC"/><g id="y"><use transform="matrix(0.05,0,0,0.05,0,0)" xlink:href="#ay"/><use transform="matrix(0.05,0,0,0.05,12,0)" xlink:href="#az"/><use transform="matrix(0.05,0,0,0.05,17,0)" xlink:href="#aA"/><use transform="matrix(0.05,0,0,0.05,27,0)" xlink:href="#aB"/><use transform="matrix(0.05,0,0,0.05,37,0)" xlink:href="#aC"/></g><path d="M27 0v-27h64v-190l-56 39v-29l58-41h29v221h61V0H27" id="aD"/><use transform="matrix(0.05,0,0,0.05,0,0)" xlink:href="#aD" id="z"/><path d="M101-251c82-7 93 87 43 132L82-64C71-53 59-42 53-27h129V0H18c2-99 128-94 128-182 0-28-16-43-45-43s-46 15-49 41l-32-3c6-41 34-60 81-64" id="aE"/><use transform="matrix(0.05,0,0,0.05,0,0)" xlink:href="#aE" id="A"/><path d="M126-127c33 6 58 20 58 59 0 88-139 92-164 29-3-8-5-16-6-25l32-3c6 27 21 44 54 44 32 0 52-15 52-46 0-38-36-46-79-43v-28c39 1 72-4 72-42 0-27-17-43-46-43-28 0-47 15-49 41l-32-3c6-42 35-63 81-64 48-1 79 21 79 65 0 36-21 52-52 59" id="aF"/><use transform="matrix(0.05,0,0,0.05,0,0)" xlink:href="#aF" id="B"/><path fill="#333" d="M108 0H70L1-190h34L89-25l56-165h34" id="aG"/><path fill="#333" d="M96-169c-40 0-48 33-48 73s9 75 48 75c24 0 41-14 43-38l32 2c-6 37-31 61-74 61-59 0-76-41-82-99-10-93 101-131 147-64 4 7 5 14 7 22l-32 3c-4-21-16-35-41-35" id="aH"/><g id="C"><use transform="matrix(0.05,0,0,0.05,0,0)" xlink:href="#P"/><use transform="matrix(0.05,0,0,0.05,12.950000000000001,0)" xlink:href="#ar"/><use transform="matrix(0.05,0,0,0.05,22.950000000000003,0)" xlink:href="#aG"/><use transform="matrix(0.05,0,0,0.05,31.950000000000003,0)" xlink:href="#au"/><use transform="matrix(0.05,0,0,0.05,35.900000000000006,0)" xlink:href="#aH"/><use transform="matrix(0.05,0,0,0.05,44.900000000000006,0)" xlink:href="#ar"/></g><path fill="#333" d="M101-251c68 0 85 55 85 127S166 4 100 4C33 4 14-52 14-124c0-73 17-127 87-127zm-1 229c47 0 54-49 54-102s-4-102-53-102c-51 0-55 48-55 102 0 53 5 102 54 102" id="aI"/><use transform="matrix(0.05,0,0,0.05,0,0)" xlink:href="#aI" id="D"/><use transform="matrix(0.05,0,0,0.05,0,0)" xlink:href="#G" id="E"/><use transform="matrix(0.05,0,0,0.05,0,0)" xlink:href="#J" id="F"/></defs></g></svg>